<?xml version="1.0" encoding="UTF-8"?>
<svg width="320px" height="136px" viewBox="0 0 320 136" version="1.1" xmlns="http://www.w3.org/2000/svg" xmlns:xlink="http://www.w3.org/1999/xlink">
    <!-- Generator: Sketch 48.2 (47327) - http://www.bohemiancoding.com/sketch -->
    <title>Logo</title>
    <desc>Created with Sketch.</desc>
    <defs></defs>
    <g id="Landing-B" stroke="none" stroke-width="1" fill="none" fill-rule="evenodd" transform="translate(-523.000000, -198.000000)">
        <g id="Header" fill="#FEFEFE">
            <path d="M759.774347,221.925314 L731.704396,268.913509 L762.829638,198 L523,198 L523,310.075752 L707.11444,310.075752 L692.822183,334 L843,334 L843,221.925314 L759.774347,221.925314 Z M807.404149,308.276263 C806.658513,308.618465 805.786642,308.904165 804.784259,309.1323 C803.782945,309.3615 802.751677,309.54486 801.689386,309.688777 C800.630304,309.831627 799.624711,309.93077 798.682235,309.989402 C797.73869,310.045903 796.917099,310.07362 796.2303,310.07362 C793.713108,310.07362 791.747923,309.718626 790.346512,309.004374 C788.940821,308.289056 787.894577,307.305094 787.207778,306.049289 C786.523119,304.792419 786.091998,303.339395 785.919763,301.681691 C785.744319,300.025052 785.660876,298.286328 785.660876,296.458056 L785.660876,274.964397 L781.364641,274.964397 C780.732401,274.964397 780.304489,274.835405 780.077696,274.577422 C779.845554,274.32157 779.734297,273.907944 779.734297,273.337608 L779.734297,269.141643 C779.734297,268.569176 779.845554,268.142756 780.077696,267.857056 C780.304489,267.570289 780.732401,267.428504 781.364641,267.428504 L785.744319,267.428504 L785.744319,258.606958 L785.749668,258.489692 L785.749668,258.460909 L785.749668,256.503645 C785.749668,255.819242 785.895158,255.375766 786.17972,255.176415 C786.46749,254.97813 786.866518,254.876856 787.382152,254.876856 L793.223149,254.876856 C793.794412,254.876856 794.211626,254.97813 794.468373,255.176415 C794.571072,255.255303 794.653445,255.375766 794.715492,255.532475 C794.808563,255.707307 794.855633,255.931177 794.855633,256.210482 L794.855633,256.503645 L794.855633,265.666327 L794.855633,267.428504 L804.053599,267.428504 C804.740398,267.428504 805.184356,267.570289 805.386545,267.857056 C805.586594,268.142756 805.687153,268.541458 805.687153,269.054227 L805.687153,273.337608 C805.687153,273.907944 805.586594,274.32157 805.386545,274.577422 C805.184356,274.835405 804.740398,274.964397 804.053599,274.964397 L794.855633,274.964397 L794.855633,296.286422 C794.855633,297.429225 794.944425,298.312979 795.11452,298.943013 C795.286754,299.56985 795.587363,300.039977 796.017414,300.353395 C796.448535,300.667879 797.032635,300.854437 797.779341,300.912004 C798.524978,300.968505 799.469593,300.996222 800.614257,300.996222 C801.245428,300.996222 802.148322,300.968505 803.31973,300.912004 C804.496488,300.854437 805.511709,300.769154 806.375021,300.655086 C806.829678,300.59752 807.174147,300.655086 807.404149,300.825654 C807.633082,300.996222 807.805317,301.339489 807.919783,301.853324 L808.523139,306.135639 C808.691094,307.105743 808.318811,307.818929 807.404149,308.276263 Z M771.999789,261.01516 C771.884253,261.616411 771.641413,262.145171 771.2702,262.600373 C770.894707,263.057708 770.380143,263.414834 769.723298,263.671751 C769.062174,263.928669 768.187094,264.057661 767.100198,264.057661 C765.954464,264.057661 765.05264,263.91481 764.391516,263.630175 C763.737881,263.345541 763.234014,262.972424 762.887406,262.516155 C762.544006,262.059887 762.315074,261.532193 762.203816,260.932008 C762.08828,260.332889 762.031582,259.718846 762.031582,259.089877 C762.031582,257.720006 762.360004,256.565476 763.017919,255.622023 C763.677973,254.680703 765.035523,254.210576 767.100198,254.210576 C769.218362,254.210576 770.594099,254.652986 771.226339,255.537806 C771.856439,256.423691 772.169884,257.608071 772.169884,259.089877 C772.169884,259.776412 772.113186,260.419239 771.999789,261.01516 Z M771.654251,310.000063 L771.649971,310.075752 L762.288329,310.075752 L762.288329,310.000063 L762.288329,271.29506 C762.288329,270.208757 762.862801,269.666139 764.005325,269.666139 L770.108419,269.666139 C770.739589,269.666139 771.153594,269.823914 771.353642,270.136266 C771.553691,270.451816 771.654251,270.835593 771.654251,271.29506 L771.654251,310.000063 Z M688.432876,285.57264 L661.614568,224.905984 L661.614568,222.50098 L676.990512,222.50098 L691.650774,257.868186 L692.097942,257.868186 L706.400897,222.50098 L721.77791,222.50098 L721.77791,224.905984 L695.227047,285.57264 L688.432876,285.57264 Z M653.084145,284.859454 L613.213454,284.859454 L613.213454,222.50098 L652.279671,222.50098 L652.279671,236.755107 L629.126428,236.755107 L629.126428,245.574521 L650.402207,245.574521 L650.402207,259.740166 L629.126428,259.740166 L629.126428,270.695941 L653.084145,270.695941 L653.084145,284.859454 Z M588.848151,280.22641 C584.080143,283.314751 578.449893,284.859454 571.95205,284.859454 L548.353779,284.859454 L548.353779,222.50098 L571.95205,222.50098 C578.449893,222.50098 584.080143,224.047815 588.848151,227.13509 C593.61509,230.222365 597.072618,234.082525 599.218596,238.715569 C601.363504,243.348613 602.436494,248.335586 602.436494,253.68075 C602.436494,259.025914 601.363504,264.015019 599.218596,268.648063 C597.072618,273.278975 593.61509,277.139135 588.848151,280.22641 Z M571.952264,237.022685 L564.353619,237.022685 L564.353619,270.338815 L571.952264,270.338815 C575.110254,270.338815 577.869216,269.522222 580.220592,267.889037 C582.576247,266.255852 584.275057,264.191983 585.317023,261.698497 C586.360058,259.203944 586.88104,256.530296 586.88104,253.68075 C586.88104,250.830138 586.360058,248.158622 585.317023,245.665136 C584.275057,243.170583 582.576247,241.106715 580.220592,239.472463 C577.869216,237.839278 575.110254,237.022685 571.952264,237.022685 Z" id="Logo"></path>
        </g>
    </g>
</svg>