<svg xmlns="http://www.w3.org/2000/svg" width="123" height="52" viewBox="0 0 123 52">
    <path fill="#00629E" fill-rule="evenodd" d="M91.01 9.148L80.22 27.114 92.186 0H0v42.852h70.769L65.275 52H123V9.148H91.01zm18.548 33.168c-.284.13-.617.24-1 .326-.382.087-.775.157-1.18.212a16.125 16.125 0 0 1-2.084.146c-.96 0-1.71-.135-2.245-.407-.536-.272-.935-.646-1.197-1.124-.262-.478-.426-1.031-.492-1.662a18.83 18.83 0 0 1-.099-1.987v-8.178h-1.639c-.241 0-.404-.049-.491-.147-.089-.097-.131-.254-.131-.471v-1.597c0-.218.042-.38.131-.489.087-.109.25-.163.491-.163h1.671V23.42l.002-.044v-.756c0-.26.056-.43.164-.505.11-.075.262-.114.46-.114h2.228c.218 0 .377.039.475.114.04.03.07.076.094.135a.544.544 0 0 1 .054.258V26.775h3.51c.262 0 .431.054.508.163.077.11.115.26.115.456v1.63c0 .217-.038.374-.115.471-.077.098-.246.147-.508.147h-3.51v8.113c0 .434.034.77.099 1.01.065.239.18.418.344.537.165.12.388.19.673.212.284.022.644.032 1.081.032.241 0 .586-.01 1.033-.032.449-.022.836-.054 1.165-.097.174-.022.305 0 .393.065.087.064.153.195.197.39l.23 1.63c.064.369-.078.64-.427.814zM95.933 23.764a1.447 1.447 0 0 1-.288.644c-.148.186-.351.33-.61.435-.261.105-.606.157-1.035.157-.452 0-.808-.058-1.069-.174a1.46 1.46 0 0 1-.593-.452 1.535 1.535 0 0 1-.27-.644 4.056 4.056 0 0 1-.068-.748c0-.556.13-1.025.39-1.409.26-.382.795-.573 1.61-.573.835 0 1.378.18 1.628.54.248.359.372.84.372 1.442 0 .279-.022.54-.067.782zM96 41.972l-.002.028H92V27.605c0-.404.245-.605.733-.605h2.607c.27 0 .446.059.532.175.085.117.128.26.128.43v14.367zM63.252 33L53 9.915V9h5.878l5.605 13.458h.17L70.122 9H76v.915L65.85 33h-2.598zM50 33H35V9h14.697v5.486h-8.71v3.394h8.004v5.452h-8.004v4.217H50V33zm-24.276-1.783C23.872 32.405 21.686 33 19.164 33H10V9h9.163c2.523 0 4.71.595 6.56 1.784 1.852 1.188 3.194 2.673 4.028 4.457C30.583 17.024 31 18.943 31 21c0 2.056-.417 3.977-1.25 5.76-.833 1.782-2.175 3.268-4.026 4.456zM19.036 15H16v13h3.036c1.261 0 2.364-.319 3.303-.956.941-.637 1.62-1.443 2.036-2.415A7.866 7.866 0 0 0 25 21.5a7.86 7.86 0 0 0-.625-3.128c-.416-.973-1.095-1.778-2.036-2.416-.94-.637-2.042-.956-3.303-.956z"/>
</svg>
