<?xml version="1.0" encoding="utf-8"?>
<!-- Generator: Adobe Illustrator 21.1.0, SVG Export Plug-In . SVG Version: 6.00 Build 0)  -->
<svg version="1.1" id="Layer_1" xmlns="http://www.w3.org/2000/svg" xmlns:xlink="http://www.w3.org/1999/xlink" x="0px" y="0px"
	 viewBox="0 0 275.9 216.4" style="enable-background:new 0 0 275.9 216.4;" xml:space="preserve">
<style type="text/css">
	.st0{fill:#004E7E;}
	.st1{fill:#00629E;}
	.st2{fill:none;stroke:#66A1C5;stroke-width:8;stroke-linecap:round;stroke-linejoin:round;}
	.st3{fill:#66A1C5;}
	.st4{fill:none;stroke:#004E7E;stroke-width:6;stroke-linecap:round;stroke-miterlimit:10;}
	.st5{fill:#FFFFFF;}
	.st6{fill:none;stroke:#66A1C5;stroke-width:8;stroke-miterlimit:10;}
	.st7{fill:none;stroke:#FFFFFF;stroke-width:3.8667;stroke-linecap:round;stroke-linejoin:round;stroke-miterlimit:10;}
</style>
<g>
	<path class="st0" d="M195,184.2L47.8,157.4c-8.7-1.6-14.5-9.9-12.9-18.6l19.6-108c1.6-8.7,9.9-14.5,18.6-12.9l147.2,26.8
		c8.7,1.6,14.5,9.9,12.9,18.6l-19.6,108C212,180,203.7,185.7,195,184.2z"/>
	<path class="st0" d="M155.1,177.5l22.6,31.3c3.1,4.2,9.7,2.7,10.6-2.4l9.3-51.2L155.1,177.5z"/>
</g>
<title>Tickets illustration</title>
<desc>Created with Sketch.</desc>
<g>
	<path class="st1" d="M203.1,175.7l-149.4-8.1c-8.8-0.5-15.6-8-15.1-16.8l6-109.6c0.5-8.8,8-15.6,16.8-15.1l149.4,8.1
		c8.8,0.5,15.6,8,15.1,16.8l-6,109.6C219.5,169.4,211.9,176.1,203.1,175.7z"/>
	<path class="st1" d="M162.7,174l26.4,28.2c3.6,3.8,10,1.5,10.3-3.7l2.8-51.9L162.7,174z"/>
</g>
<g>
	<line class="st2" x1="70.8" y1="67.1" x2="198.7" y2="74"/>
	<line class="st2" x1="69.3" y1="94.3" x2="197.3" y2="101.3"/>
	<line class="st2" x1="67.8" y1="121.6" x2="142.6" y2="125.7"/>
</g>
<g>
	<path class="st3" d="M210.2,62.3c3.5,9.7,9.3,18.6,17.2,26.1s17.2,12.6,27.1,15.6l21.1-62c1-3-1.9-5.8-4.8-4.5L210.2,62.3z"/>
	<ellipse transform="matrix(0.6849 -0.7286 0.7286 0.6849 21.5357 198.2522)" class="st1" cx="240" cy="74.2" rx="8.9" ry="8.5"/>
	<g>
		
			<ellipse transform="matrix(0.6849 -0.7286 0.7286 0.6849 31.6503 189.6917)" class="st0" cx="235.1" cy="58.3" rx="1.6" ry="1.5"/>
		<ellipse transform="matrix(0.6849 -0.7286 0.7286 0.6849 42.281 209.3614)" class="st0" cx="263.2" cy="55.8" rx="1.6" ry="1.5"/>
		
			<ellipse transform="matrix(0.6849 -0.7286 0.7286 0.6849 15.0698 211.0301)" class="st0" cx="251.5" cy="88.1" rx="1.6" ry="1.5"/>
		
			<ellipse transform="matrix(0.6849 -0.7286 0.7286 0.6849 20.7267 182.5009)" class="st0" cx="221.4" cy="67.3" rx="1.6" ry="1.5"/>
	</g>
	<path class="st1" d="M257.9,48.7c1.9-2,2.7-4.5,2.5-7l-15.8,6.5c0.3,0.4,0.6,0.8,1,1.2C249,52.6,254.5,52.3,257.9,48.7z"/>
	<path class="st1" d="M258.7,65.1c-3.4,3.6-3.3,9.1,0.1,12.3c1.2,1.1,2.6,1.8,4.1,2.1l5.7-16.6C265.3,61.5,261.3,62.3,258.7,65.1z"
		/>
	<path class="st4" d="M254.6,103.9c-9.9-2.9-19.2-8.1-27.1-15.6s-13.7-16.4-17.2-26.1"/>
</g>
<g>
	<path class="st3" d="M208.7,3c-4.4,5.8-7.5,12.6-8.9,20.2s-0.9,15.1,1.1,22.1l44.9-11.1c2.2-0.5,2.7-3.3,0.9-4.6L208.7,3z"/>
	<ellipse transform="matrix(0.1831 -0.9831 0.9831 0.1831 149.1395 229.9492)" class="st1" cx="212.9" cy="25.2" rx="6" ry="6.3"/>
	<g>
		
			<ellipse transform="matrix(0.1831 -0.9831 0.9831 0.1831 164.2016 230.1428)" class="st0" cx="220.6" cy="16.3" rx="1.1" ry="1.1"/>
		<ellipse transform="matrix(0.1831 -0.9831 0.9831 0.1831 158.6615 254.9484)" class="st0" cx="232.7" cy="32" rx="1.1" ry="1.1"/>
		
			<ellipse transform="matrix(0.1831 -0.9831 0.9831 0.1831 134.0648 236.0951)" class="st0" cx="209.1" cy="37.4" rx="1.1" ry="1.1"/>
		<ellipse transform="matrix(0.1831 -0.9831 0.9831 0.1831 160.1875 215.8283)" class="st0" cx="210" cy="11.5" rx="1.1" ry="1.1"/>
	</g>
	<path class="st1" d="M234.9,26.1c1.9,0.4,3.7-0.1,5.1-1.2l-9.9-6.9c-0.1,0.3-0.2,0.7-0.3,1.1C229.2,22.3,231.5,25.5,234.9,26.1z"/>
	<path class="st1" d="M225.5,32.9c-3.4-0.6-6.7,1.5-7.3,4.7c-0.2,1.1-0.1,2.2,0.3,3.3l12-3C230.2,35.4,228.2,33.4,225.5,32.9z"/>
	<path class="st4" d="M200.8,45.2c-2-7-2.5-14.5-1.1-22.1s4.5-14.4,8.9-20.2"/>
</g>
<g>
	<g>
		<path class="st5" d="M56.7,147C56.7,147,56.6,147,56.7,147c2.7-5.3,0.8-11.8-4.3-14.7c-4.5-2.6-10-1.6-13.4,1.9
			c-0.1-0.1-0.2-0.2-0.3-0.2c-3.7-2.1-8.3-0.8-10.4,2.8s-0.8,8.3,2.8,10.4c2,1.2,4.4,1.3,6.4,0.5c0.9,1.5,2.2,2.9,3.9,3.8
			c2.4,1.4,5.1,1.7,7.6,1.2c0.3,1.4,1.2,2.7,2.5,3.5c2.5,1.5,5.8,0.6,7.3-2C60.1,151.7,59.2,148.5,56.7,147z"/>
		<path class="st3" d="M28.3,196.6L7,184.4c-2.5-1.4-3.4-4.7-2-7.2l23.1-40.4l30.5,17.5l-23.1,40.4
			C34.1,197.2,30.8,198.1,28.3,196.6z"/>
		<path class="st1" d="M32.2,188.6L12,177c-1.7-1-2.3-3.2-1.3-4.9l17.9-31.3L55,156l-17.9,31.3C36.1,189,33.9,189.6,32.2,188.6z"/>
		<path class="st0" d="M32.2,188.6l-5.2-3l19.7-34.4L55,156l-17.9,31.3C36.1,189,33.9,189.6,32.2,188.6z"/>
		<path class="st5" d="M39.6,165l-1.1-0.6c-1.4-0.8-1.8-2.5-1.1-3.9l8.1-14.2l6,3.5l-8.1,14.2C42.7,165.3,40.9,165.8,39.6,165z"/>
	</g>
	<g>
		<path class="st5" d="M81.1,166.1C81.1,166.1,81.1,166.1,81.1,166.1c2.7-5.3,0.8-11.8-4.3-14.7c-4.5-2.6-10-1.6-13.4,1.9
			c-0.1-0.1-0.2-0.2-0.3-0.2c-3.7-2.1-8.3-0.8-10.4,2.8c-2.1,3.7-0.8,8.3,2.8,10.4c2,1.2,4.4,1.3,6.4,0.5c0.9,1.5,2.2,2.9,3.9,3.8
			c2.4,1.4,5.1,1.7,7.6,1.2c0.3,1.4,1.2,2.7,2.5,3.5c2.5,1.5,5.8,0.6,7.3-2C84.5,170.8,83.6,167.6,81.1,166.1z"/>
		<path class="st3" d="M52.7,215.7l-21.3-12.2c-2.5-1.4-3.4-4.7-2-7.2l23.1-40.4l30.5,17.5l-23.1,40.4
			C58.5,216.3,55.3,217.2,52.7,215.7z"/>
		<path class="st1" d="M56.6,207.7l-20.3-11.6c-1.7-1-2.3-3.2-1.3-4.9L53,159.9l26.4,15.1l-17.9,31.3
			C60.5,208.1,58.3,208.7,56.6,207.7z"/>
		<path class="st0" d="M56.6,207.7l-5.2-3l19.7-34.4l8.3,4.7l-17.9,31.3C60.5,208.1,58.3,208.7,56.6,207.7z"/>
		<path class="st5" d="M64,184.1l-1.1-0.6c-1.4-0.8-1.8-2.5-1.1-3.9l8.1-14.2l6,3.5L67.9,183C67.1,184.4,65.3,184.9,64,184.1z"/>
	</g>
	<path class="st6" d="M77.3,183.5l5.4,3.1c1.5,0.9,2,3,1,4.6l-8.1,14.1c-1,1.7-3,2.3-4.5,1.4l-5.4-3.1"/>
	<path class="st6" d="M11,166.9l-5.4-3.1c-1.5-0.9-2-3-1-4.6l8.1-14.1c1-1.7,3-2.3,4.5-1.4l5.4,3.1"/>
	<g>
		<line class="st7" x1="61.8" y1="131.2" x2="63.1" y2="136.5"/>
		<line class="st7" x1="80.2" y1="142.2" x2="74.9" y2="143.5"/>
		<line class="st7" x1="73.1" y1="132.8" x2="70.4" y2="137.5"/>
	</g>
</g>
</svg>
