<svg xmlns="http://www.w3.org/2000/svg" xmlns:xlink="http://www.w3.org/1999/xlink" width="230" height="100" viewBox="0 0 230 100">
    <defs>
        <path id="a" d="M0 99.626h229.572V0H0z"/>
    </defs>
    <g fill="none" fill-rule="evenodd">
        <path fill="#472F91" d="M108.703 47.566v-.044c0-4.58 3.594-8.17 8.468-8.17 2.786 0 4.696.852 6.38 2.289l-2.56 3.075c-1.147-.965-2.247-1.481-3.796-1.481-2.247 0-4.022 1.907-4.022 4.31v.044c0 2.536 1.775 4.355 4.269 4.355 1.01 0 1.864-.224 2.515-.65v-1.91h-3.1v-3.187h7.233v7.071c-1.684 1.37-3.953 2.425-6.828 2.425-4.897 0-8.559-3.39-8.559-8.127M139.34 47.566v-.044c0-2.244-1.64-4.243-4.043-4.243-2.381 0-3.977 1.93-3.977 4.197v.046c0 2.244 1.618 4.243 4.021 4.243 2.404 0 4-1.931 4-4.199m-12.491 0v-.044c0-4.512 3.64-8.17 8.491-8.17 4.852 0 8.446 3.635 8.446 8.124v.046c0 4.512-3.638 8.17-8.49 8.17-4.853 0-8.447-3.635-8.447-8.126M146.547 39.666h4.358v11.896h7.616v3.817h-11.974zM167.144 51.518c2.606 0 4.335-1.437 4.335-3.974v-.045c0-2.514-1.729-3.973-4.335-3.973h-1.774v7.992h1.774zm-6.132-11.852h6.064c5.639 0 8.874 3.21 8.874 7.766v.044c0 4.558-3.302 7.902-8.963 7.902h-5.975V39.666zM178.238 39.666h12.646v3.703h-8.333v2.38h7.548v3.434h-7.548v2.491h8.446v3.705h-12.76zM194.476 39.666h4.065l6.47 8.305v-8.305h4.313v15.713h-3.82l-6.715-8.62v8.62h-4.313zM108.703 73.936v-.045c0-4.579 3.594-8.17 8.468-8.17 2.786 0 4.696.852 6.38 2.29l-2.56 3.075c-1.147-.966-2.247-1.482-3.796-1.482-2.247 0-4.022 1.907-4.022 4.31v.045c0 2.535 1.775 4.354 4.269 4.354 1.01 0 1.864-.225 2.515-.651v-1.908h-3.1v-3.188h7.233v7.071c-1.684 1.37-3.953 2.425-6.828 2.425-4.897 0-8.559-3.39-8.559-8.126M135.919 75.552l-1.752-4.466-1.775 4.466h3.527zm-3.819-9.63h4.202l6.693 15.825h-4.673l-1.144-2.805h-6.066l-1.123 2.805h-4.584l6.695-15.825zM145.934 69.85h-4.716v-3.815h13.792v3.815h-4.717v11.898h-4.359zM157.12 66.035h12.646v3.703h-8.334v2.38h7.548v3.434h-7.548v2.49h8.446v3.705H157.12zM185.42 73.847c1.55 0 2.493-.786 2.493-2.043v-.045c0-1.348-.921-2.065-2.516-2.065h-2.044v4.153h2.066zm-6.425-7.812h6.739c3.976 0 6.537 2.02 6.537 5.522v.044c0 3.704-2.853 5.657-6.762 5.657h-2.156v4.49h-4.358V66.034zM202.668 73.577c1.506 0 2.336-.718 2.336-1.863v-.045c0-1.257-.898-1.863-2.358-1.863h-2.853v3.77h2.875zm-7.233-7.542h7.435c2.426 0 4.066.628 5.121 1.706.921.897 1.394 2.11 1.394 3.659v.044c0 2.425-1.258 3.996-3.235 4.826l3.75 5.477h-5.03l-3.169-4.758h-1.908v4.758h-4.358V66.035zM224.701 73.936v-.045c0-2.244-1.64-4.242-4.043-4.242-2.381 0-3.977 1.93-3.977 4.197v.045c0 2.245 1.618 4.242 4.02 4.242 2.405 0 4-1.93 4-4.197m-12.49 0v-.045c0-4.511 3.64-8.17 8.49-8.17 4.853 0 8.447 3.636 8.447 8.125v.045c0 4.512-3.638 8.171-8.49 8.171-4.853 0-8.447-3.637-8.447-8.126"/>
        <mask id="b" fill="#fff">
            <use xlink:href="#a"/>
        </mask>
        <path fill="#C5168C" d="M.153 59.904h20.37V39.55H.153z" mask="url(#b)"/>
        <path fill="#FCB833" d="M78.857 59.904h20.37V39.55h-20.37zM0 59.905V39.483c21.787 0 39.513-17.712 39.513-39.483H59.95c0 33.032-26.893 59.905-59.95 59.905" mask="url(#b)"/>
        <path fill="#C5168C" d="M39.547 99.454h20.37V0h-20.37z" mask="url(#b)"/>
        <path fill="#472F91" d="M59.714 99.455H39.276c0-33.03 26.893-59.905 59.95-59.905v20.422c-21.787 0-39.512 17.714-39.512 39.483" mask="url(#b)"/>
        <path fill="#87888B" d="M109.12 95.42v-.023c0-2.37 1.825-4.23 4.29-4.23 1.663 0 2.745.687 3.454 1.697l-1.698 1.313c-.465-.593-.988-.953-1.778-.953-1.14 0-1.942.965-1.942 2.15v.023c0 1.22.802 2.172 1.942 2.172.849 0 1.36-.395 1.836-.988l1.698 1.21c-.779 1.056-1.79 1.835-3.605 1.835-2.325 0-4.197-1.777-4.197-4.206M124.387 95.42v-.023c0-1.162-.849-2.195-2.092-2.195-1.233 0-2.058.998-2.058 2.172v.023c0 1.162.837 2.196 2.081 2.196s2.07-1 2.07-2.173m-6.465 0v-.023c0-2.335 1.884-4.23 4.395-4.23 2.51 0 4.372 1.884 4.372 4.207v.023c0 2.335-1.884 4.23-4.395 4.23-2.512 0-4.372-1.883-4.372-4.207M131.607 97.465c1.349 0 2.244-.744 2.244-2.056v-.023c0-1.302-.895-2.057-2.244-2.057h-.918v4.136h.918zm-3.174-6.134h3.14c2.918 0 4.592 1.661 4.592 4.02v.023c0 2.358-1.709 4.09-4.64 4.09h-3.092V91.33zM137.943 99.463h2.267v-8.132h-2.267zM142.338 91.33h2.104l3.348 4.299V91.33h2.233v8.132h-1.977l-3.476-4.46v4.46h-2.232zM151.785 95.42v-.023c0-2.37 1.86-4.23 4.383-4.23 1.441 0 2.43.443 3.301 1.186l-1.324 1.592c-.594-.5-1.164-.767-1.966-.767-1.162 0-2.08.988-2.08 2.23v.024c0 1.313.918 2.254 2.208 2.254.524 0 .965-.117 1.302-.337v-.988h-1.604v-1.65h3.744v3.66a5.504 5.504 0 0 1-3.535 1.255c-2.534 0-4.43-1.754-4.43-4.206M169.974 96.257l-.907-2.312-.918 2.312h1.825zm-1.976-4.985h2.174l3.464 8.191h-2.418l-.593-1.452h-3.139l-.582 1.452h-2.371l3.465-8.191zM174.228 95.42v-.023c0-2.37 1.825-4.23 4.29-4.23 1.663 0 2.744.687 3.454 1.697l-1.698 1.313c-.466-.593-.989-.953-1.779-.953-1.14 0-1.942.965-1.942 2.15v.023c0 1.22.803 2.172 1.942 2.172.85 0 1.36-.395 1.837-.988l1.697 1.21c-.778 1.056-1.79 1.835-3.604 1.835-2.326 0-4.197-1.777-4.197-4.206M188.236 96.257l-.907-2.312-.918 2.312h1.825zm-1.976-4.985h2.174l3.464 8.191h-2.418l-.593-1.452h-3.139l-.582 1.452h-2.371l3.465-8.191zM196.391 97.465c1.349 0 2.244-.744 2.244-2.056v-.023c0-1.302-.895-2.057-2.244-2.057h-.918v4.136h.918zm-3.174-6.134h3.14c2.918 0 4.592 1.661 4.592 4.02v.023c0 2.358-1.709 4.09-4.64 4.09h-3.092V91.33zM202.687 91.33h6.546v1.918h-4.314v1.232h3.907v1.777h-3.907v1.29h4.372v1.916h-6.604zM211.19 91.33h2.383l1.942 3.15 1.942-3.15h2.383v8.133h-2.243v-4.67l-2.082 3.183h-.046l-2.07-3.16v4.647h-2.21zM224.211 96.42l-3.093-5.09h2.57l1.674 2.963 1.686-2.963h2.523l-3.092 5.055v3.079h-2.268z" mask="url(#b)"/>
    </g>
</svg>
