<svg xmlns="http://www.w3.org/2000/svg" width="306" height="81" viewBox="0 0 306 81">
    <g fill="#002F65" fill-rule="evenodd">
        <path d="M70.794.448v19.226H24.647V.448H0v57.736h24.647v-19.69h46.147v19.69h24.648V.448zM280.931.448v32.127L235.24.448H210.59v57.736h24.649V26.057l45.691 32.127h24.648V.448zM130.287 38.96V19.268h64.148V.448h-79.372c-5.117 0-9.265 4.143-9.265 9.254v38.825c0 5.11 4.148 9.254 9.265 9.254h85.631V38.96h-70.407zM139.362 77.613c0 1.25-.365 2.108-1.094 2.575-.577.37-1.545.554-2.905.554h-6.038c-1.502 0-2.579-.328-3.232-.986-.652-.658-.979-1.73-.979-3.22v-3.064c0-1.5.327-2.573.98-3.22.652-.646 1.73-.97 3.231-.97h6.12c2.47 0 3.704.93 3.704 2.788v.962h-1.403v-.525c0-.864-.267-1.438-.801-1.723-.349-.186-.986-.28-1.912-.28h-5.557c-.905 0-1.575.17-2.01.508-.513.382-.769 1.009-.769 1.882v4.221c0 1.603.926 2.405 2.779 2.405h5.606c.958 0 1.617-.093 1.977-.279.534-.284.8-.847.8-1.69v-.704h1.503v.766zM147.08 76.895h-2.154c-.761 0-1.273.044-1.533.132-.523.165-.784.54-.784 1.122v.247c0 .583.25.963.751 1.139.26.088.761.132 1.501.132h1.86c1.143 0 1.85-.022 2.122-.066.936-.154 1.404-.523 1.404-1.106v-.363c0-.593-.403-.972-1.208-1.138-.337-.066-.99-.099-1.958-.099zm4.57 3.717h-1.403v-.782c-.24.446-.677.728-1.31.847-.263.043-.82.065-1.671.065h-3.374c-.918 0-1.583-.168-1.998-.505-.46-.37-.689-.994-.689-1.875v-.521c0-.837.328-1.397.983-1.68.525-.227 1.464-.341 2.818-.341h2.26c.764 0 1.31.032 1.638.097.611.13 1.059.413 1.343.848v-1.483c0-.761-.36-1.25-1.077-1.468-.337-.098-1.012-.146-2.024-.146h-2.056c-.631 0-1.083.038-1.355.114-.5.152-.75.467-.75.945v.277h-1.404v-.391c0-.847.397-1.423 1.191-1.728.5-.195 1.262-.293 2.285-.293h2.22c1.49 0 2.546.157 3.166.472.805.413 1.207 1.163 1.207 2.25v5.298zM163.287 77.395V75.84c0-.904-.272-1.514-.816-1.83-.392-.229-1.083-.343-2.073-.343h-1.893c-1.001 0-1.72.114-2.154.343-.599.327-.898.948-.898 1.863v1.504c0 1.526.92 2.289 2.758 2.289h2.285c.969 0 1.654-.137 2.056-.409.49-.338.735-.959.735-1.863zm1.404.006c0 1.293-.421 2.2-1.262 2.722-.676.413-1.703.619-3.079.619h-1.965c-1.626 0-2.636-.461-3.03-1.385v1.255h-1.306V69.397h1.404v4.369c.284-.783 1.174-1.174 2.67-1.174h2.145c1.517 0 2.588.195 3.21.587.808.5 1.213 1.445 1.213 2.836V77.4zM167.089 80.612h1.404V69.396h-1.404zM180.145 75.82v-.538c0-1.076-.974-1.615-2.922-1.615h-2.056c-1.044 0-1.74.104-2.088.31-.458.283-.719.897-.784 1.843h7.85zm1.404 2.559c0 .978-.49 1.652-1.47 2.02-.63.23-1.539.343-2.725.343h-2.546c-1.186 0-2.067-.173-2.643-.518-.85-.507-1.274-1.409-1.274-2.704v-1.7c0-1.307.43-2.207 1.29-2.701.61-.351 1.54-.527 2.79-.527h2.252c1.393 0 2.421.217 3.085.652.827.533 1.24 1.456 1.24 2.771v.88h-9.253v.492c0 .973.337 1.624 1.012 1.951.457.22 1.24.329 2.35.329h1.926c.816 0 1.376-.055 1.68-.165.545-.198.838-.621.882-1.27h1.404v.147zM207.627 77.613c0 1.25-.364 2.108-1.093 2.575-.577.37-1.545.554-2.905.554h-6.038c-1.502 0-2.579-.328-3.232-.986-.653-.658-.98-1.73-.98-3.22v-3.064c0-1.5.327-2.573.98-3.22.653-.646 1.73-.97 3.232-.97h6.12c2.47 0 3.704.93 3.704 2.788v.962h-1.403v-.525c0-.864-.267-1.438-.802-1.723-.348-.186-.985-.28-1.911-.28h-5.557c-.905 0-1.575.17-2.01.508-.513.382-.77 1.009-.77 1.882v4.221c0 1.603.927 2.405 2.78 2.405h5.605c.96 0 1.619-.093 1.978-.279.534-.284.8-.847.8-1.69v-.704h1.502v.766zM219.427 77.46v-1.586c0-.86-.262-1.46-.784-1.798-.414-.272-1.077-.409-1.99-.409h-2.857c-.903 0-1.566.137-1.99.41-.523.337-.784.936-.784 1.797v1.586c0 .86.26 1.46.783 1.798.425.272 1.088.409 1.991.409h2.856c.914 0 1.577-.137 1.991-.409.522-.338.784-.937.784-1.798zm1.403.07c0 1.262-.484 2.148-1.452 2.658-.708.37-1.757.554-3.15.554h-2.007c-1.393 0-2.443-.184-3.15-.554-.969-.51-1.453-1.396-1.453-2.657v-1.728c0-1.271.479-2.157 1.436-2.657.708-.37 1.763-.554 3.167-.554h2.007c1.403 0 2.459.184 3.166.554.957.5 1.436 1.386 1.436 2.657v1.728zM233.397 80.612h-1.404v-5.021c0-.837-.321-1.39-.963-1.663-.403-.173-1.104-.26-2.105-.26h-.359c-1.35 0-2.269.097-2.758.293-.849.337-1.273 1.06-1.273 2.168v4.483h-1.404v-7.89h1.306v1.353c.272-.63.742-1.054 1.409-1.271.447-.142 1.102-.212 1.965-.212h2.113c2.315 0 3.473.89 3.473 2.673v5.347zM246.24 80.612h-1.404v-5.021c0-.837-.32-1.39-.962-1.663-.403-.173-1.105-.26-2.106-.26h-.358c-1.35 0-2.27.097-2.758.293-.85.337-1.274 1.06-1.274 2.168v4.483h-1.403v-7.89h1.305v1.353c.273-.63.743-1.054 1.41-1.271.447-.142 1.102-.212 1.964-.212h2.113c2.315 0 3.473.89 3.473 2.673v5.347zM257.696 75.82v-.538c0-1.076-.974-1.615-2.921-1.615h-2.056c-1.045 0-1.741.104-2.089.31-.457.283-.718.897-.784 1.843h7.85zm1.404 2.559c0 .978-.49 1.652-1.47 2.02-.63.23-1.539.343-2.724.343h-2.546c-1.187 0-2.067-.173-2.644-.518-.849-.507-1.273-1.409-1.273-2.704v-1.7c0-1.307.43-2.207 1.29-2.701.609-.351 1.539-.527 2.79-.527h2.252c1.393 0 2.42.217 3.084.652.827.533 1.24 1.456 1.24 2.771v.88h-9.253v.492c0 .973.337 1.624 1.012 1.951.457.22 1.24.329 2.35.329h1.926c.816 0 1.376-.055 1.681-.165.544-.198.837-.621.881-1.27h1.404v.147zM271.177 77.971c0 1.087-.354 1.842-1.061 2.266-.555.337-1.42.505-2.595.505h-3.166c-2.329 0-3.493-1.065-3.493-3.195v-1.76c0-1.294.441-2.185 1.322-2.673.62-.348 1.573-.523 2.856-.523h2.35c2.427 0 3.64.892 3.64 2.674v.229h-1.306v-.196c0-.641-.239-1.092-.718-1.353-.359-.185-.892-.277-1.6-.277h-2.578c-.816 0-1.409.114-1.779.343-.522.327-.783.931-.783 1.814v1.668c0 .85.277 1.443.832 1.781.435.262 1.104.393 2.008.393h2.366c1.6 0 2.4-.56 2.4-1.677v-.263h1.305v.244zM281.246 77.906c0 .967-.152 1.636-.457 2.005-.457.554-1.37.831-2.742.831h-.767c-2.165 0-3.247-.831-3.247-2.494v-4.45h-1.828v-1.076h1.828v-1.874h1.403v1.874H281v1.076h-5.565v3.94c0 .74.163 1.253.49 1.536.294.262.821.393 1.583.393h.44c.882 0 1.46-.126 1.738-.378.278-.251.416-.803.416-1.656v-.591h1.143v.864zM291.756 75.82v-.538c0-1.076-.974-1.615-2.921-1.615h-2.056c-1.045 0-1.741.104-2.09.31-.457.283-.717.897-.783 1.843h7.85zm1.404 2.559c0 .978-.49 1.652-1.47 2.02-.63.23-1.539.343-2.725.343h-2.545c-1.187 0-2.068-.173-2.644-.518-.85-.507-1.273-1.409-1.273-2.704v-1.7c0-1.307.43-2.207 1.289-2.701.61-.351 1.54-.527 2.79-.527h2.253c1.392 0 2.42.217 3.084.652.827.533 1.24 1.456 1.24 2.771v.88h-9.253v.492c0 .973.337 1.624 1.012 1.951.457.22 1.24.329 2.35.329h1.926c.816 0 1.376-.055 1.68-.165.545-.198.838-.621.882-1.27h1.404v.147zM304.176 77.378v-1.504c0-.915-.3-1.536-.898-1.863-.435-.229-1.153-.343-2.154-.343h-1.893c-.99 0-1.681.114-2.073.343-.544.316-.816.926-.816 1.83v1.554c0 .904.245 1.525.734 1.863.403.273 1.088.409 2.057.409h2.285c.892 0 1.555-.158 1.99-.474.512-.36.768-.965.768-1.815zm1.403 3.234h-1.305v-1.255c-.394.924-1.403 1.385-3.03 1.385h-1.966c-1.375 0-2.402-.206-3.079-.619-.84-.522-1.26-1.43-1.26-2.722v-1.386c0-1.391.403-2.337 1.212-2.836.622-.392 1.692-.587 3.21-.587h2.145c1.496 0 2.386.391 2.67 1.174v-4.37h1.403v11.216z"/>
    </g>
</svg>
