<svg width="250" height="50" xmlns="http://www.w3.org/2000/svg">

 <g>
  <title>background</title>
  <rect fill="none" id="canvas_background" height="52" width="252" y="-1" x="-1"/>
 </g>
 <g>
  <title>Layer 1</title>
  <g stroke="null" id="surface1">
   <rect x="-181" y="-281" id="svg_1" fill="rgb(14.849854%,23.202515%,47.392273%)" height="612" width="612"/>
   <path stroke="null" id="svg_2" fill-rule="nonzero" fill="rgb(100%,100%,100%)" d="m48.42969,23.96094l0,12.64062l-5.28906,0l0,-11.82422c0,-3.77343 -1.28125,-4.98046 -4.16016,-4.98046c-1.71094,0 -3.46094,0.625 -4.70703,1.48046c0.07812,0.81641 0.11719,1.71094 0.11719,2.6836l0,12.64062l-5.25,0l0,-11.82422c0,-3.77343 -1.2461,-4.98046 -3.96875,-4.98046c-1.75,0 -3.57813,0.69921 -4.85938,1.67578l0,15.1289l-5.33203,0l0,-21.12109l5.13672,0l0,1.55469c2.09765,-1.28125 4.85937,-2.0586 6.80469,-2.0586c3.07421,0 5.01953,0.73828 6.14453,2.48828c2.17968,-1.51562 5.01953,-2.48828 7.82031,-2.48828c5.60156,0 7.54297,2.3711 7.54297,8.98438"/>
   <path stroke="null" id="svg_3" fill-rule="nonzero" fill="rgb(100%,100%,100%)" d="m68.65625,30.37891l0,-8.63672c-1.39844,-1.4375 -3.42187,-1.98438 -5.21094,-1.98438c-3.76953,0 -6.0664,2.29688 -6.0664,6.26563c0,3.88672 2.21484,6.29687 6.10547,6.29687c1.75,0 3.77343,-0.5039 5.17187,-1.9414m-16.68359,-4.35547c0,-6.73047 3.96875,-10.96875 10.34375,-10.96875c2.21875,0 4.39843,0.5039 6.22656,1.86719l0,-1.44141l5.28906,0l0,21.12109l-5.28906,0l0,-1.55468c-1.48047,1.32031 -3.73438,1.98046 -6.10938,1.98046c-6.57031,0 -10.46093,-4.3164 -10.46093,-11.0039"/>
   <path stroke="null" id="svg_4" fill-rule="nonzero" fill="rgb(100%,100%,100%)" d="m99.85156,36.5625l-6.02734,0l-5.60156,-9.02344l-4.16016,4.04297l0,5.01953l-5.32812,0l0,-29.32812l5.32812,0l0,17.85156l9.37109,-9.64453l6.57422,0l-7.89453,8.32422l7.73828,12.75781zm0,0"/>
   <path stroke="null" id="svg_5" fill-rule="nonzero" fill="rgb(100%,100%,100%)" d="m103.74219,30.06641l0,-10.19141l-3.03125,0l0,-4.39453l3.03125,0l0,-8.20703l5.2539,0l0,8.20703l6.06641,0l0,4.39453l-6.06641,0l0,9.29688c0,2.33203 0.58204,3.34375 2.79688,3.34375c0.81641,0 2.14062,-0.11329 3.23047,-0.42579l0,4.27735c-0.85547,0.34765 -2.60547,0.73828 -4.86328,0.73828c-4.62891,0 -6.41797,-2.21484 -6.41797,-7.03906"/>
   <path stroke="null" id="svg_6" fill-rule="nonzero" fill="rgb(100%,100%,100%)" d="m124.08594,7.27344l0,9.76172c1.82812,-1.16407 4.74609,-2.01953 7.19531,-2.01953c5.52344,0 7.46875,2.37109 7.46875,8.94531l0,12.64062l-5.28906,0l0,-11.82422c0,-3.73437 -1.2461,-4.98046 -4.125,-4.98046c-2.10156,0 -3.96875,0.73828 -5.25,1.67578l0,15.1289l-5.28906,0l0,-29.32812l5.28906,0zm0,0"/>
   <path stroke="null" id="svg_7" fill-rule="nonzero" fill="rgb(100%,100%,100%)" d="m147.73438,23.80469l11.125,0c-0.3125,-2.29688 -1.98438,-4.39453 -5.60157,-4.39453c-2.68359,0 -4.86328,1.35937 -5.52343,4.39453m16.29687,3.85156l-16.33594,0c0.58594,3.14844 2.76172,4.89844 6.22266,4.89844c2.45312,0 4.62891,-0.9336 6.07031,-2.6836l3.34375,2.83985c-1.90625,2.64453 -4.98047,4.3164 -9.80078,4.3164c-7.04297,0 -11.20312,-4.3164 -11.20312,-11.00781c0,-6.6875 4.47265,-11.0039 10.92968,-11.0039c7.23438,0 10.8125,4.58593 10.8125,11.08203c0,0.50781 -0.03906,1.55859 -0.03906,1.55859"/>
   <path stroke="null" id="svg_8" fill-rule="nonzero" fill="rgb(100%,100%,100%)" d="m166.59766,35.19922l1.71484,-4.04297c2.05859,1.05078 4.74219,1.71094 7.26953,1.71094c2.60938,0 3.8125,-0.73828 3.8125,-2.17969c0,-1.28125 -1.32031,-1.78906 -4.85937,-2.56641c-4.82422,-1.05078 -7.66407,-2.60546 -7.66407,-6.53515c0,-4.4336 3.42188,-6.57031 8.36329,-6.57031c3.73437,0 6.3789,0.73828 8.71093,1.63281l-1.75,4.23828c-1.98437,-0.93359 -4.70703,-1.55469 -6.84375,-1.55469c-1.82812,0 -3.15234,0.54297 -3.15234,1.78906c0,1.32032 1.05078,1.75 4.74609,2.60547c5.05469,1.20703 7.89453,2.76172 7.89453,6.41797c0,4.86328 -3.1875,6.96094 -8.63281,6.96094c-4.04687,0 -6.88672,-0.58203 -9.60937,-1.90625"/>
   <path stroke="null" id="svg_9" fill-rule="nonzero" fill="rgb(100%,100%,100%)" d="m187.29297,33.25781c0,-1.82812 1.47656,-3.26953 3.30469,-3.26953c1.75,0 3.22656,1.44141 3.22656,3.26953c0,1.82422 -1.47656,3.30469 -3.22656,3.30469c-1.82813,0 -3.30469,-1.48047 -3.30469,-3.30469"/>
   <path stroke="null" id="svg_10" fill-rule="nonzero" fill="rgb(100%,100%,100%)" d="m213.50781,29.32813l0,-7.54688c-1.36328,-1.47656 -3.38672,-2.02344 -5.21484,-2.02344c-3.61328,0 -6.06641,2.17969 -6.06641,5.875c0,3.30469 2.25782,5.52344 5.95313,5.52344c1.90234,0 3.92578,-0.50781 5.32812,-1.82812m-14.50781,13.61328l0,-4.78516c2.52734,0.93359 4.85938,1.44141 7.73828,1.44141c4.35938,0 6.53516,-1.44141 6.53516,-4.78516l0,-0.89453c-1.51563,1.28125 -3.89063,1.86719 -5.98828,1.86719c-6.73047,0 -10.46485,-4.125 -10.46485,-10.15235c0,-6.3789 3.89063,-10.61718 10.3086,-10.61718c2.21484,0 4.47265,0.5039 6.30078,1.90625l0,-1.44141l5.25,0l0,17.23047c0,6.88672 -2.6836,11.35547 -10.85156,11.35547c-4.04688,0 -6.84375,-0.50391 -8.82813,-1.125"/>
   <path stroke="null" id="svg_11" fill-rule="nonzero" fill="rgb(100%,100%,100%)" d="m228.83203,15.48047l0,2.99609c1.39844,-2.0625 3.57813,-3.34375 6.45703,-3.46093c0.46875,0 1.01172,0 1.4375,0.15234l0,5.875c-0.93359,-0.27344 -1.78906,-0.39063 -2.52734,-0.39063c-3.88672,0 -5.36719,2.91797 -5.36719,5.71875l0,10.23047l-5.32812,0l0,-21.12109l5.32812,0zm0,0"/>
  </g>
 </g>
</svg>
