<?xml version="1.0" encoding="utf-8"?>
<!-- Generator: Adobe Illustrator 22.0.1, SVG Export Plug-In . SVG Version: 6.00 Build 0)  -->
<svg version="1.1" id="Layer_1" xmlns="http://www.w3.org/2000/svg" xmlns:xlink="http://www.w3.org/1999/xlink" x="0px" y="0px"
	 height="340.2"
   width="393.5"
   viewBox="0 0 340.2 393.5" style="enable-background:new 0 0 340.2 393.5;" xml:space="preserve">
<style type="text/css">
	.st0{fill:#C8272C;}
</style>
<g>
	<path class="st0" d="M209.8,146.3c-9.4-7.1-21-10.6-32.8-10.6c-2.2,0-4.4,0.1-6.5,0.4l16.9-6.4l-1.5-3.9l-25.1,9.5
		c-1.6-9-8.8-19.6-15.9-24.9c-5.4-4-12.2-6-18.9-6c-0.3,0-0.5,0-0.8,0c-4.7,0.1-12.4,3.8-16.4,6.1c-16.5,9.3-23.5,27.6-27.5,46.1
		c4.4-8.8,12.4-15.9,23-20.3c-3.5,3.5-4.9,6.9-7.1,12.4c-2.1,5.4-3.5,11.5-2.6,18.1c1.7-5.8,3.5-11.1,7.9-14.6
		c0,4.2,2.6,10,2.7,12.1c0.3-5.6,3.6-15.6,7.6-19.3c5.6-5.3,12-10.5,19.6-11.7c0.9-0.1,1.8-0.2,2.7-0.2c5.4,0,11,2.5,13.8,6.8
		l-24.7,9.4l-5.9,4.5l7.3-0.6l17.8-6.7c-2.5,1.8-4.8,3.7-7,5.8c-3.4,3.3-5.9,6.7-7.6,10.1c0,0-6.4,10.2-4.1,29.2
		c0.1,1.7,0.4,3,0.4,3c0.4,1.7,1,3.6,1,3.6l0,0l0.5-0.1l68.3-13.4l1.1,1l5.1,4.6l0.9-6.8l6.4,6.8l24.1,0c0,0,0.1-0.1,0.1-0.1
		c0-11.1-4.4-21.6-11.1-31.4C218.1,153.9,214.2,149.6,209.8,146.3z"/>
</g>
<path class="st0" d="M232.2,193.5l-23.9,0h-1.6l-1-1.3l-1.3-1.7l0,0l-0.7,6.5l-4.8-4.4l-4.9-4.5l-66.6,13.1c0.8,2.9,1.9,7,3.3,9.6
	h96.9C229.9,205.9,231.5,199.1,232.2,193.5z M157,206.5c-3.5,0-6.2,2.9-6.2-0.7c0-3.5,2.9-6.4,6.4-6.4c3.5,0,6.4,2.9,6.4,6.4
	C163.6,209.4,160.5,206.5,157,206.5z M203.7,206.5c-3.5,0-6.2,2.9-6.2-0.7c0-3.5,2.9-6.4,6.4-6.4c3.5,0,6.4,2.9,6.4,6.4
	C210.3,209.4,207.2,206.5,203.7,206.5z"/>
<g>
	<g>
		<path class="st0" d="M11.5,234.6c0.6-3.6,0.9-7.3,1.9-10.7c2.5-9.1,7.3-16.8,14.5-23c6.8-5.9,14.5-7.8,23.3-6.1
			c7,1.4,17.2,6.2,21.6,10.5c-0.5,1-1.1,0.6-1.8,0.2c-4.2-2.5-8.7-4.4-13.6-5.1c-12.8-1.8-23.5,6.9-24.3,19.9
			c-0.3,4.3,0.4,8.4,1.1,12.6C26.6,233.3,19.1,233.9,11.5,234.6z"/>
	</g>
	<g>
		<path class="st0" d="M11.8,223.7c-0.4-0.1-0.7-0.1-0.9-0.2c-0.7-0.2-1.4-0.4-2.4-0.7c0.4-1.2,0.7-2.3,1.1-3.5
			c1.2,0.3,2.2,0.6,3.3,0.9C12.5,221.5,12.1,222.6,11.8,223.7z"/>
	</g>
	<g>
		<path class="st0" d="M34.9,226.9c3.2,0.6,3.4,0.8,3.6,4.1C35.2,230.5,34.9,230.3,34.9,226.9z"/>
	</g>
	<g>
		<path class="st0" d="M35.1,216.3c2.1,0.9,2.1,0.9,1.8,4.2C34.4,219.8,34.3,219.4,35.1,216.3z"/>
	</g>
	<g>
		<path class="st0" d="M18.8,209c-0.8-0.6-1.4-1-2.1-1.6c0.7-0.7,1.3-1.4,2.1-2.1c0.5,0.3,1.1,0.8,1.8,1.3
			C19.9,207.4,19.4,208.1,18.8,209z"/>
	</g>
	<g>
		<path class="st0" d="M27.3,196.7c0.7-0.5,1.3-0.9,2-1.4c0.5,0.6,0.9,1.1,1.4,1.8c-0.7,0.5-1.3,0.9-2,1.4
			C28.3,197.9,27.8,197.3,27.3,196.7z"/>
	</g>
	<g>
		<path class="st0" d="M37.8,209.5c0.6-0.7,1.1-1.2,1.6-1.8c1.5,1.6,1.5,1.6,0,3.7C38.9,210.8,38.4,210.2,37.8,209.5z"/>
	</g>
	<g>
		<path class="st0" d="M47.1,202.6c0.2,0.5,0.4,0.9,0.7,1.6c-0.7,0.4-1.4,0.8-2.1,1.1C44.4,203.6,44.5,203.4,47.1,202.6z"/>
	</g>
	<g>
		<path class="st0" d="M53.2,192.3c2.5,0.2,2.7,0.3,2.7,2.1C53.6,194.5,53.1,194.1,53.2,192.3z"/>
	</g>
	<g>
		<path class="st0" d="M56.6,203c-0.9,0-1.7,0-2.6-0.1c0-0.6,0-1.1-0.1-1.7c0.9,0,1.7,0.1,2.6,0.1C56.5,201.9,56.6,202.4,56.6,203z"
			/>
	</g>
	<g>
		<path class="st0" d="M39.3,191.7c1.2,0.1,2.7-1,3,1.2C41.2,192.9,39.7,194.1,39.3,191.7z"/>
	</g>
</g>
<g>
	<g>
		<path class="st0" d="M25.7,318.8c0.6-0.2,1.3-0.4,1.9-0.6c0.3-0.1,0.3-0.2,0.2-0.5c-0.3-0.8-0.5-1.6-0.7-2.4
			c0-0.2-0.1-0.3-0.2-0.5c1.1-0.3,2.1-0.7,3.2-1c-0.2-0.8-0.5-1.5-0.7-2.2c13.9-4.3,27.8-8.7,41.7-13c0.2,0.7,0.4,1.4,0.7,2.2
			c1.1-0.3,2.1-0.7,3.2-1c0.1,0.2,0.1,0.4,0.2,0.6c0.2,0.8,0.5,1.5,0.7,2.3c0.1,0.3,0.2,0.4,0.5,0.3c0.6-0.2,1.3-0.4,1.9-0.6
			c0.2,0.8,0.5,1.5,0.7,2.3c-0.2,0.1-0.4,0.1-0.6,0.2c-17.2,5.4-34.4,10.7-51.5,16.1c-0.2,0.1-0.4,0.1-0.5,0.2
			C26.1,320.3,25.9,319.6,25.7,318.8z"/>
	</g>
	<g>
		<path class="st0" d="M65.4,272.8c-15.3,4.8-30.6,9.6-46,14.3c-0.1-0.4-0.3-0.8-0.4-1.2c0-0.1,0.1-0.3,0.2-0.4
			c2.1-1.7,4.1-3.5,6.2-5.2c3.6-3.1,7.3-6.1,10.9-9.2c0.8-0.6,1.5-1.3,2.3-1.9c0.2-0.2,0.5-0.3,0.7-0.2c2.5,0.2,4.9,0.5,7.4,0.7
			c4.3,0.4,8.6,0.8,12.9,1.2c1.6,0.2,3.3,0.3,4.9,0.5c0.3,0,0.4,0.1,0.5,0.4C65.2,272.1,65.3,272.4,65.4,272.8z"/>
	</g>
	<g>
		<path class="st0" d="M46.3,282.6c1.4-0.5,2.9-0.9,4.4-1.4c2.2,6.5,5.4,15.7,7.7,22.2c-1.9,0.6-3.7,1.1-5.6,1.7
			C50.9,298.6,48.2,289.2,46.3,282.6z"/>
	</g>
	<g>
		<path class="st0" d="M36.4,285.7c1.4-0.4,2.7-0.8,4-1.3c0.3-0.1,0.3,0.1,0.4,0.3c0.3,0.8,0.9,2.5,1.1,3.3c1.1,3.3,2.2,6.5,3.4,9.8
			c0.7,2.2,2.1,6.2,2.9,8.4c0,0.1,0.1,0.3,0.1,0.4c-1.8,0.6-3.7,1.1-5.5,1.7C40.9,301.7,38.2,292.3,36.4,285.7z"/>
	</g>
	<g>
		<path class="st0" d="M26.3,288.9c1.4-0.4,2.8-0.9,4.3-1.3c2.2,6.5,5.4,15.7,7.7,22.2c-1.8,0.6-3.6,1.1-5.4,1.7
			C30.9,304.9,28.2,295.5,26.3,288.9z"/>
	</g>
	<g>
		<path class="st0" d="M60.6,278.2c2.3,6.5,5.4,15.7,7.7,22.2c-1.8,0.6-3.6,1.1-5.4,1.7c-1.9-6.6-4.6-16-6.5-22.6
			C57.8,279,59.2,278.6,60.6,278.2z"/>
	</g>
	<g>
		<path class="st0" d="M61.7,276.3c0.2,0.7,0.4,1.4,0.6,2.1c-12.4,3.9-24.8,7.7-37.2,11.6c-0.2-0.7-0.4-1.4-0.6-2.1
			C36.9,284,49.3,280.1,61.7,276.3z"/>
	</g>
</g>
<g>
	<path class="st0" d="M296.7,160.2c4.8,1.2,9.7,2.4,14.5,3.5c0.6,0.2,1,0.4,1.2,1.1c1.4,4,2.8,7.9,4.3,11.9c0.3,0.7,0.1,1.1-0.5,1.5
		c-9.3,6.1-18.6,12.1-27.9,18.2c-0.6,0.4-0.9,0.3-1.3-0.3c-5.5-9.6-11-19.3-16.5-28.9c-0.3-0.6-0.3-0.9,0.2-1.4
		c3.3-2.9,6.5-5.9,9.7-8.8c0.5-0.5,1-0.6,1.7-0.4C286.9,157.9,291.8,159,296.7,160.2C296.7,160.2,296.7,160.2,296.7,160.2z
		 M301.3,174.8c-5.3-1.3-10.4-2.5-15.7-3.8c1.2,6.6,2.3,13.1,3.5,19.8C293.3,185.4,297.3,180.2,301.3,174.8z M273.9,168.1
		c4.1,7.1,8,14,12,20.8c0-0.9-0.1-1.6-0.3-2.4c-1-5.2-2-10.4-3-15.5c-0.1-0.3-0.3-0.8-0.5-0.9C279.5,169.4,276.8,168.8,273.9,168.1z
		 M312.5,177.5c-2.6-0.6-4.9-1.2-7.2-1.8c-0.6-0.2-0.9,0-1.3,0.5c-2.7,3.5-5.4,7-8.2,10.4c-1,1.3-2,2.6-3,3.8c0,0,0.1,0.1,0.1,0.1
		C299.4,186.3,305.8,182,312.5,177.5z M301.1,171.6c-1.7-3-3.3-5.8-5-8.6c-2.8,1.8-5.5,3.5-8.4,5.3
		C292.2,169.5,296.5,170.5,301.1,171.6z M283.5,159.1c0.5,2.7,0.9,5.3,1.4,7.9c2.9-1.9,5.7-3.6,8.6-5.5
		C290.1,160.7,286.9,159.9,283.5,159.1z M299,162.9c1.7,2.9,3.3,5.7,4.9,8.5c1.6-2.1,3.1-4.1,4.7-6.2
		C305.4,164.4,302.3,163.7,299,162.9z M306.5,172.9c2.3,0.6,4.5,1.1,6.8,1.7c-0.9-2.4-1.7-4.7-2.6-7.2
		C309.3,169.3,307.9,171.1,306.5,172.9z M280.8,160.3c-1.9,1.7-3.6,3.3-5.5,5c2.3,0.6,4.4,1.1,6.7,1.6
		C281.5,164.7,281.2,162.6,280.8,160.3z"/>
</g>
<path class="st0" d="M223.5,214.4h-89H80l11.3,98.3h177.9l11.3-98.3H223.5z M159.7,257.4c2,0,3.9,0,5.9,0c0-2,0-3.9,0-5.9
	c3.9,0,7.9,0,11.8,0c0,2,0,3.9,0,5.9c2,0,3.9,0,5.9,0c0-2,0-3.9,0-5.9c3.9,0,7.8,0,11.8,0c0,2,0,4,0,5.9c-3.9,0-7.8,0-11.7,0
	c0,2,0,4,0,5.9c-2,0-4,0-5.9,0c0-2,0-3.9,0-5.9c-3.9,0-7.9,0-11.8,0c0,3.9,0,7.9,0,11.8c-2,0-3.9,0-5.9,0
	C159.7,265.3,159.7,261.4,159.7,257.4z M165.6,269.3C165.6,269.3,165.6,269.2,165.6,269.3c2-0.1,3.9-0.1,5.9-0.1c0,2,0,3.9,0,5.9
	c-2,0-3.9,0-5.9,0C165.6,273.2,165.6,271.2,165.6,269.3z M171.5,275.2C171.5,275.1,171.5,275.1,171.5,275.2c2-0.1,3.9-0.1,5.9-0.1
	c0,2,0,3.9,0,5.9c-2,0-3.9,0-5.9,0C171.5,279,171.5,277.1,171.5,275.2z M200.9,269.2c-2,0-3.9,0-5.9,0c0,2,0,3.9,0,5.9
	c-2,0-3.9,0-5.9,0c0,2,0,4,0,5.9c-2,0-3.9,0-5.9,0c0,2,0,3.9,0,5.9c-2,0-3.9,0-5.9,0c0-2,0-4,0-5.9c2,0,3.9,0,5.9,0c0-2,0-3.9,0-5.9
	c2,0,3.9,0,5.9,0c0-2,0-4,0-5.9c2,0,3.9,0,5.9,0c0-3.9,0-7.9,0-11.8c2,0,3.9,0,5.9,0C200.9,261.4,200.9,265.3,200.9,269.2z"/>
<g>
	<g>
		<polygon class="st0" points="332.6,258.8 327.5,262.7 308.1,239 314.9,233.8 		"/>
	</g>
	<g>
		<path class="st0" d="M306.9,218.5l6.5,8.4l-11.5,8.9l-6.5-8.4c-1.1,3.7-0.4,7.8,2.1,11.1c4.2,5.4,10.6,4.7,16.1,0.5
			s7.7-10.3,3.6-15.7C314.5,220,310.7,218.4,306.9,218.5z"/>
	</g>
</g>
<g>
	<path class="st0" d="M83.1,180.3c0,0-6.8-4.8-11.4,0.4c-4.6,5.2,17.4,12.4,17.4,12.4s10-17.6,4.6-20.6
		C88.3,169.5,83.1,180.3,83.1,180.3z"/>
</g>
<g>
	<path class="st0" d="M309.5,315.9l-7-9.9l-12.1,0.1l7.2-9.7l-3.9-11.4l11.4,3.9l9.7-7.2l-0.2,12.1l9.8,7l-11.5,3.6L309.5,315.9z
		 M304.3,302.4l3.9,5.5l2-6.4l6.4-2l-5.5-3.9l0.1-6.7l-5.4,4l-6.3-2.2l2.1,6.3l-4,5.4L304.3,302.4z"/>
</g>
<g>
	<g>
		<path class="st0" d="M117.8,363l-2.8-7.8h-13.1l-2.7,7.8h-5.1l11.8-32.7h5.2L123,363H117.8z M110.9,343.3c-0.2-0.6-0.4-1.2-0.7-2
			c-0.2-0.7-0.5-1.4-0.7-2.2c-0.2-0.7-0.5-1.4-0.7-2c-0.2-0.6-0.4-1.1-0.4-1.4c-0.1,0.3-0.2,0.8-0.4,1.4c-0.2,0.6-0.4,1.3-0.6,2
			c-0.2,0.7-0.4,1.4-0.7,2.2c-0.2,0.7-0.5,1.4-0.7,2l-2.6,7.5h10.1L110.9,343.3z"/>
		<path class="st0" d="M124,363.7h-6.7l-2.8-7.8h-12.1l-2.7,7.8h-6.6l12.3-34.1h6.2L124,363.7z M118.3,362.3h3.8l-11.4-31.4h-4.2
			l-11.3,31.4h3.6l2.7-7.8h14.1L118.3,362.3z M114.5,351.5h-12l2.9-8.4c0.2-0.6,0.4-1.3,0.7-2l1.3-4.1c0.2-0.6,0.3-1.1,0.4-1.4
			l0.7-2.4l0.7,2.4c0.1,0.3,0.2,0.8,0.4,1.4c0.2,0.6,0.4,1.3,0.7,2c0.2,0.7,0.5,1.4,0.7,2.1c0.3,0.7,0.5,1.4,0.7,2L114.5,351.5z
			 M104.4,350.1h8.2l-2.3-6.6c-0.2-0.6-0.4-1.2-0.6-1.9c-0.3-0.7-0.5-1.4-0.7-2.2l-0.4-1.3l-1.1,3.4c-0.2,0.8-0.5,1.4-0.7,2
			L104.4,350.1z"/>
	</g>
	<g>
		<path class="st0" d="M137.6,335.1V363h-4.9v-27.9h-9.5v-4.8h23.9v4.8H137.6z"/>
		<path class="st0" d="M138.3,363.7H132v-27.9h-9.5v-6.2h25.3v6.2h-9.5V363.7z M133.4,362.3h3.5v-27.9h9.5v-3.4h-22.6v3.4h9.5V362.3
			z"/>
	</g>
	<g>
		<path class="st0" d="M173.6,363v-14.7h-15.1V363h-4.9v-32.7h4.9v13.2h15.1v-13.2h4.9V363H173.6z"/>
		<path class="st0" d="M179.2,363.7h-6.2V349h-13.8v14.7h-6.2v-34.1h6.2v13.2h13.8v-13.2h6.2V363.7z M174.3,362.3h3.5v-31.4h-3.5
			v13.2h-16.5v-13.2h-3.5v31.4h3.5v-14.7h16.5V362.3z"/>
	</g>
	<g>
		<path class="st0" d="M187,363v-32.7h21v4.8h-16.2v8h9.4v4.8h-9.4v10.3h16.9v4.8H187z"/>
		<path class="st0" d="M209.4,363.7h-23.1v-34.1h22.4v6.2h-16.2v6.6h9.4v6.2h-9.4v8.9h16.9V363.7z M187.7,362.3h20.4v-3.4h-16.9
			v-11.7h9.4v-3.4h-9.4v-9.4h16.2v-3.4h-19.7V362.3z"/>
	</g>
	<g>
		<path class="st0" d="M236,363l-13-20.5c-0.4-0.6-0.8-1.3-1.3-2.1c-0.5-0.8-0.8-1.4-1.1-1.9c0,0.3,0,0.8,0,1.4c0,0.7,0,1.4,0,2.1
			c0,0.7,0,1.5,0,2.2c0,0.7,0,1.3,0,1.8v17h-4.8v-32.7h5l12.4,20c0.2,0.3,0.5,0.7,0.7,1.2c0.3,0.4,0.5,0.9,0.8,1.3
			c0.2,0.5,0.5,0.9,0.7,1.2c0.2,0.4,0.4,0.7,0.5,0.9c0-0.3,0-0.8,0-1.5c0-0.7,0-1.4,0-2.2c0-0.8,0-1.5,0-2.3s0-1.4,0-1.8v-16.9h4.8
			V363H236z"/>
		<path class="st0" d="M241.3,363.7h-5.7l-13.2-20.8c-0.4-0.5-0.7-1.2-1.2-1.9c0,0.3,0,0.7,0,1c0,0.8,0,1.5,0,2.2v19.5h-6.1v-34.1
			h6.1l12.6,20.3c0.2,0.3,0.5,0.7,0.7,1.2c0.2,0.4,0.5,0.8,0.7,1.2c0-0.3,0-0.7,0-1c0-0.8,0-1.5,0-2.3v-19.4h6.1V363.7z
			 M236.3,362.3h3.6v-31.4h-3.4v18c0,0.7,0,1.5,0,2.3c0,0.8,0,1.5,0,2.2v4l-1.8-3.1c-0.2-0.4-0.5-0.8-0.7-1.3
			c-0.2-0.4-0.5-0.9-0.8-1.3c-0.3-0.4-0.5-0.8-0.7-1.2l-12.2-19.6h-3.9v31.4h3.4v-18.1c0-0.7,0-1.5,0-2.2c0-0.8,0-1.5,0-2.1v-4
			l1.3,2.2c0.2,0.4,0.6,1.1,1.1,1.9c0.5,0.8,0.9,1.5,1.3,2.1L236.3,362.3z"/>
	</g>
	<g>
		<path class="st0" d="M271.1,353.6c0,1.5-0.2,2.8-0.7,4c-0.5,1.2-1.2,2.3-2.2,3.1c-1,0.9-2.2,1.6-3.8,2c-1.5,0.5-3.3,0.7-5.4,0.7
			c-2.4,0-4.6-0.5-6.6-1.4c-2-0.9-3.7-2.2-5.1-3.9l3.5-3.4c1.1,1.2,2.4,2.1,3.9,2.8c1.5,0.7,3,1.1,4.6,1.1c4.5,0,6.8-1.6,6.8-4.8
			c0-0.6-0.1-1.2-0.4-1.7c-0.3-0.5-0.7-1-1.3-1.4c-0.6-0.4-1.4-0.8-2.3-1.2c-0.9-0.4-2.1-0.8-3.5-1.2c-1.7-0.5-3.3-1-4.5-1.5
			c-1.3-0.5-2.3-1.1-3.2-1.8c-0.8-0.7-1.5-1.5-1.9-2.5c-0.4-1-0.6-2.2-0.6-3.7c0-1.4,0.3-2.7,0.8-3.8c0.6-1.1,1.3-2.1,2.3-2.9
			c1-0.8,2.1-1.4,3.4-1.8c1.3-0.4,2.7-0.6,4.2-0.6c2.2,0,4.2,0.4,5.9,1.2c1.7,0.8,3.3,1.9,4.8,3.3l-3.5,3.5c-1-1.1-2.1-1.8-3.4-2.4
			c-1.2-0.5-2.6-0.8-4.3-0.8c-1.9,0-3.3,0.4-4.2,1.2c-0.9,0.8-1.3,1.8-1.3,2.9c0,0.6,0.1,1.1,0.3,1.5c0.2,0.5,0.6,0.9,1.1,1.3
			c0.5,0.4,1.3,0.8,2.2,1.1c0.9,0.4,2.1,0.8,3.5,1.2c1.6,0.5,3.1,1,4.4,1.5c1.3,0.5,2.4,1.2,3.3,1.9c0.9,0.7,1.6,1.6,2.1,2.7
			C270.8,350.9,271.1,352.1,271.1,353.6z"/>
		<path class="st0" d="M259,364.2c-2.5,0-4.8-0.5-6.9-1.5c-2.1-1-3.8-2.3-5.3-4l-0.4-0.5l4.5-4.4l0.5,0.5c1,1.1,2.3,2,3.7,2.7
			c1.4,0.7,2.9,1,4.3,1c5.5,0,6.1-2.3,6.1-4.1c0-0.5-0.1-1-0.3-1.4c-0.2-0.4-0.5-0.8-1-1.1c-0.5-0.4-1.3-0.8-2.1-1.1
			c-0.9-0.4-2-0.7-3.4-1.1c-1.8-0.5-3.3-1-4.6-1.6c-1.3-0.6-2.5-1.2-3.4-2c-0.9-0.8-1.6-1.7-2.1-2.8c-0.5-1.1-0.7-2.4-0.7-4
			c0-1.5,0.3-2.9,0.9-4.1c0.6-1.2,1.4-2.3,2.5-3.1c1-0.8,2.3-1.5,3.7-1.9c1.4-0.4,2.9-0.7,4.4-0.7c2.3,0,4.4,0.4,6.2,1.2
			c1.8,0.8,3.4,2,5,3.4l0.5,0.5l-4.4,4.5l-0.5-0.5c-1-1-2-1.7-3.1-2.2c-1.1-0.5-2.5-0.7-4-0.7c-1.7,0-3,0.3-3.7,1
			c-0.7,0.7-1.1,1.5-1.1,2.4c0,0.5,0.1,0.9,0.3,1.2c0.2,0.3,0.5,0.7,0.9,1c0.5,0.4,1.2,0.7,2,1.1c0.9,0.4,2.1,0.8,3.4,1.1
			c1.6,0.5,3.1,1,4.4,1.6c1.4,0.6,2.5,1.2,3.5,2c1,0.8,1.7,1.8,2.3,2.9c0.5,1.1,0.8,2.5,0.8,4c0,1.5-0.3,3-0.8,4.3
			c-0.5,1.3-1.3,2.5-2.4,3.4c-1.1,0.9-2.4,1.7-4,2.2C263,363.9,261.1,364.2,259,364.2z M248.3,358.2c1.2,1.3,2.7,2.4,4.4,3.2
			c1.9,0.9,4,1.4,6.3,1.4c2,0,3.8-0.2,5.2-0.7c1.4-0.5,2.6-1.1,3.5-1.9c0.9-0.8,1.6-1.8,2-2.9c0.4-1.1,0.7-2.4,0.7-3.8
			c0-1.4-0.2-2.5-0.7-3.4c-0.4-0.9-1.1-1.7-1.9-2.4c-0.8-0.7-1.9-1.3-3.1-1.8c-1.3-0.5-2.7-1-4.3-1.5c-1.4-0.4-2.6-0.8-3.6-1.2
			c-1-0.4-1.8-0.8-2.3-1.2c-0.6-0.5-1.1-1-1.3-1.5c-0.3-0.5-0.4-1.2-0.4-1.8c0-1.3,0.5-2.4,1.5-3.4c1-0.9,2.6-1.4,4.7-1.4
			c1.7,0,3.2,0.3,4.5,0.8c1.1,0.5,2.1,1.1,3.1,2l2.5-2.5c-1.3-1.1-2.6-2-4.1-2.7c-1.6-0.7-3.5-1.1-5.7-1.1c-1.4,0-2.8,0.2-4,0.6
			c-1.2,0.4-2.3,1-3.2,1.7c-0.9,0.7-1.6,1.6-2.1,2.6c-0.5,1-0.8,2.2-0.8,3.5c0,1.4,0.2,2.5,0.6,3.4c0.4,0.9,0.9,1.7,1.7,2.3
			c0.8,0.7,1.8,1.2,3,1.7c1.2,0.5,2.7,1,4.5,1.5c1.4,0.4,2.6,0.8,3.5,1.2c1,0.4,1.8,0.8,2.4,1.3c0.7,0.5,1.2,1,1.5,1.6
			c0.3,0.6,0.4,1.3,0.4,2c0,2.5-1.3,5.5-7.5,5.5c-1.7,0-3.3-0.4-4.9-1.1c-1.4-0.6-2.6-1.5-3.6-2.5L248.3,358.2z"/>
	</g>
</g>
<g>
	<g>
		<path class="st0" d="M94.6,41.9c0,2.6-0.6,4.6-1.9,6.2c-1.2,1.5-3,2.6-5.1,3.1l6.5,13h-5.5l-6.3-12.6h-7.2v12.6h-4.7V32.4h14
			c1.4,0,2.7,0.2,3.9,0.6c1.2,0.4,2.3,1,3.3,1.7c0.9,0.8,1.7,1.8,2.2,3C94.3,38.8,94.6,40.3,94.6,41.9z M89.8,42
			c0-1.7-0.5-2.9-1.5-3.8c-1-0.9-2.3-1.3-3.9-1.3h-9.3v10.2h9.3c1.6,0,2.9-0.4,3.9-1.3C89.3,45,89.8,43.8,89.8,42z"/>
		<path class="st0" d="M95.2,64.9h-7l-6.3-12.6h-6.1v12.6h-6.1V31.7h14.7c1.5,0,2.9,0.2,4.1,0.6c1.3,0.4,2.5,1,3.5,1.9
			c1,0.8,1.8,1.9,2.4,3.2c0.6,1.3,0.9,2.8,0.9,4.5c0,2.7-0.7,5-2,6.6c-1.2,1.5-2.8,2.5-4.7,3.1L95.2,64.9z M89,63.6h4l-6.4-12.8
			l0.8-0.2c2-0.5,3.6-1.5,4.8-2.9c1.1-1.4,1.7-3.4,1.7-5.8c0-1.5-0.3-2.9-0.8-4c-0.5-1.1-1.2-2-2-2.7c-0.9-0.7-1.9-1.3-3-1.6
			c-1.2-0.4-2.4-0.5-3.7-0.5H71.1v30.5h3.4V51h8.3L89,63.6z M84.4,47.8h-9.9V36.2h9.9c1.8,0,3.3,0.5,4.4,1.5c1.1,1,1.7,2.5,1.7,4.3
			c0,1.9-0.6,3.4-1.7,4.4C87.6,47.3,86.1,47.8,84.4,47.8z M75.8,46.4h8.6c1.5,0,2.6-0.4,3.5-1.1c0.8-0.7,1.3-1.8,1.3-3.3
			c0-1.5-0.4-2.6-1.2-3.3c-0.9-0.8-2-1.1-3.5-1.1h-8.6V46.4z"/>
	</g>
	<g>
		<path class="st0" d="M113.7,64.3v-2.4c-0.8,0.8-1.8,1.5-2.9,2c-1.1,0.5-2.3,0.8-3.6,0.8c-1,0-2-0.1-2.9-0.4
			c-1-0.3-1.9-0.8-2.7-1.4c-0.8-0.6-1.4-1.5-1.9-2.5c-0.5-1-0.8-2.3-0.8-3.7c0-1.3,0.2-2.5,0.7-3.5c0.5-1,1.2-1.8,2-2.4
			c0.8-0.6,1.9-1.1,3-1.4c1.2-0.3,2.4-0.5,3.8-0.5c2.2,0,4,0.3,5.3,0.9v-1.8c0-1.3-0.4-2.3-1.2-3c-0.8-0.7-1.9-1-3.3-1
			c-1.2,0-2.4,0.1-3.3,0.4c-1,0.2-2,0.6-2.9,1.1l-1.8-3.6c1.2-0.7,2.4-1.2,3.7-1.6c1.3-0.4,2.8-0.5,4.5-0.5c2.7,0,4.8,0.7,6.5,2
			c1.7,1.3,2.5,3.3,2.5,6v16.4H113.7z M113.7,54.1c-0.6-0.3-1.4-0.6-2.3-0.8c-0.9-0.2-1.9-0.3-3.2-0.3c-1.5,0-2.7,0.3-3.6,1
			c-0.9,0.6-1.3,1.5-1.3,2.6c0,1.2,0.4,2.1,1.1,2.9c0.8,0.7,1.9,1.1,3.5,1.1c1.3,0,2.4-0.3,3.4-1c1-0.6,1.8-1.3,2.3-2.1V54.1z"/>
		<path class="st0" d="M107.2,65.4c-1,0-2.1-0.2-3.1-0.5c-1.1-0.3-2-0.8-2.9-1.5c-0.9-0.7-1.6-1.6-2.1-2.7c-0.5-1.1-0.8-2.5-0.8-4
			c0-1.4,0.3-2.7,0.8-3.8c0.5-1.1,1.3-2,2.2-2.7c0.9-0.7,2-1.2,3.2-1.5c1.2-0.3,2.5-0.5,4-0.5c1.8,0,3.4,0.2,4.6,0.6v-0.8
			c0-1.1-0.3-1.9-0.9-2.5c-0.6-0.6-1.6-0.9-2.9-0.9c-1.2,0-2.3,0.1-3.2,0.3c-0.9,0.2-1.8,0.6-2.7,1.1l-0.6,0.3l-2.4-4.7l0.5-0.3
			c1.2-0.7,2.5-1.3,3.9-1.7c1.4-0.4,2.9-0.6,4.7-0.6c2.8,0,5.1,0.7,6.9,2.1c1.8,1.5,2.7,3.7,2.7,6.6v17.1h-6v-1.6
			c-0.6,0.4-1.2,0.8-1.9,1.2C109.9,65.1,108.6,65.4,107.2,65.4z M108.4,49.6c-1.3,0-2.5,0.1-3.6,0.4c-1.1,0.3-2,0.7-2.8,1.3
			c-0.8,0.6-1.4,1.3-1.8,2.2c-0.4,0.9-0.7,1.9-0.7,3.2c0,1.3,0.2,2.5,0.7,3.4c0.5,0.9,1,1.7,1.7,2.3c0.7,0.6,1.5,1,2.4,1.3
			c2.1,0.6,4.3,0.5,6.1-0.3c1-0.5,2-1.2,2.7-1.9l1.2-1.2v3.3h3.2V47.9c0-2.5-0.7-4.3-2.2-5.5c-1.5-1.2-3.6-1.8-6.1-1.8
			c-1.6,0-3.1,0.2-4.3,0.5c-1,0.3-2,0.7-3,1.2l1.2,2.4c0.8-0.4,1.6-0.7,2.4-0.9c1-0.3,2.2-0.4,3.5-0.4c1.6,0,2.9,0.4,3.8,1.2
			c0.9,0.8,1.4,2,1.4,3.5v2.8l-1-0.4C112.2,49.9,110.5,49.6,108.4,49.6z M107.9,61.2c-1.7,0-3-0.4-3.9-1.3c-0.9-0.9-1.3-2-1.3-3.4
			c0-1.3,0.5-2.4,1.6-3.2c1-0.7,2.3-1.1,4-1.1c1.3,0,2.4,0.1,3.4,0.3c0.9,0.2,1.7,0.5,2.4,0.8l0.4,0.2v4.1l-0.1,0.2
			c-0.6,0.8-1.4,1.6-2.5,2.3C110.6,60.8,109.3,61.2,107.9,61.2z M108.3,53.7c-1.4,0-2.4,0.3-3.2,0.8c-0.7,0.5-1,1.2-1,2
			c0,1,0.3,1.8,0.9,2.4c0.6,0.6,1.6,0.9,3,0.9c1.2,0,2.2-0.3,3.1-0.9c0.9-0.5,1.5-1.1,2-1.7v-2.8c-0.5-0.2-1.1-0.4-1.7-0.5
			C110.5,53.8,109.5,53.7,108.3,53.7z"/>
	</g>
	<g>
		<path class="st0" d="M130.7,34.2c0,0.8-0.3,1.5-0.9,2.1c-0.6,0.6-1.3,0.9-2.1,0.9c-0.8,0-1.6-0.3-2.2-0.9
			c-0.6-0.6-0.9-1.3-0.9-2.1c0-0.8,0.3-1.6,0.9-2.2c0.6-0.6,1.3-0.9,2.2-0.9c0.8,0,1.5,0.3,2.1,0.9S130.7,33.4,130.7,34.2z
			 M125.3,64.3V40.3h4.7v23.9H125.3z"/>
		<path class="st0" d="M130.7,64.9h-6.1V39.7h6.1V64.9z M126,63.6h3.4V41H126V63.6z M127.7,37.9c-1,0-1.9-0.4-2.6-1.1
			c-0.7-0.7-1.1-1.6-1.1-2.6c0-1,0.4-1.9,1.1-2.6c0.7-0.7,1.6-1.1,2.6-1.1c1,0,1.9,0.4,2.6,1.1c0.7,0.7,1.1,1.6,1.1,2.6
			c0,1-0.4,1.9-1.1,2.6C129.5,37.6,128.7,37.9,127.7,37.9z M127.7,31.9c-0.7,0-1.2,0.2-1.7,0.7c-0.5,0.5-0.7,1-0.7,1.7
			c0,0.6,0.2,1.2,0.7,1.6c0.9,0.9,2.4,0.9,3.3,0c0.5-0.5,0.7-1,0.7-1.6c0-0.7-0.2-1.2-0.7-1.7C128.8,32.1,128.3,31.9,127.7,31.9z"/>
	</g>
	<g>
		<path class="st0" d="M137.4,64.3V33.5l4.7-2.5v33.2H137.4z"/>
		<path class="st0" d="M142.8,64.9h-6.1V33.1l6.1-3.2V64.9z M138,63.6h3.4V32.2l-3.4,1.7V63.6z"/>
	</g>
	<g>
		<path class="st0" d="M165.9,57.7c0,1.3-0.3,2.5-0.8,3.3c-0.5,0.9-1.2,1.6-2,2.2c-0.8,0.5-1.8,0.9-2.8,1.2
			c-1.1,0.2-2.2,0.4-3.4,0.4c-1.6,0-3.3-0.3-4.9-0.9c-1.6-0.6-3-1.3-4.3-2.2l2.1-3.6c1.1,0.8,2.3,1.4,3.5,1.8
			c1.2,0.4,2.4,0.6,3.5,0.6c2.9,0,4.4-0.9,4.4-2.6c0-0.9-0.5-1.6-1.5-2.2c-1-0.5-2.3-1.2-4.1-1.8c-1.3-0.5-2.4-1-3.3-1.5
			c-0.9-0.5-1.6-1-2.2-1.6c-0.6-0.6-1-1.2-1.2-1.9c-0.2-0.7-0.4-1.5-0.4-2.5c0-1.1,0.2-2,0.6-2.8c0.4-0.8,1-1.5,1.7-2
			c0.7-0.5,1.6-1,2.6-1.2c1-0.3,2.1-0.4,3.3-0.4c1.5,0,3,0.2,4.4,0.7c1.4,0.5,2.6,1.1,3.7,1.9l-2,3.6c-1-0.7-2-1.2-3-1.5
			c-1-0.3-2.1-0.5-3.2-0.5c-1.2,0-2,0.2-2.5,0.6c-0.5,0.4-0.8,0.9-0.8,1.6c0,0.3,0.1,0.6,0.2,0.8c0.1,0.3,0.3,0.5,0.7,0.8
			c0.3,0.3,0.8,0.6,1.3,0.8c0.6,0.3,1.3,0.6,2.2,1c1.3,0.5,2.5,1,3.5,1.5c1,0.5,1.8,1,2.5,1.6s1.2,1.3,1.5,2.1
			C165.7,55.6,165.9,56.6,165.9,57.7z"/>
		<path class="st0" d="M156.9,65.4c-1.7,0-3.4-0.3-5.1-0.9c-1.7-0.6-3.2-1.4-4.4-2.3l-0.5-0.4l2.8-4.7l0.6,0.4
			c1.1,0.7,2.2,1.3,3.3,1.7c1.1,0.4,2.2,0.6,3.3,0.6c3.7,0,3.7-1.4,3.7-2c0-0.4-0.1-1-1.1-1.6c-1-0.5-2.3-1.1-4-1.8
			c-1.3-0.5-2.4-1-3.3-1.5c-0.9-0.5-1.7-1.1-2.3-1.7c-0.6-0.6-1.1-1.4-1.4-2.2c-0.3-0.8-0.4-1.7-0.4-2.7c0-1.2,0.2-2.2,0.7-3.1
			c0.4-0.9,1.1-1.7,1.9-2.3c0.8-0.6,1.7-1,2.8-1.3c2.4-0.7,5.4-0.6,8.1,0.3c1.5,0.5,2.8,1.2,3.9,2l0.5,0.4l-2.7,4.8l-0.6-0.4
			c-0.9-0.7-1.8-1.1-2.8-1.5c-0.9-0.3-1.9-0.5-3-0.5c-1.2,0-1.8,0.3-2.1,0.5c-0.4,0.3-0.5,0.6-0.5,1c0,0.2,0,0.4,0.1,0.5
			c0.1,0.1,0.2,0.3,0.5,0.6c0.3,0.2,0.7,0.5,1.2,0.8c0.5,0.3,1.3,0.6,2.2,1c1.3,0.5,2.5,1,3.5,1.5c1.1,0.5,2,1.1,2.7,1.7
			c0.8,0.7,1.3,1.4,1.7,2.3c0.4,0.9,0.6,1.9,0.6,3.1c0,1.4-0.3,2.7-0.8,3.7c-0.6,1-1.3,1.8-2.2,2.4c-0.9,0.6-1.9,1-3.1,1.3
			C159.4,65.3,158.2,65.4,156.9,65.4z M148.7,61.5c1,0.7,2.2,1.3,3.6,1.7c2.7,0.9,5.5,1,7.9,0.5c1-0.2,1.9-0.6,2.6-1.1
			c0.7-0.5,1.3-1.1,1.8-1.9c0.4-0.8,0.7-1.8,0.7-3c0-1-0.2-1.9-0.4-2.6c-0.3-0.7-0.7-1.3-1.3-1.8c-0.6-0.5-1.4-1-2.4-1.5
			c-1-0.5-2.1-0.9-3.5-1.5c-1-0.4-1.7-0.7-2.3-1c-0.6-0.3-1.1-0.6-1.5-0.9c-0.4-0.3-0.7-0.7-0.9-1c-0.2-0.3-0.2-0.7-0.2-1.1
			c0-0.8,0.4-1.6,1-2.1c0.6-0.5,1.6-0.8,2.9-0.8c1.2,0,2.4,0.2,3.4,0.5c0.8,0.3,1.7,0.7,2.5,1.2l1.4-2.4c-0.9-0.6-1.9-1.1-3-1.5
			c-2.4-0.8-5.1-0.9-7.3-0.3c-0.9,0.2-1.7,0.6-2.4,1.1c-0.6,0.5-1.1,1.1-1.5,1.8c-0.3,0.7-0.5,1.6-0.5,2.5c0,0.9,0.1,1.6,0.3,2.3
			c0.2,0.6,0.6,1.2,1,1.7c0.5,0.5,1.2,1,2,1.5c0.9,0.5,1.9,1,3.2,1.4c1.8,0.7,3.2,1.3,4.2,1.9c1.5,0.8,1.8,2,1.8,2.8
			c0,1.5-0.9,3.3-5.1,3.3c-1.2,0-2.4-0.2-3.7-0.6c-1-0.3-2.1-0.8-3.1-1.5L148.7,61.5z"/>
	</g>
	<g>
		<path class="st0" d="M208.1,57.3c-0.6,1.6-1.4,3-2.5,4.1c-1.1,1.1-2.4,2-3.8,2.5c-1.5,0.6-3.1,0.9-4.9,0.9c-2.1,0-3.9-0.4-5.6-1.2
			c-1.7-0.8-3.1-1.9-4.2-3.4S185,57,184.3,55c-0.6-2-1-4.2-1-6.6c0-2.4,0.3-4.6,1-6.6c0.6-2,1.5-3.8,2.7-5.2
			c1.2-1.5,2.6-2.6,4.2-3.4c1.7-0.8,3.5-1.2,5.6-1.2c2.6,0,4.8,0.5,6.6,1.5c1.8,1,3.2,2.5,4.3,4.4l-4.2,2.6
			c-0.8-1.3-1.7-2.3-2.7-2.9c-1-0.6-2.3-0.9-3.9-0.9c-2.8,0-4.9,1-6.4,3.1c-1.5,2.1-2.2,4.9-2.2,8.5c0,3.6,0.7,6.4,2.2,8.5
			c1.5,2.1,3.6,3.1,6.4,3.1c1.3,0,2.4-0.2,3.3-0.6c0.9-0.4,1.7-0.9,2.2-1.6c0.6-0.7,1-1.4,1.3-2.3c0.3-0.9,0.4-1.8,0.4-2.7v-0.1
			h-5.2v-4.6H209v3.7C209,53.8,208.7,55.7,208.1,57.3z"/>
		<path class="st0" d="M196.9,65.4c-2.2,0-4.1-0.4-5.9-1.3c-1.7-0.8-3.2-2-4.5-3.6c-1.2-1.5-2.2-3.3-2.8-5.4c-0.7-2.1-1-4.4-1-6.9
			c0-2.5,0.3-4.8,1-6.8c0.7-2.1,1.6-3.9,2.8-5.4c1.2-1.5,2.7-2.7,4.5-3.6c1.7-0.8,3.7-1.3,5.9-1.3c2.7,0,5,0.5,6.9,1.6
			c1.9,1.1,3.4,2.7,4.5,4.7l0.3,0.6l-5.3,3.3l-0.4-0.6c-0.8-1.2-1.6-2.1-2.5-2.6c-0.9-0.5-2.1-0.8-3.6-0.8c-2.6,0-4.5,0.9-5.8,2.8
			c-1.4,2-2.1,4.7-2.1,8.1c0,3.4,0.7,6.2,2.1,8.1c1.3,1.9,3.3,2.8,5.8,2.8c1.2,0,2.2-0.2,3.1-0.5c0.8-0.4,1.5-0.8,2-1.4
			c0.5-0.6,0.9-1.3,1.1-2c0.2-0.6,0.3-1.3,0.4-2h-5.2v-6h11.4v4.4c0,2.1-0.3,4.1-0.9,5.7c-0.6,1.7-1.5,3.1-2.7,4.3
			c-1.1,1.2-2.5,2.1-4.1,2.7C200.4,65.1,198.7,65.4,196.9,65.4z M196.9,32.6c-1.9,0-3.7,0.4-5.3,1.1c-1.6,0.8-2.9,1.8-4,3.2
			c-1.1,1.4-2,3.1-2.6,5c-0.6,1.9-0.9,4.1-0.9,6.4c0,2.3,0.3,4.5,0.9,6.4c0.6,1.9,1.5,3.6,2.6,5c1.1,1.4,2.4,2.4,4,3.2
			c1.6,0.8,3.3,1.1,5.3,1.1c1.7,0,3.2-0.3,4.6-0.8c1.4-0.5,2.6-1.3,3.6-2.4c1-1.1,1.8-2.3,2.4-3.8v0c0.6-1.5,0.8-3.3,0.8-5.2v-3
			h-8.7V52h5.2v0.7c0,1.1-0.1,2.1-0.4,3.1c-0.3,0.9-0.8,1.8-1.4,2.5c-0.6,0.7-1.5,1.3-2.5,1.7c-1,0.4-2.2,0.6-3.6,0.6
			c-3,0-5.4-1.2-7-3.4c-1.5-2.2-2.3-5.2-2.3-8.9c0-3.7,0.8-6.7,2.3-8.9c1.6-2.3,3.9-3.4,7-3.4c1.8,0,3.2,0.3,4.3,1
			c0.9,0.6,1.8,1.4,2.6,2.5l3-1.9c-1-1.6-2.2-2.8-3.7-3.6C201.4,33,199.3,32.6,196.9,32.6z"/>
	</g>
	<g>
		<path class="st0" d="M220.7,34.2c0,0.8-0.3,1.5-0.9,2.1c-0.6,0.6-1.3,0.9-2.1,0.9c-0.9,0-1.6-0.3-2.2-0.9
			c-0.6-0.6-0.9-1.3-0.9-2.1c0-0.8,0.3-1.6,0.9-2.2c0.6-0.6,1.3-0.9,2.2-0.9c0.8,0,1.5,0.3,2.1,0.9
			C220.4,32.7,220.7,33.4,220.7,34.2z M215.3,64.3V40.3h4.7v23.9H215.3z"/>
		<path class="st0" d="M220.7,64.9h-6.1V39.7h6.1V64.9z M216,63.6h3.4V41H216V63.6z M217.7,37.9c-1,0-1.9-0.4-2.6-1.1
			c-0.7-0.7-1.1-1.6-1.1-2.6c0-1,0.4-1.9,1.1-2.6c0.7-0.7,1.6-1.1,2.6-1.1c1,0,1.9,0.4,2.6,1.1c0.7,0.7,1.1,1.6,1.1,2.6
			c0,1-0.4,1.9-1.1,2.6C219.6,37.6,218.7,37.9,217.7,37.9z M217.7,31.9c-0.7,0-1.2,0.2-1.7,0.7c-0.5,0.5-0.7,1-0.7,1.7
			c0,0.6,0.2,1.2,0.7,1.6c0.9,0.9,2.4,0.9,3.3,0c0.5-0.5,0.7-1,0.7-1.6c0-0.7-0.2-1.2-0.7-1.7C218.8,32.1,218.3,31.9,217.7,31.9z"/>
	</g>
	<g>
		<path class="st0" d="M240.2,45.3c-0.5-0.3-1-0.5-1.6-0.6c-0.5-0.2-1.2-0.2-2-0.2c-1.5,0-2.6,0.5-3.5,1.5c-0.8,1-1.2,2.6-1.2,4.6
			v13.7h-4.7V40.3h4.7v2.3c0.5-0.8,1.3-1.4,2.3-2s2-0.8,3.2-0.8c1,0,1.8,0.1,2.4,0.3s1.2,0.4,1.7,0.8L240.2,45.3z"/>
		<path class="st0" d="M232.6,64.9h-6.1V39.7h6.1v1.2c0.4-0.3,0.8-0.6,1.2-0.8c1.1-0.6,2.2-0.9,3.5-0.9c1,0,1.9,0.1,2.6,0.3
			c0.7,0.2,1.3,0.5,1.9,0.8l0.4,0.3l-1.6,5.8l-0.8-0.4c-0.5-0.2-1-0.4-1.5-0.6c-0.5-0.1-1.1-0.2-1.8-0.2c-1.3,0-2.2,0.4-2.9,1.3
			c-0.7,0.9-1.1,2.3-1.1,4.2V64.9z M227.8,63.6h3.4v-13c0-2.2,0.5-3.9,1.4-5c1-1.2,2.3-1.8,4-1.8c0.8,0,1.6,0.1,2.2,0.3
			c0.3,0.1,0.6,0.2,1,0.3l0.9-3.2c-0.3-0.2-0.7-0.3-1-0.4c-0.6-0.2-1.3-0.2-2.2-0.2c-1.1,0-2,0.2-2.9,0.7c-0.9,0.5-1.5,1.1-2,1.8
			l-1.3,1.8V41h-3.4V63.6z"/>
	</g>
	<g>
		<path class="st0" d="M246.4,64.3V33.5l4.7-2.5v33.2H246.4z"/>
		<path class="st0" d="M251.8,64.9h-6.1V33.1l6.1-3.2V64.9z M247.1,63.6h3.4V32.2l-3.4,1.7V63.6z"/>
	</g>
	<g>
		<path class="st0" d="M274.9,57.7c0,1.3-0.3,2.5-0.8,3.3c-0.5,0.9-1.2,1.6-2,2.2c-0.8,0.5-1.8,0.9-2.8,1.2
			c-1.1,0.2-2.2,0.4-3.4,0.4c-1.6,0-3.3-0.3-4.9-0.9c-1.6-0.6-3-1.3-4.3-2.2l2.1-3.6c1.1,0.8,2.3,1.4,3.5,1.8
			c1.2,0.4,2.4,0.6,3.5,0.6c2.9,0,4.4-0.9,4.4-2.6c0-0.9-0.5-1.6-1.5-2.2c-1-0.5-2.3-1.2-4.1-1.8c-1.3-0.5-2.4-1-3.3-1.5
			c-0.9-0.5-1.6-1-2.2-1.6c-0.6-0.6-1-1.2-1.2-1.9c-0.2-0.7-0.4-1.5-0.4-2.5c0-1.1,0.2-2,0.6-2.8c0.4-0.8,1-1.5,1.7-2
			c0.7-0.5,1.6-1,2.6-1.2c1-0.3,2.1-0.4,3.3-0.4c1.5,0,3,0.2,4.4,0.7c1.4,0.5,2.6,1.1,3.7,1.9l-2,3.6c-1-0.7-2-1.2-3-1.5
			c-1-0.3-2.1-0.5-3.2-0.5c-1.2,0-2,0.2-2.5,0.6c-0.5,0.4-0.8,0.9-0.8,1.6c0,0.3,0.1,0.6,0.2,0.8c0.1,0.3,0.3,0.5,0.7,0.8
			s0.8,0.6,1.3,0.8c0.6,0.3,1.3,0.6,2.2,1c1.3,0.5,2.5,1,3.5,1.5c1,0.5,1.8,1,2.5,1.6c0.7,0.6,1.2,1.3,1.5,2.1
			C274.8,55.6,274.9,56.6,274.9,57.7z"/>
		<path class="st0" d="M266,65.4c-1.7,0-3.4-0.3-5.1-0.9c-1.7-0.6-3.2-1.4-4.4-2.3l-0.5-0.4l2.8-4.7l0.6,0.4
			c1.1,0.7,2.2,1.3,3.3,1.7c1.1,0.4,2.2,0.6,3.3,0.6c3.7,0,3.7-1.5,3.7-2c0-0.4-0.1-1-1.1-1.6c-1-0.5-2.3-1.1-4-1.8
			c-1.3-0.5-2.4-1-3.3-1.5c-1-0.5-1.7-1.1-2.3-1.7c-0.6-0.6-1.1-1.4-1.4-2.2c-0.3-0.8-0.4-1.7-0.4-2.7c0-1.2,0.2-2.2,0.7-3.1
			c0.4-0.9,1.1-1.7,1.9-2.3c0.8-0.6,1.7-1,2.8-1.3c2.4-0.7,5.4-0.6,8.1,0.3c1.5,0.5,2.8,1.2,3.9,2l0.5,0.4l-2.7,4.8l-0.6-0.4
			c-0.9-0.7-1.8-1.1-2.8-1.5c-0.9-0.3-1.9-0.5-3-0.5c-1.2,0-1.8,0.3-2.1,0.5c-0.4,0.3-0.5,0.6-0.5,1c0,0.2,0,0.4,0.1,0.5
			c0.1,0.1,0.2,0.3,0.5,0.6c0.3,0.2,0.7,0.5,1.2,0.8c0.5,0.3,1.3,0.6,2.1,1c1.3,0.5,2.5,1,3.5,1.5c1.1,0.5,2,1.1,2.7,1.7
			c0.8,0.7,1.3,1.4,1.7,2.3c0.4,0.9,0.6,1.9,0.6,3.1c0,1.4-0.3,2.7-0.8,3.7c-0.6,1-1.3,1.8-2.2,2.4c-0.9,0.6-1.9,1-3.1,1.3
			C268.4,65.3,267.2,65.4,266,65.4z M257.7,61.5c1,0.7,2.2,1.3,3.6,1.7c2.7,0.9,5.5,1,7.9,0.5c1-0.2,1.9-0.6,2.6-1.1
			c0.7-0.5,1.3-1.1,1.8-1.9c0.4-0.8,0.7-1.8,0.7-3c0-1-0.2-1.9-0.4-2.6c-0.3-0.7-0.7-1.3-1.3-1.8c-0.6-0.5-1.4-1-2.4-1.5
			c-1-0.5-2.1-1-3.5-1.5c-0.9-0.4-1.7-0.7-2.3-1c-0.6-0.3-1.1-0.6-1.5-0.9c-0.4-0.3-0.7-0.7-0.9-1c-0.2-0.3-0.2-0.7-0.2-1.1
			c0-0.8,0.4-1.6,1-2.1c0.6-0.5,1.6-0.8,2.9-0.8c1.2,0,2.4,0.2,3.5,0.5c0.8,0.3,1.7,0.7,2.5,1.2l1.4-2.4c-0.9-0.6-1.9-1.1-3-1.5
			c-2.4-0.8-5.1-0.9-7.3-0.3c-0.9,0.2-1.7,0.6-2.4,1.1c-0.6,0.5-1.1,1.1-1.5,1.8c-0.3,0.7-0.5,1.6-0.5,2.5c0,0.9,0.1,1.6,0.3,2.3
			c0.2,0.6,0.6,1.2,1.1,1.7c0.5,0.5,1.2,1,2,1.5c0.9,0.5,1.9,1,3.2,1.4c1.8,0.7,3.2,1.3,4.2,1.9c1.5,0.8,1.8,2,1.8,2.8
			c0,1.5-0.9,3.3-5.1,3.3c-1.2,0-2.4-0.2-3.7-0.6c-1-0.3-2.1-0.8-3-1.5L257.7,61.5z"/>
	</g>
</g>
<path class="st0" d="M123.8,193.1"/>
</svg>
