<svg width="325" height="325" xmlns="http://www.w3.org/2000/svg">
  <g fill="#C8272C" fill-rule="nonzero">
    <path d="M201.8 106.3c-9.4-7.1-21-10.6-32.8-10.6-2.2 0-4.4.1-6.5.4l16.9-6.4-1.5-3.9-25.1 9.5c-1.6-9-8.8-19.6-15.9-24.9-5.4-4-12.2-6-18.9-6h-.8c-4.7.1-12.4 3.8-16.4 6.1-16.5 9.3-23.5 27.6-27.5 46.1 4.4-8.8 12.4-15.9 23-20.3-3.5 3.5-4.9 6.9-7.1 12.4-2.1 5.4-3.5 11.5-2.6 18.1 1.7-5.8 3.5-11.1 7.9-14.6 0 4.2 2.6 10 2.7 12.1.3-5.6 3.6-15.6 7.6-19.3 5.6-5.3 12-10.5 19.6-11.7.9-.1 1.8-.2 2.7-.2 5.4 0 11 2.5 13.8 6.8l-24.7 9.4-5.9 4.5 7.3-.6 17.8-6.7c-2.5 1.8-4.8 3.7-7 5.8-3.4 3.3-5.9 6.7-7.6 10.1 0 0-6.4 10.2-4.1 29.2.1 1.7.4 3 .4 3 .4 1.7 1 3.6 1 3.6l.5-.1 68.3-13.4 1.1 1 5.1 4.6.9-6.8 6.4 6.8h24.1l.1-.1c0-11.1-4.4-21.6-11.1-31.4-3.4-4.9-7.3-9.2-11.7-12.5z"/>
    <path d="M224.2 153.5h-25.5l-1-1.3-1.3-1.7-.7 6.5-4.8-4.4-4.9-4.5-66.6 13.1c.8 2.9 1.9 7 3.3 9.6h96.9c2.3-4.9 3.9-11.7 4.6-17.3zm-75.2 13c-3.5 0-6.2 2.9-6.2-.7 0-3.5 2.9-6.4 6.4-6.4 3.5 0 6.4 2.9 6.4 6.4 0 3.6-3.1.7-6.6.7zm46.7 0c-3.5 0-6.2 2.9-6.2-.7 0-3.5 2.9-6.4 6.4-6.4 3.5 0 6.4 2.9 6.4 6.4 0 3.6-3.1.7-6.6.7zM3.5 194.6c.6-3.6.9-7.3 1.9-10.7 2.5-9.1 7.3-16.8 14.5-23 6.8-5.9 14.5-7.8 23.3-6.1 7 1.4 17.2 6.2 21.6 10.5-.5 1-1.1.6-1.8.2-4.2-2.5-8.7-4.4-13.6-5.1-12.8-1.8-23.5 6.9-24.3 19.9-.3 4.3.4 8.4 1.1 12.6-7.6.4-15.1 1-22.7 1.7zM3.8 183.7c-.4-.1-.7-.1-.9-.2-.7-.2-1.4-.4-2.4-.7.4-1.2.7-2.3 1.1-3.5 1.2.3 2.2.6 3.3.9-.4 1.3-.8 2.4-1.1 3.5z"/>
    <path d="M26.9 186.9c3.2.6 3.4.8 3.6 4.1-3.3-.5-3.6-.7-3.6-4.1zM27.1 176.3c2.1.9 2.1.9 1.8 4.2-2.5-.7-2.6-1.1-1.8-4.2zM10.8 169c-.8-.6-1.4-1-2.1-1.6.7-.7 1.3-1.4 2.1-2.1.5.3 1.1.8 1.8 1.3-.7.8-1.2 1.5-1.8 2.4zM19.3 156.7c.7-.5 1.3-.9 2-1.4.5.6.9 1.1 1.4 1.8-.7.5-1.3.9-2 1.4-.4-.6-.9-1.2-1.4-1.8zM29.8 169.5c.6-.7 1.1-1.2 1.6-1.8 1.5 1.6 1.5 1.6 0 3.7-.5-.6-1-1.2-1.6-1.9zM39.1 162.6c.2.5.4.9.7 1.6-.7.4-1.4.8-2.1 1.1-1.3-1.7-1.2-1.9 1.4-2.7zM45.2 152.3c2.5.2 2.7.3 2.7 2.1-2.3.1-2.8-.3-2.7-2.1zM48.6 163c-.9 0-1.7 0-2.6-.1 0-.6 0-1.1-.1-1.7.9 0 1.7.1 2.6.1 0 .6.1 1.1.1 1.7zM31.3 151.7c1.2.1 2.7-1 3 1.2-1.1 0-2.6 1.2-3-1.2z"/>
    <g>
      <path d="M17.7 278.8c.6-.2 1.3-.4 1.9-.6.3-.1.3-.2.2-.5-.3-.8-.5-1.6-.7-2.4 0-.2-.1-.3-.2-.5 1.1-.3 2.1-.7 3.2-1-.2-.8-.5-1.5-.7-2.2 13.9-4.3 27.8-8.7 41.7-13 .2.7.4 1.4.7 2.2 1.1-.3 2.1-.7 3.2-1 .1.2.1.4.2.6.2.8.5 1.5.7 2.3.1.3.2.4.5.3.6-.2 1.3-.4 1.9-.6.2.8.5 1.5.7 2.3-.2.1-.4.1-.6.2-17.2 5.4-34.4 10.7-51.5 16.1-.2.1-.4.1-.5.2-.3-.9-.5-1.6-.7-2.4zM57.4 232.8c-15.3 4.8-30.6 9.6-46 14.3-.1-.4-.3-.8-.4-1.2 0-.1.1-.3.2-.4 2.1-1.7 4.1-3.5 6.2-5.2 3.6-3.1 7.3-6.1 10.9-9.2.8-.6 1.5-1.3 2.3-1.9.2-.2.5-.3.7-.2 2.5.2 4.9.5 7.4.7l12.9 1.2c1.6.2 3.3.3 4.9.5.3 0 .4.1.5.4.2.3.3.6.4 1z"/>
      <path d="M38.3 242.6c1.4-.5 2.9-.9 4.4-1.4 2.2 6.5 5.4 15.7 7.7 22.2-1.9.6-3.7 1.1-5.6 1.7-1.9-6.5-4.6-15.9-6.5-22.5zM28.4 245.7c1.4-.4 2.7-.8 4-1.3.3-.1.3.1.4.3.3.8.9 2.5 1.1 3.3 1.1 3.3 2.2 6.5 3.4 9.8.7 2.2 2.1 6.2 2.9 8.4 0 .1.1.3.1.4-1.8.6-3.7 1.1-5.5 1.7-1.9-6.6-4.6-16-6.4-22.6zM18.3 248.9c1.4-.4 2.8-.9 4.3-1.3 2.2 6.5 5.4 15.7 7.7 22.2-1.8.6-3.6 1.1-5.4 1.7-2-6.6-4.7-16-6.6-22.6zM52.6 238.2c2.3 6.5 5.4 15.7 7.7 22.2-1.8.6-3.6 1.1-5.4 1.7-1.9-6.6-4.6-16-6.5-22.6 1.4-.5 2.8-.9 4.2-1.3z"/>
      <path d="M53.7 236.3l.6 2.1c-12.4 3.9-24.8 7.7-37.2 11.6l-.6-2.1c12.4-3.9 24.8-7.8 37.2-11.6z"/>
    </g>
    <path d="M288.7 120.2c4.8 1.2 9.7 2.4 14.5 3.5.6.2 1 .4 1.2 1.1 1.4 4 2.8 7.9 4.3 11.9.3.7.1 1.1-.5 1.5-9.3 6.1-18.6 12.1-27.9 18.2-.6.4-.9.3-1.3-.3-5.5-9.6-11-19.3-16.5-28.9-.3-.6-.3-.9.2-1.4 3.3-2.9 6.5-5.9 9.7-8.8.5-.5 1-.6 1.7-.4 4.8 1.3 9.7 2.4 14.6 3.6zm4.6 14.6c-5.3-1.3-10.4-2.5-15.7-3.8 1.2 6.6 2.3 13.1 3.5 19.8 4.2-5.4 8.2-10.6 12.2-16zm-27.4-6.7c4.1 7.1 8 14 12 20.8 0-.9-.1-1.6-.3-2.4-1-5.2-2-10.4-3-15.5-.1-.3-.3-.8-.5-.9-2.6-.7-5.3-1.3-8.2-2zm38.6 9.4c-2.6-.6-4.9-1.2-7.2-1.8-.6-.2-.9 0-1.3.5-2.7 3.5-5.4 7-8.2 10.4-1 1.3-2 2.6-3 3.8l.1.1c6.5-4.2 12.9-8.5 19.6-13zm-11.4-5.9c-1.7-3-3.3-5.8-5-8.6-2.8 1.8-5.5 3.5-8.4 5.3 4.5 1.2 8.8 2.2 13.4 3.3zm-17.6-12.5c.5 2.7.9 5.3 1.4 7.9 2.9-1.9 5.7-3.6 8.6-5.5-3.4-.8-6.6-1.6-10-2.4zm15.5 3.8c1.7 2.9 3.3 5.7 4.9 8.5 1.6-2.1 3.1-4.1 4.7-6.2-3.2-.8-6.3-1.5-9.6-2.3zm7.5 10c2.3.6 4.5 1.1 6.8 1.7-.9-2.4-1.7-4.7-2.6-7.2-1.4 1.9-2.8 3.7-4.2 5.5zm-25.7-12.6c-1.9 1.7-3.6 3.3-5.5 5 2.3.6 4.4 1.1 6.7 1.6-.5-2.2-.8-4.3-1.2-6.6zM215.5 174.4H72l11.3 98.3h177.9l11.3-98.3h-57zm-63.8 43h5.9v-5.9h11.8v5.9h5.9v-5.9h11.8v5.9h-11.7v5.9h-5.9v-5.9h-11.8v11.8h-5.9c-.1-3.9-.1-7.8-.1-11.8zm5.9 11.9s0-.1 0 0c2-.1 3.9-.1 5.9-.1v5.9h-5.9v-5.8zm5.9 5.9c0-.1 0-.1 0 0 2-.1 3.9-.1 5.9-.1v5.9h-5.9v-5.8zm29.4-6H187v5.9h-5.9v5.9h-5.9v5.9h-5.9V241h5.9v-5.9h5.9v-5.9h5.9v-11.8h5.9v11.8z"/>
    <g>
      <path d="M324.6 218.8l-5.1 3.9-19.4-23.7 6.8-5.2z"/>
      <path d="M298.9 178.5l6.5 8.4-11.5 8.9-6.5-8.4c-1.1 3.7-.4 7.8 2.1 11.1 4.2 5.4 10.6 4.7 16.1.5 5.5-4.2 7.7-10.3 3.6-15.7-2.7-3.3-6.5-4.9-10.3-4.8z"/>
    </g>
    <path d="M75.1 140.3s-6.8-4.8-11.4.4c-4.6 5.2 17.4 12.4 17.4 12.4s10-17.6 4.6-20.6-10.6 7.8-10.6 7.8zM301.5 275.9l-7-9.9-12.1.1 7.2-9.7-3.9-11.4 11.4 3.9 9.7-7.2-.2 12.1 9.8 7-11.5 3.6-3.4 11.5zm-5.2-13.5l3.9 5.5 2-6.4 6.4-2-5.5-3.9.1-6.7-5.4 4-6.3-2.2 2.1 6.3-4 5.4h6.7z"/>
    <g>
      <path d="M109.8 323l-2.8-7.8H93.9l-2.7 7.8h-5.1l11.8-32.7h5.2L115 323h-5.2zm-6.9-19.7c-.2-.6-.4-1.2-.7-2-.2-.7-.5-1.4-.7-2.2-.2-.7-.5-1.4-.7-2-.2-.6-.4-1.1-.4-1.4-.1.3-.2.8-.4 1.4-.2.6-.4 1.3-.6 2-.2.7-.4 1.4-.7 2.2-.2.7-.5 1.4-.7 2l-2.6 7.5h10.1l-2.6-7.5z"/>
      <path d="M116 323.7h-6.7l-2.8-7.8H94.4l-2.7 7.8h-6.6l12.3-34.1h6.2l12.4 34.1zm-5.7-1.4h3.8l-11.4-31.4h-4.2l-11.3 31.4h3.6l2.7-7.8h14.1l2.7 7.8zm-3.8-10.8h-12l2.9-8.4c.2-.6.4-1.3.7-2l1.3-4.1c.2-.6.3-1.1.4-1.4l.7-2.4.7 2.4c.1.3.2.8.4 1.4.2.6.4 1.3.7 2 .2.7.5 1.4.7 2.1.3.7.5 1.4.7 2l2.8 8.4zm-10.1-1.4h8.2l-2.3-6.6c-.2-.6-.4-1.2-.6-1.9-.3-.7-.5-1.4-.7-2.2l-.4-1.3-1.1 3.4c-.2.8-.5 1.4-.7 2l-2.4 6.6zM129.6 295.1V323h-4.9v-27.9h-9.5v-4.8h23.9v4.8z"/>
      <path d="M130.3 323.7H124v-27.9h-9.5v-6.2h25.3v6.2h-9.5v27.9zm-4.9-1.4h3.5v-27.9h9.5V291h-22.6v3.4h9.5v27.9h.1zM165.6 323v-14.7h-15.1V323h-4.9v-32.7h4.9v13.2h15.1v-13.2h4.9V323z"/>
      <path d="M171.2 323.7H165V309h-13.8v14.7H145v-34.1h6.2v13.2H165v-13.2h6.2v34.1zm-4.9-1.4h3.5v-31.4h-3.5v13.2h-16.5v-13.2h-3.5v31.4h3.5v-14.7h16.5v14.7z"/>
      <g>
        <path d="M179 323v-32.7h21v4.8h-16.2v8h9.4v4.8h-9.4v10.3h16.9v4.8H179z"/>
        <path d="M201.4 323.7h-23.1v-34.1h22.4v6.2h-16.2v6.6h9.4v6.2h-9.4v8.9h16.9v6.2zm-21.7-1.4h20.4v-3.4h-16.9v-11.7h9.4v-3.4h-9.4v-9.4h16.2V291h-19.7v31.3z"/>
      </g>
      <g>
        <path d="M228 323l-13-20.5c-.4-.6-.8-1.3-1.3-2.1s-.8-1.4-1.1-1.9V323h-4.8v-32.7h5l12.4 20c.2.3.5.7.7 1.2.3.4.5.9.8 1.3.2.5.5.9.7 1.2.2.4.4.7.5.9v-1.5-2.2-2.3-18.7h4.8V323H228z"/>
        <path d="M233.3 323.7h-5.7l-13.2-20.8c-.4-.5-.7-1.2-1.2-1.9v22.7h-6.1v-34.1h6.1l12.6 20.3c.2.3.5.7.7 1.2.2.4.5.8.7 1.2v-1-21.7h6.1v34.1zm-5-1.4h3.6v-31.4h-3.4v26.5l-1.8-3.1c-.2-.4-.5-.8-.7-1.3-.2-.4-.5-.9-.8-1.3-.3-.4-.5-.8-.7-1.2l-12.2-19.6h-3.9v31.4h3.4v-18.1-2.2-6.1l1.3 2.2c.2.4.6 1.1 1.1 1.9.5.8.9 1.5 1.3 2.1l12.8 20.2z"/>
      </g>
      <g>
        <path d="M263.1 313.6c0 1.5-.2 2.8-.7 4-.5 1.2-1.2 2.3-2.2 3.1-1 .9-2.2 1.6-3.8 2-1.5.5-3.3.7-5.4.7-2.4 0-4.6-.5-6.6-1.4-2-.9-3.7-2.2-5.1-3.9l3.5-3.4c1.1 1.2 2.4 2.1 3.9 2.8 1.5.7 3 1.1 4.6 1.1 4.5 0 6.8-1.6 6.8-4.8 0-.6-.1-1.2-.4-1.7-.3-.5-.7-1-1.3-1.4-.6-.4-1.4-.8-2.3-1.2-.9-.4-2.1-.8-3.5-1.2-1.7-.5-3.3-1-4.5-1.5-1.3-.5-2.3-1.1-3.2-1.8-.8-.7-1.5-1.5-1.9-2.5-.4-1-.6-2.2-.6-3.7 0-1.4.3-2.7.8-3.8.6-1.1 1.3-2.1 2.3-2.9 1-.8 2.1-1.4 3.4-1.8 1.3-.4 2.7-.6 4.2-.6 2.2 0 4.2.4 5.9 1.2 1.7.8 3.3 1.9 4.8 3.3l-3.5 3.5c-1-1.1-2.1-1.8-3.4-2.4-1.2-.5-2.6-.8-4.3-.8-1.9 0-3.3.4-4.2 1.2-.9.8-1.3 1.8-1.3 2.9 0 .6.1 1.1.3 1.5.2.5.6.9 1.1 1.3.5.4 1.3.8 2.2 1.1.9.4 2.1.8 3.5 1.2 1.6.5 3.1 1 4.4 1.5 1.3.5 2.4 1.2 3.3 1.9.9.7 1.6 1.6 2.1 2.7.8 1.1 1.1 2.3 1.1 3.8z"/>
        <path d="M251 324.2c-2.5 0-4.8-.5-6.9-1.5-2.1-1-3.8-2.3-5.3-4l-.4-.5 4.5-4.4.5.5c1 1.1 2.3 2 3.7 2.7 1.4.7 2.9 1 4.3 1 5.5 0 6.1-2.3 6.1-4.1 0-.5-.1-1-.3-1.4-.2-.4-.5-.8-1-1.1-.5-.4-1.3-.8-2.1-1.1-.9-.4-2-.7-3.4-1.1-1.8-.5-3.3-1-4.6-1.6-1.3-.6-2.5-1.2-3.4-2-.9-.8-1.6-1.7-2.1-2.8-.5-1.1-.7-2.4-.7-4 0-1.5.3-2.9.9-4.1.6-1.2 1.4-2.3 2.5-3.1 1-.8 2.3-1.5 3.7-1.9 1.4-.4 2.9-.7 4.4-.7 2.3 0 4.4.4 6.2 1.2 1.8.8 3.4 2 5 3.4l.5.5-4.4 4.5-.5-.5c-1-1-2-1.7-3.1-2.2-1.1-.5-2.5-.7-4-.7-1.7 0-3 .3-3.7 1-.7.7-1.1 1.5-1.1 2.4 0 .5.1.9.3 1.2.2.3.5.7.9 1 .5.4 1.2.7 2 1.1.9.4 2.1.8 3.4 1.1 1.6.5 3.1 1 4.4 1.6 1.4.6 2.5 1.2 3.5 2s1.7 1.8 2.3 2.9c.5 1.1.8 2.5.8 4s-.3 3-.8 4.3c-.5 1.3-1.3 2.5-2.4 3.4-1.1.9-2.4 1.7-4 2.2-1.7.5-3.6.8-5.7.8zm-10.7-6c1.2 1.3 2.7 2.4 4.4 3.2 1.9.9 4 1.4 6.3 1.4 2 0 3.8-.2 5.2-.7 1.4-.5 2.6-1.1 3.5-1.9.9-.8 1.6-1.8 2-2.9.4-1.1.7-2.4.7-3.8s-.2-2.5-.7-3.4c-.4-.9-1.1-1.7-1.9-2.4-.8-.7-1.9-1.3-3.1-1.8-1.3-.5-2.7-1-4.3-1.5-1.4-.4-2.6-.8-3.6-1.2-1-.4-1.8-.8-2.3-1.2-.6-.5-1.1-1-1.3-1.5-.3-.5-.4-1.2-.4-1.8 0-1.3.5-2.4 1.5-3.4 1-.9 2.6-1.4 4.7-1.4 1.7 0 3.2.3 4.5.8 1.1.5 2.1 1.1 3.1 2l2.5-2.5c-1.3-1.1-2.6-2-4.1-2.7-1.6-.7-3.5-1.1-5.7-1.1-1.4 0-2.8.2-4 .6-1.2.4-2.3 1-3.2 1.7-.9.7-1.6 1.6-2.1 2.6s-.8 2.2-.8 3.5c0 1.4.2 2.5.6 3.4.4.9.9 1.7 1.7 2.3.8.7 1.8 1.2 3 1.7s2.7 1 4.5 1.5c1.4.4 2.6.8 3.5 1.2 1 .4 1.8.8 2.4 1.3.7.5 1.2 1 1.5 1.6.3.6.4 1.3.4 2 0 2.5-1.3 5.5-7.5 5.5-1.7 0-3.3-.4-4.9-1.1-1.4-.6-2.6-1.5-3.6-2.5l-2.5 2.5z"/>
      </g>
    </g>
    <g>
      <path d="M86.6 12.9c0 2.6-.6 4.6-1.9 6.2-1.2 1.5-3 2.6-5.1 3.1l6.5 13h-5.5l-6.3-12.6h-7.2v12.6h-4.7V3.4h14c1.4 0 2.7.2 3.9.6 1.2.4 2.3 1 3.3 1.7.9.8 1.7 1.8 2.2 3 .5 1.1.8 2.6.8 4.2zm-4.8.1c0-1.7-.5-2.9-1.5-3.8-1-.9-2.3-1.3-3.9-1.3h-9.3v10.2h9.3c1.6 0 2.9-.4 3.9-1.3 1-.8 1.5-2 1.5-3.8z"/>
      <path d="M87.2 35.9h-7l-6.3-12.6h-6.1v12.6h-6.1V2.7h14.7c1.5 0 2.9.2 4.1.6 1.3.4 2.5 1 3.5 1.9 1 .8 1.8 1.9 2.4 3.2.6 1.3.9 2.8.9 4.5 0 2.7-.7 5-2 6.6-1.2 1.5-2.8 2.5-4.7 3.1l6.6 13.3zM81 34.6h4l-6.4-12.8.8-.2c2-.5 3.6-1.5 4.8-2.9 1.1-1.4 1.7-3.4 1.7-5.8 0-1.5-.3-2.9-.8-4s-1.2-2-2-2.7c-.9-.7-1.9-1.3-3-1.6-1.2-.4-2.4-.5-3.7-.5H63.1v30.5h3.4V22h8.3L81 34.6zm-4.6-15.8h-9.9V7.2h9.9c1.8 0 3.3.5 4.4 1.5 1.1 1 1.7 2.5 1.7 4.3 0 1.9-.6 3.4-1.7 4.4-1.2.9-2.7 1.4-4.4 1.4zm-8.6-1.4h8.6c1.5 0 2.6-.4 3.5-1.1.8-.7 1.3-1.8 1.3-3.3 0-1.5-.4-2.6-1.2-3.3-.9-.8-2-1.1-3.5-1.1h-8.6v8.8h-.1zM105.7 35.3v-2.4c-.8.8-1.8 1.5-2.9 2-1.1.5-2.3.8-3.6.8-1 0-2-.1-2.9-.4-1-.3-1.9-.8-2.7-1.4-.8-.6-1.4-1.5-1.9-2.5s-.8-2.3-.8-3.7c0-1.3.2-2.5.7-3.5.5-1 1.2-1.8 2-2.4.8-.6 1.9-1.1 3-1.4 1.2-.3 2.4-.5 3.8-.5 2.2 0 4 .3 5.3.9V19c0-1.3-.4-2.3-1.2-3-.8-.7-1.9-1-3.3-1-1.2 0-2.4.1-3.3.4-1 .2-2 .6-2.9 1.1l-1.8-3.6c1.2-.7 2.4-1.2 3.7-1.6 1.3-.4 2.8-.5 4.5-.5 2.7 0 4.8.7 6.5 2 1.7 1.3 2.5 3.3 2.5 6v16.4h-4.7v.1zm0-10.2c-.6-.3-1.4-.6-2.3-.8-.9-.2-1.9-.3-3.2-.3-1.5 0-2.7.3-3.6 1-.9.6-1.3 1.5-1.3 2.6 0 1.2.4 2.1 1.1 2.9.8.7 1.9 1.1 3.5 1.1 1.3 0 2.4-.3 3.4-1 1-.6 1.8-1.3 2.3-2.1v-3.4h.1z"/>
      <path d="M99.2 36.4c-1 0-2.1-.2-3.1-.5-1.1-.3-2-.8-2.9-1.5-.9-.7-1.6-1.6-2.1-2.7s-.8-2.5-.8-4c0-1.4.3-2.7.8-3.8.5-1.1 1.3-2 2.2-2.7.9-.7 2-1.2 3.2-1.5 1.2-.3 2.5-.5 4-.5 1.8 0 3.4.2 4.6.6V19c0-1.1-.3-1.9-.9-2.5-.6-.6-1.6-.9-2.9-.9-1.2 0-2.3.1-3.2.3-.9.2-1.8.6-2.7 1.1l-.6.3-2.4-4.7.5-.3c1.2-.7 2.5-1.3 3.9-1.7 1.4-.4 2.9-.6 4.7-.6 2.8 0 5.1.7 6.9 2.1 1.8 1.5 2.7 3.7 2.7 6.6v17.1h-6v-1.6c-.6.4-1.2.8-1.9 1.2-1.3.7-2.6 1-4 1zm1.2-15.8c-1.3 0-2.5.1-3.6.4-1.1.3-2 .7-2.8 1.3-.8.6-1.4 1.3-1.8 2.2-.4.9-.7 1.9-.7 3.2 0 1.3.2 2.5.7 3.4.5.9 1 1.7 1.7 2.3.7.6 1.5 1 2.4 1.3 2.1.6 4.3.5 6.1-.3 1-.5 2-1.2 2.7-1.9l1.2-1.2v3.3h3.2V18.9c0-2.5-.7-4.3-2.2-5.5-1.5-1.2-3.6-1.8-6.1-1.8-1.6 0-3.1.2-4.3.5-1 .3-2 .7-3 1.2l1.2 2.4c.8-.4 1.6-.7 2.4-.9 1-.3 2.2-.4 3.5-.4 1.6 0 2.9.4 3.8 1.2.9.8 1.4 2 1.4 3.5v2.8l-1-.4c-1-.6-2.7-.9-4.8-.9zm-.5 11.6c-1.7 0-3-.4-3.9-1.3-.9-.9-1.3-2-1.3-3.4 0-1.3.5-2.4 1.6-3.2 1-.7 2.3-1.1 4-1.1 1.3 0 2.4.1 3.4.3.9.2 1.7.5 2.4.8l.4.2v4.1l-.1.2c-.6.8-1.4 1.6-2.5 2.3-1.3.7-2.6 1.1-4 1.1zm.4-7.5c-1.4 0-2.4.3-3.2.8-.7.5-1 1.2-1 2 0 1 .3 1.8.9 2.4.6.6 1.6.9 3 .9 1.2 0 2.2-.3 3.1-.9.9-.5 1.5-1.1 2-1.7v-2.8c-.5-.2-1.1-.4-1.7-.5-.9-.1-1.9-.2-3.1-.2zM122.7 5.2c0 .8-.3 1.5-.9 2.1-.6.6-1.3.9-2.1.9s-1.6-.3-2.2-.9c-.6-.6-.9-1.3-.9-2.1s.3-1.6.9-2.2c.6-.6 1.3-.9 2.2-.9.8 0 1.5.3 2.1.9.6.6.9 1.4.9 2.2zm-5.4 30.1v-24h4.7v23.9h-4.7v.1z"/>
      <path d="M122.7 35.9h-6.1V10.7h6.1v25.2zm-4.7-1.3h3.4V12H118v22.6zm1.7-25.7c-1 0-1.9-.4-2.6-1.1-.7-.7-1.1-1.6-1.1-2.6s.4-1.9 1.1-2.6c.7-.7 1.6-1.1 2.6-1.1s1.9.4 2.6 1.1c.7.7 1.1 1.6 1.1 2.6s-.4 1.9-1.1 2.6c-.8.8-1.6 1.1-2.6 1.1zm0-6c-.7 0-1.2.2-1.7.7-.5.5-.7 1-.7 1.7 0 .6.2 1.2.7 1.6.9.9 2.4.9 3.3 0 .5-.5.7-1 .7-1.6 0-.7-.2-1.2-.7-1.7-.5-.5-1-.7-1.6-.7zM129.4 35.3V4.5l4.7-2.5v33.2h-4.7z"/>
      <path d="M134.8 35.9h-6.1V4.1l6.1-3.2v35zm-4.8-1.3h3.4V3.2L130 4.9v29.7zM157.9 28.7c0 1.3-.3 2.5-.8 3.3-.5.9-1.2 1.6-2 2.2-.8.5-1.8.9-2.8 1.2-1.1.2-2.2.4-3.4.4-1.6 0-3.3-.3-4.9-.9-1.6-.6-3-1.3-4.3-2.2l2.1-3.6c1.1.8 2.3 1.4 3.5 1.8 1.2.4 2.4.6 3.5.6 2.9 0 4.4-.9 4.4-2.6 0-.9-.5-1.6-1.5-2.2-1-.5-2.3-1.2-4.1-1.8-1.3-.5-2.4-1-3.3-1.5-.9-.5-1.6-1-2.2-1.6-.6-.6-1-1.2-1.2-1.9-.2-.7-.4-1.5-.4-2.5 0-1.1.2-2 .6-2.8.4-.8 1-1.5 1.7-2s1.6-1 2.6-1.2c1-.3 2.1-.4 3.3-.4 1.5 0 3 .2 4.4.7 1.4.5 2.6 1.1 3.7 1.9l-2 3.6c-1-.7-2-1.2-3-1.5-1-.3-2.1-.5-3.2-.5-1.2 0-2 .2-2.5.6-.5.4-.8.9-.8 1.6 0 .3.1.6.2.8.1.3.3.5.7.8.3.3.8.6 1.3.8.6.3 1.3.6 2.2 1 1.3.5 2.5 1 3.5 1.5s1.8 1 2.5 1.6c.7.6 1.2 1.3 1.5 2.1.5.6.7 1.6.7 2.7z"/>
      <path d="M148.9 36.4c-1.7 0-3.4-.3-5.1-.9-1.7-.6-3.2-1.4-4.4-2.3l-.5-.4 2.8-4.7.6.4c1.1.7 2.2 1.3 3.3 1.7 1.1.4 2.2.6 3.3.6 3.7 0 3.7-1.4 3.7-2 0-.4-.1-1-1.1-1.6-1-.5-2.3-1.1-4-1.8-1.3-.5-2.4-1-3.3-1.5-.9-.5-1.7-1.1-2.3-1.7-.6-.6-1.1-1.4-1.4-2.2-.3-.8-.4-1.7-.4-2.7 0-1.2.2-2.2.7-3.1.4-.9 1.1-1.7 1.9-2.3.8-.6 1.7-1 2.8-1.3 2.4-.7 5.4-.6 8.1.3 1.5.5 2.8 1.2 3.9 2l.5.4-2.7 4.8-.6-.4c-.9-.7-1.8-1.1-2.8-1.5-.9-.3-1.9-.5-3-.5-1.2 0-1.8.3-2.1.5-.4.3-.5.6-.5 1 0 .2 0 .4.1.5.1.1.2.3.5.6.3.2.7.5 1.2.8.5.3 1.3.6 2.2 1 1.3.5 2.5 1 3.5 1.5 1.1.5 2 1.1 2.7 1.7.8.7 1.3 1.4 1.7 2.3.4.9.6 1.9.6 3.1 0 1.4-.3 2.7-.8 3.7-.6 1-1.3 1.8-2.2 2.4-.9.6-1.9 1-3.1 1.3-1.3.2-2.5.3-3.8.3zm-8.2-3.9c1 .7 2.2 1.3 3.6 1.7 2.7.9 5.5 1 7.9.5 1-.2 1.9-.6 2.6-1.1.7-.5 1.3-1.1 1.8-1.9.4-.8.7-1.8.7-3 0-1-.2-1.9-.4-2.6-.3-.7-.7-1.3-1.3-1.8-.6-.5-1.4-1-2.4-1.5s-2.1-.9-3.5-1.5c-1-.4-1.7-.7-2.3-1-.6-.3-1.1-.6-1.5-.9-.4-.3-.7-.7-.9-1-.2-.3-.2-.7-.2-1.1 0-.8.4-1.6 1-2.1s1.6-.8 2.9-.8c1.2 0 2.4.2 3.4.5.8.3 1.7.7 2.5 1.2l1.4-2.4c-.9-.6-1.9-1.1-3-1.5-2.4-.8-5.1-.9-7.3-.3-.9.2-1.7.6-2.4 1.1-.6.5-1.1 1.1-1.5 1.8-.3.7-.5 1.6-.5 2.5 0 .9.1 1.6.3 2.3.2.6.6 1.2 1 1.7.5.5 1.2 1 2 1.5.9.5 1.9 1 3.2 1.4 1.8.7 3.2 1.3 4.2 1.9 1.5.8 1.8 2 1.8 2.8 0 1.5-.9 3.3-5.1 3.3-1.2 0-2.4-.2-3.7-.6-1-.3-2.1-.8-3.1-1.5l-1.2 2.4z"/>
      <g>
        <path d="M200.1 28.3c-.6 1.6-1.4 3-2.5 4.1-1.1 1.1-2.4 2-3.8 2.5-1.5.6-3.1.9-4.9.9-2.1 0-3.9-.4-5.6-1.2-1.7-.8-3.1-1.9-4.2-3.4S177 28 176.3 26c-.6-2-1-4.2-1-6.6 0-2.4.3-4.6 1-6.6.6-2 1.5-3.8 2.7-5.2 1.2-1.5 2.6-2.6 4.2-3.4 1.7-.8 3.5-1.2 5.6-1.2 2.6 0 4.8.5 6.6 1.5 1.8 1 3.2 2.5 4.3 4.4l-4.2 2.6c-.8-1.3-1.7-2.3-2.7-2.9-1-.6-2.3-.9-3.9-.9-2.8 0-4.9 1-6.4 3.1s-2.2 4.9-2.2 8.5c0 3.6.7 6.4 2.2 8.5 1.5 2.1 3.6 3.1 6.4 3.1 1.3 0 2.4-.2 3.3-.6.9-.4 1.7-.9 2.2-1.6.6-.7 1-1.4 1.3-2.3.3-.9.4-1.8.4-2.7v-.1h-5.2V19H201v3.7c0 2.1-.3 4-.9 5.6z"/>
        <path d="M188.9 36.4c-2.2 0-4.1-.4-5.9-1.3-1.7-.8-3.2-2-4.5-3.6-1.2-1.5-2.2-3.3-2.8-5.4-.7-2.1-1-4.4-1-6.9s.3-4.8 1-6.8c.7-2.1 1.6-3.9 2.8-5.4 1.2-1.5 2.7-2.7 4.5-3.6 1.7-.8 3.7-1.3 5.9-1.3 2.7 0 5 .5 6.9 1.6 1.9 1.1 3.4 2.7 4.5 4.7l.3.6-5.3 3.3-.4-.6c-.8-1.2-1.6-2.1-2.5-2.6-.9-.5-2.1-.8-3.6-.8-2.6 0-4.5.9-5.8 2.8-1.4 2-2.1 4.7-2.1 8.1 0 3.4.7 6.2 2.1 8.1 1.3 1.9 3.3 2.8 5.8 2.8 1.2 0 2.2-.2 3.1-.5.8-.4 1.5-.8 2-1.4.5-.6.9-1.3 1.1-2 .2-.6.3-1.3.4-2h-5.2v-6h11.4v4.4c0 2.1-.3 4.1-.9 5.7-.6 1.7-1.5 3.1-2.7 4.3-1.1 1.2-2.5 2.1-4.1 2.7-1.5.8-3.2 1.1-5 1.1zm0-32.8c-1.9 0-3.7.4-5.3 1.1-1.6.8-2.9 1.8-4 3.2-1.1 1.4-2 3.1-2.6 5-.6 1.9-.9 4.1-.9 6.4 0 2.3.3 4.5.9 6.4.6 1.9 1.5 3.6 2.6 5s2.4 2.4 4 3.2c1.6.8 3.3 1.1 5.3 1.1 1.7 0 3.2-.3 4.6-.8 1.4-.5 2.6-1.3 3.6-2.4 1-1.1 1.8-2.3 2.4-3.8.6-1.5.8-3.3.8-5.2v-3h-8.7V23h5.2v.7c0 1.1-.1 2.1-.4 3.1-.3.9-.8 1.8-1.4 2.5-.6.7-1.5 1.3-2.5 1.7-1 .4-2.2.6-3.6.6-3 0-5.4-1.2-7-3.4-1.5-2.2-2.3-5.2-2.3-8.9s.8-6.7 2.3-8.9c1.6-2.3 3.9-3.4 7-3.4 1.8 0 3.2.3 4.3 1 .9.6 1.8 1.4 2.6 2.5l3-1.9c-1-1.6-2.2-2.8-3.7-3.6-1.7-1-3.8-1.4-6.2-1.4z"/>
      </g>
      <g>
        <path d="M212.7 5.2c0 .8-.3 1.5-.9 2.1-.6.6-1.3.9-2.1.9-.9 0-1.6-.3-2.2-.9-.6-.6-.9-1.3-.9-2.1s.3-1.6.9-2.2c.6-.6 1.3-.9 2.2-.9.8 0 1.5.3 2.1.9.6.7.9 1.4.9 2.2zm-5.4 30.1v-24h4.7v23.9h-4.7v.1z"/>
        <path d="M212.7 35.9h-6.1V10.7h6.1v25.2zm-4.7-1.3h3.4V12H208v22.6zm1.7-25.7c-1 0-1.9-.4-2.6-1.1-.7-.7-1.1-1.6-1.1-2.6s.4-1.9 1.1-2.6c.7-.7 1.6-1.1 2.6-1.1s1.9.4 2.6 1.1c.7.7 1.1 1.6 1.1 2.6s-.4 1.9-1.1 2.6c-.7.8-1.6 1.1-2.6 1.1zm0-6c-.7 0-1.2.2-1.7.7-.5.5-.7 1-.7 1.7 0 .6.2 1.2.7 1.6.9.9 2.4.9 3.3 0 .5-.5.7-1 .7-1.6 0-.7-.2-1.2-.7-1.7-.5-.5-1-.7-1.6-.7z"/>
      </g>
      <g>
        <path d="M232.2 16.3c-.5-.3-1-.5-1.6-.6-.5-.2-1.2-.2-2-.2-1.5 0-2.6.5-3.5 1.5-.8 1-1.2 2.6-1.2 4.6v13.7h-4.7v-24h4.7v2.3c.5-.8 1.3-1.4 2.3-2 1-.6 2-.8 3.2-.8 1 0 1.8.1 2.4.3.6.2 1.2.4 1.7.8l-1.3 4.4z"/>
        <path d="M224.6 35.9h-6.1V10.7h6.1v1.2c.4-.3.8-.6 1.2-.8 1.1-.6 2.2-.9 3.5-.9 1 0 1.9.1 2.6.3.7.2 1.3.5 1.9.8l.4.3-1.6 5.8-.8-.4-1.5-.6c-.5-.1-1.1-.2-1.8-.2-1.3 0-2.2.4-2.9 1.3-.7.9-1.1 2.3-1.1 4.2v14.2h.1zm-4.8-1.3h3.4v-13c0-2.2.5-3.9 1.4-5 1-1.2 2.3-1.8 4-1.8.8 0 1.6.1 2.2.3.3.1.6.2 1 .3l.9-3.2c-.3-.2-.7-.3-1-.4-.6-.2-1.3-.2-2.2-.2-1.1 0-2 .2-2.9.7-.9.5-1.5 1.1-2 1.8l-1.3 1.8V12h-3.4v22.6h-.1z"/>
      </g>
      <g>
        <path d="M238.4 35.3V4.5l4.7-2.5v33.2h-4.7z"/>
        <path d="M243.8 35.9h-6.1V4.1l6.1-3.2v35zm-4.7-1.3h3.4V3.2l-3.4 1.7v29.7z"/>
      </g>
      <g>
        <path d="M266.9 28.7c0 1.3-.3 2.5-.8 3.3-.5.9-1.2 1.6-2 2.2-.8.5-1.8.9-2.8 1.2-1.1.2-2.2.4-3.4.4-1.6 0-3.3-.3-4.9-.9-1.6-.6-3-1.3-4.3-2.2l2.1-3.6c1.1.8 2.3 1.4 3.5 1.8 1.2.4 2.4.6 3.5.6 2.9 0 4.4-.9 4.4-2.6 0-.9-.5-1.6-1.5-2.2-1-.5-2.3-1.2-4.1-1.8-1.3-.5-2.4-1-3.3-1.5-.9-.5-1.6-1-2.2-1.6-.6-.6-1-1.2-1.2-1.9-.2-.7-.4-1.5-.4-2.5 0-1.1.2-2 .6-2.8.4-.8 1-1.5 1.7-2s1.6-1 2.6-1.2c1-.3 2.1-.4 3.3-.4 1.5 0 3 .2 4.4.7 1.4.5 2.6 1.1 3.7 1.9l-2 3.6c-1-.7-2-1.2-3-1.5-1-.3-2.1-.5-3.2-.5-1.2 0-2 .2-2.5.6-.5.4-.8.9-.8 1.6 0 .3.1.6.2.8.1.3.3.5.7.8.4.3.8.6 1.3.8.6.3 1.3.6 2.2 1 1.3.5 2.5 1 3.5 1.5s1.8 1 2.5 1.6c.7.6 1.2 1.3 1.5 2.1.6.6.7 1.6.7 2.7z"/>
        <path d="M258 36.4c-1.7 0-3.4-.3-5.1-.9-1.7-.6-3.2-1.4-4.4-2.3l-.5-.4 2.8-4.7.6.4c1.1.7 2.2 1.3 3.3 1.7 1.1.4 2.2.6 3.3.6 3.7 0 3.7-1.5 3.7-2 0-.4-.1-1-1.1-1.6-1-.5-2.3-1.1-4-1.8-1.3-.5-2.4-1-3.3-1.5-1-.5-1.7-1.1-2.3-1.7-.6-.6-1.1-1.4-1.4-2.2-.3-.8-.4-1.7-.4-2.7 0-1.2.2-2.2.7-3.1.4-.9 1.1-1.7 1.9-2.3.8-.6 1.7-1 2.8-1.3 2.4-.7 5.4-.6 8.1.3 1.5.5 2.8 1.2 3.9 2l.5.4-2.7 4.8-.6-.4c-.9-.7-1.8-1.1-2.8-1.5-.9-.3-1.9-.5-3-.5-1.2 0-1.8.3-2.1.5-.4.3-.5.6-.5 1 0 .2 0 .4.1.5.1.1.2.3.5.6.3.2.7.5 1.2.8.5.3 1.3.6 2.1 1 1.3.5 2.5 1 3.5 1.5 1.1.5 2 1.1 2.7 1.7.8.7 1.3 1.4 1.7 2.3.4.9.6 1.9.6 3.1 0 1.4-.3 2.7-.8 3.7-.6 1-1.3 1.8-2.2 2.4-.9.6-1.9 1-3.1 1.3-1.3.2-2.5.3-3.7.3zm-8.3-3.9c1 .7 2.2 1.3 3.6 1.7 2.7.9 5.5 1 7.9.5 1-.2 1.9-.6 2.6-1.1.7-.5 1.3-1.1 1.8-1.9.4-.8.7-1.8.7-3 0-1-.2-1.9-.4-2.6-.3-.7-.7-1.3-1.3-1.8-.6-.5-1.4-1-2.4-1.5s-2.1-1-3.5-1.5c-.9-.4-1.7-.7-2.3-1-.6-.3-1.1-.6-1.5-.9-.4-.3-.7-.7-.9-1-.2-.3-.2-.7-.2-1.1 0-.8.4-1.6 1-2.1s1.6-.8 2.9-.8c1.2 0 2.4.2 3.5.5.8.3 1.7.7 2.5 1.2l1.4-2.4c-.9-.6-1.9-1.1-3-1.5-2.4-.8-5.1-.9-7.3-.3-.9.2-1.7.6-2.4 1.1-.6.5-1.1 1.1-1.5 1.8-.3.7-.5 1.6-.5 2.5 0 .9.1 1.6.3 2.3.2.6.6 1.2 1.1 1.7.5.5 1.2 1 2 1.5.9.5 1.9 1 3.2 1.4 1.8.7 3.2 1.3 4.2 1.9 1.5.8 1.8 2 1.8 2.8 0 1.5-.9 3.3-5.1 3.3-1.2 0-2.4-.2-3.7-.6-1-.3-2.1-.8-3-1.5l-1.5 2.4z"/>
      </g>
    </g>
  </g>
</svg>
