<svg width="200" height="54" xmlns="http://www.w3.org/2000/svg">
  <g fill="#C8272C" fill-rule="nonzero">
    <path d="M49.616 10.24c-2.32-1.735-5.183-2.59-8.095-2.59-.543 0-1.086.024-1.604.097l4.171-1.563-.37-.954-6.195 2.322c-.395-2.2-2.172-4.79-3.924-6.086C32.266.49 30.589 0 28.935 0h-.198c-1.16.024-3.06.929-4.047 1.49-4.072 2.274-5.8 6.746-6.787 11.268 1.086-2.151 3.06-3.886 5.676-4.962-.864.856-1.21 1.687-1.752 3.031-.519 1.32-.864 2.81-.642 4.423.42-1.417.864-2.712 1.95-3.568 0 1.027.641 2.444.666 2.958.074-1.37.889-3.813 1.876-4.718 1.382-1.295 2.961-2.566 4.837-2.859.222-.024.444-.049.667-.049 1.332 0 2.714.611 3.405 1.662l-6.095 2.298-1.457 1.1 1.802-.147 4.393-1.638a16.08 16.08 0 0 0-1.728 1.418c-.839.806-1.456 1.637-1.875 2.468 0 0-1.58 2.493-1.012 7.137.024.415.099.733.099.733.098.415.246.88.246.88l.124-.025 16.856-3.275.271.244 1.259 1.125.222-1.662 1.58 1.662h5.947l.025-.025c0-2.712-1.086-5.278-2.74-7.674-.839-1.197-1.801-2.248-2.887-3.055z"/>
    <path d="M55.754 22.22h-6.347l-.249-.321-.324-.42-.174 1.605-1.195-1.086-1.22-1.111-16.577 3.234c.199.715.473 1.728.821 2.37h24.12c.573-1.21.971-2.889 1.145-4.271zm-18.718 3.21c-.872 0-1.544.715-1.544-.174 0-.864.722-1.58 1.593-1.58.872 0 1.593.716 1.593 1.58 0 .89-.771.173-1.642.173zm11.624 0c-.871 0-1.543.715-1.543-.174 0-.864.721-1.58 1.593-1.58.871 0 1.593.716 1.593 1.58 0 .89-.772.173-1.643.173zM.881 31.997c.151-.877.227-1.776.479-2.603.63-2.212 1.838-4.084 3.651-5.592 1.713-1.434 3.651-1.896 5.867-1.483 1.763.34 4.332 1.508 5.44 2.553-.126.243-.277.146-.454.049-1.057-.608-2.19-1.07-3.424-1.24-3.224-.438-5.918 1.678-6.12 4.838-.075 1.046.101 2.043.277 3.064-1.913.097-3.802.243-5.716.413zm.076-2.651c-.1-.024-.176-.024-.227-.049a35.616 35.616 0 0 1-.604-.17c.1-.291.176-.559.277-.85.302.072.554.145.83.218-.1.316-.2.584-.276.851z"/>
    <path d="M6.774 30.125c.806.146.856.194.906.997-.83-.122-.906-.17-.906-.997zm.05-2.577c.529.219.529.219.454 1.021-.63-.17-.655-.267-.453-1.021zM2.72 25.772c-.202-.145-.353-.242-.53-.388.177-.17.328-.34.53-.51.126.072.276.194.453.315a5.24 5.24 0 0 0-.453.584zm2.14-2.99c.176-.121.328-.22.504-.34.126.146.226.267.353.438-.177.12-.328.218-.504.34a5.37 5.37 0 0 0-.353-.438zm2.644 3.113c.151-.171.277-.292.403-.439.378.39.378.39 0 .9a41.723 41.723 0 0 0-.403-.461zm2.343-1.679c.05.122.1.22.176.39-.177.096-.353.194-.53.267-.327-.413-.301-.462.354-.657zm1.535-2.504c.63.049.68.073.68.511-.58.024-.705-.073-.68-.51zm.856 2.602c-.226 0-.428 0-.654-.024 0-.146 0-.268-.026-.414.227 0 .429.025.655.025 0 .145.025.267.025.413zm-4.356-2.748c.302.025.68-.243.755.292-.276 0-.654.292-.755-.292zM4.214 53.215c.148-.049.322-.098.47-.147.074-.025.074-.05.049-.123-.074-.196-.123-.392-.173-.588 0-.05-.024-.074-.05-.123.273-.074.52-.172.792-.245-.05-.196-.124-.368-.173-.54 3.436-1.055 6.873-2.134 10.31-3.189.048.172.098.344.172.54.272-.074.52-.171.792-.245.024.049.024.098.049.147.05.196.123.368.173.564.025.074.05.098.123.074.149-.05.322-.099.47-.148.05.197.124.368.173.564-.05.025-.098.025-.148.05-4.252 1.324-8.505 2.624-12.733 3.949-.049.024-.098.024-.123.049a7.54 7.54 0 0 1-.173-.589zm9.815-11.283c-3.782 1.177-7.565 2.355-11.373 3.507-.024-.097-.074-.196-.098-.293 0-.025.024-.074.05-.099.518-.417 1.012-.858 1.532-1.275.89-.76 1.805-1.497 2.695-2.257.197-.147.37-.319.568-.466.05-.05.124-.074.173-.05.618.05 1.212.124 1.83.173l3.189.294c.396.05.816.074 1.212.123.074 0 .098.024.123.098.05.073.074.147.1.245z"/>
    <path d="M9.307 44.336c.346-.123.717-.221 1.088-.343a475.03 475.03 0 0 0 1.903 5.445c-.47.147-.914.27-1.384.417-.47-1.595-1.138-3.9-1.607-5.519zm-2.448.76c.335-.091.664-.198.99-.319.073-.024.073.025.098.074.074.196.223.613.272.81.272.81.544 1.594.84 2.403.229.69.468 1.378.717 2.06 0 .025.026.074.026.099-.445.147-.916.27-1.36.417a469.233 469.233 0 0 1-1.583-5.544zm-2.497.785c.346-.098.693-.22 1.064-.319a475.104 475.104 0 0 0 1.903 5.446c-.445.147-.89.27-1.335.416-.494-1.618-1.162-3.924-1.632-5.543zm8.48-2.624c.569 1.594 1.335 3.85 1.904 5.445-.445.147-.89.27-1.335.417l-1.607-5.544c.343-.117.689-.223 1.038-.318z"/>
    <path d="M13.114 42.79l.148.515c-3.065.957-6.13 1.89-9.197 2.846l-.148-.515c3.062-.96 6.128-1.908 9.197-2.846zM72.147 13.674c1.214.305 2.452.61 3.666.889.151.05.252.102.303.279.351 1.01.714 2.018 1.087 3.02.076.179.026.28-.126.381-2.351 1.549-4.702 3.072-7.053 4.62-.151.102-.227.077-.328-.076-1.39-2.437-2.78-4.899-4.171-7.335-.076-.153-.076-.23.05-.356.834-.737 1.643-1.498 2.452-2.234.127-.127.253-.153.43-.102 1.214.33 2.452.61 3.69.914zm1.163 3.706c-1.34-.33-2.629-.634-3.968-.964.303 1.675.581 3.325.885 5.026a215.303 215.303 0 0 0 3.083-4.062zm-6.925-1.7c1.035 1.802 2.022 3.554 3.033 5.28 0-.229-.026-.406-.076-.61-.253-1.32-.506-2.64-.758-3.934-.026-.076-.077-.203-.127-.229-.657-.178-1.34-.33-2.073-.507zm9.756 2.386a65.82 65.82 0 0 1-1.82-.457c-.151-.05-.227 0-.328.127-.683.888-1.365 1.777-2.073 2.64-.246.326-.5.648-.758.965l.025.025c1.643-1.066 3.26-2.158 4.954-3.3zm-2.881-1.498a82.514 82.514 0 0 0-1.264-2.183c-.704.454-1.412.903-2.123 1.345 1.137.305 2.224.559 3.387.838zm-4.45-3.173c.127.685.228 1.345.355 2.005.733-.482 1.44-.913 2.174-1.396-.86-.203-1.668-.406-2.528-.609zm3.919.964c.43.737.834 1.447 1.238 2.158.405-.532.784-1.04 1.188-1.574-.808-.203-1.592-.38-2.426-.584zm1.896 2.539c.581.153 1.137.28 1.718.431-.227-.608-.43-1.193-.657-1.827-.354.483-.707.939-1.061 1.396zM68.128 13.7c-.48.431-.91.837-1.39 1.269.562.147 1.126.283 1.694.406-.127-.559-.202-1.091-.304-1.676zM53.414 27.51H17.903l2.796 24.452h44.024l2.796-24.453H53.414zM37.626 38.205h1.46v-1.468h2.92v1.468h1.46v-1.468h2.92v1.468H43.49v1.468h-1.46v-1.468H39.11v2.935h-1.46c-.024-.97-.024-1.94-.024-2.935zm1.46 2.96s0-.025 0 0c.495-.025.965-.025 1.46-.025v1.468h-1.46v-1.443zm1.46 1.468c0-.025 0-.025 0 0 .494-.025.965-.025 1.46-.025v1.468h-1.46v-1.443zm7.275-1.493h-1.46v1.468h-1.46v1.468h-1.46v1.467h-1.46v-1.467h1.46v-1.468h1.46v-1.468h1.46v-2.935h1.46v2.935zM80.719 38.69l-1.27.971-4.836-5.902 1.695-1.296z"/>
    <path d="M74.315 28.653l1.619 2.092-2.865 2.216-1.62-2.091a3.1 3.1 0 0 0 .523 2.764c1.046 1.345 2.641 1.17 4.012.125 1.371-1.047 1.919-2.566.897-3.91a3.191 3.191 0 0 0-2.566-1.196zM18.905 18.819s-1.723-1.157-2.888.097c-1.165 1.254 4.408 2.99 4.408 2.99s2.533-4.244 1.165-4.967c-1.368-.724-2.686 1.88-2.686 1.88zm55.77 33.143l-1.686-2.36-2.912.025 1.733-2.312-.939-2.717 2.744.93 2.335-1.717-.048 2.884 2.359 1.67-2.768.857-.819 2.74zm-1.252-3.217l.938 1.31.482-1.525 1.54-.477-1.324-.929.024-1.597-1.299.954-1.517-.525.506 1.502-.963 1.287h1.613z"/>
    <g>
      <path d="M107.212 6.572c0 1.324-.307 2.343-.972 3.158-.613.764-1.534 1.325-2.608 1.58l3.325 6.622h-2.814l-3.222-6.419h-3.683v6.42h-2.404v-16.2h7.16c.717 0 1.382.101 1.996.305.614.204 1.176.51 1.688.866.46.407.87.917 1.125 1.528.256.56.41 1.325.41 2.14zm-2.455.05c0-.865-.256-1.477-.767-1.935-.512-.459-1.177-.662-1.995-.662h-4.757V9.22h4.757c.818 0 1.483-.204 1.995-.663.511-.407.767-1.018.767-1.935z"/>
      <path d="M107.52 18.289h-3.581l-3.223-6.42h-3.12v6.42h-3.12V1.375h7.519c.767 0 1.483.102 2.097.306.665.204 1.279.51 1.79.968.512.408.921.968 1.228 1.63.307.663.46 1.427.46 2.293 0 1.375-.358 2.547-1.023 3.362-.613.764-1.432 1.274-2.404 1.58l3.376 6.775zm-3.172-.663h2.046l-3.274-6.52.41-.102c1.022-.255 1.84-.764 2.455-1.478.562-.713.87-1.732.87-2.954 0-.764-.154-1.478-.41-2.038a4.044 4.044 0 0 0-1.023-1.376c-.46-.356-.972-.662-1.535-.815-.613-.203-1.227-.254-1.892-.254h-6.803v15.537h1.739v-6.418h4.245l3.172 6.418zm-2.353-8.049H96.93v-5.91h5.064c.92 0 1.688.256 2.25.765.563.51.87 1.274.87 2.19 0 .969-.307 1.733-.87 2.242-.613.459-1.38.713-2.25.713zm-4.4-.713h4.4c.767 0 1.33-.204 1.79-.56.41-.357.665-.917.665-1.681 0-.765-.204-1.325-.614-1.681-.46-.408-1.023-.56-1.79-.56h-4.399v4.482h-.051zm19.387 9.119V16.76a5.11 5.11 0 0 1-1.483 1.02 4.428 4.428 0 0 1-1.842.407c-.511 0-1.023-.051-1.483-.204a4.441 4.441 0 0 1-1.381-.713c-.41-.306-.716-.764-.972-1.274s-.41-1.171-.41-1.885c0-.662.103-1.273.359-1.783s.614-.917 1.023-1.222c.409-.306.972-.56 1.534-.714a7.795 7.795 0 0 1 1.944-.254c1.125 0 2.046.153 2.711.458V9.68c0-.662-.205-1.171-.614-1.528-.409-.357-.972-.51-1.688-.51-.614 0-1.227.051-1.688.204a5.235 5.235 0 0 0-1.483.56l-.92-1.833a8.843 8.843 0 0 1 1.892-.815c.665-.204 1.432-.255 2.302-.255 1.38 0 2.455.356 3.324 1.019.87.662 1.28 1.68 1.28 3.056v8.355h-2.405v.051zm0-5.196a5.24 5.24 0 0 0-1.176-.408c-.46-.102-.972-.153-1.637-.153-.767 0-1.381.153-1.842.51-.46.306-.665.764-.665 1.324 0 .612.205 1.07.563 1.478.41.356.972.56 1.79.56.665 0 1.228-.153 1.74-.51.511-.305.92-.662 1.176-1.07v-1.731h.051z"/>
      <path d="M113.657 18.543a5.725 5.725 0 0 1-1.585-.254c-.563-.153-1.023-.408-1.484-.764a3.594 3.594 0 0 1-1.074-1.376c-.256-.56-.41-1.274-.41-2.038 0-.713.154-1.375.41-1.936.256-.56.665-1.018 1.125-1.375.46-.357 1.023-.611 1.637-.764a8.318 8.318 0 0 1 2.046-.255c.921 0 1.74.102 2.353.306v-.408c0-.56-.153-.968-.46-1.273-.307-.306-.819-.459-1.484-.459-.613 0-1.176.051-1.636.153-.46.102-.921.306-1.381.56l-.307.153-1.228-2.394.256-.153a8.746 8.746 0 0 1 1.995-.866c.716-.204 1.483-.306 2.404-.306 1.432 0 2.608.357 3.53 1.07.92.764 1.38 1.885 1.38 3.362v8.712h-3.069v-.815c-.307.203-.614.407-.972.611-.665.357-1.33.51-2.046.51zm.614-8.049c-.665 0-1.279.051-1.841.204-.563.153-1.023.357-1.433.662-.409.306-.716.663-.92 1.121a3.84 3.84 0 0 0-.358 1.63c0 .663.102 1.274.358 1.732.255.459.511.866.87 1.172.357.306.767.51 1.227.662 1.074.306 2.2.255 3.12-.152a5.555 5.555 0 0 0 1.381-.968l.614-.612v1.681h1.637V9.628c0-1.273-.358-2.19-1.125-2.802-.768-.61-1.842-.917-3.12-.917-.82 0-1.586.102-2.2.255a9.624 9.624 0 0 0-1.535.611l.614 1.223c.41-.204.819-.356 1.228-.458.511-.153 1.125-.204 1.79-.204.818 0 1.483.204 1.944.611.46.408.716 1.019.716 1.783v1.427l-.512-.204c-.511-.306-1.38-.459-2.455-.459zm-.256 5.91c-.87 0-1.534-.204-1.995-.662-.46-.459-.665-1.02-.665-1.733 0-.662.256-1.222.819-1.63.511-.356 1.176-.56 2.046-.56.665 0 1.228.05 1.74.153.46.102.869.254 1.227.407l.204.102v2.089l-.05.102a4.786 4.786 0 0 1-1.28 1.171c-.665.357-1.33.56-2.046.56zm.205-3.821c-.716 0-1.228.153-1.637.408-.358.254-.511.61-.511 1.018 0 .51.153.917.46 1.223.307.306.818.459 1.534.459.614 0 1.126-.153 1.586-.459.46-.255.767-.56 1.023-.866V12.94a4.334 4.334 0 0 0-.87-.255c-.46-.051-.971-.102-1.585-.102zm11.458-9.934c0 .408-.154.764-.46 1.07a1.475 1.475 0 0 1-1.075.458 1.59 1.59 0 0 1-1.125-.458 1.463 1.463 0 0 1-.46-1.07c0-.407.153-.815.46-1.12a1.507 1.507 0 0 1 1.125-.46c.41 0 .767.154 1.074.46.307.305.46.713.46 1.12zm-2.762 15.334V5.757h2.404v12.175h-2.404v.051z"/>
      <path d="M125.678 18.289h-3.12V5.45h3.12v12.838zm-2.404-.663h1.739V6.113h-1.74v11.513zm.87-13.092c-.512 0-.973-.204-1.33-.56a1.846 1.846 0 0 1-.563-1.325c0-.51.204-.968.562-1.324a1.861 1.861 0 0 1 2.66 0c.358.356.563.815.563 1.324 0 .51-.205.968-.563 1.325-.41.407-.818.56-1.33.56zm0-3.057c-.359 0-.615.102-.87.357-.256.255-.358.51-.358.866 0 .306.102.611.358.815.46.459 1.227.459 1.688 0 .255-.255.358-.51.358-.815 0-.357-.103-.611-.358-.866-.256-.255-.512-.357-.819-.357zm4.96 16.506V2.293l2.405-1.274v16.913h-2.404v.051z"/>
      <path d="M131.867 18.289h-3.12v-16.2l3.12-1.63v17.83zm-2.455-.663h1.739V1.63l-1.74.866v15.13zm14.27-3.005c0 .662-.153 1.273-.408 1.68-.256.46-.614.816-1.023 1.122-.41.254-.921.458-1.433.611-.562.102-1.125.204-1.739.204a7.252 7.252 0 0 1-2.506-.459 9.903 9.903 0 0 1-2.2-1.12l1.075-1.834a6.625 6.625 0 0 0 1.79.917 5.748 5.748 0 0 0 1.79.305c1.484 0 2.25-.458 2.25-1.324 0-.459-.255-.815-.766-1.121-.512-.255-1.177-.611-2.098-.917a13.501 13.501 0 0 1-1.688-.764c-.46-.255-.818-.51-1.125-.815-.307-.306-.511-.612-.614-.968-.102-.357-.204-.764-.204-1.274 0-.56.102-1.019.307-1.426a2.81 2.81 0 0 1 .87-1.02c.357-.254.817-.509 1.329-.61.512-.153 1.074-.204 1.688-.204.767 0 1.535.102 2.25.356.717.255 1.33.56 1.893.968l-1.023 1.834a5.396 5.396 0 0 0-1.534-.764 5.786 5.786 0 0 0-1.637-.255c-.614 0-1.023.102-1.279.306-.256.204-.41.459-.41.815 0 .153.052.306.103.408.051.153.154.254.358.407.154.153.41.306.665.408.307.153.665.305 1.125.51.665.254 1.28.509 1.79.763.512.255.921.51 1.28.815.358.306.613.663.767 1.07.256.306.358.815.358 1.376z"/>
      <path d="M139.08 18.543c-.87 0-1.74-.152-2.61-.458a8.49 8.49 0 0 1-2.25-1.172l-.256-.204 1.432-2.394.307.204c.563.356 1.126.662 1.688.866a4.928 4.928 0 0 0 1.688.306c1.893 0 1.893-.714 1.893-1.02 0-.203-.051-.509-.563-.814a30.879 30.879 0 0 0-2.046-.917 13.501 13.501 0 0 1-1.688-.765c-.46-.254-.87-.56-1.176-.866a3.236 3.236 0 0 1-.716-1.12c-.154-.408-.205-.866-.205-1.376 0-.611.102-1.12.358-1.579.205-.459.563-.866.972-1.172.41-.305.87-.51 1.432-.662 1.228-.357 2.762-.306 4.143.153a7.331 7.331 0 0 1 1.995 1.019l.256.203-1.381 2.446-.307-.204c-.46-.357-.92-.56-1.432-.764a4.84 4.84 0 0 0-1.535-.255c-.614 0-.92.153-1.074.255a.563.563 0 0 0-.256.51c0 .101 0 .203.052.254.05.05.102.153.255.306.154.102.358.254.614.407.256.153.665.306 1.125.51.665.254 1.28.51 1.79.764.563.254 1.024.56 1.382.866.409.356.665.713.87 1.172.204.458.306.967.306 1.579 0 .713-.153 1.375-.409 1.885-.307.51-.665.917-1.125 1.222-.46.306-.972.51-1.586.663-.665.101-1.279.152-1.944.152zm-4.195-1.986a6.155 6.155 0 0 0 1.841.866 7.904 7.904 0 0 0 4.041.254 3.495 3.495 0 0 0 1.33-.56c.358-.255.665-.56.92-.968.206-.407.359-.917.359-1.528 0-.51-.102-.968-.205-1.325a2.358 2.358 0 0 0-.665-.917c-.307-.254-.716-.51-1.227-.764-.512-.255-1.074-.458-1.79-.764-.512-.204-.87-.357-1.177-.51a5.057 5.057 0 0 1-.767-.458 2.073 2.073 0 0 1-.46-.51c-.103-.152-.103-.356-.103-.56 0-.407.205-.815.512-1.07.307-.254.818-.407 1.483-.407.614 0 1.228.102 1.74.255.408.152.869.356 1.278.61l.716-1.222a7.183 7.183 0 0 0-1.535-.764c-1.227-.407-2.608-.458-3.734-.153-.46.102-.87.306-1.227.56a3.34 3.34 0 0 0-.767.918 3.326 3.326 0 0 0-.256 1.273c0 .459.051.815.153 1.172.103.306.307.611.512.866.256.255.614.51 1.023.764.46.255.972.51 1.637.713.92.357 1.636.663 2.148.968.767.408.92 1.02.92 1.427 0 .764-.46 1.68-2.608 1.68a6.377 6.377 0 0 1-1.893-.305 5.653 5.653 0 0 1-1.585-.764l-.614 1.223zM165.269 14.417c-.307.815-.717 1.528-1.28 2.089-.562.56-1.227 1.019-1.943 1.273-.767.306-1.586.459-2.506.459-1.075 0-1.995-.204-2.865-.612-.87-.407-1.585-.968-2.148-1.732-.563-.764-1.074-1.63-1.432-2.649a11.59 11.59 0 0 1-.512-3.362c0-1.223.154-2.343.512-3.362.307-1.02.767-1.936 1.38-2.65a6.326 6.326 0 0 1 2.149-1.731c.87-.408 1.79-.612 2.864-.612 1.33 0 2.456.255 3.376.764.921.51 1.637 1.274 2.2 2.242l-2.148 1.324c-.41-.662-.87-1.171-1.381-1.477-.512-.306-1.177-.458-1.995-.458-1.433 0-2.507.51-3.274 1.579-.767 1.07-1.125 2.496-1.125 4.33s.358 3.26 1.125 4.33c.767 1.07 1.841 1.58 3.274 1.58.665 0 1.227-.102 1.688-.306.46-.204.87-.459 1.125-.815.307-.357.511-.713.665-1.172.153-.458.205-.917.205-1.375v-.051h-2.66V9.679h5.166v1.885c0 1.07-.154 2.038-.46 2.853z"/>
      <path d="M159.54 18.543c-1.126 0-2.098-.203-3.018-.662-.87-.407-1.637-1.019-2.302-1.834a7.827 7.827 0 0 1-1.432-2.75c-.358-1.07-.512-2.242-.512-3.516 0-1.273.154-2.445.512-3.464.358-1.07.818-1.987 1.432-2.751a6.79 6.79 0 0 1 2.302-1.834 7.1 7.1 0 0 1 3.018-.662c1.38 0 2.557.255 3.53.815.97.56 1.738 1.375 2.3 2.394l.154.306-2.71 1.681-.205-.306c-.41-.61-.819-1.07-1.28-1.324-.46-.255-1.073-.408-1.84-.408-1.33 0-2.302.459-2.967 1.427-.716 1.019-1.074 2.394-1.074 4.126 0 1.732.358 3.159 1.074 4.127.665.967 1.688 1.426 2.966 1.426.614 0 1.126-.102 1.586-.255.41-.204.767-.407 1.023-.713a2.87 2.87 0 0 0 .563-1.019c.102-.305.153-.662.204-1.019h-2.66V9.272h5.832v2.241c0 1.07-.154 2.089-.46 2.904a5.725 5.725 0 0 1-1.382 2.19c-.562.612-1.278 1.07-2.097 1.376-.767.408-1.637.56-2.557.56zm0-16.709c-.972 0-1.893.204-2.711.56-.819.408-1.484.917-2.046 1.63a8.045 8.045 0 0 0-1.33 2.548c-.307.968-.46 2.088-.46 3.26 0 1.172.153 2.293.46 3.26a8.045 8.045 0 0 0 1.33 2.548c.562.713 1.227 1.222 2.046 1.63.818.407 1.688.56 2.71.56.87 0 1.637-.153 2.354-.407a4.497 4.497 0 0 0 1.841-1.223c.512-.56.92-1.172 1.228-1.936.307-.764.409-1.681.409-2.649v-1.528h-4.45v1.63h2.66v.357c0 .56-.052 1.07-.205 1.579-.153.458-.41.917-.716 1.273-.307.357-.767.663-1.279.866-.511.204-1.125.306-1.841.306-1.535 0-2.763-.611-3.58-1.732-.768-1.12-1.177-2.649-1.177-4.534 0-1.885.409-3.413 1.176-4.534.818-1.172 1.995-1.732 3.58-1.732.921 0 1.637.153 2.2.51.46.305.92.713 1.33 1.273l1.535-.968c-.512-.815-1.126-1.426-1.893-1.834-.87-.51-1.944-.713-3.171-.713zM171.714 2.65c0 .407-.154.763-.46 1.069a1.475 1.475 0 0 1-1.075.458c-.46 0-.818-.152-1.125-.458a1.463 1.463 0 0 1-.46-1.07c0-.407.153-.815.46-1.12a1.507 1.507 0 0 1 1.125-.46c.41 0 .767.154 1.074.46.307.356.46.713.46 1.12zm-2.763 15.333V5.757h2.404v12.175h-2.404v.051z"/>
      <path d="M171.714 18.289h-3.12V5.45h3.12v12.838zm-2.405-.663h1.74V6.113h-1.74v11.513zm.87-13.092c-.511 0-.972-.204-1.33-.56a1.846 1.846 0 0 1-.563-1.325c0-.51.205-.968.563-1.324a1.861 1.861 0 0 1 2.66 0c.358.356.563.815.563 1.324 0 .51-.205.968-.563 1.325-.358.407-.818.56-1.33.56zm0-3.057c-.358 0-.614.102-.87.357-.255.255-.358.51-.358.866 0 .306.103.611.358.815.46.459 1.228.459 1.688 0 .256-.255.358-.51.358-.815 0-.357-.102-.611-.358-.866-.255-.255-.511-.357-.818-.357zM181.688 8.304a2.266 2.266 0 0 0-.818-.306c-.256-.102-.614-.102-1.023-.102-.768 0-1.33.255-1.79.764-.41.51-.615 1.325-.615 2.344v6.979h-2.404V5.757h2.404v1.171c.256-.407.665-.713 1.177-1.019.511-.305 1.023-.407 1.637-.407.511 0 .92.05 1.227.153.307.102.614.203.87.407l-.665 2.242z"/>
      <path d="M177.8 18.289h-3.12V5.45h3.12v.611c.205-.153.41-.305.614-.407a3.601 3.601 0 0 1 1.79-.459c.512 0 .972.051 1.33.153.359.102.665.255.972.408l.205.152-.818 2.955-.41-.204-.767-.305a4.606 4.606 0 0 0-.92-.102c-.666 0-1.126.204-1.484.662-.358.459-.563 1.172-.563 2.14v7.234h.052zm-2.455-.663h1.74v-6.622c0-1.121.255-1.987.716-2.547.511-.612 1.176-.917 2.046-.917.409 0 .818.05 1.125.152.153.051.307.102.511.153l.46-1.63c-.153-.102-.357-.153-.51-.204-.308-.102-.666-.102-1.126-.102-.563 0-1.023.102-1.483.357-.46.255-.768.56-1.023.917l-.665.917V6.113h-1.74v11.513h-.05z"/>
      <g>
        <path d="M184.86 17.983V2.293l2.403-1.274v16.913h-2.404z"/>
        <path d="M187.621 18.289h-3.12v-16.2l3.12-1.63v17.83zm-2.404-.663h1.74V1.63l-1.74.866v15.13z"/>
      </g>
      <g>
        <path d="M199.437 14.62c0 .663-.153 1.274-.409 1.682-.256.458-.614.815-1.023 1.12-.41.255-.92.46-1.432.612-.563.102-1.125.204-1.74.204a7.252 7.252 0 0 1-2.506-.459 9.903 9.903 0 0 1-2.2-1.12l1.075-1.834a6.625 6.625 0 0 0 1.79.917 5.748 5.748 0 0 0 1.79.305c1.484 0 2.251-.458 2.251-1.324 0-.459-.256-.815-.767-1.121-.512-.255-1.176-.611-2.097-.917a13.501 13.501 0 0 1-1.688-.764c-.46-.255-.819-.51-1.126-.815-.306-.306-.511-.612-.613-.968-.103-.357-.205-.764-.205-1.274 0-.56.102-1.019.307-1.426a2.81 2.81 0 0 1 .87-1.02c.358-.254.818-.509 1.33-.61.511-.153 1.074-.204 1.687-.204.768 0 1.535.102 2.251.356.716.255 1.33.56 1.893.968l-1.023 1.834a5.396 5.396 0 0 0-1.535-.764 5.786 5.786 0 0 0-1.637-.255c-.614 0-1.023.102-1.278.306-.256.204-.41.459-.41.815 0 .153.051.306.103.408.05.153.153.254.358.407.204.153.409.306.665.408.307.153.665.305 1.125.51.665.254 1.279.509 1.79.763.512.255.921.51 1.279.815.358.306.614.663.767 1.07.307.306.358.815.358 1.376z"/>
        <path d="M194.885 18.543c-.87 0-1.74-.152-2.609-.458a8.49 8.49 0 0 1-2.25-1.172l-.256-.204 1.432-2.394.307.204c.563.356 1.125.662 1.688.866a4.928 4.928 0 0 0 1.688.306c1.892 0 1.892-.765 1.892-1.02 0-.203-.05-.509-.562-.814a30.879 30.879 0 0 0-2.046-.917 13.501 13.501 0 0 1-1.688-.765 4.392 4.392 0 0 1-1.177-.866 3.236 3.236 0 0 1-.716-1.12c-.153-.408-.204-.866-.204-1.376 0-.611.102-1.12.358-1.579.204-.459.562-.866.972-1.172.409-.305.87-.51 1.432-.662 1.227-.357 2.762-.306 4.143.153a7.331 7.331 0 0 1 1.995 1.019l.256.203-1.381 2.446-.307-.204c-.46-.357-.921-.56-1.433-.764a4.84 4.84 0 0 0-1.534-.255c-.614 0-.92.153-1.074.255a.563.563 0 0 0-.256.51c0 .101 0 .203.051.254.051.05.102.153.256.306.153.102.358.254.614.407.255.153.665.306 1.074.51.665.254 1.279.51 1.79.764.563.254 1.023.56 1.381.866.41.356.665.713.87 1.172.204.458.307.967.307 1.579 0 .713-.154 1.375-.41 1.885-.306.51-.664.917-1.125 1.222-.46.306-.972.51-1.586.663-.664.101-1.278.152-1.892.152zm-4.246-1.986a6.155 6.155 0 0 0 1.842.866 7.904 7.904 0 0 0 4.04.254 3.495 3.495 0 0 0 1.33-.56c.359-.255.666-.56.921-.968.205-.407.358-.917.358-1.528 0-.51-.102-.968-.204-1.325a2.358 2.358 0 0 0-.665-.917c-.307-.254-.716-.51-1.228-.764a15.657 15.657 0 0 0-1.79-.764c-.46-.204-.87-.357-1.177-.51a5.057 5.057 0 0 1-.767-.458 2.073 2.073 0 0 1-.46-.51c-.102-.152-.102-.356-.102-.56 0-.407.204-.815.511-1.07.307-.254.818-.407 1.483-.407.614 0 1.228.102 1.79.255.41.152.87.356 1.28.61l.716-1.222a7.183 7.183 0 0 0-1.535-.764c-1.228-.407-2.609-.458-3.734-.153-.46.102-.87.306-1.228.56a3.34 3.34 0 0 0-.767.918 3.326 3.326 0 0 0-.256 1.273c0 .459.052.815.154 1.172a2.3 2.3 0 0 0 .563.866c.255.255.613.51 1.023.764.46.255.971.51 1.636.713.921.357 1.637.663 2.149.968.767.408.92 1.02.92 1.427 0 .764-.46 1.68-2.608 1.68a6.377 6.377 0 0 1-1.893-.305c-.511-.153-1.074-.407-1.534-.764l-.768 1.223z"/>
      </g>
    </g>
    <g>
      <path d="M106.803 50.943l-1.432-3.973h-6.7l-1.382 3.973H94.68l6.036-16.658h2.66l6.087 16.658h-2.66zm-3.53-10.035a26.69 26.69 0 0 0-.357-1.02c-.103-.356-.256-.713-.358-1.12-.103-.357-.256-.713-.359-1.019-.102-.306-.204-.56-.204-.713-.051.153-.102.407-.205.713-.102.306-.204.662-.307 1.019-.102.357-.204.713-.358 1.12-.102.357-.255.714-.358 1.02l-1.33 3.82h5.167l-1.33-3.82z"/>
      <path d="M109.974 51.3h-3.427l-1.432-3.974h-6.19l-1.38 3.974h-3.376l6.291-17.372h3.172l6.342 17.372zm-2.915-.713h1.944L103.17 34.59h-2.148l-5.78 15.996h1.841l1.381-3.974h7.213l1.38 3.974zm-1.944-5.502h-6.138l1.483-4.28c.103-.305.205-.662.358-1.018l.665-2.089c.103-.306.154-.56.205-.713l.358-1.223.358 1.223c.051.153.102.407.205.713.102.306.204.662.358 1.019.102.357.256.713.358 1.07.153.356.256.713.358 1.019l1.432 4.279zm-5.166-.713h4.194l-1.176-3.363a22.295 22.295 0 0 1-.307-.967 7.193 7.193 0 0 1-.358-1.121l-.205-.663-.562 1.733c-.103.407-.256.713-.359 1.018l-1.227 3.363zm16.982-7.642v14.213h-2.506V36.73h-4.86v-2.445h12.225v2.445h-4.86z"/>
      <path d="M117.289 51.3h-3.223V37.087h-4.859v-3.159h12.941v3.159h-4.859V51.3zm-2.506-.713h1.79V36.374h4.86v-1.732h-11.56v1.732h4.858v14.213h.052zm20.562.356v-7.488h-7.724v7.488h-2.506V34.285h2.506v6.724h7.724v-6.724h2.507v16.658h-2.507z"/>
      <path d="M138.21 51.3h-3.172v-7.489h-7.058V51.3h-3.172V33.928h3.172v6.725h7.058v-6.725h3.172V51.3zm-2.507-.713h1.79V34.59h-1.79v6.724h-8.44v-6.724h-1.79v15.996h1.79v-7.489h8.44v7.489zM142.2 50.943V34.285h10.741v2.445h-8.286v4.076h4.808v2.445h-4.808v5.247h8.644v2.445h-11.1z"/>
      <path d="M153.657 51.3h-11.816V33.928H153.3v3.159h-8.286v3.362h4.808v3.159h-4.808v4.534h8.644V51.3zm-11.1-.713h10.435v-1.732h-8.644v-5.96h4.808v-1.733h-4.808v-4.788h8.286v-1.732h-10.076v15.945zM167.263 50.943l-6.65-10.443c-.204-.306-.408-.662-.664-1.07-.256-.407-.41-.713-.563-.968v12.481h-2.455V34.285h2.557l6.343 10.189c.103.152.256.356.358.61.154.205.256.46.41.663.102.255.255.459.358.611.102.204.204.357.255.459V34.234h2.456v16.71h-2.405z"/>
      <path d="M169.974 51.3h-2.915l-6.752-10.596c-.205-.255-.358-.612-.614-.968V51.3h-3.12V33.928h3.12l6.445 10.342c.102.153.256.356.358.611.102.204.256.408.358.611V33.928h3.12V51.3zm-2.557-.713h1.841V34.59h-1.739v13.5l-.92-1.58c-.103-.203-.256-.407-.359-.662a4.648 4.648 0 0 0-.409-.662c-.153-.204-.256-.408-.358-.612l-6.24-9.984h-1.995v15.996h1.739V37.138l.665 1.12c.102.204.307.56.563.968.255.408.46.765.665 1.07l6.547 10.29z"/>
      <g>
        <path d="M185.217 46.155c0 .764-.102 1.426-.358 2.037-.255.612-.613 1.172-1.125 1.58a4.419 4.419 0 0 1-1.944 1.019c-.767.254-1.688.356-2.762.356a8.173 8.173 0 0 1-3.376-.713 7.121 7.121 0 0 1-2.609-1.987l1.79-1.732c.563.611 1.228 1.07 1.996 1.427.767.356 1.534.56 2.353.56 2.301 0 3.478-.815 3.478-2.445 0-.306-.051-.612-.205-.866a2.178 2.178 0 0 0-.665-.714c-.307-.203-.716-.407-1.176-.611-.46-.204-1.074-.408-1.79-.611-.87-.255-1.688-.51-2.302-.764a6.231 6.231 0 0 1-1.637-.917c-.41-.357-.767-.765-.972-1.274-.205-.51-.307-1.12-.307-1.885 0-.713.154-1.375.41-1.936.306-.56.664-1.07 1.176-1.477a5.163 5.163 0 0 1 1.739-.917 7.298 7.298 0 0 1 2.148-.306c1.126 0 2.149.204 3.018.612.87.407 1.688.967 2.455 1.68l-1.79 1.784c-.511-.56-1.074-.917-1.739-1.223-.614-.255-1.33-.407-2.2-.407-.971 0-1.687.203-2.148.61-.46.408-.665.918-.665 1.478 0 .306.051.56.154.764.102.255.307.459.562.663.256.203.665.407 1.126.56.46.204 1.074.408 1.79.611.818.255 1.586.51 2.25.764a6.657 6.657 0 0 1 1.689.968c.46.357.818.815 1.074 1.376.409.56.562 1.172.562 1.936z"/>
        <path d="M179.028 51.555c-1.279 0-2.455-.255-3.53-.764a8.254 8.254 0 0 1-2.71-2.038l-.205-.255 2.302-2.241.256.254c.511.56 1.176 1.02 1.892 1.376.716.356 1.484.51 2.2.51 2.813 0 3.12-1.172 3.12-2.09 0-.254-.051-.509-.154-.713a1.322 1.322 0 0 0-.511-.56c-.256-.204-.665-.408-1.074-.56-.46-.204-1.023-.357-1.74-.56-.92-.256-1.687-.51-2.352-.816-.665-.306-1.279-.611-1.74-1.019a4.21 4.21 0 0 1-1.074-1.426c-.255-.56-.358-1.223-.358-2.038 0-.764.154-1.477.46-2.089.308-.61.717-1.171 1.28-1.579a5.532 5.532 0 0 1 1.892-.968c.716-.204 1.483-.356 2.25-.356 1.177 0 2.251.203 3.172.611.92.408 1.74 1.019 2.558 1.732l.255.255-2.25 2.292-.256-.255c-.512-.509-1.023-.866-1.586-1.12-.562-.255-1.278-.357-2.046-.357-.87 0-1.534.153-1.892.51-.358.356-.563.764-.563 1.222 0 .255.051.459.153.612.103.152.256.356.46.509.257.204.615.357 1.024.56.46.204 1.074.408 1.739.56.818.255 1.586.51 2.25.816.717.305 1.28.611 1.79 1.019.512.407.87.917 1.177 1.477.256.56.41 1.274.41 2.038 0 .764-.154 1.528-.41 2.19a4.15 4.15 0 0 1-1.227 1.732 6.062 6.062 0 0 1-2.046 1.121 10.33 10.33 0 0 1-2.916.408zm-5.473-3.057a7.29 7.29 0 0 0 2.25 1.63 7.47 7.47 0 0 0 3.223.714c1.023 0 1.944-.102 2.66-.357.716-.255 1.33-.56 1.79-.968.46-.408.819-.917 1.023-1.477.205-.56.358-1.223.358-1.936 0-.713-.102-1.274-.358-1.732-.204-.459-.562-.866-.972-1.223-.409-.357-.971-.662-1.585-.917a35.817 35.817 0 0 0-2.2-.764 19.368 19.368 0 0 1-1.841-.611c-.512-.204-.92-.408-1.177-.612-.307-.254-.562-.51-.665-.764-.153-.255-.204-.611-.204-.917 0-.662.256-1.222.767-1.732.512-.458 1.33-.713 2.404-.713.87 0 1.637.153 2.302.407.563.255 1.074.56 1.586 1.02l1.278-1.274c-.665-.56-1.33-1.02-2.097-1.376-.818-.356-1.79-.56-2.915-.56-.717 0-1.433.102-2.046.306a5.561 5.561 0 0 0-1.637.866c-.46.356-.819.815-1.074 1.324-.256.51-.41 1.12-.41 1.783 0 .713.103 1.274.307 1.732.205.459.46.866.87 1.172.409.356.92.611 1.534.866s1.381.51 2.302.764c.716.204 1.33.408 1.79.611.512.204.921.408 1.228.663.358.254.614.51.767.815.154.305.205.662.205 1.019 0 1.273-.665 2.801-3.836 2.801-.87 0-1.688-.203-2.507-.56-.716-.306-1.33-.764-1.841-1.273l-1.279 1.273z"/>
      </g>
    </g>
  </g>
</svg>
