<svg width="666.66669" height="373.64801" xmlns="http://www.w3.org/2000/svg">
 <metadata id="metadata8">image/svg+xml</metadata>

 <g>
  <title>background</title>
  <rect fill="none" id="canvas_background" height="402" width="582" y="-1" x="-1"/>
 </g>
 <g>
  <title>Layer 1</title>
  <g id="g10" transform="matrix(1.7786527779272139,0,0,-1.7786527779272139,-113.88372196870738,433.28117277083163) ">
   <path fill="#000000" fill-rule="nonzero" d="m253.577,169.857l-68.97,0l0,30.091l68.97,0l0,-30.091z" id="path12"/>
   <path fill="#000000" fill-rule="nonzero" d="m173.334,169.857l-17.959,0l0,30.091l17.959,0l0,-30.091z" id="path14"/>
   <path fill="#000000" fill-rule="nonzero" d="m141.429,169.857l-12.036,0l0,30.091l12.036,0l0,-30.091z" id="path16"/>
   <path fill="#000000" fill-rule="nonzero" d="m111.698,169.857l-41.65,0l0,30.091l41.65,0l0,-30.091z" id="path18"/>
   <path fill="#ec1c25" fill-rule="nonzero" d="m253.577,123.193l-32.145,0l0,30.091l32.145,0l0,-30.091z" id="path20"/>
   <path fill="#000000" fill-rule="nonzero" d="m213.838,123.193l-64.767,0l0,30.091l64.767,0l0,-30.091z" id="path22"/>
   <path fill="#000000" fill-rule="nonzero" d="m132.449,123.193l-39.357,0l0,30.091l39.357,0l0,-30.091z" id="path24"/>
   <path fill="#000000" fill-rule="nonzero" d="m83.922,123.193l-13.873,0l0,30.091l13.873,0l0,-30.091z" id="path26"/>
   <path fill="#000000" fill-rule="nonzero" d="m253.577,75.62l-91.764,0l0,30.091l91.764,0l0,-30.091z" id="path28"/>
   <path fill="#000000" fill-rule="nonzero" d="m124.484,75.62l-54.435,0l0,30.091l54.435,0l0,-30.091z" id="path30"/>
   <path fill="#000000" fill-rule="nonzero" d="m152.032,75.62l-18.914,0l0,30.091l18.914,0l0,-30.091z" id="path32"/>
   <text font-weight="900" font-size="28.6968px" font-family="'Fashion Fetish Heavy'" fill="#ffffff" fill-rule="nonzero" transform="matrix(1,0,0,-1,227.9683,172.9092)" id="text36">
    <tspan x="0" y="0" id="tspan34">S</tspan>
   </text>
   <text font-weight="900" font-size="28.6968px" font-family="'Fashion Fetish Heavy'" fill="#000000" fill-rule="nonzero" transform="matrix(1,0,0,-1,259.4067,172.9092)" id="text40">
    <tspan x="0 31.853449" y="0" id="tspan38">OC</tspan>
   </text>
   <text font-weight="900" font-size="28.6968px" font-family="'Fashion Fetish Heavy'" fill="#000000" fill-rule="nonzero" transform="matrix(1,0,0,-1,322.061,172.9092)" id="text44">
    <tspan x="0" y="0" id="tspan42">I</tspan>
   </text>
   <text font-weight="900" font-size="28.6968px" font-family="'Fashion Fetish Heavy'" fill="#ffffff" fill-rule="nonzero" transform="matrix(1,0,0,-1,340.2886,172.9092)" id="text50">
    <tspan x="0 32.283901" y="0" id="tspan46">AL</tspan>
    <tspan x="-115.79159" y="46.97666" id="tspan48">H</tspan>
   </text>
   <text font-weight="900" font-size="28.6968px" font-family="'Fashion Fetish Heavy'" fill="#000000" fill-rule="nonzero" transform="matrix(1,0,0,-1,259.5337,125.9238)" id="text54">
    <tspan x="0 31.709965 61.985088 91.542793" y="0" id="tspan52">ACKE</tspan>
   </text>
   <text font-weight="900" font-size="28.6968px" font-family="'Fashion Fetish Heavy'" fill="#ffffff" fill-rule="nonzero" transform="matrix(1,0,0,-1,379.5776,125.9238)" id="text60">
    <tspan x="0 29.557705" y="0" id="tspan56">RS</tspan>
    <tspan x="-155.07751" y="46.97666" id="tspan58">A</tspan>
   </text>
   <text font-weight="900" font-size="28.6968px" font-family="'Fashion Fetish Heavy'" fill="#000000" fill-rule="nonzero" transform="matrix(1,0,0,-1,260.2515,78.9385)" id="text64">
    <tspan x="0" y="0" id="tspan62">C</tspan>
   </text>
   <text font-weight="900" font-size="28.6968px" font-family="'Fashion Fetish Heavy'" fill="#000000" fill-rule="nonzero" transform="matrix(1,0,0,-1,291.397,78.9385)" id="text68">
    <tspan x="0 30.418608 59.976311 84.368591 118.08733" y="0" id="tspan66">ADEMY</tspan>
   </text>
  </g>
 </g>
</svg>
