<svg width="755" height="259" xmlns="http://www.w3.org/2000/svg">
  <g fill="none" fill-rule="evenodd">
    <path fill="#000" d="M0 0h88v63H0zM0 97h30v63H0zM48 97h84v63H48zM165 97h136v63H165z"/>
    <path fill="#EB1C24" d="M316 97h68v63h-68z"/>
    <path fill="#000" d="M0 196h115v63H0zM132 196h40v63h-40zM192 196h192v63H192zM124 0h26v63h-26zM178 0h39v63h-39zM239 0h145v63H239z"/>
    <path d="M358.58 235.5l-7.8-16.56-7.8 16.56h15.6zm4.92 10.5h-25.44l-2.82 6h-11.7l23.28-49.5h7.8L377.9 252h-11.58l-2.82-6z" fill="#FFF"/>
    <path d="M444.82 245.82c-5.12 5.12-11.3 7.68-18.54 7.68-7.28 0-13.48-2.56-18.6-7.68-5.12-5.12-7.68-11.32-7.68-18.6 0-7.24 2.56-13.42 7.68-18.54 5.12-5.12 11.32-7.68 18.6-7.68 7.24 0 13.42 2.56 18.54 7.68l-7.44 7.44c-3.08-3.08-6.78-4.62-11.1-4.62-4.36 0-8.08 1.54-11.16 4.62s-4.62 6.78-4.62 11.1c0 4.36 1.54 8.08 4.62 11.16s6.8 4.62 11.16 4.62c4.32 0 8.02-1.54 11.1-4.62l7.44 7.44zM497.58 235.5l-7.8-16.56-7.8 16.56h15.6zm4.92 10.5h-25.44l-2.82 6h-11.7l23.28-49.5h7.8L516.9 252h-11.58l-2.82-6zM541.5 213v28.5h9.78c3.92 0 7.27-1.39 10.05-4.17 2.78-2.78 4.17-6.15 4.17-10.11 0-3.92-1.39-7.27-4.17-10.05-2.78-2.78-6.13-4.17-10.05-4.17h-9.78zM531 252v-49.5h20.28c6.8 0 12.62 2.42 17.46 7.26 4.84 4.84 7.26 10.66 7.26 17.46 0 6.84-2.42 12.68-7.26 17.52S558.08 252 551.28 252H531zM626 202.5V213h-22.5v9h18v10.5h-18v9H626V252h-33v-49.5zM652.16 202.5l16.62 22.26 16.62-22.26h8.1V252H683v-28.74l-11.82 15.84h-4.8l-11.88-15.96V252H644v-49.5zM736.56 233.4V252h-10.5v-18.6l-18-30.9h12.18l11.1 19.08 11.1-19.08h12.12z" fill="#000"/>
    <g>
      <path fill="#FFF" d="M329 104.5h10.5V124h21v-19.5H371V154h-10.5v-19.5h-21V154H329z"/>
      <path d="M431.58 137.5l-7.8-16.56-7.8 16.56h15.6zm4.92 10.5h-25.44l-2.82 6h-11.7l23.28-49.5h7.8L450.9 154h-11.58l-2.82-6zM509.82 147.82c-5.12 5.12-11.3 7.68-18.54 7.68-7.28 0-13.48-2.56-18.6-7.68-5.12-5.12-7.68-11.32-7.68-18.6 0-7.24 2.56-13.42 7.68-18.54 5.12-5.12 11.32-7.68 18.6-7.68 7.24 0 13.42 2.56 18.54 7.68l-7.44 7.44c-3.08-3.08-6.78-4.62-11.1-4.62-4.36 0-8.08 1.54-11.16 4.62s-4.62 6.78-4.62 11.1c0 4.36 1.54 8.08 4.62 11.16s6.8 4.62 11.16 4.62c4.32 0 8.02-1.54 11.1-4.62l7.44 7.44zM541.5 131.62V154H531v-49.5h10.5v22.32l16.26-22.32h13.08l-18.06 24.78L570.84 154h-13.02zM625 104.5V115h-22.5v9h18v10.5h-18v9H625V154h-33v-49.5zM662.5 115v18h7.5c2.48 0 4.6-.88 6.36-2.64 1.76-1.76 2.64-3.88 2.64-6.36 0-2.48-.88-4.6-2.64-6.36-1.76-1.76-3.88-2.64-6.36-2.64h-7.5zm0 28.5V154H652v-49.5h18c5.4 0 10 1.9 13.8 5.7 3.8 3.8 5.7 8.4 5.7 13.8s-1.9 10-5.7 13.8c-.76.76-1.58 1.46-2.46 2.1l8.16 14.1h-12.12l-6.06-10.56c-.44.04-.88.06-1.32.06h-7.5zM720.08 138.82c3.2 4.12 6.84 6.18 10.92 6.18 2.36 0 4.3-.45 5.82-1.35 1.52-.9 2.28-2.25 2.28-4.05-.12-1.6-1.02-2.8-2.7-3.6l-11.58-2.82c-3.56-1.12-6.42-2.93-8.58-5.43-2.16-2.5-3.24-5.25-3.24-8.25 0-5 1.75-9 5.25-12s7.57-4.5 12.21-4.5c7.12 0 13 2.6 17.64 7.8l-8.16 6.54c-2.36-2.56-5.34-3.84-8.94-3.84-2.4 0-4.25.5-5.55 1.5-1.3 1-1.95 2.2-1.95 3.6 0 2 1.36 3.58 4.08 4.74l11.64 2.76c6.92 2.6 10.38 7.1 10.38 13.5 0 4.24-1.6 7.95-4.8 11.13-3.2 3.18-7.8 4.77-13.8 4.77-8.16 0-14.68-3.6-19.56-10.8l8.64-5.88z" fill="#000"/>
    </g>
    <g>
      <path d="M424.28 6c7.24 0 13.42 2.56 18.54 7.68 5.12 5.12 7.68 11.3 7.68 18.54 0 7.28-2.56 13.48-7.68 18.6-5.12 5.12-11.3 7.68-18.54 7.68-7.28 0-13.48-2.56-18.6-7.68-5.12-5.12-7.68-11.32-7.68-18.6 0-7.24 2.56-13.42 7.68-18.54C410.8 8.56 417 6 424.28 6zm0 10.5c-4.36 0-8.08 1.54-11.16 4.62s-4.62 6.78-4.62 11.1c0 4.36 1.54 8.08 4.62 11.16s6.8 4.62 11.16 4.62c4.32 0 8.02-1.54 11.1-4.62s4.62-6.8 4.62-11.16c0-4.32-1.54-8.02-4.62-11.1s-6.78-4.62-11.1-4.62z" fill="#000"/>
      <path d="M343.08 41.82c3.2 4.12 6.84 6.18 10.92 6.18 2.36 0 4.3-.45 5.82-1.35 1.52-.9 2.28-2.25 2.28-4.05-.12-1.6-1.02-2.8-2.7-3.6l-11.58-2.82c-3.56-1.12-6.42-2.93-8.58-5.43-2.16-2.5-3.24-5.25-3.24-8.25 0-5 1.75-9 5.25-12S348.82 6 353.46 6c7.12 0 13 2.6 17.64 7.8l-8.16 6.54c-2.36-2.56-5.34-3.84-8.94-3.84-2.4 0-4.25.5-5.55 1.5-1.3 1-1.95 2.2-1.95 3.6 0 2 1.36 3.58 4.08 4.74l11.64 2.76c6.92 2.6 10.38 7.1 10.38 13.5 0 4.24-1.6 7.95-4.8 11.13-3.2 3.18-7.8 4.77-13.8 4.77-8.16 0-14.68-3.6-19.56-10.8l8.64-5.88z" fill="#FFF"/>
      <path d="M509.82 50.82c-5.12 5.12-11.3 7.68-18.54 7.68-7.28 0-13.48-2.56-18.6-7.68-5.12-5.12-7.68-11.32-7.68-18.6 0-7.24 2.56-13.42 7.68-18.54C477.8 8.56 484 6 491.28 6c7.24 0 13.42 2.56 18.54 7.68l-7.44 7.44c-3.08-3.08-6.78-4.62-11.1-4.62-4.36 0-8.08 1.54-11.16 4.62s-4.62 6.78-4.62 11.1c0 4.36 1.54 8.08 4.62 11.16s6.8 4.62 11.16 4.62c4.32 0 8.02-1.54 11.1-4.62l7.44 7.44zM542.5 7.5V57H532V7.5zM599.58 40.5l-7.8-16.56-7.8 16.56h15.6zM604.5 51h-25.44l-2.82 6h-11.7l23.28-49.5h7.8L618.9 57h-11.58l-2.82-6zM637 7.5h10.5v39h21V57H637z" fill="#000"/>
    </g>
  </g>
</svg>
