<svg xmlns="http://www.w3.org/2000/svg" width="304" height="128" viewBox="0 0 304 128">
    <path fill="#00629E" fill-rule="evenodd" d="M224.936 22.518l-26.667 44.224L227.84 0H0v105.483h174.909L161.33 128H304V22.518h-79.064zm45.842 81.645c-.703.32-1.526.588-2.471.802-.944.214-1.917.386-2.919.52a40.011 40.011 0 0 1-5.148.361c-2.374 0-4.227-.332-5.549-1.001-1.326-.67-2.312-1.592-2.96-2.768-.646-1.177-1.052-2.538-1.215-4.09a46.163 46.163 0 0 1-.244-4.892V72.966h-4.052c-.596 0-1-.12-1.213-.362-.22-.24-.324-.627-.324-1.161v-3.93c0-.536.105-.936.324-1.203.214-.269.617-.401 1.213-.401h4.13v-8.262l.006-.11V55.677c0-.64.137-1.056.405-1.243.272-.185.648-.28 1.134-.28h5.509c.539 0 .932.095 1.174.28a.764.764 0 0 1 .233.334c.088.164.132.373.132.635v10.505h8.675c.648 0 1.066.133 1.257.402.189.267.283.64.283 1.121v4.012c0 .534-.094.921-.283 1.16-.19.242-.61.363-1.257.363h-8.675v19.968c0 1.07.084 1.898.245 2.488.162.587.446 1.028.851 1.321.407.295.958.47 1.662.523a36.87 36.87 0 0 0 2.673.08c.596 0 1.447-.027 2.552-.08a35.848 35.848 0 0 0 2.881-.24c.429-.054.754 0 .97.16.217.16.379.48.487.962l.569 4.01c.158.909-.193 1.577-1.055 2.005zm-33.676-45.667a3.556 3.556 0 0 1-.711 1.585c-.366.458-.868.815-1.508 1.072-.645.256-1.498.385-2.558.385-1.118 0-1.997-.142-2.642-.427-.637-.285-1.128-.658-1.466-1.114a3.77 3.77 0 0 1-.667-1.584 9.945 9.945 0 0 1-.168-1.842c0-1.37.32-2.524.962-3.467.644-.942 1.967-1.412 3.98-1.412 2.066 0 3.408.443 4.024 1.327.615.886.92 2.07.92 3.552 0 .687-.055 1.33-.166 1.925zm.166 44.82l-.004.069h-9.882V67.95c0-.993.606-1.488 1.812-1.488h6.443c.666 0 1.103.144 1.314.43.211.287.317.638.317 1.058v35.365zM156.331 81.23l-25.34-56.824v-2.253h14.529l13.852 33.127h.422l13.514-33.127h14.53v2.253L162.75 81.23h-6.42zm-32.754 0H86.504V22.154h36.325v13.504h-21.528v8.355h19.782v13.42h-19.782v10.38h22.276V81.23zm-60-4.39c-4.575 2.926-9.979 4.39-16.215 4.39H24.715V22.154h22.647c6.236 0 11.64 1.465 16.215 4.39 4.575 2.925 7.893 6.582 9.953 10.971 2.058 4.39 3.088 9.114 3.088 14.178s-1.03 9.79-3.088 14.18c-2.06 4.387-5.378 8.044-9.953 10.969zm-16.53-39.918h-7.502v32h7.503c3.118 0 5.842-.784 8.164-2.353 2.326-1.569 4.003-3.55 5.032-5.946 1.03-2.396 1.545-4.964 1.545-7.7 0-2.739-.515-5.305-1.545-7.7-1.029-2.396-2.706-4.378-5.032-5.948-2.322-1.569-5.046-2.353-8.164-2.353z"/>
</svg>
