<svg xmlns="http://www.w3.org/2000/svg" width="586" height="297" viewBox="0 0 586 297">
    <g fill="#FFF" fill-rule="evenodd">
        <path d="M80.901 99.96c.13-.277.13-.408.13-.408-.13.019-.78.494-1.04 1.833 0 0-4.168 17.37-4.038 17.874.52-2.287 2.214-7.463 2.995-11.219 1.042-3.527 1.953-7.036 1.953-8.08m-14.714-8.485c-.26.035-3.125 2.889-4.426 4.755 0 .261-2.867 4.683-2.475 4.633-.522.068 3.125-3.936 6.381-8.799l.52-.589m7.163 2.312c0-1.433-.13-1.808-.781-1.723-4.037.535-14.195 27.04-14.195 32.124 0 .523.131.894.39.859 1.564-.206 13.805-14.73 13.805-16.945-.522-.193-1.434-.985-1.434-1.897 0-.26.13-.537.261-.817 1.042-2.485 1.954-8.6 1.954-11.6m-9.116-3.88c-2.864 2.985-7.554 8.558-7.943 13.827.13-.15 1.042-2.615 1.433-3.32 1.3-2.52 5.86-10.42 6.51-10.508m34.116 7.097c.389-.052.65.174.65.566 0 .912-10.677 24.876-16.276 30.179a6.443 6.443 0 0 1-3.515 1.638 7.075 7.075 0 0 1-2.344-.08l-.52-.192c-3.517-.578-5.34-3.467-5.99-7.293-3.126 4.063-7.683 8.969-12.372 10.11-6.64.877-8.983-6.896-8.983-10.807 0-14.993 10.416-35.666 20.833-37.043 4.556-.601 10.027 2.068 10.938 8.986 2.345.603 5.86 2.745 5.86 5.483 0 .392-.131.933-.26 1.34-3.386 7.224-6.12 15.801-6.12 22.319 5.73-5.58 9.635-17.179 13.931-21.92 1.692-1.785 3.387-3.183 4.168-3.286M214.384 51.456c0-1.936-.485-3.969-1.293-6.444.323 1.731.485 3.486.485 4.937 0 3.872-1.132 6.926-3.231 9.3 2.746-1.815 4.04-4.405 4.04-7.793zm-74.17 48.81l-.322.85c-1.616 3.279-3.232 7.041-4.848 12.737-1.293 4.203-4.364 15.58-4.364 15.9.97-.126 9.05-26.842 9.857-28.722l-.323-.764zm11.313-17.62c-11.635 20.89-18.744 41.023-21.17 60.38 4.202-19.59 11.313-39.725 21.17-60.38zm-20.2 16.856c3.07-8.15 6.301-16.154 9.535-24.164l.323-.528c-11.958.932-18.26 1.6-30.217 3.177 4.524 3.596 14.382 15.043 20.36 21.515zm-20.844-30.81c-3.072.404-6.14.65-9.05.872a77 77 0 0 0 12.281-.651c5.655-.746 11.473-2.158 17.451-3.912-7.27 1.602-14.22 2.841-20.682 3.692zM216 50.6c0 14.518-24.564 18.723-44.436 21.34a298.886 298.886 0 0 1-13.736 1.487c-4.363 9.77-8.564 19.52-12.444 29.385-3.069 7.666-13.571 34.054-13.571 48.734 0 4.355.97 7.778 3.394 9.071l.805.537-.805.754c-2.101 1.728-4.365 2.672-6.626 2.97-5.98.787-10.988-2.1-10.988-12.104 0-13.711 7.757-36.19 10.988-45.489.323-.688.483-1.515.646-2.02C117.43 93.912 101.433 81.18 95.455 81.64c-.97-.193-1.455-1.742-1.455-3.517 0-3.71 2.1-9.475 7.596-10.196 16.966-2.235 28.438-4.553 45.567-7.295.97-2.548 1.938-6.708 5.492-7.176 3.557-.467 6.788 3.14 8.081 4.904.97-.127 2.262-.457 3.555-.628 13.736-2.294 41.852-6.967 45.891-15.24.323-.691.808-1.236 1.454-1.483 1.94-.256 4.364 4.426 4.364 9.59z"/>
        <path d="M180.622 113.468c0 2.118.648 3.985 1.618 5.647-.646-2.843-.646-6.752-.646-10.986-.649 1.878-.972 3.711-.972 5.34m-15.7-16.15c-4.855 7.318-7.448 14.826-7.608 22.173 1.295-7.173 3.883-14.678 7.608-22.173M196 95.31c0 4.885-7.771 12.266-7.771 25.13 0 1.302.162 2.584.325 4.028 0 1.628-.972 2.406-2.267 2.579-4.693.623-7.123-4.591-7.123-14.36 0-1.14 0-2.279.163-3.605-7.447 13.527-14.405 27.48-16.835 39.361-.323 1.347-1.295 2.29-2.59 2.461-6.635.882-8.902-4.355-8.902-12.173 0-15.793 9.388-41.463 11.332-44.327.486-.716 1.618-1.192 2.914-1.362 3.723-.497 9.064 1.402 9.064 4.822 0 .325 0 .812-.162 1.16-3.077 7.9-8.093 19.309-9.712 29.296 1.942-7.423 14.89-35.847 25.574-37.265 1.458-.19 2.914.103 4.371 1.213 1.133.99 1.619 1.9 1.619 3.042M232.428 97.128c-.16.023-.642.73-1.286 2.1-.963 2.699-7.07 17.818-7.07 25.213 0 .966.16 1.747.321 2.37 0-8.843 8.035-29.683 8.035-29.683m19.928 3.962c.32-.042.644.074.644.56-.483.063-13.983 37.38-28.286 39.27-3.858.508-8.517-3.218-8.517-13.027-4.339 7.167-9.804 14.32-15.267 15.041-5.947.785-10.93-5.63-10.93-9.33 0-13.829 10.124-37.518 12.055-43.08.48-1.027 1.286-1.456 2.248-1.582.966-.127 2.573.787 2.573.787.159-.023.32-.044.32-.365.804.537 1.767.893 1.767 1.214-3.053 2.653-7.712 19.028-7.712 20.476.321-.043 6.266-16.425 8.035-19.875.321.6 1.766.893 1.607.914 0 .158 1.769.57 2.41 3.38-.161.503-.161.986-.161 1.469v1.286c-4.018 7.283-10.766 26.829-10.766 32.133 0 1.446.641 1.523 1.124 1.46 7.714-1.019 18.642-28.189 23.624-40.747.321-1.007.804-1.873 1.125-2.719l.32-.526c.483-1.028 1.448-1.637 2.573-1.788 3.535-.466 9 3.155 9 6.21 0 .32 0 .642-.162.984-7.231 13.016-11.249 28.983-12.373 39.103 8.194-6.39 13.983-21.143 19.607-27.191 1.928-2.186 4.017-3.908 5.142-4.057"/>
        <path d="M257.467 67.568c-6.62 16.316-11.14 32.031-12.754 44.31 2.422-12.223 6.78-26.632 12.754-44.31m18.726 30.841c.485-.064.807.214.807.697 0 .643-.485 1.835-1.292 3.55-5.487 10.534-14.043 33.86-24.536 35.241-7.428.977-10.172-5.095-10.172-14.428 0-24.937 20.02-73.422 23.246-75.132.325-.204.647-.247 1.13-.311 3.068-.403 6.459 3.978 6.459 9.127 0 1.61-.162 3.077-.807 4.609-5.975 14.783-19.856 48.624-19.856 65.357 0 1.288.16 2.39.32 3.496 8.559-5.47 13.724-21.593 19.536-27.989 2.097-2.365 4.196-4.09 5.165-4.217"/>
        <path d="M290.325 140.577c-.163.023-1.628 3.782-2.116 4.329-2.117 3.844-8.953 14.79-9.77 14.898.164-.023.49-.39 1.467-1.33 5.7-6.095 8.791-11.685 10.094-16.556.325-.854.325-1.34.325-1.34m11.558-65.525c3.42-.451 9.117 2.046 9.117 5.61 0 .159-.164.505-.164.83l-2.441 9.232c-7.814 30.682-18.722 74.247-41.023 77.176-7.814 1.025-12.372-6.153-12.372-10.528 0-1.785.65-2.516 1.791-2.666 1.463-.192 2.44 2.109 4.231 1.875 10.581-1.39 18.234-13.09 25.72-32.872-5.208 7.331-8.953 10.252-12.37 10.701-7.489.984-10.419-5.276-10.419-12.081 0-10.858 6.022-27.207 12.86-43.335.326-.368.815-1.082 1.79-1.21.489-.064 1.141-.15 1.953.068.164.142.489.584.978.522 1.14.66 1.955.877 1.955 1.2-3.42 5.799-7.491 16.54-7.978 20.494 1.953-5.117 4.559-12.265 7.325-18.138.164-.347.653-1.706 1.303-1.792 1.791 1.869 3.256 1.842 3.742 4.042-.161.673 0 2.11-.323 3.124-4.883 8.745-12.536 29.519-12.536 38.107v1.294c7.653-5.218 14.65-17.318 19.048-25.996 2.114-8.216 3.905-16.393 5.208-23.693.164-1.156 1.14-1.772 2.605-1.964M361.462 96.061c-3.461 6.759-11.422 13.072-23.711 18.734 11.249-3.074 19.21-9.387 23.711-18.734m-23.365-36.078c0-4.899 1.038-10.286 3.46-16.382-2.94 5.466-4.5 10.221-4.5 14.073 0 2.098.347 3.977 1.211 5.61-.17-1.026-.17-2.252-.17-3.301m23.536 20.133c5.539 1.011 11.598 4.227 11.598 11.747 0 16.275-24.577 33.9-39.807 35.93-8.83 1.179-11.425-2.844-11.425-7.922 0-6.474 4.328-14.225 5.712-14.41.347-.049.518.28.518.981 0 .874-.344 2.32-.344 3.197 0 3.673 2.248 4.774 5.539 4.332 9.172-1.222 26.309-14.358 26.998-20.219 0-4.55-11.768-3.51-16.096-2.93-1.21.161-1.73.232-1.73.232l-1.04-.213c-2.249-1.622-4.673-4.275-4.673-7.772 0-.876.174-1.95.693-3.068l.347-.747.52-.246c11.25-4.473 21.29-12.287 26.307-26.43.17-.895.17-1.596.17-2.295 0-3.85-1.901-4.996-4.323-4.673-5.193.694-12.98 7.856-12.98 12.404 0 2.102 2.593 2.455 2.593 3.854 0 2.273-3.286 6.736-7.095 7.245-3.808.509-7.96-4.715-7.96-11.187 0-11.021 10.556-25.027 23.365-26.735C368.559 29.852 376 35.506 376 49.678c0 10.499-7.961 22.409-14.366 30.438"/>
        <path d="M413.36 88.54c-2.793 10.883-8.201 18.605-15.88 23.481 8.201-3.89 13.611-11.616 15.88-23.48m1.047-52.356c-9.248 6.654-15.357 12.897-18.498 18.918a194.967 194.967 0 0 1 18.498-18.918m7.328-8.684c-11.69 5.579-22.336 15.576-31.76 30.317 8.9-11.693 19.544-21.862 31.76-30.317m-38.914 77c0 5.256 2.092 9.007 6.454 8.43 13.614-1.804 22.515-20.33 22.515-29.265 0-5.435-2.619-8.766-8.204-8.024-13.09 2.257-20.765 18.52-20.765 28.859M435 36.085c0 1.402-.35 2.323-1.221 2.44-1.048.137-2.444-.379-3.665-.218-10.297 1.366-23.037 16.543-31.24 27.794 2.97-1.092 5.586-1.79 7.855-2.09 11.343-1.502 16.231 5.908 16.231 15.897 0 16.295-13.264 41.36-32.636 43.924-9.947 1.32-18.324-5.107-18.324-20.177 0-19.8 20.244-66.11 50.609-78.547C430.987 23.998 435 31.7 435 36.085M472.012 70.5c-3.149 13.222-8.217 22.487-14.513 31.913 7.171-8.316 12.24-17.583 14.513-31.913m-22.38 34.183c12.591-1.666 24.479-41.652 24.479-63.401 0-9.645-2.099-14.629-7.342-13.937-13.115 1.74-24.831 41.175-24.831 62.922 0 7.191 1.4 12.44 4.197 13.824 1.223.542 2.273.755 3.497.592m7.344-81.475c-10.493 8.228-16.96 18.73-19.584 32.057 3.847-12.085 10.493-22.786 19.584-32.057M486 46.198c0 27.538-15.91 65.948-36.193 68.634C435.294 116.75 429 101.974 429 84.259c0-27.186 14.513-63.304 35.845-66.126 1.747-.232 3.495-.113 5.246.006C481.28 19.462 486 31.292 486 46.199M495.013 12.276c0 3.42 1.91 6.996 5.463 10.49 5.465-4.001 8.47-7.956 8.47-11.65 0-3.28-2.321-6.395-7.377-9.143-4.37 2.902-6.556 6.474-6.556 10.303m5.326 13.655C494.88 26.652 489 21.686 489 13.205c0-6.29 3.825-12.13 10.656-13.03C509.081-1.071 514 4.569 514 10.04c0 3.693-1.912 7.774-5.74 11.561-2.595 2.533-5.325 3.986-7.92 4.329M42.466 267.18c-4.457.585-9.128.142-13.591-1.814 4.673 2.986 9.555 4.04 14.229 3.425 6.367-.839 12.525-4.615 18.898-11.597-6.373 5.709-12.953 9.119-19.536 9.986m12.529-110.324c-15.29 12.182-26.12 25.469-32.487 39.866 7.854-13.746 18.684-27.033 32.487-39.866m-33.55 49.537c3.61-7.678 21.448-35.657 28.666-38.726-10.617 5.634-23.568 26.407-28.666 38.726m40.98-1.367c0-.427-7.855 15.652-8.28 15.706.214-.027-1.696-.2-1.696-3.801l2.759-8.412 1.697-4.04c2.338-5.391 4.248-16.233 7.858-16.71.847-.112 1.91-.041 2.761.273 2.332-3.697 9.98-16.353 9.98-23.134 0-3.179-1.911-5.045-5.1-4.625-14.65 1.929-49.685 53.568-49.685 83.863 0 11.227 5.945 22.308 19.11 20.575 14.225-1.872 33.974-18.24 40.343-32.852.639-1.565 1.913-2.366 3.187-2.534 1.7-.225 3.608.793 3.608 2.7 0 .427 0 1.06-.424 1.75-16.35 30.329-35.884 48.58-53.508 50.897C14.65 287.368 0 272.77 0 251.162c0-40.036 43.104-98.036 65.4-100.97 11.678-1.54 27.6 6.323 27.6 17.758 0 12.924-22.717 53.624-32.061 54.854-.211.027-.639-.129-.85-.1 0 0-5.094-.389-5.094-1.45.423-2.81 1.7-5.093 6.158-14.158.634-1.14 1.272-1.856 1.272-2.07"/>
        <path d="M133.045 204.315c.217.398.639 1.194.639.981 0-4.047-4.678-12.368-10.625-12.65 4.25 1.141 9.775 7.867 9.986 11.67m-8.29 4.715c0-7.24-2.333-11.826-8.497-11.015-8.502 1.123-13.815 12.475-13.815 23.335 0 9.368 4.035 18.417 13.815 19.467 3.611-6.226 8.498-21.353 8.498-31.787m-22.528 45.142c3.19-.42 6.163-2.306 9.143-5.042-6.379-1.926-12.115-6.7-15.943-13.65-.85 3.093-1.276 5.705-1.276 8.259 0 5.322 2.127 9.304 6.162 10.471.64.132 1.276.046 1.914-.038m-16.576-31.24c-1.064.14-4.039 9.051-4.039 17.145 0 4.682.639 9.281 2.336 12.04-.847-2.447-1.273-6.222-1.273-10.269 0-6.6 1.062-13.554 2.549-16.73.215-1.308.427-2.186.427-2.186m69.288-11.505c.634-.084 1.06.073 1.06.713 0 .851-.637 2.424-1.701 4.697-8.287 15.788-15.727 26.78-27.627 30.695-6.803 9.842-15.518 16.957-25.082 18.222C85.014 267.947 78 255.033 78 242.043c0-4.258 2.55-24.4 7.225-25.016 1.916-.256 4.888.414 7.228 2.026-.213-1.037-.213-2.102-.213-2.953 0-13.84 11.055-27.232 23.592-28.888 15.94-2.108 22.74 11.9 22.74 24.467 0 7.876-2.125 16.676-5.738 24.82 5.953-4.835 8.29-12.171 15.303-19.696 2.763-2.926 5.53-5.206 6.803-5.375"/>
        <path d="M186.582 226.653c-.426.056-2.34 8.123-2.34 12.14 0 1.902.427 5.86.427 5.86.637-.086 1.063-14.086 1.913-16.734v-1.266zm-5.742 15.963c0-5.914 4.255-23.376 4.255-23.376-.215.03-5.316 15.698-5.316 21.193 0 .635.422 7.129 1.7 6.96 0-.209-.64-2.239-.64-4.777zm42.306-38.932c.637-.083.854.31.854.946 0 2.532-20.627 48.977-37.205 51.152-5.53.726-11.267-3.802-11.267-13.732 0-16.06 11.267-40.995 12.966-45.445-3.614 3.435-25.084 34.352-34.44 59.88-.211 1.298-1.276 2.281-2.763 2.474-3.401.449-8.291-2.712-8.291-14.336 0-10.777 4.251-29.08 18.282-58.606.639-1.351 1.702-2.123 3.19-2.318 3.4-.448 8.292 2.291 11.056 5.099l-1.065 1.407c-1.7 3.183-10.842 18.536-10.842 24.243 0 .633 0 .845.21 1.244 1.065-6.482 11.271-26.624 11.908-26.71 1.063 1.13 1.7 2.522 1.7 3.794 0 2.957-6.377 12.666-8.713 17.621 9.565-14.99 20.194-28.215 28.483-29.303 5.953-.778 11.48 3.354 11.48 8.851 0 5.703-17.856 39.952-18.28 55.01 10.84-8.394 18.49-27.78 25.934-35.944 2.554-2.866 5.527-5.161 6.803-5.327z"/>
        <path d="M227 217.502l-2.123 8.123c1.486 2.774 3.606 3.767 6.154 3.432-.637-3.944-1.908-7.807-4.031-11.555zm7.21 44.424c-.21.028-1.483 4.013-2.33 6.031-2.97 6.33-13.15 20.608-12.94 19.519 8.483-7.693 13.15-15.943 15.27-23.427v-2.123zm-18.029-46.39c3.394-16.137 8.696-31.895 15.271-47.39-9.331 18.83-14.635 34.797-15.27 47.39zm-1.062 61.626c4.668-.613 16.548-20.202 16.548-40.98-.636.083-1.06.351-1.698.434-2.756.365-5.515-.33-7.638-1.749-5.514 20.87-9.118 32.374-9.118 38.309 0 1.485.212 2.518.637 3.307.21.61.638.764 1.269.679zm46.033-78.583c.423-.057.848.31.848.947 0 .848-.425 2.389-1.483 4.648-5.517 12.39-11.034 21.387-19.52 27.595.638 3.096.853 6.249.853 9.43 0 26.717-19.73 54.124-31.82 55.72-7.849 1.036-11.03-8.087-11.03-19.749 0-32.44 21.637-95.086 30.758-116.858.21-.665.848-1.17 1.694-1.283 4.031-.531 12.731 6.378 12.731 12.74 0 1.06-.214 1.935-.64 2.839-4.874 10.608-11.028 24.991-14.21 35.586 4.667 4.053 7.634 9.807 9.759 14.827 6.15-5.26 8.483-12.565 15.27-20.67 2.759-2.91 5.305-5.577 6.79-5.772z"/>
        <path d="M287.39 190.148c-2.735 8.6-7.152 15.517-13.255 20.974 6.941-4.3 11.15-11.401 13.255-20.974m-2.735-7.24c-5.68.75-17.46 25.754-18.3 29.245.419.156 1.049.073 1.47.017 9.886-1.311 18.511-21.25 18.511-27.163 0-.843-.208-1.235-.417-1.633-.421-.365-.845-.523-1.264-.467m-8.415-1.841c-.422.058-12.2 13.444-12.2 17.879.839.1 12.2-17.666 12.2-17.88m-5.89-.064c-10.307 10.66-15.146 21.86-15.146 25.448.421-.054 1.262-4.393 2.735-6.063 2.316-4.527 12.41-18.117 12.41-19.385m41.02 11.25c.422-.055.631.34.631.764 0 1.267-.84 3.487-2.312 6.426l-2.524 4.77c-8.837 17.647-19.357 38.258-36.604 40.542-13.672 1.81-23.56-6.594-23.56-16.519 0-20.488 19.986-56.712 38.074-59.11 7.785-1.03 14.096 4.468 14.096 11.438 0 14.152-18.302 35.37-30.923 37.042-1.26.166-2.314.096-3.368-.187-.42 1.958-.839 4.126-.839 6.026 0 5.49 2.314 10.04 9.886 9.037 13.673-1.81 25.034-29.293 30.713-35.114 3.576-3.428 5.68-4.973 6.73-5.114"/>
        <path d="M339.84 190.21c0 2.75.85 5.182 2.123 7.342-.85-3.699-.85-8.778-.85-14.283-.848 2.441-1.274 4.821-1.274 6.942m-20.588-20.997c-6.363 9.515-9.761 19.276-9.972 28.83 1.695-9.328 5.093-19.086 9.972-28.83M360 166.603c0 6.349-10.185 15.945-10.185 32.668 0 1.694.211 3.36.424 5.237 0 2.116-1.274 3.13-2.973 3.353-6.153.81-9.336-5.969-9.336-18.669 0-1.482 0-2.962.21-4.686-9.76 17.586-18.889 35.72-22.07 51.169-.425 1.75-1.698 2.975-3.395 3.2-8.703 1.145-11.675-5.66-11.675-15.825 0-20.532 12.309-53.903 14.858-57.626.634-.93 2.122-1.547 3.82-1.771 4.88-.643 11.884 1.825 11.884 6.265 0 .427 0 1.063-.213 1.512-4.033 10.268-10.611 25.103-12.733 38.086 2.547-9.65 19.525-46.601 33.532-48.445 1.911-.25 3.82.137 5.732 1.573 1.484 1.29 2.12 2.476 2.12 3.959M392.39 176.15c-2.736 8.597-7.153 15.518-13.257 20.973 6.942-4.297 11.15-11.401 13.256-20.973m-2.735-7.243c-5.68.755-17.46 25.756-18.301 29.247.42.158 1.051.073 1.47.015 9.889-1.311 18.513-21.248 18.513-27.16 0-.843-.21-1.237-.418-1.635-.421-.365-.845-.52-1.264-.467m-8.413-1.838c-.424.054-12.202 13.443-12.202 17.875.84.1 12.202-17.665 12.202-17.875m-5.893-.064c-10.307 10.655-15.146 21.855-15.146 25.447.422-.058 1.263-4.395 2.736-6.064 2.316-4.53 12.41-18.118 12.41-19.383m41.022 11.25c.421-.058.63.336.63.76 0 1.266-.839 3.488-2.312 6.427l-2.525 4.77c-8.836 17.647-19.354 38.255-36.604 40.54-13.673 1.812-23.559-6.595-23.559-16.52 0-20.485 19.985-56.708 38.073-59.107 7.785-1.031 14.097 4.471 14.097 11.438 0 14.152-18.303 35.37-30.925 37.04-1.26.168-2.314.1-3.365-.187-.42 1.958-.841 4.126-.841 6.027 0 5.489 2.314 10.043 9.886 9.037 13.673-1.81 25.036-29.294 30.714-35.114 3.576-3.427 5.68-4.974 6.73-5.11"/>
        <path d="M449.582 191.65c-.424.057-2.339 8.128-2.339 12.143 0 1.901.424 5.861.424 5.861.64-.085 1.063-14.09 1.915-16.738v-1.265zm-5.74 15.966c0-5.917 4.253-23.374 4.253-23.374-.213.024-5.316 15.697-5.316 21.19 0 .636.424 7.13 1.702 6.961 0-.207-.639-2.24-.639-4.777zm42.306-38.933c.637-.085.852.311.852.946 0 2.532-20.625 48.978-37.203 51.155-5.531.722-11.269-3.804-11.269-13.734 0-16.06 11.269-40.995 12.966-45.444-3.612 3.43-25.086 34.349-34.438 59.88-.213 1.295-1.276 2.282-2.763 2.473-3.4.449-8.293-2.712-8.293-14.336 0-10.775 4.253-29.084 18.282-58.608.639-1.349 1.704-2.125 3.193-2.318 3.399-.446 8.289 2.291 11.053 5.1l-1.063 1.406c-1.701 3.184-10.842 18.54-10.842 24.245 0 .635 0 .846.21 1.24 1.065-6.477 11.27-26.624 11.906-26.707 1.065 1.131 1.702 2.522 1.702 3.792 0 2.957-6.377 12.67-8.717 17.623 9.567-14.99 20.198-28.216 28.49-29.301 5.95-.78 11.477 3.351 11.477 8.85 0 5.702-17.858 39.951-18.282 55.01 10.843-8.395 18.493-27.783 25.937-35.945 2.553-2.868 5.526-5.16 6.802-5.327z"/>
        <path d="M495.138 158.512s-8.682 8.116-8.682 12.763c1.27-1.855 5.93-9.655 8.682-12.763m-12.07 12.365c1.696-4.872 12.07-19.34 12.706-19.426-.214.03-.85.747-1.907 1.731-8.257 8.487-13.34 18.874-13.34 23.735 0 0 .635-.716 1.061-2.462.42-1.536 1.27-2.916 1.48-3.578m52.296-8.577c.426-.058.636.339.636.76 0 1.27-1.06 3.52-2.541 6.677l-2.543 4.984c-8.677 17.412-19.054 37.8-35.992 40.032-14.396 1.895-23.924-7.416-23.924-17.771 0-19.442 19.056-55.344 38.321-57.883 6.353-.834 13.762 3.684 13.762 10.025 0 4.015-7.62 23.405-15.666 24.464-1.481.195-2.54-.511-2.54-1.989 0-.637.209-1.295.633-1.986 3.18-5.914 5.294-11.686 5.294-14.432 0-1.694-.634-2.455-1.695-2.316-4.868.641-15.452 20-18.417 29.268-1.27 3.97-1.909 7.435-1.909 10.604 0 6.341 2.753 10.627 9.108 9.79 15.242-2.008 25.406-29.55 30.7-34.896 3.595-3.433 5.714-5.192 6.773-5.33"/>
        <path d="M561.387 154.148c-2.733 8.6-7.15 15.52-13.251 20.976 6.94-4.3 11.146-11.403 13.251-20.976m-2.733-7.24c-5.68.75-17.458 25.756-18.305 29.247.423.156 1.055.07 1.475.015 9.888-1.311 18.512-21.25 18.512-27.164 0-.842-.21-1.236-.422-1.632-.417-.365-.84-.523-1.26-.467m-8.415-1.84c-.424.057-12.2 13.443-12.2 17.878.839.1 12.2-17.666 12.2-17.877m-5.893-.067c-10.303 10.66-15.144 21.86-15.144 25.448.42-.054 1.263-4.393 2.736-6.063 2.312-4.527 12.408-18.117 12.408-19.385m41.024 11.253c.421-.056.63.338.63.76 0 1.266-.839 3.488-2.314 6.427l-2.523 4.77c-8.836 17.647-19.354 38.258-36.606 40.542-13.673 1.81-23.557-6.594-23.557-16.519 0-20.488 19.983-56.712 38.073-59.11 7.785-1.03 14.097 4.472 14.097 11.44 0 14.15-18.303 35.368-30.925 37.04-1.262.166-2.314.098-3.367-.187-.418 1.958-.84 4.126-.84 6.026 0 5.49 2.31 10.043 9.887 9.037 13.675-1.809 25.036-29.293 30.714-35.114 3.574-3.428 5.68-4.973 6.73-5.112"/>
    </g>
</svg>
