<svg xmlns="http://www.w3.org/2000/svg" width="150" height="40" viewBox="0 0 150 40">
    <g fill="#FEFEFE" fill-rule="evenodd" opacity=".7">
        <path d="M24.083 16.35c1.212 2.994 3.879 5.386 3.879 10.777 0 5.39-3.57 12.693-10.668 12.693 3.25-3.29 3.28-5.72 3.28-6.984 0-1.265-.393-2.242-.75-3.268-.358-1.026-1.292-2.129-1.082-4.543-1.131 3.346-2.197 6.24-.505 7.608-2.032 0-4.186-2.567-4.746-4.949-.76-3.218.52-6.23-.56-9.083 0 1.561-.749 2.804-2.34 5.294-.855 1.342-3.142 4.182-3.142 8.403 0 4.81 3.645 7.522 3.645 7.522S0 39.765 0 27.127c0-8.372 5.177-12.788 7.972-16.98 0 0 4.769-5.377 2.781-10.147 5.16.309 8.034 6.823 8.864 11.343.902-2.302 2.711-3.605 4.17-4.094-.673 1.718-.916 6.108.296 9.101zM12.577 30.294c.186-.032.373.057.414.2.043.144-.075.285-.261.318a.343.343 0 0 1-.056.006h-.026s-.19.01-.47-.015a4.148 4.148 0 0 1-1.818-.596c-.208-.13-.324-.229-.324-.229l-.006-.006c-.044-.037-.04-.095.011-.129a.145.145 0 0 1 .153-.002s.13.08.342.17a3.846 3.846 0 0 0 1.664.319c.23-.01.377-.036.377-.036zm4.276 6.584c.265-.18.115.106-.006.247-.197.228-.36.326-.617.465-.44.23-.813.271-1.43.196-.23-.03-.826-.22-.799-.335.034-.13.54-.057.738-.048.725.008 1.293-.09 2.114-.525zM33.115 18.882c0 7.82 8.241 8.88 8.241 14.511 0 1.955-.844 2.657-2.185 2.657-1.341 0-2.185-.702-2.185-2.657v-1.958H33v1.681C33 37.498 35.149 40 39.286 40c4.141 0 6.285-2.502 6.285-6.884 0-7.819-8.236-8.873-8.236-14.505 0-1.958.766-2.698 2.108-2.698 1.34 0 2.106.74 2.106 2.698v1.134h3.986v-.863c0-4.38-2.108-6.882-6.208-6.882-4.104 0-6.212 2.502-6.212 6.882zm18.66 9.077h4.794V39.69h4.293V12.314h-4.293v11.732h-4.794V12.314H47.56v27.377h4.215V27.959zM67.717 16.22H75v-3.907H63.502v27.377H75v-3.913h-7.283v-8.016h5.786V23.85h-5.786v-7.63zM84.075 12c-4.115.039-5.955 2.714-5.955 6.841 0 7.671 10.113 7.788 10.113 14.394 0 2.949-1.16 5.074-4.235 5.074-3.08 0-4.24-2.125-4.24-5.074v-1.532H78v1.414C78 37.089 79.758 40 84.036 40c4.279 0 6.036-2.911 6.036-6.883 0-7.59-10.112-7.707-10.112-14.393 0-2.913 1.116-5.074 4.159-5.074 3.036 0 4.156 2.205 4.156 5.111v.712h1.76v-.595c0-3.971-1.72-6.878-5.96-6.878zm18.567 14.827v12.938h1.883V12.237h-1.883v12.936H93.93V12.237h-1.84v27.528h1.84V26.827h8.713zm15.531 6.841l1.4 6.097h1.839l-6.237-27.572h-2.679l-6.117 27.572h1.681l1.4-6.097h8.713zm-4.397-19.387l4.12 17.813h-8.159l4.039-17.813zm9.495-2.044v27.528h1.84V27.454h2.916c3.201 0 5.236 1.022 5.236 4.679v4.325c0 1.498.12 2.477.604 3.307h1.917c-.6-.905-.681-2.163-.681-3.307v-4.283c0-2.993-1.159-4.995-4.039-5.625 2.76-.628 4.039-2.479 4.039-5.702V18.45c0-3.895-1.72-6.213-5.998-6.213h-5.834zm1.84 13.563V13.885h3.956c3.037 0 4.196 1.772 4.196 4.72v2.597c0 3.699-1.916 4.598-5.197 4.598h-2.955zm12.646-13.563v27.528h1.84V28.438h3.482c4.436 0 6.477-2.162 6.477-6.53v-2.986c0-4.015-1.682-6.685-5.998-6.685h-5.801zm1.84 14.548v-12.9h3.96c3.119 0 4.16 1.926 4.16 4.919v3.223c0 3.344-1.4 4.758-4.638 4.758h-3.483z"/>
    </g>
</svg>
