<svg xmlns="http://www.w3.org/2000/svg" width="141" height="36" viewBox="0 0 141 36">
    <g fill="#FEFEFE" fill-rule="evenodd" opacity=".7">
        <path d="M0 13.546c.15-1.353.7-2.525 1.679-3.502C2.852 8.865 4.27 8.271 5.894 8.271h6.599c1.619 0 3.012.594 4.153 1.768 1.028 1.022 1.597 2.172 1.735 3.507H.002M5.896 20.76c-1.657 0-3.079-.578-4.218-1.724C.688 18.019.136 16.85 0 15.482h12.498c1.622 0 3.014.595 4.156 1.767 1.027 1.023 1.598 2.175 1.736 3.51H5.895M5.896 28.015c-1.657 0-3.075-.578-4.215-1.723C.689 25.278.139 24.109 0 22.74H18.39a5.691 5.691 0 0 1-1.724 3.547c-1.178 1.144-2.585 1.727-4.17 1.727h-6.6M82.87 13.57c.15-1.353.698-2.526 1.677-3.502 1.172-1.18 2.591-1.774 4.214-1.774h6.186c1.62 0 3.012.595 4.152 1.768 1.03 1.023 1.598 2.171 1.736 3.508H82.87zM88.76 28.015c-1.654 0-3.074-.578-4.213-1.723-.99-1.014-1.543-2.183-1.678-3.551h17.942c-.152 1.376-.718 2.57-1.721 3.547-1.18 1.144-2.585 1.727-4.171 1.727h-6.337M26.57 12.966a.564.564 0 0 1-.565.562h-4.15a.564.564 0 0 1-.563-.562V.562c0-.309.253-.562.562-.562h4.151c.312 0 .565.253.565.562v12.404M21.292 20.757v-5.275h18.43c-.132 1.374-.712 2.57-1.716 3.547-1.177 1.145-2.583 1.728-4.169 1.728H21.292M82.87 20.757v-5.275h17.94c-.132 1.374-.71 2.57-1.714 3.547-1.179 1.145-2.583 1.728-4.17 1.728H82.868zM26.57 27.456a.563.563 0 0 1-.565.56h-4.15a.563.563 0 0 1-.563-.56v-4.155c0-.309.253-.56.562-.56h4.151c.312 0 .565.251.565.56v4.155M64.95 13.546V8.271h14.262c-.133 1.376-.714 2.57-1.717 3.547-1.18 1.145-2.585 1.728-4.17 1.728h-8.376M39.68 13.063a.563.563 0 0 1-.556.562h-4.16a.563.563 0 0 1-.557-.562V8.909c0-.31.253-.56.557-.56h4.16a.56.56 0 0 1 .557.56v4.154M39.68 27.456a.561.561 0 0 1-.556.56h-4.16a.561.561 0 0 1-.557-.56v-4.155c0-.309.253-.56.557-.56h4.16c.304 0 .557.251.557.56v4.155M127.235 5.875c0 .283-.23.515-.514.515h-3.804a.517.517 0 0 1-.518-.515V.53c0-.284.231-.514.518-.514h3.804c.284 0 .514.23.514.514v5.346zM127.325 27.463a.563.563 0 0 1-.562.56h-3.799a.563.563 0 0 1-.565-.56V16.044c0-.31.253-.562.565-.562h3.8c.308 0 .561.252.561.562v11.42M140.34 27.538a.564.564 0 0 1-.558.562h-3.785a.561.561 0 0 1-.557-.557V15.484h4.898v12.06M43.066 13.546a5.708 5.708 0 0 1 1.685-3.502c1.171-1.179 2.59-1.773 4.207-1.773h6.607c1.612 0 3.012.594 4.15 1.768 1.023 1.022 1.591 2.172 1.738 3.507H43.064M48.942 28c-1.647 0-3.068-.577-4.199-1.719-.993-1.01-1.54-2.177-1.679-3.54h18.39v5.258H48.942M70.842 28.015c-1.653 0-3.078-.578-4.211-1.723-.996-1.014-1.547-2.183-1.684-3.551h14.267v5.274h-8.372M110.365 28.015c-1.652 0-3.074-.578-4.207-1.723-.999-1.014-1.549-2.183-1.687-3.551h14.267v5.274h-8.373M110.365 8.27h8.373v5.276h-14.267c.132-1.37.688-2.534 1.687-3.552 1.133-1.144 2.555-1.723 4.207-1.723M134.448 8.27c1.65 0 3.076.58 4.21 1.724.994 1.018 1.548 2.183 1.682 3.552H122.4V8.27h12.048M109.749 20.182a.564.564 0 0 1-.561.56h-4.152a.563.563 0 0 1-.564-.56V16.03c0-.31.253-.562.564-.562h4.152c.309 0 .561.252.561.562v4.152zM48.96 35.277c-1.642 0-3.067-.598-4.208-1.771-.991-1.015-1.541-2.167-1.682-3.507h18.384c-.15 1.347-.72 2.52-1.716 3.496-1.184 1.179-2.59 1.779-4.172 1.779H48.96M61.454 20.216c0 .31-.253.561-.558.561h-4.155a.56.56 0 0 1-.558-.561v-4.153c0-.31.252-.563.558-.563h4.155c.305 0 .558.253.558.563v4.153M70.228 20.182a.565.565 0 0 1-.564.56h-4.15a.564.564 0 0 1-.564-.56V16.03c0-.31.253-.562.565-.562h4.149c.31 0 .564.252.564.562v4.152zM70.228 5.867c0 .31-.253.562-.564.562h-4.15a.564.564 0 0 1-.564-.562V.561c0-.308.253-.56.565-.56h4.149c.31 0 .564.252.564.56v5.306zM48.335 20.216c0 .31-.254.561-.558.561h-4.156a.56.56 0 0 1-.557-.561v-4.153c0-.31.251-.563.557-.563h4.156c.304 0 .558.253.558.563v4.153"/>
    </g>
</svg>
