<?xml version="1.0" encoding="utf-8"?>
<!-- Generator: Adobe Illustrator 17.0.0, SVG Export Plug-In . SVG Version: 6.00 Build 0)  -->
<!DOCTYPE svg PUBLIC "-//W3C//DTD SVG 1.1//EN" "http://www.w3.org/Graphics/SVG/1.1/DTD/svg11.dtd">
<svg version="1.1" id="Layer_1" xmlns="http://www.w3.org/2000/svg" xmlns:xlink="http://www.w3.org/1999/xlink" x="0px" y="0px"
	 width="322.974px" height="79px" viewBox="0 0 322.974 79" enable-background="new 0 0 322.974 79" xml:space="preserve">
<g>
	<polygon fill-rule="evenodd" clip-rule="evenodd" fill="#6AA7CE" points="261.308,13.818 322.974,13.818 322.974,79 232.839,79 
		261.308,13.818 	"/>
	<path fill="#FFFFFF" d="M286.694,35.067v-1.14c0-0.398,0.083-0.654,0.25-0.771c0.167-0.117,0.4-0.172,0.696-0.172h3.385
		c0.334,0,0.576,0.056,0.723,0.172c0.059,0.045,0.106,0.117,0.142,0.206c0.053,0.103,0.083,0.233,0.083,0.395v0.17v5.329v1.027
		h5.327c0.4,0,0.657,0.078,0.773,0.247c0.117,0.167,0.172,0.401,0.172,0.695v2.493c0,0.331-0.055,0.573-0.172,0.72
		c-0.117,0.15-0.373,0.225-0.773,0.225h-5.327v12.404c0,0.662,0.049,1.176,0.147,1.541c0.099,0.364,0.275,0.64,0.525,0.824
		c0.248,0.18,0.59,0.289,1.019,0.32c0.433,0.036,0.978,0.053,1.644,0.053c0.367,0,0.887-0.017,1.571-0.053
		c0.679-0.031,1.269-0.08,1.768-0.147c0.264-0.034,0.464,0,0.598,0.1c0.134,0.1,0.231,0.298,0.297,0.598l0.349,2.489
		c0.099,0.565-0.114,0.979-0.646,1.243c-0.435,0.201-0.94,0.368-1.52,0.501c-0.581,0.131-1.18,0.239-1.793,0.323
		c-0.615,0.083-1.197,0.142-1.742,0.176c-0.551,0.031-1.024,0.047-1.419,0.047c-1.463,0-2.601-0.206-3.413-0.621
		c-0.815-0.417-1.421-0.991-1.819-1.719c-0.398-0.732-0.646-1.577-0.745-2.54c-0.101-0.962-0.151-1.975-0.151-3.037V44.664h-2.489
		c-0.367,0-0.615-0.075-0.745-0.225c-0.134-0.147-0.201-0.39-0.201-0.72v-2.439c0-0.334,0.068-0.582,0.201-0.749
		c0.13-0.169,0.378-0.247,0.745-0.247h2.54v-5.133v-0.069V35.067L286.694,35.067z"/>
	<path fill="#FFFFFF" d="M278.825,35.432c0,0.401-0.034,0.773-0.101,1.121c-0.064,0.347-0.206,0.656-0.422,0.921
		c-0.217,0.267-0.516,0.473-0.896,0.626c-0.384,0.147-0.89,0.222-1.52,0.222c-0.664,0-1.187-0.083-1.569-0.247
		c-0.381-0.167-0.673-0.384-0.87-0.648c-0.2-0.267-0.334-0.573-0.401-0.921c-0.064-0.351-0.099-0.707-0.099-1.074
		c0-0.795,0.191-1.469,0.573-2.017c0.384-0.548,1.171-0.822,2.366-0.822c1.23,0,2.023,0.26,2.39,0.772
		C278.64,33.88,278.825,34.569,278.825,35.432L278.825,35.432z M278.524,65.041v0.042H273.1l-0.004-0.042v-22.51
		c0-0.632,0.334-0.948,0.997-0.948h3.537c0.365,0,0.606,0.091,0.721,0.275c0.118,0.181,0.173,0.406,0.173,0.673V65.041
		L278.524,65.041z"/>
	<polygon fill-rule="evenodd" clip-rule="evenodd" fill="#9FB33E" points="267.503,0 239.078,65.102 0,65.102 0,0 	"/>
	<polygon fill-rule="evenodd" clip-rule="evenodd" fill="#8AA13F" points="255.037,0 267.503,0 237.74,65.102 255.037,0 	"/>
	<polygon fill-rule="evenodd" clip-rule="evenodd" fill="#6D8B3E" points="268.698,0 234.032,79 231.642,79 266.306,0 268.698,0 	
		"/>
	<g>
		<path fill="#FFFFFF" d="M31.538,38.815v11.768c-3.11,0-6.273,0-9.435,0v-36.29c7.413,0,15.19,0,22.604,0c0,3.059,0,5.184,0,8.295
			H31.538v7.932h11.665c0,3.111,0,5.08,0,8.295H31.538z"/>
		<path fill="#FFFFFF" d="M46.522,32.49c0-25.092,37.224-25.092,37.224,0C83.745,57.634,46.522,57.634,46.522,32.49z M74.258,32.49
			c0-13.064-18.197-13.064-18.197,0C56.061,45.659,74.258,45.659,74.258,32.49z"/>
		<path fill="#FFFFFF" d="M96.915,42.237h13.168c0,3.111,0,5.236,0,8.347c-7.465,0-15.138,0-22.5,0v-36.29c3.11,0,6.169,0,9.332,0
			C96.915,33.061,96.915,26.788,96.915,42.237z"/>
		<path fill="#FFFFFF" d="M122.631,42.237h13.168c0,3.111,0,5.236,0,8.347c-7.465,0-15.138,0-22.5,0v-36.29c3.111,0,6.169,0,9.332,0
			C122.631,33.061,122.631,26.788,122.631,42.237z"/>
		<path fill="#FFFFFF" d="M136.837,32.49c0-25.092,37.224-25.092,37.224,0C174.061,57.634,136.837,57.634,136.837,32.49z
			 M164.573,32.49c0-13.064-18.197-13.064-18.197,0C146.376,45.659,164.573,45.659,164.573,32.49z"/>
		<path fill="#FFFFFF" d="M199.932,14.864l6.169,19.286h0.156l1.607-6.169l4.614-13.687h9.228v1.4l-12.598,35.253h-5.34
			l-5.806-17.471h-0.156L192,50.947h-5.133l-12.753-35.253v-1.4h9.384l4.666,13.687l1.607,6.169h0.156l6.065-19.286
			C197.444,14.864,198.48,14.864,199.932,14.864z"/>
	</g>
</g>
</svg>
