<?xml version="1.0" encoding="utf-8"?>
<!-- Generator: Adobe Illustrator 17.0.0, SVG Export Plug-In . SVG Version: 6.00 Build 0)  -->
<!DOCTYPE svg PUBLIC "-//W3C//DTD SVG 1.1//EN" "http://www.w3.org/Graphics/SVG/1.1/DTD/svg11.dtd">
<svg version="1.1" id="Layer_1" xmlns="http://www.w3.org/2000/svg" xmlns:xlink="http://www.w3.org/1999/xlink" x="0px" y="0px"
	 width="706px" height="236.62px" viewBox="0 0 706 236.62" enable-background="new 0 0 706 236.62" xml:space="preserve">
<g>
	<g>
		<g>
			<path fill="#58585A" d="M237.01,123.294c0-19.055,10.43-29.1,31.418-29.1c10.687,0,19.184,1.418,25.365,4.378
				c4.249,1.932,5.021,3.22,5.021,7.469v56.912c0,18.153-9.784,29.742-31.03,29.742c-13.777,0-23.306-4.248-28.714-12.747
				c-1.931-3.09-1.158-5.536,2.447-7.469l10.816-5.278c2.961-1.416,5.278-1.03,6.952,1.288c2.446,3.09,5.15,4.634,8.37,4.634
				c4.764,0,7.081-2.446,7.081-7.466v-5.153c-3.476,0.516-6.308,0.774-8.756,0.774c-19.442,0-28.971-9.787-28.971-27.684V123.294z
				 M269.071,115.053c-5.279,0-7.982,2.318-7.982,7.083v11.975c0,4.248,2.446,6.436,7.34,6.436c2.06,0,5.407-0.644,6.308-0.644
				v-23.689c0-0.388-0.128-0.516-0.386-0.644C273.062,115.181,271.26,115.053,269.071,115.053z"/>
		</g>
		<g>
			<path fill="#58585A" d="M306.549,123.938c0-19.185,11.202-29.744,32.19-29.744c21.244,0,32.318,11.719,32.318,28.2v7.08
				c0,4.506-2.317,6.697-7.081,6.697h-33.477v2.446c0,5.536,2.832,8.368,8.37,8.368c4.377,0,7.853-1.544,10.301-4.764
				c1.673-2.574,2.961-2.96,7.21-1.286l8.883,3.862c3.477,1.674,4.249,4.12,2.447,7.466c-4.893,8.499-14.55,12.749-29.1,12.749
				c-22.017,0-32.061-11.717-32.061-29.744V123.938z M346.979,118.916c0-5.15-2.704-7.724-8.241-7.724
				c-5.538,0-8.241,2.574-8.241,7.724v1.674h16.481V118.916z"/>
		</g>
		<g>
			<path fill="#58585A" d="M377.245,123.938c0-19.185,11.203-29.744,32.19-29.744c21.245,0,32.318,11.719,32.318,28.2v7.08
				c0,4.506-2.318,6.697-7.081,6.697h-33.477v2.446c0,5.536,2.832,8.368,8.368,8.368c4.378,0,7.855-1.544,10.301-4.764
				c1.674-2.574,2.962-2.96,7.21-1.286l8.885,3.862c3.476,1.674,4.249,4.12,2.446,7.466c-4.892,8.499-14.549,12.749-29.099,12.749
				c-22.017,0-32.061-11.717-32.061-29.744V123.938z M417.676,118.916c0-5.15-2.704-7.724-8.241-7.724
				c-5.536,0-8.241,2.574-8.241,7.724v1.674h16.481V118.916z"/>
		</g>
		<g>
			<path fill="#58585A" d="M513.096,156.514c2.446,4.506,1.158,6.566-3.992,6.566h-11.845c-6.053,0-7.855-0.772-9.4-4.892
				l-5.794-15.451c-1.159-2.576-3.09-3.862-5.923-3.862h-2.317v19.183c0,3.734-1.287,5.022-5.021,5.022h-14.035
				c-3.734,0-4.892-1.288-4.892-5.022V72.821c0-3.734,1.158-5.022,4.892-5.022h14.035c3.734,0,5.021,1.288,5.021,5.022v46.481h1.931
				h0.773l10.816-18.541c2.06-3.732,3.734-4.634,9.271-4.634h11.459c5.15,0,6.438,2.06,3.992,6.308l-14.55,24.98
				c1.545,1.288,2.961,3.22,4.249,5.794L513.096,156.514z"/>
		</g>
		<g>
			<path fill="#6FC4C8" d="M539.886,67.928c3.734,0,5.021,1.158,5.021,4.892v22.148c3.605-0.516,6.566-0.774,8.756-0.774
				c19.442,0,28.971,9.787,28.971,27.684v13.905c0,19.443-10.43,29.23-31.417,29.23c-10.172,0-18.541-1.416-25.366-4.378
				c-4.249-2.06-5.021-3.09-5.021-7.596V72.821c0-3.734,1.288-4.892,5.021-4.892H539.886z M558.684,121.362
				c0-4.248-2.446-6.436-7.338-6.436c-1.674,0-3.734,0.256-6.438,0.9v27.04c0,0.386,0.129,0.516,0.258,0.644
				c1.158,0.386,3.09,0.644,5.536,0.644c5.279,0,7.982-2.318,7.982-7.083V121.362z"/>
		</g>
		<g>
			<path fill="#6FC4C8" d="M589.852,122.394c0-17.641,11.331-28.2,31.932-28.2c20.73,0,31.931,10.301,31.931,28.2v14.421
				c0,17.897-11.201,28.198-31.931,28.198c-20.601,0-31.932-10.559-31.932-28.198V122.394z M629.896,121.75
				c0-4.636-2.704-6.955-8.112-6.955c-5.279,0-7.984,2.318-7.984,6.955v15.707c0,4.506,2.704,6.824,7.984,6.824
				c5.407,0,8.112-2.318,8.112-6.824V121.75z"/>
		</g>
		<g>
			<path fill="#6FC4C8" d="M687.203,80.675c3.732,0,5.02,1.288,5.02,4.892v10.559h8.885c3.734,0,4.892,1.288,4.892,4.892v9.657
				c0,3.734-1.158,5.022-4.892,5.022h-8.885v18.927c0,6.824,2.188,9.012,8.757,9.012c3.99,0,5.02,1.288,5.02,5.022v11.073
				c0,3.734-1.03,5.022-5.02,5.022c-22.792,0.386-32.834-7.338-32.834-28.456v-20.601h-5.536c-3.734,0-4.892-1.288-4.892-5.022
				v-9.657c0-3.604,1.158-4.892,4.892-4.892h5.536V85.567c0-3.604,1.288-4.892,5.022-4.892H687.203z"/>
		</g>
	</g>
	<g>
		<circle fill="#6FC4C8" cx="106.374" cy="130.246" r="106.374"/>
	</g>
	<g>
		<g>
			<path fill="#CFD1D2" d="M70.592,230.444c11.183,3.994,23.227,6.175,35.782,6.175c12.302,0,24.113-2.095,35.105-5.937
				l-1.911-31.782H72.439L70.592,230.444z"/>
		</g>
		<g>
			<path fill="#B9BBBC" d="M178.912,107.56c-13.304-0.855-8.819,10.263-9.673,23.568c-0.855,13.304-6.726,23.757,6.578,24.611
				c13.304,0.855,16.487-9.771,17.342-23.075C194.014,119.36,192.216,108.415,178.912,107.56z"/>
		</g>
		<g>
			<path fill="#A5A5A5" d="M141.022,223.741l-1.455-24.84H72.439l-0.762,13.004C82.609,225.743,134.953,229.643,141.022,223.741z"/>
		</g>
		<g>
			<path fill="#CFD1D2" d="M33.094,107.56c13.304-0.855,8.819,10.263,9.673,23.568c0.855,13.304,6.726,23.757-6.578,24.611
				s-16.487-9.771-17.342-23.075S19.79,108.415,33.094,107.56z"/>
		</g>
		<g>
			<path fill="#DFE0E1" d="M106.003,13.841L106.003,13.841L106.003,13.841L106.003,13.841L106.003,13.841
				c-41.069,0-74.362,33.293-74.362,74.362c0,0,0,79.398,0,89.222c0,9.823,12.228,36.219,74.362,36.219s74.362-26.396,74.362-36.219
				c0-9.823,0-89.222,0-89.222C180.365,47.134,147.072,13.841,106.003,13.841z"/>
		</g>
		<g>
			<path fill="#C6C7C8" d="M106.003,213.643c62.134,0,74.362-26.396,74.362-36.219s0-89.222,0-89.222
				c0-41.069-33.293-74.362-74.362-74.362L106.003,213.643z"/>
		</g>
		<g>
			<path fill="#F4F4F4" d="M39.897,84.226c-0.166,0-0.333-0.012-0.501-0.037c-1.884-0.274-3.189-2.024-2.915-3.908
				c0.392-2.692,0.946-5.384,1.646-8.002c0.493-1.839,2.384-2.928,4.222-2.439c1.839,0.492,2.932,2.382,2.439,4.222
				c-0.631,2.359-1.131,4.786-1.484,7.213C43.055,82.99,41.581,84.226,39.897,84.226z"/>
		</g>
		<g>
			<path fill="#F4F4F4" d="M46.908,62.728c-0.544,0-1.095-0.129-1.609-0.401c-1.683-0.891-2.326-2.977-1.435-4.66
				c6.404-12.103,16.12-22.014,28.097-28.66c1.665-0.923,3.764-0.323,4.688,1.342c0.924,1.665,0.323,3.764-1.342,4.688
				c-10.806,5.996-19.571,14.937-25.348,25.855C49.34,62.061,48.145,62.728,46.908,62.728z"/>
		</g>
		<g>
			<path fill="#58585A" d="M172.564,94.704c-10.085-0.78-25.518-1.097-44.506,2.332c-7.262,1.311-12.469,6.274-22.055,6.274
				c-9.587,0-14.793-4.963-22.055-6.274c-18.988-3.429-34.42-3.112-44.506-2.332c-8.582,0.663-21.03,2.369-20.598,6.908
				c0.248,2.605,0.502,3.168,1.003,5.73c0.497,2.541,4.252,2.219,5.539,5.224c1.383,3.228,5.235,17.121,6.221,20.26
				c1.982,6.311,6.091,11.048,12.436,13.227c8.992,3.088,18.152,3.024,27.445,1.733c6.785-0.943,12.352-4.309,16.837-9.497
				c3.555-4.112,6.084-8.808,8.13-13.803c1.015-2.479,1.878-5.064,3.245-7.34c0.808-1.346,2.36-2.908,3.762-3.114
				c0.939-0.138,1.779-0.248,2.542-0.3c0.762,0.053,1.602,0.163,2.541,0.3c1.402,0.205,2.953,1.768,3.761,3.114
				c1.367,2.276,2.23,4.861,3.245,7.34c2.046,4.995,4.575,9.691,8.13,13.803c4.484,5.188,10.052,8.554,16.837,9.497
				c9.293,1.291,18.454,1.356,27.445-1.733c6.346-2.18,10.453-6.916,12.436-13.227c0.986-3.139,4.838-17.032,6.222-20.26
				c1.287-3.005,5.042-2.683,5.539-5.224c0.501-2.563,0.754-3.125,1.003-5.73C193.594,97.073,181.145,95.368,172.564,94.704z
				 M89.96,116.597c-0.409,8.719-3.755,16.165-10.405,21.936c-3.758,3.262-9.411,4.556-21.011,4.556
				c-11.742,0-18.266-4.969-19.782-8.255c-3.66-7.93-5.071-16.514-3.651-25.26c0.883-5.434,1.498-8.353,19.54-8.353
				c19.991,0,27.94,3.717,30.376,4.893C88.901,107.986,90.159,112.359,89.96,116.597z M173.244,134.834
				c-1.517,3.286-8.04,8.255-19.783,8.255c-11.6,0-17.253-1.293-21.011-4.556c-6.649-5.771-9.995-13.217-10.405-21.936
				c-0.199-4.239,1.06-8.611,4.935-10.483c2.435-1.176,10.385-4.893,30.376-4.893c18.041,0,18.656,2.919,19.539,8.353
				C178.315,118.321,176.903,126.904,173.244,134.834z"/>
		</g>
		<g opacity="0.5">
			<path fill="#FFFFFF" d="M89.96,116.597c-0.409,8.719-3.755,16.165-10.405,21.936c-3.758,3.262-9.411,4.556-21.011,4.556
				c-11.742,0-18.266-4.969-19.782-8.255c-3.66-7.93-5.071-16.514-3.651-25.26c0.883-5.434,1.498-8.353,19.54-8.353
				c19.991,0,27.94,3.717,30.376,4.893C88.901,107.986,90.159,112.359,89.96,116.597z M173.244,134.834
				c-1.517,3.286-8.04,8.255-19.783,8.255c-11.6,0-17.253-1.293-21.011-4.556c-6.649-5.771-9.995-13.217-10.405-21.936
				c-0.199-4.239,1.06-8.611,4.935-10.483c2.435-1.176,10.385-4.893,30.376-4.893c18.041,0,18.656,2.919,19.539,8.353
				C178.315,118.321,176.903,126.904,173.244,134.834z"/>
		</g>
		<g>
			<path fill="#FFFFFF" d="M113.72,118.032c0,1.399-1.135,2.534-2.534,2.534h-9.624c-1.399,0-2.534-1.135-2.534-2.534v-16.479
				c0-1.399,1.135-2.534,2.534-2.534h9.624c1.399,0,2.534,1.135,2.534,2.534V118.032z"/>
		</g>
		<g>
			<path fill="#FFFFFF" d="M158.914,169.353c-5.126-10.329-12.541,2.334-52.91,2.334s-47.785-12.664-52.91-2.334
				c-5.546,11.177,26.654,22.756,52.91,22.756S164.46,180.531,158.914,169.353z"/>
		</g>
		<g>
			<path fill="#F4F4F4" d="M158.914,169.353c-5.126-10.329-12.541,2.334-52.91,2.334v20.421
				C132.26,192.109,164.46,180.531,158.914,169.353z"/>
		</g>
		<g>
			<path fill="#87888A" d="M106.003,0C89.719,0,77.95,6.298,79.485,14.011c1.535,7.713,4.527,23.773,26.519,23.773
				s24.984-16.06,26.519-23.773C134.057,6.298,122.288,0,106.003,0z"/>
		</g>
		<g>
			<path fill="#707173" d="M106.003,0c16.285,0,28.054,6.298,26.519,14.011c-1.535,7.713-4.527,23.773-26.519,23.773V0z"/>
		</g>
	</g>
</g>
</svg>
