<svg width="300" height="101" xmlns="http://www.w3.org/2000/svg">
  <g fill="#C9262F" fill-rule="nonzero">
    <path d="M92.371 19.614c-4.289-3.259-9.641-4.86-15.018-4.86-1.004 0-2.006.055-3.004.167l7.73-2.947-.681-1.793-11.495 4.38c-.746-4.148-4.03-9.037-7.27-11.463A14.484 14.484 0 0 0 53.978.31h-.351c-2.158.05-5.67 1.753-7.536 2.816-7.563 4.306-10.775 12.702-12.604 21.257 2.026-4.068 5.667-7.325 10.526-9.357-1.618 1.627-2.26 3.185-3.24 5.694-.98 2.51-1.619 5.289-1.203 8.366.799-2.662 1.61-5.103 3.632-6.73 0 1.946 1.2 4.613 1.234 5.577.12-2.562 1.655-7.197 3.462-8.907 2.584-2.445 5.504-4.824 9.006-5.397.408-.067.82-.1 1.234-.1 2.466 0 5.035 1.144 6.314 3.117L53.131 20.96l-2.692 2.051 3.367-.257 8.14-3.098a27.96 27.96 0 0 0-3.22 2.652 16.723 16.723 0 0 0-3.471 4.647s-2.945 4.688-1.872 13.43c.036.463.097.924.185 1.38.16.783.444 1.672.444 1.672l.207-.04 31.292-6.178.512.487 2.315 2.103.407-3.15 2.93 3.15h11.056l.055-.056c-.015-5.096-2-9.963-5.096-14.446a24.96 24.96 0 0 0-5.319-5.692z"/>
    <path d="M102.62 41.342H90.928l-.46-.592-.616-.793v.01l-.308 2.986-2.217-2.014-2.26-2.05-30.555 6.034c.385 1.314.894 3.21 1.498 4.418h44.433c1.125-2.305 1.865-5.418 2.177-8zm-34.48 6.001c-1.616 0-2.828 1.32-2.828-.31a2.936 2.936 0 0 1 2.93-2.943 2.936 2.936 0 0 1 2.929 2.943c.012 1.63-1.4.31-3.031.31zm21.407 0c-1.619 0-2.828 1.32-2.828-.31a2.936 2.936 0 0 1 2.93-2.943 2.936 2.936 0 0 1 2.929 2.943c.009 1.63-1.403.31-3.019.31h-.012zm-88.08 12.91c.281-1.651.423-3.343.873-4.957a21.307 21.307 0 0 1 6.638-10.602c3.111-2.698 6.642-3.61 10.662-2.82 3.198.62 7.878 2.873 9.894 4.834-.243.465-.527.27-.844.084-1.946-1.14-3.984-2.036-6.238-2.358-5.88-.84-10.791 3.2-11.155 9.146-.123 1.964.16 3.872.506 5.784l-10.335.889zm.1-4.985c-.167-.034-.309-.053-.432-.087-.333-.09-.663-.189-1.08-.31l.506-1.583 1.514.419-.509 1.561z"/>
    <path d="M12.166 56.712c1.474.27 1.542.365 1.66 1.859-1.527-.192-1.629-.307-1.66-1.86zm.1-4.855c.955.415.955.415.813 1.927-1.12-.344-1.187-.496-.814-1.927zm-7.478-3.405l-.983-.719.94-.95.833.6-.79 1.07zm3.894-5.666l.925-.62.645.809-.925.65-.645-.84zm4.832 5.902l.721-.821c.71.728.71.728 0 1.713l-.721-.892zm4.233-3.145l.308.725-.943.514c-.567-.805-.533-.873.635-1.24zm2.834-4.753c1.144.072 1.233.143 1.233.973-1.085.016-1.283-.142-1.233-.973zm1.538 4.902l-1.205-.028-.028-.778 1.172.059.061.747zm-7.936-5.187c.567.05 1.258-.474 1.39.567-.511-.03-1.208.546-1.39-.567zM7.96 99.72c.277-.086.558-.173.839-.254.114-.03.13-.093.092-.198a29.928 29.928 0 0 1-.308-1.022l-.068-.214 1.372-.44-.308-.973 18.058-5.657.309.957 1.393-.437.077.245c.102.329.207.657.309.989.037.123.083.167.215.12.269-.093.543-.176.814-.263l.309.985-.24.068-22.323 7c-.08.024-.158.055-.235.083l-.305-.989zm17.217-20.014L5.26 85.95c-.055-.176-.117-.347-.154-.523 0-.047.05-.127.095-.168l2.683-2.261 4.733-3.994c.326-.273.647-.555.983-.818.09-.066.198-.1.309-.099 1.06.093 2.12.201 3.181.31l5.59.523c.716.069 1.428.14 2.159.205a.198.198 0 0 1 .203.158c.034.127.086.27.136.424z"/>
    <path d="M16.896 83.982l1.893-.595c.972 2.81 2.34 6.847 3.318 9.663l-2.405.756c-.802-2.863-1.998-6.946-2.806-9.824zm-4.31 1.338c.616-.189 1.165-.362 1.726-.542.136-.043.152.047.182.13.12.338.37 1.085.484 1.422l1.462 4.254c.324.93.925 2.698 1.233 3.64.022.06.037.121.062.192l-2.396.753c-.777-2.872-1.96-6.964-2.753-9.849zm-4.35 1.376l1.85-.58c.97 2.807 2.34 6.844 3.317 9.664l-2.356.737c-.808-2.863-2.007-6.95-2.812-9.821zm14.86-4.654c.975 2.82 2.34 6.85 3.315 9.664l-2.362.737c-.801-2.86-2-6.95-2.805-9.821l1.853-.58z"/>
    <path d="M23.55 81.218l.277.896-16.082 5.04-.277-.895 16.082-5.04zm104.664-55.974c2.183.654 4.366 1.31 6.555 1.955.268.055.48.262.542.53.551 1.858 1.118 3.71 1.7 5.551a.489.489 0 0 1-.275.682c-4.401 2.576-8.797 5.157-13.187 7.745-.309.18-.432.137-.59-.173-2.289-4.556-4.587-9.107-6.893-13.65a.42.42 0 0 1 .132-.62 412.743 412.743 0 0 0 4.647-3.833.734.734 0 0 1 .777-.16c2.195.668 4.393 1.32 6.592 1.976v-.003zm1.81 6.816l-7.092-2.122 1.15 9.18 5.942-7.058zm-12.404-3.718l5.004 9.865a5.441 5.441 0 0 0-.071-1.11c-.333-2.407-.66-4.814-1.002-7.221-.019-.146-.099-.372-.2-.403-1.203-.381-2.412-.734-3.731-1.128v-.003zm17.448 5.214c-1.163-.35-2.22-.654-3.271-.985a.477.477 0 0 0-.596.18c-1.32 1.549-2.651 3.08-3.98 4.619l-1.468 1.7.047.057 9.268-5.57zm-5.094-2.971l-2.087-4.077-3.962 2.27 6.05 1.807zm-7.751-6.16l.463 3.682 4.06-2.327-4.523-1.354zm7.014 2.089l2.066 4.046 2.306-2.739-4.372-1.307zm3.192 4.805l3.083.93c-.352-1.137-.682-2.215-1.03-3.352l-2.053 2.422zm-11.5-6.404l-2.634 2.17 3.018.9-.385-3.07zM98.63 50.946H33.44l5.187 46.5h80.402l5.189-46.5H98.63zM69.382 70.774h2.692V68.07h5.405v2.704h2.7V68.07h5.393v2.704H80.18v2.714h-2.692v-2.704h-5.414v5.43h-2.7l.008-5.44zm2.692 5.46v-.032h2.695v2.708h-2.704l.009-2.677zm2.704 2.704v-.028h2.692v2.714h-2.701l.009-2.686zm13.498-2.723h-2.704v2.708h-2.7v2.714h-2.683v2.713h-2.7v-2.713h2.69v-2.714h2.693v-2.708h2.691v-5.428h2.692l.021 5.428zm60.358-4.818l-2.346 1.819-8.861-10.912 3.126-2.426 8.081 11.52z"/>
    <path d="M136.86 52.836l2.956 3.86-5.275 4.093-2.957-3.851a5.716 5.716 0 0 0 .95 5.096c1.917 2.494 4.877 2.17 7.36.245 2.481-1.924 3.545-4.724 1.627-7.219a5.66 5.66 0 0 0-4.662-2.224zM34.266 35.257s-3.117-2.203-5.241.189c-2.125 2.392 7.973 5.713 7.973 5.713s4.582-8.114 2.121-9.499c-2.46-1.385-4.853 3.597-4.853 3.597zm104.35 63.615l-3.188-4.54-5.529.066 3.312-4.45-1.767-5.266 5.242 1.79 4.436-3.317-.08 5.555 4.511 3.212-5.29 1.642-1.647 5.308zm-2.344-6.197l1.767 2.516.925-2.94 2.93-.911-2.504-1.785.043-3.08-2.467 1.841-2.901-.994.98 2.921-1.85 2.479 3.077-.047zm48.266-51.727c0 1.653-.396 2.974-1.188 3.963a5.875 5.875 0 0 1-3.29 2.008l4.148 8.334h-3.488l-4.008-8.071h-4.581v8.07h-3.016V34.858h8.901a8.456 8.456 0 0 1 2.507.366c.756.229 1.46.605 2.072 1.106a5.218 5.218 0 0 1 1.421 1.896c.367.86.545 1.789.522 2.723zm-3.084.087c0-1.068-.308-1.884-.925-2.447a3.6 3.6 0 0 0-2.5-.846h-5.898v6.562h5.895a3.737 3.737 0 0 0 2.485-.8c.635-.542.956-1.369.956-2.469h-.013z"/>
    <path d="M184.896 55.67h-4.434l-4.008-8.07h-3.906v8.07h-3.851V34.44h9.32a8.902 8.902 0 0 1 2.63.384c.808.246 1.56.648 2.214 1.184a5.627 5.627 0 0 1 1.542 2.045c.392.914.583 1.902.561 2.896 0 1.742-.432 3.16-1.283 4.223a6.165 6.165 0 0 1-3.003 2.014l4.218 8.486zm-3.91-.833h2.569l-4.076-8.194.506-.127a5.5 5.5 0 0 0 3.049-1.86c.728-.91 1.098-2.168 1.098-3.698a6.182 6.182 0 0 0-.485-2.55 4.79 4.79 0 0 0-1.307-1.744 5.627 5.627 0 0 0-1.94-1.035 8.063 8.063 0 0 0-2.383-.344h-8.485v19.552h2.18v-8.073h5.242l4.033 8.073zm-2.95-10.118h-6.324v-7.395h6.315a4.027 4.027 0 0 1 2.775.95c.715.645 1.079 1.575 1.079 2.761 0 1.24-.373 2.169-1.104 2.788a4.146 4.146 0 0 1-2.75.893l.009.003zm-5.479-.837h5.47c.799.043 1.587-.207 2.217-.703.542-.455.804-1.156.804-2.14 0-.986-.262-1.652-.798-2.135a3.178 3.178 0 0 0-2.223-.738h-5.48l.01 5.716zm24.154 11.37v-1.514c-.54.537-1.165.98-1.85 1.31a5.22 5.22 0 0 1-2.321.524 6.547 6.547 0 0 1-1.869-.276 4.817 4.817 0 0 1-1.696-.89 4.604 4.604 0 0 1-1.233-1.601 5.47 5.47 0 0 1-.478-2.389 4.937 4.937 0 0 1 .463-2.215c.298-.61.736-1.14 1.276-1.549a5.483 5.483 0 0 1 1.915-.905 9.478 9.478 0 0 1 2.405-.29 8.4 8.4 0 0 1 3.391.582v-1.116a2.485 2.485 0 0 0-.737-1.924c-.493-.446-1.204-.669-2.133-.669a8.925 8.925 0 0 0-2.13.233 7.686 7.686 0 0 0-1.85.728l-1.16-2.271a9.34 9.34 0 0 1 2.35-1.023 10.69 10.69 0 0 1 2.87-.347c1.698 0 3.075.423 4.131 1.267 1.057.845 1.583 2.132 1.58 3.86v10.488l-2.924-.012zm0-6.527a5.682 5.682 0 0 0-1.434-.496 10.247 10.247 0 0 0-2.044-.173 3.812 3.812 0 0 0-2.29.62 1.942 1.942 0 0 0-.842 1.66 2.432 2.432 0 0 0 .727 1.834c.481.468 1.234.7 2.202.7a4.015 4.015 0 0 0 2.189-.62c.58-.344 1.086-.799 1.492-1.338v-2.187z"/>
    <path d="M192.54 55.99a7.115 7.115 0 0 1-1.986-.291 5.202 5.202 0 0 1-1.85-.967 5.028 5.028 0 0 1-1.347-1.744 5.892 5.892 0 0 1-.518-2.572 5.357 5.357 0 0 1 .505-2.4 4.723 4.723 0 0 1 1.4-1.692 5.975 5.975 0 0 1 2.057-.976 10.974 10.974 0 0 1 5.488.093v-.518c.045-.6-.175-1.19-.601-1.614-.414-.372-1.036-.56-1.85-.56a8.618 8.618 0 0 0-2.032.22 7.219 7.219 0 0 0-1.74.69l-.375.208-1.542-3.005.333-.202c.77-.468 1.6-.826 2.467-1.066a11.147 11.147 0 0 1 2.981-.365c1.788 0 3.265.458 4.39 1.36 1.126.902 1.737 2.333 1.737 4.189v10.905h-3.762v-1.016a7.615 7.615 0 0 1-1.255.771 5.672 5.672 0 0 1-2.5.552zm.78-10.11a9.09 9.09 0 0 0-2.3.28 5.12 5.12 0 0 0-1.77.833 3.912 3.912 0 0 0-1.153 1.397 4.539 4.539 0 0 0-.42 2.026 5.065 5.065 0 0 0 .438 2.206c.26.564.643 1.063 1.12 1.46a4.38 4.38 0 0 0 1.541.811 5.384 5.384 0 0 0 3.888-.223 6.352 6.352 0 0 0 1.745-1.24l.712-.715v2.122h2.094V44.768c0-1.61-.466-2.766-1.425-3.535-.959-.768-2.275-1.174-3.87-1.174-.935-.015-1.868.097-2.774.335a8.917 8.917 0 0 0-1.909.777l.79 1.55a7.684 7.684 0 0 1 1.56-.57 9.29 9.29 0 0 1 2.229-.245c1.03 0 1.85.26 2.411.777a2.87 2.87 0 0 1 .879 2.234v1.778l-.586-.26a8.053 8.053 0 0 0-3.2-.554zm-.287 7.408c-1.092 0-1.93-.275-2.491-.818a2.839 2.839 0 0 1-.854-2.134 2.358 2.358 0 0 1 1.014-2.002 4.233 4.233 0 0 1 2.534-.69c.715-.011 1.429.05 2.13.182a6.008 6.008 0 0 1 1.543.533l.225.118v2.574l-.08.112a5.67 5.67 0 0 1-1.61 1.45 4.442 4.442 0 0 1-2.411.675zm.203-4.808a3.45 3.45 0 0 0-2.047.533 1.551 1.551 0 0 0-.666 1.323 2.01 2.01 0 0 0 .595 1.53c.401.388 1.045.586 1.915.586a3.637 3.637 0 0 0 1.967-.549 5.002 5.002 0 0 0 1.298-1.124v-1.785a5.583 5.583 0 0 0-1.104-.347 9.602 9.602 0 0 0-1.958-.173v.006zm14.267-12.427a1.938 1.938 0 0 1-1.912 1.924 1.873 1.873 0 0 1-1.378-.57 1.863 1.863 0 0 1-.564-1.354c-.005-.519.199-1.018.564-1.384a1.922 1.922 0 0 1 1.378-.568c.507-.004.995.2 1.347.567.37.365.574.865.565 1.385zm-3.42 19.209V39.966h3.016v15.296h-3.016z"/>
    <path d="M207.503 55.67h-3.84V39.54h3.84V55.67zm-3.016-.836h2.18V40.375h-2.18v14.46zm1.092-16.439a2.285 2.285 0 0 1-1.675-.69 2.267 2.267 0 0 1-.687-1.652 2.364 2.364 0 0 1 .688-1.68 2.34 2.34 0 0 1 1.674-.69 2.245 2.245 0 0 1 1.643.691c.447.442.695 1.049.684 1.68a2.352 2.352 0 0 1-2.327 2.341zm0-3.875c-.409-.003-.8.16-1.088.452a1.528 1.528 0 0 0-.439 1.097c-.005.4.156.784.444 1.06a1.492 1.492 0 0 0 2.134 0c.289-.276.45-.66.444-1.06a1.472 1.472 0 0 0-.444-1.088 1.415 1.415 0 0 0-1.042-.461h-.01zm6.182 20.733V35.589l3.015-1.574v21.238h-3.015z"/>
    <path d="M215.21 55.67h-3.866V35.32l3.867-1.995V55.67zm-3.015-.836h2.18V34.7l-2.18 1.137v18.998zm17.744-3.776a4.333 4.333 0 0 1-.478 2.14 3.91 3.91 0 0 1-1.26 1.382 5.31 5.31 0 0 1-1.814.76 9.766 9.766 0 0 1-2.158.232 9.142 9.142 0 0 1-3.117-.555c-.966-.33-1.88-.801-2.71-1.397l1.363-2.271a8.46 8.46 0 0 0 2.217 1.137c.714.243 1.462.37 2.216.378 1.85 0 2.775-.564 2.775-1.692 0-.582-.314-1.048-.943-1.397a21.433 21.433 0 0 0-2.593-1.165 15.488 15.488 0 0 1-2.072-.948 5.95 5.95 0 0 1-1.394-1.035 3.246 3.246 0 0 1-.768-1.239 4.957 4.957 0 0 1-.23-1.59 4.166 4.166 0 0 1 .375-1.806 3.565 3.565 0 0 1 1.073-1.31 4.849 4.849 0 0 1 1.653-.787 7.928 7.928 0 0 1 2.087-.26 8.516 8.516 0 0 1 2.797.464 8.713 8.713 0 0 1 2.365 1.224l-1.305 2.302a7.101 7.101 0 0 0-1.886-.991 6.415 6.415 0 0 0-2.057-.31c-.734 0-1.267.13-1.594.393-.314.237-.497.61-.493 1.004-.003.186.036.37.114.54.107.2.256.374.438.51.265.209.551.39.854.54.357.183.826.39 1.406.62.85.33 1.594.644 2.232.944.58.265 1.121.608 1.61 1.02.42.36.753.814.97 1.325.23.585.341 1.21.327 1.838z"/>
    <path d="M224.23 55.99a9.637 9.637 0 0 1-3.257-.576 11.046 11.046 0 0 1-2.818-1.453l-.308-.227 1.791-2.986.367.257a8.045 8.045 0 0 0 2.106 1.081c.672.23 1.377.352 2.087.36 2.368 0 2.368-.958 2.368-1.274 0-.27-.077-.669-.727-1.031a21.602 21.602 0 0 0-2.544-1.14c-.73-.273-1.44-.599-2.124-.973a6.477 6.477 0 0 1-1.49-1.106 3.72 3.72 0 0 1-.863-1.398 5.343 5.343 0 0 1-.253-1.722 4.545 4.545 0 0 1 .417-1.986 3.946 3.946 0 0 1 1.199-1.466 5.203 5.203 0 0 1 1.791-.855 9.137 9.137 0 0 1 7.607 1.497l.308.22-1.727 3.027-.376-.27a6.66 6.66 0 0 0-1.773-.93 6.057 6.057 0 0 0-1.927-.31c-.466-.038-.933.07-1.335.31a.855.855 0 0 0-.259 1.035c.075.144.18.269.309.366.243.19.506.353.783.49.342.176.801.384 1.369.62.854.33 1.612.653 2.254.956.615.281 1.19.645 1.708 1.082.467.404.837.91 1.079 1.48.249.636.368 1.316.351 1.999a4.793 4.793 0 0 1-.53 2.345 4.33 4.33 0 0 1-1.394 1.528 5.824 5.824 0 0 1-1.951.818 10.25 10.25 0 0 1-2.239.232zm-5.27-2.479c.716.466 1.485.844 2.29 1.125a9.14 9.14 0 0 0 5.048.31 4.92 4.92 0 0 0 1.671-.697c.47-.317.857-.742 1.129-1.24.304-.598.45-1.264.425-1.936a4.303 4.303 0 0 0-.287-1.673 3.134 3.134 0 0 0-.86-1.171 6.541 6.541 0 0 0-1.514-.957 26.409 26.409 0 0 0-2.204-.93 16.906 16.906 0 0 1-1.446-.644 5.29 5.29 0 0 1-.925-.589 1.903 1.903 0 0 1-.55-.657 1.674 1.674 0 0 1-.153-.715 1.654 1.654 0 0 1 .65-1.332c.407-.326 1.015-.484 1.85-.484a6.882 6.882 0 0 1 2.19.341c.568.194 1.111.458 1.615.787l.891-1.577a8.52 8.52 0 0 0-1.949-.951 8.213 8.213 0 0 0-4.624-.195 4.36 4.36 0 0 0-1.511.715c-.406.302-.733.7-.95 1.159a3.733 3.733 0 0 0-.336 1.623c-.009.493.062.984.21 1.454.14.406.37.776.672 1.08.384.38.82.704 1.295.961a15.3 15.3 0 0 0 2.02.93 21.82 21.82 0 0 1 2.648 1.192c.956.533 1.156 1.24 1.156 1.763 0 .964-.555 2.11-3.2 2.11a7.45 7.45 0 0 1-2.347-.4 8.728 8.728 0 0 1-1.958-.929l-.946 1.527zm37.84-2.732a7.467 7.467 0 0 1-1.593 2.608 6.657 6.657 0 0 1-2.467 1.63 8.406 8.406 0 0 1-3.102.555 7.984 7.984 0 0 1-3.552-.772 7.817 7.817 0 0 1-2.694-2.168 10.195 10.195 0 0 1-1.727-3.325 15.133 15.133 0 0 1 0-8.489c.364-1.21.95-2.342 1.727-3.336a7.789 7.789 0 0 1 2.694-2.17 7.984 7.984 0 0 1 3.552-.77c1.663 0 3.055.325 4.175.975a7.318 7.318 0 0 1 2.726 2.841l-2.667 1.66a5.54 5.54 0 0 0-1.724-1.833 4.714 4.714 0 0 0-2.51-.586c-1.778 0-3.135.67-4.073 2.011-.937 1.34-1.406 3.157-1.406 5.45 0 2.288.469 4.104 1.406 5.446.938 1.343 2.295 2.013 4.073 2.01.724.02 1.445-.108 2.118-.377a3.872 3.872 0 0 0 2.233-2.463c.173-.56.26-1.145.259-1.732v-.09h-3.29v-2.93h6.407v2.357c.02 1.19-.172 2.375-.564 3.498z"/>
    <path d="M249.654 55.99a8.399 8.399 0 0 1-3.734-.815 8.178 8.178 0 0 1-2.84-2.283 10.738 10.738 0 0 1-1.797-3.458 15.578 15.578 0 0 1 0-8.743c.38-1.26.991-2.437 1.8-3.473a8.209 8.209 0 0 1 2.837-2.283 8.408 8.408 0 0 1 3.734-.815 8.652 8.652 0 0 1 4.384 1.032 7.781 7.781 0 0 1 2.88 2.999l.197.35-3.364 2.085-.222-.353a5.182 5.182 0 0 0-1.588-1.701 4.336 4.336 0 0 0-2.29-.52c-1.65 0-2.87.597-3.731 1.83-.86 1.233-1.332 3.015-1.332 5.208 0 2.194.45 3.944 1.332 5.205.882 1.261 2.081 1.831 3.73 1.831a4.955 4.955 0 0 0 1.943-.347 3.433 3.433 0 0 0 2.001-2.206c.127-.413.205-.84.231-1.273h-3.283v-3.77h7.242v2.788c.02 1.244-.18 2.482-.592 3.656a7.938 7.938 0 0 1-1.683 2.754 7.21 7.21 0 0 1-2.603 1.732 8.955 8.955 0 0 1-3.252.57zm0-21.033a7.637 7.637 0 0 0-3.37.73 7.382 7.382 0 0 0-2.55 2.055 9.816 9.816 0 0 0-1.656 3.2 14.7 14.7 0 0 0 0 8.238 9.813 9.813 0 0 0 1.656 3.179 7.375 7.375 0 0 0 2.55 2.054c1.052.5 2.205.752 3.37.734a8.037 8.037 0 0 0 2.95-.526 6.27 6.27 0 0 0 2.3-1.53 7.054 7.054 0 0 0 1.505-2.464c.377-1.08.56-2.22.54-3.365v-1.939h-5.572v2.104h3.3v.508a6.24 6.24 0 0 1-.281 1.859 4.262 4.262 0 0 1-2.467 2.72 5.744 5.744 0 0 1-2.282.412c-1.914 0-3.391-.734-4.415-2.187-.98-1.407-1.48-3.322-1.48-5.689s.5-4.284 1.48-5.688c1.018-1.453 2.5-2.19 4.415-2.19a5.16 5.16 0 0 1 2.73.644c.646.425 1.2.977 1.627 1.624l1.976-1.24a6.84 6.84 0 0 0-2.364-2.339 7.856 7.856 0 0 0-3.962-.904zm15.163 1.096a1.938 1.938 0 0 1-1.915 1.924 1.87 1.87 0 0 1-1.375-.57 1.863 1.863 0 0 1-.567-1.354 1.947 1.947 0 0 1 .566-1.383c.365-.366.86-.571 1.376-.569.509-.005.997.2 1.35.567.37.365.574.865.565 1.385zm-3.422 19.209V39.966h3.015v15.296h-3.015z"/>
    <path d="M264.826 55.67h-3.848V39.54h3.848V55.67zm-3.012-.836h2.18V40.375h-2.18v14.46zm1.088-16.439a2.282 2.282 0 0 1-1.67-.69 2.273 2.273 0 0 1-.688-1.652 2.364 2.364 0 0 1 .687-1.68 2.34 2.34 0 0 1 1.671-.69 2.246 2.246 0 0 1 1.64.707c.45.44.698 1.048.688 1.679a2.352 2.352 0 0 1-2.33 2.342l.002-.016zm0-3.875c-.408-.004-.8.159-1.087.45a1.522 1.522 0 0 0-.436 1.099c-.005.399.155.783.441 1.06a1.495 1.495 0 0 0 2.137 0c.288-.276.45-.66.444-1.06a1.472 1.472 0 0 0-.444-1.088 1.421 1.421 0 0 0-1.055-.461zm14.322 8.613a5.19 5.19 0 0 0-1.014-.41 4.822 4.822 0 0 0-1.274-.145 2.646 2.646 0 0 0-2.204.991c-.52.66-.781 1.64-.783 2.944v8.74h-3.016V39.966h3.01v1.456a4.24 4.24 0 0 1 3.48-1.775 6.055 6.055 0 0 1 1.52.158c.377.1.734.263 1.058.48l-.777 2.848z"/>
    <path d="M272.365 55.67h-3.848V39.54h3.848v.802c.251-.213.523-.4.81-.56a4.537 4.537 0 0 1 2.248-.564 6.34 6.34 0 0 1 1.628.176c.424.11.826.292 1.187.54l.244.17-.99 3.643-.46-.242A4.017 4.017 0 0 0 274.94 43a2.243 2.243 0 0 0-1.877.83c-.46.583-.694 1.485-.694 2.684l-.003 9.158zm-3.012-.833h2.18v-8.324c0-1.395.308-2.479.872-3.204a3.077 3.077 0 0 1 2.531-1.15c.468-.007.934.047 1.388.162.21.06.415.134.616.22l.568-2.07a3.259 3.259 0 0 0-.682-.27 5.665 5.665 0 0 0-1.412-.145 3.735 3.735 0 0 0-1.85.459 3.798 3.798 0 0 0-1.295 1.137l-.737 1.103v-2.38h-2.18v14.462zm11.84.416V35.589l3.012-1.574v21.238h-3.013z"/>
    <path d="M284.63 55.67h-3.851V35.32l3.851-2.008v22.36zm-3.015-.836h2.18V34.7l-2.18 1.137v18.998zm17.768-3.776a4.333 4.333 0 0 1-.478 2.14 3.881 3.881 0 0 1-1.26 1.382 5.31 5.31 0 0 1-1.814.76 9.766 9.766 0 0 1-2.158.232 9.155 9.155 0 0 1-3.117-.555 10.55 10.55 0 0 1-2.71-1.397l1.363-2.271a8.46 8.46 0 0 0 2.216 1.137c.715.243 1.463.37 2.217.378 1.85 0 2.775-.564 2.775-1.692 0-.582-.308-1.048-.925-1.397a21.734 21.734 0 0 0-2.596-1.165 15.488 15.488 0 0 1-2.072-.948 5.95 5.95 0 0 1-1.393-1.035 3.246 3.246 0 0 1-.768-1.239 4.957 4.957 0 0 1-.231-1.59 4.166 4.166 0 0 1 .376-1.806 3.565 3.565 0 0 1 1.073-1.31 4.877 4.877 0 0 1 1.652-.787 7.943 7.943 0 0 1 2.088-.26 8.503 8.503 0 0 1 2.796.464 8.713 8.713 0 0 1 2.365 1.224l-1.304 2.302a7.132 7.132 0 0 0-1.884-.991 6.446 6.446 0 0 0-2.06-.31c-.733 0-1.267.13-1.594.393-.314.237-.497.61-.493 1.004-.003.187.037.371.117.54a1.5 1.5 0 0 0 .435.51c.266.208.552.389.854.54.358.183.826.39 1.406.62.851.33 1.594.644 2.232.944.58.265 1.121.608 1.61 1.02.42.36.753.814.97 1.325.225.586.331 1.21.312 1.838z"/>
    <path d="M293.664 55.99a9.637 9.637 0 0 1-3.256-.576 11.046 11.046 0 0 1-2.818-1.453l-.308-.227 1.791-2.986.367.257a8.002 8.002 0 0 0 2.109 1.081c.671.231 1.375.352 2.084.36 2.368 0 2.368-.958 2.368-1.274 0-.27-.077-.669-.728-1.031A21.602 21.602 0 0 0 292.73 49a16.47 16.47 0 0 1-2.125-.973 6.477 6.477 0 0 1-1.489-1.106 3.72 3.72 0 0 1-.863-1.398 5.343 5.343 0 0 1-.253-1.722 4.505 4.505 0 0 1 .42-1.986 3.94 3.94 0 0 1 1.196-1.466 5.194 5.194 0 0 1 1.794-.855 9.137 9.137 0 0 1 7.606 1.497l.309.22-1.718 3.027-.376-.27a6.66 6.66 0 0 0-1.773-.93 6.057 6.057 0 0 0-1.927-.31c-.466-.038-.933.07-1.335.31a.855.855 0 0 0-.259 1.035c.075.144.18.269.309.366.244.189.506.353.783.49.342.176.801.384 1.369.62.854.33 1.612.653 2.254.956.615.281 1.19.645 1.708 1.082.468.403.837.91 1.079 1.48.25.636.37 1.316.354 1.999a4.759 4.759 0 0 1-.533 2.345 4.33 4.33 0 0 1-1.394 1.528 5.824 5.824 0 0 1-1.951.818c-.74.16-1.495.238-2.251.232zm-5.27-2.479c.717.466 1.486.844 2.292 1.125a9.14 9.14 0 0 0 5.047.31 4.92 4.92 0 0 0 1.67-.697c.47-.317.857-.742 1.13-1.24.304-.598.45-1.264.425-1.936a4.303 4.303 0 0 0-.287-1.673 3.134 3.134 0 0 0-.86-1.171 6.541 6.541 0 0 0-1.514-.957 25.974 25.974 0 0 0-2.205-.93 17.357 17.357 0 0 1-1.446-.644 5.29 5.29 0 0 1-.925-.589 1.903 1.903 0 0 1-.548-.657 1.674 1.674 0 0 1-.155-.715 1.654 1.654 0 0 1 .651-1.332c.407-.326 1.014-.484 1.85-.484a6.882 6.882 0 0 1 2.19.341c.568.194 1.111.458 1.615.787l.894-1.577a8.616 8.616 0 0 0-1.952-.951 8.213 8.213 0 0 0-4.625-.195 4.36 4.36 0 0 0-1.51.715c-.408.301-.734.7-.95 1.159a3.733 3.733 0 0 0-.336 1.623c-.01.493.062.984.21 1.454.14.406.37.776.672 1.08.385.381.822.705 1.298.961.648.36 1.322.67 2.016.93a21.82 21.82 0 0 1 2.649 1.192c.955.533 1.159 1.24 1.159 1.763 0 .964-.558 2.11-3.204 2.11a7.45 7.45 0 0 1-2.346-.4 8.728 8.728 0 0 1-1.958-.929l-.946 1.527zM183.963 93.794l-1.711-4.837h-8.118l-1.68 4.837h-3.161l7.304-20.392h3.219l7.4 20.392h-3.253zm-4.264-12.266c-.114-.369-.25-.774-.404-1.224-.154-.449-.308-.892-.45-1.338-.142-.446-.28-.861-.407-1.24a17.253 17.253 0 0 1-.275-.889c-.058.214-.145.512-.262.89-.117.378-.24.787-.376 1.223-.136.437-.274.89-.42 1.354-.144.465-.286.886-.418 1.255l-1.625 4.647h6.262l-1.625-4.678z"/>
    <path d="M187.804 94.212h-4.138l-1.708-4.833h-7.53l-1.68 4.833h-4.051l7.606-21.229h3.805l7.696 21.229zm-3.55-.837h2.36l-7.092-19.555h-2.63l-7.005 19.555h2.272l1.68-4.836h8.708l1.708 4.836zm-2.342-6.738h-7.44l1.819-5.217c.136-.369.274-.781.416-1.24l.796-2.574c.114-.375.2-.67.259-.877l.403-1.478.401 1.478c.056.207.145.495.269.864l.407 1.24c.141.443.292.889.447 1.332.154.443.29.858.407 1.24l1.816 5.232zm-6.26-.837h5.088l-1.434-4.145a80.538 80.538 0 0 0-.404-1.214c-.15-.447-.308-.896-.453-1.345l-.271-.833-.672 2.168c-.148.471-.29.896-.426 1.27l-1.427 4.1zm21.53 7.616c-.404.228-.839.4-1.29.508a6.565 6.565 0 0 1-1.638.189 3.235 3.235 0 0 1-2.507-.989c-.616-.658-.925-1.679-.925-3.06v-8.827h-2.158V78.5h2.158V74.13l2.93-1.574V78.5h3.767v2.736h-3.758v8.3c0 .719.12 1.205.36 1.456.334.286.77.423 1.206.381a4.052 4.052 0 0 0 1.187-.189 4.966 4.966 0 0 0 1.014-.424l-.345 2.655z"/>
    <path d="M194.245 94.534a3.654 3.654 0 0 1-2.815-1.124c-.679-.738-1.024-1.86-1.024-3.347v-8.405h-2.174v-3.584h2.174v-4.195l3.762-2.02v6.215h3.777v3.578h-3.768v7.885c0 .793.154 1.072.246 1.168.281.291 1.144.334 1.968.077.32-.094.63-.223.925-.384l.73-.418-.484 3.69-.179.105c-.437.25-.907.435-1.396.552a6.94 6.94 0 0 1-1.742.207zm-5.18-13.715h2.177v9.244c0 1.268.268 2.2.801 2.789a2.814 2.814 0 0 0 2.202.855 6.187 6.187 0 0 0 1.541-.177c.348-.085.685-.209 1.005-.368l.222-1.692c-.12.048-.247.09-.379.13a4.374 4.374 0 0 1-1.31.208 1.995 1.995 0 0 1-1.505-.508c-.308-.335-.478-.908-.478-1.748V80.82h3.771v-1.9h-3.768v-5.663l-2.093 1.125v4.538h-2.177l-.01 1.9zm21.743 12.975v-8.632c0-1.55-.273-2.636-.817-3.256a2.888 2.888 0 0 0-2.285-.93 2.77 2.77 0 0 0-2.3 1.017c-.534.677-.802 1.637-.802 2.878v8.923h-3.015V74.13l3.015-1.574-.03 7.42a3.843 3.843 0 0 1 1.609-1.326 5.281 5.281 0 0 1 2.217-.471c1.778 0 3.126.573 4.045 1.72.919 1.146 1.378 2.855 1.378 5.127v8.768h-3.015z"/>
    <path d="M214.24 94.212h-3.848v-9.05c0-1.437-.24-2.438-.716-2.977a2.46 2.46 0 0 0-1.97-.79 2.354 2.354 0 0 0-1.973.858c-.472.601-.712 1.481-.712 2.618v9.34h-3.848V73.877l3.863-1.999-.028 7.033a4.62 4.62 0 0 1 1.015-.62 5.696 5.696 0 0 1 2.39-.508c1.901 0 3.372.62 4.371 1.875 1 1.255 1.468 3.03 1.468 5.39l-.013 9.165zm-3.016-.837h2.183v-8.35c0-2.168-.435-3.8-1.286-4.863-.85-1.063-2.06-1.565-3.721-1.565a4.87 4.87 0 0 0-2.044.434 3.395 3.395 0 0 0-1.437 1.18l-.768 1.128.034-8.092-2.18 1.137v18.991h2.18v-8.504c0-1.332.308-2.389.897-3.138a3.163 3.163 0 0 1 2.624-1.178 3.294 3.294 0 0 1 2.596 1.075c.617.704.925 1.86.925 3.532l-.003 8.213zm19.24-7.534c0 .272-.01.53-.028.771-.022.245-.04.443-.059.598h-10.06c.055.651.211 1.29.462 1.893.206.485.502.925.873 1.298.33.329.725.586 1.159.756.424.166.876.25 1.332.248.599.01 1.195-.094 1.754-.31a6.468 6.468 0 0 0 1.542-.904l1.77 1.923a7.446 7.446 0 0 1-2.263 1.484c-.951.372-1.966.55-2.985.524a6.267 6.267 0 0 1-2.538-.524 5.95 5.95 0 0 1-2.102-1.549 7.56 7.56 0 0 1-1.422-2.506 10.232 10.232 0 0 1-.52-3.38c-.021-1.165.146-2.325.493-3.436.287-.908.75-1.75 1.362-2.478a5.693 5.693 0 0 1 2.112-1.556 6.887 6.887 0 0 1 2.71-.523 6.142 6.142 0 0 1 2.828.62c.784.392 1.468.959 2 1.657a7.255 7.255 0 0 1 1.188 2.447c.265.96.397 1.951.392 2.947zm-3.29-2.593a3.562 3.562 0 0 0-.654-1.224 3.085 3.085 0 0 0-1.085-.83 3.684 3.684 0 0 0-1.582-.31 3.033 3.033 0 0 0-2.393 1.007c-.59.669-.951 1.616-1.085 2.84h7.073a6.534 6.534 0 0 0-.274-1.483z"/>
    <path d="M223.97 94.534a6.755 6.755 0 0 1-2.704-.558 6.44 6.44 0 0 1-2.248-1.65 7.972 7.972 0 0 1-1.501-2.644 10.677 10.677 0 0 1-.546-3.522c-.02-1.21.154-2.415.515-3.57a7.657 7.657 0 0 1 1.443-2.633 6.118 6.118 0 0 1 2.254-1.639 7.27 7.27 0 0 1 2.874-.557 6.587 6.587 0 0 1 3.015.657 6.21 6.21 0 0 1 2.143 1.778 7.64 7.64 0 0 1 1.258 2.59c.275.995.412 2.022.407 3.055 0 .285 0 .551-.028.805s-.04.456-.062.62l-.046.365h-9.953c.069.45.193.887.37 1.305.184.435.449.832.78 1.168.29.29.637.516 1.018.666a3.91 3.91 0 0 0 2.775-.071 6.187 6.187 0 0 0 1.452-.846l.308-.233 2.307 2.507-.309.285a7.896 7.896 0 0 1-2.386 1.568 8.15 8.15 0 0 1-3.136.554zm.087-15.937a6.472 6.472 0 0 0-2.547.493 5.273 5.273 0 0 0-1.952 1.419 6.87 6.87 0 0 0-1.28 2.348 10.478 10.478 0 0 0-.471 3.303c-.02 1.1.144 2.196.487 3.24.292.87.747 1.674 1.341 2.37a5.533 5.533 0 0 0 1.955 1.435 5.877 5.877 0 0 0 2.37.49 7.325 7.325 0 0 0 2.825-.49 7.184 7.184 0 0 0 1.829-1.128l-1.234-1.335c-.42.294-.87.539-1.344.731a4.715 4.715 0 0 1-3.392.075 3.85 3.85 0 0 1-1.3-.846 4.593 4.593 0 0 1-.96-1.429 6.768 6.768 0 0 1-.5-2.02l-.045-.461h10.171c0-.068 0-.136.019-.214a10.491 10.491 0 0 0-.348-3.566 6.83 6.83 0 0 0-1.12-2.305 5.334 5.334 0 0 0-1.85-1.549 5.8 5.8 0 0 0-2.654-.56zm3.841 6.556h-7.988l.049-.465c.145-1.304.546-2.339 1.19-3.073a3.44 3.44 0 0 1 2.704-1.147 4.127 4.127 0 0 1 1.757.347c.475.215.896.532 1.234.93.33.402.58.867.73 1.366a6.96 6.96 0 0 1 .293 1.58l.031.462zm-7.042-.84h6.13a5.873 5.873 0 0 0-.21-.93 3.103 3.103 0 0 0-.577-1.08 2.669 2.669 0 0 0-.925-.72 3.331 3.331 0 0 0-1.406-.266 2.602 2.602 0 0 0-2.078.862 4.26 4.26 0 0 0-.934 2.134zm22.539 9.48v-8.63c0-1.552-.274-2.637-.82-3.257a2.882 2.882 0 0 0-2.282-.93 2.77 2.77 0 0 0-2.3 1.017c-.537.678-.802 1.639-.802 2.878v8.923h-3.015V78.52h3.015l-.03 1.456a3.806 3.806 0 0 1 1.609-1.326 5.272 5.272 0 0 1 2.217-.471c1.778 0 3.126.573 4.045 1.72.919 1.146 1.378 2.855 1.378 5.127v8.768h-3.015z"/>
    <path d="M246.826 94.212h-3.85v-9.05c0-1.437-.238-2.441-.713-2.977a2.46 2.46 0 0 0-1.97-.79 2.35 2.35 0 0 0-1.973.858c-.472.598-.713 1.481-.713 2.618v9.34h-3.85v-16.11h3.857v.787c.305-.248.64-.456.999-.62a5.696 5.696 0 0 1 2.374-.504c1.902 0 3.373.62 4.369 1.874.995 1.255 1.47 3.03 1.47 5.391v9.183zm-3.015-.837h2.18v-8.35c0-2.168-.432-3.8-1.283-4.863-.85-1.063-2.06-1.565-3.721-1.565a4.87 4.87 0 0 0-2.045.434 3.41 3.41 0 0 0-1.436 1.18l-.79 1.162.05-2.435h-2.159v14.437h2.18v-8.504c0-1.332.309-2.389.894-3.138a3.17 3.17 0 0 1 2.627-1.178 3.294 3.294 0 0 1 2.596 1.075c.617.704.925 1.86.925 3.532l-.018 8.213zm17.528-3.776a4.333 4.333 0 0 1-.478 2.14 3.946 3.946 0 0 1-1.26 1.385 5.308 5.308 0 0 1-1.814.756 9.766 9.766 0 0 1-2.158.233 9.21 9.21 0 0 1-3.111-.549 10.646 10.646 0 0 1-2.71-1.397l1.363-2.274a8.368 8.368 0 0 0 2.216 1.137c.714.24 1.462.364 2.214.366 1.85 0 2.775-.563 2.775-1.689 0-.582-.314-1.049-.943-1.4a21.928 21.928 0 0 0-2.593-1.165 15.31 15.31 0 0 1-2.072-.948 6.03 6.03 0 0 1-1.394-1.032 3.28 3.28 0 0 1-.768-1.24 4.951 4.951 0 0 1-.23-1.585 4.147 4.147 0 0 1 .375-1.807 3.516 3.516 0 0 1 1.073-1.31 4.79 4.79 0 0 1 1.653-.787 7.799 7.799 0 0 1 2.087-.263 8.439 8.439 0 0 1 2.797.467 8.618 8.618 0 0 1 2.365 1.224l-1.305 2.3a7 7 0 0 0-1.887-.99 6.415 6.415 0 0 0-2.056-.309c-.736 0-1.267.131-1.594.393-.314.237-.497.61-.493 1.004-.003.186.036.37.114.54.105.2.253.375.434.51.268.208.555.389.858.54.357.182.826.393 1.405.62.851.332 1.596.648 2.233.947a6.853 6.853 0 0 1 1.61 1.02c.42.36.753.814.97 1.326.23.584.34 1.209.324 1.837z"/>
    <path d="M255.629 94.534a9.64 9.64 0 0 1-3.256-.58 11.046 11.046 0 0 1-2.818-1.452l-.308-.226 1.791-2.987.364.257a8.002 8.002 0 0 0 2.109 1.081c.672.231 1.377.352 2.087.36 2.368 0 2.368-.958 2.368-1.27 0-.313-.077-.67-.728-1.032a21.039 21.039 0 0 0-2.543-1.143 16.55 16.55 0 0 1-2.128-.97 6.607 6.607 0 0 1-1.486-1.11 3.69 3.69 0 0 1-.863-1.397 5.337 5.337 0 0 1-.253-1.719 4.57 4.57 0 0 1 .416-1.989 3.97 3.97 0 0 1 1.2-1.465 5.304 5.304 0 0 1 1.794-.856 9.165 9.165 0 0 1 7.603 1.497l.309.22-1.718 3.03-.376-.273a6.66 6.66 0 0 0-1.773-.93 6.057 6.057 0 0 0-1.927-.31c-.466-.038-.933.07-1.335.31a.813.813 0 0 0-.336.676.79.79 0 0 0 .077.36c.075.143.18.268.309.365.243.192.505.357.783.493.339.176.801.38 1.369.62.854.33 1.612.65 2.254.954a7.355 7.355 0 0 1 1.705 1.084c.469.402.839.908 1.082 1.478.253.632.377 1.308.367 1.989a4.76 4.76 0 0 1-.53 2.345 4.33 4.33 0 0 1-1.394 1.527 5.701 5.701 0 0 1-1.952.818 10.25 10.25 0 0 1-2.263.245zm-5.27-2.478c.717.463 1.486.84 2.292 1.121a9.14 9.14 0 0 0 5.047.31 4.92 4.92 0 0 0 1.671-.697c.47-.316.857-.74 1.128-1.24a3.97 3.97 0 0 0 .426-1.936 4.316 4.316 0 0 0-.287-1.673 3.193 3.193 0 0 0-.86-1.17 6.541 6.541 0 0 0-1.514-.958 26.409 26.409 0 0 0-2.204-.93 16.906 16.906 0 0 1-1.446-.644 5.12 5.12 0 0 1-.925-.586 1.912 1.912 0 0 1-.55-.66 1.674 1.674 0 0 1-.153-.715 1.654 1.654 0 0 1 .65-1.332c.407-.326 1.015-.484 1.85-.484a6.882 6.882 0 0 1 2.19.341c.567.194 1.109.459 1.612.787l.894-1.577a8.52 8.52 0 0 0-1.949-.951 8.216 8.216 0 0 0-4.625-.195 4.464 4.464 0 0 0-1.514.719c-.404.301-.73.698-.946 1.155a3.755 3.755 0 0 0-.336 1.627 4.55 4.55 0 0 0 .21 1.45c.14.406.37.776.672 1.08.384.382.821.706 1.298.961.649.358 1.323.669 2.016.93.908.338 1.793.735 2.649 1.19.955.532 1.156 1.254 1.156 1.765 0 .96-.555 2.107-3.2 2.107a7.45 7.45 0 0 1-2.347-.4 8.596 8.596 0 0 1-1.958-.929l-.946 1.534z"/>
  </g>
</svg>
