<svg xmlns="http://www.w3.org/2000/svg" width="160" height="120" viewBox="0 0 160 120">
    <g fill="#E33831" fill-rule="evenodd">
        <path d="M45.314 79.898c-.69-1.616-1.033-3.363-1.033-5.248 0-1.895.34-3.659 1.02-5.286.682-1.629 1.706-3.13 3.071-4.496 1.367-1.368 2.878-2.396 4.533-3.08 1.652-.683 3.452-1.025 5.398-1.025 1.947 0 3.743.334 5.39 1 1.644.665 3.14 1.664 4.486 2.994 2.688 2.654 4.031 5.964 4.031 9.893 0 1.935-.34 3.724-1.02 5.36-.68 1.634-1.703 3.127-3.068 4.476-1.366 1.349-2.867 2.362-4.502 3.037-1.63.674-3.403 1.011-5.317 1.011-1.897 0-3.665-.342-5.3-1.025-1.64-.686-3.16-1.72-4.556-3.098l.001-.001c-1.4-1.392-2.444-2.894-3.134-4.512M51.573 90.8c2.063.862 4.287 1.293 6.673 1.293 2.4 0 4.638-.427 6.71-1.28 2.069-.852 3.963-2.126 5.68-3.823 1.718-1.699 3.006-3.578 3.865-5.637.86-2.062 1.288-4.297 1.288-6.703 0-2.426-.423-4.673-1.27-6.74-.846-2.066-2.114-3.946-3.804-5.636-1.692-1.691-3.579-2.958-5.661-3.803-2.077-.842-4.346-1.262-6.808-1.262-2.445 0-4.708.427-6.787 1.282-2.08.855-3.969 2.135-5.666 3.843-1.694 1.704-2.965 3.585-3.814 5.64-.852 2.062-1.277 4.288-1.277 6.676 0 2.372.433 4.583 1.3 6.635.867 2.05 2.163 3.932 3.89 5.648 1.725 1.716 3.62 3.005 5.68 3.867M33.283 87.241a1.95 1.95 0 0 0 .214-.338l.01-.03c.061-.136.105-.265.132-.392.03-.138.045-.277.045-.42a1.807 1.807 0 0 0-.404-1.143c-.139-.17-.289-.3-.455-.394a1.223 1.223 0 0 0-.615-.166c-.143 0-.32.04-.526.122h-.003a5.473 5.473 0 0 0-.516.245c-.12.062-.192.102-.24.128-.027.015-.015.01-.03.018l-.082.04-.06.052-.23.198a18.204 18.204 0 0 1-2.443 1.476c-.855.428-1.745.786-2.663 1.076v.002c-1.803.547-3.707.82-5.71.82v.003c-2.326 0-4.458-.343-6.394-1.027a15.67 15.67 0 0 1-5.194-3.055c-1.529-1.348-2.67-2.848-3.427-4.494-.758-1.65-1.136-3.46-1.136-5.425 0-1.926.363-3.701 1.087-5.321.726-1.624 1.819-3.104 3.276-4.435a14.82 14.82 0 0 1 4.923-3.007c1.825-.67 3.836-1.006 6.03-1.006 1.084 0 2.123.06 3.12.182.996.122 1.951.305 2.867.553h.005c.916.238 1.831.542 2.75.913v.001c.92.373 1.84.812 2.762 1.32l.05.027.054.02.278.098c.047.028.13.083.242.154v.003l.153.099c.158.118.316.212.471.278.202.087.398.13.586.13.228 0 .434-.051.627-.153.166-.087.31-.21.441-.368l.002.002c.136-.154.239-.333.308-.532a1.833 1.833 0 0 0 .02-1.099 1.52 1.52 0 0 0-.236-.464 2.47 2.47 0 0 0-.436-.43c-.151-.12-.341-.254-.572-.4l-.304-.215-.022-.013a19.542 19.542 0 0 0-2.854-1.533 23.832 23.832 0 0 0-3.321-1.158v.002a27.45 27.45 0 0 0-3.627-.73 28.599 28.599 0 0 0-3.743-.246v.003c-2.51 0-4.847.423-7.012 1.273-2.166.85-4.161 2.127-5.984 3.832-1.826 1.709-3.198 3.582-4.114 5.617C.462 69.98 0 72.181 0 74.537c0 2.546.466 4.87 1.395 6.975.929 2.105 2.32 3.983 4.17 5.636a18.565 18.565 0 0 0 6.311 3.712c2.351.821 4.95 1.233 7.793 1.233 1.111 0 2.247-.103 3.407-.31a23.878 23.878 0 0 0 3.532-.924h.003c1.19-.41 2.3-.881 3.33-1.414a18.78 18.78 0 0 0 2.78-1.75l.244-.156.01-.006c.113-.074.215-.175.308-.292M129.525 79.898c-.69-1.616-1.034-3.363-1.034-5.248 0-1.895.34-3.659 1.021-5.286.682-1.629 1.705-3.13 3.07-4.496 1.368-1.368 2.879-2.396 4.533-3.08 1.653-.683 3.453-1.025 5.398-1.025 1.947 0 3.744.334 5.39 1 1.644.665 3.14 1.664 4.487 2.994 2.687 2.654 4.03 5.964 4.03 9.893 0 1.935-.34 3.724-1.02 5.36-.68 1.634-1.703 3.127-3.068 4.476-1.366 1.349-2.866 2.362-4.501 3.037-1.631.674-3.403 1.011-5.318 1.011-1.897 0-3.664-.342-5.3-1.025-1.64-.686-3.16-1.72-4.555-3.098v-.001c-1.399-1.392-2.443-2.894-3.133-4.512m.577 7.035c1.726 1.716 3.62 3.005 5.681 3.867 2.063.862 4.288 1.293 6.673 1.293 2.4 0 4.638-.427 6.71-1.28 2.07-.852 3.964-2.126 5.68-3.823 1.719-1.699 3.007-3.578 3.865-5.637.86-2.062 1.289-4.297 1.289-6.703 0-2.426-.424-4.673-1.27-6.74-.847-2.066-2.115-3.946-3.805-5.636-1.691-1.691-3.578-2.958-5.66-3.803-2.077-.842-4.347-1.262-6.809-1.262-2.444 0-4.708.427-6.787 1.282-2.079.855-3.968 2.135-5.666 3.843-1.694 1.704-2.964 3.585-3.813 5.64-.853 2.062-1.278 4.288-1.278 6.676 0 2.372.434 4.583 1.301 6.635.866 2.05 2.163 3.932 3.889 5.648M111.995 60.549h-.001c-1.06-1.334-2.447-2.33-4.16-2.992-1.68-.648-3.668-.97-5.965-.97-.98 0-2.016.104-3.104.316a23.014 23.014 0 0 0-3.345.934v.001a32.163 32.163 0 0 0-3.569 1.525c-.862.429-1.735.904-2.616 1.425V2.07c0-.26-.026-.503-.077-.73a2.083 2.083 0 0 0-.259-.652l-.022-.03a1.515 1.515 0 0 0-.564-.495A1.59 1.59 0 0 0 87.587 0h-.008l-.058.005a2.7 2.7 0 0 0-.711.157c-.233.088-.43.207-.597.356-.174.153-.31.35-.41.59a2.42 2.42 0 0 0-.165.686l-.006.055V62.796c-.182.107-.37.216-.565.327-.431.245-.756.427-1.053.591L84 63.72c-.38.22-.674.392-.881.52-.193.117-.333.21-.422.28l-.108.071a.967.967 0 0 0-.155.084 1.352 1.352 0 0 0-.209.169c-.246.213-.44.44-.577.685a1.84 1.84 0 0 0-.244.917c0 .197.029.372.092.534.074.19.188.347.348.481.267.225.568.338.938.338.207 0 .408-.03.601-.09.175-.054.34-.133.495-.237.036-.019.072-.04.11-.064l.264-.062.12-.028.106-.07c.126-.082.297-.186.508-.31.282-.167.469-.276.646-.378V88.91c0 .254.028.483.083.685.067.25.177.458.327.624l.028.03c.165.162.365.279.603.354a2.2 2.2 0 0 0 .664.094c.258 0 .498-.037.722-.114.248-.085.462-.214.642-.391l-.001-.002a1.761 1.761 0 0 0 .535-1.28v-24.45a50.37 50.37 0 0 1 3.524-1.865 31.351 31.351 0 0 1 3.4-1.402 20.955 20.955 0 0 1 3.12-.802 17.723 17.723 0 0 1 3.051-.27c1.623 0 3.009.249 4.159.747a6.41 6.41 0 0 1 2.723 2.183c.705 1 1.24 2.327 1.601 3.98.37 1.691.557 3.716.557 6.073l.002.002.116 15.807v.036l.003.026c.024.251.069.472.134.663.075.22.177.405.303.553.158.196.375.332.645.414.204.062.437.092.694.092a1.738 1.738 0 0 0 1.267-.546c.369-.343.554-.776.554-1.24V73.104c0-2.866-.252-5.34-.755-7.416-.514-2.119-1.294-3.834-2.338-5.14M8.366 113.83a.51.51 0 0 0-.156-.174.624.624 0 0 0-.198-.094.738.738 0 0 0-.2-.028.645.645 0 0 0-.157.02.509.509 0 0 0-.175.08.651.651 0 0 0-.166.167l-.031.027-.01.009-.013.013c-.167.176-.33.326-.49.45a2.22 2.22 0 0 1-.437.268l-.002.002c-.138.063-.288.11-.45.142a2.811 2.811 0 0 1-.542.049c-.306 0-.564-.034-.773-.103a1.003 1.003 0 0 1-.439-.268c-.113-.126-.2-.306-.262-.54a3.765 3.765 0 0 1-.1-.944v-.132h-.002l.07-3.02h3.135a.857.857 0 0 0 .208-.025.556.556 0 0 0 .369-.292.515.515 0 0 0-.005-.435L7.54 109a.59.59 0 0 0-.13-.176.591.591 0 0 0-.196-.129.646.646 0 0 0-.245-.047H3.872l.145-4.815.002-.009a.625.625 0 0 0-.035-.205v-.001a.492.492 0 0 0-.127-.198.55.55 0 0 0-.215-.129v-.001a.715.715 0 0 0-.45.006.613.613 0 0 0-.19.114.523.523 0 0 0-.144.202h-.001a.566.566 0 0 0-.04.212h.001l-.189 4.824H.635c-.07 0-.137.007-.2.02H.433a.612.612 0 0 0-.216.086.462.462 0 0 0-.175.208.548.548 0 0 0-.04.217H0a.542.542 0 0 0 .192.417c.06.053.132.094.211.12.073.025.15.038.232.038h1.973l-.07 3.146v.116c0 .471.051.882.155 1.23.11.37.28.67.506.896.231.23.533.402.902.514.347.105.756.158 1.225.158.281 0 .56-.032.839-.094a4.08 4.08 0 0 0 .811-.279l.003-.001a3.68 3.68 0 0 0 .701-.422 2.56 2.56 0 0 0 .517-.53l.004-.006.011-.02.044-.05.008-.01a1.03 1.03 0 0 0 .085-.124.543.543 0 0 0 .066-.17l.006-.03v-.028a.459.459 0 0 0-.054-.22h-.001zM14.785 109.116c-.23-.31-.531-.541-.9-.694-.354-.145-.767-.217-1.24-.217v.001c-.207 0-.423.023-.646.07a4.442 4.442 0 0 0-.684.203 6.316 6.316 0 0 0-.979.472V96.925a.79.79 0 0 0-.097-.406l-.01-.017a.496.496 0 0 0-.182-.168.46.46 0 0 0-.22-.055h-.002l-.028.003a.673.673 0 0 0-.185.043.54.54 0 0 0-.306.312v.001a.77.77 0 0 0-.048.208l-.002.026v12.727l-.013.008-.207.123-.005.003a6.447 6.447 0 0 0-.27.178.75.75 0 0 0-.265.28.64.64 0 0 0-.075.302c0 .066.01.129.033.19v.002a.45.45 0 0 0 .125.186c.044.04.091.07.142.089v-.001c.052.019.104.029.157.029a.55.55 0 0 0 .307-.096l.022-.005.049-.013v4.353c0 .176.044.317.132.421l.014.014a.464.464 0 0 0 .193.123c.058.02.119.029.182.029v-.001c.071 0 .138-.011.2-.034a.508.508 0 0 0 .194-.128.586.586 0 0 0 .122-.191v-.001a.633.633 0 0 0 .043-.232V110.2c.204-.123.399-.232.586-.327a5.77 5.77 0 0 1 .652-.286c.2-.073.398-.128.59-.163.19-.036.38-.054.572-.054v-.001c.296 0 .546.047.751.142.19.087.343.218.46.391h-.001c.124.189.22.443.285.762.07.338.104.749.104 1.232l.001.001.023 3.331v.022l.001.012c.007.07.019.133.037.19a.57.57 0 0 0 .105.196.43.43 0 0 0 .205.138c.058.019.12.028.188.028a.491.491 0 0 0 .208-.048l.002-.001a.534.534 0 0 0 .169-.127.578.578 0 0 0 .165-.41v-3.332a7.37 7.37 0 0 0-.156-1.614c-.108-.477-.274-.866-.498-1.166M19.58 111.649c.049-.171.12-.332.213-.483.154-.25.37-.477.648-.677l.001-.001c.274-.2.579-.35.91-.45a3.825 3.825 0 0 1 1.104-.151c.405 0 .774.049 1.108.147.33.098.632.245.903.44.27.195.482.42.637.673.097.158.172.328.224.511l-5.748-.01zm5.857-1.844a4.353 4.353 0 0 0-1.33-.724 4.846 4.846 0 0 0-1.553-.244 5.49 5.49 0 0 0-1.685.247 4.255 4.255 0 0 0-1.388.745c-.41.332-.72.707-.926 1.124-.206.415-.31.87-.31 1.362 0 .522.097.994.29 1.416.196.43.489.805.878 1.125.39.32.845.56 1.363.72a5.784 5.784 0 0 0 1.711.238c.367 0 .717-.024 1.048-.072.335-.047.65-.12.942-.216h.001a4.8 4.8 0 0 0 .856-.382c.274-.155.543-.34.805-.551l.046-.032.026-.017.026-.027c.027-.026.052-.051.066-.067a.595.595 0 0 0 .074-.103.452.452 0 0 0 .063-.232.422.422 0 0 0-.043-.184.475.475 0 0 0-.134-.164l-.015-.013a.636.636 0 0 0-.194-.094l-.001-.001a.752.752 0 0 0-.356-.013v-.001a1.048 1.048 0 0 0-.253.096h-.002a.894.894 0 0 0-.077.049l-.007.003-.035.015-.03.021c-.284.197-.55.36-.797.493a3.677 3.677 0 0 1-.625.273 3.829 3.829 0 0 1-.597.127c-.21.028-.44.042-.689.042a4.72 4.72 0 0 1-1.306-.165 2.791 2.791 0 0 1-.96-.478 2.038 2.038 0 0 1-.6-.742 2.186 2.186 0 0 1-.187-.683h6.358c.101 0 .194-.008.276-.026a.709.709 0 0 0 .278-.118v-.002a.532.532 0 0 0 .177-.22.61.61 0 0 0 .046-.24v-.044c0-.423-.105-.823-.313-1.2-.205-.371-.51-.718-.917-1.04zM41.178 110.503a.812.812 0 0 0 .139.063h.001a.682.682 0 0 0 .219.038.62.62 0 0 0 .242-.048v.001a.555.555 0 0 0 .168-.11.451.451 0 0 0 .128-.5.456.456 0 0 0-.093-.146.764.764 0 0 0-.145-.114 1.689 1.689 0 0 0-.152-.086l-.066-.037-.01-.006a5.323 5.323 0 0 0-.708-.304 6.908 6.908 0 0 0-.815-.226 8.195 8.195 0 0 0-.888-.143v.001a8.715 8.715 0 0 0-.912-.047v-.002c-.617 0-1.196.085-1.735.254a4.933 4.933 0 0 0-1.488.758c-.454.34-.797.714-1.028 1.123-.234.414-.35.858-.35 1.332 0 .51.117.976.352 1.4.233.423.583.8 1.047 1.13a4.98 4.98 0 0 0 1.568.737c.58.162 1.219.243 1.913.243.272 0 .553-.02.842-.062a7.092 7.092 0 0 0 1.686-.458c.248-.102.476-.216.682-.342l.051-.026.005-.002a.521.521 0 0 0 .125-.094l.002-.001a.557.557 0 0 0 .077-.098l.007-.011a.473.473 0 0 0 .063-.237c0-.06-.012-.12-.038-.18a.507.507 0 0 0-.113-.161.59.59 0 0 0-.615-.135h-.002a1.738 1.738 0 0 0-.203.078l-.011.005-.039.017-.029.02-.053.037a4.4 4.4 0 0 1-.536.255 4.764 4.764 0 0 1-.6.194l.001.001a5.228 5.228 0 0 1-.626.11 5.861 5.861 0 0 1-.667.037 5.338 5.338 0 0 1-1.449-.184 3.778 3.778 0 0 1-1.16-.543c-.336-.237-.588-.5-.754-.789a1.853 1.853 0 0 1-.246-.941c0-.336.079-.645.235-.924.158-.281.398-.54.721-.776a3.524 3.524 0 0 1 1.095-.534c.408-.12.862-.18 1.36-.18.25 0 .49.01.716.033.23.022.448.056.65.1h.004c.21.044.418.1.625.166.212.069.423.149.633.241l.029.013.027.007.043.013.035.018v.001l.04.02z"/>
        <path d="M47.464 114.583a3.485 3.485 0 0 1-1.135.178c-.407 0-.784-.06-1.132-.18a3.155 3.155 0 0 1-.971-.55 2.555 2.555 0 0 1-.666-.793 1.966 1.966 0 0 1-.216-.912h.001c0-.333.071-.64.213-.922.144-.285.36-.548.652-.79.292-.242.614-.424.964-.544.349-.12.734-.18 1.155-.18.42 0 .806.059 1.154.176.349.117.667.293.953.528.285.233.498.494.64.78.14.287.21.604.21.952 0 .34-.07.653-.213.936-.142.284-.359.546-.65.784-.29.238-.61.418-.959.537m1.838-4.736a4.22 4.22 0 0 0-1.361-.758 5.07 5.07 0 0 0-1.625-.252c-.582 0-1.123.085-1.621.256-.5.17-.954.425-1.36.765a3.52 3.52 0 0 0-.92 1.128 2.961 2.961 0 0 0-.308 1.34h-.002c0 .475.106.92.316 1.333.21.41.521.786.936 1.129.413.34.867.596 1.362.768a4.844 4.844 0 0 0 1.597.258c.573 0 1.109-.085 1.605-.254.496-.17.95-.424 1.362-.762.412-.338.722-.714.93-1.127.209-.416.313-.864.313-1.345 0-.485-.103-.935-.308-1.351a3.462 3.462 0 0 0-.916-1.128M92.218 103.458a1.893 1.893 0 0 0-.45-.15 2.66 2.66 0 0 0-.537-.052v.001c-.185 0-.358.018-.522.052a2.106 2.106 0 0 0-.437.143l-.009.003a.997.997 0 0 0-.322.224.407.407 0 0 0-.116.273.4.4 0 0 0 .116.27c.072.08.175.152.31.22l.012.007c.285.134.597.201.968.201v.001c.183 0 .36-.018.528-.053h.002c.163-.034.311-.084.444-.15a.984.984 0 0 0 .313-.222.412.412 0 0 0 .114-.274c0-.19-.136-.353-.406-.49l-.008-.004zM126.16 110.28c-.107-.475-.274-.864-.498-1.164-.23-.31-.53-.541-.9-.693-.354-.146-.767-.218-1.24-.218v.001c-.207 0-.422.023-.645.07a4.458 4.458 0 0 0-.685.203 6.335 6.335 0 0 0-.979.472V96.925a.981.981 0 0 0-.02-.202.674.674 0 0 0-.078-.205l-.01-.016a.494.494 0 0 0-.18-.168.46.46 0 0 0-.221-.055h-.002l-.027.003a.67.67 0 0 0-.186.043.544.544 0 0 0-.306.313.779.779 0 0 0-.048.208l-.002.026V109.6l-.013.008a19.53 19.53 0 0 1-.207.124l-.005.004a8.394 8.394 0 0 0-.177.112c-.039.025-.07.046-.093.065a.746.746 0 0 0-.264.28.637.637 0 0 0-.076.3c0 .067.011.13.033.192v.001a.453.453 0 0 0 .124.187v-.001a.45.45 0 0 0 .143.089v-.001a.44.44 0 0 0 .157.03.54.54 0 0 0 .301-.094l.003-.002.025-.006.049-.012v4.352a.63.63 0 0 0 .133.421l.014.014a.466.466 0 0 0 .192.123c.059.02.119.029.182.029v-.001a.572.572 0 0 0 .2-.034.503.503 0 0 0 .194-.127.579.579 0 0 0 .122-.193.636.636 0 0 0 .043-.232V110.2c.204-.122.4-.23.586-.326.23-.117.448-.212.652-.286.201-.073.398-.127.59-.163.19-.036.381-.054.572-.054.298 0 .549.047.752.14a1.1 1.1 0 0 1 .458.392c.125.189.22.443.285.762.07.338.104.749.104 1.232l.002.002.022 3.33v.022l.002.012a.678.678 0 0 0 .142.386.43.43 0 0 0 .204.138c.059.02.121.028.188.028a.491.491 0 0 0 .21-.047v-.001a.537.537 0 0 0 .174-.133.576.576 0 0 0 .11-.168v-.001a.604.604 0 0 0 .05-.237v-3.33c0-.62-.052-1.159-.155-1.615v-.002zM107.765 114.687c-.471.25-.948.374-1.431.374-.218 0-.411-.028-.578-.084a1.144 1.144 0 0 1-.41-.236l-.003-.001a.98.98 0 0 1-.255-.358 1.273 1.273 0 0 1-.089-.493c0-.468.146-.919.436-1.353.303-.454.764-.893 1.383-1.318a7.176 7.176 0 0 1 2.012-.966 7.92 7.92 0 0 1 2.228-.322 9.023 9.023 0 0 1-.644 1.795 7.624 7.624 0 0 1-1.206 1.791c-.474.522-.955.912-1.443 1.17m4.352-5.638l-.011-.01a.622.622 0 0 0-.195-.121h-.002a.804.804 0 0 0-.084-.029v-.036l-.012.034a.96.96 0 0 0-.107-.023l-.018-.002H111.6c-.067-.008-.132-.015-.21-.019-.098-.005-.207-.005-.358-.005a8.46 8.46 0 0 0-2.559.387 8.6 8.6 0 0 0-2.332 1.155c-.748.52-1.312 1.066-1.691 1.641-.393.595-.59 1.218-.59 1.87 0 .336.056.64.165.91.113.277.282.517.508.719l.001.001c.224.197.488.344.793.441.292.093.622.14.992.14.548 0 1.094-.122 1.635-.369.527-.24 1.051-.598 1.571-1.074a7.876 7.876 0 0 0 1.617-2.08v3.44c0 .477-.06.897-.178 1.257-.115.351-.286.65-.513.898a2.137 2.137 0 0 1-.807.547 3.064 3.064 0 0 1-1.117.189v-.002a4.65 4.65 0 0 1-.823-.066 2.715 2.715 0 0 1-.642-.193h-.002a2.333 2.333 0 0 1-.567-.384 5.385 5.385 0 0 1-.653-.702l-.02-.025-.025-.022-.038-.032a.652.652 0 0 0-.07-.059h-.002a.538.538 0 0 0-.186-.087 1.413 1.413 0 0 0-.062-.016l-.039-.009h-.04a.518.518 0 0 0-.399.188.535.535 0 0 0-.103.174.59.59 0 0 0-.035.203l.002.056a.455.455 0 0 0 .014.1h-.002c.01.04.026.074.043.103l.001.002a.364.364 0 0 0 .025.036l.005.01.007.012a3.527 3.527 0 0 0 1.406 1.35c.292.152.608.266.95.341.338.075.699.113 1.08.113.6 0 1.139-.085 1.617-.256a3.394 3.394 0 0 0 1.26-.782c.355-.349.62-.765.795-1.249a4.702 4.702 0 0 0 .258-1.61v-6.615a.708.708 0 0 0-.035-.227.544.544 0 0 0-.13-.213M134.482 114.583a3.485 3.485 0 0 1-1.136.178c-.406 0-.784-.06-1.131-.18a3.158 3.158 0 0 1-.972-.55 2.558 2.558 0 0 1-.665-.793 1.966 1.966 0 0 1-.217-.912h.002c0-.333.07-.64.213-.922.143-.285.36-.548.651-.79.29-.24.612-.422.965-.543v-.001c.349-.12.734-.18 1.154-.18.421 0 .806.059 1.155.176.348.117.666.293.953.528.285.233.498.494.639.78.14.287.211.604.211.952 0 .34-.071.653-.213.936-.143.284-.36.546-.65.784-.29.238-.61.418-.959.537m1.837-4.736a4.219 4.219 0 0 0-1.36-.758 5.07 5.07 0 0 0-1.626-.252c-.581 0-1.122.085-1.62.256-.5.17-.954.425-1.361.765-.409.34-.715.717-.92 1.128a2.964 2.964 0 0 0-.308 1.34h-.001c0 .475.105.92.316 1.333.209.41.521.786.936 1.129.413.34.867.596 1.361.768a4.843 4.843 0 0 0 1.597.258c.573 0 1.108-.085 1.604-.254h.002c.495-.17.949-.423 1.361-.762a3.49 3.49 0 0 0 .93-1.127 2.95 2.95 0 0 0 .314-1.345c0-.485-.103-.935-.308-1.351a3.463 3.463 0 0 0-.917-1.128M152.912 112.211c.05-.205.12-.398.214-.58.154-.3.371-.571.648-.812h.001c.275-.241.579-.42.91-.54a3.235 3.235 0 0 1 1.105-.182c.404 0 .773.059 1.107.177.33.117.632.293.904.528a2.654 2.654 0 0 1 .86 1.42l-5.749-.01zm7.088.477c0-1.012-.41-1.908-1.23-2.689a4.192 4.192 0 0 0-1.33-.87 4.117 4.117 0 0 0-1.553-.292c-.611 0-1.173.1-1.685.296a4.09 4.09 0 0 0-1.388.895c-.41.398-.719.847-.926 1.348a4.243 4.243 0 0 0-.31 1.634c0 .624.098 1.19.29 1.7.195.514.488.964.878 1.35.391.384.846.673 1.363.865.512.19 1.082.284 1.712.284.366 0 .716-.028 1.048-.085.335-.058.649-.145.941-.26h.002c.288-.114.574-.268.856-.46.273-.185.54-.405.803-.658l.048-.04.025-.02.027-.032.065-.082c.03-.04.055-.08.074-.123a.63.63 0 0 0 .02-.5.56.56 0 0 0-.134-.198l-.015-.014a.586.586 0 0 0-.194-.113l-.001-.001a.632.632 0 0 0-.495.035.987.987 0 0 0-.113.063l-.003.001a.885.885 0 0 0-.08.06l-.003.002-.036.018-.03.026c-.284.235-.55.432-.797.59a3.39 3.39 0 0 1-.625.328v.001a3.29 3.29 0 0 1-.596.152c-.21.034-.44.05-.69.05-.49 0-.925-.065-1.305-.197-.371-.129-.691-.32-.96-.574a2.416 2.416 0 0 1-.601-.89 3.043 3.043 0 0 1-.187-.82h6.358c.102 0 .194-.01.276-.031a.654.654 0 0 0 .278-.142v-.002a.63.63 0 0 0 .177-.267.85.85 0 0 0 .046-.286v-.052zM61.688 109.105a.59.59 0 0 0-.27-.22h-.001a.686.686 0 0 0-.164-.04l-.056-.008-.054.01a.743.743 0 0 0-.218.076.571.571 0 0 0-.2.184l-.01.018-3.003 5.137-.934-1.595 1.782-3.021.044-.073v-.056l.017-.054h-.001c.009-.03.016-.056.02-.075l.008-.035v-.032a.408.408 0 0 0-.048-.191.499.499 0 0 0-.113-.141v-.001a.548.548 0 0 0-.172-.104.71.71 0 0 0-.174-.041l-.023-.003H58.1a.56.56 0 0 0-.16.026l-.002.001a.746.746 0 0 0-.227.115h-.001a.506.506 0 0 0-.102.102l-.012.016-.01.016-1.431 2.503-1.462-2.494-.01-.018a.538.538 0 0 0-.108-.119h-.002a.642.642 0 0 0-.113-.072.646.646 0 0 0-.291-.076.513.513 0 0 0-.206.044l-.002.001a.614.614 0 0 0-.13.078c-.056.04-.1.089-.134.143a.404.404 0 0 0-.04.352c.011.035.028.072.051.109l.006.01v.003l.008.016.009.024.014.024 1.781 3.061-.941 1.565-3.018-5.145-.011-.018a.553.553 0 0 0-.105-.115v-.001a.673.673 0 0 0-.111-.074l-.003-.001a.56.56 0 0 0-.47-.041.525.525 0 0 0-.166.096.501.501 0 0 0-.12.143v.001a.422.422 0 0 0-.035.34c.006.023.016.051.029.086v.032l.043.073 3.426 5.81.01.016c.052.094.115.17.189.226a.549.549 0 0 0 .338.116c.07 0 .138-.015.206-.044l.001-.001a.754.754 0 0 0 .246-.183c.032-.035.06-.071.087-.11l.013-.02 1.005-1.7 1.03 1.695.004.008.023.035v.001l.023.032a.714.714 0 0 0 .155.177c.093.073.196.11.314.11a.557.557 0 0 0 .353-.125.751.751 0 0 0 .114-.113.892.892 0 0 0 .082-.12l3.426-5.81.002-.005c.011-.02.022-.04.032-.063v-.001a.585.585 0 0 0 .057-.256v-.026l-.005-.03a.483.483 0 0 0-.06-.16M149.718 109.323l-.003-.002a1.503 1.503 0 0 0-.635-.371 2.79 2.79 0 0 0-.832-.113c-.262 0-.537.034-.823.1-.277.064-.566.16-.864.288-.29.124-.602.284-.936.478-.192.111-.39.233-.595.366a1.532 1.532 0 0 0-.481-.753v.001a1.776 1.776 0 0 0-.656-.348 2.75 2.75 0 0 0-1.585.011c-.263.077-.545.19-.847.341a8.868 8.868 0 0 0-.923.533c-.14.09-.283.189-.43.294v-.704a.832.832 0 0 0-.021-.189l-.002-.001a.576.576 0 0 0-.082-.193l-.011-.016a.55.55 0 0 0-.432-.208h-.002l-.03.003a.827.827 0 0 0-.199.04.611.611 0 0 0-.187.103l-.014.011-.01.01a.54.54 0 0 0-.12.175.641.641 0 0 0-.048.19l-.003.025v5.882c0 .161.048.29.143.386l.015.013c.059.053.127.09.206.112a.702.702 0 0 0 .196.027v-.001a.71.71 0 0 0 .214-.031.556.556 0 0 0 .34-.294h-.001a.507.507 0 0 0 .047-.212h-.001v-3.82c.317-.244.62-.462.907-.656v-.001c.31-.21.595-.381.853-.516h.001c.245-.129.47-.225.676-.288.192-.06.362-.09.51-.09.187 0 .338.025.455.073.098.04.175.1.231.18.066.097.118.252.156.466.043.239.064.543.064.912v3.74c0 .161.048.29.143.386l.015.013c.059.053.127.09.206.112a.702.702 0 0 0 .196.027v-.001a.71.71 0 0 0 .214-.031.557.557 0 0 0 .34-.294h-.001a.51.51 0 0 0 .047-.212v-4.012c.286-.2.565-.38.835-.539.306-.18.6-.334.884-.461.275-.123.528-.214.757-.273.22-.057.424-.085.612-.085.166 0 .302.021.408.064a.44.44 0 0 1 .2.151l.001.003c.06.08.106.213.14.395h.002c.039.204.058.465.058.784h.001v3.973h-.001c0 .066.008.127.026.185a.468.468 0 0 0 .116.201l.015.014a.521.521 0 0 0 .207.111.704.704 0 0 0 .195.027v-.001a.71.71 0 0 0 .214-.031.56.56 0 0 0 .34-.294.508.508 0 0 0 .046-.212v-4.494c0-.315-.035-.59-.105-.828a1.493 1.493 0 0 0-.352-.63M79.399 109.353l-.003-.001c-.199-.171-.43-.3-.69-.387a2.657 2.657 0 0 0-.841-.128c-.26 0-.525.036-.794.107a4.01 4.01 0 0 0-.795.308c-.259.132-.59.344-.992.635-.23.167-.482.36-.758.577a2.234 2.234 0 0 0-.096-.58 1.506 1.506 0 0 0-.313-.562l-.003-.003c-.293-.32-.706-.48-1.235-.48v-.002c-.19 0-.388.023-.59.068a3.472 3.472 0 0 0-.596.194 4.93 4.93 0 0 0-.609.31c-.202.12-.41.26-.625.42l-.018.014-.034.029a.641.641 0 0 0-.153.16.445.445 0 0 0-.064.144.554.554 0 0 0-.013.129h-.002c0 .082.028.156.083.226.03.04.069.075.113.106l.002.002.003.002.007.005.002.001c.05.036.105.063.162.081h.002a.646.646 0 0 0 .295.023l.005-.001a.635.635 0 0 0 .094-.024h.002a.677.677 0 0 0 .075-.032l.035-.017.037-.016.022-.009.021-.013.122-.074.194-.116.008-.005c.297-.187.562-.326.794-.416.211-.082.39-.124.535-.124.105 0 .19.014.255.041.047.02.085.05.114.09l.003.003a.75.75 0 0 1 .098.278c.03.152.045.344.045.575v4.385c0 .065.009.126.025.181a.48.48 0 0 0 .343.33v-.001a.773.773 0 0 0 .21.028v-.001a.702.702 0 0 0 .432-.133l.023-.019a.557.557 0 0 0 .138-.17.464.464 0 0 0 .054-.215v-3.455c.387-.327.74-.608 1.06-.845h.002c.352-.261.665-.47.938-.628a4.25 4.25 0 0 1 .725-.341c.197-.068.37-.101.521-.101.186 0 .346.02.479.062.12.038.223.093.307.165l.002.002a.727.727 0 0 1 .189.273c.047.118.07.259.07.421a.92.92 0 0 1-.044.294.78.78 0 0 1-.128.237l-.002.002c-.06.077-.142.153-.246.229-.11.08-.244.158-.402.234l-.051.022-.018.008a.678.678 0 0 0-.093.054h.001a.554.554 0 0 0-.087.074l-.019.023a.423.423 0 0 0-.093.263c0 .06.01.114.032.168h.001a.45.45 0 0 0 .108.157v.002c.103.099.223.15.377.15.036 0 .071-.001.133-.01h.002a.544.544 0 0 0 .138-.036l.06-.02.01-.004c.24-.09.452-.198.637-.327.19-.131.348-.282.477-.453.257-.34.386-.731.386-1.187 0-.27-.05-.519-.149-.746a1.707 1.707 0 0 0-.452-.61M67.113 114.583a3.485 3.485 0 0 1-1.135.178c-.407 0-.784-.06-1.132-.18a3.155 3.155 0 0 1-.971-.55 2.557 2.557 0 0 1-.665-.793 1.966 1.966 0 0 1-.217-.912h.001c0-.333.071-.64.214-.922.143-.285.36-.548.65-.79.293-.242.614-.424.964-.544.35-.12.735-.18 1.156-.18.421 0 .806.059 1.155.176.348.117.666.293.953.528.284.233.498.494.638.78.141.287.212.604.212.952 0 .34-.071.653-.213.936-.143.284-.36.546-.65.784-.29.238-.61.418-.96.537m1.838-4.736a4.22 4.22 0 0 0-1.36-.758 5.07 5.07 0 0 0-1.626-.252c-.582 0-1.122.085-1.621.256-.5.17-.954.425-1.36.765-.409.34-.716.717-.92 1.128a2.962 2.962 0 0 0-.308 1.34h-.002c0 .475.106.92.316 1.333.21.41.522.786.937 1.129.413.34.866.596 1.361.768a4.843 4.843 0 0 0 1.597.258c.573 0 1.108-.085 1.604-.254h.001c.495-.17.95-.423 1.362-.762.413-.338.723-.714.93-1.127.21-.416.313-.864.313-1.345 0-.485-.102-.935-.308-1.351a3.46 3.46 0 0 0-.916-1.128M91.079 109.042h-.002a.61.61 0 0 0-.237-.155.825.825 0 0 0-.29-.05c-.086 0-.169.01-.25.032l-.001.002a.836.836 0 0 0-.228.097l-.013.01a.543.543 0 0 0-.179.192v.001a.463.463 0 0 0-.054.219h.001v5.882h-.001c0 .066.009.125.026.18.025.075.067.14.123.193a.59.59 0 0 0 .272.14 1.007 1.007 0 0 0 .513-.008.812.812 0 0 0 .237-.11v-.001c.155-.105.232-.24.232-.394v-5.842a.591.591 0 0 0-.034-.199.546.546 0 0 0-.115-.19M89.797 115.735v-.002a.587.587 0 0 0-.217-.302l-.001-.002a.4.4 0 0 0-.233-.073.83.83 0 0 0-.107.007h-.001a.48.48 0 0 0-.144.042l-.022.011a.507.507 0 0 0-.168.16l-.008.014-.039.063c-.064.093-.125.17-.183.233a.857.857 0 0 1-.155.133l-.009.006a.445.445 0 0 1-.286.084.872.872 0 0 1-.307-.049.495.495 0 0 1-.189-.125l-.002-.002a.53.53 0 0 1-.117-.204 1.099 1.099 0 0 1-.048-.344v-.07a6.115 6.115 0 0 0 .024-.464h-.001l.024-1.333.001-.005v-.07c0-.347-.044-.647-.132-.898a1.35 1.35 0 0 0-.453-.648l-.001-.001c-.192-.143-.472-.248-.84-.313a7.342 7.342 0 0 0-1.249-.088c-.109 0-.238.002-.387.005l3.61-2.468a.67.67 0 0 0 .093-.062h.002a.598.598 0 0 0 .211-.34l.013-.06-.006-.06a.649.649 0 0 0-.055-.2.543.543 0 0 0-.134-.18.522.522 0 0 0-.182-.107.775.775 0 0 0-.181-.038l-.028-.003h-.004c-.116 0-.16.033-.25.099h-.001v.001l-.058.038-.006.003-4.74 3.22v-14.43a.903.903 0 0 0-.02-.199.637.637 0 0 0-.081-.2l-.01-.016a.509.509 0 0 0-.423-.219h-.001l-.03.003a.746.746 0 0 0-.194.042.585.585 0 0 0-.182.11.53.53 0 0 0-.14.198.718.718 0 0 0-.049.203l-.002.026v15.749l-.295.201.295-.083v2.142c0 .071.009.138.025.2a.518.518 0 0 0 .114.217l.015.014a.492.492 0 0 0 .201.12c.062.02.125.029.191.029v-.001c.075 0 .145-.011.21-.033a.535.535 0 0 0 .203-.125.599.599 0 0 0 .174-.42h-.001v-2.194a232.361 232.361 0 0 1 1.226-.06 27.679 27.679 0 0 1 1.04-.024v.001c.34 0 .615.02.824.06.177.035.296.078.359.13a.488.488 0 0 1 .13.242c.044.152.066.352.066.6v.113h.001l-.023 1.266-.002.006c0 .107-.001.19-.005.25a1.812 1.812 0 0 1-.015.167l-.004.028v.023c0 .254.039.485.116.694a1.543 1.543 0 0 0 .93.923c.208.075.44.113.694.113.152 0 .305-.023.458-.07.147-.044.293-.11.437-.197.146-.088.273-.188.38-.299.108-.11.196-.234.265-.367l.024-.043.008-.015.014-.029.003-.008a.94.94 0 0 0 .054-.147.51.51 0 0 0 .014-.11.647.647 0 0 0-.028-.19M100.42 109.562l-.002-.001a2.064 2.064 0 0 0-.84-.55 3.286 3.286 0 0 0-1.114-.174c-.312 0-.624.033-.936.1-.31.065-.617.163-.92.292v.001c-.306.13-.623.3-.952.508-.138.087-.28.182-.424.286v-.58a.814.814 0 0 0-.023-.188h.002a.555.555 0 0 0-.089-.197l-.01-.014a.534.534 0 0 0-.19-.15.582.582 0 0 0-.255-.058h-.002l-.03.003a.868.868 0 0 0-.206.04.632.632 0 0 0-.193.103l-.014.011-.012.01a.544.544 0 0 0-.123.175.636.636 0 0 0-.05.19l-.002.025v5.882c0 .161.05.29.147.386l.016.013a.54.54 0 0 0 .212.112.745.745 0 0 0 .202.027v-.001c.08 0 .153-.01.22-.031a.581.581 0 0 0 .216-.117.532.532 0 0 0 .136-.177h-.001a.496.496 0 0 0 .049-.212v-3.874c.281-.233.556-.44.822-.622.299-.203.581-.369.846-.497s.522-.223.768-.286c.238-.06.47-.091.695-.091.285 0 .524.031.717.095a1 1 0 0 1 .424.254c.111.118.197.276.256.473.064.215.096.477.096.787v3.767l.003.026a.685.685 0 0 0 .042.177v.002c.03.072.074.135.135.188a.54.54 0 0 0 .212.112.747.747 0 0 0 .419-.007.583.583 0 0 0 .206-.115.512.512 0 0 0 .18-.39v-3.662c0-.44-.05-.829-.15-1.164a2.268 2.268 0 0 0-.483-.887"/>
    </g>
</svg>
