<svg xmlns="http://www.w3.org/2000/svg" xmlns:xlink="http://www.w3.org/1999/xlink" width="171" height="120" viewBox="0 0 171 120">
    <defs>
        <path id="a" d="M0 0h171v14.743H0z"/>
        <path id="c" d="M.194 0h21.288v45.304H.194z"/>
        <path id="e" d="M0 0h171v31.543H0z"/>
    </defs>
    <g fill="none" fill-rule="evenodd">
        <g transform="translate(0 105.257)">
            <mask id="b" fill="#fff">
                <use xlink:href="#a"/>
            </mask>
            <path fill="#AA8DC7" d="M164.793 14.623V2.08h-3.988V.12H171v1.96h-3.988v12.544h-2.22zm-28.9-3.521c1.16.948 2.539 1.429 4.138 1.443 1.893-.027 2.852-.7 2.879-2.02.013-1.08-.62-1.73-1.9-1.95-.586-.08-1.229-.169-1.928-.268-1.253-.206-2.206-.667-2.859-1.383-.673-.736-1.01-1.632-1.01-2.686 0-1.267.424-2.288 1.27-3.064.82-.77 1.982-1.16 3.488-1.174 1.813.04 3.388.54 4.728 1.502l-1.23 1.81a6.702 6.702 0 0 0-3.608-1.113c-.68 0-1.246.169-1.699.507-.473.351-.716.875-.73 1.572 0 .418.164.795.49 1.134.327.345.85.583 1.57.716.4.066.946.143 1.639.229 1.366.186 2.375.673 3.028 1.462.647.776.97 1.678.97 2.706-.074 2.772-1.78 4.178-5.118 4.218-2.158 0-4.014-.663-5.567-1.99l1.45-1.651zm-18.934 3.521l-1.13-3.242h-5.527l-1.12 3.242h-2.338L112.14.12h1.849l5.297 14.504h-2.328zm-6.017-5.193h4.257l-2.109-6.336h-.04l-2.108 6.336zm-21.344 1.135h2.339c-.32 1.346-.93 2.38-1.83 3.103-.926.717-2.022 1.075-3.288 1.075-1.146-.027-2.102-.305-2.868-.836-.78-.51-1.346-1.1-1.7-1.77-.106-.22-.203-.428-.29-.627a4.074 4.074 0 0 1-.2-.776c-.1-.584-.149-1.704-.149-3.362 0-1.685.05-2.813.15-3.383.107-.57.27-1.031.49-1.383.353-.67.92-1.266 1.699-1.79.766-.53 1.722-.802 2.868-.816 1.406.014 2.553.428 3.439 1.244.886.822 1.446 1.84 1.679 3.054h-2.339a3.193 3.193 0 0 0-.98-1.493c-.493-.39-1.092-.593-1.799-.606-.52.013-.966.116-1.339.308a2.78 2.78 0 0 0-.92.746c-.286.312-.476.713-.57 1.204-.106.517-.16 1.488-.16 2.915 0 1.426.054 2.39.16 2.894.094.504.284.912.57 1.224.234.298.54.54.92.726.373.219.82.329 1.34.329 1.239 0 2.165-.66 2.778-1.98zM56.56 2.199v10.346H59.2c1.24 0 2.139-.422 2.699-1.264.246-.311.403-.706.47-1.184.06-.47.09-1.353.09-2.646 0-1.26-.03-2.162-.09-2.706-.08-.543-.27-.985-.57-1.323-.613-.842-1.48-1.25-2.599-1.223H56.56zm-2.209 12.424V.12h5.098c1.972.013 3.452.83 4.437 2.448.354.544.577 1.114.67 1.71.074.597.11 1.629.11 3.095 0 1.558-.057 2.645-.17 3.262a3.65 3.65 0 0 1-.24.836 7.67 7.67 0 0 1-.41.746c-.426.683-1.019 1.247-1.779 1.691-.752.478-1.675.716-2.768.716H54.35zM28.72 7.372c0 1.426.053 2.39.16 2.894.093.504.283.912.57 1.224.233.298.54.54.92.726.372.219.819.329 1.338.329.527 0 .983-.11 1.37-.329.366-.185.66-.428.88-.726.286-.312.483-.72.589-1.224.1-.504.15-1.468.15-2.894 0-1.427-.05-2.398-.15-2.915-.106-.491-.303-.892-.59-1.204a2.627 2.627 0 0 0-.88-.746c-.386-.192-.842-.295-1.369-.308-.52.013-.966.116-1.339.308a2.78 2.78 0 0 0-.92.746c-.286.312-.476.713-.57 1.204-.106.517-.16 1.488-.16 2.915zm-2.219 0c0-1.685.05-2.813.15-3.383.107-.57.27-1.031.49-1.383.353-.67.92-1.266 1.699-1.79.766-.53 1.722-.802 2.868-.816 1.16.014 2.126.285 2.899.816.766.524 1.32 1.12 1.66 1.79.246.352.416.813.509 1.383.087.57.13 1.698.13 3.383 0 1.658-.043 2.778-.13 3.362-.093.583-.263 1.051-.51 1.403-.34.67-.893 1.26-1.66 1.77-.772.53-1.738.81-2.898.836-1.146-.027-2.102-.305-2.868-.836-.78-.51-1.346-1.1-1.7-1.77-.106-.22-.203-.428-.289-.627a4.074 4.074 0 0 1-.2-.776c-.1-.584-.15-1.704-.15-3.362zM0 14.623V.12h5.278c.572 0 1.125.054 1.659.16.533.139 1.073.424 1.619.855.46.325.833.79 1.119 1.393.3.584.45 1.273.45 2.07 0 1.073-.38 2.051-1.14 2.934-.779.928-1.918 1.406-3.418 1.432H2.21v5.66h-2.21zM2.209 2.2v4.685h3.268c.82-.013 1.436-.265 1.85-.756.392-.478.59-1.008.59-1.592 0-.484-.08-.892-.24-1.223a1.835 1.835 0 0 0-.7-.707c-.453-.285-.98-.42-1.58-.407H2.21z" mask="url(#b)"/>
        </g>
        <g transform="translate(74.556)">
            <mask id="d" fill="#fff">
                <use xlink:href="#c"/>
            </mask>
            <path fill="#8AB2FF" d="M10.837 45.304c5.87 0 10.645-4.786 10.645-10.67V10.67C21.482 4.786 16.707 0 10.837 0 4.967 0 .194 4.786.194 10.67v23.965c0 5.883 4.774 10.67 10.643 10.67" mask="url(#d)"/>
        </g>
        <path fill="#4D71B7" d="M102.5 28.256h-2.119c-.68 0-1.233.554-1.233 1.236v4.345c0 7.603-6.17 13.789-13.755 13.789-7.585 0-13.755-6.186-13.755-13.789v-4.345c0-.682-.552-1.236-1.233-1.236h-2.12c-.68 0-1.232.554-1.232 1.236v4.345c0 9.09 7.05 17.101 16.047 18.238v3.078h-9.465c-.68 0-1.233.554-1.233 1.236v2.124c0 .683.553 1.236 1.233 1.236h23.516c.68 0 1.233-.553 1.233-1.236V56.39c0-.682-.552-1.236-1.233-1.236h-9.465v-3.078c8.998-1.136 16.047-9.147 16.047-18.238v-4.345c0-.682-.552-1.236-1.233-1.236"/>
        <path fill="#4D71B7" d="M130.654 30.243l25.863-7.103-7.406 6.812-18.554 4.929c.026-.504.058-1.015.097-1.533.026-.53.039-1.055.039-1.572l-.039-1.533zm-4.42-8.656L171 9.497l-8.919 8.19-34.781 9.625c.052.453.083.925.097 1.417l.039 1.455v.097a34.34 34.34 0 0 1-.35 4.678 29.402 29.402 0 0 1-1.104 4.715 29.421 29.421 0 0 1-2.346 5.26 27.983 27.983 0 0 1-2.21 3.28 35.411 35.411 0 0 1-2.715 3.085c-.194.181-.38.37-.562.563l.039.038a33.79 33.79 0 0 1-4.518 3.552 29.47 29.47 0 0 1-5.157 2.659 29.04 29.04 0 0 1-5.622 1.514c-1.513.246-3.09.382-4.73.408h-9.637c-5.364 0-10.727-.007-16.091-.02a33.38 33.38 0 0 1-4.324-.388 29.095 29.095 0 0 1-5.603-1.514 28.015 28.015 0 0 1-5.138-2.659 31.648 31.648 0 0 1-4.536-3.552v-.019l.039-.019-.563-.563a31.543 31.543 0 0 1-2.714-3.086 25.088 25.088 0 0 1-2.21-3.28 27.665 27.665 0 0 1-2.346-5.259 26.922 26.922 0 0 1-1.105-4.715 30.767 30.767 0 0 1-.35-4.678v-.097c0-.479.007-.964.02-1.455.013-.492.045-.964.097-1.417L8.938 17.686 0 9.516v-.02l44.766 12.091h.02l-.02.02 4.886 1.358a25.95 25.95 0 0 0-.64 2.795 25.676 25.676 0 0 0-.31 2.891 7.3 7.3 0 0 0-.039.777c-.012.259-.02.51-.02.756l.04 1.495c.09 1.63.323 3.208.697 4.735a22.719 22.719 0 0 0 1.765 4.774c.943 1.928 2.184 3.752 3.722 5.473.155.181.323.369.504.563.194.194.382.388.563.582 1.887 1.89 3.941 3.422 6.165 4.6a23.666 23.666 0 0 0 7.057 2.367c1.06.155 2.152.259 3.277.31 4.291.013 8.692.02 13.203.02H98.16a30.563 30.563 0 0 0 3.684-.33 23.907 23.907 0 0 0 7.076-2.367c2.21-1.178 4.266-2.71 6.166-4.6.168-.194.349-.388.543-.582l.523-.563c1.525-1.72 2.766-3.545 3.722-5.473a22.72 22.72 0 0 0 1.765-4.774c.361-1.527.594-3.105.698-4.735l.02-1.495v-.756l-.04-.777a29.13 29.13 0 0 0-.33-2.891 25.869 25.869 0 0 0-.64-2.795l4.887-1.358v-.02zm3.955 16.962l11.943-2.989h.019l-7.29 6.676-6.281 1.456a33.937 33.937 0 0 0 1.609-5.143zM14.483 23.14l25.863 7.104-.02 1.533c-.012.517 0 1.041.04 1.572.025.518.057 1.029.096 1.533h-.019l-18.535-4.93-7.425-6.792v-.02zm21.675 19.097l-7.29-6.676 11.943 2.99c.4 1.758.944 3.466 1.629 5.122l-.02.02-6.262-1.456z"/>
        <g transform="translate(0 66.857)">
            <mask id="f" fill="#fff">
                <use xlink:href="#e"/>
            </mask>
            <path fill="#846E9A" d="M155.478 31.281V.261h4.273l6.714 18.69h.088V.262H171v31.02h-4.186l-6.801-18.647h-.088v18.647h-4.447zm-14.213-7.319c0 1.075.298 1.866.894 2.374.595.51 1.3.763 2.114.763.814 0 1.519-.254 2.115-.763.595-.508.893-1.3.893-2.374V7.581c0-1.075-.298-1.866-.893-2.375-.596-.508-1.301-.762-2.115-.762-.814 0-1.519.254-2.114.762-.596.509-.894 1.3-.894 2.375v16.381zm-4.447-16.381c0-1.25.217-2.353.653-3.311.436-.959 1.018-1.757 1.744-2.397A7.385 7.385 0 0 1 141.592.48 7.864 7.864 0 0 1 144.273 0c.9 0 1.795.16 2.681.48.887.319 1.694.784 2.42 1.393.698.64 1.265 1.438 1.7 2.397.437.958.655 2.062.655 3.31v16.382c0 1.307-.218 2.425-.654 3.355-.436.929-1.003 1.7-1.701 2.309a7.476 7.476 0 0 1-2.42 1.438c-.886.32-1.78.479-2.68.479-.902 0-1.796-.16-2.682-.48a7.004 7.004 0 0 1-2.377-1.437c-.726-.61-1.308-1.38-1.744-2.31-.436-.929-.653-2.047-.653-3.354V7.581zm-8.503 23.7h4.447V.261h-4.447v31.02zm-11.684 0V4.444h-5.145V.26h14.737v4.183h-5.145V31.28h-4.447zm-20.274 0l6.932-31.02h3.706l6.932 31.02h-4.447l-1.308-6.665h-6.06l-1.308 6.665h-4.447zm10.987-10.848l-2.18-11.24h-.088l-2.18 11.24h4.448zM89.206 31.281V4.444h-5.145V.26h14.737v4.183h-5.145V31.28h-4.447zM82.971 9.193h-4.447V8.19c0-1.017-.24-1.895-.72-2.636-.48-.74-1.286-1.111-2.42-1.111-.61 0-1.104.116-1.481.348a2.927 2.927 0 0 0-.916.872 3.686 3.686 0 0 0-.48 1.285c-.087.48-.13.98-.13 1.503 0 .61.021 1.118.065 1.525.043.407.152.77.327 1.09.174.319.429.594.763.827.334.232.792.465 1.373.697l3.401 1.35c.988.378 1.788.821 2.398 1.33a5.74 5.74 0 0 1 1.439 1.764c.32.697.538 1.488.654 2.374.116.886.174 1.895.174 3.028 0 1.307-.13 2.52-.392 3.638-.262 1.118-.683 2.07-1.265 2.854-.61.813-1.41 1.452-2.398 1.917-.988.465-2.194.697-3.618.697a7.918 7.918 0 0 1-3.009-.567c-.93-.377-1.73-.9-2.398-1.568a7.63 7.63 0 0 1-1.591-2.33c-.393-.887-.589-1.853-.589-2.898v-1.656h4.447v1.395c0 .813.24 1.546.72 2.2.48.653 1.286.98 2.42.98.755 0 1.344-.11 1.765-.327.422-.218.749-.53.981-.937.233-.406.37-.892.415-1.46.043-.566.065-1.197.065-1.894 0-.813-.03-1.481-.087-2.004-.058-.523-.175-.944-.35-1.264a2.448 2.448 0 0 0-.806-.784 10.367 10.367 0 0 0-1.33-.653l-3.182-1.307c-1.919-.785-3.205-1.823-3.859-3.116-.654-1.292-.98-2.911-.98-4.857 0-1.162.16-2.266.479-3.312.32-1.045.8-1.946 1.438-2.7.61-.756 1.389-1.359 2.333-1.809C73.125.225 74.251 0 75.56 0c1.104 0 2.114.203 3.03.61a7.81 7.81 0 0 1 2.375 1.612c1.338 1.394 2.006 2.992 2.006 4.793v2.178zM48.832 31.28L55.765.261h3.705l6.933 31.02h-4.447l-1.308-6.665h-6.06L53.28 31.28h-4.448zM59.82 20.433l-2.18-11.24h-.087l-2.18 11.24h4.447zM49.792.261l-6.366 31.02h-3.924L33.18.261h4.709l3.531 21.654h.087L45.083.26h4.709zm-31.218 31.02V.261h13.254v4.183h-8.807v9.105h7.674v4.183H23.02v9.106h8.807v4.443H18.574zM4.447 4.444v22.655h2.05c1.25 0 2.136-.312 2.66-.937.522-.624.784-1.604.784-2.94V8.277c0-1.22-.247-2.164-.741-2.832-.495-.668-1.395-1.002-2.704-1.002H4.447zM0 31.28V.261h6.584c2.557 0 4.498.698 5.82 2.092 1.323 1.394 1.984 3.369 1.984 5.925v14.508c0 2.904-.705 5.046-2.115 6.426-1.41 1.38-3.437 2.07-6.082 2.07H.001z" mask="url(#f)"/>
        </g>
    </g>
</svg>
