<svg xmlns="http://www.w3.org/2000/svg" xmlns:xlink="http://www.w3.org/1999/xlink" width="237" height="69" viewBox="0 0 237 69">
    <defs>
        <path id="a" d="M0 1.098h115.584v68.39H0z"/>
    </defs>
    <g fill="none" fill-rule="evenodd">
        <path fill="#221E1F" d="M139.455 29.426c-5.768 0-9.788-4.376-9.788-11.126 0-6.748 4.02-11.083 9.788-11.083 5.767 0 9.747 4.335 9.747 11.083 0 6.75-3.98 11.126-9.747 11.126m0-25.277c-7.593 0-13.281 5.563-13.281 14.151 0 9 5.688 14.152 13.28 14.152 7.555 0 13.24-5.153 13.24-14.152 0-8.588-5.685-14.151-13.24-14.151M169.853 15.578l8.65-10.594h-3.9L162.179 20.24V4.984h-3.492V31.57h3.492v-6.911l5.278-6.381 7.677 13.292h4.06zM129.098 40.996h8.61v23.721h3.452V40.996h8.61v-2.864h-20.672zM163.918 43.67c-2.357 0-4.671.695-6.662 3.312v-8.874h-3.532v26.587h3.532V51.032c.854-1.43 2.396-4.212 6.174-4.212 2.885 0 4.874 1.88 4.874 6.216v11.66h3.532v-11.66c0-6.054-2.436-9.366-7.918-9.366M179.485 53.43c.486-4.131 2.518-6.912 6.7-6.912 4.02 0 6.498 2.659 6.498 6.911h-13.198zm6.7-10.062c-6.417 0-10.153 4.99-10.153 11.125 0 6.136 3.778 11.124 12.387 11.124 2.355 0 5.199-.325 7.066-1.021v-2.987c-2.03.573-5.44.9-7.066.9-5.564 0-7.96-2.903-8.853-6.462h16.245c.08-.736.123-1.595.123-2.209 0-6.012-3.332-10.47-9.749-10.47zM203.568 49.585c0-2.66 2.72-3.355 5.564-3.355 2.112 0 4.426.696 5.93 1.228V44.39c-1.83-.737-3.941-1.106-6.256-1.106-4.507 0-8.812 1.842-8.812 6.75 0 8.058 12.51 4.458 12.51 9.651 0 2.333-2.52 2.905-5.322 2.905-2.56 0-4.63-.696-6.539-1.349v3.19c1.707.735 4.02 1.185 6.213 1.185 5.444 0 9.26-1.267 9.26-6.38 0-7.853-12.548-4.172-12.548-9.652M223.75 49.585c0-2.66 2.722-3.355 5.564-3.355 2.112 0 4.428.696 5.931 1.228V44.39c-1.828-.737-3.94-1.106-6.255-1.106-4.507 0-8.812 1.842-8.812 6.75 0 8.058 12.508 4.458 12.508 9.651 0 2.333-2.518 2.905-5.32 2.905-2.56 0-4.63-.696-6.539-1.349v3.19c1.706.735 4.02 1.185 6.213 1.185 5.442 0 9.26-1.267 9.26-6.38 0-7.853-12.55-4.172-12.55-9.652"/>
        <g transform="translate(0 -.586)">
            <mask id="b" fill="#fff">
                <use xlink:href="#a"/>
            </mask>
            <path fill="#221E1F" d="M33.955 58.42c-12.661 0-22.965-10.375-22.965-23.127 0-12.752 10.304-23.128 22.965-23.128 10.976 0 20.172 7.798 22.43 18.18H25.726V40.5h30.6c-2.353 10.252-11.487 17.92-22.37 17.92zm80.736-54.3h-12.765L84.312 30.346H67.55C65.16 13.825 51.009 1.098 33.955 1.098 15.232 1.098 0 16.437 0 35.293c0 18.855 15.232 34.196 33.955 34.196 16.967 0 31.065-12.596 33.563-28.99h17.176l16.977 25.967h13.913l-21.19-31.752 20.297-30.593z" mask="url(#b)"/>
        </g>
    </g>
</svg>
