<?xml version="1.0" encoding="UTF-8"?>
<svg width="395px" height="31px" viewBox="0 0 395 31" version="1.1" xmlns="http://www.w3.org/2000/svg" xmlns:xlink="http://www.w3.org/1999/xlink">
    <filter id="grayscale">
      <feColorMatrix type="matrix" values="0.3333 0.3333 0.3333 0 0 0.3333 0.3333 0.3333 0 0 0.3333 0.3333 0.3333 0 0 0 0 0 1 0"/>
    </filter>
    <!-- Generator: Sketch 48.2 (47327) - http://www.bohemiancoding.com/sketch -->
    <title>Automattic</title>
    <desc>Created with Sketch.</desc>
    <defs></defs>
    <g id="Landing-B" stroke="none" stroke-width="1" fill="none" fill-rule="evenodd" transform="translate(-514.000000, -3223.000000)" opacity="0.699999988" filter="url(#grayscale)">
        <g id="Sponsors" transform="translate(1.000000, 2823.000000)">
            <g id="Logos" style="mix-blend-mode: luminosity;" transform="translate(210.000000, 262.000000)">
                <g id="Automattic" transform="translate(303.000000, 138.000000)">
                    <path d="M154.28898,15.19486 C154.28898,9.71026 150.29378,4.81966 143.06238,4.81966 C135.83538,4.81966 131.87978,9.71026 131.87978,15.19486 L131.87978,15.87686 C131.87978,21.36146 135.83538,26.33566 143.06238,26.33566 C150.29378,26.33566 154.28898,21.36146 154.28898,15.87686 L154.28898,15.19486 Z M143.06238,30.80166 C133.03038,30.80166 126.52278,23.57246 126.52278,16.04626 L126.52278,15.11126 C126.52278,7.45526 133.03038,0.35586 143.06238,0.35586 C153.14278,0.35586 159.64818,7.45526 159.64818,15.11126 L159.64818,16.04626 C159.64818,23.57246 153.14278,30.80166 143.06238,30.80166 Z" id="Fill-185" fill="#3898C9"></path>
                    <path d="M17.54292,6.90416 L11.37632,18.81056 L23.92072,18.81056 L17.54292,6.90416 Z M29.74632,29.69396 L26.00632,22.68036 L9.37872,22.68036 L5.76412,29.69396 L0.15192,29.69396 L15.45952,1.37556 L19.87932,1.37556 L35.44432,29.69396 L29.74632,29.69396 Z" id="Fill-187" fill="#111211"></path>
                    <path d="M59.59658,30.80122 C49.43258,30.80122 44.71358,25.27262 44.71358,17.91802 L44.71358,1.37622 L49.98698,1.37622 L49.98698,18.00382 C49.98698,23.23322 53.42998,26.33742 59.97938,26.33742 C66.69818,26.33742 69.45918,23.23322 69.45918,18.00382 L69.45918,1.37622 L74.77438,1.37622 L74.77438,17.91802 C74.77438,24.93382 70.26878,30.80122 59.59658,30.80122" id="Fill-189" fill="#111211"></path>
                    <polygon id="Fill-191" fill="#111211" points="104.36988 5.79778 104.36988 29.69418 99.05468 29.69418 99.05468 5.79778 86.68188 5.79778 86.68188 1.37578 116.74268 1.37578 116.74268 5.79778"></polygon>
                    <polygon id="Fill-193" fill="#111211" points="207.01594 29.69484 207.01594 7.28564 205.61234 9.75404 193.74994 29.69484 191.15614 29.69484 179.41914 9.75404 178.01554 7.28564 178.01554 29.69484 172.83014 29.69484 172.83014 1.37644 180.18474 1.37644 191.36734 20.80904 192.68514 23.18944 194.00514 20.80904 205.05794 1.37644 212.33114 1.37644 212.33114 29.69484"></polygon>
                    <path d="M240.3103,6.90416 L234.1437,18.81056 L246.6881,18.81056 L240.3103,6.90416 Z M252.5137,29.69396 L248.7737,22.68036 L232.1461,22.68036 L228.5315,29.69396 L222.9193,29.69396 L238.2269,1.37556 L242.6489,1.37556 L258.2117,29.69396 L252.5137,29.69396 Z" id="Fill-195" fill="#111211"></path>
                    <polygon id="Fill-197" fill="#111211" points="279.64168 5.79778 279.64168 29.69418 274.32648 29.69418 274.32648 5.79778 261.95368 5.79778 261.95368 1.37578 292.01448 1.37578 292.01448 5.79778"></polygon>
                    <polygon id="Fill-199" fill="#111211" points="318.6336 5.79778 318.6336 29.69418 313.3184 29.69418 313.3184 5.79778 300.9456 5.79778 300.9456 1.37578 331.0064 1.37578 331.0064 5.79778"></polygon>
                    <path d="M344.10344,29.69484 L344.10344,4.05604 C346.22864,4.05604 347.08004,2.90544 347.08004,1.37644 L349.33284,1.37644 L349.33284,29.69484 L344.10344,29.69484 Z" id="Fill-201" fill="#111211"></path>
                    <path d="M390.9608,9.37058 C388.411,7.03198 384.6688,4.82098 379.6088,4.82098 C372.0386,4.82098 367.7882,10.00858 367.7882,15.40738 L367.7882,15.96178 C367.7882,21.31878 372.0826,26.33698 379.9916,26.33698 C384.7106,26.33698 388.6244,24.08198 391.0906,21.78738 L394.2784,25.14458 C391.1742,28.20698 385.9008,30.80078 379.6506,30.80078 C368.9344,30.80078 362.429,23.82678 362.429,16.17298 L362.429,15.23798 C362.429,7.58418 369.5306,0.35498 379.9058,0.35498 C385.9008,0.35498 391.3436,2.86518 394.2784,6.01118 L390.9608,9.37058 Z" id="Fill-203" fill="#111211"></path>
                    <path d="M146.56522,10.20834 C147.52442,10.82654 147.79282,12.10914 147.16802,13.07494 L142.32142,20.58354 C141.70102,21.54714 140.41842,21.82654 139.46142,21.20834 C138.50442,20.59014 138.23382,19.30974 138.85642,18.34394 L143.70302,10.83534 C144.32562,9.87174 145.60602,9.59234 146.56522,10.20834" id="Fill-205" fill="#111211"></path>
                </g>
            </g>
        </g>
    </g>
</svg>
