<svg
  xmlns="http://www.w3.org/2000/svg"
  xml:space="preserve"
  width="2991px"
  height="1942px"
  style="shape-rendering:geometricPrecision; text-rendering:geometricPrecision; image-rendering:optimizeQuality; fill-rule:evenodd; clip-rule:evenodd"
viewBox="0 0 2907 1887"
 xmlns:xlink="http://www.w3.org/1999/xlink">
 <defs>
  <style type="text/css">
   <![CDATA[
    .fil0 {fill:none}
    .fil1 {fill:#0D62AD;fill-rule:nonzero}
    .fil2 {fill:#4C4C4D;fill-rule:nonzero}
    .fil3 {fill:#737476;fill-rule:nonzero}
   ]]>
  </style>
 </defs>
 <g id="Layer_x0020_1">
  <metadata id="CorelCorpID_0Corel-Layer"/>
  <rect class="fil0" width="2907" height="1887"/>
  <g id="_200027064">
   <path class="fil1" d="M2452 571c0,0 -5,8 -9,13 0,0 8,6 12,10 1,1 1,1 1,2 9,9 14,23 14,35 0,30 -15,46 -36,47l-2 0 -42 0 0 -113c0,-35 15,-54 33,-55 21,0 34,13 34,38 0,9 -2,17 -5,22l0 0zm96 130l0 0c-10,18 -27,36 -45,45 -17,8 -37,8 -57,8 0,0 -1,0 -1,0l-55 0 0 -41 57 -1c36,-4 66,-30 66,-72 0,-23 -13,-49 -40,-61 11,-9 19,-24 19,-42 0,-19 -8,-35 -20,-45 -13,-10 -30,-15 -50,-15 -38,0 -68,32 -68,81l0 121 -41 0 0 -243 100 0c45,0 88,3 111,41 10,17 15,33 15,50 0,14 -4,29 -11,44 -1,2 -3,5 -6,9 0,0 2,1 4,3l2 2c3,3 6,7 9,10 3,3 5,6 7,9 7,10 13,20 15,33 1,6 1,12 1,17 0,16 -4,32 -12,46zm46 -70l0 0c-4,-24 -16,-42 -28,-57 6,-15 9,-31 9,-47 0,-24 -7,-47 -20,-69 -36,-59 -102,-59 -141,-59l-136 0 0 315 77 0 0 75 94 0 0 0c21,0 47,0 71,-12 25,-12 48,-34 62,-60 11,-20 16,-41 16,-64 0,-7 -1,-15 -2,-23z"/>
   <path class="fil2" d="M773 1039c30,0 47,-10 47,-33l0 -1c0,-20 -15,-33 -50,-33l-77 0 0 67 80 0zm-18 -123l0 0c30,0 48,-10 48,-32l0 -1c0,-20 -16,-31 -44,-31l-66 0 0 64 62 0zm-127 -123l0 0 141 0c35,0 62,10 80,27 14,14 21,31 21,52l0 1c0,34 -18,54 -40,66 35,13 57,34 57,75l0 1c0,56 -45,84 -114,84l-145 0 0 -305z"/>
   <polygon class="fil2" points="1107,793 1337,793 1337,853 1174,853 1174,914 1318,914 1318,974 1174,974 1174,1038 1339,1038 1339,1098 1107,1098 "/>
   <polygon class="fil2" points="1635,855 1543,855 1543,793 1795,793 1795,855 1702,855 1702,1098 1635,1098 "/>
   <path class="fil2" d="M2147 970l-40 -99 -40 99 81 0zm-70 -179l0 0 62 0 131 307 -70 0 -28 -68 -129 0 -28 68 -68 0 131 -307z"/>
   <path class="fil3" d="M684 1237l-8 0c-2,-9 -8,-15 -21,-15 -11,0 -19,6 -19,14 0,7 5,11 15,13l11 2c13,3 21,9 21,20 0,14 -11,23 -28,23 -18,0 -30,-9 -31,-26l8 0c2,12 10,19 24,19 12,0 20,-6 20,-15 0,-6 -4,-11 -14,-13l-13 -3c-14,-3 -21,-10 -21,-20 0,-13 11,-22 27,-22 15,0 27,7 29,22z"/>
   <polygon class="fil3" points="722,1292 714,1292 714,1216 722,1216 "/>
   <polygon class="fil3" points="829,1292 821,1292 822,1234 796,1277 790,1277 764,1233 764,1292 757,1292 757,1216 763,1216 793,1267 823,1216 829,1216 "/>
   <path class="fil3" d="M927 1260c0,20 -13,34 -32,34 -19,0 -32,-14 -32,-34l0 -43 8 0 0 43c0,15 10,26 24,26 15,0 24,-11 24,-26l0 -43 8 0 0 43z"/>
   <polygon class="fil3" points="1010,1292 960,1292 960,1216 968,1216 968,1285 1010,1285 "/>
   <path class="fil3" d="M1068 1225l-16 37 33 0 -17 -37zm-20 44l0 0 -10 22 -8 0 34 -76 7 0 34 76 -8 0 -10 -22 -40 0z"/>
   <polygon class="fil3" points="1152,1224 1152,1292 1144,1292 1144,1224 1116,1224 1116,1216 1180,1216 1180,1224 "/>
   <polygon class="fil3" points="1214,1292 1206,1292 1206,1216 1214,1216 "/>
   <path class="fil3" d="M1316 1254c0,-17 -14,-32 -31,-32 -17,0 -31,14 -31,32 0,17 14,32 31,32 18,0 31,-14 31,-32zm8 0l0 0c0,22 -17,39 -39,39 -22,0 -39,-17 -39,-39 0,-22 17,-39 39,-39 22,0 39,17 39,39z"/>
   <polygon class="fil3" points="1419,1292 1412,1292 1363,1231 1363,1292 1355,1292 1355,1216 1361,1216 1411,1278 1411,1216 1419,1216 "/>
   <path class="fil3" d="M1576 1237l-8 0c-2,-9 -8,-15 -21,-15 -11,0 -19,6 -19,14 0,7 5,11 15,13l11 2c13,3 21,9 21,20 0,14 -11,23 -28,23 -18,0 -30,-9 -31,-26l8 0c2,12 10,19 24,19 12,0 20,-6 20,-15 0,-6 -4,-11 -14,-13l-13 -3c-14,-3 -21,-10 -21,-20 0,-13 11,-22 27,-22 15,0 27,7 29,22z"/>
   <path class="fil3" d="M1672 1254c0,-17 -14,-32 -31,-32 -17,0 -31,14 -31,32 0,17 14,32 31,32 18,0 31,-14 31,-32zm8 0l0 0c0,22 -18,39 -39,39 -22,0 -39,-17 -39,-39 0,-22 17,-39 39,-39 22,0 39,17 39,39z"/>
   <polygon class="fil3" points="1761,1292 1712,1292 1712,1216 1719,1216 1719,1285 1761,1285 "/>
   <path class="fil3" d="M1850 1260c0,20 -13,34 -32,34 -19,0 -32,-14 -32,-34l0 -43 8 0 0 43c0,15 10,26 24,26 15,0 24,-11 24,-26l0 -43 8 0 0 43z"/>
   <polygon class="fil3" points="1910,1224 1910,1292 1902,1292 1902,1224 1874,1224 1874,1216 1938,1216 1938,1224 "/>
   <polygon class="fil3" points="1972,1292 1964,1292 1964,1216 1972,1216 "/>
   <path class="fil3" d="M2073 1254c0,-17 -14,-32 -31,-32 -17,0 -31,14 -31,32 0,17 14,32 31,32 18,0 31,-14 31,-32zm8 0l0 0c0,22 -18,39 -39,39 -22,0 -39,-17 -39,-39 0,-22 17,-39 39,-39 22,0 39,17 39,39z"/>
   <polygon class="fil3" points="2176,1292 2169,1292 2120,1231 2120,1292 2112,1292 2112,1216 2119,1216 2168,1278 2168,1216 2176,1216 "/>
   <path class="fil3" d="M2266 1237l-8 0c-2,-9 -8,-15 -21,-15 -11,0 -19,6 -19,14 0,7 5,11 15,13l11 2c13,3 21,9 21,20 0,14 -11,23 -28,23 -18,0 -30,-9 -31,-26l8 0c2,12 10,19 24,19 12,0 20,-6 20,-15 0,-6 -4,-11 -14,-13l-13 -3c-14,-3 -21,-10 -21,-20 0,-13 11,-22 27,-22 15,0 27,7 29,22z"/>
  </g>
 </g>
</svg>
