
<svg width="200px" style="background-color: #000f1e;" xmlns="http://www.w3.org/2000/svg" viewBox="0 0 362.49 24"><defs><style>.cls-1{fill:#fff;}</style></defs><title>Asset 2</title><g id="Layer_2" data-name="Layer 2"><g id="Layer_2-2" data-name="Layer 2"><path class="cls-1" d="M0,24H28.8V16.8L26,12l2.8-4.8V0H0ZM4.8,4.8H24V5.93L21.87,9.6H4.8Zm0,9.6H21.87L24,18.07V19.2H4.8Z"/><polygon class="cls-1" points="33.6 0 33.6 4.8 38.4 4.8 45.96 4.8 62.4 4.8 62.4 0 33.6 0"/><polygon class="cls-1" points="45.96 19.2 45.96 19.2 33.6 19.2 33.6 24 62.4 24 62.4 19.2 45.96 19.2"/><polygon class="cls-1" points="45.96 14.4 45.96 14.4 57.6 14.4 57.6 9.6 45.96 9.6 38.4 9.6 33.6 9.6 33.6 14.4 45.96 14.4"/><polygon class="cls-1" points="67.2 4.8 79.2 4.8 79.2 24 84 24 84 4.8 96 4.8 96 0 67.2 0 67.2 4.8"/><polygon class="cls-1" points="110.53 0 98.8 24 104.13 24 113.2 5.47 122.27 24 127.6 24 115.87 0 110.53 0"/><polygon class="cls-1" points="132.4 0 132.4 4.8 136 4.8 156.4 4.8 156.4 19.2 137.2 19.2 137.2 9.6 132.4 9.6 132.4 24 161.2 24 161.2 2.4 158.8 0 132.4 0"/><polygon class="cls-1" points="180.4 18.53 171.33 0 166 0 177.73 24 183.07 24 194.8 0 189.47 0 180.4 18.53"/><polygon class="cls-1" points="211.33 0 199.6 24 204.93 24 214 5.47 223.07 24 228.4 24 216.67 0 211.33 0"/><polygon class="cls-1" points="266.5 24 295.3 24 295.3 19.2 271.3 19.2 271.3 4.8 295.3 4.8 295.3 0 266.5 0 266.5 24"/><polygon class="cls-1" points="360.1 0 333.69 0 333.69 4.8 337.29 4.8 357.69 4.8 357.69 19.2 338.5 19.2 338.5 9.6 333.69 9.6 333.69 24 362.5 24 362.5 2.4 360.1 0"/><polygon class="cls-1" points="255 16.39 239.8 0 234.8 0 234.8 24 239.6 24 239.6 7.53 255 24 259.8 24 259.8 0 255 0 255 16.39"/><polygon class="cls-1" points="300.1 0 300.1 4.8 304.89 4.8 312.46 4.8 328.89 4.8 328.89 0 300.1 0"/><polygon class="cls-1" points="312.46 19.2 312.46 19.2 300.1 19.2 300.1 24 328.89 24 328.89 19.2 312.46 19.2"/><polygon class="cls-1" points="312.46 14.4 312.46 14.4 324.1 14.4 324.1 9.6 312.46 9.6 304.89 9.6 300.1 9.6 300.1 14.4 312.46 14.4"/></g></g></svg>
