<svg id="Layer_2" data-name="Layer 2" xmlns="http://www.w3.org/2000/svg" viewBox="0 0 996 66" height="60"><defs><style>.cls-1{fill:#000f1e;}</style></defs><title>Artboard 1@1x</title><path class="cls-1" d="M0,66H79.13V46.2L71.44,33l7.69-13.2V0H0ZM13.19,13.2H65.94v3.11L60.08,26.4H13.19Zm0,26.4H60.08l5.86,10.08V52.8H13.19Z"/><polygon class="cls-1" points="92.32 0 92.32 13.2 105.51 13.2 126.28 13.2 171.45 13.2 171.45 0 92.32 0"/><polygon class="cls-1" points="126.28 52.8 126.28 52.8 92.32 52.8 92.32 66 171.45 66 171.45 52.8 126.28 52.8"/><polygon class="cls-1" points="126.28 39.6 126.28 39.6 158.26 39.6 158.26 26.4 126.28 26.4 105.51 26.4 92.32 26.4 92.32 39.6 126.28 39.6"/><polygon class="cls-1" points="184.64 13.2 217.61 13.2 217.61 66 230.8 66 230.8 13.2 263.77 13.2 263.77 0 184.64 0 184.64 13.2"/><polygon class="cls-1" points="303.7 0 271.46 66 286.12 66 311.03 15.03 335.94 66 350.6 66 318.36 0 303.7 0"/><polygon class="cls-1" points="363.78 0 363.78 13.2 373.68 13.2 429.73 13.2 429.73 52.8 376.97 52.8 376.97 26.4 363.78 26.4 363.78 66 442.92 66 442.92 6.6 436.32 0 363.78 0"/><polygon class="cls-1" points="495.67 50.97 470.76 0 456.1 0 488.34 66 503 66 535.23 0 520.58 0 495.67 50.97"/><polygon class="cls-1" points="580.66 0 548.42 66 563.08 66 587.99 15.03 612.9 66 627.55 66 595.32 0 580.66 0"/><polygon class="cls-1" points="732.23 66 811.36 66 811.36 52.8 745.42 52.8 745.42 13.2 811.36 13.2 811.36 0 732.23 0 732.23 66"/><polygon class="cls-1" points="989.41 0 916.87 0 916.87 13.2 926.76 13.2 982.81 13.2 982.81 52.8 930.06 52.8 930.06 26.4 916.87 26.4 916.87 66 996 66 996 6.6 989.41 0"/><polygon class="cls-1" points="700.64 45.07 658.88 0 645.14 0 645.14 66 658.33 66 658.33 20.72 700.64 66 713.83 66 713.83 0 700.64 0 700.64 45.07"/><polygon class="cls-1" points="824.55 0 824.55 13.2 837.74 13.2 858.52 13.2 903.68 13.2 903.68 0 824.55 0"/><polygon class="cls-1" points="858.52 52.8 858.52 52.8 824.55 52.8 824.55 66 903.68 66 903.68 52.8 858.52 52.8"/><polygon class="cls-1" points="858.52 39.6 858.52 39.6 890.49 39.6 890.49 26.4 858.52 26.4 837.74 26.4 824.55 26.4 824.55 39.6 858.52 39.6"/></svg>
