<svg width="841.89" height="683.5196" xmlns="http://www.w3.org/2000/svg">
 <style type="text/css">.st0{fill:#FFFFFF;}
	.st1{fill-rule:evenodd;clip-rule:evenodd;fill:#0060A9;stroke:#000000;stroke-width:0.2271;stroke-miterlimit:2.6131;}
	.st2{fill-rule:evenodd;clip-rule:evenodd;fill:#FFFFFF;}
	.st3{fill-rule:evenodd;clip-rule:evenodd;}
	.st4{fill-rule:evenodd;clip-rule:evenodd;fill:#FFF200;}
	.st5{fill-rule:evenodd;clip-rule:evenodd;fill:#0062AB;}
	.st6{fill-rule:evenodd;clip-rule:evenodd;fill:#5495C6;}
	.st7{font-family:'RobotoCondensed-Regular';}
	.st8{font-size:41.4364px;}
	.st9{letter-spacing:1;}</style>

 <g>
  <title>Layer 1</title>
  <rect id="svg_1" height="683.5196" width="841.89" class="st0" x="0"/>
  <g id="svg_2">
   <path id="svg_3" d="m717.1442,207.5673c-39.5334,-14.2901 -83.6868,-26.0385 -280.7252,-30.4639c-132.8005,5.3104 -233.0684,18.3443 -264.0663,53.9898c2.216,0.5585 2.8136,-0.7444 5.0332,-0.19c-4.798,7.9668 -6.9278,14.7376 -2.4516,15.906c4.5938,0.4096 3.9146,4.816 6.8868,5.7307c6.1676,-4.6333 10.7932,-6.4832 13.8681,-5.548c-5.4931,4.2513 -8.5916,7.5818 -7.9053,9.9821c4.4106,5.9454 28.1864,-8.9761 66.1048,-22.186c-5.6666,4.3079 -17.8884,10.0941 -42.1139,19.9675c94.8271,-33.4208 103.8242,-33.4034 127.4269,-37.3057c-12.3404,0.9281 -20.2775,2.5513 -34.7045,3.4794c42.2726,-13.3794 135.0782,-21.1953 194.0442,-22.7507c-31.4557,1.3788 -72.981,6.2061 -98.2592,9.438c54.8933,-6.0162 132.3729,-6.9864 185.3443,-5.5573c-15.1617,-1.4784 -30.7832,-3.1857 -47.5712,-3.7402c64.7142,-3.6055 124.4872,0.8758 177.3672,12.0633c-3.1447,-1.2947 -6.2873,-2.5892 -9.4298,-3.885c2.4034,-0.1866 8.745,1.2569 11.1515,1.07l0,0z" class="st1"/>
   <path id="svg_4" d="m219.1811,170.1138l-3.3982,11.6465c-0.0724,0.2762 -0.1428,0.5513 -0.2008,0.8331l0.4389,0.0066c3.8197,0 7.8488,0.2721 11.3087,-1.6576c2.1518,-1.3233 3.5968,-3.3027 4.8637,-5.4479l1.0867,-1.9578l6.3719,0l-5.5573,16.3783l-36.3842,0l2.232,-6.3437c1.2299,-0.0426 2.4942,-0.0215 3.7113,-0.2089c0.7485,-0.1551 0.8773,-0.5888 1.1489,-1.2315c0.4553,-1.1427 0.8064,-2.3177 1.1396,-3.4927l7.069,-24.2927c0.2598,-0.9769 0.5277,-1.9927 0.6124,-3.0091c-0.3736,-0.06 -0.7746,-0.06 -1.1555,-0.0672l-4.2482,0l2.0625,-6.4176l33.9192,0l-3.8284,14.9106l-6.2503,0l0.021,-0.1556l-4.8443,17.1303l-6.6913,0l1.1453,-4.1493c0.0775,-0.3563 0.4461,-1.9692 0.0791,-2.2479c-0.1309,-0.0842 -0.2737,-0.0842 -0.4235,-0.1093c-1.3987,-0.1622 -2.8258,-0.1166 -4.2282,-0.1166l0,0zm15.3583,-13.1288c0.1293,-0.8536 0.3136,-1.828 0.1715,-2.6919c-0.2366,-0.9563 -1.4327,-1.5415 -2.329,-1.7078c-0.5128,-0.0811 -1.0235,-0.1309 -1.5379,-0.1658c-2.1986,-0.1339 -4.4002,-0.0986 -6.5968,-0.0986l-3.0004,10.3872c1.3531,0 2.8469,-0.0456 4.1159,-0.575c1.1555,-0.5579 1.8099,-1.9937 2.2914,-3.1087l0.8219,-2.0394l6.0634,0l0,0zm12.9275,32.8735c-1.7709,-0.5894 -3.3407,-1.3727 -4.6292,-2.7453c-1.3777,-1.6437 -2.1996,-3.7253 -2.2704,-5.8745c0.0266,-1.6617 0.4379,-3.2705 0.8824,-4.8587l3.4542,-11.9395l0.0652,-0.2541l-3.8068,-0.3004l1.7514,-5.7862c14.1678,0 28.3326,0 42.502,0c2.1293,0.021 4.1267,0.2156 6.1343,0.9702l0.9327,0.4379c1.5497,0.9137 2.6154,2.0538 3.4003,3.6692c0.4861,1.1503 0.6909,2.2053 0.716,3.4506l-0.0461,0.942c-0.3722,2.8295 -1.8686,5.2467 -4.2267,6.8519c-0.7407,0.4589 -1.5046,0.8506 -2.313,1.175c0.6796,2.2971 1.3182,4.6189 2.0764,6.895c0.157,0.4338 0.309,0.903 0.5307,1.309c0.9882,0.1766 2.0769,0.1555 3.0846,0.2151c-0.5102,-1.2105 -0.8649,-2.4096 -1.0677,-3.7057c-0.2434,-1.8798 -0.0775,-3.6934 0.2844,-5.5491c0.4635,-2.0046 1.1468,-3.7863 2.078,-5.6143c0.6806,-1.252 1.4203,-2.3952 2.2827,-3.5353c1.1873,-1.4676 2.445,-2.7129 3.9301,-3.8843c1.4897,-1.1042 3.0045,-2.0112 4.6964,-2.7766c1.6108,-0.6709 3.158,-1.1186 4.892,-1.3618c0.7521,-0.0744 1.4856,-0.1134 2.2422,-0.1027c2.0046,0.0919 3.7386,0.5965 5.5009,1.5529c0.6879,0.4127 1.2899,0.8398 1.9137,1.3439l1.1047,1.1149c1.1714,1.4574 1.9742,2.9219 2.4911,4.7073c0.1247,0.4794 0.2244,0.9521 0.2983,1.4393c0.2064,1.7146 0.0421,3.3767 -0.2593,5.0702c-0.3865,1.7504 -0.9265,3.3304 -1.6709,4.9643c-2.2863,4.6252 -5.7759,9.0578 -10.5005,11.3472c-3.1929,1.4076 -6.8797,1.8521 -10.3199,1.2905c-1.1591,-0.2279 -2.1843,-0.5636 -3.232,-1.0975c-0.9491,-0.542 -1.7237,-1.1632 -2.505,-1.9188l-0.9912,-1.1961c-0.3989,-0.6026 -0.7448,-1.1884 -1.0539,-1.8387l0,5.6497l-12.9133,0l-0.5262,-1.8141l-0.6878,1.8141l-18.2555,0l1.9445,-5.9978c0.9404,-0.0257 1.9824,0.0601 2.9121,-0.1489l0.1166,-0.0354c0.39,-0.599 0.5964,-1.351 0.8028,-2.0245l4.9983,-17.2719l0.0688,-0.2675c-1.0672,-0.0956 -2.1523,-0.1802 -3.2006,0.1057c-0.7356,0.2644 -1.0672,1.3547 -1.2771,2.0107l-3.7314,12.8717c-0.5277,1.6227 -1.1319,3.1334 -1.9419,4.6359c-0.6653,1.1359 -1.3634,2.1103 -2.2705,3.0697c-0.8803,0.8398 -1.7643,1.4856 -2.8279,2.0779c-0.5242,0.2649 -1.0411,0.4939 -1.5862,0.7053c-3.1792,1.0801 -6.7551,1.1961 -9.9768,0.2126l0,0zm12.1414,-25.7537l-2.329,0.0817c-0.2433,0.039 -0.5431,0.06 -0.7104,0.2577c-0.3794,0.5502 -0.577,1.2063 -0.7731,1.8346l-3.4573,11.901c-0.3105,1.1462 -0.6216,2.3634 -0.6427,3.5595c0.0853,1.62 2.5282,1.4254 3.6097,1.2283c1.138,-0.2787 1.9137,-0.8531 2.5667,-1.8207c0.8449,-1.3439 1.3727,-2.8613 1.8259,-4.371l3.5034,-12.1839c0.0354,-0.1376 0.0673,-0.2751 0.094,-0.4199l-3.6872,-0.0673l0,0zm21.5541,19.7981l-0.6617,-2.2936c-0.2202,0.7448 -0.4619,1.4923 -0.6489,2.2479l1.3106,0.0457l0,0zm3.6734,-15.8249c0.252,-0.7623 0.3598,-1.5949 0.273,-2.3952l-1.1077,3.757c0.3793,-0.3844 0.6401,-0.8572 0.8347,-1.3618l0,0zm29.1452,-3.6698c-0.6278,0.0149 -1.1186,0.0853 -1.6508,0.4276c-1.7623,1.2489 -2.8952,3.4573 -3.7098,5.4018l-2.3095,8.5141c-0.1822,1.2591 -0.3424,2.5717 -0.1417,3.8386c0.2402,0.9841 0.5082,1.136 1.4964,1.0128c0.9737,-0.2263 1.4886,-0.8476 2.1241,-1.5811c2.3017,-2.8618 3.5332,-6.4675 4.3946,-9.9925c0.4537,-2.0179 0.7812,-4.0891 0.617,-6.1641c-0.0735,-0.5183 -0.1376,-1.4212 -0.8203,-1.4572l0,0zm23.534,13.6058l-0.2982,-0.0246c-0.5661,1.944 -1.1996,3.8951 -1.6919,5.8632l4.1251,0.1345l-2.0821,5.9279l-18.4212,0l1.8366,-6.0024l2.5703,-0.0662c0.2064,-0.0179 0.4235,-0.0323 0.6299,-0.078l0.002,0c0.2079,-0.4938 0.3615,-1.0097 0.5169,-1.5164l5.0615,-17.3525c0.0734,-0.2438 0.1478,-0.4913 0.211,-0.7413l-3.6519,-0.1519l1.7382,-5.9064l13.0559,0.0036c2.2746,0.0565 4.4917,0.2644 6.5829,1.2345c1.4357,0.7731 2.6021,1.7787 3.4608,3.1724l1.2952,-4.4105l26.5431,0l-3.0677,11.9467l-3.5599,0l-2.1293,7.3811l0.0899,-0.1052l5.912,0l-2.1103,5.564c0.6457,-0.6488 1.2453,-1.3449 1.8382,-2.039l19.5665,-23.3513l4.8971,0c-0.3526,8.7327 -0.8239,17.4588 -1.0477,26.1946c-0.002,0.06 -0.0071,0.1232 -0.002,0.1909c0.6118,-0.0113 1.2787,0.0452 1.8911,-0.0467c0.5981,-0.2495 0.9583,-1.1571 1.1524,-1.6996l5.2246,-17.9208c-0.1935,-0.0318 -0.3962,-0.0426 -0.5903,-0.0565l-3.7488,-0.1129l1.7458,-5.9454l12.6357,0l6.0033,12.8009l1.8008,-6.2061c0.0411,-0.173 0.0811,-0.346 0.1068,-0.5257l-3.5061,-0.3178l1.6898,-5.7513l13.8584,0l-1.56,5.8715l-2.3731,0.2289c-0.7058,0.1586 -0.8147,0.3075 -1.1366,0.9492c-0.1772,0.4127 -0.3193,0.8152 -0.4548,1.2422l-7.0218,23.8159l-4.4224,0l-8.3497,-17.7437l-3.2001,10.9841c-0.0313,0.134 -0.0672,0.2715 -0.0847,0.4158l3.5779,0.0924l-1.4363,5.9588c-9.126,0 -18.2442,0 -27.3671,0l1.7377,-5.8601c0.8803,-0.0888 1.7694,-0.1586 2.6513,-0.2618c0.2085,-0.7756 0.212,-1.6155 0.2562,-2.4131l-4.1288,0l-2.1288,2.5861l1.1606,0.0811l0,5.8678c-13.3563,0 -26.7094,0 -40.0622,0l1.9445,-6.0024l2.5876,-0.0775c0.6704,-0.0944 0.614,-0.1202 0.9102,-0.7546c0.1822,-0.4594 0.3316,-0.9106 0.4763,-1.3757l5.0511,-17.3176l0.0559,-0.2181l-2.4891,-0.2085c0.7356,2.0857 0.6175,4.2725 -0.0657,6.3443c-0.5096,1.2838 -1.1391,2.293 -2.0287,3.3479c-0.4019,0.4342 -0.8109,0.8331 -1.2504,1.2319c-1.3531,1.1145 -2.6898,1.8378 -4.3433,2.4127l-1.2417,0.3392c-1.8117,0.3775 -3.5546,0.4832 -5.3984,0.3775l0,0zm2.7663,-9.0962c0.4496,-1.0164 0.713,-2.117 0.5892,-3.235c-0.0159,-0.0955 -0.0333,-0.1982 -0.0708,-0.2895l-1.4378,5.0101c0.3902,-0.4168 0.674,-0.9672 0.9194,-1.4856l0,0zm27.2424,-3.9731c-0.674,-0.0452 -1.3465,-0.0525 -2.02,-0.0525l-1.3624,4.735c0.3332,-0.0637 0.6601,-0.1484 0.9789,-0.2824c1.3255,-0.6175 2.0523,-2.6144 2.6323,-3.7648l2.1242,0c-0.6755,-0.5219 -1.5297,-0.5712 -2.353,-0.6353l0,0zm-1.2197,16.2766l-2.9629,0l0.562,-3.5214c0.0334,-0.2721 0.078,-0.5647 0.0689,-0.8362c-0.1212,-0.0919 -0.2767,-0.1412 -0.4215,-0.1659c-0.4887,-0.0565 -0.9774,-0.0703 -1.4661,-0.0811l-1.8311,6.4073c2.0939,-0.0246 4.2941,-0.6524 6.0507,-1.8027l0,0zm106.6203,-35.2231c0.3439,0.0985 0.6848,0.2043 1.0287,0.3209c2.1827,0.776 4.0368,1.926 5.7575,3.4824l0.8962,0.9034c1.9117,2.1694 3.2196,4.5266 4.1169,7.2713c0.4784,1.6376 0.7587,3.2253 0.8408,4.9259l1.4127,-4.8022c12.4585,0 24.919,0 37.3826,0l6.0049,12.8009l1.7966,-6.2025c0.0431,-0.1736 0.0841,-0.3495 0.1088,-0.5292l-3.504,-0.3178l1.6888,-5.7513l13.8568,0l-1.5605,5.8715l-2.3716,0.2289c-0.7104,0.1586 -0.8121,0.3075 -1.1406,0.9492c-0.1745,0.4127 -0.3173,0.8152 -0.4517,1.2386l-5.2319,17.7545c0.7731,-0.1524 1.5246,-0.1653 2.1541,-0.6458c0.9188,-0.7899 1.7093,-1.7289 2.4968,-2.6493l19.567,-23.3513l4.8961,0c-0.349,8.6727 -0.7648,17.3387 -1.0389,26.0114c-0.0071,0.1268 -0.0103,0.2541 -0.0071,0.3809c0.58,0.0595 1.2863,0.0175 1.8695,-0.1202c0.6016,-0.1909 0.9886,-1.0969 1.2012,-1.6231l5.2708,-17.984l-4.2093,-0.0492l1.9825,-6.0122l13.7756,0l1.4404,13.4605l9.319,-13.4605c9.899,0 19.801,0 29.7001,0l-2.0913,5.9983l-2.4003,0.0846c-0.1263,0.0174 -0.4076,0.0457 -0.4918,0.152c-0.385,0.5857 -0.5851,1.2874 -0.7854,1.9475c-1.6703,5.8535 -3.4197,11.6998 -5.0131,17.5748l3.7329,0.133l-1.5923,5.9248c-11.5848,0 -23.1696,0 -34.7512,0l0.0102,-0.039l-0.0267,0.039l-4.5994,0l-0.1549,-1.4609l-0.4056,1.4609c-9.1166,0 -18.2344,0 -27.3471,0l1.7351,-5.8601c0.8839,-0.0888 1.7689,-0.1586 2.6549,-0.2618c0.2023,-0.7756 0.2136,-1.6191 0.2526,-2.4131l-4.1262,0l-2.1302,2.5861l1.1631,0.0811l0,5.8678l-13.7531,0l-0.0883,0.2926l-4.4217,0l-8.3499,-17.7437l-3.2032,10.9873c-0.0297,0.1344 -0.0636,0.2721 -0.0831,0.4126l3.5779,0.0924l-1.4363,5.9588l-14.1124,0l1.4537,-6.0265c0.8881,-0.0067 1.8603,0.0775 2.7474,-0.0534c0.6067,-0.2577 0.9589,-1.1494 1.153,-1.7043l5.2266,-17.9162c-0.4692,-0.0883 -1.1478,-0.1339 -1.5862,-0.0456c-0.2495,0.0667 -0.3223,0.1298 -0.4938,0.3065c-0.8531,0.9424 -1.5995,1.9799 -2.3469,2.9958l-7.2359,9.9708c-0.614,2.1421 -1.2331,4.2838 -1.8501,6.4285l4.2144,0l-1.7926,6.0444l-19.0157,0l1.6191,-6.0368c0.9671,-0.0077 1.9783,0.0698 2.9413,-0.0641c0.614,-0.1202 0.6078,-0.2254 0.8224,-0.8255c0.8192,-2.4762 1.4835,-5.0136 2.2123,-7.5151l-2.2,-9.4987c-0.1499,-0.5394 -0.3039,-1.1817 -0.6068,-1.6651c-0.1519,-0.0632 -0.3059,-0.1052 -0.4641,-0.1485l-2.9557,-0.6138c0.039,2.216 -0.2936,4.4248 -0.8429,6.5628c-0.8942,3.1898 -2.2657,6.3725 -4.317,8.9976c-2.0595,2.4938 -4.6754,4.6605 -7.3755,6.4212c-1.8686,1.1684 -3.7689,2.081 -5.8478,2.8131c-1.8542,0.5985 -3.6877,0.9804 -5.6149,1.2381c-1.9721,0.229 -3.9249,0.3235 -5.9093,0.3347l-20.5896,0l2.2319,-6.3437c1.2382,-0.0426 2.5092,-0.0215 3.7411,-0.2119c0.849,-0.173 1.0103,-0.7592 1.3203,-1.5036c0.4076,-1.0262 0.7228,-2.078 1.0298,-3.1364l7.126,-24.3559c0.2669,-0.984 0.5328,-2.0107 0.6047,-3.0342c-0.3686,-0.039 -0.7269,-0.0529 -1.0944,-0.06l-4.2709,0l2.0625,-6.4176l15.1503,0.0031c3.3481,0.0389 6.696,0.2612 9.9413,1.1436l0,0zm0.2023,24.2322c0.4434,-1.6514 0.7021,-3.2673 0.8376,-4.9746c0.1787,-3.0872 0.0915,-6.2812 -1.4167,-9.0613c-0.7331,-1.1817 -1.5492,-1.9686 -2.7504,-2.6703c-1.2988,-0.6638 -2.5543,-0.9743 -3.9958,-1.1576c-1.3285,-0.1232 -2.6211,-0.1058 -3.9516,-0.0668l-8.1937,28.308c-0.1971,0.6802 -0.386,1.368 -0.5534,2.0636c1.2771,0.0744 2.6067,-0.0067 3.8807,-0.1098c3.6539,-0.3275 7.666,-1.0764 10.6187,-3.4014l0.7125,-0.6236c2.2351,-2.1734 3.6754,-4.7919 4.6446,-7.7344l0.1675,-0.5718l0,0zm30.3038,-6.199l-0.0215,0.0703c-0.9087,0.0246 -1.9384,-0.0673 -2.8316,0.1376c0.1417,1.1678 0.4702,2.3603 0.7187,3.4962c0.8521,-1.1749 1.7905,-2.3742 2.4947,-3.6548l-0.3603,-0.0493l0,0zm97.2252,2.2792l-4.9752,17.2924l-0.0687,0.2607c1.1149,0.0422 2.2545,0.0632 3.3694,-0.0287c0.4939,-0.0668 0.5256,-0.0246 0.7659,-0.4584c0.2516,-0.5436 0.4354,-1.0862 0.612,-1.654l4.9659,-17.2611l0.0687,-0.2751c-1.0707,-0.1093 -2.1857,-0.0956 -3.2524,0c-0.5851,0.0882 -0.6273,0.0914 -0.9076,0.5857c-0.2432,0.5047 -0.4168,1.0051 -0.578,1.5385l0,0zm-17.9047,17.5501c0.2997,-0.0082 1.0348,-0.0292 1.2586,-0.2864c0.6303,-0.8999 0.8983,-2.2443 1.195,-3.2643l-2.4536,3.5507l0,0zm-9.4197,0.1053l-0.5565,-5.2287l-1.3542,4.7108c-0.0308,0.1294 -0.0646,0.2608 -0.0924,0.3983l2.0031,0.1196l0,0zm64.3344,-18.6226c-0.8716,-1.0127 -2.1642,-1.0759 -3.3807,-0.7196c-3.3531,1.1683 -5.2052,4.795 -6.3828,7.8893c-0.7803,2.216 -1.2433,4.4844 -1.1345,6.8452c0.1304,1.5878 0.5585,2.9424 2.2053,3.4363c1.2319,0.307 2.5974,0.1519 3.7698,-0.3142c1.85,-0.7967 3.1159,-2.3777 4.4156,-3.8525l3.1898,0l0.8254,-3.5322l5.2637,0c0.2279,2.2617 0.2711,4.9397 1.5646,6.9443c0.8367,1.1185 1.9558,1.6796 3.3726,1.4953c0.5975,-0.1375 1.0328,-0.4722 1.308,-1.0261c0.5832,-1.5698 -1.1406,-3.2607 -2.0533,-4.252c-1.2176,-1.2663 -2.4568,-2.4624 -3.5543,-3.8386c-1.2166,-1.5847 -2.1231,-3.1478 -2.5102,-5.1338l-0.4528,1.9547l-5.3961,0l-0.1909,-3.2355c-0.1057,-0.9311 -0.2782,-1.8946 -0.8592,-2.6606l0,0zm0.8326,21.1805c-0.7146,0.7238 -1.4979,1.348 -2.3387,1.9117c-3.8622,2.3931 -8.8108,2.6724 -13.055,1.1929l-1.1898,-0.5214c-1.6058,-0.8542 -2.8223,-1.8378 -4.0029,-3.214l-0.7618,-1.0374c-0.9548,-1.5497 -1.5051,-3.0132 -1.8542,-4.7914c-0.2001,-1.3408 -0.2505,-2.5974 -0.1818,-3.945c0.1428,-1.7216 0.4692,-3.2884 1.0164,-4.9253c0.615,-1.6622 1.3655,-3.1441 2.3397,-4.6261c0.9179,-1.3018 1.9014,-2.4167 3.0707,-3.5034l1.0349,-0.8681c2.2084,-1.6791 4.546,-2.9213 7.1805,-3.8001c2.5194,-0.7551 5.0511,-1.115 7.668,-0.7336c0.6191,0.0985 1.232,0.2295 1.8449,0.3778c0.6067,0.155 1.2135,0.3419 1.8264,0.4722l1.0369,-1.0164l5.1692,0l-0.9835,4.2242c1.1909,-1.5174 2.5892,-2.5652 4.356,-3.3454l1.0041,-0.3562c1.9733,-0.5395 3.8541,-0.635 5.8724,-0.3419c1.1643,0.1868 2.3018,0.4651 3.4424,0.7761c0.3387,0.0847 0.692,0.1797 1.0472,0.2295c0.3521,-0.367 0.6786,-0.7905 1.0164,-1.1863l5.4854,0l-3.5204,14.3111l-5.0891,0c1.2371,1.2669 2.2741,2.583 3.0163,4.2026l0.4076,1.1396c0.3994,1.5205 0.4888,2.8547 0.3306,4.4213l-0.2896,1.369c-0.4733,1.4533 -1.0708,2.5575 -2.0308,3.7463l-1.0482,1.0308c-1.2279,0.966 -2.4517,1.6304 -3.926,2.1241c-2.0492,0.6242 -4.0923,0.7864 -6.2216,0.5995c-1.8417,-0.1797 -3.623,-0.6181 -5.4515,-0.8675c-0.2094,-0.0257 -0.5873,-0.1068 -0.7988,-0.0041c-0.4846,0.2618 -0.9281,0.6324 -1.3665,0.9528l-4.9957,0l0.9399,-3.9979l0,0zm17.3802,-21.7517c-0.2659,0.2043 -0.5102,0.4517 -0.5944,0.7797c-0.2187,1.4958 1.4916,3.0979 2.4156,4.0435c0.7228,0.7376 1.4825,1.4393 2.2115,2.1836c-0.1746,-1.4994 -0.2474,-3.0661 -0.6694,-4.5265c-0.4271,-1.2562 -1.4517,-2.7207 -2.9402,-2.6426c-0.1766,0.0247 -0.2824,0.0668 -0.4231,0.1623l0,0z" class="st2"/>
   <path id="svg_5" d="m222.2451,149.6573l-4.5409,15.7109l3.7206,0c2.66,0 4.5799,-0.4092 5.7811,-1.2171c1.1893,-0.8116 2.2089,-2.3111 3.0697,-4.5024l1.0898,0l-4.082,14.4204l-1.1694,0c0.3527,-1.2099 0.5308,-2.2474 0.5308,-3.1083c0,-0.8398 -0.1694,-1.5097 -0.5098,-2.0179c-0.3511,-0.5123 -0.81,-0.8825 -1.4112,-1.133c-0.6005,-0.2402 -1.8489,-0.3598 -3.7683,-0.3598l-3.7699,0l-3.8427,13.153c-0.3686,1.2669 -0.5591,2.2376 -0.5591,2.8967c0,0.5118 0.2484,0.9598 0.7304,1.3515c0.3383,0.2715 1.1694,0.4127 2.4892,0.4127l3.5214,0c3.8104,0 6.8607,-0.6802 9.1527,-2.0215c2.2961,-1.3515 4.3571,-3.7011 6.1671,-7.0423l1.0919,0l-3.7504,11.0504l-30.7139,0l0.3788,-1.079c1.5303,-0.039 2.5513,-0.1796 3.0805,-0.4097c0.7798,-0.3604 1.3515,-0.812 1.7007,-1.348c0.5312,-0.8008 1.1503,-2.484 1.8685,-5.045l6.9823,-23.9684c0.5415,-1.9331 0.8223,-3.4012 0.8223,-4.4249c0,-0.7402 -0.2628,-1.3186 -0.7833,-1.7386c-0.5189,-0.4199 -1.5303,-0.6288 -3.0296,-0.6288l-0.6191,0l0.3496,-1.0898l28.5441,0l-2.4614,9.5797l-1.0883,0c0.1376,-0.8969 0.2079,-1.6519 0.2079,-2.2515c0,-1.0374 -0.2484,-1.9086 -0.7582,-2.6077c-0.6704,-0.903 -1.6304,-1.5805 -2.9024,-2.0527c-0.9399,-0.3497 -3.0989,-0.5292 -6.4812,-0.5292l-5.0383,0l0,0.0003zm40.6141,11.1032l8.9672,0l-0.1797,0.7269c-1.0266,0.0744 -1.8207,0.328 -2.3797,0.7443c-0.9015,0.6632 -1.5723,1.7571 -2.0148,3.2776l-3.5127,12.1556c-1.0934,3.7857 -2.5805,6.4319 -4.4542,7.935c-1.8808,1.5072 -4.2606,2.2577 -7.1558,2.2577c-1.6401,0 -3.0795,-0.2331 -4.3325,-0.7053c-1.2474,-0.4661 -2.1683,-0.9948 -2.754,-1.581c-0.5873,-0.5858 -1.0319,-1.3121 -1.346,-2.1802c-0.3121,-0.8608 -0.4676,-1.5841 -0.4676,-2.1733c0,-0.924 0.2612,-2.2936 0.7817,-4.1072l3.3572,-11.6012c0.3003,-1.0406 0.4482,-1.8131 0.4482,-2.3213c0,-0.4975 -0.1853,-0.8789 -0.5591,-1.154c-0.3654,-0.2715 -1.233,-0.4589 -2.5866,-0.5467l0.2192,-0.7269l13.2007,0l-0.2331,0.7269c-1.2802,0 -2.2524,0.2751 -2.9193,0.8218c-0.674,0.5472 -1.2336,1.6129 -1.6941,3.2001l-3.3745,11.6012c-0.5595,1.9476 -0.8378,3.5004 -0.8378,4.6754c0,1.0652 0.4266,1.9938 1.2859,2.7946c0.8592,0.79 2.059,1.1852 3.5918,1.1852c1.4096,0 2.6025,-0.2541 3.5886,-0.7659c0.981,-0.5226 1.7997,-1.2345 2.4471,-2.1631c0.8608,-1.2418 1.6261,-3.0056 2.3053,-5.3135l3.4614,-12.0139c0.1941,-0.6879 0.2947,-1.2598 0.2947,-1.7217c0,-0.8044 -0.2879,-1.4184 -0.8609,-1.8522c-0.406,-0.3002 -1.2406,-0.4481 -2.4999,-0.4481l0.2133,-0.7268l0,0zm16.9942,13.5627l-2.346,8.031c-0.3387,1.1284 -0.5066,1.9614 -0.5066,2.4974c0,0.4948 0.1992,0.8866 0.6052,1.1893c0.4009,0.2962 1.2422,0.4656 2.5225,0.4903l-0.2751,0.7196l-12.7527,0l0.231,-0.7196c1.2751,0 2.2089,-0.2505 2.8034,-0.748c0.5908,-0.4938 1.138,-1.5985 1.6313,-3.3207l4.9208,-16.9917c0.2751,-0.9491 0.4142,-1.6934 0.4142,-2.2478c0,-0.5185 -0.1745,-0.9138 -0.5148,-1.1889c-0.3317,-0.2715 -1.1252,-0.4589 -2.3608,-0.5467l0.1955,-0.7269l10.9791,0c3.1343,0 5.3416,0.5472 6.6219,1.6441c1.272,1.0935 1.9131,2.4979 1.9131,4.2201c0,1.8131 -0.7397,3.447 -2.2248,4.9043c-0.9425,0.9102 -2.6021,1.6935 -4.9819,2.3604l2.3798,8.0309c0.6417,2.1442 1.2007,3.4434 1.674,3.8839c0.4743,0.4486 1.2664,0.6877 2.3741,0.7269l0,0.7196l-8.2487,0l-3.7473,-12.9276l-0.6457,0.0353c-0.1389,0.0001 -0.3597,-0.0142 -0.6615,-0.0352l0,0zm0.2751,-1.1751c0.4523,0.0282 0.8398,0.0426 1.1524,0.0426c1.8998,0 3.4614,-0.653 4.6872,-1.9548c1.2212,-1.3059 1.8346,-3.0132 1.8346,-5.1194c0,-1.2495 -0.328,-2.2016 -0.9753,-2.8546c-0.653,-0.6458 -1.5123,-0.9702 -2.5794,-0.9702c-0.2592,0 -0.5683,0.0036 -0.921,0.0175l-3.1985,10.8389l0,0zm26.1766,14.731c-2.1411,0 -3.8685,-0.4414 -5.1826,-1.3121c-1.3125,-0.868 -2.3007,-2.0605 -2.9603,-3.5752c-0.653,-1.5066 -0.9846,-2.981 -0.9846,-4.4131c0,-2.8864 0.8255,-5.8012 2.4783,-8.74c1.6549,-2.9357 3.8884,-5.2887 6.6933,-7.0495c2.809,-1.768 5.5748,-2.6462 8.3098,-2.6462c1.6067,0 3.1257,0.3983 4.5604,1.2068c1.4393,0.8045 2.5595,1.9337 3.3603,3.3798c0.8059,1.4465 1.2068,2.9075 1.2068,4.3751c0,3.2919 -1.0554,6.6014 -3.1472,9.9113c-2.101,3.3172 -4.4547,5.7154 -7.0742,7.2041c-1.9809,1.1087 -4.4017,1.659 -7.26,1.659l0,0zm7.7129,-26.1346c-1.0334,0 -1.9051,0.1838 -2.6282,0.5508c-0.7249,0.3743 -1.4733,0.9913 -2.2566,1.8659c-0.7834,0.8757 -1.5755,2.1211 -2.3814,3.7402c-0.8085,1.6231 -1.5667,3.8284 -2.2755,6.6157c-0.713,2.7874 -1.0657,5.1092 -1.0657,6.9757c0,1.5846 0.3476,2.7873 1.0319,3.5994c0.6934,0.8111 1.581,1.2201 2.6605,1.2201c1.4291,0 2.6498,-0.4728 3.6503,-1.4255c1.9911,-1.8875 3.6164,-4.6539 4.874,-8.3087c1.2561,-3.6523 1.8839,-6.9053 1.8839,-9.7528c0,-1.7885 -0.3332,-3.0841 -1.0036,-3.8849c-0.6705,-0.797 -1.5031,-1.1959 -2.4896,-1.1959l0,0zm21.2692,13.341l-2.1468,7.377c-0.3003,1.0421 -0.4466,1.7865 -0.4466,2.2094c0,0.6031 0.1941,1.0549 0.5801,1.3624c0.3932,0.3029 1.2792,0.4722 2.6605,0.4969l-0.2541,0.7196l-12.9348,0l0.2202,-0.7196c1.0939,-0.0103 1.8654,-0.1202 2.3218,-0.3244c0.4568,-0.2018 0.8332,-0.5288 1.1309,-0.9882c0.2228,-0.3029 0.5544,-1.2135 0.9933,-2.7561l4.9079,-16.812c0.3409,-1.1216 0.5067,-1.9229 0.5067,-2.4096c0,-0.4799 -0.2121,-0.8854 -0.6443,-1.2212c-0.4271,-0.3311 -1.2083,-0.5041 -2.3408,-0.5323l0.2115,-0.7269l10.4883,0c2.8808,0 4.9464,0.3706 6.2127,1.0939c1.9548,1.1499 2.9286,2.8679 2.9286,5.1621c0,2.2155 -0.9738,4.1594 -2.9199,5.8463c-1.9475,1.6863 -4.5692,2.5333 -7.8611,2.5333c-0.9875,-0.0001 -2.1928,-0.1058 -3.6141,-0.3106l0,0zm0.3931,-1.5103c0.847,0.1093 1.5472,0.1622 2.1078,0.1622c1.7997,0 3.2134,-0.8182 4.2396,-2.4593c1.0267,-1.6473 1.5405,-3.3556 1.5405,-5.1405c0,-1.214 -0.327,-2.156 -0.9912,-2.8227c-0.6693,-0.6704 -1.5826,-1.0057 -2.7561,-1.0057c-0.2454,0 -0.5559,0.0139 -0.9193,0.039l-3.2213,11.227l0,0zm27.8173,-11.3435l-2.9532,10.2706l0.8999,0c2.3658,0 4.0999,-0.3136 5.1866,-0.942c1.0867,-0.617 2.0077,-1.7217 2.7607,-3.3166l0.7254,0l-2.9727,10.3138l-0.6806,0c0.114,-0.6889 0.174,-1.2464 0.174,-1.6802c0,-0.7125 -0.2064,-1.2976 -0.6314,-1.7534c-0.4214,-0.4585 -0.9742,-0.7865 -1.6544,-0.9774c-0.4394,-0.1304 -1.3604,-0.1971 -2.7561,-0.1971l-1.5189,0l-2.5385,8.8872c-0.2207,0.7798 -0.3351,1.3624 -0.3351,1.7438c0,0.2997 0.1483,0.5359 0.4337,0.7192c0.4128,0.2571 1.2002,0.3916 2.3603,0.3916c2.2269,0 4.3279,-0.4728 6.295,-1.4178c1.9598,-0.942 3.7242,-2.3747 5.2852,-4.2873l0.8086,0l-2.7545,7.2646l-22.664,0l0.2346,-0.7196c1.3248,0 2.3008,-0.2505 2.9131,-0.751c0.6134,-0.5015 1.1658,-1.6088 1.6611,-3.3177l4.9803,-17.0481c0.2735,-0.9527 0.4081,-1.7011 0.4081,-2.2442c0,-0.5005 -0.175,-0.8784 -0.5278,-1.1504c-0.3481,-0.2643 -1.154,-0.4445 -2.4008,-0.5323l0.213,-0.7269l21.1169,0l-1.7002,6.6224l-0.7007,0c-0.0529,-1.2982 -0.2526,-2.2191 -0.6052,-2.752c-0.5488,-0.8326 -1.2751,-1.4429 -2.1822,-1.828c-0.8978,-0.3804 -2.3726,-0.5713 -4.3982,-0.5713l-2.482,0l0,0.0001zm27.7752,16.4876l-8.2071,0l-1.6391,2.0261l-1.8732,2.2464c-0.369,0.484 -0.6334,0.9208 -0.8013,1.3125c-0.1324,0.3008 -0.1971,0.5933 -0.1971,0.8962c0,0.3111 0.1658,0.6038 0.4989,0.8721c0.3317,0.2644 0.8789,0.4194 1.651,0.4585l0,0.7196l-7.9135,0l0.1925,-0.7196c0.7069,-0.1202 1.3351,-0.3676 1.8803,-0.748c0.7285,-0.5189 1.7746,-1.5908 3.1421,-3.2175l18.7759,-22.4016l0.8778,0l-0.8778,21.6743c-0.041,1.1323 -0.06,1.8202 -0.06,2.0533c0,0.8902 0.1797,1.5354 0.5379,1.9338c0.3563,0.4091 0.9543,0.6391 1.7885,0.7058l-0.2007,0.7196l-11.4601,0l0.212,-0.7196c1.1345,-0.1058 1.7817,-0.2012 1.9542,-0.2721c0.3655,-0.1864 0.6915,-0.5678 0.9933,-1.1458c0.2997,-0.5826 0.4851,-1.5877 0.5472,-3.0168l0.1783,-3.3772l0,0zm0,-1.6088l0.5098,-8.6264l-7.3709,8.6264l6.8611,0l0,0zm24.7316,-16.35l8.281,17.6662l3.7257,-12.8183c0.2007,-0.7058 0.2942,-1.3264 0.2942,-1.87c0,-0.656 -0.1987,-1.175 -0.6134,-1.5698c-0.406,-0.3886 -1.1129,-0.6108 -2.1201,-0.6812l0.2125,-0.7269l8.4012,0l-0.1921,0.7269c-1.0672,0.0703 -1.9547,0.3629 -2.6482,0.903c-0.7023,0.5328 -1.2859,1.6051 -1.7664,3.218l-6.4669,21.936l-0.7392,0l-10.6305,-22.5818l-5.1317,17.6031c-0.175,0.614 -0.2598,1.1576 -0.2598,1.64c0,0.6987 0.2331,1.2669 0.692,1.6827c0.4666,0.4312 1.2064,0.6428 2.2206,0.6428l-0.1745,0.7196l-8.6337,0l0.1745,-0.7196c0.7392,0 1.2634,-0.0668 1.5789,-0.2012c0.5468,-0.2054 1.0811,-0.6032 1.6052,-1.1992c0.5221,-0.5934 0.942,-1.4466 1.2664,-2.5651l5.6087,-19.2442c-0.6935,-0.7654 -1.2721,-1.2591 -1.7392,-1.4886c-0.4677,-0.2187 -1.1736,-0.3316 -2.1072,-0.3455l0.2119,-0.7269l8.9501,0l0,0zm33.4207,-12.152l0.3502,-1.0898l12.6914,0c5.3705,0 9.3518,0.6175 11.9308,1.849c2.5891,1.2314 4.6609,3.1682 6.201,5.8114c1.5399,2.6493 2.3202,5.4895 2.3202,8.5202c0,2.5903 -0.4517,5.1199 -1.3408,7.5715c-0.8911,2.4491 -1.8911,4.4075 -3.0193,5.8889c-1.1201,1.4712 -2.8398,3.1015 -5.1713,4.8802c-2.3202,1.7705 -4.8407,3.0907 -7.5511,3.9408c-2.7217,0.8501 -6.1086,1.27 -10.1721,1.27l-16.8207,0l0.3789,-1.079c1.5513,-0.039 2.583,-0.1796 3.1117,-0.4097c0.7803,-0.3383 1.3583,-0.791 1.729,-1.348c0.5615,-0.8219 1.2001,-2.4728 1.9003,-4.9536l7.0295,-24.0315c0.5502,-1.8911 0.8213,-3.3802 0.8213,-4.4532c0,-0.7581 -0.2484,-1.3469 -0.7566,-1.7566c-0.5123,-0.4126 -1.502,-0.6108 -2.9927,-0.6108l-0.6397,0l0,0.0002zm10.399,1.1083l-8.6084,29.7438c-0.6509,2.2232 -0.9733,3.6025 -0.9733,4.1317c0,0.3107 0.1017,0.6098 0.3111,0.9107c0.2032,0.2885 0.4804,0.4794 0.8326,0.578c0.5082,0.1832 1.3305,0.2721 2.4588,0.2721c3.0688,0 5.9218,-0.3209 8.5408,-0.9599c2.6324,-0.6314 4.7811,-1.5698 6.4627,-2.8223c2.386,-1.8177 4.2884,-4.3227 5.7196,-7.5017c1.4178,-3.1898 2.1313,-6.8094 2.1313,-10.8708c0,-4.5902 -1.0934,-8.0089 -3.2823,-10.2429c-2.1826,-2.2397 -5.3786,-3.3588 -9.5787,-3.3588c-1.0349,-0.0001 -2.3736,0.0426 -4.0142,0.1201l0,0zm34.7328,25.8342l-2.2278,-9.6465c-0.382,-1.6688 -0.8337,-2.8083 -1.3675,-3.4187c-0.4045,-0.4692 -1.1407,-0.8044 -2.2052,-0.9984l0.2094,-0.7269l12.7172,0l-0.2321,0.7269c-1.235,0 -2.1395,0.2469 -2.7072,0.7546c-0.5678,0.5009 -0.8481,1.0939 -0.8481,1.7858c0,0.4307 0.114,1.175 0.3532,2.2474l1.7134,7.8292l4.2812,-5.8956c1.0965,-1.5138 1.7802,-2.5795 2.0533,-3.1934c0.2751,-0.6175 0.4086,-1.1642 0.4086,-1.6334c0,-0.466 -0.1725,-0.8788 -0.5287,-1.2351c-0.3522,-0.346 -0.9199,-0.5718 -1.6982,-0.6596l0.2126,-0.7269l7.9556,0l0,0.7269c-0.7238,0.0744 -1.3357,0.3136 -1.8604,0.7022c-0.5205,0.3917 -1.5338,1.6262 -3.0482,3.715l-7.5131,10.3523l-1.7586,6.1281c-0.382,1.2669 -0.5709,2.0014 -0.5709,2.2166c0,0.557 0.2126,1.0153 0.6499,1.386c0.4261,0.3567 1.1437,0.5436 2.1631,0.5436l0.7422,0l-0.2104,0.7196l-13.5571,0l0.1941,-0.7196c0.9867,0.0143 1.7854,-0.1202 2.3788,-0.3983c0.5985,-0.2829 1.0565,-0.6458 1.3521,-1.0872c0.2095,-0.3142 0.5154,-1.1463 0.9148,-2.4973l2.034,-6.9973l0,0zm28.1078,-14.7905l8.2831,17.6662l3.7278,-12.8183c0.2002,-0.7058 0.2946,-1.3264 0.2946,-1.87c0,-0.656 -0.2012,-1.175 -0.6159,-1.5698c-0.4076,-0.3886 -1.1149,-0.6108 -2.117,-0.6812l0.2115,-0.7269l8.3981,0l-0.192,0.7269c-1.0667,0.0703 -1.9517,0.3629 -2.6457,0.903c-0.7012,0.5328 -1.2885,1.6051 -1.7669,3.218l-6.4659,21.936l-0.7443,0l-10.628,-22.5818l-5.1312,17.6031c-0.1725,0.614 -0.2618,1.1576 -0.2618,1.64c0,0.6987 0.2352,1.2669 0.694,1.6827c0.4692,0.4312 1.2043,0.6428 2.2228,0.6428l-0.1766,0.7196l-8.6331,0l0.1724,-0.7196c0.7402,0 1.2659,-0.0668 1.5801,-0.2012c0.5492,-0.2054 1.0821,-0.6032 1.6077,-1.1992c0.5225,-0.5934 0.9424,-1.4466 1.2668,-2.5651l5.6066,-19.2442c-0.694,-0.7654 -1.272,-1.2591 -1.7382,-1.4886c-0.4681,-0.2187 -1.1745,-0.3316 -2.1097,-0.3455l0.2136,-0.7269l8.9472,0l0,0zm30.8449,17.9588l-8.2081,0l-1.6396,2.0261l-1.8716,2.2464c-0.3685,0.484 -0.6334,0.9208 -0.8007,1.3125c-0.1366,0.3008 -0.2002,0.5933 -0.2002,0.8962c0,0.3111 0.1674,0.6038 0.502,0.8721c0.3317,0.2644 0.8788,0.4194 1.6508,0.4585l0,0.7196l-7.9134,0l0.1909,-0.7196c0.7084,-0.1202 1.3367,-0.3676 1.8819,-0.748c0.7258,-0.5189 1.7751,-1.5908 3.1416,-3.2175l18.7723,-22.4016l0.8809,0l-0.8809,21.6743c-0.0369,1.1323 -0.0554,1.8202 -0.0554,2.0533c0,0.8902 0.1796,1.5354 0.5389,1.9338c0.3511,0.4091 0.9507,0.6391 1.7874,0.7058l-0.2033,0.7196l-11.4595,0l0.2115,-0.7196c1.1364,-0.1058 1.7822,-0.2012 1.9537,-0.2721c0.3696,-0.1864 0.6961,-0.5678 0.9949,-1.1458c0.3008,-0.5826 0.4897,-1.5877 0.5472,-3.0168l0.1787,-3.3772l0,0zm0,-1.6088l0.5082,-8.6264l-7.3714,8.6264l6.8632,0l0,0zm25.6089,-16.35l1.9496,18.2129l12.6011,-18.2129l9.279,0l-0.2331,0.7269c-1.2792,0 -2.2443,0.2751 -2.9136,0.8218c-0.6674,0.5472 -1.233,1.6268 -1.6992,3.2392l-4.8818,16.9577c-0.3111,1.0652 -0.4722,1.8593 -0.4722,2.3809c0,0.4836 0.2003,0.8722 0.5894,1.1683c0.3911,0.289 1.1591,0.4512 2.3049,0.4759l-0.1725,0.7196l-13.2305,0l0.2341,-0.7196c1.4219,0 2.4752,-0.2721 3.1476,-0.8111c0.6786,-0.5406 1.2536,-1.6165 1.7197,-3.214l4.9803,-17.1698l-15.1545,21.9145l-0.8079,0l-2.3798,-22.3482l-5.0593,17.6035c-0.2064,0.7187 -0.3121,1.3126 -0.3121,1.7982c0,0.6458 0.2238,1.175 0.6736,1.5667c0.4516,0.4024 1.2196,0.6211 2.2986,0.6602l-0.1982,0.7196l-8.7512,0l0.1724,-0.7196c1.0575,-0.0391 1.8686,-0.2578 2.4322,-0.6668c0.9836,-0.7269 1.6982,-1.8449 2.1406,-3.3583l5.7256,-19.5721c-0.5492,-0.5965 -1.043,-0.9918 -1.4753,-1.1714c-0.4352,-0.1873 -1.1642,-0.2751 -2.2021,-0.2751l0.2402,-0.7269l9.4544,0l0,-0.0001zm25.958,0.7269l0.2156,-0.7269l12.9338,0l-0.2557,0.7269c-1.1735,0 -2.0646,0.2613 -2.6858,0.7798c-0.6221,0.5221 -1.158,1.6088 -1.6354,3.2637l-4.8376,16.9573c-0.3552,1.196 -0.5287,1.9968 -0.5287,2.3987c0,0.4728 0.1786,0.8332 0.5493,1.1006c0.466,0.3321 1.349,0.5189 2.6518,0.5436l-0.1931,0.7196l-13.1483,0l0.2115,-0.7196c1.3213,0 2.2812,-0.2505 2.8972,-0.751c0.6119,-0.5015 1.1663,-1.6021 1.6591,-3.2919l4.8788,-16.9573c0.3038,-1.0411 0.4537,-1.828 0.4537,-2.3608c0,-0.4902 -0.1848,-0.8609 -0.5452,-1.136c-0.3665,-0.2716 -1.2392,-0.4589 -2.621,-0.5467l0,0zm38.8712,-1.3234l-1.9517,8.415l-0.7627,0c-0.0935,-2.2967 -0.6541,-4.0009 -1.6838,-5.1302c-1.041,-1.1257 -2.387,-1.6863 -4.0563,-1.6863c-1.7997,0 -3.5861,0.7654 -5.3724,2.3002c-1.7895,1.5385 -3.2946,3.8848 -4.5358,7.0537c-0.999,2.5681 -1.4979,5.1014 -1.4979,7.6029c0,2.2411 0.5451,3.9454 1.6457,5.1271c1.1006,1.1782 2.6057,1.7669 4.5266,1.7669c1.5481,0 2.9608,-0.3383 4.2349,-1.0118c1.2803,-0.6843 2.5656,-1.7817 3.8663,-3.3094l0.9405,0c-1.616,2.4274 -3.2463,4.1271 -4.8941,5.1014c-1.6489,0.9774 -3.6591,1.464 -6.0511,1.464c-3.1826,0 -5.7533,-0.9661 -7.6968,-2.8998c-1.9496,-1.9337 -2.9199,-4.4598 -2.9199,-7.5752c0,-2.9116 0.7711,-5.6949 2.3182,-8.3482c1.5554,-2.6462 3.7822,-4.7914 6.6948,-6.4248c2.9075,-1.6339 5.7986,-2.4455 8.6835,-2.4455c1.0883,0 2.4496,0.2295 4.0789,0.6986c0.8326,0.2331 1.4127,0.3527 1.7422,0.3527c0.6488,0 1.3059,-0.3527 1.9733,-1.0513l0.7176,0l0,0zm21.1984,0l-2.2083,8.9796l-0.6489,0c-0.1407,-1.4081 -0.3923,-2.5338 -0.7598,-3.3802c-0.5472,-1.2208 -1.2741,-2.1658 -2.1796,-2.8295c-0.8994,-0.6668 -1.8798,-0.9985 -2.9434,-0.9985c-1.0092,0 -1.8953,0.3876 -2.656,1.1607c-0.7679,0.7797 -1.1478,1.6544 -1.1478,2.6287c0,0.9667 0.2649,1.9122 0.7947,2.8474c0.5246,0.924 1.773,2.3321 3.737,4.2052c1.5738,1.5 2.6343,2.7879 3.1723,3.867c0.5441,1.08 0.81,2.2514 0.81,3.5214c0,1.4116 -0.3736,2.7273 -1.1293,3.9198c-0.7596,1.2007 -1.851,2.1252 -3.2894,2.7842c-1.4434,0.653 -3.0759,0.9877 -4.8961,0.9877c-1.1211,0 -2.5266,-0.1663 -4.2308,-0.5011c-1.6971,-0.3316 -2.8275,-0.4968 -3.389,-0.4968c-0.4425,0 -0.8429,0.0739 -1.1889,0.2043c-0.3522,0.1417 -0.7854,0.4024 -1.3111,0.7936l-0.7596,0l2.3654,-10.1013l0.7392,0c0.1683,1.7746 0.5297,3.2817 1.0749,4.5234c0.5462,1.2459 1.3265,2.2119 2.3459,2.9147c1.0143,0.6909 2.1735,1.044 3.4742,1.044c1.2946,0 2.3685,-0.4276 3.2329,-1.2807c0.8686,-0.8542 1.2997,-1.8526 1.2997,-2.9989c0,-0.9737 -0.2465,-1.9126 -0.7351,-2.8156c-0.4814,-0.8968 -1.5965,-2.2057 -3.3376,-3.9274c-1.7412,-1.7181 -2.9414,-3.2499 -3.6077,-4.6046c-0.4783,-1.0015 -0.7196,-2.0744 -0.7196,-3.2073c0,-1.9614 0.7741,-3.6626 2.3264,-5.0948c1.5451,-1.4322 3.5748,-2.1452 6.0737,-2.1452c1.1365,0 2.6201,0.2505 4.4752,0.7587c1.0801,0.2997 1.8378,0.4481 2.2854,0.4481c0.3747,0 0.7135,-0.0811 1.0153,-0.2397c0.3018,-0.1699 0.6541,-0.4902 1.0524,-0.9671l0.8634,0l0,0.0002z" class="st3"/>
   <g id="svg_6">
    <polygon id="svg_7" points="228.9117,101.0399 231.4183,108.1285 238.9355,108.3184 232.9671,112.8952 235.1055,120.1033    228.9117,115.8412 222.7173,120.1033 224.8575,112.8952 218.8875,108.3184 226.4067,108.1285 228.9117,101.0399   " class="st3"/>
    <polygon id="svg_8" points="261.0825,109.9133 263.5901,117.0018 271.1068,117.1959 265.1388,121.7686 267.2784,128.9773    261.0825,124.7146 254.8892,128.9773 257.0288,121.7686 251.0608,117.1959 258.578,117.0018 261.0825,109.9133   " class="st3"/>
    <polygon id="svg_9" points="279.9417,192.0031 282.4467,199.0922 289.9639,199.2863 283.9975,203.8621 286.1391,211.0703    279.9417,206.8085 273.7479,211.0703 275.8879,203.8621 269.9195,199.2863 277.4367,199.0922 279.9417,192.0031   " class="st3"/>
    <polygon id="svg_10" points="226.574,222.6221 229.0791,229.7071 236.5962,229.9053 230.6278,234.477 232.7678,241.682    226.574,237.4234 220.3782,241.682 222.5198,234.477 216.5497,229.9053 224.0669,229.7071 226.574,222.6221   " class="st3"/>
    <polygon id="svg_11" points="258.8988,214.0517 261.4039,221.1397 268.9225,221.3306 262.9531,225.9074 265.0927,233.1156    258.8988,228.853 252.7029,233.1156 254.8445,225.9074 248.8745,221.3306 256.3933,221.1397 258.8988,214.0517   " class="st3"/>
    <polygon id="svg_12" points="284.4651,134.6295 286.9701,141.7217 294.4889,141.9122 288.5204,146.4879 290.6589,153.6965    284.4651,149.4339 278.2708,153.6965 280.4109,146.4879 274.4409,141.9122 281.9601,141.7217 284.4651,134.6295   " class="st3"/>
    <polygon id="svg_13" points="194.1738,212.9336 196.6788,220.0217 204.1955,220.2157 198.228,224.7884 200.3676,231.9976    194.1738,227.7349 187.98,231.9976 190.1195,224.7884 184.15,220.2157 191.6672,220.0217 194.1738,212.9336   " class="st3"/>
    <polygon id="svg_14" points="172.1274,190.8882 174.6319,197.9773 182.1491,198.1672 176.1811,202.744 178.3222,209.9522    172.1274,205.6865 165.9315,209.9522 168.0726,202.744 162.1052,198.1672 169.6219,197.9773 172.1274,190.8882   " class="st3"/>
    <polygon id="svg_15" points="164.7791,161.4904 167.2846,168.5821 174.8018,168.7731 168.8334,173.3488 170.9734,180.558    164.7791,176.2953 158.5838,180.558 160.7238,173.3488 154.7554,168.7731 162.2725,168.5821 164.7791,161.4904   " class="st3"/>
    <polygon id="svg_16" points="172.7941,133.4335 175.3008,140.522 182.8179,140.7161 176.8495,145.2888 178.9916,152.4969    172.7941,148.2347 166.5999,152.4969 168.7415,145.2888 162.7719,140.7161 170.2907,140.522 172.7941,133.4335   " class="st3"/>
    <polygon id="svg_17" points="193.5049,108.7141 196.01,115.8057 203.5271,115.9968 197.5587,120.5725 199.6987,127.7813    193.5049,123.5154 187.3111,127.7813 189.4507,120.5725 183.4807,115.9968 190.9999,115.8057 193.5049,108.7141   " class="st3"/>
   </g>
   <g id="svg_18">
    <polygon id="svg_19" points="227.8604,99.9886 230.367,107.0772 237.8842,107.2671 231.9158,111.8439 234.0542,119.052    227.8604,114.7899 221.666,119.052 223.8062,111.8439 217.8362,107.2671 225.3554,107.0772 227.8604,99.9886   " class="st4"/>
    <polygon id="svg_20" points="260.0312,108.862 262.5388,115.9505 270.0555,116.1446 264.0875,120.7173 266.2271,127.926    260.0312,123.6633 253.8379,127.926 255.9775,120.7173 250.0095,116.1446 257.5267,115.9505 260.0312,108.862   " class="st4"/>
    <polygon id="svg_21" points="278.8904,190.9518 281.3954,198.0409 288.9126,198.235 282.9462,202.8108 285.0878,210.019    278.8904,205.7572 272.6966,210.019 274.8366,202.8108 268.8682,198.235 276.3854,198.0409 278.8904,190.9518   " class="st4"/>
    <polygon id="svg_22" points="225.5227,221.5708 228.0278,228.6558 235.545,228.854 229.5765,233.4257 231.7165,240.6307    225.5227,236.3721 219.3269,240.6307 221.4685,233.4257 215.4984,228.854 223.0156,228.6558 225.5227,221.5708   " class="st4"/>
    <polygon id="svg_23" points="257.8476,213.0004 260.3526,220.0884 267.8712,220.2793 261.9018,224.8561 264.0414,232.0643    257.8476,227.8017 251.6516,232.0643 253.7932,224.8561 247.8232,220.2793 255.342,220.0884 257.8476,213.0004   " class="st4"/>
    <polygon id="svg_24" points="283.4138,133.5782 285.9188,140.6704 293.4376,140.8609 287.4691,145.4366 289.6076,152.6453    283.4138,148.3826 277.2195,152.6453 279.3596,145.4366 273.3896,140.8609 280.9088,140.6704 283.4138,133.5782   " class="st4"/>
    <polygon id="svg_25" points="193.1225,211.8823 195.6276,218.9704 203.1442,219.1644 197.1767,223.7371 199.3163,230.9463    193.1225,226.6836 186.9287,230.9463 189.0682,223.7371 183.0987,219.1644 190.6159,218.9704 193.1225,211.8823   " class="st4"/>
    <polygon id="svg_26" points="171.0761,189.8369 173.5806,196.926 181.0978,197.1159 175.1298,201.6927 177.2709,208.9009    171.0761,204.6352 164.8802,208.9009 167.0213,201.6927 161.0539,197.1159 168.5706,196.926 171.0761,189.8369   " class="st4"/>
    <polygon id="svg_27" points="163.7278,160.4391 166.2333,167.5308 173.7505,167.7218 167.7821,172.2975 169.9221,179.5067    163.7278,175.244 157.5325,179.5067 159.6725,172.2975 153.7041,167.7218 161.2212,167.5308 163.7278,160.4391   " class="st4"/>
    <polygon id="svg_28" points="171.7429,132.3822 174.2495,139.4707 181.7666,139.6648 175.7982,144.2375 177.9404,151.4456    171.7429,147.1835 165.5486,151.4456 167.6902,144.2375 161.7206,139.6648 169.2394,139.4707 171.7429,132.3822   " class="st4"/>
    <polygon id="svg_29" points="192.4536,107.6628 194.9587,114.7545 202.4758,114.9455 196.5074,119.5212 198.6474,126.73    192.4536,122.4641 186.2598,126.73 188.3994,119.5212 182.4294,114.9455 189.9486,114.7545 192.4536,107.6628   " class="st4"/>
   </g>
  </g>
  <path id="svg_30" d="m0,375.2667l0,308.2529l841.2878,0l0,-359.9414c0,0 -253.3315,3.479 -390.0078,14.9101c-136.6762,11.4311 -157.0534,14.4131 -157.0534,14.4131s105.8619,-16.8982 186.8737,-24.3532c81.0117,-7.4551 81.0117,-7.4551 81.0117,-7.4551s-50.6945,-5.467 -262.9154,15.4071s-299.1966,38.7665 -299.1966,38.7665z" class="st5"/>
  <path id="svg_31" d="m685.2831,551.0002c-38.2944,-12.7878 -81.0638,-23.3012 -271.9265,-27.2614c-128.6382,4.7521 -225.7634,16.4158 -255.7897,48.3142c2.1466,0.4998 2.7254,-0.6661 4.8754,-0.17c-4.6476,7.1293 -6.7107,13.1883 -2.3748,14.2339c4.4498,0.3665 3.7919,4.3098 6.671,5.1283c5.9743,-4.1462 10.4549,-5.8017 13.4334,-4.9648c-5.321,3.8044 -8.3223,6.7848 -7.6575,8.9328c4.2724,5.3204 27.3029,-8.0325 64.0329,-19.8538c-5.489,3.855 -17.3277,9.033 -40.7939,17.8684c91.8549,-29.9075 100.57,-29.8918 123.433,-33.3839c-11.9536,0.8305 -19.6419,2.2831 -33.6168,3.1136c40.9477,-11.9729 130.8444,-18.9672 187.9623,-20.359c-30.4698,1.2338 -70.6935,5.5536 -95.1795,8.4458c53.1728,-5.3838 128.224,-6.252 179.5351,-4.973c-14.6865,-1.3231 -29.8184,-2.8509 -46.0801,-3.347c62.6859,-3.2265 120.5854,0.7838 171.808,10.7952c-3.046,-1.1586 -6.0902,-2.317 -9.1342,-3.4766c2.3279,-0.1672 8.4708,1.1246 10.8019,0.9573l0,0z" class="st6"/>
  <text id="svg_32" transform="matrix(1,0,0,1,161.1934,506.9593) ">
   <tspan id="svg_33" class="st0 st7 st8 st9" y="0" x="0">“{ engineer; inn</tspan>
   <tspan id="svg_34" class="st0 st7 st8" y="0" x="264.1982">ov</tspan>
   <tspan id="svg_35" class="st0 st7 st8 st9" y="0" x="304.6006">ate; e</tspan>
   <tspan id="svg_36" class="st0 st7 st8" y="0" x="400.8398">x</tspan>
   <tspan id="svg_37" class="st0 st7 st8 st9" y="0" x="419.8672">cite; }”</tspan>
  </text>
 </g>
</svg>
