<?xml version="1.0" encoding="UTF-8" standalone="no"?>
<!-- Created with Inkscape (http://www.inkscape.org/) -->

<svg
   xmlns:dc="http://purl.org/dc/elements/1.1/"
   xmlns:cc="http://creativecommons.org/ns#"
   xmlns:rdf="http://www.w3.org/1999/02/22-rdf-syntax-ns#"
   xmlns:svg="http://www.w3.org/2000/svg"
   xmlns="http://www.w3.org/2000/svg"
   xmlns:sodipodi="http://sodipodi.sourceforge.net/DTD/sodipodi-0.dtd"
   xmlns:inkscape="http://www.inkscape.org/namespaces/inkscape"
   width="500"
   height="347.8978"
   id="svg6047"
   version="1.1"
   inkscape:version="0.48.4 r9939"
   sodipodi:docname="Новый документ 5">
  <defs
     id="defs6049">
    <clipPath
       clipPathUnits="userSpaceOnUse"
       id="clipPath1232">
      <path
         inkscape:connector-curvature="0"
         d="m 0,0 586.772,0 0,827.717 L 0,827.717 0,0 z"
         id="path1234" />
    </clipPath>
  </defs>
  <sodipodi:namedview
     id="base"
     pagecolor="#ffffff"
     bordercolor="#666666"
     borderopacity="1.0"
     inkscape:pageopacity="0.0"
     inkscape:pageshadow="2"
     inkscape:zoom="0.98994949"
     inkscape:cx="669.82423"
     inkscape:cy="136.73488"
     inkscape:document-units="px"
     inkscape:current-layer="layer1"
     showgrid="false"
     inkscape:snap-bbox="true"
     inkscape:bbox-nodes="true"
     inkscape:bbox-paths="true"
     inkscape:snap-bbox-midpoints="true"
     inkscape:snap-bbox-edge-midpoints="true"
     showguides="true"
     inkscape:guide-bbox="true"
     fit-margin-top="0"
     fit-margin-left="0"
     fit-margin-right="0"
     fit-margin-bottom="0"
     inkscape:window-width="1600"
     inkscape:window-height="838"
     inkscape:window-x="-8"
     inkscape:window-y="-8"
     inkscape:window-maximized="1">
    <sodipodi:guide
       orientation="1,0"
       position="-3.3413634e-014,410.26655"
       id="guide6116" />
    <sodipodi:guide
       orientation="1,0"
       position="500,455.43575"
       id="guide6118" />
  </sodipodi:namedview>
  <metadata
     id="metadata6052">
    <rdf:RDF>
      <cc:Work
         rdf:about="">
        <dc:format>image/svg+xml</dc:format>
        <dc:type
           rdf:resource="http://purl.org/dc/dcmitype/StillImage" />
        <dc:title></dc:title>
      </cc:Work>
    </rdf:RDF>
  </metadata>
  <g
     inkscape:label="Layer 1"
     inkscape:groupmode="layer"
     id="layer1"
     transform="translate(0,-86.395596)">
    <g
       id="g1228"
       transform="matrix(7.0600727,0,0,-7.0600727,-256.17827,3291.7272)">
      <g
         id="g1230"
         clip-path="url(#clipPath1232)">
        <g
           id="g1236"
           transform="translate(72.3245,437.4863)">
          <path
             d="m 0,0 c -2.903,0.537 -3.249,3.937 -6.174,4.627 l -19.811,4.595 c -5.766,1.339 -6.975,3.09 -10.054,7.3 L -9.441,9.082 C -6.262,8.192 -5.952,4.58 -2.818,3.848 L 5.756,1.86 C 7.683,1.413 8.683,-0.008 10.158,-1.894 6.771,-1.262 3.387,-0.626 0,0 m 18.5,-12.556 -8.885,0 c -3.362,0 -2.654,2.802 -5.375,2.937 l -17.01,0.785 c -4.335,0.215 -5.403,0.919 -7.986,4.452 L 1.947,-6.475 c 2.667,-0.26 2.543,-3.156 5.183,-3.277 4.676,-0.216 4.182,-0.195 7.984,-0.373 1.655,-0.078 2.42,-1.193 3.386,-2.431 m -19.04,9.472 -18.289,2.531 c -4.967,0.72 -5.977,1.71 -8.875,5.676 L -3.232,0.598 c 2.813,-0.527 3.006,-3.725 5.801,-4.112 5.18,-0.717 3.858,-0.535 8.234,-1.141 1.551,-0.215 2.271,-0.966 3.863,-3.001 -3.243,0.302 -6.487,0.606 -9.731,0.905 -2.696,0.249 -2.766,3.284 -5.475,3.667"
             style="fill:#007dc5;fill-opacity:1;fill-rule:nonzero;stroke:none"
             id="path1238"
             inkscape:connector-curvature="0" />
        </g>
        <g
           id="g1240"
           transform="translate(102.4983,410.7935)">
          <path
             d="M 0,0 1.133,7.138 C 1.171,7.378 1.215,7.62 1.261,7.863 1.309,8.109 1.364,8.34 1.423,8.554 1.588,8.634 1.776,8.7 1.993,8.752 2.209,8.804 2.438,8.844 2.675,8.871 2.912,8.897 3.146,8.91 3.37,8.91 3.515,8.91 3.654,8.906 3.785,8.9 3.916,8.895 4.038,8.884 4.15,8.871 l 0.458,1.788 c -0.148,0.017 -0.304,0.027 -0.461,0.033 -0.16,0.006 -0.326,0.01 -0.494,0.01 -0.455,0 -0.929,-0.03 -1.416,-0.092 C 1.75,10.548 1.268,10.446 0.791,10.31 0.314,10.175 -0.138,9.997 -0.563,9.776 -0.642,9.46 -0.718,9.14 -0.781,8.828 -0.844,8.513 -0.908,8.18 -0.962,7.836 L -2.2,0 0,0 z M -4.956,9.776 -6.505,0 l 2.217,0 1.549,9.776 -2.217,0 z m 0.121,2.231 c -0.001,-0.319 0.087,-0.546 0.267,-0.678 0.181,-0.133 0.481,-0.195 0.899,-0.195 0.346,0 0.623,0.041 0.83,0.126 0.21,0.084 0.371,0.231 0.481,0.431 0.109,0.201 0.195,0.471 0.243,0.813 0.014,0.094 0.026,0.186 0.034,0.267 0.007,0.082 0.012,0.163 0.013,0.231 10e-4,0.319 -0.086,0.548 -0.267,0.678 -0.183,0.132 -0.485,0.195 -0.9,0.195 -0.337,-10e-4 -0.613,-0.039 -0.82,-0.125 -0.207,-0.087 -0.369,-0.232 -0.484,-0.432 -0.114,-0.2 -0.2,-0.472 -0.25,-0.814 C -4.803,12.41 -4.815,12.319 -4.822,12.238 -4.83,12.156 -4.835,12.075 -4.835,12.007 M -7.487,7.375 c 0.022,0.138 0.039,0.271 0.049,0.396 0.011,0.124 0.017,0.244 0.017,0.359 -10e-4,0.51 -0.1,0.935 -0.29,1.271 -0.188,0.331 -0.451,0.598 -0.787,0.787 -0.335,0.188 -0.729,0.325 -1.173,0.402 -0.444,0.077 -0.926,0.114 -1.442,0.112 -0.758,-0.004 -1.48,-0.047 -2.162,-0.122 -0.681,-0.075 -1.307,-0.164 -1.884,-0.263 L -15.234,8.67 c 0.359,0.046 0.742,0.088 1.143,0.128 0.401,0.04 0.814,0.075 1.235,0.099 0.421,0.024 0.84,0.04 1.255,0.04 0.665,0 1.153,-0.133 1.459,-0.399 0.306,-0.267 0.453,-0.662 0.451,-1.193 0,-0.091 -0.003,-0.191 -0.013,-0.292 -0.009,-0.102 -0.023,-0.208 -0.039,-0.317 -0.646,-0.023 -1.283,-0.055 -1.904,-0.092 -0.626,-0.037 -1.229,-0.1 -1.815,-0.188 -0.678,-0.102 -1.246,-0.297 -1.7,-0.583 -0.454,-0.286 -0.814,-0.659 -1.07,-1.113 -0.259,-0.458 -0.435,-0.996 -0.531,-1.611 -0.021,-0.141 -0.045,-0.28 -0.055,-0.415 -0.012,-0.137 -0.016,-0.268 -0.017,-0.392 -0.002,-0.547 0.116,-1.005 0.352,-1.373 0.237,-0.369 0.611,-0.645 1.12,-0.831 0.508,-0.185 1.164,-0.279 1.973,-0.28 0.965,-0.001 1.846,0.07 2.639,0.215 0.79,0.143 1.502,0.382 2.134,0.711 0.079,0.316 0.152,0.633 0.218,0.949 0.065,0.315 0.123,0.645 0.178,0.988 l 0.285,1.811 C -8.722,4.436 -9.41,4.302 -10.157,4.117 L -10.284,3.32 c -0.038,-0.239 -0.082,-0.481 -0.131,-0.724 -0.049,-0.247 -0.102,-0.478 -0.158,-0.692 -0.238,-0.102 -0.482,-0.178 -0.738,-0.231 -0.256,-0.052 -0.512,-0.088 -0.765,-0.105 -0.253,-0.017 -0.494,-0.026 -0.721,-0.026 -0.388,-0.001 -0.719,0.029 -0.988,0.098 -0.273,0.071 -0.479,0.194 -0.619,0.369 -0.142,0.177 -0.214,0.425 -0.214,0.741 0,0.066 0.005,0.136 0.01,0.208 0.004,0.072 0.014,0.149 0.026,0.227 0.063,0.405 0.16,0.729 0.293,0.965 0.133,0.236 0.318,0.422 0.55,0.55 1.289,0.709 4.435,0.6 5.927,0.617 l 0.325,2.058 z M -17.976,6.772 c 0.038,0.244 0.073,0.479 0.095,0.709 0.023,0.23 0.036,0.452 0.036,0.665 0.002,0.379 -0.047,0.725 -0.151,1.034 -0.106,0.312 -0.286,0.585 -0.546,0.811 -0.26,0.224 -0.62,0.402 -1.077,0.523 -0.461,0.122 -1.042,0.188 -1.746,0.188 -0.982,0 -1.872,-0.085 -2.672,-0.244 -0.799,-0.159 -1.518,-0.385 -2.151,-0.682 -0.079,-0.316 -0.154,-0.632 -0.218,-0.948 -0.063,-0.316 -0.127,-0.647 -0.18,-0.988 L -27.825,0 l 2.207,0 1.133,7.152 c 0.038,0.239 0.081,0.48 0.129,0.724 0.047,0.246 0.099,0.474 0.154,0.691 0.165,0.079 0.357,0.146 0.574,0.198 0.216,0.052 0.444,0.092 0.681,0.119 0.238,0.026 0.468,0.039 0.692,0.039 0.547,0 0.976,-0.048 1.285,-0.148 0.309,-0.1 0.529,-0.256 0.655,-0.464 0.127,-0.21 0.183,-0.482 0.181,-0.811 0,-0.137 -0.01,-0.29 -0.026,-0.451 -0.016,-0.164 -0.04,-0.337 -0.07,-0.52 L -21.26,0 l 2.21,0 1.074,6.772 z M -30.844,9.776 -32.393,0 l 2.217,0 1.549,9.776 -2.217,0 z m 0.121,2.231 c -0.002,-0.319 0.087,-0.546 0.267,-0.678 0.181,-0.134 0.481,-0.195 0.899,-0.195 0.346,0 0.623,0.041 0.83,0.126 0.21,0.085 0.371,0.231 0.481,0.431 0.11,0.201 0.195,0.471 0.244,0.813 0.013,0.095 0.024,0.185 0.033,0.267 0.008,0.083 0.012,0.162 0.013,0.231 0.002,0.319 -0.086,0.548 -0.267,0.678 -0.184,0.133 -0.485,0.196 -0.9,0.195 -0.338,-10e-4 -0.613,-0.039 -0.819,-0.125 -0.208,-0.087 -0.37,-0.231 -0.485,-0.432 -0.115,-0.201 -0.199,-0.471 -0.25,-0.814 -0.014,-0.094 -0.025,-0.185 -0.033,-0.266 -0.008,-0.083 -0.012,-0.163 -0.013,-0.231 M -34.801,13.755 -36.625,2.27 C -36.772,1.337 -36.677,0.913 -36.397,0 l 2.381,0 c -0.151,0.257 -0.264,0.518 -0.335,0.777 -0.073,0.263 -0.109,0.541 -0.109,0.833 0,0.119 0.007,0.242 0.016,0.366 0.01,0.128 0.028,0.257 0.05,0.396 l 1.806,11.383 -2.213,0 z m -4.468,0 L -41.093,2.27 C -41.241,1.337 -41.146,0.913 -40.865,0 l 2.381,0 c -0.151,0.257 -0.264,0.518 -0.336,0.777 -0.072,0.263 -0.109,0.541 -0.109,0.833 0,0.119 0.007,0.242 0.017,0.366 0.009,0.128 0.027,0.257 0.049,0.396 l 1.807,11.383 -2.213,0 z M -46.795,1.891 c -0.49,-0.003 -0.879,0.029 -1.169,0.096 -0.286,0.068 -0.491,0.19 -0.616,0.365 -0.122,0.175 -0.181,0.418 -0.178,0.738 0,0.128 0.01,0.273 0.027,0.428 0.015,0.158 0.039,0.33 0.069,0.514 l 0.326,2.058 5.579,0 0.297,1.881 -5.58,0 0.29,1.812 c 0.066,0.438 0.149,0.797 0.251,1.077 0.098,0.28 0.24,0.497 0.418,0.652 0.181,0.155 0.418,0.264 0.721,0.323 0.3,0.063 0.685,0.092 1.153,0.089 l 3.636,0 0.29,1.831 c -0.25,0.014 -0.53,0.023 -0.839,0.037 -0.31,0.009 -0.627,0.02 -0.955,0.029 -0.33,0.01 -0.646,0.017 -0.95,0.02 -0.306,0.006 -0.579,0.01 -0.82,0.01 -0.481,0.003 -0.952,-0.01 -1.409,-0.039 -0.455,-0.031 -0.887,-0.099 -1.295,-0.208 -0.405,-0.109 -0.774,-0.28 -1.103,-0.514 -0.33,-0.234 -0.609,-0.553 -0.837,-0.958 -0.231,-0.406 -0.395,-0.919 -0.497,-1.542 l -1.166,-7.365 c -0.027,-0.152 -0.043,-0.293 -0.056,-0.432 -0.01,-0.138 -0.017,-0.266 -0.017,-0.392 0.003,-0.464 0.079,-0.846 0.227,-1.149 0.149,-0.3 0.356,-0.541 0.62,-0.715 0.263,-0.174 0.573,-0.303 0.925,-0.385 0.353,-0.083 0.732,-0.135 1.14,-0.159 0.408,-0.023 0.834,-0.033 1.268,-0.029 0.241,0 0.514,0.003 0.824,0.01 0.306,0.003 0.626,0.01 0.955,0.019 0.333,0.01 0.655,0.02 0.968,0.03 0.313,0.013 0.593,0.023 0.847,0.036 l 0.29,1.832 -3.634,0 z"
             style="fill:#58595b;fill-opacity:1;fill-rule:nonzero;stroke:none"
             id="path1242"
             inkscape:connector-curvature="0" />
        </g>
        <g
           id="g1244"
           transform="translate(101.5115,406.3665)">
          <path
             d="m 0,0 0,0.434 c 0,0.087 -0.034,0.144 -0.1,0.173 -0.067,0.03 -0.191,0.044 -0.372,0.044 l -0.404,0 0,-0.918 0.413,0 c 0.17,0 0.289,0.02 0.359,0.061 C -0.035,-0.166 0,-0.097 0,0 m 0.63,0.493 0,-0.514 C 0.63,-0.287 0.541,-0.47 0.363,-0.567 0.185,-0.664 -0.109,-0.713 -0.518,-0.713 l -0.358,0 0,-0.881 -0.651,0 0,2.708 1.085,0 c 0.384,0 0.659,-0.042 0.824,-0.127 C 0.547,0.902 0.63,0.738 0.63,0.493 m -2.733,0.621 0,-1.965 c 0,-0.523 -0.393,-0.784 -1.177,-0.784 -0.781,0 -1.172,0.261 -1.172,0.784 l 0,1.965 0.65,0 0,-1.965 c 0,-0.122 0.041,-0.206 0.121,-0.253 0.081,-0.045 0.218,-0.068 0.41,-0.068 0.189,0 0.322,0.023 0.4,0.068 0.079,0.047 0.117,0.131 0.117,0.253 l 0,1.965 0.651,0 z m -3.518,-1.965 0,1.189 c 0,0.131 -0.053,0.223 -0.16,0.276 -0.107,0.053 -0.266,0.079 -0.474,0.079 -0.212,0 -0.37,-0.026 -0.476,-0.077 C -6.836,0.564 -6.889,0.472 -6.889,0.338 l 0,-1.189 c 0,-0.069 0.018,-0.127 0.054,-0.173 0.036,-0.046 0.088,-0.079 0.157,-0.098 0.068,-0.02 0.133,-0.033 0.196,-0.04 0.062,-0.007 0.139,-0.01 0.231,-0.01 0.092,0 0.169,0.003 0.232,0.01 0.063,0.007 0.127,0.02 0.194,0.04 0.067,0.019 0.117,0.052 0.152,0.098 0.035,0.046 0.052,0.104 0.052,0.173 m 0.651,1.185 0,-1.185 c 0,-0.153 -0.04,-0.284 -0.121,-0.392 -0.08,-0.109 -0.189,-0.19 -0.325,-0.244 -0.137,-0.055 -0.273,-0.093 -0.409,-0.115 -0.137,-0.022 -0.281,-0.033 -0.435,-0.033 -0.144,0 -0.28,0.009 -0.406,0.027 -0.126,0.018 -0.261,0.052 -0.405,0.102 -0.143,0.05 -0.257,0.131 -0.342,0.242 -0.085,0.111 -0.128,0.249 -0.128,0.413 l 0,1.185 c 0,0.139 0.032,0.262 0.095,0.367 0.062,0.106 0.138,0.187 0.225,0.242 0.088,0.056 0.195,0.101 0.319,0.136 0.126,0.035 0.237,0.056 0.334,0.064 0.098,0.009 0.201,0.013 0.308,0.013 0.112,0 0.217,-0.004 0.316,-0.013 0.099,-0.008 0.21,-0.029 0.336,-0.064 0.125,-0.035 0.232,-0.08 0.321,-0.136 0.089,-0.055 0.164,-0.135 0.225,-0.24 C -5,0.599 -4.97,0.476 -4.97,0.334 m -3.693,-0.137 0,0.191 c 0,0.101 -0.029,0.169 -0.089,0.207 -0.06,0.038 -0.163,0.056 -0.307,0.056 l -0.559,0 0,-0.751 0.559,0 c 0.153,0 0.257,0.02 0.313,0.061 0.056,0.04 0.083,0.119 0.083,0.236 m 0.806,-1.791 -0.751,0 -0.71,1.065 -0.3,0 0,-1.065 -0.651,0 0,2.708 1.218,0 c 0.357,0 0.616,-0.043 0.78,-0.129 0.165,-0.086 0.247,-0.234 0.247,-0.442 l 0,-0.476 c 0,-0.164 -0.059,-0.29 -0.178,-0.38 -0.118,-0.089 -0.265,-0.145 -0.44,-0.166 l 0.785,-1.115 z m -2.938,0.134 c -0.139,-0.05 -0.316,-0.092 -0.532,-0.125 -0.215,-0.034 -0.414,-0.05 -0.594,-0.05 -0.151,0 -0.286,0.006 -0.407,0.018 -0.121,0.013 -0.243,0.037 -0.363,0.071 -0.122,0.035 -0.223,0.081 -0.305,0.136 -0.082,0.056 -0.148,0.13 -0.198,0.225 -0.05,0.095 -0.075,0.206 -0.075,0.334 l 0,1.127 c 0,0.142 0.029,0.267 0.087,0.375 0.059,0.109 0.132,0.194 0.221,0.255 0.09,0.061 0.197,0.112 0.322,0.152 0.125,0.041 0.245,0.067 0.361,0.08 0.115,0.012 0.237,0.018 0.365,0.018 0.384,0 0.751,-0.029 1.102,-0.087 l 0,-0.493 c -0.332,0.078 -0.698,0.117 -1.102,0.117 -0.471,0 -0.705,-0.136 -0.705,-0.409 l 0,-1.089 c 0,-0.139 0.066,-0.235 0.198,-0.288 0.132,-0.053 0.321,-0.079 0.566,-0.079 0.136,0 0.282,0.021 0.438,0.063 l 0,0.63 -0.443,0 0,0.425 1.064,0 0,-1.406 z m -3.826,0.818 0,-0.179 c 0,-0.162 -0.029,-0.298 -0.088,-0.408 -0.058,-0.109 -0.144,-0.193 -0.259,-0.25 -0.114,-0.057 -0.238,-0.097 -0.373,-0.121 -0.135,-0.024 -0.295,-0.035 -0.482,-0.035 -0.259,0 -0.579,0.025 -0.96,0.075 l 0,0.496 c 0.462,-0.072 0.785,-0.108 0.968,-0.108 0.362,0 0.542,0.093 0.542,0.279 l 0,0.176 c 0,0.08 -0.023,0.146 -0.07,0.198 -0.048,0.052 -0.142,0.077 -0.284,0.077 l -0.317,0 c -0.595,0 -0.893,0.236 -0.893,0.709 l 0,0.201 c 0,0.233 0.098,0.407 0.295,0.519 0.196,0.113 0.509,0.169 0.94,0.169 0.209,0 0.492,-0.018 0.847,-0.054 l 0,-0.484 c -0.423,0.05 -0.712,0.075 -0.868,0.075 -0.214,0 -0.361,-0.018 -0.442,-0.054 -0.08,-0.036 -0.121,-0.097 -0.121,-0.184 l 0,-0.192 c 0,-0.142 0.12,-0.213 0.359,-0.213 l 0.325,0 c 0.318,0 0.544,-0.058 0.679,-0.175 0.135,-0.116 0.202,-0.289 0.202,-0.517 m -2.662,-0.952 -0.651,0 0,2.708 0.651,0 0,-2.708 z m -1.828,0.785 0,1.114 c 0,0.131 -0.053,0.221 -0.159,0.271 -0.106,0.05 -0.265,0.075 -0.48,0.075 l -0.496,0 0,-1.781 0.476,0 c 0.25,0 0.423,0.018 0.517,0.056 0.095,0.037 0.142,0.126 0.142,0.265 m 0.651,1.101 0,-1.101 c 0,-0.306 -0.095,-0.513 -0.284,-0.622 -0.189,-0.108 -0.521,-0.163 -0.997,-0.163 l -1.156,0 0,2.708 1.151,0 c 0.459,0 0.788,-0.057 0.987,-0.171 0.199,-0.114 0.299,-0.331 0.299,-0.651 m -3.021,-1.886 -0.651,0 0,2.708 0.651,0 0,-2.708 z m -1.236,0 -0.658,0 -1.311,1.878 0,-1.878 -0.58,0 0,2.708 0.659,0 1.311,-1.848 0,1.848 0.579,0 0,-2.708 z m -2.987,0 -2.107,0 0,2.708 2.065,0 0,-0.463 -1.414,0 0,-0.621 1.276,0 0,-0.464 -1.276,0 0,-0.696 1.456,0 0,-0.464 z m -2.549,0 -2.237,0 0,0.397 1.41,1.848 -1.368,0 0,0.463 2.169,0 0,-0.392 -1.41,-1.848 1.436,0 0,-0.468 z m -2.688,2.708 0,-1.965 c 0,-0.523 -0.392,-0.784 -1.177,-0.784 -0.781,0 -1.172,0.261 -1.172,0.784 l 0,1.965 0.651,0 0,-1.965 c 0,-0.122 0.04,-0.206 0.121,-0.253 0.08,-0.045 0.217,-0.068 0.409,-0.068 0.189,0 0.322,0.023 0.401,0.068 0.077,0.047 0.116,0.131 0.116,0.253 l 0,1.965 0.651,0 z m -3.518,-1.965 0,1.189 c 0,0.131 -0.053,0.223 -0.161,0.276 -0.106,0.053 -0.264,0.079 -0.473,0.079 -0.211,0 -0.37,-0.026 -0.476,-0.077 -0.105,-0.052 -0.158,-0.144 -0.158,-0.278 l 0,-1.189 c 0,-0.069 0.018,-0.127 0.054,-0.173 0.036,-0.046 0.089,-0.079 0.157,-0.098 0.068,-0.02 0.133,-0.033 0.196,-0.04 0.062,-0.007 0.14,-0.01 0.231,-0.01 0.092,0 0.169,0.003 0.232,0.01 0.063,0.007 0.127,0.02 0.194,0.04 0.067,0.019 0.117,0.052 0.152,0.098 0.035,0.046 0.052,0.104 0.052,0.173 m 0.651,1.185 0,-1.185 c 0,-0.153 -0.04,-0.284 -0.121,-0.392 -0.08,-0.109 -0.189,-0.19 -0.325,-0.244 -0.136,-0.055 -0.273,-0.093 -0.409,-0.115 -0.137,-0.022 -0.281,-0.033 -0.434,-0.033 -0.145,0 -0.28,0.009 -0.407,0.027 -0.126,0.018 -0.262,0.052 -0.404,0.102 -0.144,0.05 -0.258,0.131 -0.343,0.242 -0.084,0.111 -0.127,0.249 -0.127,0.413 l 0,1.185 c 0,0.139 0.031,0.262 0.094,0.367 0.062,0.106 0.138,0.187 0.225,0.242 0.088,0.056 0.194,0.101 0.319,0.136 0.126,0.035 0.237,0.056 0.334,0.064 0.098,0.009 0.2,0.013 0.309,0.013 0.111,0 0.216,-0.004 0.315,-0.013 0.099,-0.008 0.21,-0.029 0.336,-0.064 0.125,-0.035 0.233,-0.08 0.321,-0.136 0.09,-0.055 0.165,-0.135 0.225,-0.24 0.062,-0.104 0.092,-0.227 0.092,-0.369 m -3.096,-1.928 -0.588,0 0,2.003 -0.013,0 -0.684,-2.003 -0.522,0 -0.705,2.003 -0.016,0 0,-2.003 -0.598,0 0,2.708 0.927,0 0.668,-1.935 0.659,1.935 0.872,0 0,-2.708 z"
             style="fill:#58595b;fill-opacity:1;fill-rule:nonzero;stroke:none"
             id="path1246"
             inkscape:connector-curvature="0" />
        </g>
        <g
           id="g1248"
           transform="translate(172.9158,590.7075)" />
        <g
           id="g1252"
           transform="translate(203.0896,564.0146)" />
        <g
           id="g1256"
           transform="translate(202.1028,559.5876)" />
        <g
           id="g1260"
           transform="translate(477.4399,437.4863)" />
        <g
           id="g1264"
           transform="translate(507.6138,410.7935)" />
        <g
           id="g1268"
           transform="translate(506.627,406.3665)" />
        <g
           id="g1272"
           transform="translate(376.8486,590.7075)" />
        <g
           id="g1276"
           transform="translate(407.0225,564.0146)" />
        <g
           id="g1280"
           transform="translate(406.0356,559.5876)" />
      </g>
    </g>
  </g>
</svg>
