<?xml version="1.0" standalone="no"?>
<!DOCTYPE svg PUBLIC "-//W3C//DTD SVG 20010904//EN"
 "http://www.w3.org/TR/2001/REC-SVG-20010904/DTD/svg10.dtd">
<svg version="1.0" xmlns="http://www.w3.org/2000/svg"
 width="870.000000pt" height="530.000000pt" viewBox="0 0 870.000000 530.000000"
 preserveAspectRatio="xMidYMid meet">
<metadata>
Created by potrace 1.15, written by Peter Selinger 2001-2017
</metadata>
<g transform="translate(0.000000,530.000000) scale(0.100000,-0.100000)"
fill="#000000" stroke="none">
<path d="M115 3950 c-18 -3 -34 -15 -42 -30 -10 -20 -13 -211 -13 -878 0 -729
2 -857 15 -881 18 -36 32 -41 109 -41 52 0 66 4 84 23 l22 23 0 876 c0 995 9
902 -90 910 -30 2 -68 1 -85 -2z"/>
<path d="M592 3951 c-30 -4 -57 -13 -62 -21 -6 -9 -10 -370 -10 -891 l0 -876
23 -21 c19 -18 35 -22 88 -22 56 0 69 4 87 23 l22 23 0 527 c0 416 3 527 13
527 6 0 18 -15 26 -32 13 -30 88 -190 146 -313 13 -27 37 -79 53 -115 16 -36
54 -117 84 -180 31 -63 68 -142 83 -175 101 -217 126 -265 144 -274 35 -19
115 -13 139 9 l22 21 0 879 c0 955 3 908 -53 911 -55 3 -133 -4 -144 -13 -10
-8 -13 -134 -15 -546 -2 -417 -6 -536 -15 -539 -7 -3 -16 4 -19 14 -6 17 -30
70 -93 206 -16 34 -41 89 -56 122 -33 72 -69 149 -125 270 -23 50 -59 128 -80
175 -102 231 -139 300 -166 310 -14 6 -28 9 -32 9 -4 -1 -31 -5 -60 -8z"/>
<path d="M1644 3952 c-45 -6 -59 -37 -56 -120 4 -112 4 -112 177 -112 96 0
145 -4 153 -12 9 -9 12 -196 12 -779 l0 -768 26 -20 c40 -31 142 -30 172 2
l22 23 0 758 c0 503 3 764 10 777 10 17 23 19 155 19 178 0 175 -2 175 115 0
87 -12 115 -48 115 -153 3 -783 4 -798 2z"/>
<path d="M2680 3948 c-10 -4 -23 -16 -29 -27 -8 -13 -11 -292 -11 -884 0 -859
0 -864 21 -891 18 -23 27 -26 88 -26 60 0 70 3 92 26 l24 26 5 356 5 357 92 3
93 3 18 -43 c11 -24 41 -99 67 -168 26 -69 53 -139 60 -155 16 -38 56 -142 90
-232 44 -117 58 -145 80 -159 27 -18 156 -14 178 5 22 17 22 81 1 129 -21 49
-28 66 -54 137 -12 33 -26 69 -31 80 -11 26 -92 236 -135 351 -19 50 -32 98
-29 106 3 8 23 24 43 36 47 26 114 95 142 147 44 79 54 132 54 290 1 218 -24
309 -110 411 -47 56 -101 86 -192 109 -61 15 -527 26 -562 13z m559 -258 c24
-14 52 -36 62 -50 41 -57 50 -298 14 -388 -19 -48 -64 -85 -120 -101 -22 -6
-104 -11 -181 -11 l-142 0 -5 28 c-3 15 -6 139 -7 276 0 182 3 252 12 263 10
12 39 14 167 11 143 -3 160 -6 200 -28z"/>
<path d="M4122 3952 c-29 -4 -47 -34 -61 -97 -6 -27 -22 -99 -36 -160 -14 -60
-34 -146 -45 -190 -10 -44 -30 -132 -45 -195 -15 -63 -33 -140 -40 -170 -12
-50 -25 -107 -85 -365 -10 -44 -28 -120 -40 -170 -11 -49 -29 -128 -40 -175
-10 -47 -25 -112 -34 -145 -34 -128 -13 -165 95 -165 90 0 97 9 142 197 20 83
41 163 47 178 l10 25 196 -2 197 -3 22 -80 c12 -44 33 -125 46 -179 30 -126
40 -136 131 -136 61 0 72 3 95 26 29 29 29 43 -12 209 -34 139 -102 422 -127
530 -11 50 -26 113 -34 140 -7 28 -36 149 -64 270 -28 121 -57 243 -64 270 -8
28 -26 102 -40 165 -52 225 -48 217 -131 222 -33 2 -70 2 -83 0z m123 -807
c45 -205 66 -299 76 -338 20 -74 15 -77 -135 -77 -162 0 -165 2 -142 87 16 57
72 303 105 459 10 44 22 87 27 95 10 17 28 -44 69 -226z"/>
<path d="M5115 3949 c-131 -19 -253 -110 -316 -236 l-34 -68 0 -165 c0 -153 2
-169 25 -225 14 -33 32 -69 40 -79 87 -111 123 -132 370 -227 47 -18 90 -35
95 -39 6 -4 22 -10 37 -14 34 -8 85 -85 94 -142 3 -24 4 -92 2 -151 -3 -86 -8
-117 -26 -149 -27 -53 -72 -91 -125 -105 -58 -15 -167 -6 -209 17 -42 25 -98
107 -98 145 0 17 -7 45 -14 64 l-15 35 -85 0 c-84 0 -86 -1 -92 -26 -14 -55 3
-167 34 -230 30 -60 123 -164 147 -164 7 0 18 -6 24 -14 6 -7 33 -19 59 -26
26 -7 51 -17 57 -21 5 -5 50 -9 100 -9 203 0 346 91 426 270 23 52 24 65 24
245 0 179 -1 194 -25 254 -28 71 -116 177 -156 187 -13 3 -24 10 -24 14 0 5
-15 12 -32 15 -18 4 -37 11 -43 15 -5 4 -48 22 -95 40 -263 102 -280 122 -280
317 0 138 15 176 88 228 40 27 51 30 121 30 69 0 83 -3 127 -30 60 -37 93 -94
101 -170 7 -69 22 -79 113 -76 94 3 103 14 98 121 -5 105 -38 180 -108 249
-95 94 -253 141 -405 120z"/>
<path d="M6119 3946 c-2 -2 -18 -6 -34 -9 -53 -8 -149 -63 -192 -110 -59 -63
-92 -135 -103 -220 -15 -116 -12 -1090 4 -1162 22 -104 83 -194 164 -246 73
-46 195 -81 266 -76 206 14 358 128 406 307 18 64 18 1156 0 1220 -40 148
-141 247 -295 289 -38 10 -207 16 -216 7z m145 -245 c3 -5 21 -12 40 -15 36
-7 88 -56 109 -105 16 -35 23 -956 8 -1037 -20 -108 -100 -170 -216 -168 -96
2 -175 63 -196 150 -13 57 -11 990 2 1038 16 60 57 102 122 127 46 19 123 24
131 10z"/>
<path d="M6846 3928 c-14 -20 -16 -121 -16 -889 0 -861 0 -866 21 -893 19 -24
27 -26 89 -26 136 0 131 -17 130 430 -1 198 2 365 5 370 4 6 94 10 229 10 220
0 223 0 244 23 19 20 22 35 22 104 0 121 9 117 -269 123 l-226 5 -5 250 c-4
205 -2 253 9 268 13 15 39 17 283 17 326 0 312 -5 306 122 -3 65 -7 82 -23 94
-15 11 -88 14 -401 14 l-383 0 -15 -22z"/>
<path d="M7807 3932 c-13 -14 -17 -38 -17 -100 0 -110 2 -112 181 -112 101 0
139 -3 148 -13 7 -10 11 -240 13 -781 l3 -768 24 -19 c18 -14 39 -19 90 -19
58 0 71 3 89 23 l22 23 0 765 c0 582 3 768 12 777 8 8 56 12 150 12 173 0 178
3 178 113 0 49 -5 80 -16 95 l-15 22 -423 0 c-397 0 -424 -1 -439 -18z"/>
<path d="M2760 1298 l0 -278 30 0 30 0 0 119 c0 115 1 119 23 125 12 3 27 6
33 6 11 0 33 -52 55 -130 5 -19 17 -54 25 -77 15 -40 18 -43 52 -43 28 0 33 3
24 12 -7 7 -12 19 -12 27 0 9 -7 29 -15 45 -8 15 -15 34 -15 41 0 8 -5 26 -12
42 -6 15 -10 34 -9 41 1 6 -3 12 -9 12 -20 0 -9 28 25 63 34 34 35 39 35 109
0 62 -4 79 -25 111 -14 20 -27 37 -28 38 -1 1 -48 4 -105 8 l-102 6 0 -277z
m171 203 c21 -17 24 -28 24 -85 0 -38 -5 -70 -12 -77 -13 -13 -109 -29 -118
-21 -3 3 -5 50 -5 104 l0 98 44 0 c28 0 52 -7 67 -19z"/>
<path d="M6293 1574 c-31 -7 -83 -61 -83 -87 -1 -12 -1 -107 0 -212 1 -217 4
-230 79 -254 54 -17 103 -8 144 29 l32 28 3 204 c3 218 0 234 -49 270 -26 20
-87 30 -126 22z m94 -76 c22 -21 23 -27 23 -196 0 -160 -2 -176 -21 -203 -15
-22 -28 -29 -54 -29 -59 0 -65 22 -65 234 0 180 1 185 22 200 31 22 68 20 95
-6z"/>
<path d="M7160 1408 c0 -105 -4 -168 -10 -168 -5 0 -10 5 -10 12 0 6 -9 30
-19 52 -19 40 -35 81 -69 176 -8 25 -19 47 -24 48 -4 2 -8 12 -8 23 0 15 -7
19 -35 19 l-35 0 0 -275 0 -275 30 0 30 0 0 170 c0 94 4 170 8 170 10 0 27
-37 77 -170 20 -52 43 -109 51 -127 8 -17 14 -35 14 -41 0 -5 13 -7 32 -3 l32
7 1 271 2 271 -33 4 -34 4 0 -168z"/>
<path d="M7824 1573 c-29 -4 -32 -8 -38 -51 -13 -97 -19 -127 -27 -137 -4 -6
-11 -31 -14 -55 -4 -25 -16 -82 -26 -127 -11 -45 -24 -105 -28 -133 -8 -50 -8
-50 19 -50 31 0 35 7 45 74 l7 46 68 0 67 0 12 -60 c12 -59 12 -60 47 -60 33
0 42 8 27 24 -6 6 -26 96 -37 166 -1 9 -5 21 -9 27 -4 6 -10 33 -13 60 -4 26
-17 90 -30 142 -13 51 -24 104 -24 117 0 13 -3 23 -7 22 -5 0 -22 -3 -39 -5z"/>
<path d="M80 1295 l0 -275 30 0 30 0 0 275 0 275 -30 0 -30 0 0 -275z"/>
<path d="M630 1295 l-1 -275 31 0 c21 0 30 5 31 18 1 9 3 85 5 167 1 83 3 152
3 154 2 8 41 -48 41 -59 0 -6 8 -30 18 -53 10 -23 31 -76 46 -117 39 -104 39
-105 75 -108 l31 -3 0 275 0 276 -30 0 -31 0 2 -161 c1 -160 -9 -212 -29 -158
-49 126 -85 219 -96 244 -8 17 -17 40 -21 53 -5 17 -14 22 -40 22 l-34 0 -1
-275z"/>
<path d="M1358 1564 c-3 -3 -4 -14 -1 -25 4 -15 14 -19 49 -19 l44 0 0 -250 0
-250 30 0 30 0 0 250 0 250 54 0 c50 0 54 1 54 25 l0 25 -128 0 c-69 0 -129
-3 -132 -6z"/>
<path d="M2060 1295 l0 -275 115 0 115 0 0 25 c0 24 -2 24 -82 27 l-83 3 0 95
0 95 73 3 72 3 0 29 0 30 -75 0 -75 0 0 95 0 95 85 0 c84 0 85 0 85 25 l0 25
-115 0 -115 0 0 -275z"/>
<path d="M3490 1296 l0 -276 35 0 35 0 0 165 c0 140 2 165 15 165 8 0 15 -5
15 -10 0 -11 76 -213 107 -282 14 -33 20 -38 50 -38 l34 0 -1 275 -1 275 -32
0 -32 0 2 -177 c1 -98 0 -172 -3 -165 -3 6 -9 10 -13 8 -4 -3 -22 34 -41 82
-105 272 -92 247 -133 250 l-37 3 0 -275z"/>
<path d="M4346 1553 c-2 -10 -7 -34 -11 -53 -3 -19 -10 -44 -14 -55 -5 -11
-16 -60 -26 -110 -10 -49 -27 -128 -37 -175 -34 -151 -34 -140 -1 -140 29 0
31 3 43 60 l13 60 62 0 c38 0 67 -5 73 -12 5 -7 13 -36 17 -63 6 -51 7 -51 39
-47 32 4 33 5 25 35 -10 40 -46 193 -53 227 -13 67 -47 216 -57 251 -10 33
-16 39 -40 39 -18 0 -29 -6 -33 -17z"/>
<path d="M4940 1546 c0 -23 4 -25 53 -28 l52 -3 3 -247 2 -248 30 0 30 0 0
249 0 250 48 3 c40 3 47 6 50 26 3 22 3 22 -132 22 l-136 0 0 -24z"/>
<path d="M5660 1295 l0 -275 30 0 30 0 0 275 0 275 -30 0 -30 0 0 -275z"/>
<path d="M8440 1296 l0 -275 115 -3 115 -3 0 31 0 30 -60 -4 c-32 -2 -71 -1
-85 2 l-25 6 0 245 0 245 -30 0 -30 0 0 -274z"/>
</g>
</svg>
