<svg id="Layer_1" height="129.2104"	width="826.65356" data-name="Layer 1" xmlns="http://www.w3.org/2000/svg" xmlns:xlink="http://www.w3.org/1999/xlink" viewBox="0 0 1000 162"><defs><style>.cls-1{fill:url(#linear-gradient);}.cls-2{fill:#4f4f4f;}</style><linearGradient id="linear-gradient" y1="81" x2="162" y2="81" gradientUnits="userSpaceOnUse"><stop offset="0" stop-color="#0176ff"/><stop offset="0.5" stop-color="#0169e9"/><stop offset="0.99" stop-color="#013e9e"/></linearGradient></defs><title>Artboard 1@1x</title><path class="cls-1" d="M0,0V162H162V0ZM22.09,20.62H139.91V48.24H22.09ZM139.91,94.81v46.57H22.09V113.76h90.1v-19H22.09V67.19H139.91Z"/><polygon class="cls-2" points="490.11 44.94 453 121.1 471.06 121.1 491.22 77.34 511.17 121.1 529.23 121.1 492.32 44.94 490.11 44.94"/><polygon class="cls-2" points="418.16 86.78 373.74 44.94 371.33 44.94 371.33 121.1 387.38 121.1 387.38 80.05 430.96 121.1 434.22 121.1 434.22 44.94 418.16 44.94 418.16 86.78"/><polygon class="cls-2" points="322.34 73.53 305.45 44.94 288.1 44.94 314.63 88.56 314.63 121.1 330.15 121.1 330.15 88.56 356.49 44.94 339.23 44.94 322.34 73.53"/><path class="cls-2" d="M262.32,82.58a32.53,32.53,0,0,0-7.51-5A83,83,0,0,0,246.49,74c-1.15-.4-2.34-.87-3.56-1.43a26.35,26.35,0,0,1-3.4-1.88A12.27,12.27,0,0,1,237,68.48a3.87,3.87,0,0,1-1-2.57q0-3.77,2-5.19a8.91,8.91,0,0,1,5.28-1.44,27.39,27.39,0,0,1,3.25.2,18.8,18.8,0,0,1,3.45.79A24.6,24.6,0,0,1,254,62.1a61,61,0,0,1,5.17,3.31l8.93-12.06q-4.16-3-7.25-4.85A35.26,35.26,0,0,0,255,45.58a24.74,24.74,0,0,0-5.58-1.38,50.24,50.24,0,0,0-6.14-.35,36.29,36.29,0,0,0-8.48,1A22,22,0,0,0,227,48.45a19,19,0,0,0-5.73,6.78A22.78,22.78,0,0,0,219,65.91a18.91,18.91,0,0,0,2.49,10.14,23.19,23.19,0,0,0,6.29,6.72,41.53,41.53,0,0,0,8.17,4.55q4.37,1.84,8.17,3.52a28.67,28.67,0,0,1,6.29,3.66,6.17,6.17,0,0,1,2.49,5c0,2.57-.75,4.4-2.23,5.49s-3.89,1.63-7.21,1.63a29.34,29.34,0,0,1-3.55-.2,18.67,18.67,0,0,1-3.7-.84,26.36,26.36,0,0,1-4.32-1.88,59.12,59.12,0,0,1-5.28-3.21l-8.93,12.07a82.79,82.79,0,0,0,7.72,4.89,43,43,0,0,0,6.29,2.87,27.43,27.43,0,0,0,5.73,1.39,49.47,49.47,0,0,0,6,.34,44.72,44.72,0,0,0,10.2-1.13,23.35,23.35,0,0,0,8.42-3.76,18.24,18.24,0,0,0,5.69-6.93,24.66,24.66,0,0,0,2.08-10.73,21.7,21.7,0,0,0-2.08-9.79A24.1,24.1,0,0,0,262.32,82.58Z"/><polygon class="cls-2" points="717.33 60.27 731.53 60.27 731.53 44.94 682.62 44.94 682.62 60.27 699.77 60.27 717.33 60.27"/><polygon class="cls-2" points="699.77 90.74 723.82 90.74 723.82 75.41 717.33 75.41 699.77 75.41 682.62 75.41 682.62 90.74 699.77 90.74 699.77 90.74"/><path class="cls-2" d="M892.58,55.52a38.65,38.65,0,0,0-12.08-8.45,36.71,36.71,0,0,0-29.62,0,39.54,39.54,0,0,0-20.44,20.77,37.87,37.87,0,0,0-3,15.08,38.54,38.54,0,0,0,3,15.24,40.41,40.41,0,0,0,8.27,12.46A38.83,38.83,0,0,0,850.88,119a37.15,37.15,0,0,0,29.53,0,38.44,38.44,0,0,0,12.08-8.41,41,41,0,0,0,8.21-12.46,38.37,38.37,0,0,0,3-15.24,38,38,0,0,0-3-15A40.19,40.19,0,0,0,892.58,55.52Zm-7,36.35A24.54,24.54,0,0,1,881,99.44a22.5,22.5,0,0,1-6.87,5.24,18.73,18.73,0,0,1-8.5,2,19.27,19.27,0,0,1-8.65-2,22.2,22.2,0,0,1-6.91-5.24,25.27,25.27,0,0,1-4.59-7.57,24.16,24.16,0,0,1-1.69-9,23.83,23.83,0,0,1,1.69-8.9,25.52,25.52,0,0,1,4.59-7.52A21.9,21.9,0,0,1,857,61.31a19.64,19.64,0,0,1,8.65-1.93,19.09,19.09,0,0,1,8.5,1.93A22.19,22.19,0,0,1,881,66.5a25,25,0,0,1,4.54,25.37Z"/><path class="cls-2" d="M591.76,50.68a25,25,0,0,0-8.53-4.31,37.62,37.62,0,0,0-10.57-1.43H546.92V121.1h16.86V92h9.58a29.49,29.49,0,0,0,9.92-1.68,26.22,26.22,0,0,0,8.38-4.8A22.89,22.89,0,0,0,597.45,78a22.51,22.51,0,0,0,2.14-9.89A23.18,23.18,0,0,0,597.5,57.9,20.2,20.2,0,0,0,591.76,50.68ZM581.84,72a7.47,7.47,0,0,1-2.15,2.67,8.38,8.38,0,0,1-3.09,1.49,14.67,14.67,0,0,1-3.54.44h-9.28V60.27h8.38a17.3,17.3,0,0,1,4,.45,9.68,9.68,0,0,1,3.34,1.43,7.79,7.79,0,0,1,2.3,2.42,6.87,6.87,0,0,1,.84,3.52A8.84,8.84,0,0,1,581.84,72Z"/><polygon class="cls-2" points="997.33 44.94 963.23 74.02 929.02 44.94 926.34 44.94 926.34 121.1 944.25 121.1 944.25 79.95 963.23 97.17 982.09 79.86 982.09 121.1 1000 121.1 1000 44.94 997.33 44.94"/><path class="cls-2" d="M796.54,104.83a27.11,27.11,0,0,1-9.67,1.83,19.23,19.23,0,0,1-8.64-2,22.08,22.08,0,0,1-6.91-5.24,25,25,0,0,1-4.59-7.52,24.15,24.15,0,0,1,0-17.8,25,25,0,0,1,4.59-7.52,22.39,22.39,0,0,1,6.91-5.24,19.23,19.23,0,0,1,8.64-2,27,27,0,0,1,8.94,1.53,45.94,45.94,0,0,1,9.81,5.1l8.31-12.46a57.11,57.11,0,0,0-14.06-7.37,40.43,40.43,0,0,0-13-2.23,35.73,35.73,0,0,0-14.78,3.12,39.82,39.82,0,0,0-20.54,20.87,38.82,38.82,0,0,0,0,30.12,40.56,40.56,0,0,0,8.26,12.46A39.27,39.27,0,0,0,772,119a36.22,36.22,0,0,0,14.83,3.11,41.12,41.12,0,0,0,14-2.62,50.37,50.37,0,0,0,14.3-8.26l-8.12-12.36A46,46,0,0,1,796.54,104.83Z"/><polygon class="cls-2" points="699.77 105.77 682.62 105.77 682.62 121.1 732.55 121.1 732.55 105.77 717.33 105.77 699.77 105.77"/><path class="cls-2" d="M656.15,82.58a32.37,32.37,0,0,0-7.52-5A81.05,81.05,0,0,0,640.31,74c-1.15-.4-2.33-.87-3.55-1.43a25.7,25.7,0,0,1-3.4-1.88,12.6,12.6,0,0,1-2.59-2.23,3.91,3.91,0,0,1-1-2.57c0-2.51.67-4.24,2-5.19a8.91,8.91,0,0,1,5.28-1.44,27.1,27.1,0,0,1,3.24.2,18.8,18.8,0,0,1,3.45.79,24.24,24.24,0,0,1,4.06,1.83A61,61,0,0,1,653,65.41l8.93-12.06q-4.15-3-7.26-4.85a34.81,34.81,0,0,0-5.88-2.92,24.74,24.74,0,0,0-5.58-1.38,50.36,50.36,0,0,0-6.14-.35,36.29,36.29,0,0,0-8.48,1,22,22,0,0,0-7.81,3.56A19.06,19.06,0,0,0,615,55.23a22.91,22.91,0,0,0-2.23,10.68,18.91,18.91,0,0,0,2.49,10.14,23.05,23.05,0,0,0,6.29,6.72,41.53,41.53,0,0,0,8.17,4.55q4.37,1.84,8.17,3.52a28.67,28.67,0,0,1,6.29,3.66,6.17,6.17,0,0,1,2.49,5q0,3.85-2.24,5.49c-1.48,1.09-3.89,1.63-7.2,1.63a29.34,29.34,0,0,1-3.55-.2,18.92,18.92,0,0,1-3.71-.84,25.93,25.93,0,0,1-4.31-1.88,57.73,57.73,0,0,1-5.28-3.21l-8.93,12.07a84.12,84.12,0,0,0,7.71,4.89,43.09,43.09,0,0,0,6.3,2.87,27.43,27.43,0,0,0,5.73,1.39,49.36,49.36,0,0,0,6,.34,44.85,44.85,0,0,0,10.2-1.13,23.35,23.35,0,0,0,8.42-3.76,18.13,18.13,0,0,0,5.68-6.93,24.52,24.52,0,0,0,2.08-10.73,21.57,21.57,0,0,0-2.08-9.79A23.91,23.91,0,0,0,656.15,82.58Z"/></svg>
