<?xml version="1.0" encoding="utf-8"?><!DOCTYPE svg PUBLIC "-//W3C//DTD SVG 1.1//EN" "http://www.w3.org/Graphics/SVG/1.1/DTD/svg11.dtd"><svg version="1.1" baseProfile="full" xmlns="http://www.w3.org/2000/svg" xmlns:xlink="http://www.w3.org/1999/xlink" xmlns:ev="http://www.w3.org/2001/xml-events"   height="27px"   width="136px" ><path fill="rgb( 255, 255, 255 )" d="M132.342,9.557 C132.342,9.557 132.342,22.54 132.342,22.54 C132.342,22.54 128.381,22.54 128.381,22.54 C128.381,22.54 128.381,2.675 128.381,2.675 C128.381,2.675 132.342,2.675 132.342,2.675 C132.342,2.675 132.342,6.128 132.342,6.128 C132.342,6.128 135.986,6.128 135.986,6.128 C135.986,6.128 135.986,9.557 135.986,9.557 C135.986,9.557 132.342,9.557 132.342,9.557 ZM123.465,22.54 C123.465,22.54 111.406,22.54 111.406,22.54 C109.917,22.54 108.709,21.404 108.709,20.002 C108.709,20.002 108.709,15.021 108.709,15.021 C108.709,13.62 109.917,12.484 111.406,12.484 C111.406,12.484 122.2,12.483 122.2,12.483 C122.2,12.483 122.2,10.405 122.2,10.405 C122.2,9.938 121.798,9.559 121.301,9.559 C121.301,9.559 109.026,9.559 109.026,9.559 C109.026,9.559 109.026,6.127 109.026,6.127 C109.026,6.127 123.465,6.127 123.465,6.127 C124.954,6.127 126.161,7.264 126.161,8.66500000000001 C126.161,8.66500000000001 126.161,20.002 126.161,20.002 C126.161,21.404 124.954,22.54 123.465,22.54 ZM122.2,15.915 C122.2,15.915 113.104,15.915 113.104,15.915 C112.856,15.915 112.655,16.104 112.655,16.337 C112.655,16.337 112.655,18.685 112.655,18.685 C112.655,18.919 112.856,19.108 113.104,19.108 C113.104,19.108 121.751,19.108 121.751,19.108 C121.999,19.108 122.2,18.919 122.2,18.685 C122.2,18.685 122.2,15.915 122.2,15.915 ZM89.052,20.002 C89.052,20.002 89.052,8.66500000000001 89.052,8.66500000000001 C89.052,7.26300000000001 90.259,6.127 91.748,6.127 C91.748,6.127 103.793,6.127 103.793,6.127 C105.282,6.127 106.49,7.26300000000001 106.49,8.66500000000001 C106.49,8.66500000000001 106.49,13.646 106.49,13.646 C106.49,15.047 105.282,16.183 103.793,16.183 C103.793,16.183 92.983,16.183 92.983,16.183 C92.983,16.183 92.983,18.262 92.983,18.262 C92.983,18.729 93.386,19.108 93.882,19.108 C93.882,19.108 106.49,19.108 106.49,19.108 C106.49,19.108 106.49,22.54 106.49,22.54 C106.49,22.54 91.748,22.539 91.748,22.539 C90.259,22.539 89.052,21.403 89.052,20.002 ZM92.983,12.752 C92.983,12.752 102.079,12.752 102.079,12.752 C102.327,12.752 102.529,12.563 102.529,12.33 C102.529,12.33 102.529,9.982 102.529,9.982 C102.529,9.748 102.327,9.559 102.079,9.559 C102.079,9.559 93.433,9.559 93.433,9.559 C93.184,9.559 92.983,9.748 92.983,9.982 C92.983,9.982 92.983,12.752 92.983,12.752 ZM84.135,22.539 C84.135,22.539 72.024,22.54 72.024,22.54 C70.535,22.54 69.327,21.404 69.327,20.002 C69.327,20.002 69.327,0.995 69.327,0.995 C69.327,0.995 73.289,0.995 73.289,0.995 C73.289,0.995 73.289,6.127 73.289,6.127 C73.289,6.127 84.135,6.127 84.135,6.127 C85.625,6.127 86.832,7.26300000000001 86.832,8.66500000000001 C86.832,8.66500000000001 86.832,20.002 86.832,20.002 C86.832,21.403 85.625,22.539 84.135,22.539 ZM82.835,9.982 C82.835,9.748 82.633,9.559 82.385,9.559 C82.385,9.559 73.289,9.559 73.289,9.559 C73.289,9.559 73.289,18.685 73.289,18.685 C73.289,18.919 73.49,19.108 73.738,19.108 C73.738,19.108 82.385,19.108 82.385,19.108 C82.633,19.108 82.835,18.919 82.835,18.685 C82.835,18.685 82.835,9.982 82.835,9.982 ZM62.829,6.127 C62.829,6.127 66.791,6.127 66.791,6.127 C66.791,6.127 66.791,22.54 66.791,22.54 C66.791,22.54 62.829,22.54 62.829,22.54 C62.829,22.54 62.829,6.127 62.829,6.127 ZM62.829,0.995 C62.829,0.995 66.79,0.995 66.79,0.995 C66.79,0.995 66.791,4.426 66.791,4.426 C66.791,4.426 62.829,4.426 62.829,4.426 C62.829,4.426 62.829,0.995 62.829,0.995 ZM56.342,22.545 C56.342,22.545 52.04,17.385 52.04,17.385 C52.04,17.385 47.739,22.545 47.739,22.545 C47.739,22.545 42.659,22.545 42.659,22.545 C42.659,22.545 49.501,14.339 49.501,14.339 C49.501,14.339 42.659,6.13200000000001 42.659,6.13200000000001 C42.659,6.13200000000001 47.739,6.13200000000001 47.739,6.13200000000001 C47.739,6.13200000000001 52.04,11.292 52.04,11.292 C52.04,11.292 56.342,6.13200000000001 56.342,6.13200000000001 C56.342,6.13200000000001 61.421,6.13200000000001 61.421,6.13200000000001 C61.421,6.13200000000001 54.58,14.339 54.58,14.339 C54.58,14.339 61.421,22.545 61.421,22.545 C61.421,22.545 56.342,22.545 56.342,22.545 ZM39.568,22.54 C39.568,22.54 27.495,22.54 27.495,22.54 C26.006,22.54 24.799,21.404 24.799,20.002 C24.799,20.002 24.799,14.812 24.799,14.812 C24.799,13.411 26.006,12.274 27.495,12.274 C27.495,12.274 38.305,12.274 38.305,12.274 C38.305,12.274 38.305,9.982 38.305,9.982 C38.305,9.748 38.104,9.559 37.856,9.559 C37.856,9.559 25.115,9.559 25.115,9.559 C25.115,9.559 25.115,6.127 25.115,6.127 C25.115,6.127 39.568,6.127 39.568,6.127 C41.057,6.127 42.265,7.26300000000001 42.265,8.66500000000001 C42.265,8.66500000000001 42.265,20.002 42.265,20.002 C42.265,21.403 41.057,22.539 39.568,22.54 ZM38.305,15.706 C38.305,15.706 29.209,15.706 29.209,15.706 C28.961,15.706 28.76,15.895 28.76,16.129 C28.76,16.129 28.76,18.685 28.76,18.685 C28.76,18.919 28.961,19.108 29.209,19.108 C29.209,19.108 37.856,19.108 37.856,19.108 C38.104,19.108 38.305,18.919 38.305,18.685 C38.305,18.685 38.305,15.706 38.305,15.706 ZM19.581,22.54 C19.581,22.54 15.62,22.54 15.62,22.54 C15.62,22.54 15.62,2.675 15.62,2.675 C15.62,2.675 19.581,2.675 19.581,2.675 C19.581,2.675 19.581,6.127 19.581,6.127 C19.581,6.127 23.225,6.127 23.225,6.127 C23.225,6.127 23.225,9.556 23.225,9.556 C23.225,9.556 19.581,9.556 19.581,9.556 C19.581,9.556 19.581,22.54 19.581,22.54 ZM6.372,24.622 C6.372,25.389 5.712,26.01 4.897,26.01 C4.897,26.01 3.937,26.01 3.937,26.01 C3.123,26.01 2.462,25.389 2.462,24.622 C2.462,24.622 2.462,22.525 2.462,22.525 C2.462,22.525 0.014,22.525 0.014,22.525 C0.014,22.525 0.014,15.474 0.014,15.474 C0.022,13.588 1.638,12.59 2.547,12.487 C2.547,12.487 4.853,6.937 4.853,6.937 C5.288,5.89 6.228,4.99 7.993,4.995 C7.993,4.995 10.657,4.995 10.657,4.995 C10.657,4.995 10.657,3.938 10.657,3.938 C10.657,3.24 11.259,2.674 12.001,2.675 C12.001,2.675 14.046,2.677 14.046,2.677 C14.046,2.677 14.046,7.333 14.046,7.333 C14.046,7.333 8.204,7.333 8.204,7.333 C7.799,7.333 7.437,7.569 7.293,7.925 C7.293,7.925 5.507,12.357 5.507,12.357 C5.507,12.357 14.046,12.357 14.046,12.357 C14.046,12.357 14.046,22.525 14.046,22.525 C14.046,22.525 6.372,22.525 6.372,22.525 C6.372,22.525 6.372,24.622 6.372,24.622 ZM6.379,16.356 C6.394,15.318 5.507,14.482 4.437,14.478 C3.36,14.481 2.489,15.318 2.494,16.356 C2.49,17.38 3.36,18.203 4.437,18.216 C5.487,18.228 6.365,17.388 6.379,16.356 Z "/></svg>