<svg xmlns="http://www.w3.org/2000/svg" width="244" height="48" viewBox="0 0 244 48">
    <g fill="#000" fill-rule="evenodd" opacity=".7" style="mix-blend-mode:luminosity">
        <path d="M27.895 3.62h7.08v6.558h6.514v6.514h-6.514v24.663h-7.08zM112.278.429v6.519h7.08V.428h-7.08zm0 40.926h7.08V10.178h-7.08v31.177zM148.036 34.033c0 .443-.36.803-.804.803h-15.456a.803.803 0 0 1-.803-.803V16.697h16.26c.443 0 .803.36.803.803v16.533zm2.325-23.855h-19.388V.428h-7.08v36.106a4.82 4.82 0 0 0 4.82 4.82h21.648a4.82 4.82 0 0 0 4.82-4.82V14.998a4.82 4.82 0 0 0-4.82-4.82zM166.979 16.697h15.455c.444 0 .803.36.803.803v4.46c0 .444-.36.803-.803.803h-16.258V17.5c0-.444.36-.803.803-.803zm18.519 12.583a4.82 4.82 0 0 0 4.82-4.82v-9.462a4.82 4.82 0 0 0-4.82-4.82h-21.53a4.82 4.82 0 0 0-4.82 4.82v21.537a4.82 4.82 0 0 0 4.82 4.82h26.35v-6.519h-22.535c-.888 0-1.607-.72-1.607-1.606V29.28h19.322zM67.64 34.836H52.185a.803.803 0 0 1-.803-.803v-4.855c0-.444.36-.804.803-.804h16.258v5.66c0 .443-.36.802-.803.802M70.7 10.18H44.867v6.519l22.773-.001c.444 0 .803.36.803.803v4.356H49.121a4.82 4.82 0 0 0-4.82 4.82v9.86a4.82 4.82 0 0 0 4.82 4.819h21.58a4.82 4.82 0 0 0 4.82-4.82V14.999a4.82 4.82 0 0 0-4.821-4.82M217.595 34.837H202.14a.803.803 0 0 1-.803-.803v-4.46c0-.444.36-.804.803-.804h16.258v5.264c0 .443-.36.803-.803.803m3.064-24.658h-25.807v6.518h21.94c.887 0 1.606.72 1.606 1.607v3.949h-19.293a4.82 4.82 0 0 0-4.82 4.82v9.462a4.82 4.82 0 0 0 4.82 4.82h21.554a4.82 4.82 0 0 0 4.82-4.82V15a4.82 4.82 0 0 0-4.82-4.82M229.447 3.621h7.08v6.558h6.514v6.513h-6.514v24.664h-7.08zM109.761 10.188h-9.078l-7.69 9.802-7.688-9.802h-9.08l12.23 15.589-12.23 15.588h9.08l7.689-9.802 7.689 9.802h9.078L97.533 25.777zM7.906 33.142a3.513 3.513 0 0 1-3.473-3.534c-.009-1.972 1.548-3.56 3.473-3.566 1.914.007 3.499 1.594 3.472 3.566-.026 1.961-1.595 3.557-3.472 3.534zm1.914-11.13l3.191-8.419a1.74 1.74 0 0 1 1.628-1.124h10.443V3.625l-3.655-.004a2.4 2.4 0 0 0-2.402 2.4v2.007h-4.763c-3.155-.01-4.834 1.7-5.611 3.688L4.527 22.26C2.903 22.454.015 24.349 0 27.933v13.394h4.377v3.985a2.636 2.636 0 0 0 2.636 2.636H8.73a2.636 2.636 0 0 0 2.637-2.636v-3.985h13.716V22.012H9.82z"/>
    </g>
</svg>
