<?xml version="1.0" encoding="utf-8"?>
<!-- Generator: Adobe Illustrator 19.2.1, SVG Export Plug-In . SVG Version: 6.00 Build 0)  -->
<svg version="1.1" baseProfile="tiny" id="Ebene_1" xmlns="http://www.w3.org/2000/svg" xmlns:xlink="http://www.w3.org/1999/xlink"
	 x="0px" y="0px" width="800px" height="248.77px" viewBox="0 0 800 248.77" xml:space="preserve">
<g>
	<polygon fill="#F48F00" points="264.42,54.824 307.107,54.824 339.522,142.291 340.044,142.291 370.089,54.824 409.874,54.824 
		359.278,183.39 317.382,183.39 	"/>
	<path fill="#007FAD" d="M109.597,86.438H70.606v43.039c0,3.51,0.434,6.713,0.822,9.617c0.384,2.89,1.379,5.395,2.73,7.507
		c1.349,2.11,3.487,3.733,6.292,4.868c2.804,1.145,6.557,1.713,11.196,1.713c2.313,0,5.493-0.212,9.264-0.655
		c3.77-0.438,6.58-1.454,8.688-3.026v32.93c-5.269,1.58-9.974,2.635-15.197,3.166c-5.211,0.527-10.394,0.79-15.418,0.79
		c-7.355,0-14.142-0.698-20.318-2.11c-6.189-1.398-11.613-3.643-16.251-6.716c-4.643-3.073-8.376-7.07-10.984-11.991
		c-2.604-4.921-4.029-10.886-4.029-17.915V86.438H0V54.824h27.399V16.886h43.207v37.937h38.991V86.438z"/>
	<path fill="#007FAD" d="M120.135,54.824h40.045V75.9h0.395c4.217-8.431,9.223-13.929,15.019-17.874
		c5.796-3.959,13.09-5.985,21.876-5.985c2.282,0,4.624,0.071,6.904,0.242c2.286,0.183,4.281,0.508,6.389,1.032v36.105
		c-3.161-0.882-5.642-1.541-8.36-1.974c-2.722-0.437-5.612-0.663-8.593-0.663c-7.559,0-13.548,1.059-17.938,3.167
		c-4.388,2.099-7.775,5.052-10.153,8.823c-2.366,3.778-3.85,8.302-4.548,13.565c-0.706,5.276-0.992,11.071-0.992,17.401v53.649
		h-40.045V54.824z"/>
	<path fill="#007FAD" d="M220.248,54.824h38.991V183.39h-38.991V54.824z M218.657,21.004c0-5.797,2.05-10.741,6.151-14.841
		C228.915,2.054,233.859,0,239.65,0c5.801,0,10.749,2.054,14.848,6.162c4.103,4.1,6.155,9.045,6.155,14.841
		c0,5.79-2.052,10.738-6.155,14.835c-4.099,4.114-9.048,6.165-14.848,6.165c-5.79,0-10.735-2.051-14.842-6.165
		C220.707,31.742,218.657,26.794,218.657,21.004"/>
	<path fill="#F48F00" d="M476.927,127.537c-2.983,0-6.718-0.086-11.201,0.177c-4.478,0.268-8.784,0.908-12.908,2.133
		c-4.124,1.228-7.643,3.023-10.54,5.474c-2.897,2.468-4.347,5.858-4.347,10.253c0,4.746,2.019,8.243,6.064,10.526
		c4.036,2.278,8.25,3.423,12.643,3.423c3.864,0,7.599-0.533,11.2-1.591c3.602-1.055,6.807-2.547,9.617-4.483
		c2.811-1.93,5.145-4.383,6.821-7.377c1.662-2.983,2.589-6.493,2.589-10.541v-7.994H476.927z M486.864,167.582h-0.717
		c-4.391,6.323-10.237,11.554-17.515,14.534c-7.297,2.998-14.981,4.379-23.062,4.379c-5.971,0-11.723-0.887-17.26-2.558
		c-5.53-1.661-10.406-4.197-14.62-7.534c-4.217-3.337-7.557-7.48-10.016-12.403c-2.467-4.909-3.69-10.626-3.69-17.128
		c0-7.376,1.363-13.62,4.089-18.714c2.718-5.093,6.404-9.316,11.061-12.651c4.658-3.341,9.973-5.925,15.944-7.771
		c5.968-1.846,12.16-3.206,18.583-4.088c6.404-0.874,12.818-1.402,19.234-1.585c6.407-0.17,12.332-0.264,17.779-0.264
		c0-7.018-2.495-12.601-7.506-16.729c-5.004-4.128-10.937-6.189-17.787-6.189c-6.499,0-12.428,1.363-17.784,4.08
		c-5.36,2.727-10.145,6.463-14.36,11.201l-21.083-21.61c7.375-6.848,15.987-11.99,25.825-15.41
		c9.836-3.432,20.027-5.141,30.569-5.141c11.589,0,21.115,1.45,28.587,4.35c7.46,2.901,13.434,7.165,17.917,12.785
		c4.478,5.62,7.425,12.506,9.179,20.68c1.752,8.171,2.464,17.613,2.464,28.327v65.246h-35.83V167.582z"/>
	<path fill="#C94A30" d="M707.019,119.198c0,9.658,2.511,17.479,7.511,23.446c5.014,5.973,12.042,8.957,21.104,8.957
		c9.062,0,16.088-2.983,21.094-8.957c5.006-5.968,7.515-13.788,7.515-23.446c0-9.659-2.509-17.478-7.515-23.453
		c-5.006-5.967-12.031-8.962-21.094-8.962c-9.062,0-16.09,2.994-21.104,8.962C709.53,101.72,707.019,109.54,707.019,119.198
		 M671.265,119.198c0-10.186,1.671-19.408,4.999-27.675c3.344-8.246,7.907-15.317,13.718-21.201
		c5.796-5.887,12.627-10.408,20.498-13.576c7.87-3.164,16.251-4.75,25.153-4.75c8.896,0,17.282,1.586,25.147,4.75
		c7.869,3.168,14.696,7.689,20.503,13.576c5.8,5.883,10.374,12.955,13.703,21.201c3.343,8.267,5.014,17.489,5.014,27.675
		c0,10.185-1.671,19.407-5.014,27.664c-3.329,8.26-7.903,15.332-13.703,21.212c-5.807,5.887-12.634,10.412-20.503,13.565
		c-7.865,3.163-16.251,4.749-25.147,4.749c-8.902,0-17.283-1.586-25.153-4.749c-7.871-3.153-14.702-7.678-20.498-13.565
		c-5.811-5.88-10.375-12.952-13.718-21.212C672.937,138.605,671.265,129.384,671.265,119.198"/>
	<path fill="#C94A30" d="M629.472,54.7v17.226h-0.595c-0.691-0.944-1.66-2.38-4.488-4.808c-3.733-3.205-6.456-4.72-10.143-6.762
		c-3.654-2.024-7.968-3.76-12.647-5.006c-4.673-1.229-10.697-2.239-16.334-2.239c-9.163,0-17.537,2.5-24.764,6.279
		c-7.228,3.788-12.515,7.64-17.345,14.051c-4.756,6.312-7.533,12.644-9.764,20.901c-2.227,8.244-2.786,17.733-2.786,26.193
		c0,9.69,1.46,18.875,3.827,27.181c2.38,8.355,6.218,15.89,11.182,21.58c5.401,6.191,10.946,9.39,18.701,12.653
		c7.758,3.26,16.003,4.444,25.526,4.34c6.026-0.066,11.886-1.393,18.656-4.001c8.249-3.178,14.013-9.122,16.285-12.334h0.459v12.46
		c0,9.165-2,16.694-7.719,22.598c-5.729,5.904-14.083,9.075-26.248,9.075c-8.102,0-13.194,0.167-21.437-2.06
		c-7.167-1.936-16.18-5.347-22.865-10.248l-19.228,28.224c10.248,7.421,19.515,11.989,30.639,14.935
		c11.014,2.915,22.291,3.835,33.744,3.835c25.027,0,42.74-6.3,54.994-18.905c12.246-12.597,17.242-31.065,17.242-55.393V54.7
		H629.472z M619.617,142.816c-5.021,5.994-12.072,8.987-21.159,8.987c-9.094,0-16.144-2.994-21.177-8.987
		c-5.014-5.987-7.533-13.834-7.533-23.525c0-9.691,2.519-17.537,7.533-23.532c5.033-5.987,12.083-8.991,21.177-8.991
		c9.087,0,16.138,3.004,21.159,8.991c5.026,5.995,7.542,13.841,7.542,23.532C627.159,128.982,624.643,136.828,619.617,142.816z"/>
</g>
</svg>
