<?xml version="1.0" encoding="UTF-8"?>
<svg width="178px" height="55px" viewBox="0 0 178 55" version="1.1" xmlns="http://www.w3.org/2000/svg" xmlns:xlink="http://www.w3.org/1999/xlink">
    <!-- Generator: Sketch 48.2 (47327) - http://www.bohemiancoding.com/sketch -->
    <title>Trivago</title>
    <desc>Created with Sketch.</desc>
    <defs></defs>
    <g id="Landing-B" stroke="none" stroke-width="1" fill="none" fill-rule="evenodd" transform="translate(-978.000000, -3086.000000)" opacity="0.699999988">
        <g id="Sponsors" transform="translate(1.000000, 2823.000000)">
            <g id="Logos" style="mix-blend-mode: luminosity;" transform="translate(210.000000, 262.000000)">
                <g id="Trivago" transform="translate(767.000000, 0.000000)">
                    <polygon id="Fill-289" fill="#F19400" points="59.0524435 13.1627217 68.4736609 13.1627217 75.6303565 32.3556783 75.7463565 32.3556783 82.3785304 13.1627217 91.1592261 13.1627217 79.9904435 41.4314174 70.7432261 41.4314174"></polygon>
                    <path d="M24.823113,20.141887 L16.3778087,20.141887 L16.3778087,29.5656261 C16.3778087,30.3423217 16.4181565,31.0484087 16.5064174,31.6914522 C16.5896348,32.3294522 16.7838087,32.881713 17.0813739,33.345713 C17.3789391,33.8147565 17.8353739,34.1703217 18.4557217,34.4224957 C19.0760696,34.6771913 19.8956348,34.7982348 20.9219826,34.7982348 C21.4313739,34.7982348 22.1021565,34.7528435 22.9343304,34.6570174 C23.7690261,34.5586696 24.3969391,34.3367565 24.823113,33.9862348 L24.823113,41.2564087 C23.7564174,41.6069304 22.6493739,41.8389304 21.4944174,41.9549304 C20.3445043,42.0709304 19.2147652,42.1314522 18.1052,42.1314522 C16.4812,42.1314522 14.9908522,41.9751043 13.6265913,41.6649304 C12.2623304,41.3547565 11.0670261,40.8604957 10.0432,40.1821478 C9.01685217,39.5038 8.21998261,38.6211913 7.64502609,37.5343217 C7.06754783,36.4499739 6.78006957,35.1311043 6.78006957,33.5802348 L6.78006957,20.141887 L0.637113043,20.141887 L0.637113043,13.161713 L6.78006957,13.161713 L6.78006957,4.78701739 L16.3778087,4.78701739 L16.3778087,13.161713 L24.823113,13.161713 L24.823113,20.141887 Z" id="Fill-290" fill="#007DAC"></path>
                    <path d="M27.288113,13.1627217 L36.0133304,13.1627217 L36.0133304,17.7018522 L36.1293304,17.7018522 C37.0598522,15.954287 38.1643739,14.6455043 39.4454174,13.7755043 C40.7239391,12.9004609 42.3353304,12.4642 44.2745478,12.4642 C44.7788957,12.4642 45.2807217,12.4843739 45.7850696,12.5222 C46.2894174,12.5625478 46.7534174,12.6382 47.182113,12.7542 L47.182113,20.7254174 C46.5617652,20.5312435 45.9489826,20.3849826 45.3488087,20.2891565 C44.7486348,20.1933304 44.1182,20.1428957 43.4600261,20.1428957 C41.7906348,20.1428957 40.4717652,20.3748957 39.5034174,20.8414174 C38.5325478,21.3054174 37.7886348,21.9560261 37.264113,22.7882 C36.742113,23.6228957 36.3991565,24.6215043 36.2453304,25.7840261 C36.0889826,26.9490696 36.0133304,28.2275913 36.0133304,29.6246348 L36.0133304,41.4314174 L27.288113,41.4314174 L27.288113,13.1627217 Z" id="Fill-291" fill="#007DAC"></path>
                    <path d="M48.9508609,5.62221739 C48.9508609,4.34117391 49.4022522,3.25178261 50.3075565,2.34647826 C51.2153826,1.44117391 52.3072957,0.98473913 53.5832957,0.98473913 C54.8643391,0.98473913 55.9562522,1.44117391 56.8615565,2.34647826 C57.7668609,3.25178261 58.2207739,4.34117391 58.2207739,5.62221739 C58.2207739,6.90073913 57.7668609,7.99265217 56.8615565,8.89795652 C55.9562522,9.80578261 54.8643391,10.2571739 53.5832957,10.2571739 C52.3072957,10.2571739 51.2153826,9.80578261 50.3075565,8.89795652 C49.4022522,7.99265217 48.9508609,6.90073913 48.9508609,5.62221739 Z M49.2232087,41.430913 L57.9484261,41.430913 L57.9484261,13.1622174 L49.2232087,13.1622174 L49.2232087,41.430913 Z" id="Fill-292" fill="#007DAC"></path>
                    <path d="M108.11313,37.8853478 L107.99713,37.8853478 C107.026261,39.3983913 105.737652,40.4827391 104.128783,41.140913 C102.519913,41.8041304 100.822783,42.1319565 99.039913,42.1319565 C97.7210435,42.1319565 96.450087,41.9453478 95.2295652,41.5771739 C94.0090435,41.209 92.9322609,40.6567391 92.0017391,39.9203913 C91.0712174,39.1840435 90.3348696,38.2711739 89.7901739,37.1868261 C89.248,36.1024783 88.9781739,34.8416087 88.9781739,33.4067391 C88.9781739,31.7776957 89.2782609,30.4008261 89.8809565,29.2761304 C90.4786087,28.1514348 91.2931304,27.220913 92.322,26.4845652 C93.3508696,25.7482174 94.5234783,25.1757826 95.8398261,24.7672609 C97.1586957,24.3612609 98.5254783,24.0611739 99.9426957,23.8644783 C101.357391,23.6728261 102.772087,23.5543043 104.189304,23.5164783 C105.601478,23.4786522 106.910261,23.4559565 108.11313,23.4559565 C108.11313,21.9076087 107.563391,20.677 106.456348,19.7641304 C105.351826,18.8537826 104.040522,18.3973478 102.53,18.3973478 C101.09513,18.3973478 99.7863478,18.6999565 98.6036522,19.3001304 C97.4209565,19.9003043 96.3643478,20.724913 95.4338261,21.7714348 L90.7786957,17.0028261 C92.4077391,15.4897826 94.3091304,14.355 96.4803478,13.5984783 C98.654087,12.8419565 100.900957,12.4662174 103.228522,12.4662174 C105.788087,12.4662174 107.888696,12.7864783 109.537913,13.4244783 C111.184609,14.065 112.503478,15.0081304 113.494522,16.2463043 C114.483043,17.487 115.171478,19.0076087 115.559826,20.8106522 C115.945652,22.6162174 116.142348,24.6991739 116.142348,27.0645652 L116.142348,41.430913 L108.11313,41.430913 L108.11313,37.8853478 Z M105.959565,29.0416087 C105.303913,29.0416087 104.479304,29.0718696 103.488261,29.1298696 C102.499739,29.1903913 101.549043,29.3543043 100.638696,29.6266522 C99.7283478,29.8964783 98.9516522,30.305 98.3136522,30.8446522 C97.6731304,31.3918696 97.3528696,32.1458696 97.3528696,33.1142174 C97.3528696,34.1607391 97.7992174,34.9374348 98.691913,35.4417826 C99.582087,35.9436087 100.512609,36.1983043 101.483478,36.1983043 C102.335826,36.1983043 103.160435,36.0823043 103.954783,35.8477826 C104.751652,35.6157826 105.457739,35.2854348 106.078087,34.8592609 C106.698435,34.433087 107.192696,33.890913 107.563391,33.2302174 C107.929043,32.5720435 108.11313,31.7978696 108.11313,30.9026522 L108.11313,29.0416087 L105.959565,29.0416087 Z" id="Fill-293" fill="#F19400"></path>
                    <path d="M148.859896,27.2983304 C148.859896,25.0489391 149.22807,23.0138957 149.961896,21.1881565 C150.700765,19.3674609 151.709461,17.8065043 152.990504,16.5103304 C154.271548,15.209113 155.779548,14.2130261 157.517026,13.5119826 C159.254504,12.8134609 161.102939,12.4629391 163.067374,12.4629391 C165.031809,12.4629391 166.882765,12.8134609 168.617722,13.5119826 C170.3552,14.2130261 171.8632,15.209113 173.144243,16.5103304 C174.425287,17.8065043 175.436504,19.3674609 176.17033,21.1881565 C176.9092,23.0138957 177.277374,25.0489391 177.277374,27.2983304 C177.277374,29.5477217 176.9092,31.5827652 176.17033,33.4059826 C175.436504,35.2292 174.425287,36.7901565 173.144243,38.0863304 C171.8632,39.3875478 170.3552,40.3861565 168.617722,41.0821565 C166.882765,41.7806783 165.031809,42.1312 163.067374,42.1312 C161.102939,42.1312 159.254504,41.7806783 157.517026,41.0821565 C155.779548,40.3861565 154.271548,39.3875478 152.990504,38.0863304 C151.709461,36.7901565 150.700765,35.2292 149.961896,33.4059826 C149.22807,31.5827652 148.859896,29.5477217 148.859896,27.2983304 M156.750417,27.2983304 C156.750417,29.4317217 157.3052,31.1565913 158.409722,32.4754609 C159.516765,33.7918087 161.067635,34.4525043 163.067374,34.4525043 C165.069635,34.4525043 166.617983,33.7918087 167.725026,32.4754609 C168.829548,31.1565913 169.38433,29.4317217 169.38433,27.2983304 C169.38433,25.1649391 168.829548,23.4400696 167.725026,22.1212 C166.617983,20.8048522 165.069635,20.1416348 163.067374,20.1416348 C161.067635,20.1416348 159.516765,20.8048522 158.409722,22.1212 C157.3052,23.4400696 156.750417,25.1649391 156.750417,27.2983304" id="Fill-294" fill="#C74122"></path>
                    <path d="M137.39027,32.4747043 C136.285748,33.7910522 134.734878,34.4517478 132.735139,34.4517478 C130.7354,34.4517478 129.18453,33.7910522 128.077487,32.4747043 C126.972965,31.1583565 126.418183,29.4309652 126.418183,27.2975739 C126.418183,25.1667043 126.972965,23.439313 128.077487,22.1229652 C129.18453,20.8040957 130.7354,20.1408783 132.735139,20.1408783 C134.734878,20.1408783 136.285748,20.8040957 137.39027,22.1229652 C138.494791,23.439313 139.049574,25.1667043 139.049574,27.2975739 C139.049574,29.4309652 138.494791,31.1583565 137.39027,32.4747043 Z M139.45053,13.2666174 L139.45053,17.0441826 C139.395052,16.9710522 138.777226,16.1439217 138.197226,15.6194 C137.614704,15.0948783 136.918704,14.7065304 136.101661,14.2828783 C135.289661,13.8541826 134.366704,13.521313 133.337835,13.2489652 C132.308965,12.9791391 131.176704,12.8505304 129.936009,12.8505304 C127.921139,12.8505304 126.115574,13.2716609 124.526878,14.1038348 C122.938183,14.9385304 121.520965,15.9800087 120.48453,17.3921826 C119.455661,18.7917478 118.910965,20.2467913 118.421748,22.0649652 C117.93253,23.8780957 117.808965,25.7088783 117.808965,27.5724435 C117.808965,29.703313 118.129226,31.7257478 118.651226,33.5540087 C119.173226,35.3898348 119.793574,36.7692261 120.835052,38.0679217 C121.949661,39.4574 123.518183,40.3652261 125.2254,41.0839217 C126.932617,41.8000957 128.831487,42.1455739 130.927052,42.1455739 C132.2434,42.1455739 133.65053,41.8303565 135.1434,41.2680087 C136.63627,40.7107043 138.114009,39.6868783 138.446878,38.3301826 L138.446878,41.1847913 C138.446878,43.2021826 138.098878,44.8564435 136.84053,46.1576609 C135.579661,47.4538348 133.786704,48.1548783 131.111139,48.1548783 C129.32827,48.1548783 128.231313,48.1876609 126.415661,47.7009652 C124.839574,47.2747913 122.870096,46.523313 121.3974,45.4465304 L117.173487,51.6525304 C119.427922,53.2866174 121.47053,54.2927913 123.916617,54.9408783 C126.340009,55.5814 128.8214,55.7831391 131.343139,55.7831391 C136.848096,55.7831391 140.787052,54.3961826 143.482791,51.6247913 C146.176009,48.8534 147.318357,44.7908783 147.318357,39.4397478 L147.318357,13.2666174 L139.45053,13.2666174 Z" id="Fill-295" fill="#C74122"></path>
                </g>
            </g>
        </g>
    </g>
</svg>