<svg xmlns="http://www.w3.org/2000/svg" width="402" height="77" viewBox="0 0 402 77">
    <g fill="none" fill-rule="evenodd">
        <path fill="#32327F" d="M17.323 62.71c-.673-.54-.862-1.544-.737-2.223.143-.76.716-1.161 1.314-.685.262.212.38.422.511.733l.137-.21.101.081-.287 1.168-.14-.112c.073-.642.006-1.13-.347-1.412-.337-.269-.64.065-.783.834-.138.733-.009 1.364.334 1.638.363.291.63.229.795-.348l.16.13c-.163.667-.624.752-1.058.406M19.746 64.183c-.81-.369-1.052-1.305-.925-1.941.14-.683.734-1.273 1.506-.922.929.427 1.082 1.42.965 1.994-.15.737-.734 1.241-1.546.87m.571-2.63c-.346-.158-.714.037-.899.958-.197.97.116 1.338.408 1.468.424.194.717-.176.854-.862.177-.867-.004-1.401-.363-1.564M24.262 64.574c-.107-.036-.199-.03-.24.171l-.224.995-.166-.038-.12-.391c-.148.213-.438.306-.83.165-.75-.26-1.112-1.048-.946-1.85.162-.764.825-1.32 1.597-1.051.348.124.542.326.663.547l.179-.249.129.038-.287 1.157-.163-.044c.058-.546-.04-1.037-.514-1.204-.235-.08-.766-.022-.983 1.021-.17.802.088 1.293.476 1.432.31.109.447-.02.538-.2l.105-.435c.042-.204-.032-.268-.14-.308l-.252-.085.036-.177 1.337.385-.038.175-.157-.054M27.625 63.827c-.115-.022-.202.004-.219.209l-.341 2.49-.318-.054-1.2-2.372-.27 1.652c-.025.196.056.288.171.308l.265.06-.03.186-1.144-.259.028-.185.227.047c.116.02.18-.012.22-.218l.332-2.012c.03-.199-.048-.257-.18-.28l-.225-.05.03-.175.878.175 1.108 2.193.175-1.552c.018-.205-.067-.26-.18-.279l-.263-.046.03-.18 1.158.197-.025.183-.227-.038M29.25 66.799c-.896-.065-1.271-.905-1.218-1.59.057-.73.605-1.54 1.457-1.473 1.028.075 1.315 1.011 1.269 1.627-.063.788-.61 1.506-1.509 1.436m.26-2.829c-.38-.03-.743.3-.819 1.287-.082 1.04.296 1.29.617 1.315.469.033.728-.443.785-1.18.072-.927-.187-1.393-.584-1.422M32.526 66.82c-.432.018-.644-.136-.799-.347l-.165.32-.129.006.013-1.255.168-.007c.071.59.289 1.082.887 1.06.238-.009.458-.17.46-.424.009-.862-1.563-.248-1.549-1.561a.907.907 0 0 1 .908-.848c.367-.014.573.111.731.29l.133-.325.125-.004-.014 1.186-.177.009c-.044-.616-.264-.956-.75-.934-.36.014-.485.272-.488.46-.005.71 1.591.267 1.582 1.422-.007.485-.348.928-.936.953M35.57 66.52c-.89.132-1.387-.54-1.43-1.245-.051-.79.443-1.697 1.22-1.795.345-.044.551 0 .778.15l.093-.31.131-.022.081 1.268-.184.032c-.091-.624-.374-.972-.837-.893-.435.08-.678.646-.626 1.449.048.757.359 1.188.804 1.108.474-.083.75-.385.773-1.034l.21-.04c0 .774-.348 1.233-1.012 1.332M38.166 63.173c-.097.028-.156.083-.146.242l.059.882.077-.024c.431-.123.486-.156.5-.848l.157-.045.108 1.608-.159.046c-.103-.662-.141-.662-.592-.534l-.076.022.066 1.006c.01.167.081.164.17.142.186-.043.3-.078.565-.16.426-.123.514-.327.537-1.114l.167-.048.116 1.122c-.943.306-1.657.502-2.597.74l-.013-.19.254-.066c.11-.03.192-.096.178-.309l-.135-2.056c-.015-.203-.103-.217-.211-.188l-.255.077-.014-.188a74.122 74.122 0 0 0 2.426-.688l.116 1.092-.167.047c-.12-.754-.348-.806-.7-.703-.172.05-.332.107-.431.135M40.334 65.232l-.023-.182.261-.1c.1-.044.157-.126.132-.327l-.25-1.96c-.027-.197-.113-.197-.214-.151l-.246.097-.024-.18 1.687-.764c.438-.198.82-.035.875.379.036.294-.126.69-.458.891.31.071.413.227.492.825.022.174.109.188.182.15.067-.039.113-.108.098-.227l-.098-.557.185-.08.114.581c.03.215-.08.478-.458.648-.292.132-.577.08-.624-.276-.08-.603-.205-.775-.542-.671l-.251.116.127 1.007c.023.161.084.17.168.13l.332-.135.024.182c-.468.218-.998.427-1.489.604m.99-3.212l-.207.092c-.087.042-.108.084-.095.184l.122.939.286-.127c.44-.203.547-.58.518-.804-.059-.46-.388-.391-.625-.284M45.029 59.497l.272.967-.136.107c-.178-.688-.39-.636-.675-.41-.152.115-.241.19-.367.293-.083.063-.126.137-.103.289l.182.824.092-.07c.31-.24.355-.305.249-.958l.132-.099.341 1.48-.131.101c-.152-.603-.182-.595-.556-.309l-.09.065.186.955c.028.158.086.125.164.079.12-.074.395-.293.516-.389.287-.221.348-.477.24-1.223l.138-.105.273 1.025c-.555.529-1.434 1.146-2.161 1.62l-.03-.177.221-.145c.117-.09.148-.153.113-.37l-.384-1.9c-.032-.193-.12-.216-.209-.148l-.23.154-.044-.165c.556-.38 1.38-1.003 1.997-1.49M2.91 51.793c-.19-.24-.291-.602-.145-.902.249-.513.26-.782.063-1.091l-.164-.208-.439.786c-.066.137-.032.208.024.279l.212.268-.076.152-.968-1.218.074-.155.157.2c.067.081.133.12.217-.051l.877-1.61c.081-.17.046-.266-.022-.348l-.157-.198.074-.153 1.084 1.369c.287.358.378.905.21 1.256-.122.248-.368.263-.619.103.102.401.076.626-.17 1.135-.073.147-.054.229-.006.287.043.057.098.059.147-.043l.235-.486.153.194-.25.516c-.09.181-.264.229-.51-.082m.5-3.014l-.121-.152c-.056-.07-.087-.065-.126.016l-.416.774.2.24c.289.366.511.22.604.032.189-.388.012-.715-.142-.91M3.41 52.309l.087-.16.192.158c.08.069.16.09.256-.086l.936-1.75c.092-.174.046-.259-.038-.327l-.193-.16.085-.156 1.866 1.538-.504.941-.126-.103c.298-.7.194-.957-.073-1.175l-.327-.27c-.072-.06-.137-.067-.208.07l-.416.776.057.049c.328.27.378.288.728-.248l.12.098-.73 1.367-.12-.098c.263-.61.242-.643-.1-.923l-.059-.051-.45.841c-.077.145-.032.206.034.26l.429.354c.262.215.483.175.875-.416l.125.103-.514.961L3.41 52.31M7.822 55.331c-.27-.149-.441-.437-.286-.766.261-.554.262-.802-.022-1.008l-.232-.131-.426.906c-.072.15-.018.2.059.243l.3.164-.08.169-1.372-.754.08-.168.224.124c.093.051.182.064.27-.124l.86-1.824c.085-.185.026-.257-.068-.309l-.223-.122.076-.166 1.56.856c.404.222.583.686.404 1.067-.127.268-.439.374-.778.318.177.324.164.54-.095 1.09-.076.162-.04.228.024.265.067.032.134.015.185-.093l.248-.524.215.118-.263.559c-.093.196-.311.3-.66.11m.307-2.915l-.19-.106c-.083-.043-.12-.027-.16.063l-.408.865.262.144c.41.225.68.01.777-.196.2-.42-.063-.65-.281-.77M11.82 53.941c-.124-.047-.207-.01-.316.142l-1.618 2.098-.263-.1.05-2.687c-.004-.208-.028-.268-.13-.305l-.19-.073.058-.177 1.369.511-.058.177-.201-.075c-.101-.035-.238-.039-.234.173l-.072 1.792 1.063-1.419c.097-.135.062-.238-.077-.29l-.168-.064.058-.175.923.348-.058.174-.136-.05M13.446 57.218l.057-.183.219.045c.163.029.215-.013.26-.185l.508-1.693-1.48 1.91-.268-.068-.061-2.292-.603 1.672c-.063.203.014.256.118.285l.224.055-.057.182-1.097-.28.058-.18.245.062c.102.025.194.014.259-.187l.69-1.96c.06-.197-.014-.255-.117-.282l-.24-.063.053-.176 1.091.279.016 2.099 1.378-1.776 1.058.192-.054.18-.247-.042c-.107-.028-.2-.008-.26.185l-.6 1.978c-.06.202.01.255.117.283l.244.049-.058.182-1.453-.271M48.83 57.278c-.843.182-1.45-.482-1.633-1.17-.199-.77.147-1.644.892-1.804.33-.074.527-.014.782.127l.032-.304.126-.028.324 1.236-.177.037c-.21-.609-.56-.937-1.003-.841-.417.092-.546.652-.344 1.436.192.742.584 1.15 1.01 1.057.455-.099.67-.404.57-1.039l.201-.043c.15.755-.147 1.198-.78 1.336M51.131 56.593l-.056-.18.234-.075c.105-.036.216-.114.092-.288l-.284-.401-.696.224v.496c.001.169.09.226.237.18l.176-.057.055.18-1.007.325-.058-.18.184-.06c.133-.041.179-.116.182-.311l.025-2.662.277-.086 1.531 2.154c.118.166.177.195.286.16l.235-.076.055.182-1.468.475zm-.706-1.933l-.003.99.566-.183-.563-.807zM53.867 52.568c-.128.055-.168.143-.17.339l-.003 2.745-.26.116-1.563-2.059c-.124-.156-.175-.186-.275-.143l-.192.082-.053-.177 1.366-.599.053.178-.203.088c-.101.045-.21.144-.086.304l1.006 1.35-.017-1.786c-.001-.174-.084-.226-.224-.167l-.168.075-.053-.177.92-.405.056.177-.134.06M55.912 54.527c-.359.212-.582.167-.774.036l-.044.382-.107.067-.357-1.198.14-.085c.233.527.558.896 1.053.598.198-.117.335-.37.26-.613-.244-.82-1.383.486-1.757-.768-.077-.262-.04-.888.514-1.218.304-.183.513-.155.7-.06l.014-.37.104-.062.34 1.13-.147.091c-.22-.564-.501-.784-.906-.541a.58.58 0 0 0-.274.66c.204.673 1.416-.475 1.745.624a1.168 1.168 0 0 1-.504 1.327M57.782 53.099l-.059-.174.185-.153c.086-.07.174-.19.056-.332l-.267-.334-.565.46.037.522c.015.177.095.213.214.114l.14-.114.06.171-.816.667-.06-.171.148-.124c.108-.086.14-.181.127-.389l-.19-2.817.225-.184 1.453 1.788c.113.14.164.153.25.081l.193-.156.06.174-1.19.971zm-.744-1.818l.076 1.048.46-.375-.536-.673zM59.782 51.235c-.252.326-.434.343-.602.264l.018.41-.076.1-.45-1.147.1-.13c.256.481.566.772.915.321.137-.182.21-.486.119-.717-.31-.79-1.023.905-1.493-.294-.098-.254-.154-.922.234-1.426.214-.28.382-.312.543-.265l-.04-.393.072-.093.426 1.085-.104.135c-.252-.524-.505-.673-.79-.302a.82.82 0 0 0-.121.766c.255.65 1.047-.906 1.46.149.171.443.134 1.092-.211 1.537"/>
        <path fill="#32327F" d="M61.706 48.287c-.503-.534-1.423-1.739-1.92-3.832-.105-.672-.605-1.301-1.758-1.301-1.384 0-2.589.783-3.253 1.515-.542.598-.822 1.254-.767 1.8a.753.753 0 0 0 .157.393l-.002.002 1.963 2.342c-3.057 2.418-6.82 3.556-10.283 4.061 5.618-5.486 9.347-13.023 9.347-23.797V9.495C49.324 8.012 39.913 6.52 31.175 6.52c-8.74 0-18.15 1.492-24.016 2.975V29.47c0 10.718 3.69 18.226 9.257 23.708-3.439-.47-7.169-1.556-10.221-3.972l1.964-2.342-.004-.002a.72.72 0 0 0 .156-.393c.058-.546-.22-1.202-.766-1.8-.662-.732-1.867-1.515-3.25-1.515-1.152 0-1.652.63-1.757 1.3-.502 2.094-1.418 3.3-1.92 3.833C-.508 49.476.136 50.66.72 51.45c1.661 2.246 5.824 6.187 15.07 7.464-.252.781-.56 1.48-.868 2.148-.345.746-.062 1.42.979 2.32 2.583 2.233 7.945 4.686 15.259 4.686s12.678-2.453 15.256-4.686c1.044-.9 1.327-1.574.98-2.32-.306-.667-.614-1.367-.866-2.148 9.246-1.277 13.539-5.056 15.17-7.531.539-.82 1.128-1.907.005-3.096M31.161 62.515c-3.9 0-6.973-1-8.952-1.859a10.32 10.32 0 0 0 .934-2.249c2.533 1.573 5.243 2.915 8.032 4.094 2.793-1.182 5.508-2.527 8.05-4.108.248.783.576 1.53.982 2.248a22.928 22.928 0 0 1-9.046 1.874"/>
        <path fill="#FEFEFE" d="M17.702 55.615c-.62 0-.807.2-.807.555 0 1.535 2.992 3.493 4.813 4.288a11.31 11.31 0 0 0 1.008-2.323 41.804 41.804 0 0 1-3.143-2.203c-.686-.176-1.348-.317-1.871-.317M5.052 45.925l-.828 1.323c.34.453 1 1.143 1.629 1.676l1.454-1.733c-.73-.007-1.667-.46-2.255-1.266"/>
        <path fill="#FEFEFE" d="M5.058 45.083c.586 1.014 1.534 1.743 2.422 1.563.304-.064.324-.25.33-.31.043-.421-.134-.866-.593-1.373-.755-.831-1.815-1.34-2.836-1.34-1.031 0-1.337.581-1.337 1.143 0 .367.203 1.135.894 2.101l1.12-1.784"/>
        <path fill="#FEFEFE" d="M2.687 45.53c-.539 1.604-1.146 2.568-1.594 3.046-.702.74-.737 1.528.062 2.608 1.625 2.196 5.647 5.98 14.78 7.225.2-.705.338-1.393.409-2.263.007-.686.522-.98 1.24-.98.339 0 .764.066 1.23.16a35.687 35.687 0 0 1-1.767-1.541C8.34 52.658 3.906 48.578 2.687 45.53M40.72 60.406c1.82-.797 4.678-2.694 4.678-4.227 0-.357-.187-.556-.808-.556-.509 0-1.142.132-1.8.297a41.15 41.15 0 0 1-3.148 2.209c.283.795.654 1.542 1.077 2.277M55.014 47.192l1.454 1.732c.631-.535 1.288-1.223 1.63-1.675-.137-.222-.6-.959-.828-1.324-.587.806-1.527 1.26-2.256 1.267"/>
        <path fill="#FEFEFE" d="M54.45 46.426c.006.061.025.245.33.308.885.18 1.897-.637 2.485-1.65 0 0 .851 1.361 1.118 1.783.692-.966.888-1.792.888-2.159 0-.562-.267-1.07-1.296-1.07-1.021 0-2.116.495-2.871 1.325-.46.507-.7 1.04-.655 1.463"/>
        <path fill="#FEFEFE" d="M61.292 48.684c-.449-.477-1.117-1.55-1.656-3.154-1.219 3.045-5.642 7.12-14.33 8.25a35.328 35.328 0 0 1-1.76 1.537c.448-.088.86-.15 1.192-.15.716 0 1.233.293 1.241.978.069.87.221 1.641.422 2.343 9.135-1.245 13.292-5.059 14.75-7.207.755-1.11.842-1.855.14-2.597"/>
        <path fill="#FEFEFE" d="M45.66 57.199c-1.462 2.47-7.603 5.832-14.5 5.832s-13.036-3.361-14.498-5.832c-.262 1.615-.697 2.948-1.234 4.113-.167.362-.254.831.868 1.802 2.52 2.18 7.673 4.446 14.864 4.446 7.193 0 12.346-2.25 14.866-4.43 1.123-.969 1.038-1.44.868-1.804-.538-1.163-.972-2.512-1.234-4.127"/>
        <path fill="#00ADEE" d="M31.175 60.946c-12.43-5.162-23.022-13.968-23.022-31.9V10.368c4.737-1.235 15.037-2.97 23.022-2.97 7.986 0 18.285 1.735 23.02 2.97v18.68c0 17.931-10.591 26.737-23.02 31.9"/>
        <path fill="#32327F" d="M17.323 62.71c-.673-.54-.862-1.544-.737-2.223.143-.76.716-1.161 1.314-.685.262.212.38.422.511.733l.137-.21.101.081-.287 1.168-.14-.112c.073-.642.006-1.13-.347-1.412-.337-.269-.64.065-.783.834-.138.733-.009 1.364.334 1.638.363.291.63.229.795-.348l.16.13c-.163.667-.624.752-1.058.406M19.746 64.183c-.81-.369-1.052-1.305-.925-1.941.14-.683.734-1.273 1.506-.922.929.427 1.082 1.42.965 1.994-.15.737-.734 1.241-1.546.87m.571-2.63c-.346-.158-.714.037-.899.958-.197.97.116 1.338.408 1.468.424.194.717-.176.854-.862.177-.867-.004-1.401-.363-1.564M24.262 64.574c-.107-.036-.199-.03-.24.171l-.224.995-.166-.038-.12-.391c-.148.213-.438.306-.83.165-.75-.26-1.112-1.048-.946-1.85.162-.764.825-1.32 1.597-1.051.348.124.542.326.663.547l.179-.249.129.038-.287 1.157-.163-.044c.058-.546-.04-1.037-.514-1.204-.235-.08-.766-.022-.983 1.021-.17.802.088 1.293.476 1.432.31.109.447-.02.538-.2l.105-.435c.042-.204-.032-.268-.14-.308l-.252-.085.036-.177 1.337.385-.038.175-.157-.054M27.625 63.827c-.115-.022-.202.004-.219.209l-.341 2.49-.318-.054-1.2-2.372-.27 1.652c-.025.196.056.288.171.308l.265.06-.03.186-1.144-.259.028-.185.227.047c.116.02.18-.012.22-.218l.332-2.012c.03-.199-.048-.257-.18-.28l-.225-.05.03-.175.878.175 1.108 2.193.175-1.552c.018-.205-.067-.26-.18-.279l-.263-.046.03-.18 1.158.197-.025.183-.227-.038M29.25 66.799c-.896-.065-1.271-.905-1.218-1.59.057-.73.605-1.54 1.457-1.473 1.028.075 1.315 1.011 1.269 1.627-.063.788-.61 1.506-1.509 1.436m.26-2.829c-.38-.03-.743.3-.819 1.287-.082 1.04.296 1.29.617 1.315.469.033.728-.443.785-1.18.072-.927-.187-1.393-.584-1.422M32.526 66.82c-.432.018-.644-.136-.799-.347l-.165.32-.129.006.013-1.255.168-.007c.071.59.289 1.082.887 1.06.238-.009.458-.17.46-.424.009-.862-1.563-.248-1.549-1.561a.907.907 0 0 1 .908-.848c.367-.014.573.111.731.29l.133-.325.125-.004-.014 1.186-.177.009c-.044-.616-.264-.956-.75-.934-.36.014-.485.272-.488.46-.005.71 1.591.267 1.582 1.422-.007.485-.348.928-.936.953M35.57 66.52c-.89.132-1.387-.54-1.43-1.245-.051-.79.443-1.697 1.22-1.795.345-.044.551 0 .778.15l.093-.31.131-.022.081 1.268-.184.032c-.091-.624-.374-.972-.837-.893-.435.08-.678.646-.626 1.449.048.757.359 1.188.804 1.108.474-.083.75-.385.773-1.034l.21-.04c0 .774-.348 1.233-1.012 1.332M38.166 63.173c-.097.028-.156.083-.146.242l.059.882.077-.024c.431-.123.486-.156.5-.848l.157-.045.108 1.608-.159.046c-.103-.662-.141-.662-.592-.534l-.076.022.066 1.006c.01.167.081.164.17.142.186-.043.3-.078.565-.16.426-.123.514-.327.537-1.114l.167-.048.116 1.122c-.943.306-1.657.502-2.597.74l-.013-.19.254-.066c.11-.03.192-.096.178-.309l-.135-2.056c-.015-.203-.103-.217-.211-.188l-.255.077-.014-.188a74.122 74.122 0 0 0 2.426-.688l.116 1.092-.167.047c-.12-.754-.348-.806-.7-.703-.172.05-.332.107-.431.135M40.334 65.232l-.023-.182.261-.1c.1-.044.157-.126.132-.327l-.25-1.96c-.027-.197-.113-.197-.214-.151l-.246.097-.024-.18 1.687-.764c.438-.198.82-.035.875.379.036.294-.126.69-.458.891.31.071.413.227.492.825.022.174.109.188.182.15.067-.039.113-.108.098-.227l-.098-.557.185-.08.114.581c.03.215-.08.478-.458.648-.292.132-.577.08-.624-.276-.08-.603-.205-.775-.542-.671l-.251.116.127 1.007c.023.161.084.17.168.13l.332-.135.024.182c-.468.218-.998.427-1.489.604m.99-3.212l-.207.092c-.087.042-.108.084-.095.184l.122.939.286-.127c.44-.203.547-.58.518-.804-.059-.46-.388-.391-.625-.284M45.029 59.497l.272.967-.136.107c-.178-.688-.39-.636-.675-.41-.152.115-.241.19-.367.293-.083.063-.126.137-.103.289l.182.824.092-.07c.31-.24.355-.305.249-.958l.132-.099.341 1.48-.131.101c-.152-.603-.182-.595-.556-.309l-.09.065.186.955c.028.158.086.125.164.079.12-.074.395-.293.516-.389.287-.221.348-.477.24-1.223l.138-.105.273 1.025c-.555.529-1.434 1.146-2.161 1.62l-.03-.177.221-.145c.117-.09.148-.153.113-.37l-.384-1.9c-.032-.193-.12-.216-.209-.148l-.23.154-.044-.165c.556-.38 1.38-1.003 1.997-1.49M2.91 51.793c-.19-.24-.291-.602-.145-.902.249-.513.26-.782.063-1.091l-.164-.208-.439.786c-.066.137-.032.208.024.279l.212.268-.076.152-.968-1.218.074-.155.157.2c.067.081.133.12.217-.051l.877-1.61c.081-.17.046-.266-.022-.348l-.157-.198.074-.153 1.084 1.369c.287.358.378.905.21 1.256-.122.248-.368.263-.619.103.102.401.076.626-.17 1.135-.073.147-.054.229-.006.287.043.057.098.059.147-.043l.235-.486.153.194-.25.516c-.09.181-.264.229-.51-.082m.5-3.014l-.121-.152c-.056-.07-.087-.065-.126.016l-.416.774.2.24c.289.366.511.22.604.032.189-.388.012-.715-.142-.91M3.41 52.309l.087-.16.192.158c.08.069.16.09.256-.086l.936-1.75c.092-.174.046-.259-.038-.327l-.193-.16.085-.156 1.866 1.538-.504.941-.126-.103c.298-.7.194-.957-.073-1.175l-.327-.27c-.072-.06-.137-.067-.208.07l-.416.776.057.049c.328.27.378.288.728-.248l.12.098-.73 1.367-.12-.098c.263-.61.242-.643-.1-.923l-.059-.051-.45.841c-.077.145-.032.206.034.26l.429.354c.262.215.483.175.875-.416l.125.103-.514.961L3.41 52.31M7.822 55.331c-.27-.149-.441-.437-.286-.766.261-.554.262-.802-.022-1.008l-.232-.131-.426.906c-.072.15-.018.2.059.243l.3.164-.08.169-1.372-.754.08-.168.224.124c.093.051.182.064.27-.124l.86-1.824c.085-.185.026-.257-.068-.309l-.223-.122.076-.166 1.56.856c.404.222.583.686.404 1.067-.127.268-.439.374-.778.318.177.324.164.54-.095 1.09-.076.162-.04.228.024.265.067.032.134.015.185-.093l.248-.524.215.118-.263.559c-.093.196-.311.3-.66.11m.307-2.915l-.19-.106c-.083-.043-.12-.027-.16.063l-.408.865.262.144c.41.225.68.01.777-.196.2-.42-.063-.65-.281-.77M11.82 53.941c-.124-.047-.207-.01-.316.142l-1.618 2.098-.263-.1.05-2.687c-.004-.208-.028-.268-.13-.305l-.19-.073.058-.177 1.369.511-.058.177-.201-.075c-.101-.035-.238-.039-.234.173l-.072 1.792 1.063-1.419c.097-.135.062-.238-.077-.29l-.168-.064.058-.175.923.348-.058.174-.136-.05M13.446 57.218l.057-.183.219.045c.163.029.215-.013.26-.185l.508-1.693-1.48 1.91-.268-.068-.061-2.292-.603 1.672c-.063.203.014.256.118.285l.224.055-.057.182-1.097-.28.058-.18.245.062c.102.025.194.014.259-.187l.69-1.96c.06-.197-.014-.255-.117-.282l-.24-.063.053-.176 1.091.279.016 2.099 1.378-1.776 1.058.192-.054.18-.247-.042c-.107-.028-.2-.008-.26.185l-.6 1.978c-.06.202.01.255.117.283l.244.049-.058.182-1.453-.271M48.83 57.278c-.843.182-1.45-.482-1.633-1.17-.199-.77.147-1.644.892-1.804.33-.074.527-.014.782.127l.032-.304.126-.028.324 1.236-.177.037c-.21-.609-.56-.937-1.003-.841-.417.092-.546.652-.344 1.436.192.742.584 1.15 1.01 1.057.455-.099.67-.404.57-1.039l.201-.043c.15.755-.147 1.198-.78 1.336M51.131 56.593l-.056-.18.234-.075c.105-.036.216-.114.092-.288l-.284-.401-.696.224v.496c.001.169.09.226.237.18l.176-.057.055.18-1.007.325-.058-.18.184-.06c.133-.041.179-.116.182-.311l.025-2.662.277-.086 1.531 2.154c.118.166.177.195.286.16l.235-.076.055.182-1.468.475zm-.706-1.933l-.003.99.566-.183-.563-.807zM53.867 52.568c-.128.055-.168.143-.17.339l-.003 2.745-.26.116-1.563-2.059c-.124-.156-.175-.186-.275-.143l-.192.082-.053-.177 1.366-.599.053.178-.203.088c-.101.045-.21.144-.086.304l1.006 1.35-.017-1.786c-.001-.174-.084-.226-.224-.167l-.168.075-.053-.177.92-.405.056.177-.134.06M55.912 54.527c-.359.212-.582.167-.774.036l-.044.382-.107.067-.357-1.198.14-.085c.233.527.558.896 1.053.598.198-.117.335-.37.26-.613-.244-.82-1.383.486-1.757-.768-.077-.262-.04-.888.514-1.218.304-.183.513-.155.7-.06l.014-.37.104-.062.34 1.13-.147.091c-.22-.564-.501-.784-.906-.541a.58.58 0 0 0-.274.66c.204.673 1.416-.475 1.745.624a1.168 1.168 0 0 1-.504 1.327M57.782 53.099l-.059-.174.185-.153c.086-.07.174-.19.056-.332l-.267-.334-.565.46.037.522c.015.177.095.213.214.114l.14-.114.06.171-.816.667-.06-.171.148-.124c.108-.086.14-.181.127-.389l-.19-2.817.225-.184 1.453 1.788c.113.14.164.153.25.081l.193-.156.06.174-1.19.971zm-.744-1.818l.076 1.048.46-.375-.536-.673zM59.782 51.235c-.252.326-.434.343-.602.264l.018.41-.076.1-.45-1.147.1-.13c.256.481.566.772.915.321.137-.182.21-.486.119-.717-.31-.79-1.023.905-1.493-.294-.098-.254-.154-.922.234-1.426.214-.28.382-.312.543-.265l-.04-.393.072-.093.426 1.085-.104.135c-.252-.524-.505-.673-.79-.302a.82.82 0 0 0-.121.766c.255.65 1.047-.906 1.46.149.171.443.134 1.092-.211 1.537M14.68 18.209l.343-.474 31.62 19.913c.348.217.747.479 1.15.755l.158-.22c.15-.15.273-.28.357-.357.155.057.718.329 1.036.526.733.463 1.401 1.453 1.28 2.119-.616.352-1.848.146-2.582-.313a7.92 7.92 0 0 1-.912-.704c.043-.096.231-.425.333-.602l-28.22-17.768c-.832.018-1.687.12-2.543-.408a92.005 92.005 0 0 1-2.103-1.357c.145-.08.583-.337.93-.575l-.847-.535"/>
        <path fill="#FEFEFE" d="M14.81 18.044l.894.562c-.35.238-.778.504-.923.585.652.44 1.716 1.117 2.044 1.32.859.53 1.717.427 2.55.409l27.023 17.015c.912.574 2.258 1.343 3.149 1.78l-.027.035c-.765-.112-1.476-.496-2.067-.868a4.29 4.29 0 0 0-.237.435c.116.114.595.504.909.7.737.461 1.927.641 2.54.287.121-.663-.502-1.628-1.236-2.09a8.258 8.258 0 0 0-1.037-.524c-.08.074-.34.362-.46.52l-28.22-17.77c-.293-.725-.514-1.502-1.359-2.044a83.934 83.934 0 0 0-2.077-1.273 14.29 14.29 0 0 1-.231 1.008l-.893-.56-.341.473"/>
        <path fill="#32327F" d="M16.544 18.558a7.93 7.93 0 0 0 .052-.876c0-.08.104-.011.112.032.05.196.05.66.086.998l-.25-.154M17.351 19.064a9.56 9.56 0 0 0-.082-.982c-.016-.098.109-.01.129.034.12.283.185.92.206 1.107l-.253-.159M18.986 20.094c-.049-.291-.125-.661-.18-.808-.075-.192.06-.086.097-.015.146.262.268.687.32.974l-.237-.15M18.182 19.587c-.009-.298-.105-.78-.156-1.029-.02-.097.117-.004.138.04.124.278.257.969.28 1.154l-.262-.165M16.307 18.886c-.27.144-.737.329-.852.37-.074.03.03.095.073.09.216-.035.678-.206 1.026-.302l-.247-.158M17.113 19.395c-.297.106-.73.23-1.007.295-.102.024.03.1.08.1.33-.004.99-.186 1.18-.238l-.253-.157M18.748 20.423c-.307.066-.705.14-.871.145-.219.008-.062.086.025.092.312.027.779-.024 1.083-.09l-.237-.147M17.944 19.917c-.3.105-.817.201-1.08.252-.105.018.036.101.088.103.324.004 1.06-.141 1.252-.191l-.26-.164M12.867 20.994l.345-.474L44.83 40.43c.347.217.746.482 1.148.755l.16-.216c.149-.153.272-.28.357-.36.156.058.72.33 1.035.528.736.46 1.402 1.452 1.282 2.113-.618.354-1.849.15-2.581-.312a7.733 7.733 0 0 1-.914-.699c.044-.097.23-.426.334-.602l-28.22-17.772c-.834.02-1.69.124-2.545-.406a91.01 91.01 0 0 1-2.101-1.356c.143-.081.581-.339.93-.577l-.85-.532"/>
        <path fill="#FEFEFE" d="M12.996 20.828l.897.564a18.01 18.01 0 0 1-.923.582 72.7 72.7 0 0 0 2.043 1.32c.857.531 1.716.428 2.55.409l27.022 17.015c.913.577 2.26 1.344 3.147 1.78l-.024.035c-.766-.112-1.475-.495-2.067-.868-.11.18-.192.334-.237.435.116.114.594.502.91.699.736.464 1.925.642 2.537.287.124-.662-.503-1.626-1.234-2.088a8.3 8.3 0 0 0-1.036-.525 5.925 5.925 0 0 0-.462.52L17.9 23.226c-.294-.726-.513-1.503-1.359-2.046a90.723 90.723 0 0 0-2.077-1.275c-.025.156-.127.622-.232 1.013l-.893-.563-.343.474"/>
        <path fill="#32327F" d="M14.732 21.34c.043-.289.052-.76.052-.877 0-.075.102-.01.113.032.048.198.05.662.084 1l-.249-.156M15.538 21.847a9.212 9.212 0 0 0-.082-.982c-.014-.097.108-.012.127.033.122.284.188.924.209 1.107l-.254-.158M17.174 22.876c-.05-.29-.125-.661-.181-.806-.074-.192.062-.086.098-.014.144.26.268.682.32.972l-.237-.152M16.37 22.37c-.009-.298-.106-.782-.156-1.029-.02-.096.118-.005.137.04.123.278.258.971.278 1.152l-.26-.163M14.495 21.67c-.27.143-.737.329-.85.37-.076.03.027.095.072.087.215-.034.677-.202 1.024-.301l-.246-.156M15.3 22.177c-.297.105-.732.233-1.007.297-.102.025.03.099.082.099.327-.002.987-.187 1.179-.236l-.254-.16M16.936 23.207c-.308.064-.706.14-.87.146-.22.007-.062.085.023.09.314.027.779-.024 1.083-.087l-.236-.149M16.129 22.7c-.297.103-.813.2-1.078.249-.103.02.037.104.09.104.324.005 1.06-.139 1.25-.189l-.262-.164M11.052 23.8l.344-.475 31.62 19.91c.347.22.745.483 1.148.756l.157-.216c.151-.155.276-.281.357-.36.159.056.723.328 1.038.527.736.465 1.4 1.453 1.28 2.116-.614.354-1.848.147-2.582-.312a7.993 7.993 0 0 1-.91-.702c.041-.095.227-.425.332-.602l-28.22-17.769c-.831.019-1.689.12-2.546-.41a81.11 81.11 0 0 1-2.1-1.356c.143-.08.58-.337.93-.574l-.848-.533"/>
        <path fill="#FEFEFE" d="M11.18 23.635l.894.562c-.347.237-.777.503-.92.585a80.13 80.13 0 0 0 2.043 1.319c.858.53 1.718.426 2.551.408L42.77 43.525c.912.574 2.26 1.342 3.149 1.778l-.028.037c-.765-.112-1.478-.496-2.066-.867a3.382 3.382 0 0 0-.237.433c.114.115.596.503.91.7.736.463 1.924.641 2.539.286.12-.663-.502-1.626-1.236-2.088a7.805 7.805 0 0 0-1.038-.524c-.08.071-.338.365-.46.521l-28.22-17.768c-.292-.728-.513-1.505-1.357-2.047a82.638 82.638 0 0 0-2.078-1.275c-.026.156-.127.62-.232 1.012l-.892-.561-.344.473"/>
        <path fill="#32327F" d="M12.916 24.147c.044-.288.053-.76.053-.876 0-.077.101-.013.111.03.048.201.05.662.084 1l-.248-.154M13.722 24.654a8.887 8.887 0 0 0-.082-.983c-.014-.098.11-.011.129.033.122.286.187.925.206 1.11l-.253-.16M15.359 25.683c-.05-.29-.127-.662-.183-.807-.074-.192.06-.088.1-.014.144.263.269.684.318.971l-.235-.15M14.553 25.177c-.007-.297-.105-.782-.154-1.03-.02-.096.116-.004.137.04.122.28.256.97.279 1.154l-.262-.164M12.679 24.477a9.74 9.74 0 0 1-.85.372c-.076.027.028.093.072.087.215-.036.676-.207 1.024-.305l-.246-.154M13.484 24.984c-.297.104-.73.233-1.004.295-.104.027.026.1.078.1.33-.002.99-.186 1.18-.236l-.254-.159M15.12 26.013c-.308.066-.703.14-.87.145-.22.008-.062.085.022.093.315.025.781-.026 1.084-.089l-.237-.149M14.313 25.506c-.297.105-.813.202-1.077.252-.103.019.037.102.09.102.322.006 1.059-.14 1.25-.19l-.263-.164M9.199 26.58l.343-.475 31.62 19.912c.348.219.746.479 1.15.758l.156-.22c.152-.154.275-.282.36-.358.156.057.719.327 1.034.525.735.462 1.402 1.452 1.28 2.117-.613.355-1.847.149-2.581-.315a7.746 7.746 0 0 1-.91-.7c.041-.098.229-.424.333-.6l-28.22-17.771c-.832.018-1.69.12-2.545-.408a82.138 82.138 0 0 1-2.103-1.357c.145-.08.582-.338.932-.574l-.85-.534"/>
        <path fill="#FEFEFE" d="M9.328 26.416l.894.562a18.62 18.62 0 0 1-.92.583 72.7 72.7 0 0 0 2.043 1.32c.857.53 1.716.426 2.55.408l27.022 17.014c.912.577 2.26 1.344 3.149 1.783l-.029.035c-.763-.115-1.474-.498-2.066-.87-.107.18-.191.333-.236.436.115.115.596.502.91.7.736.462 1.926.642 2.54.287.12-.662-.505-1.627-1.237-2.088a8.06 8.06 0 0 0-1.037-.527c-.08.073-.34.365-.46.523l-28.22-17.77c-.293-.728-.513-1.505-1.358-2.045a83.782 83.782 0 0 0-2.075-1.275c-.03.156-.13.62-.234 1.01l-.891-.561-.345.475"/>
        <path fill="#32327F" d="M11.064 26.928c.042-.29.05-.761.05-.877 0-.077.106-.011.115.03.048.2.05.662.083 1l-.248-.153M11.871 27.433a9.616 9.616 0 0 0-.084-.982c-.014-.097.11-.011.127.035.122.283.188.922.21 1.107l-.253-.16M13.506 28.464c-.051-.29-.127-.664-.182-.808-.074-.192.06-.086.097-.015.147.263.27.685.32.972l-.235-.149M12.7 27.955c-.01-.296-.105-.779-.154-1.025-.021-.1.115-.006.136.037.124.279.259.97.28 1.155l-.262-.167M10.826 27.256c-.27.144-.735.328-.85.373-.076.028.03.093.073.086.214-.033.675-.204 1.025-.302l-.248-.157M11.633 27.764c-.3.104-.734.232-1.007.296-.104.024.03.1.08.1.329-.004.989-.186 1.18-.236l-.253-.16M13.267 28.792c-.307.067-.705.14-.868.146-.222.007-.065.087.022.092.312.027.779-.024 1.083-.089l-.237-.149M12.462 28.287c-.298.105-.814.2-1.08.251-.102.018.038.103.09.103.323.004 1.061-.14 1.252-.19l-.262-.164M47.67 18.209l-.342-.474-31.622 19.913c-.348.217-.745.479-1.149.755l-.158-.22c-.149-.15-.273-.28-.356-.357a8.249 8.249 0 0 0-1.04.526c-.733.463-1.399 1.453-1.277 2.119.614.352 1.848.146 2.582-.313.314-.201.794-.59.91-.704a10.561 10.561 0 0 0-.333-.602l28.22-17.768c.833.018 1.689.12 2.545-.408a88.991 88.991 0 0 0 2.102-1.357c-.144-.08-.581-.337-.931-.575l.849-.535"/>
        <path fill="#FEFEFE" d="M47.197 17.572l-.892.56a15.607 15.607 0 0 1-.234-1.009c-.68.396-1.75 1.067-2.076 1.273-.845.542-1.063 1.32-1.356 2.045L14.418 38.21a6.178 6.178 0 0 0-.46-.52 8.164 8.164 0 0 0-1.039.523c-.734.464-1.356 1.427-1.234 2.09.612.354 1.804.175 2.537-.286a7.47 7.47 0 0 0 .91-.701 3.961 3.961 0 0 0-.235-.435c-.59.372-1.301.757-2.067.868l-.027-.036c.89-.436 2.234-1.205 3.147-1.779L42.973 20.92c.834.018 1.692.121 2.552-.41a84.699 84.699 0 0 0 2.043-1.317 17.651 17.651 0 0 1-.921-.586l.893-.563-.343-.472"/>
        <path fill="#32327F" d="M45.804 18.558a7.86 7.86 0 0 1-.05-.876c0-.08-.104-.011-.114.032-.048.196-.05.66-.084.998l.248-.154M44.997 19.064a9.56 9.56 0 0 1 .083-.982c.014-.098-.11-.01-.126.034-.123.283-.19.92-.209 1.107l.252-.159M43.363 20.094c.05-.291.125-.661.18-.808.077-.192-.06-.086-.098-.015-.145.262-.27.687-.318.974l.236-.15M44.167 19.587c.009-.298.107-.78.154-1.029.021-.097-.116-.004-.136.04-.123.278-.256.969-.28 1.154l.262-.165M46.041 18.886c.27.144.737.329.85.37.077.03-.028.095-.072.09-.215-.035-.674-.206-1.026-.302l.248-.158M45.236 19.395c.299.106.733.23 1.006.295.102.024-.03.1-.08.1-.33-.004-.987-.186-1.18-.238l.254-.157M43.602 20.423c.306.066.703.14.869.145.22.008.064.086-.021.092-.314.027-.782-.024-1.084-.09l.236-.147M44.406 19.917c.297.105.816.201 1.078.252.105.018-.036.101-.09.103-.321.004-1.058-.141-1.249-.191l.26-.164M49.481 20.994l-.343-.474-31.62 19.91c-.348.217-.746.482-1.148.755l-.16-.216a13.57 13.57 0 0 0-.355-.36 8.104 8.104 0 0 0-1.04.528c-.732.46-1.397 1.452-1.277 2.113.614.354 1.848.15 2.581-.312.317-.199.796-.585.912-.699a10.48 10.48 0 0 0-.333-.602l28.218-17.772c.831.02 1.69.124 2.545-.406a91.01 91.01 0 0 0 2.102-1.356 15.38 15.38 0 0 1-.93-.577l.848-.532"/>
        <path fill="#FEFEFE" d="M49.01 20.355l-.891.562a14.873 14.873 0 0 1-.234-1.012 88.294 88.294 0 0 0-2.079 1.274c-.843.543-1.063 1.32-1.354 2.046L16.227 40.993a5.896 5.896 0 0 0-.458-.52 8.02 8.02 0 0 0-1.037.525c-.734.463-1.356 1.426-1.236 2.088.614.355 1.804.177 2.538-.287.315-.196.797-.585.91-.7a4.023 4.023 0 0 0-.236-.434c-.588.372-1.3.757-2.067.868l-.024-.036c.888-.435 2.232-1.202 3.148-1.779l27.019-17.015c.837.02 1.692.123 2.553-.408.326-.202 1.394-.88 2.042-1.32a17.03 17.03 0 0 1-.92-.583l.894-.564-.344-.473"/>
        <path fill="#32327F" d="M47.617 21.34a7.563 7.563 0 0 1-.052-.877c0-.075-.104-.01-.113.032-.047.198-.048.662-.083 1l.248-.156M46.81 21.847c.007-.296.043-.721.083-.982.014-.097-.11-.012-.128.033-.123.284-.186.924-.209 1.107l.254-.158M45.175 22.876c.05-.29.125-.661.18-.806.075-.192-.06-.086-.098-.014-.145.26-.268.682-.318.972l.236-.152M45.981 22.37c.006-.298.104-.782.154-1.029.021-.096-.116-.005-.137.04-.122.278-.257.971-.279 1.152l.262-.163M47.854 21.67c.27.143.738.329.85.37.076.03-.029.095-.072.087-.215-.034-.677-.202-1.026-.301l.248-.156M47.05 22.177a11.2 11.2 0 0 0 1.006.297c.103.025-.03.099-.08.099-.33-.002-.988-.187-1.18-.236l.253-.16M45.413 23.207c.306.064.704.14.87.146.218.007.064.085-.023.09-.314.027-.782-.024-1.083-.087l.236-.149M46.219 22.7c.297.103.817.2 1.08.249.102.02-.04.104-.09.104-.325.005-1.06-.139-1.25-.189l.26-.164M51.299 23.8l-.344-.475-31.622 19.91c-.347.22-.746.483-1.148.756l-.159-.216a9.007 9.007 0 0 0-.357-.36 8.06 8.06 0 0 0-1.036.527c-.736.465-1.401 1.453-1.28 2.116.616.354 1.85.147 2.582-.312.314-.2.797-.588.91-.702a9.422 9.422 0 0 0-.334-.602l28.223-17.769c.832.019 1.686.12 2.543-.41.33-.201 1.453-.916 2.104-1.356-.144-.08-.584-.337-.931-.574l.849-.533"/>
        <path fill="#FEFEFE" d="M50.826 23.161l-.892.562c-.104-.39-.209-.856-.234-1.012a72.627 72.627 0 0 0-2.076 1.276c-.846.54-1.065 1.32-1.357 2.045L18.044 43.801a7.025 7.025 0 0 0-.457-.521 7.44 7.44 0 0 0-1.039.525c-.735.46-1.357 1.423-1.235 2.088.613.355 1.804.178 2.538-.286.316-.199.794-.586.91-.702a3.915 3.915 0 0 0-.237-.433c-.59.372-1.3.755-2.066.868l-.028-.038c.891-.436 2.236-1.202 3.15-1.776L46.6 26.508c.835.02 1.693.123 2.551-.408a79.45 79.45 0 0 0 2.044-1.317 20.107 20.107 0 0 1-.923-.585l.895-.563-.342-.474"/>
        <path fill="#32327F" d="M49.431 24.147a7.515 7.515 0 0 1-.05-.876c0-.077-.104-.013-.113.03-.047.201-.05.662-.083 1l.246-.154M48.626 24.654a9.61 9.61 0 0 1 .084-.983c.012-.098-.112-.011-.13.033-.12.286-.185.925-.208 1.11l.254-.16M46.991 25.683c.05-.29.123-.662.18-.807.074-.192-.06-.088-.1-.014-.14.263-.268.684-.315.971l.235-.15M47.797 25.177c.007-.297.103-.782.154-1.03.02-.096-.116-.004-.137.04-.124.28-.257.97-.28 1.154l.263-.164M49.669 24.477c.271.142.74.328.853.372.075.027-.028.093-.076.087-.213-.036-.675-.207-1.022-.305l.245-.154M48.865 24.984c.297.104.731.233 1.006.295.103.027-.03.1-.081.1-.328-.002-.988-.186-1.18-.236l.255-.159M47.23 26.013c.308.066.703.14.871.145.217.008.06.085-.025.093-.314.025-.782-.026-1.083-.089l.237-.149M48.035 25.506c.296.105.814.202 1.079.252.102.019-.04.102-.09.102-.325.006-1.061-.14-1.249-.19l.26-.164M53.15 26.58l-.343-.475-31.62 19.912c-.348.219-.746.479-1.149.758l-.158-.22c-.15-.154-.273-.282-.359-.358-.155.057-.72.327-1.035.525-.734.462-1.402 1.452-1.279 2.117.614.355 1.846.149 2.58-.315.317-.196.796-.586.91-.7a9.56 9.56 0 0 0-.331-.6l28.218-17.771c.832.018 1.69.12 2.547-.408.329-.203 1.452-.917 2.1-1.357-.14-.08-.582-.338-.93-.574l.85-.534"/>
        <path fill="#FEFEFE" d="M52.68 25.94l-.894.562a16.377 16.377 0 0 1-.234-1.01c-.68.397-1.751 1.067-2.075 1.274-.846.54-1.064 1.32-1.358 2.045l-28.222 17.77a6.458 6.458 0 0 0-.46-.522 7.745 7.745 0 0 0-1.034.528c-.737.46-1.359 1.425-1.238 2.088.613.352 1.804.175 2.54-.287.313-.2.793-.588.908-.7a3.713 3.713 0 0 0-.235-.437c-.591.372-1.301.755-2.069.87l-.025-.036a40.552 40.552 0 0 0 3.149-1.781L48.456 29.29c.832.017 1.69.121 2.548-.41.328-.201 1.394-.88 2.045-1.32-.146-.08-.573-.345-.923-.582l.897-.564-.344-.474"/>
        <path fill="#32327F" d="M51.285 26.928a7.88 7.88 0 0 1-.05-.877c0-.077-.104-.011-.115.03-.047.2-.048.662-.084 1l.249-.153M50.478 27.433c.006-.297.045-.72.083-.982.014-.097-.11-.011-.127.035-.12.283-.19.922-.21 1.107l.254-.16M48.845 28.464c.048-.29.122-.664.18-.808.074-.192-.06-.086-.1-.015-.144.263-.267.685-.318.972l.238-.149M49.65 27.955c.005-.296.103-.779.154-1.025.02-.1-.12-.006-.138.037-.122.279-.257.97-.278 1.155l.262-.167M51.522 27.256c.27.144.738.328.85.373.077.028-.026.093-.071.086-.214-.033-.677-.204-1.027-.302l.248-.157M50.717 27.764c.296.104.731.232 1.007.296.102.024-.03.1-.081.1-.33-.004-.987-.186-1.18-.236l.254-.16M49.083 28.792c.305.067.701.14.868.146.22.007.064.087-.022.092-.314.027-.78-.024-1.082-.089l.236-.149M49.888 28.287c.296.105.814.2 1.08.251.102.018-.04.103-.09.103-.324.004-1.063-.14-1.252-.19l.262-.164"/>
        <path fill="#00A550" d="M32.034 44.806c-.012-.233-.012-.92-.024-1.027-.012-.106-.072-.117-.13-.082-.06.035-.153.114-.26.196 0-.128.017-.392.017-.487 0-.145-.02-.159-.126-.071-.049.044-.091.005-.112-.049-.034-.096-.212-.56-.248-.664-.035-.105-.085-.087-.14.022a7.535 7.535 0 0 0-.23.588c-.043.13-.064.127-.148.06-.125-.098-.153-.055-.143.026.018.15.11.507.133.705-.059-.106-.19-.228-.258-.304-.074-.082-.126-.046-.13.071-.004.13-.022.574-.022.875l.963.67.858-.53M24.619 49.614c-.291-.092-.629-.214-.744-.25-.108-.035-.125-.112-.022-.157.098-.041.253-.101.37-.15-.198-.04-.54-.093-.688-.127-.15-.037-.128-.107-.035-.157.05-.027.056-.04-.016-.095a7.13 7.13 0 0 1-.46-.414c-.089-.083-.09-.139.02-.14.113-.002.557-.011.676-.017.106-.01.113-.015.06-.095-.073-.11-.062-.161.018-.138.088.028.465.15.588.193a2.373 2.373 0 0 1-.086-.298c-.017-.067.012-.122.116-.1.105.022.762.235.992.297l.264 1.027-1.053.621M26.4 55.65c-.128.197-.43.607-.483.697-.053.092-.012.14.056.144.069.004.184-.007.331-.028-.077.104-.521.537-.579.613-.054.076.184.03.257.014.059-.014.049 0 .033.103-.02.104-.17.525-.203.632-.033.103.04.145.149.09.115-.06.486-.32.577-.385.087-.062.098-.064.141.14.021.102.093.205.174.076.078-.131.354-.751.452-.995-.014.118.023.297.03.396.012.111.088.12.148.02.058-.1.358-.45.537-.696l-.221-1.03-1.4.21M34.286 56.787c.147.182.469.636.543.714.07.078.123.054.151-.008a2.12 2.12 0 0 0 .097-.272c.077.103.26.372.317.447.063.088.1.108.13-.014.024-.12.034-.118.127-.07.093.047.412.27.503.335.09.064.171.036.152-.084-.022-.13-.096-.5-.128-.605-.035-.106-.027-.088.078-.083.223.021.19-.06.089-.174-.1-.115-.346-.348-.484-.497.108.05.286.08.386.096.16.021.199-.025.095-.143-.08-.087-.405-.45-.587-.697l-1.297-.182-.172 1.237M37.267 49.728c.22-.085.835-.225.972-.253.097-.018.129-.07.038-.148a2.28 2.28 0 0 0-.248-.19c.125-.04.426-.165.515-.196.09-.027.016-.089-.047-.128-.076-.044-.076-.058-.009-.106.089-.058.503-.334.591-.4.09-.065.058-.11-.064-.126-.129-.02-.506 0-.616 0-.112-.003-.122-.01-.097-.109.042-.164.032-.207-.11-.152-.14.059-.414.223-.597.307.084-.088.133-.24.165-.334.055-.169.015-.174-.092-.129-.108.05-.573.184-.863.278l-.597 1.18 1.059.506"/>
        <path fill="#32327F" d="M39.015 48.18c-.129-.02-.506 0-.616 0-.114-.002-.122-.01-.097-.108.042-.163.032-.208-.11-.152-.14.058-.414.224-.597.306.084-.086.133-.24.165-.334.055-.168.015-.174-.092-.128-.089.039-.471.153-.764.245-.136-1.345-1.864-3.326-4.528-3.326-.13 0-.245.011-.348.026-.007-.285-.008-.837-.018-.93-.012-.106-.071-.117-.13-.082-.06.036-.153.114-.26.196 0-.128.016-.393.016-.487 0-.145-.018-.16-.125-.071-.05.044-.092.005-.112-.05-.033-.094-.212-.558-.248-.662-.036-.105-.085-.088-.14.02a7.535 7.535 0 0 0-.23.589c-.044.13-.065.128-.15.06-.124-.098-.152-.052-.14.026.018.15.107.507.132.706-.06-.107-.19-.228-.259-.305-.074-.082-.126-.046-.13.071-.003.109-.015.42-.02.702-.026-.001-.046-.004-.072-.004-1.83 0-4.56 1.458-4.796 3.46-.268-.075-.832-.26-.93-.279-.104-.02-.134.032-.117.1.016.066.04.172.087.297l-.588-.192c-.08-.022-.091.028-.017.138.053.08.045.085-.062.095-.117.005-.563.016-.675.016-.11.002-.108.057-.02.142.093.09.37.35.461.413.07.055.065.068.014.096-.092.048-.114.12.036.156.148.033.49.089.689.127-.118.048-.273.108-.372.15-.102.047-.085.121.023.159.085.025.351.118.602.202-.23.413-.357 1.044-.357 1.893 0 2.326.887 3.95 2.236 4.26-.17.243-.4.56-.439.629-.053.091-.011.136.056.14.069.006.184-.007.33-.028-.076.105-.52.538-.578.615-.054.075.184.029.257.012.058-.012.049 0 .033.105-.018.103-.17.525-.203.63-.034.104.04.145.149.09.114-.06.486-.318.577-.385.086-.061.098-.064.141.14.021.104.093.206.174.076.08-.13.354-.75.454-.994-.016.118.02.296.028.395.012.113.09.12.15.02.039-.071.2-.265.354-.459.475.897 1.948 1.354 3.476 1.354 1.995 0 2.823-.476 3.146-1.044.149.2.317.431.367.483.072.08.125.054.153-.007a2.12 2.12 0 0 0 .095-.273c.077.103.262.373.318.449.062.087.1.107.13-.014.024-.12.034-.119.128-.07.092.046.41.269.503.334.088.064.17.036.151-.083a8.656 8.656 0 0 0-.127-.606c-.035-.106-.027-.088.078-.084.223.023.188-.058.087-.174-.1-.116-.346-.348-.482-.496.108.053.284.082.385.095.16.022.2-.024.094-.142-.066-.074-.302-.337-.483-.564 1.132-.392 2.398-2.188 2.398-4.537 0-.783-.307-1.342-.709-1.685.265-.073.595-.15.692-.167.097-.02.129-.071.038-.15a2.27 2.27 0 0 0-.248-.189c.125-.04.426-.165.515-.196.09-.028.016-.092-.047-.128-.076-.045-.076-.059-.009-.106.089-.059.503-.333.591-.398.09-.067.058-.112-.064-.129m-14.766.424c.153.058.688.235 1.083.376-.309.014-.565.16-.762.441a9.984 9.984 0 0 0-.484-.136c.063-.038.216-.12.303-.169.136-.07.143-.157-.11-.193l-.572-.084.145-.088a6.362 6.362 0 0 0-.592-.479c.154.009.587-.012.797-.029l-.09-.17c.09.03.41.137.495.178.084.038.16-.023.144-.089a7.948 7.948 0 0 0-.063-.278c.091.04.472.193.786.264l-.002.077c0 .203.058.38.17.554-.433-.11-1.087-.243-1.198-.285-.155-.062-.277.023-.05.11m3.231 8.344c-.014-.07-.035-.225-.049-.324-.025-.15-.176-.146-.235.032-.032.104-.392.837-.392.837l-.069-.262c-.17.121-.493.314-.693.461.07-.138.189-.578.222-.784l-.24.046c.057-.077.44-.487.505-.554.065-.067.027-.122-.059-.112-.07.007-.166.004-.31.007.057-.061.24-.302.403-.539.09.014.18.02.274.02.152 0 .383-.024.624-.138-.287.4-.705 1.003-.778 1.099-.096.132-.045.271.098.075.108-.15.63-.75.94-1.109-.07.305-.05.582.04.83-.099.144-.223.325-.28.415m3.815-11.807c-.027-.441-.107-1.205-.108-1.336 0-.163-.125-.243-.122-.002.004.172-.01.808-.02 1.242-.194-.319-.403-.48-.66-.532-.005-.18-.013-.43-.022-.546.055.049.164.163.234.231.108.11.23.014.168-.163a8.341 8.341 0 0 1-.116-.588l.147.122a5.98 5.98 0 0 0 .283-.723c.025.149.177.582.272.77l.152-.128c0 .095-.023.422-.035.514-.012.092.07.145.128.111.06-.037.133-.092.25-.19-.012.096-.041.51-.015.832a.892.892 0 0 0-.536.386m4.808 11.234c-.074-.009-.23-.037-.327-.052-.15-.025-.194.121-.042.228.09.067.438.459.438.459l-.233-.027c.045.1.127.426.178.706-.109-.11-.481-.327-.662-.441l-.042.206a8.64 8.64 0 0 1-.282-.448c-.045-.083-.112-.083-.14-.019-.026.062-.08.176-.12.308a6.547 6.547 0 0 0-.317-.48c.108-.291.11-.59.09-.857.29.341.8.889.877.99.1.133.248.123.1-.068-.109-.14-.495-.674-.746-1.028.186.078.345.092.538.092.088 0 .178-.011.267-.03.12.136.338.362.423.46m2.051-7.616l.193.126c-.09.029-.396.132-.489.147-.156.031-.113.085-.039.15.062.055.154.09.252.175-.082.015-.407.071-.704.149a1.754 1.754 0 0 0-.703-.274c.533-.222 1.045-.474 1.16-.514.153-.055.189-.2-.037-.116-.17.063-.713.238-1.254.418.254-.223.374-.499.377-.827.203-.066.528-.169.64-.215-.028.067-.075.2-.119.29-.077.152-.068.238.178.093.097-.054.513-.245.513-.245l-.013.21c.094.018.437-.012.706-.014-.137.071-.511.303-.661.447"/>
        <path fill="#FEFEFE" d="M33.084 53.806c.135.305 1.252 1.447 1.252 2.204 0 1.238-1.07 1.613-2.983 1.613-2.449 0-3.397-.985-3.397-1.672 0-.62.668-1.52 1.265-2.173.262-.285-.13-.543-.3-.214-.185.362-1.064 1.933-1.952 1.933-1.785 0-2.49-2.56-2.49-4.521 0-1.07.358-1.752 1.15-1.752.38 0 1.235.501 2.504.894.365.11.607-.31.086-.368-1.186-.136-2.603-.714-2.603-1.507 0-1.85 3.372-3.482 4.443-3.482 1.04 0 1.147 1.556 1.02 3.428-.025.34.39.334.379-.018-.046-.461-.088-1.674-.147-2.194-.053-.468.243-1.007 1.073-1.007 1.954 0 4.242 2.075 4.242 3.2 0 .718-1.193 1.388-2.657 1.66-.39.075-.137.502.182.337.468-.237 1.538-.676 2.241-.676.66 0 1.42.564 1.42 1.69 0 2.582-1.428 4.504-2.385 4.504-.862 0-1.546-1.142-2.05-2.058-.133-.241-.427-.122-.293.18"/>
        <path fill="#32327F" d="M31.829 48.035c-.01-.162-.123-1.224-.123-1.486 0-.794.224-1.162.783-1.162.567 0 1.158.933 1.716.933a.467.467 0 0 0 .347-.167c.056-.07.18-.01.148.085-.029.1-.037.242-.037.375 0 .8 1.475.723 1.475 1.443 0 .965-1.596 1.35-2.13 1.348-.302-.003-.172-.103-.049-.103.92-.006 2-.663 2-1.188 0-.688-1.796-.574-1.418-1.775-.82.6-1.346-.728-2.028-.728-.381 0-.613.234-.613.923 0 .243.034 1.258.05 1.5.016.24-.113.165-.121.002M28.464 49.367c-.289-.15-1.18-.286-1.432-.367-.885-.287-.958-.763-.853-1.095.156-.493 1.276-.803 1.44-1.338a.436.436 0 0 0-.053-.378c-.057-.08.037-.18.11-.132.064.04.263.135.368.167.718.223 1.213-1.164 1.9-.939 1.057.347.509 2.196.524 2.66.009.182-.124.238-.14.04-.036-.451.463-2.206-.47-2.495-.664-.209-1.017 1.52-2.114.765.24.94-1.137 1.093-1.325 1.692-.115.367.16.723.709.903.232.074 1.213.294 1.39.432.089.066.14.182-.054.085M28.63 52.993c-.119.192-.556 1.067-.713 1.283-.462.632-1.127.714-1.532.419-.396-.284-.426-1.493-.797-1.763a.494.494 0 0 0-.39-.073c-.09.02-.169-.085-.082-.143.073-.048.221-.2.274-.29.387-.644-.795-1.461-.295-2.13.54-.714 2.137-.01 2.74.425.154.112.164.256-.007.145-.894-.574-2.142-.97-2.54-.425-.406.557 1.054 1.53.04 2.277.976-.002.7 1.409 1.21 1.776.285.208.846.14 1.2-.26.161-.183.712-1.159.807-1.328.096-.17.203-.104.085.087M32.55 54.108c.107.158.694.854.877 1.046.521.54.496 1.11.164 1.421-.419.39-1.54-.08-2.014.29-.097.074-.158.26-.17.337-.023.152-.16.127-.182.043a1.77 1.77 0 0 0-.193-.35c-.444-.607-1.678.095-2.15-.452-.569-.665.296-1.867.754-2.27.136-.116.28-.065.138.052-.805.672-1.036 1.66-.774 2.02.407.56 1.957-.424 2.294.8.375-1.009 1.576-.276 2.087-.645.287-.208.27-.655-.049-1.092-.143-.195-.802-.987-.89-1.12-.086-.14 0-.236.107-.08M34.433 50.57c.447-.044 1.018-.147 1.329-.303.702-.348 1.207-.114 1.35.405.126.47-.409 1.456-.259 1.971.032.118.192.252.266.274.077.018.075.174-.012.179-.101.005-.27.033-.392.073-.715.241-.372 1.544-1.06 1.767-.967.313-1.813-1.144-1.928-1.59-.07-.271.04-.236.09-.115.386.958 1.205 1.661 1.745 1.487.66-.216.116-1.737 1.377-1.75-.751-.623.155-1.648-.04-2.247-.128-.394-.49-.528-1.071-.294a3.91 3.91 0 0 1-1.4.259c-.208-.003-.292-.085.005-.116"/>
        <path fill="#32327F" d="M36.044 52.598c-.113-.082-1.98-.611-2.447-.707.434.068 1.843-.195 2.209-.392.102-.054.097-.206-.056-.16-.254.073-1.404.4-2.164.447.069-.224.113-.463.113-.717 0-.602-.277-1.174-.721-1.65a1.489 1.489 0 0 0-.183-.166c.642-.488 1.64-.805 1.876-.839.202-.025.244-.203.041-.199-.242.006-1.48.379-2 .978l-.007-.006c.318-.462 1.197-1.783 1.36-1.94.186-.18.006-.267-.11-.187-.107.076-1.104 1.548-1.397 2.034-.002-.003-.004-.003-.007-.004.189-.457.349-1.758.281-2.144-.022-.114-.17-.156-.173.002-.007.243-.08 1.35-.227 2.08-.384-.189-.867-.293-1.384-.293-.468 0-.836.13-1.153.34-.364-.75-.333-2.002-.286-2.265.038-.2-.12-.294-.178-.102-.075.245-.098 1.666.383 2.302-.226-.307-1.4-1.766-1.509-1.986-.115-.234-.256-.09-.213.045.041.132 1.239 1.65 1.56 2.001-.309-.308-1.606-.916-2.018-.973-.113-.017-.2.11-.05.163.263.093 1.528.585 2.105.97a4.13 4.13 0 0 0-.45.436c-.376.418-.546.978-.546 1.662 0 .158.017.31.048.465-.848.017-2.012-.55-2.227-.71-.164-.123-.296-.028-.149.106.187.177 1.454.833 2.241.685-.378.068-2.192.44-2.46.46-.258.016-.192.188-.054.21.139.022 2.04-.365 2.499-.496-.416.137-1.542 1.02-1.777 1.361-.068.095.008.228.123.117.207-.196 1.27-1.167 1.868-1.49.174.51.545.951 1.145 1.224.298.135.689.269 1.096.306-.179.888-.89 1.864-1.08 2.05-.148.139-.077.304.083.185.207-.155 1.065-1.287 1.05-2.087.002.382.089 2.25.048 2.49-.046.254.154.222.2.087.044-.131-.026-2.06-.08-2.531.07.43.759 1.681 1.057 1.967.083.082.227.029.136-.103-.285-.42-.922-1.32-1.124-2.052.645-.03 1.534-.372 1.896-.993.084-.14.169-.304.243-.48.708.428 1.384 1.367 1.493 1.597.089.181.274.167.206-.024-.085-.24-.906-1.402-1.67-1.636.365.117 2.177.611 2.394.725.229.119.26-.078.146-.163"/>
        <path fill="#FFF100" d="M31.129 50.738c.24 0 .411.203.411.345a.394.394 0 0 1-.367.373c-.173 0-.37-.167-.37-.365 0-.193.169-.353.326-.353M30.181 50.506c.216 0 .313.246.313.371 0 .184-.19.36-.345.36-.155 0-.273-.17-.273-.35 0-.172.165-.38.305-.38M30.407 51.491c.219 0 .325.183.325.307 0 .186-.13.34-.286.34-.155 0-.403-.11-.403-.287 0-.173.224-.36.364-.36M31.445 51.859a.32.32 0 0 1 .328.307c0 .186-.13.34-.286.34-.155 0-.333-.153-.333-.329 0-.174.154-.318.291-.318M32.111 51.216c.215 0 .325.183.325.305 0 .188-.13.34-.284.34-.155 0-.332-.15-.332-.328 0-.172.149-.317.291-.317M31.904 50.112c.217 0 .37.231.37.354 0 .188-.132.342-.285.342-.157 0-.332-.151-.332-.328 0-.172.106-.368.247-.368M32.95 50.115c.21 0 .317.177.317.296 0 .18-.127.332-.277.332-.151 0-.322-.146-.322-.318 0-.168.147-.31.283-.31M32.17 49.214c.212 0 .317.177.317.298 0 .181-.126.33-.278.33-.152 0-.321-.145-.321-.317 0-.169.147-.31.283-.31M33.022 51.314c.212 0 .318.177.318.3 0 .18-.162.383-.313.383-.152 0-.286-.2-.286-.375 0-.166.146-.308.281-.308M32.333 52.314c.21 0 .434.148.434.269 0 .181-.235.423-.386.423-.15 0-.359-.08-.359-.245 0-.166.175-.447.311-.447M30.92 52.634c.21 0 .46.252.46.373 0 .178-.189.3-.339.3-.151 0-.322-.145-.322-.318 0-.169.063-.355.2-.355M29.856 52.33c.209 0 .4.173.4.293 0 .181-.21.334-.36.334-.154 0-.323-.145-.323-.32 0-.166.146-.308.283-.308M29.262 51.319a.31.31 0 0 1 .315.298c0 .18-.126.328-.276.328-.152 0-.322-.146-.322-.32 0-.166.146-.306.283-.306M29.378 50.07c.212 0 .317.177.317.298 0 .18-.188.383-.339.383-.151 0-.26-.198-.26-.37 0-.168.145-.311.282-.311M31.153 48.95a.31.31 0 0 1 .317.298c0 .182-.125.33-.279.33-.15 0-.32-.144-.32-.318 0-.168.146-.31.282-.31M30.019 49.258a.31.31 0 0 1 .315.296c0 .18-.126.33-.278.33-.15 0-.32-.144-.32-.318 0-.166.147-.308.283-.308M30.9 49.82a.32.32 0 0 1 .325.309c0 .186-.13.34-.284.34-.157 0-.33-.152-.33-.33 0-.173.15-.318.29-.318"/>
        <path fill="#32327F" d="M31.148 8.045c1.244 0 1.757.81 1.237 2.046.236 0 .34-.236.507-.732.877.338 1.013 1.35.287 1.961.45-.206.825-.181 1.087.022-.36.215-.47.403-.446.598.273-.19.51-.406 1.05-.406.556 0 1.129.367 1.129 1.25 0 1.36-.853 1.485-1.943 1.24 0 .057.195.302.388.4-.878.262-1.954.022-2.697-.409.421 1.353 2.498 1.901 4.063.63.629 1.638 3.182 1.873 4.325.491-1.075.488-2.245.215-2.793-.31.202-.063.575-.21.727-.414-.864.011-1.255-.322-1.255-.985 0-.652.688-1.377 1.488-1.377.581 0 .86.397 1.064.876.111-.2.117-.644.069-1.009 1.018-.043 1.213.584 1.39.969.303-1.314 1.189-2.258 3.129-1.911a3.543 3.543 0 0 0-.754 1.078c.24-.208.559-.477 1.22-.477.863 0 1.32.59 1.312 1.17-.004.617-.39 1.043-.682 1.248-.409-.705-.952-.803-1.339-.803-1.116 0-1.6.484-1.728.862.343.643-.073 1.161-.796 1.086-.123.234-.9 1.617-1.161 1.926.17.51.13 1.134-.255 1.693-.017.113-.09.661-.1.773a.468.468 0 0 1 .243.388c0 1.1-3.925 1.5-8.819 1.5-2.532 0-8.834-.285-8.834-1.441 0-.203.11-.325.266-.428-.022-.078-.063-.703-.083-.771-.347-.563-.36-1.156-.147-1.622-.262-.307-1.108-1.774-1.23-2.007-.922.009-1.037-.607-.738-1.12-.396-.462-.925-.877-1.717-.877-.561 0-.965.111-1.344.682-.267-.2-.601-.493-.608-1.112-.006-.698.615-1.123 1.197-1.123.594 0 .968.235 1.294.585-.123-.37-.476-.933-.742-1.234 1.898-.323 2.758.677 3.06 1.989.178-.385.477-1.095 1.492-1.052-.065.365-.084.684.009.942.243-.365.475-.801 1.008-.801.734 0 1.537.873 1.537 1.503 0 .653-.458.937-1.422.876.156.203.408.347.72.423-.528.55-1.618.71-2.727.282 1.303 1.512 3.752 1.089 4.334-.454 1.378 1.278 3.719.734 4.174-.672-.82.54-1.865.635-2.743.461.167-.115.31-.305.355-.418-1.188.318-1.872-.036-1.872-1.216 0-.69.496-1.238 1.077-1.238.363 0 .751.138 1.079.383.027-.193-.06-.367-.422-.585.262-.2.598-.26 1.047-.054-.649-.553-.607-1.635.341-1.96.117.456.244.751.467.782-.513-1.315-.018-2.097 1.225-2.097"/>
        <path fill="#FFF100" d="M19.183 12.63c-.374-.637-.859-.744-1.235-.741-.547.003-.965.425-.965.918 0 .263.098.476.21.572.235-.308.682-.872 1.99-.75M45.121 13.4c.137-.117.216-.4.216-.633 0-.514-.412-.886-.999-.893-.594-.003-.905.196-1.263.696 1.357-.094 1.746.395 2.046.83M31.086 21.143c3.683.028 8.283-.364 8.283-1.145 0-.509-3.79-1.329-8.252-1.329-4.524 0-8.202.818-8.202 1.333 0 .46 3.888 1.109 8.171 1.14"/>
        <path fill="#FFF100" d="M31.086 21.143c3.683.028 8.283-.364 8.283-1.145 0-.509-3.79-1.329-8.252-1.329-4.524 0-8.202.818-8.202 1.333 0 .46 3.888 1.109 8.171 1.14"/>
        <path fill="#FFF100" d="M21.182 14.88c.16.255 1.233 1.959 1.371 2.143.46.086 1.22.195 1.467.25.29.063.408.531.146.682-.25.144-1.2.867-1.362.977.01.126.044.364.05.474 2.145-.781 4.958-1.063 8.286-1.063 4.032 0 6.407.458 8.222 1.092.022-.193.052-.326.073-.585a11.555 11.555 0 0 1-1.41-.94c-.225-.185-.08-.603.13-.662.44-.124 1.095-.248 1.64-.355.054-.05 1.088-1.687 1.305-2.07.058-.183.318-.593.545-.711.417-.922 1.347-1.285 2.717-1.076-.472-.326-1.196-.252-1.469-.183-.056.016-.18 0-.174-.124.166-.633.283-1.009.63-1.506-1.747-.09-2.329 1.3-2.38 2.159-.006.099-.213.178-.236.065-.119-.537-.392-1.202-1.045-1.308.006.408.018.718-.134.984-.091.156-.296.113-.328.044-.234-.491-.504-.805-.822-.805-.521 0-.776.297-.604.575.069.11-.042.169-.164.133-.258-.077-.48.037-.48.444 0 .495.442.737 1.129.663.166-.02.225.096.15.213-.073.11-.34.337-.523.446.156.12.574.267 1.243.267.574 0 1.142-.204 1.362-.398.1-.088.274-.02.188.213-.452 1.234-3.433 2.52-5.045.205-1.364.994-3.544.847-4.254-1.064-.08-.219.126-.442.372-.286.178.11.755.386 1.32.461.218.03.584.075.826.017a2.259 2.259 0 0 1-.245-.42c-.047-.129.081-.198.229-.107.152.095.278.197.66.197.644 0 .995-.495.995-.695 0-.272-.154-.33-.346-.36-.092-.016-.11-.132-.046-.161.2-.093.255-.208.255-.393 0-.234-.23-.473-.671-.473-.357 0-.69.18-.923.298a.167.167 0 0 1-.22-.067c-.057-.137-.062-.362.153-.673-.28-.06-1.155.255-1.893.96-.117.111-.297-.142-.197-.205.99-.6 1.639-1.226 1.639-1.747A.736.736 0 0 0 33 9.773c-.176.395-.498.623-.703.623-.092 0-.213-.066-.189-.144.043-.124.18-.607.18-.93 0-.492-.321-.886-.631-.886-.227 0-.37.121-.42.262-.032.09-.166.082-.208 0-.098-.193-.224-.27-.417-.27-.33 0-.616.412-.616.887 0 .429.18.867.18.945.002.078-.135.13-.23.13-.34 0-.576-.298-.655-.617-.182.08-.286.398-.286.646 0 .585.533 1.036 1.613 1.748.098.066-.037.297-.163.192-.81-.664-1.604-.99-1.888-.93.21.403.17.549.114.684-.037.063-.176.096-.237.064-.233-.118-.535-.294-.811-.294-.455 0-.719.269-.719.599 0 .057.065.219.251.286.053.02.025.122-.043.132a.335.335 0 0 0-.292.338c0 .337.322.638.794.635.381-.004.676-.072.825-.195.135-.107.237-.005.184.119-.03.067-.182.379-.237.485.682.06 1.514-.095 2.143-.488.233-.145.385.106.357.256-.264 1.368-2.524 2.399-4.282 1.138-1.783 2.116-4.189 1.222-5.015-.243-.087-.16-.058-.406.166-.212.285.245.787.363 1.412.363.535 0 .878-.029 1.171-.222a1.62 1.62 0 0 1-.576-.473c-.077-.115-.008-.266.159-.242.926.138 1.16-.244 1.157-.54-.004-.406-.203-.624-.509-.54-.168.045-.24-.057-.19-.13.192-.275-.045-.585-.486-.585-.318 0-.548.273-.806.665-.063.1-.274.066-.33-.036-.114-.195-.171-.514-.088-.873-.593.096-.988.702-1.124 1.327-.024.106-.265.036-.272-.07-.043-.711-.65-2.227-2.294-2.158.34.462.478.828.628 1.496.01.124-.159.146-.218.138-.37-.053-.79-.084-1.3.162.841-.137 1.889.11 2.542 1.067.194.09.53.47.54.797"/>
        <path fill="#32327F" d="M30.853 15.692c-.19.17-.642.506-.887.672a.33.33 0 0 0-.143.271.367.367 0 0 0 .138.311c.199.156.613.489.87.706.165.14.44.116.574-.003.13-.114.727-.522.89-.624a.319.319 0 0 0 .15-.28.35.35 0 0 0-.148-.314c-.16-.112-.676-.535-.823-.705a.432.432 0 0 0-.296-.13.46.46 0 0 0-.325.096M25.732 17.612c-.03-.153-.085-.516-.098-.638a.641.641 0 0 0 .28-.372 52.452 52.452 0 0 0 1.573-.219c.094.126.265.22.442.247.057.178.103.572.112.71a.965.965 0 0 0-.313.376 44 44 0 0 0-1.627.197c-.069-.16-.173-.247-.369-.301M20.814 13.685c-.047-.562-.48-1.533-.835-1.773-.073-.05-.187-.05-.111.03.335.344.65 1.248.75 1.65.019.084.201.198.196.093M30.714 12.974c0-.285.202-.532.465-.532.293 0 .436.233.436.52 0 .462-.203.562-.464.562-.3 0-.437-.274-.437-.55M27.909 12.755c.24-.036 2.081.007 2.256.03.177.019.157.208.05.203-.256-.018-2.07-.138-2.253-.124-.168.012-.174-.09-.053-.109M31.328 11.929c-.004.086-.28.104-.271-.024.016-.228.066-2.21.063-2.32-.004-.205.134-.212.147-.007.012.21.073 2.225.061 2.35M32.17 12.76c.12-.026 2.034.048 2.25.045.117-.001.134.117.012.121-.255.014-1.977.006-2.213.05-.178.034-.217-.178-.049-.215M23.689 13.571c-.086.063-2.021.68-2.138.75-.086.05-.16-.131-.119-.16.065-.045 2.145-.648 2.213-.68.065-.034.12.033.044.09M41.483 13.685c.044-.562.53-1.455.754-1.732.053-.069.17-.062.11.028-.298.426-.57 1.209-.667 1.611-.021.084-.208.198-.197.093M38.605 13.571c.086.063 1.897.653 2.013.722.088.053.157-.13.12-.158-.068-.046-2.02-.622-2.086-.654-.068-.034-.122.033-.047.09M36.477 17.599c.032-.153.087-.517.1-.638a.628.628 0 0 1-.28-.375 45.091 45.091 0 0 1-1.577-.216.69.69 0 0 1-.44.245c-.058.182-.103.573-.111.712a.986.986 0 0 1 .312.375c.875.095 1.47.171 1.628.196.068-.16.172-.246.368-.3M31.118 19c4.871.037 7.381.624 7.38.99-.003.24-.499.357-.564.367-.101.018-.162-.138-.068-.174.13-.047.222-.099.222-.167 0-.268-2.327-.73-6.973-.765-3.922-.03-6.82.507-6.823.81-.001.065.048.062.163.096.068.019.064.151-.013.151-.235-.002-.574-.1-.573-.245.004-.578 3.926-1.089 7.249-1.063"/>
        <path fill="#FFF100" d="M31.02 15.856c.026-.025.146-.033.184.011.172.195.716.64.878.75.047.032.041.142.012.16-.17.102-.78.518-.93.653-.026.021-.132.038-.174-.001-.254-.215-.672-.55-.881-.713-.042-.032-.048-.135-.009-.165.254-.17.718-.515.92-.695M22.666 18.576c.03.025.089.028.166-.025.339-.248.872-.677 1.162-.845.04-.019.011-.172-.057-.176-.094-.007-.895-.16-1.285-.223-.071-.005-.122.009-.133.063-.168.33-.136.852.147 1.206M39.712 17.25c-.018-.036-.076-.043-.172-.033-.451.052-1.192.247-1.285.269-.064.017-.088.185-.033.208.316.185.885.625 1.19.778.042.02.072.01.098-.01.29-.156.36-.95.202-1.211M25.978 17.48c.085.03.123.06.167.13.326-.05 1.06-.13 1.42-.17a.433.433 0 0 1 .144-.155 2.71 2.71 0 0 0-.081-.543.316.316 0 0 1-.184-.111c-.389.06-1.047.157-1.423.2a.304.304 0 0 1-.127.154c.012.107.053.348.084.495M36.159 17.479a.274.274 0 0 0-.168.13 46.01 46.01 0 0 0-1.416-.17.461.461 0 0 0-.15-.156c.011-.163.04-.406.084-.542a.326.326 0 0 0 .185-.112 41.69 41.69 0 0 0 1.424.202.278.278 0 0 0 .124.15 5.395 5.395 0 0 1-.083.498"/>
        <path fill="#32327F" d="M81.36 13.734c-.264-2.879-.593-3.632-2.502-3.632h-.856v8.64c0 .767.347.9.79.9h1.415v.572H74.25v-.572h1.413c.444 0 .79-.133.79-.9v-8.64H75.6c-1.908 0-2.237.753-2.5 3.632h-.545V9.481h9.347v4.253h-.543M87.528 20.214v-.54h.527c.46 0 .806-.13.806-.898v-4.14c0-.362-.1-1.294-1.136-1.294-1.43 0-2.368 1.521-2.368 3.077v2.357c0 .769.344.898.808.898h.525v.54h-4.279v-.54h.707c.463 0 .79-.149.79-.898V10.92c0-.767-.346-.9-.805-.9h-.692V9.48h2.946v4.598c.428-.817 1.333-1.503 2.649-1.503 1.365 0 2.187.947 2.302 1.815v4.386c0 .769.33.898.792.898h.707v.54h-4.28M95.674 20.364c-2.633 0-3.572-1.934-3.572-3.488 0-2.11 1.219-4.286 3.44-4.286 1.942 0 2.994 1.75 3.026 3.829l-.213.262h-4.772c0 1.979.79 3.077 2.304 3.077 1.612 0 2.203-1.311 2.188-2.325h.592c.05 1.39-.79 2.93-2.993 2.93m-.084-7.135c-1.069 0-1.811 1.096-1.973 2.813h3.456c.13-1.143-.313-2.813-1.483-2.813M81.93 25.472c-.444 0-.773.131-.773.9v5.71c0 1.455-.71 3.78-3.819 3.78-2.583 0-3.734-1.605-3.9-2.88v-6.61c0-.769-.327-.9-.772-.9h-1.07V24.9h5.513v.573h-1.334c-.442 0-.79.131-.79.9v6.054c0 2.028 1.416 2.716 2.568 2.716 1.514 0 2.763-.934 2.763-3.06v-5.71c0-.769-.328-.9-.773-.9h-1.266V24.9h4.722v.573h-1.07M87.492 35.631v-.539h.526c.46 0 .805-.13.805-.916v-4.074c0-.361-.098-1.293-1.135-1.293-1.433 0-2.189 1.521-2.189 3.093v2.274c0 .787.346.916.808.916h.526v.54h-4.278v-.54h.707c.461 0 .79-.13.79-.916v-4.598c0-.769-.346-.9-.807-.9h-.708v-.539h2.847l.098 1.456c.43-.833 1.152-1.555 2.487-1.555 1.365 0 2.187.949 2.302 1.816v4.32c0 .768.33.916.789.916h.594v.54h-4.162M92.13 35.631v-.539h.577c.461 0 .806-.13.806-.9v-4.614c0-.769-.345-.899-.806-.899h-.709v-.54h2.963v6.053c0 .77.346.9.807.9h.706v.54H92.13m1.943-8.851c-.495 0-.905-.442-.905-.999 0-.557.41-.997.905-.997.493 0 .905.44.905.997 0 .557-.412.999-.905.999M104.093 28.68c-.527 0-.922.343-1.152.931l-2.435 6.021h-.643l-2.254-6.021c-.279-.755-.69-.932-1.2-.932h-.526v-.539h4.44v.54h-.638c-.464 0-.857.21-.579.948l1.547 4.188 1.498-3.943c.23-.59.23-1.194-.493-1.194h-.528v-.539h3.21v.54h-.247M107.926 35.862c-2.633 0-3.57-2.01-3.57-3.567 0-2.111 1.217-4.354 3.439-4.354 1.94 0 2.994 1.752 3.028 3.83l-.216.261h-4.77c0 1.98.79 3.224 2.304 3.224 1.612 0 2.204-1.309 2.186-2.324h.593c.05 1.393-.79 2.93-2.994 2.93m-.082-7.281c-1.07 0-1.81 1.097-1.975 2.813h3.457c.131-1.145-.314-2.813-1.482-2.813M116.86 30.577c-.526 0-.808-.442-.808-.818 0-.606.346-.997.825-1.178-1.235-.26-2.403 1.227-2.403 3.271v2.324c0 .769.346.916.806.916h.872v.54h-4.624v-.54h.709c.46 0 .805-.163.805-.916v-4.597c0-.77-.346-.9-.805-.9h-.709v-.54h2.83l.083 1.358c.379-.85 1.167-1.556 2.171-1.556.725 0 1.236.59 1.236 1.392 0 .686-.377 1.244-.988 1.244M121.813 35.862c-.857 0-1.729-.458-2.091-.984l-.41.869h-.495v-3.239h.496c.147 1.176.984 2.698 2.435 2.698.657 0 1.348-.359 1.348-1.094 0-1.751-4.311-1.31-4.311-3.846 0-1.294.921-2.325 2.417-2.325.708 0 1.433.295 1.894.804l.478-.688h.378v2.862h-.496c-.328-1.57-1.135-2.323-2.187-2.323-.87 0-1.284.575-1.284 1.13 0 1.866 4.394 1.293 4.394 3.812 0 1.374-1.069 2.324-2.566 2.324M125.3 35.631v-.539h.577c.459 0 .805-.13.805-.9v-4.614c0-.769-.346-.899-.805-.899h-.71v-.54h2.963v6.053c0 .77.346.9.806.9h.708v.54h-4.343m1.941-8.851c-.493 0-.906-.442-.906-.999 0-.557.413-.997.906-.997.492 0 .906.44.906.997 0 .557-.414.999-.906.999M133.083 35.763c-.709 0-1.727-.475-1.893-1.49v-5.448h-1.134v-.59c1.052-.21 1.793-.815 1.89-3.336h.676v3.241h2.238v.685h-2.238v4.878c0 .719.312 1.112.905 1.112.657 0 1.02-.506 1.02-1.162v-2.26h.658v2.52c0 .886-.724 1.85-2.122 1.85M143.431 28.68c-.525 0-.905.326-1.153.914L139.45 36.4c-.805 1.948-1.382 3.045-2.73 3.045-.71 0-1.284-.572-1.284-1.34 0-.591.312-1.214.97-1.214.362 0 .723.395.723.883 0 .38-.163.753-.495 1 .906.294 1.944-1.243 2.454-3.385l-2.041-5.795c-.263-.753-.708-.915-1.217-.915h-.363v-.539h4.262v.54h-.625c-.459 0-.839.196-.575.931l1.43 4.073 1.53-3.811c.232-.59.232-1.194-.494-1.194h-.606v-.539h3.29v.54h-.248M77.314 51.313c-3.01 0-4.671-2.88-4.671-5.43 0-3.11 1.973-5.763 4.688-5.763 3.472 0 4.772 3.553 4.772 5.563 0 3.57-2.154 5.63-4.789 5.63m.116-10.473c-2.32 0-3.126 2.44-3.126 5.023 0 3.862 1.81 4.727 3.175 4.727 1.81 0 2.963-1.928 2.963-4.612 0-2.061-.576-5.138-3.012-5.138M87.335 42.511c-.328 0-.707-.228-.707-.705 0-.376.246-.686.707-.883-.098-.13-.328-.196-.46-.196-.773 0-1.218.59-1.218 1.504 0 .64.148 1.442.296 1.996h1.844v.688h-1.779v4.727c0 .77.348.9.807.9h.871v.542h-4.639v-.542h.708c.462 0 .805-.13.805-.9v-4.727h-1.429v-.688h1.381c-.114-.474-.215-1.21-.215-1.522 0-1.388.923-2.585 2.452-2.585 1.003 0 1.547.77 1.547 1.26 0 .818-.61 1.131-.971 1.131M77.844 66.788c-1.43 0-2.615-.735-3.06-1.472l-.674 1.244h-.446v-4.764h.544c.265 2.162 1.283 4.337 3.523 4.337 1.232 0 2.122-.686 2.122-1.865 0-3.565-6.353-1.327-6.353-5.709 0-1.327 1.054-2.962 3.177-2.962 1.416 0 2.205.491 2.83 1.18l.494-1.18h.427v4.53h-.56c-.213-2.238-1.135-3.874-3.01-3.874-1.793 0-2.222 1.29-2.222 1.88 0 3.305 6.466 1.343 6.466 5.399 0 2.177-1.661 3.256-3.258 3.256M86.698 66.56v-.542h.526c.46 0 .806-.13.806-.899v-4.074c0-.36-.098-1.292-1.136-1.292-1.43 0-2.187 1.52-2.187 3.075v2.291c0 .77.345.899.806.899h.526v.542H81.76v-.542h.706c.462 0 .791-.145.791-.899v-8.391c0-.77-.346-.902-.805-.902h-.692v-.541h2.947v5.206c.427-.82 1.152-1.507 2.467-1.507 1.367 0 2.188.948 2.303 1.816v4.32c0 .768.331.898.79.898h.708v.542h-4.277M94.923 66.788c-2.632 0-3.57-2.011-3.57-3.567 0-2.11 1.218-4.351 3.438-4.351 1.943 0 2.996 1.75 3.027 3.827l-.213.262H92.83c0 1.982.792 3.222 2.307 3.222 1.611 0 2.204-1.305 2.188-2.323h.593c.049 1.392-.79 2.93-2.996 2.93m-.082-7.282c-1.068 0-1.81 1.098-1.975 2.817h3.456c.132-1.147-.314-2.817-1.48-2.817M103.117 57.397c-.329 0-.708-.228-.708-.705 0-.374.248-.686.708-.883-.099-.146-.444-.294-.825-.294-.937 0-1.413.786-1.413 1.556 0 .637.18 1.44.294 1.993h1.664v.689h-1.613v5.366c0 .77.347.899.808.899h.707v.541h-4.312v-.541h.546c.46 0 .804-.13.804-.899v-5.366h-1.268v-.689h1.236c-.117-.473-.215-1.21-.215-1.52a2.638 2.638 0 0 1 2.652-2.633c1.052 0 1.905.702 1.905 1.357 0 .768-.507 1.13-.97 1.13"/>
        <path fill="#32327F" d="M109.83 57.854c-.526 0-.905-.408-.905-.916 0-.36.215-.768.56-.967-.312-.374-.79-.504-1.284-.504-1.727 0-2.517 1.423-2.09 3.598h1.613v.688h-1.545v5.366c0 .77.343.899.804.899h.791v.542h-4.394v-.542h.544c.46 0 .805-.13.805-.899v-5.366h-1.266v-.688h1.232c-.392-1.98.643-4.203 3.506-4.203 1.415 0 2.666.882 2.666 1.749 0 .803-.429 1.243-1.037 1.243zm-1.514 8.706v-.542h.642c.46 0 .808-.13.808-.899v-4.596c0-.77-.347-.9-.808-.9h-.708v-.558h2.961v6.054c0 .77.345.899.807.899h.545v.542h-4.247zM116.625 66.788c-2.633 0-3.57-2.011-3.57-3.567 0-2.11 1.217-4.351 3.439-4.351 1.942 0 2.996 1.75 3.028 3.827l-.213.262h-4.774c0 1.982.79 3.222 2.303 3.222 1.614 0 2.206-1.305 2.19-2.323h.592c.049 1.392-.79 2.93-2.995 2.93m-.082-7.282c-1.07 0-1.81 1.098-1.974 2.817h3.456c.13-1.147-.314-2.817-1.482-2.817M120.032 66.56v-.542h.707c.46 0 .804-.13.804-.899v-8.391c0-.77-.344-.902-.804-.902h-.707v-.541h2.961v9.834c0 .754.345.899.807.899h.706v.542h-4.474M131.794 66.56c-.542 0-.952-.542-.968-1.096-.38.636-1.088 1.242-2.155 1.242-1.994 0-3.308-1.734-3.308-3.829 0-1.503 1.135-3.992 3.519-3.992.692 0 1.35.344 1.794.967v-3.124c0-.77-.346-.902-.806-.902h-1.58v-.541h3.833v9.8c0 .788.33.933.792.933h.707v.542h-1.828m-2.912-7.002c-1.135 0-1.99 1.422-1.99 3.14 0 2.29.855 3.305 1.907 3.305 1.318 0 1.994-1.127 1.994-3.044 0-1.554-.478-3.401-1.911-3.401M135.646 66.723a1.044 1.044 0 0 1-1.038-1.048c0-.573.462-1.047 1.038-1.047.574 0 1.035.474 1.035 1.047 0 .574-.46 1.048-1.035 1.048M42.921 41.366c-.087-2.577-1.006-13.256-1.055-17.103-.003-.28-.045-.288-.26-.26-.122.013-.352.038-.675.068 0 0 .016-.335 0-.443-.014-.106-.014-.121-.153-.106-.112.012-.338.025-.607.045 0-.297.003-.59.007-.871-.547.173-1.588.242-2.07.242-1.924 0-3.008-.597-4.516-.597-.668 0-1.378.08-2.098.348-.213.077-.344.024-.492-.042-.148-.068-.746-.306-1.666-.306-1.488 0-3.534.657-5.273.657-.96 0-1.74-.244-2.141-.466-.009.206-.02.445-.034.714-.221-.018-.483-.043-.569-.043-.131 0-.135-.001-.135.153 0 .133-.013.255-.023.443-.117 0-.564-.032-.68-.053-.148-.023-.174-.005-.174.248 0 .192-1.276 17.326-1.276 17.69 0 .481.04.629.567.46.999-.319 5.848-1.802 9.682-1.358-.33 1.244 4.088 1.26 3.912.03 3.496-.486 8.893 1.114 9.277 1.177.382.058.467-.124.452-.627"/>
        <path fill="#FFF100" d="M30.623 40.335c-.503-.212-1.288-.428-3.319-.428-3.297 0-5.598 1.04-7.266.805-.106-.015-.159-.03-.155-.15.267-5.136.915-12.448 1.262-16.453-.112 0-.385-.03-.445-.03s-.102 0-.102.072c0 .068-1.252 17.143-1.262 17.324-.01.183.036.264.178.233.144-.03 4.076-1.305 7.741-1.305.73 0 2.2.111 2.293.123.091.008.052.06.042.13-.137.95 3.49.797 3.29.092-.022-.073-.042-.174.079-.193.122-.021.965-.152 1.98-.152 2.87 0 7.157.994 7.32 1.033.16.04.18-.1.18-.23 0-.132-.934-16.654-.934-16.754 0-.102.04-.163-.052-.15-.09.008-.317.01-.406.01-.055 3.097.853 16.115.853 16.216 0 .1-.031.103-.111.12a5.833 5.833 0 0 1-1.05.078c-1.43 0-3.959-.798-6.277-.798-1.042 0-2.177.29-2.62.464-.469.182-.742.145-1.22-.057"/>
        <path fill="#FEFEFE" d="M31.018 23.315a.301.301 0 0 0-.108-.22c-.196-.16-.675-.455-1.426-.455-1.843 0-3.612.785-5.45.785-.693 0-1.192-.117-1.709-.226-.053.918-.947 14.652-1.085 16.224 1.515.28 3.122-.77 6.402-.77 1.951 0 3.24.634 3.449.741.187.1.259.098.477-.016.56-.292 1.92-.694 3.481-.694 2.194 0 4.244 1.049 5.492.73.116-5.249-.868-11.852-.856-16.16-.263.035-1.102.118-1.48.118-1.905 0-3.065-.72-4.742-.72-.991 0-1.645.352-1.862.51-.075.054-.08.075-.083.184-.036 3.334-.032 12.39-.165 15.53-.009.192-.304.145-.304.006.112-3.55-.06-12.554-.031-15.567"/>
        <path fill="#FEFEFE" d="M40.65 23.938c-.001-.061-.03-.09-.09-.08-.043.005-.226.006-.387.013.036 5.06.916 12.228.76 16.028-1.428.27-3.468-.697-6.007-.697-2.304 0-3.317.468-3.42.52-.104.053-.253.039-.39-.018-.54-.22-1.8-.511-3.512-.511-3.695 0-4.752.81-6.726.685.273-4.49.814-12.682.995-16.337-.094-.007-.185-.018-.247-.018-.122 0-.113.018-.122.111-.399 4.51-.89 11.482-1.242 16.6-.009.12-.021.12.06.131 2.042.255 3.77-.76 6.952-.76 1.666 0 2.77.196 3.639.547.322.129.53.126.874-.032.777-.353 1.74-.473 2.633-.473 3.021 0 5.442 1.036 7.078.79.084-.01.081-.07.081-.141 0-.073-.849-13.817-.929-16.358"/>
        <path fill="#EC1D24" d="M23.265 33.462c-.188-.007-.292-.122-.406-.13-.117-.006-.297.022-.35.115-.043.145-.145.102-.145-.028s.095-4.035.088-4.165c-.014-.323-.044-.402-.333-.316-.052.014-.092-.13.013-.173.058-.029.777-.267.841-.267.05 0 .06.043.06.106 0 .08 0 .219-.01.4.125-.181.271-.325.467-.484.08-.065.145-.115.245-.057.365.216.858.96.814 2.553-.015.52-.732 2.475-1.284 2.446m.151-4.48c-.143 0-.275.165-.4.39-.019.93-.07 2.444-.15 3.555.348.08.326.233.413.239a.213.213 0 0 0 .147-.042c.37-.284.564-1.02.578-1.48.044-1.615-.339-2.663-.588-2.663"/>
        <path fill="#32327F" d="M25.319 33.23c-.03.145-.226.11-.226-.021s-.064-2.173-.088-2.301c-.034-.238-.172-.276-.348-.304-.057-.008-.088-.122.016-.171.059-.03.783-.305.847-.305.052 0 .06.043.06.108.006.396-.095 2.222-.261 2.994m.014-3.6c-.073.179-.219.094-.225.021-.008-.064-.103-.34-.124-.403-.028-.088-.114-.188-.151-.188-.038 0-.089-.042-.014-.1a4.22 4.22 0 0 1 .58-.217c.043-.014.08.03.065.074-.008.04-.102.727-.131.814M26.48 33.187c-.37 0-.676-.236-.763-.353-.035-.044-.071-.073-.022-.1.05-.03.248-.36.284-.404.03-.043.05 0 .065.035.093.267.276.577.529.577.161 0 .363-.252.363-.527 0-.369-1.096-.36-1.096-1.319 0-.274.087-.664.667-1.046.08-.058.11-.067.139-.03.014.02.342.29.53.412.065.043.093.036.072.078a.874.874 0 0 1-.203.238c-.043.036-.137.036-.174.024a1.532 1.532 0 0 1-.444-.376c-.012-.023-.029-.03-.042-.017-.145.125-.168.269-.168.458 0 .495 1.06.547 1.06 1.19 0 .447-.298 1.16-.798 1.16M28.286 33.18c-.582 0-.85-.679-.85-1.392 0-.642.516-1.241.813-1.557.073-.08.123-.102.153-.069.015.024.312.378.477.507.023.021.184-.007.14.078a1.05 1.05 0 0 1-.24.283c-.065.052-.197.066-.246.022a1.23 1.23 0 0 1-.32-.383c-.014-.02-.035-.027-.044-.014-.16.208-.23.498-.23.765 0 .946.274 1.341.63 1.341.204 0 .296-.18.413-.345.045-.065.08.007.05.066-.209.41-.325.699-.746.699M29.926 33.18c-.581 0-.85-.679-.85-1.39 0-.644.398-1.243.696-1.56.073-.079.219-.079.262-.063.146.048.69.502.69.865 0 .136-.798.806-1.124 1.023.094.506.318.729.585.729.283 0 .458-.135.589-.326.045-.063.087.017.059.067-.234.426-.486.656-.907.656m-.08-2.619c-.043-.036-.074-.015-.09.014-.143.248-.208.57-.208.864 0 .161.007.305.024.436.214-.181.6-.571.6-.83 0-.166-.181-.368-.327-.484"/>
        <path fill="#EC1D24" d="M32.958 33.404c-.189 0-.298-.114-.413-.114-.116 0-.277-.01-.342.064-.02.065-.146.136-.146-.023 0-.13-.02-3.966-.029-4.097-.014-.268-.102-.346-.34-.303-.06.007-.118-.089-.014-.139.057-.026.72-.308.784-.308.116 0 .137.056.137.12v.312a2.23 2.23 0 0 1 .45-.482c.08-.072.144-.109.245-.051.538.295.916 1.01.916 2.678 0 .706-.696 2.343-1.248 2.343m-.015-4.509c-.136 0-.247.159-.34.353 0 .888-.015 2.433-.064 3.588.345.057.345.257.433.257.065 0 .087-.005.137-.05.394-.324.531-1.09.531-1.666 0-1.886-.414-2.482-.697-2.482"/>
        <path fill="#32327F" d="M35.222 33.18c-.465 0-.82-.722-.82-1.458 0-.771.587-1.57 1.023-1.57.507 0 .843.783.843 1.45 0 .633-.581 1.579-1.046 1.579m-.066-2.656c-.203 0-.325.338-.325.62 0 .983.419 1.608.615 1.608.269 0 .385-.295.385-.606 0-.856-.4-1.622-.675-1.622M37.355 33.18c-.538 0-.849-.757-.849-1.392 0-.642.4-1.254.775-1.566.147-.114.161-.12.25-.029.013.022.244.347.412.476.021.021.152.038.108.124a.906.906 0 0 1-.218.251c-.065.052-.186.057-.245.022-.154-.087-.247-.319-.35-.46-.014-.023-.028-.023-.044-.016-.165.123-.24.37-.24.664 0 .946.327 1.5.683 1.5.204 0 .334-.142.444-.302.05-.072.1.03.063.087-.2.316-.369.642-.789.642M39.118 33.18c-.537 0-.929-.634-.929-1.283 0-.7.384-1.343.826-1.71.08-.065.183-.036.227-.025.275.095.702.681.702 1.065 0 .136-.87.605-1.226.764.118.496.4.748.667.748.262 0 .46-.135.583-.323.042-.064.092.05.056.099-.262.377-.485.666-.906.666m-.082-2.584c-.043-.035-.071-.02-.093 0-.205.182-.282.549-.282.843 0 .146.014.275.028.392.262-.122.646-.377.646-.599a.769.769 0 0 0-.299-.636"/>
        <path fill="#F4811F" d="M266.268 55.158c-5.983 7.302-16.334 11.138-17.907 11.677-1.57-.54-11.911-4.375-17.895-11.652-5.55-6.4-7.704-17.526-8.466-28.968h52.892c-.525 10.807-2.355 21.75-8.624 28.943"/>
        <path fill="#F4811F" d="M274.892 25.88h-53.254l.025.36c.937 14.068 3.734 23.609 8.549 29.166 6.207 7.55 16.847 11.342 18.043 11.748l.107.04.106-.04c1.198-.406 11.852-4.201 18.057-11.777 6.915-7.936 8.28-20.435 8.704-29.144l.016-.353h-.353zm-.358.677c-.437 8.586-1.83 20.694-8.516 28.381l-.006.006c-6.065 7.399-16.762 11.22-17.65 11.534-.89-.313-11.567-4.133-17.638-11.506-4.678-5.399-7.408-14.705-8.358-28.415h52.168zm-8.01 28.82l-.002.001.007-.001h-.004z"/>
        <path fill="#6C6E70" d="M276.05 10.278c-.176.02-.325.03-.325.03-8.19.811-15.25-1.194-22.755-3.325l-4.278-1.197v20.428h-.67V5.789l-4.25 1.194c-7.49 2.13-14.574 4.136-22.746 3.326l-.737-.07v.733c-.035 3.98-.02 9.22.317 14.62l.036.65h.014c.787 11.69 3 23.138 8.79 29.812 6.696 8.158 18.231 11.983 18.711 12.14l.215.074.201-.074c.49-.157 12.028-3.982 18.715-12.14 6.543-7.525 8.425-18.763 8.958-29.812h.007l.032-.65c.01-.243.172-14.62.172-14.62v-.733s-.211.007-.408.04m-9.767 44.88c-5.992 7.301-16.337 11.137-17.91 11.675-1.579-.538-11.917-4.374-17.903-11.652-5.548-6.398-7.703-17.526-8.465-28.94h52.893c-.53 10.789-2.36 21.724-8.615 28.917"/>
        <path fill="#FEFEFE" d="M248.022 5.79l.1-.031.096-.018h.3l.092.018.083.03"/>
        <path fill="#FEFEFE" d="M248.692 26.215V5.787l-.082-.029-.091-.017h-.302l-.093.017-.103.03v20.427z"/>
        <path fill="#6C6E70" d="M266.69 33.287V28.79h-3.622v1.947h-.938V28.79h-3.608v1.947h-.914V28.79h-3.75v4.496h-4.061v30.558l.95-.471c.18-.08 4.34-2.078 6.853-3.81 2.666-1.853 6.55-4.895 9.444-9.733 2.913-4.873 3.758-10.886 3.802-13.381V33.287h-4.155"/>
        <path fill="#FEFEFE" d="M255.202 30.12h1.066v1.965h3.594V30.12h.926v1.964h3.629V30.12h.96v5.631h-.27v-2.465h-4.085v2.465h-1.435v-2.465h-4.122v2.465h-.263z"/>
        <path fill="#FEFEFE" d="M269.514 36.422c-.04 2.373-.853 8.08-3.63 12.71-2.73 4.56-6.273 7.372-9.05 9.318-1.71 1.188-4.31 2.546-5.695 3.254V34.636h1.543v2.43h4.125v-2.43h1.435v2.43h4.116v-2.43h1.43v2.43h4.125v-2.43h1.6v1.786"/>
        <path fill="#6C6E70" d="M229.413 40.97c1.722-.039 2.656-.951 3.35-1.596.563-.54.87-.828 1.613-.828.72-.022 1.007.257 1.532.766.662.633 1.582 1.481 3.282 1.442 1.706-.036 2.657-.925 3.313-1.556.555-.532.854-.813 1.57-.826.637-.022.89.213 1.437.755.391.353.883.818 1.593 1.123v-3.622c-.7-.651-1.552-1.287-3.006-1.287-1.71.017-2.632.9-3.309 1.547-.549.51-.84.792-1.568.803-.715 0-1.003-.259-1.537-.764-.664-.629-1.567-1.495-3.263-1.464-1.71.008-2.653.891-3.34 1.554-.557.527-.872.813-1.595.837-.734 0-1.02-.278-1.554-.787-.354-.374-1.19-.845-1.885-1.157.142 1.966.569 3.53.842 4.348.731.511 1.595.727 2.525.712M226.095 33.624c.646.658 1.737 1.425 3.436 1.389 1.714-.017 2.654-.9 3.336-1.552.556-.51.865-.802 1.594-.802.713-.011 1.009.266 1.538.788.642.627 1.554 1.477 3.256 1.477 1.694-.017 2.62-.894 3.29-1.534.546-.517.832-.792 1.564-.792.615-.007.867.216 1.418.742.375.368.873.844 1.576 1.162v-3.62c-.668-.66-1.548-1.317-2.988-1.317-1.688 0-2.61.856-3.273 1.505-.557.501-.85.788-1.564.788-.706.022-1.004-.277-1.528-.788-.657-.624-1.549-1.505-3.242-1.505-1.697 0-2.613.88-3.299 1.519-.565.534-.882.807-1.607.812-.713 0-1.001-.278-1.522-.785-.486-.498-1.799-1.14-2.835-1.416.06 1.283.186 2.468.274 3.645.048.05.516.25.576.284M232.663 45.283c.565-.542.865-.844 1.614-.854.72-.027 1.021.251 1.545.743.675.622 1.58 1.46 3.317 1.416 1.726-.064 2.657-.965 3.33-1.61.567-.52.858-.805 1.595-.826.629-.01.877.212 1.43.738.39.343.89.826 1.61 1.09v-3.608c-.701-.638-1.57-1.281-3.035-1.255-1.716.04-2.639.935-3.32 1.563-.551.536-.852.816-1.582.851-.726.008-1.018-.263-1.55-.76-.663-.61-1.575-1.47-3.29-1.449-1.718.051-2.665.947-3.371 1.627-.55.525-.867.822-1.605.826-.734.03-1.033-.244-1.545-.764-.083-.062-.314-.097-.418-.185.261 1.279.897 2.817 1.342 4.05.194.027.356.027.548.027 1.742-.056 2.69-.954 3.385-1.62M244.006 59.087c-1.538.086-2.454.794-3.117 1.423a34.565 34.565 0 0 0 6.214 2.43v-2.711c-.71-.617-1.611-1.225-3.097-1.142M234.182 50.32c.73-.03 1.02.233 1.562.723.657.611 1.6 1.45 3.332 1.379 1.74-.096 2.671-.98 3.367-1.652.558-.514.86-.806 1.584-.834.643-.034.904.18 1.464.709.39.362.894.807 1.612 1.097v-3.63c-.703-.63-1.576-1.264-3.043-1.209-1.737.05-2.687.956-3.362 1.604-.56.53-.856.824-1.6.85-.718.031-1.017-.243-1.555-.739-.666-.603-1.59-1.442-3.315-1.39-1.728.051-2.695.975-3.371 1.628-.367.337-.624.578-.957.723.468.9.99 1.76 1.555 2.528a9.51 9.51 0 0 0 1.09-.915c.572-.547.89-.845 1.637-.872M242.41 56.58c.549-.545.86-.823 1.602-.874.646-.037.896.176 1.464.679.385.355.896.82 1.627 1.096v-3.623c-.703-.625-1.592-1.235-3.084-1.182-1.734.083-2.684 1-3.376 1.647-.549.552-.867.828-1.6.86-.733.05-1.026-.21-1.57-.695-.675-.63-1.598-1.438-3.337-1.378a4.87 4.87 0 0 0-1.599.354c1.5 1.76 3.352 3.343 5.476 4.73.322.04.655.074 1.008.04 1.748-.085 2.7-.983 3.39-1.654"/>
        <path fill="#FEFEFE" d="M251.805 14.145c.76 0 1.46.336 1.966.894v-1.697a3.644 3.644 0 0 0-1.966-.588c-1.437 0-2.7.85-3.412 2.14-.71-1.29-1.96-2.14-3.405-2.14a3.62 3.62 0 0 0-1.966.588v1.697c.507-.558 1.196-.894 1.966-.894 1.545 0 2.8 1.408 2.8 3.154 0 1.731-1.255 3.14-2.8 3.14-.77 0-1.46-.348-1.966-.892v1.705c.575.359 1.252.572 1.966.572 1.446 0 2.695-.851 3.405-2.144.712 1.293 1.975 2.144 3.412 2.144a3.74 3.74 0 0 0 1.966-.572v-1.705c-.506.544-1.206.891-1.966.891-1.54 0-2.801-1.408-2.801-3.14 0-1.745 1.26-3.153 2.801-3.153M224.861 14.68l-.003-.013h1.028v.012l-1.315 2.172 1.132 1.977c.18.307.41.512.698.704v.017h-.55c-.284 0-.522-.134-.634-.333L223.972 17l.746-1.297c.198-.323.538-.8.143-1.025m-1.783 0l-.003-.012h1.103l.012.012c-.298.124-.291.673-.281 1.017l-.014 2.808c-.003.327-.038.879.26 1.028v.017h-1.098v-.017c.294-.163.266-.704.266-1.028l.017-2.808c0-.344.03-.875-.262-1.017"/>
        <path fill="#FEFEFE" d="M226.74 18.75c-.114.408-.163.636.111.782v.016h-1.043v-.016c.328-.209.435-.636.571-1.067l.932-3.099c.084-.267.189-.592-.082-.686v-.013h.894l1.101 3.798c.126.445.226.847.545 1.067l.003.016h-1.185v-.016c.263-.146.225-.337.115-.782l-.299-1.05h-1.354l-.308 1.05zm.47-1.597h1.046l-.517-1.844-.53 1.844z"/>
        <path fill="#FEFEFE" d="M229.785 14.68l-.001-.013h1.087v.012c-.279.142-.262.687-.262 1.025l-.003 2.803c0 .324-.042.876.251 1.025v.017h-1.094v-.017c.287-.15.266-.7.272-1.025l.015-2.803c0-.352.031-.883-.265-1.025M232.156 17.23c.47-.019 1.003-.427 1.008-1.124 0-.673-.378-.977-.812-.928-.129.014-.283.049-.398.049l-.025 3.33c0 .42-.007.75.297.975v.014h-1.133v-.014c.295-.15.269-.7.286-1.025l.005-2.803c0-.338.024-.883-.262-1.025v-.012h1.386c.738 0 1.29.45 1.283 1.285-.003.851-.594 1.395-1.246 1.395a.748.748 0 0 1-.389-.097v-.02M235.923 19.657c-1.12 0-2.064-1.05-2.064-2.576.022-1.417.96-2.548 2.148-2.548 1.19 0 2.017 1.172 2.01 2.518-.004 1.506-.968 2.606-2.094 2.606m.027-.522c.867 0 1.427-.841 1.435-1.935.006-1.094-.522-2.136-1.432-2.136-.869 0-1.446.824-1.453 1.96-.004 1.032.556 2.111 1.45 2.111M239.07 19.532v.015h-1.022v-.028c.306-.227.32-.526.317-.939l.017-2.968c0-.42 0-.719-.297-.933v-.013h.822c0 .059.06.155.115.237l2.119 3.548.011-2.839c0-.42.004-.719-.31-.933v-.013h1.022v.013c-.292.214-.313.513-.313.933l-.03 4.162-.197-.074c-.155-.068-.225-.153-.362-.369l-2.178-3.652h-.003l-.014 2.901c0 .413 0 .712.302.952M257.31 19.532l.008.015h-1.085v-.015c.294-.148.267-.7.267-1.025l.027-2.803c-.009-.35.025-.883-.27-1.025l-.005-.013h1.925c.098 0 .2 0 .29-.055v.916h-.014c-.178-.263-.465-.348-.73-.348-.198 0-.448.013-.635.06l-.01 3.268c-.012.325-.058.877.232 1.025M259.747 19.532v.015h-1.01l-.005-.028c.307-.227.316-.526.307-.939l.037-2.968c0-.42 0-.719-.304-.933v-.013h.816c0 .059.061.155.11.237l2.122 3.548.023-2.839c0-.42 0-.719-.304-.933v-.013h1.015v.013c-.298.214-.312.513-.312.933l-.03 4.162-.186-.074c-.17-.068-.243-.153-.375-.369l-2.177-3.652h-.011l-.025 2.901c.005.413.011.712.31.952M262.955 16.715c0-1.254.849-2.222 2.093-2.222 1.26 0 1.994.95 1.976 2.188-.011 1.069-.47 1.784-1.146 2.06v.26l.257.022c.355.047.698-.195 1.029-.538h.02l-.374 1.061h-1.418l.004-1.08c.611-.233.996-.767 1.007-1.751 0-.888-.502-1.698-1.397-1.698-.903 0-1.418.686-1.418 1.615-.011 1.002.266 1.48.967 1.833l-.012 1.081h-1.412l-.353-1.061h.007c.325.343.678.585 1.024.538l.266-.021v-.28c-.747-.31-1.12-1.023-1.12-2.007M269.541 19.657c-1.13 0-2.069-1.05-2.053-2.576.004-1.417.954-2.548 2.14-2.548 1.172 0 2.016 1.172 2.004 2.52-.007 1.504-.958 2.604-2.09 2.604m.022-.522c.872 0 1.424-.841 1.437-1.935 0-1.093-.521-2.136-1.425-2.136-.884 0-1.45.824-1.452 1.96-.013 1.032.547 2.111 1.44 2.111m.694-1.557h.016l.172-.864h-.004a.558.558 0 0 1-.258.05h-.82c-.201 0-.42-.038-.488-.295h-.009l-.182.87h.003c.08-.041.164-.041.256-.041h.824c.19 0 .416.025.49.28M272.084 14.68v-.013h1.09v.012c-.277.142-.265.687-.265 1.025l-.012 2.803c0 .324-.045.876.257 1.025v.017h-1.09v-.017c.276-.15.26-.7.268-1.025l.008-2.803c-.002-.352.048-.883-.256-1.025"/>
        <path fill="#F4811F" d="M291.35 21.075c-3.337 0-4.975-2.775-4.975-5.308 0-2.835 2.155-5.626 5.11-5.626 1.304 0 1.989.362 2.807 1.04l.424-1.04h.5v4.555h-.694c-.2-2.278-1.185-3.694-2.946-3.694-1.651 0-2.698 1.87-2.698 4.75 0 2.73 1.062 4.448 2.761 4.448 1.804 0 2.912-.904 3.153-3.195h.804c-.183 2.744-1.728 4.07-4.245 4.07M296.491 20.85v-.678h1.001c.426 0 .758-.121.758-.876v-7.39c0-.739-.332-.874-.758-.874h-1.001v-.664h5.93v.664h-.972c-.438 0-.774.135-.774.874v7.39c0 .755.336.876.774.876h.971v.677h-5.929M311.566 14.516c-.259-2.805-.575-3.44-2.441-3.44h-.348v8.22c0 .755.334.875.774.875h1.199v.678h-6.388v-.678h1.215c.44 0 .772-.12.772-.875v-8.22h-.362c-1.853 0-2.183.635-2.444 3.44h-.65v-4.148h9.343v4.148h-.67M322.822 11.032c-.594 0-.88.225-1.228.874l-2.52 4.6v2.79c0 .755.35.876.775.876h1.137v.677h-6.247v-.677h1.151c.437 0 .758-.12.758-.876v-2.76l-2.534-4.63c-.33-.616-.651-.874-1.273-.874h-.349v-.664h5.445v.664h-.787c-.472 0-.774.393-.457.98l1.974 3.56 1.895-3.513c.348-.65.03-1.027-.41-1.027h-.833v-.664h3.894v.664h-.39M332.285 21.075c-3.338 0-4.976-2.775-4.976-5.308 0-2.835 2.155-5.626 5.11-5.626 1.305 0 1.99.362 2.808 1.04l.426-1.04h.501v4.555h-.697c-.2-2.278-1.183-3.694-2.948-3.694-1.65 0-2.697 1.87-2.697 4.75 0 2.73 1.064 4.448 2.76 4.448 1.806 0 2.914-.904 3.158-3.195h.8c-.183 2.744-1.728 4.07-4.245 4.07M341.521 21.045c-2.366 0-3.912-1.644-3.912-3.663 0-2.143 1.41-4.15 3.912-4.15 2.55 0 3.824 2.28 3.824 3.953 0 1.915-1.353 3.86-3.824 3.86m-.043-7.028c-1.048 0-1.395 1.193-1.395 3.227 0 1.766.21 3.033 1.468 3.033 1.092 0 1.305-1.267 1.305-3.136 0-2.172-.394-3.124-1.378-3.124M345.63 20.85v-.62h.56c.442 0 .772-.148.772-.903v-8.1c0-.738-.344-.86-.787-.86h-.559V9.72h3.685v9.607c0 .755.331.904.772.904h.47v.618h-4.913M350.954 20.85v-.62h.56c.441 0 .775-.148.775-.903v-8.1c0-.738-.35-.86-.787-.86h-.565V9.72h3.683v9.607c0 .755.336.904.777.904h.47v.618h-4.913M363.295 17.412h-4.473c.016 1.75.498 2.76 1.7 2.76 1.684 0 2.138-.906 2.105-1.93h.808c.06 1.342-.82 2.832-3.202 2.832-3.031 0-3.838-2.095-3.838-3.543 0-2.126 1.199-4.299 3.792-4.299 2.02 0 3.294 1.662 3.326 3.923l-.218.257m-3.062-3.335c-1.063 0-1.335 1.268-1.395 2.58h2.29c.134-1.101.227-2.58-.895-2.58M371.166 13.808c-.695 0-.953-.483-1.016-.89-.224.18-.377.558-.36.844.83.499 1.346 1.295 1.346 2.2 0 .967-.912 2.505-3.303 2.505-.487 0-1.137-.164-1.412-.164-.407 0-.666.255-.666.6 0 .5.39.833 1.12.833.652 0 1.229-.107 1.807-.107 1.58 0 3.11.753 3.11 2.338 0 1.312-1.215 2.562-3.901 2.562-2.774 0-3.625-.98-3.625-2.035 0-.784.7-1.297 1.475-1.553-.835-.241-1.395-.784-1.395-1.705 0-.603.404-1.145 1.045-1.492-.578-.454-.908-1.117-.908-1.932 0-1.146.727-2.58 3.32-2.58.481 0 .94.093 1.35.23.196-.664.678-1.617 1.637-1.617.775 0 1.245.53 1.245 1.058 0 .465-.41.905-.87.905m-3.061 7.615c-1.772 0-2.156.649-2.156 1.086 0 .694.714 1.237 1.916 1.237 1.516 0 2.182-.664 2.182-1.358 0-.513-.486-.965-1.942-.965m-.257-7.42c-.867 0-1.185.876-1.185 2.006 0 1.266.457 1.69 1.155 1.69.621 0 1.122-.122 1.122-1.976 0-1.057-.317-1.72-1.092-1.72M379.146 17.412h-4.475c.012 1.75.5 2.76 1.699 2.76 1.685 0 2.136-.906 2.108-1.93h.805c.058 1.342-.82 2.832-3.203 2.832-3.033 0-3.837-2.095-3.837-3.543 0-2.126 1.2-4.299 3.792-4.299 2.02 0 3.291 1.662 3.32 3.923l-.21.257m-3.065-3.335c-1.06 0-1.334 1.268-1.397 2.58h2.29c.138-1.101.23-2.58-.893-2.58"/>
        <path fill="#6C6E70" d="M291.047 35.929v-.556h.968c.427 0 1.017-.17.774-.876l-.74-2.14h-3.17l-.716 2.14c-.24.706.336.876.76.876h.82v.556h-4.006v-.556h.639c.529 0 .788-.227 1.001-.876l3.153-9.186h.654l3.152 9.186c.245.706.442.876.88.876h1v.556h-5.17zm-.608-8.264l-1.335 4.01h2.715l-1.38-4.01zM301.36 35.929v-.527h.515c.456 0 .788-.12.788-.892v-3.98c0-.36-.09-1.267-1.106-1.267-1.397 0-2.138 1.494-2.138 3.017v2.23c0 .771.332.892.789.892h.514v.527h-4.187v-.527h.702c.436 0 .769-.12.769-.892v-4.492c0-.755-.347-.889-.787-.889h-.696v-.514h2.773l.108 1.418c.409-.815 1.119-1.524 2.426-1.524 1.333 0 2.137.935 2.244 1.78v4.22c0 .742.32.893.773.893h.699v.527h-4.187M309.46 35.929v-.557h1.164c.442 0 .774-.137.774-.875V26.88c0-.739-.332-.875-.774-.875h-1.164v-.559h5.398v.559h-1.167c-.441 0-.772.12-.772.875v7.617c0 .754.331.875.772.875h1.167v.557h-5.398M320.167 35.929v-.527h.514c.456 0 .792-.12.792-.892v-3.98c0-.36-.095-1.267-1.108-1.267-1.397 0-2.139 1.494-2.139 3.017v2.23c0 .771.335.892.789.892h.514v.527h-4.186v-.527h.698c.441 0 .773-.12.773-.892v-4.492c0-.755-.347-.889-.787-.889h-.698v-.514h2.777l.106 1.418c.409-.815 1.122-1.524 2.425-1.524 1.334 0 2.138.935 2.245 1.78v4.22c0 .742.318.893.772.893h.697v.527h-4.184M327.673 36.05c-.695 0-1.681-.452-1.846-1.446V29.28h-1.111v-.574c1.03-.212 1.76-.8 1.853-3.256h.653v3.164h2.18v.666h-2.18v4.766c0 .708.301 1.084.89 1.084.64 0 .99-.499.99-1.131v-2.216h.65v2.472c0 .86-.71 1.796-2.08 1.796M334.364 36.156c-2.566 0-3.487-1.976-3.487-3.483 0-2.067 1.194-4.253 3.364-4.253 1.897 0 2.928 1.704 2.957 3.739l-.21.256h-4.659c0 1.932.76 3.153 2.246 3.153 1.578 0 2.152-1.282 2.137-2.277h.577c.046 1.357-.775 2.865-2.925 2.865m-.077-7.119c-1.047 0-1.777 1.071-1.928 2.747h3.371c.133-1.117-.307-2.747-1.443-2.747M343.283 30.982c-.517 0-.79-.42-.79-.8 0-.587.33-.963.801-1.144-1.211-.258-2.347 1.204-2.347 3.196v2.276c0 .741.33.893.788.893h.848v.526h-4.518v-.526h.695c.455 0 .789-.167.789-.893v-4.492c0-.755-.334-.89-.789-.89h-.695v-.514h2.775l.077 1.314c.36-.83 1.138-1.508 2.122-1.508.695 0 1.2.572 1.2 1.357 0 .663-.368 1.205-.956 1.205M349.482 35.929v-.527H350c.454 0 .789-.12.789-.892v-3.98c0-.36-.091-1.267-1.108-1.267-1.394 0-2.138 1.494-2.138 3.017v2.23c0 .771.335.892.792.892h.514v.527h-4.186v-.527h.698c.44 0 .773-.12.773-.892v-4.492c0-.755-.35-.889-.787-.889h-.7v-.514h2.773l.108 1.418c.412-.815 1.123-1.524 2.429-1.524 1.332 0 2.136.935 2.245 1.78v4.22c0 .742.315.893.772.893h.697v.527h-4.188M359.842 36.112c-.924 0-1.315-.618-1.472-1.162-.5.8-1.3 1.133-2.333 1.133-.85 0-1.712-.576-1.712-1.587 0-1.432.83-1.976 2.62-2.472 1.018-.27 1.396-.393 1.396-.935v-.514c0-.918-.499-1.551-1.366-1.551-.511 0-.982.195-1.346.678.364.256.635.588.635 1.116 0 .498-.38.769-.684.769-.786 0-.968-.679-.968-1.147 0-.965.988-2.02 2.503-2.02 1.59 0 2.578 1.101 2.578 1.84v4.374c0 .272.166.587.514.587.347 0 .546-.301.546-.71v-2.126h.637v2.186c0 1.056-.773 1.541-1.548 1.541zm-1.501-3.938c-.227.122-1.016.38-1.289.468-.958.287-1.38.815-1.38 1.613 0 .605.181 1.133.939 1.133 1.156 0 1.73-1.102 1.73-1.902v-1.312zM364.603 36.05c-.695 0-1.683-.452-1.85-1.446V29.28h-1.107v-.574c1.028-.212 1.759-.8 1.849-3.256h.654v3.164h2.185v.666h-2.185v4.766c0 .708.304 1.084.893 1.084.636 0 .986-.499.986-1.131v-2.216h.65v2.472c0 .86-.71 1.796-2.075 1.796M367.56 35.929v-.525h.697c.44 0 .79-.123.79-.878v-4.508c0-.754-.35-.889-.79-.889h-.697v-.514h2.894v5.911c0 .755.337.878.791.878h.698v.525h-4.383m2.032-9.047c-.486 0-.895-.44-.895-.982 0-.543.41-.965.895-.965.488 0 .879.422.879.965 0 .542-.391.982-.879.982M376.232 36.126c-2.273 0-3.562-1.643-3.562-3.62 0-1.93 1.065-4.086 3.562-4.086 2.537 0 3.445 2.487 3.445 3.891 0 2.232-1.396 3.815-3.445 3.815m-.043-7.028c-1.544 0-2.03 1.734-2.03 3.287 0 1.976.79 3.063 2.09 3.063 1.26 0 1.929-1.312 1.929-3.183 0-1.838-.652-3.167-1.99-3.167M385.184 35.929v-.527h.516c.451 0 .789-.12.789-.892v-3.98c0-.36-.088-1.267-1.108-1.267-1.395 0-2.14 1.494-2.14 3.017v2.23c0 .771.335.892.791.892h.514v.527h-4.185v-.527h.7c.437 0 .768-.12.768-.892v-4.492c0-.755-.348-.889-.79-.889h-.692v-.514h2.773l.11 1.418c.407-.815 1.119-1.524 2.421-1.524 1.338 0 2.142.935 2.246 1.78v4.22c0 .742.32.893.774.893h.7v.527h-4.187M395.544 36.112c-.927 0-1.321-.618-1.472-1.162-.503.8-1.304 1.133-2.34 1.133-.847 0-1.708-.576-1.708-1.587 0-1.432.83-1.976 2.623-2.472 1.014-.27 1.395-.393 1.395-.935v-.514c0-.918-.501-1.551-1.365-1.551-.515 0-.988.195-1.352.678.364.256.637.588.637 1.116 0 .498-.377.769-.68.769-.788 0-.974-.679-.974-1.147 0-.965.987-2.02 2.506-2.02 1.59 0 2.577 1.101 2.577 1.84v4.374c0 .272.167.587.514.587.353 0 .546-.301.546-.71v-2.126h.636v2.186c0 1.056-.771 1.541-1.543 1.541zm-1.502-3.938c-.23.122-1.018.38-1.291.468-.955.287-1.38.815-1.38 1.613 0 .605.18 1.133.939 1.133 1.155 0 1.732-1.102 1.732-1.902v-1.312zM397.286 35.929v-.527h.695c.443 0 .793-.12.793-.876v-8.204c0-.753-.35-.876-.793-.876h-.695v-.526h2.894v9.606c0 .725.338.876.792.876h.68v.527h-4.366M294.201 44.647c-.092-2.761-1.137-3.515-2.562-3.515h-1.79c-.441 0-.623.21-.623.65v3.359h.395c1.697 0 2-.06 2.198-2.274h.546v5.518h-.546c-.225-2.503-.544-2.52-2.198-2.52h-.395v3.652c0 .755.35.89.773.89h1.366v.604h-5.476v-.559h1.078c.425 0 .773-.135.773-.873V41.96c0-.753-.348-.876-.773-.876h-1.078v-.557h8.86v4.119h-.548M300.767 51.19c-.925 0-1.315-.618-1.47-1.162-.498.8-1.305 1.132-2.339 1.132-.847 0-1.711-.575-1.711-1.58 0-1.436.835-1.979 2.626-2.477 1.016-.27 1.392-.392 1.392-.934v-.514c0-.919-.498-1.553-1.365-1.553-.514 0-.984.197-1.35.679.366.257.638.589.638 1.114 0 .499-.377.773-.683.773-.788 0-.968-.68-.968-1.148 0-.965.986-2.02 2.501-2.02 1.593 0 2.579 1.102 2.579 1.84v4.371c0 .272.165.591.514.591.35 0 .546-.304.546-.71v-2.126h.638v2.186c0 1.055-.774 1.537-1.548 1.537zm-1.502-3.936c-.227.122-1.015.378-1.287.47-.957.283-1.381.812-1.381 1.61 0 .606.182 1.132.941 1.132 1.153 0 1.727-1.1 1.727-1.9v-1.312zM306.472 51.206c-2.337 0-3.38-1.75-3.38-3.512 0-1.962 1.288-4.195 3.578-4.195 1.65 0 2.515 1.163 2.515 2.022 0 .77-.5 1.311-1.119 1.311-.517 0-.774-.347-.774-.706 0-.41.285-.908.982-1.163-.362-.467-.757-.786-1.544-.786-1.352 0-2.139 1.404-2.139 3.289 0 2.231.939 3.046 2.019 3.046 1.727 0 2.137-1.553 2.227-2.595h.605c-.147 1.992-1.028 3.289-2.97 3.289M316.724 51.011c-.5 0-.953-.347-.953-.891v-.361c-.428.783-1.11 1.416-2.414 1.416-1.578 0-2.244-1.25-2.244-2.004v-4.073c0-.753-.347-.89-.788-.89h-.517v-.512h2.714v5.46c0 .347.09 1.266 1.11 1.266 1.396 0 2.139-1.266 2.139-2.805v-2.519c0-.753-.335-.89-.79-.89h-.85v-.512h3.047v5.883c0 .754.32.904.775.904h.697v.528h-1.926M319.03 51.011v-.528h.695c.443 0 .789-.121.789-.875v-8.203c0-.757-.346-.877-.789-.877h-.694v-.527h2.894v9.607c0 .725.337.875.788.875h.684v.528h-4.366M326.735 51.13c-.698 0-1.684-.452-1.85-1.448V44.36h-1.107v-.574c1.03-.21 1.758-.798 1.849-3.257h.65v3.168h2.186v.663h-2.185v4.766c0 .709.305 1.088.896 1.088.636 0 .986-.502.986-1.133v-2.218h.65v2.472c0 .862-.71 1.795-2.075 1.795M336.952 44.209c-.514 0-.878.331-1.121.905l-2.777 6.652c-.785 1.899-1.349 2.97-2.654 2.97-.698 0-1.255-.56-1.255-1.314 0-.573.301-1.175.938-1.175.363 0 .713.376.713.86 0 .361-.17.737-.486.98.077.03.15.043.227.043.835 0 1.716-1.43 2.17-3.361l-1.986-5.655c-.26-.741-.698-.905-1.2-.905h-.35v-.512h4.16v.512h-.61c-.438 0-.818.197-.562.919l1.395 3.984 1.502-3.725c.228-.574.228-1.178-.483-1.178h-.594v-.512h3.217v.512h-.244M346.01 51.235c-2.944 0-4.566-2.819-4.566-5.308 0-3.032 1.926-5.625 4.58-5.625 3.396 0 4.656 3.47 4.656 5.43 0 3.482-2.092 5.503-4.67 5.503m.101-10.238c-2.256 0-3.045 2.381-3.045 4.915 0 3.77 1.774 4.613 3.108 4.613 1.762 0 2.882-1.882 2.882-4.507 0-2.006-.56-5.021-2.945-5.021M356.245 44.358h-1.729v5.251c0 .754.337.874.788.874h.851v.528h-4.534v-.528h.684c.455 0 .783-.12.783-.874v-5.25h-1.393v-.662h1.35c-.104-.468-.212-1.191-.212-1.495 0-1.357.912-2.533 2.396-2.533.986 0 1.516.756 1.516 1.236 0 .801-.59 1.104-.937 1.104-.335 0-.7-.228-.7-.683 0-.373.242-.678.7-.872-.11-.121-.335-.181-.458-.181-.758 0-1.198.572-1.198 1.461 0 .632.153 1.403.29 1.963h1.803v.661M294.138 59.756c-.255-2.807-.59-3.548-2.438-3.548h-.684v8.45c0 .738.335.873.775.873h1.38v.56h-5.826v-.56h1.38c.44 0 .776-.135.776-.872v-8.45h-.669c-1.865 0-2.185.74-2.441 3.547h-.53v-4.15h8.81v4.15h-.533M299.889 66.09v-.529h.515c.454 0 .79-.12.79-.873v-3.982c0-.363-.092-1.265-1.11-1.265-1.393 0-2.135 1.492-2.135 3v2.247c0 .753.332.873.788.873h.514v.53h-4.188v-.53h.7c.44 0 .771-.15.771-.873v-8.206c0-.753-.347-.874-.786-.874h-.685v-.528h2.886v5.082c.407-.8 1.12-1.479 2.408-1.479 1.337 0 2.14.936 2.245 1.782v4.223c0 .753.32.873.772.873h.7v.53h-4.185M308.014 66.316c-2.563 0-3.487-1.976-3.487-3.483 0-2.067 1.197-4.253 3.366-4.253 1.897 0 2.928 1.704 2.96 3.741l-.216.252h-4.656c0 1.932.761 3.155 2.246 3.155 1.575 0 2.155-1.283 2.137-2.278h.577c.046 1.358-.772 2.866-2.927 2.866m-.076-7.119c-1.046 0-1.773 1.073-1.924 2.746h3.365c.136-1.115-.303-2.746-1.44-2.746M325.212 56.166c-.423 0-.74.121-.74.875v5.58c0 1.416-.698 3.695-3.73 3.695-2.533 0-3.66-1.568-3.823-2.82v-6.455c0-.754-.317-.875-.744-.875h-1.045v-.558h5.381v.558h-1.302c-.441 0-.778.121-.778.875v5.914c0 1.989 1.383 2.652 2.506 2.652 1.486 0 2.716-.905 2.716-2.986v-5.58c0-.754-.336-.875-.756-.875h-1.248v-.558h4.61v.558h-1.047M331.158 66.09v-.529h.517c.457 0 .791-.12.791-.889V60.69c0-.362-.093-1.265-1.107-1.265-1.397 0-2.14 1.494-2.14 3.016v2.231c0 .77.331.889.788.889h.514v.53h-4.183v-.53h.698c.44 0 .77-.12.77-.889v-4.494c0-.753-.35-.89-.787-.89h-.699v-.512h2.775l.108 1.418c.412-.814 1.123-1.523 2.426-1.523 1.338 0 2.139.934 2.245 1.778v4.223c0 .739.318.889.772.889h.7v.53h-4.188M335.773 66.09v-.529h.695c.439 0 .789-.12.789-.873v-4.51c0-.753-.35-.89-.789-.89h-.695v-.512h2.894v5.912c0 .753.335.873.789.873h.7v.53h-4.383m2.03-9.05c-.483 0-.896-.436-.896-.98 0-.545.413-.967.896-.967.485 0 .881.422.881.968 0 .543-.396.979-.881.979M347.83 59.288c-.517 0-.898.347-1.125.92l-2.38 5.883h-.637l-2.2-5.884c-.274-.737-.665-.919-1.165-.919h-.52v-.511h4.339v.511h-.62c-.455 0-.836.212-.562.936l1.502 4.085 1.471-3.844c.228-.574.228-1.177-.486-1.177h-.517v-.511h3.14v.511h-.24M351.693 66.316c-2.567 0-3.488-1.976-3.488-3.483 0-2.067 1.197-4.253 3.367-4.253 1.897 0 2.928 1.704 2.957 3.741l-.213.252h-4.656c0 1.932.76 3.155 2.245 3.155 1.576 0 2.156-1.283 2.138-2.278h.574c.046 1.358-.769 2.866-2.924 2.866m-.075-7.119c-1.047 0-1.777 1.073-1.926 2.746h3.37c.132-1.115-.308-2.746-1.444-2.746M360.611 61.143c-.514 0-.787-.422-.787-.8 0-.587.336-.964.804-1.146-1.215-.254-2.356 1.21-2.356 3.197v2.279c0 .737.336.888.791.888h.85v.53h-4.52v-.53h.698c.455 0 .789-.165.789-.888v-4.495c0-.752-.334-.89-.789-.89h-.698v-.511h2.778l.076 1.31c.361-.83 1.136-1.507 2.118-1.507.697 0 1.201.572 1.201 1.356 0 .663-.364 1.207-.955 1.207M365.448 66.316c-.835 0-1.682-.453-2.046-.964l-.394.846h-.487v-3.154h.487c.134 1.147.968 2.626 2.38 2.626.637 0 1.318-.334 1.318-1.119 0-1.824-4.366-1.282-4.366-3.71 0-1.191.938-2.26 2.304-2.26.698 0 1.518.285 1.961.782l.468-.68h.364v2.807h-.47c-.307-1.525-1.155-2.277-2.263-2.277-.682 0-1.182.483-1.182 1.1 0 1.826 4.429 1.329 4.429 3.664 0 1.526-1.185 2.34-2.503 2.34M368.772 66.09v-.529h.695c.442 0 .791-.12.791-.873v-4.51c0-.753-.349-.89-.791-.89h-.695v-.512h2.894v5.912c0 .753.334.873.788.873h.698v.53h-4.38m2.03-9.05c-.484 0-.893-.436-.893-.98 0-.545.41-.967.892-.967.488 0 .881.422.881.968 0 .543-.393.979-.88.979M376.43 66.21c-.698 0-1.686-.451-1.85-1.448V59.44h-1.108v-.574c1.028-.21 1.76-.8 1.85-3.26h.65v3.17h2.183v.664h-2.182v4.765c0 .707.303 1.086.893 1.086.639 0 .99-.5.99-1.134v-2.214h.646v2.472c0 .86-.707 1.794-2.073 1.794M386.647 59.288c-.517 0-.88.332-1.125.905l-2.773 6.651c-.791 1.902-1.349 2.971-2.654 2.971-.695 0-1.258-.56-1.258-1.313 0-.571.301-1.176.938-1.176.366 0 .715.376.715.861 0 .36-.168.74-.485.98a.59.59 0 0 0 .227.045c.835 0 1.713-1.43 2.17-3.362l-1.99-5.657c-.257-.74-.697-.905-1.201-.905h-.345v-.511h4.156v.511h-.606c-.439 0-.821.198-.562.92l1.395 3.983 1.502-3.726c.228-.574.228-1.177-.484-1.177h-.59v-.511h3.211v.511h-.24M387.421 66.256a1.026 1.026 0 1 1 0-2.052 1.027 1.027 0 0 1 0 2.052"/>
        <path stroke="#939597" stroke-width=".5" d="M204.62.393v76.12"/>
    </g>
</svg>
