<svg xmlns="http://www.w3.org/2000/svg" width="322.974" height="79" viewBox="0 0 322.974 79"><path fill-rule="evenodd" clip-rule="evenodd" fill="#6AA7CE" d="M261.308 13.818h61.666V79H232.84l28.468-65.182z"/><path fill="#fff" d="M286.694 35.067v-1.14c0-.398.083-.654.25-.77.167-.118.4-.173.696-.173h3.385c.334 0 .576.056.723.172.06.045.106.117.142.206.053.103.083.233.083.395v6.526h5.327c.4 0 .657.078.773.247.117.167.172.4.172.695v2.493c0 .33-.055.573-.172.72-.117.15-.373.225-.773.225h-5.327v12.404c0 .662.05 1.176.147 1.54.1.365.275.64.525.825.248.18.59.29 1.02.32.432.036.977.053 1.643.053.367 0 .887-.017 1.57-.053.68-.03 1.27-.08 1.77-.147.263-.034.463 0 .597.1.134.1.23.298.297.598l.35 2.49c.098.564-.115.978-.647 1.242-.435.2-.94.368-1.52.5-.58.132-1.18.24-1.793.324-.615.08-1.197.14-1.742.174-.55.03-1.024.047-1.42.047-1.462 0-2.6-.205-3.412-.62-.815-.417-1.42-.99-1.82-1.72-.397-.73-.645-1.576-.744-2.54-.1-.96-.15-1.974-.15-3.036v-12.5h-2.49c-.367 0-.615-.076-.745-.226-.136-.148-.203-.39-.203-.72v-2.44c0-.334.068-.582.2-.75.13-.168.38-.246.746-.246h2.54v-5.214zm-7.87.365c0 .4-.033.773-.1 1.12-.064.348-.206.657-.422.922-.217.267-.516.473-.896.626-.384.147-.89.222-1.52.222-.664 0-1.187-.083-1.57-.247-.38-.167-.672-.384-.87-.648-.2-.267-.333-.573-.4-.92-.064-.352-.1-.708-.1-1.075 0-.795.192-1.47.574-2.017.384-.548 1.17-.822 2.366-.822 1.23 0 2.023.26 2.39.772.364.515.55 1.204.55 2.067zm-.3 29.61v.04H273.1l-.004-.04V42.53c0-.633.334-.95.997-.95h3.537c.365 0 .606.092.72.276.12.18.174.406.174.673v22.51z"/><path fill-rule="evenodd" clip-rule="evenodd" fill="#9FB33E" d="M267.503 0l-28.425 65.102H0V0z"/><path fill-rule="evenodd" clip-rule="evenodd" fill="#8AA13F" d="M255.037 0h12.466L237.74 65.102 255.037 0z"/><path fill-rule="evenodd" clip-rule="evenodd" fill="#6D8B3E" d="M268.698 0l-34.666 79h-2.39l34.664-79h2.392z"/><path d="M31.538 38.815v11.768h-9.435v-36.29h22.604v8.295h-13.17v7.932h11.666v8.295H31.538zm14.984-6.325c0-25.092 37.224-25.092 37.224 0 0 25.144-37.224 25.144-37.224 0zm27.736 0c0-13.064-18.197-13.064-18.197 0 0 13.17 18.2 13.17 18.2 0zm22.657 9.747h13.168v8.347h-22.5v-36.29h9.332v27.943zm25.715 0h13.17v8.347h-22.5v-36.29h9.33v27.943zm14.207-9.747c0-25.092 37.224-25.092 37.224 0 0 25.144-37.222 25.144-37.222 0zm27.736 0c0-13.064-18.197-13.064-18.197 0 0 13.17 18.197 13.17 18.197 0zm35.36-17.626l6.17 19.286h.154l1.607-6.17 4.614-13.686h9.228v1.4l-12.598 35.253h-5.34l-5.806-17.47h-.156L192 50.947h-5.133l-12.753-35.254v-1.4h9.384l4.666 13.687 1.607 6.17h.158l6.065-19.286h3.94z" fill="#fff"/></svg>