<?xml version="1.0" encoding="UTF-8"?>
<svg width="162px" height="103px" viewBox="0 0 162 103" version="1.1" xmlns="http://www.w3.org/2000/svg" xmlns:xlink="http://www.w3.org/1999/xlink">
    <!-- Generator: Sketch 48.2 (47327) - http://www.bohemiancoding.com/sketch -->
    <title>E-food</title>
    <desc>Created with Sketch.</desc>
    <defs></defs>
    <g id="Landing-B" stroke="none" stroke-width="1" fill="none" fill-rule="evenodd" transform="translate(-211.000000, -3452.000000)" opacity="0.699999988">
        <g id="Sponsors" transform="translate(1.000000, 2823.000000)" fill="#E2191A">
            <g id="Logos" style="mix-blend-mode: luminosity;" transform="translate(210.000000, 262.000000)">
                <g id="E-food" transform="translate(0.000000, 367.000000)">
                    <path d="M82.125,6.793775 C82.13625,6.793775 82.14975,6.796025 82.161,6.796025 C82.49175,6.796025 82.76625,6.537275 82.78425,6.204275 C82.8045,5.860025 82.54125,5.563025 82.19475,5.542775 C81.9855,5.531525 81.774,5.522525 81.5625,5.513525 C81.234,5.495525 80.928,5.767775 80.91225,6.112025 C80.89875,6.458525 81.1665,6.748775 81.51075,6.762275 C81.7155,6.771275 81.92025,6.782525 82.125,6.793775" id="Fill-29"></path>
                    <path d="M89.43075,7.79345 C89.47575,7.8047 89.52075,7.8092 89.56575,7.8092 C89.8515,7.8092 90.11025,7.60895 90.1755,7.31645 C90.24975,6.97895 90.03825,6.64595 89.70075,6.5717 C89.49375,6.5267 89.289,6.4817 89.082,6.43895 C88.74225,6.3692 88.4115,6.58745 88.34175,6.92495 C88.272,7.2647 88.49025,7.59545 88.83,7.6652 C89.03025,7.70795 89.2305,7.74845 89.43075,7.79345" id="Fill-31"></path>
                    <path d="M99.845775,11.474 C99.935775,11.519 100.030275,11.53925 100.124775,11.53925 C100.354275,11.53925 100.574775,11.41325 100.685025,11.195 C100.840275,10.8845 100.714275,10.50875 100.406025,10.35575 C100.217025,10.26125 100.028025,10.16675 99.836775,10.0745 C99.524025,9.926 99.150525,10.05425 98.999775,10.367 C98.849025,10.6775 98.981775,11.05325 99.292275,11.204 C99.476775,11.294 99.661275,11.38175 99.845775,11.474" id="Fill-33"></path>
                    <path d="M117.1494,77.251175 C117.03465,77.422175 116.91765,77.590925 116.80065,77.761925 C116.60265,78.045425 116.67465,78.432425 116.95815,78.632675 C117.06615,78.706925 117.19215,78.742925 117.31365,78.742925 C117.51165,78.742925 117.7074,78.650675 117.8289,78.475175 C117.94815,78.301925 118.06965,78.130925 118.18665,77.953175 C118.38015,77.669675 118.3059,77.280425 118.0179,77.084675 C117.73215,76.891175 117.3429,76.965425 117.1494,77.251175" id="Fill-35"></path>
                    <path d="M92.997,8.73395 C93.05775,8.75195 93.12075,8.7632 93.18375,8.7632 C93.44925,8.7632 93.699,8.58995 93.78,8.3177 C93.8835,7.9892 93.69675,7.64045 93.366,7.53695 C93.1635,7.47395 92.96325,7.41545 92.76075,7.35695 C92.43,7.25795 92.08125,7.4492 91.98225,7.77995 C91.8855,8.11295 92.07675,8.45945 92.4075,8.5562 C92.6055,8.61245 92.80125,8.6732 92.997,8.73395" id="Fill-37"></path>
                    <path d="M109.460025,17.738225 C109.637775,17.738225 109.811025,17.663975 109.934775,17.517725 C110.162025,17.256725 110.130525,16.860725 109.869525,16.637975 C109.707525,16.498475 109.547775,16.363475 109.385775,16.226225 C109.118025,16.005725 108.724275,16.041725 108.503775,16.307225 C108.283275,16.572725 108.317025,16.966475 108.582525,17.189225 C108.740025,17.319725 108.897525,17.452475 109.052775,17.587475 C109.172025,17.688725 109.316025,17.738225 109.460025,17.738225" id="Fill-39"></path>
                    <path d="M85.7988,7.147475 C85.82805,7.149725 85.8573,7.151975 85.88655,7.151975 C86.19255,7.151975 86.4603,6.924725 86.50305,6.611975 C86.5503,6.267725 86.3118,5.954975 85.9698,5.905475 C85.76055,5.878475 85.5513,5.851475 85.34205,5.824475 C85.00005,5.783975 84.68505,6.026975 84.64455,6.368975 C84.6018,6.715475 84.84705,7.025975 85.18905,7.066475 C85.3938,7.093475 85.5963,7.118225 85.7988,7.147475" id="Fill-41"></path>
                    <path d="M103.08015,13.258025 C103.17915,13.318775 103.2939,13.348025 103.40415,13.348025 C103.6134,13.348025 103.82265,13.242275 103.93965,13.046525 C104.1174,12.751775 104.0229,12.367025 103.72815,12.187025 C103.54815,12.079025 103.3659,11.971025 103.18365,11.863025 C102.88665,11.687525 102.50415,11.788775 102.32865,12.085775 C102.15315,12.382775 102.25215,12.765275 102.54915,12.940775 C102.7269,13.046525 102.9024,13.150025 103.08015,13.258025" id="Fill-43"></path>
                    <path d="M36.3141,36.91385 C35.9856,36.8036 35.63235,36.98135 35.52435,37.3121 C35.4591,37.51235 35.3916,37.71035 35.33085,37.9106 C35.2251,38.2436 35.40735,38.59235 35.7381,38.6981 C35.8011,38.71835 35.8641,38.72735 35.9271,38.72735 C36.1926,38.72735 36.43785,38.55635 36.52335,38.2886 C36.5841,38.09285 36.64935,37.8971 36.71235,37.7036 C36.82035,37.3751 36.6426,37.02185 36.3141,36.91385" id="Fill-45"></path>
                    <path d="M112.2012,20.285 C112.36095,20.285 112.5207,20.2265 112.63995,20.105 C112.88745,19.862 112.8897,19.466 112.64445,19.2185 C112.49595,19.07 112.34745,18.9215 112.1967,18.773 C111.9492,18.53225 111.5532,18.5345 111.3102,18.782 C111.06945,19.02725 111.07395,19.42325 111.3192,19.6685 C111.46545,19.81025 111.6117,19.9565 111.7557,20.1005 C111.8772,20.22425 112.0392,20.285 112.2012,20.285" id="Fill-47"></path>
                    <path d="M43.754175,81.118475 C43.891425,81.118475 44.028675,81.073475 44.143425,80.981225 C44.413425,80.767475 44.458425,80.373725 44.244675,80.101475 C44.116425,79.943975 43.990425,79.781975 43.866675,79.617725 C43.655175,79.345475 43.261425,79.291475 42.986925,79.505225 C42.712425,79.716725 42.662925,80.110475 42.874425,80.382725 C43.002675,80.551475 43.133175,80.715725 43.263675,80.882225 C43.387425,81.037475 43.569675,81.118475 43.754175,81.118475" id="Fill-49"></path>
                    <path d="M41.54805,78.099425 C41.6673,78.099425 41.7888,78.063425 41.8968,77.991425 C42.1848,77.800175 42.25905,77.410925 42.0678,77.122925 C41.95305,76.951925 41.84055,76.783175 41.72805,76.612175 C41.5413,76.321925 41.15205,76.240925 40.86405,76.427675 C40.5738,76.616675 40.49055,77.005925 40.67955,77.293925 C40.7943,77.469425 40.9113,77.647175 41.0283,77.822675 C41.1498,78.000425 41.3478,78.099425 41.54805,78.099425" id="Fill-51"></path>
                    <path d="M114.723675,23.046875 C114.865425,23.046875 115.009425,22.999625 115.126425,22.900625 C115.389675,22.677875 115.425675,22.281875 115.200675,22.018625 C115.065675,21.856625 114.928425,21.696875 114.791175,21.537125 C114.566175,21.276125 114.170175,21.246875 113.909175,21.474125 C113.645925,21.699125 113.618925,22.095125 113.843925,22.356125 C113.978925,22.513625 114.111675,22.668875 114.244425,22.824125 C114.368175,22.972625 114.545925,23.046875 114.723675,23.046875" id="Fill-53"></path>
                    <path d="M36.9612,35.162675 C37.0377,35.196425 37.1187,35.209925 37.19745,35.209925 C37.44495,35.209925 37.6767,35.063675 37.77795,34.820675 C37.85445,34.631675 37.9332,34.440425 38.0142,34.251425 C38.1492,33.931925 38.0007,33.565175 37.68345,33.427925 C37.3662,33.295175 36.9972,33.441425 36.8622,33.760925 C36.77895,33.954425 36.69795,34.152425 36.61695,34.348175 C36.48645,34.665425 36.63945,35.029925 36.9612,35.162675" id="Fill-55"></path>
                    <path d="M117.014175,26.0045 C117.140175,26.0045 117.266175,25.96625 117.376425,25.8875 C117.659925,25.68725 117.722925,25.298 117.524925,25.01675 C117.401175,24.8435 117.279675,24.6725 117.153675,24.5015 C116.948925,24.22475 116.557425,24.164 116.278425,24.3665 C115.999425,24.57125 115.938675,24.965 116.143425,25.24175 C116.264925,25.40825 116.384175,25.57475 116.503425,25.74125 C116.624925,25.91225 116.818425,26.0045 117.014175,26.0045" id="Fill-57"></path>
                    <path d="M106.5222,15.420275 C106.7157,15.420275 106.90695,15.330275 107.02845,15.161525 C107.23095,14.880275 107.1702,14.488775 106.88895,14.286275 C106.71795,14.162525 106.54695,14.041025 106.37595,13.919525 C106.09245,13.719275 105.70095,13.786775 105.50295,14.068025 C105.3027,14.351525 105.3702,14.743025 105.6537,14.941025 C105.8202,15.060275 105.98895,15.181775 106.15545,15.301025 C106.2657,15.379775 106.39395,15.420275 106.5222,15.420275" id="Fill-59"></path>
                    <path d="M45.494325,22.297625 C45.629325,22.144625 45.764325,21.987125 45.901575,21.836375 C46.133325,21.577625 46.110825,21.181625 45.852075,20.952125 C45.593325,20.722625 45.199575,20.745125 44.967825,21.001625 C44.828325,21.156875 44.688825,21.314375 44.551575,21.476375 C44.322075,21.737375 44.351325,22.133375 44.610075,22.358375 C44.729325,22.461875 44.875575,22.513625 45.021825,22.513625 C45.197325,22.513625 45.370575,22.439375 45.494325,22.297625" id="Fill-61"></path>
                    <path d="M48.027825,19.614725 C48.174075,19.470725 48.322575,19.326725 48.471075,19.187225 C48.723075,18.948725 48.732075,18.550475 48.493575,18.300725 C48.255075,18.050975 47.859075,18.041975 47.609325,18.278225 C47.456325,18.424475 47.303325,18.570725 47.152575,18.719225 C46.905075,18.959975 46.902825,19.355975 47.143575,19.603475 C47.265075,19.729475 47.427075,19.792475 47.591325,19.792475 C47.748825,19.792475 47.906325,19.733975 48.027825,19.614725" id="Fill-63"></path>
                    <path d="M77.822775,6.758675 C78.027525,6.749675 78.232275,6.742925 78.437025,6.736175 C78.781275,6.727175 79.055775,6.441425 79.046775,6.094925 C79.037775,5.750675 78.745275,5.478425 78.403275,5.487425 C78.194025,5.494175 77.984775,5.496425 77.775525,5.505425 C77.429025,5.518925 77.159025,5.811425 77.172525,6.155675 C77.186025,6.493175 77.462775,6.758675 77.798025,6.758675 L77.822775,6.758675 Z" id="Fill-65"></path>
                    <path d="M39.3354,30.0671 C39.0294,29.90735 38.6514,30.02435 38.4894,30.33035 C38.3904,30.5171 38.29365,30.7061 38.19915,30.89285 C38.04165,31.2011 38.16315,31.5791 38.47365,31.73435 C38.56365,31.7816 38.6604,31.80185 38.75715,31.80185 C38.9844,31.80185 39.20265,31.6781 39.31515,31.45985 C39.4074,31.2776 39.5019,31.09535 39.59865,30.9131 C39.7584,30.60485 39.6414,30.22685 39.3354,30.0671" id="Fill-67"></path>
                    <path d="M118.40625,27.4436 C118.1115,27.62585 118.01925,28.0106 118.2015,28.30535 C118.3095,28.4786 118.413,28.6541 118.51875,28.82735 C118.63575,29.02535 118.84275,29.1356 119.0565,29.1356 C119.16675,29.1356 119.277,29.10635 119.37825,29.04785 C119.673,28.87235 119.76975,28.4876 119.59425,28.18835 C119.48625,28.00835 119.37825,27.82835 119.268,27.6506 C119.08575,27.3536 118.69875,27.26135 118.40625,27.4436" id="Fill-69"></path>
                    <path d="M40.588875,28.537775 C40.798125,28.537775 41.002875,28.432025 41.122125,28.238525 C41.230125,28.065275 41.338125,27.892025 41.448375,27.718775 C41.635125,27.426275 41.549625,27.039275 41.257125,26.852525 C40.964625,26.668025 40.579875,26.753525 40.393125,27.046025 C40.278375,27.223775 40.168125,27.403775 40.057875,27.583775 C39.875625,27.876275 39.967875,28.263275 40.260375,28.443275 C40.361625,28.506275 40.476375,28.537775 40.588875,28.537775" id="Fill-71"></path>
                    <path d="M50.771025,17.145125 C50.928525,17.012375 51.088275,16.884125 51.245775,16.753625 C51.518025,16.537625 51.556275,16.143875 51.340275,15.873875 C51.124275,15.606125 50.728275,15.563375 50.460525,15.781625 C50.298525,15.912125 50.132025,16.047125 49.972275,16.179875 C49.704525,16.402625 49.668525,16.796375 49.889025,17.061875 C50.012775,17.210375 50.192775,17.289125 50.370525,17.289125 C50.512275,17.289125 50.654025,17.241875 50.771025,17.145125" id="Fill-73"></path>
                    <path d="M43.187175,25.1783 C43.308675,25.01405 43.430175,24.8498 43.553925,24.68555 C43.763175,24.41105 43.709175,24.0173 43.434675,23.8103 C43.160175,23.60105 42.766425,23.6528 42.557175,23.92955 C42.431175,24.0983 42.302925,24.26705 42.179175,24.43805 C41.974425,24.7148 42.032925,25.10855 42.311925,25.3133 C42.424425,25.39655 42.552675,25.4348 42.683175,25.4348 C42.874425,25.4348 43.063425,25.3448 43.187175,25.1783" id="Fill-75"></path>
                    <path d="M70.37955,7.65935 C70.4223,7.65935 70.4628,7.6571 70.5078,7.64585 C70.70805,7.6076 70.9083,7.5671 71.1108,7.5266 C71.4483,7.46135 71.67105,7.1351 71.6058,6.7931 C71.54055,6.4556 71.21205,6.23285 70.87455,6.2981 C70.66755,6.33635 70.46055,6.3791 70.25355,6.42185 C69.9138,6.48935 69.6978,6.82235 69.76755,7.15985 C69.8283,7.45685 70.0893,7.65935 70.37955,7.65935" id="Fill-77"></path>
                    <path d="M66.757275,8.5625 C66.815775,8.5625 66.874275,8.5535 66.932775,8.53775 C67.130775,8.4815 67.324275,8.423 67.522275,8.369 C67.855275,8.27675 68.048775,7.9325 67.958775,7.59725 C67.864275,7.2665 67.520025,7.07075 67.187025,7.163 C66.984525,7.21925 66.782025,7.27775 66.581775,7.33625 C66.248775,7.433 66.059775,7.7795 66.156525,8.11475 C66.237525,8.387 66.487275,8.5625 66.757275,8.5625" id="Fill-79"></path>
                    <path d="M74.146725,7.052975 C74.349225,7.025975 74.553975,7.005725 74.756475,6.983225 C75.100725,6.944975 75.350475,6.636725 75.312225,6.292475 C75.273975,5.950475 74.965725,5.700725 74.623725,5.738975 C74.412225,5.761475 74.202975,5.786225 73.995975,5.808725 C73.651725,5.851475 73.406475,6.161975 73.449225,6.506225 C73.487475,6.823475 73.757475,7.057475 74.070225,7.057475 C74.094975,7.057475 74.119725,7.055225 74.146725,7.052975" id="Fill-81"></path>
                    <path d="M56.490525,12.998825 C56.598525,12.998825 56.706525,12.971825 56.807775,12.913325 C56.983275,12.809825 57.161025,12.708575 57.338775,12.605075 C57.640275,12.436325 57.743775,12.053825 57.572775,11.752325 C57.404025,11.453075 57.021525,11.349575 56.720025,11.518325 C56.537775,11.624075 56.355525,11.727575 56.173275,11.833325 C55.876275,12.008825 55.775025,12.391325 55.950525,12.690575 C56.067525,12.888575 56.276775,12.998825 56.490525,12.998825" id="Fill-83"></path>
                    <path d="M63.218475,9.75995 C63.294975,9.75995 63.369225,9.74645 63.445725,9.7172 C63.634725,9.64295 63.825975,9.5732 64.017225,9.50345 C64.341225,9.38195 64.507725,9.02195 64.388475,8.6957 C64.269225,8.37395 63.909225,8.2097 63.585225,8.3267 C63.387225,8.40095 63.189225,8.4752 62.993475,8.54945 C62.671725,8.67545 62.511975,9.0377 62.635725,9.3572 C62.730225,9.6092 62.968725,9.75995 63.218475,9.75995" id="Fill-85"></path>
                    <path d="M53.34525,15.020225 C53.469,15.020225 53.59275,14.981975 53.703,14.905475 C53.8695,14.788475 54.0405,14.673725 54.20925,14.556725 C54.495,14.363225 54.567,13.971725 54.3735,13.685975 C54.18,13.402475 53.79075,13.328225 53.50275,13.523975 C53.3295,13.640975 53.1585,13.760225 52.98525,13.881725 C52.70175,14.079725 52.632,14.471225 52.83225,14.752475 C52.95375,14.925725 53.14725,15.020225 53.34525,15.020225" id="Fill-87"></path>
                    <path d="M59.7897,11.24315 C59.88195,11.24315 59.9742,11.2229 60.06195,11.18015 C60.2442,11.0924 60.43095,11.00465 60.61545,10.9169 C60.9282,10.7729 61.0632,10.3994 60.9192,10.08665 C60.77295,9.7739 60.4017,9.63665 60.08895,9.78515 C59.8977,9.8729 59.70645,9.9629 59.51745,10.0529 C59.20695,10.20365 59.0742,10.57715 59.22495,10.88765 C59.33295,11.1104 59.5557,11.24315 59.7897,11.24315" id="Fill-89"></path>
                    <path d="M96.475275,9.962225 C96.551775,9.993725 96.628275,10.007225 96.707025,10.007225 C96.954525,10.007225 97.188525,9.856475 97.287525,9.613475 C97.418025,9.291725 97.260525,8.927225 96.941025,8.798975 C96.745275,8.720225 96.547275,8.643725 96.351525,8.569475 C96.029775,8.443475 95.667525,8.605475 95.541525,8.927225 C95.417775,9.253475 95.579775,9.613475 95.903775,9.734975 C96.095025,9.811475 96.284025,9.885725 96.475275,9.962225" id="Fill-91"></path>
                    <path d="M64.50615,94.5854 C64.1799,94.4684 63.82215,94.6394 63.7074,94.96565 C63.59265,95.28965 63.7614,95.64965 64.08765,95.76215 C64.28565,95.83415 64.48365,95.9039 64.6839,95.9714 C64.7514,95.9939 64.8189,96.00515 64.8864,96.00515 C65.1474,96.00515 65.3904,95.8409 65.47815,95.5799 C65.59065,95.25365 65.41515,94.89815 65.08665,94.78565 C64.89315,94.7204 64.6974,94.6529 64.50615,94.5854" id="Fill-93"></path>
                    <path d="M68.0283,95.671025 C67.6953,95.585525 67.3533,95.783525 67.2633,96.116525 C67.17555,96.451775 67.37355,96.793775 67.7088,96.883775 C67.91355,96.935525 68.1183,96.989525 68.3208,97.039025 C68.37255,97.052525 68.4243,97.059275 68.4738,97.059275 C68.75505,97.059275 69.0093,96.870275 69.0813,96.582275 C69.16455,96.249275 68.9598,95.907275 68.62455,95.826275 C68.42655,95.776775 68.2263,95.722775 68.0283,95.671025" id="Fill-95"></path>
                    <path d="M61.079625,93.209975 C60.764625,93.068225 60.393375,93.209975 60.251625,93.527225 C60.109875,93.839975 60.251625,94.211225 60.566625,94.352975 C60.760125,94.438475 60.953625,94.523975 61.147125,94.607225 C61.228125,94.643225 61.313625,94.661225 61.396875,94.661225 C61.637625,94.661225 61.867125,94.517225 61.970625,94.283225 C62.107875,93.965975 61.963875,93.596975 61.644375,93.459725 C61.455375,93.376475 61.266375,93.295475 61.079625,93.209975" id="Fill-97"></path>
                    <path d="M75.899025,97.0289 C75.694275,97.0109 75.489525,96.9929 75.287025,96.97265 C74.942775,96.93665 74.634525,97.1909 74.603025,97.5374 C74.569275,97.8794 74.821275,98.1854 75.163275,98.21915 C75.374775,98.2394 75.584025,98.2574 75.793275,98.2754 C75.811275,98.27765 75.829275,98.27765 75.847275,98.27765 C76.169025,98.27765 76.443525,98.0279 76.470525,97.7039 C76.499775,97.35965 76.243275,97.0559 75.899025,97.0289" id="Fill-99"></path>
                    <path d="M57.77595,91.557575 C57.47445,91.391075 57.09195,91.501325 56.9277,91.802825 C56.75895,92.104325 56.8692,92.486825 57.1707,92.653325 C57.3552,92.754575 57.54195,92.855825 57.7287,92.954825 C57.8232,93.008825 57.9222,93.029075 58.02345,93.029075 C58.2462,93.029075 58.4622,92.912075 58.5747,92.698325 C58.73895,92.394575 58.62195,92.016575 58.3182,91.852325 C58.13595,91.755575 57.9582,91.656575 57.77595,91.557575" id="Fill-101"></path>
                    <path d="M71.633025,96.46865 C71.291025,96.41015 70.967025,96.6329 70.906275,96.97715 C70.843275,97.31465 71.070525,97.6409 71.410275,97.70165 C71.617275,97.73765 71.824275,97.77365 72.033525,97.80965 C72.067275,97.8164 72.101025,97.81865 72.137025,97.81865 C72.436275,97.81865 72.704025,97.6004 72.753525,97.29215 C72.809775,96.9524 72.578025,96.6284 72.238275,96.57215 C72.035775,96.5384 71.833275,96.5069 71.633025,96.46865" id="Fill-103"></path>
                    <path d="M48.8331,85.067 C48.5811,84.833 48.1851,84.84425 47.94885,85.0985 C47.7126,85.3505 47.72835,85.7465 47.98035,85.9805 C48.13335,86.12675 48.29085,86.2685 48.4461,86.4125 C48.56535,86.5205 48.7161,86.57225 48.86685,86.57225 C49.0356,86.57225 49.2066,86.50475 49.33035,86.36525 C49.5621,86.111 49.54185,85.715 49.28535,85.48325 C49.1346,85.346 48.9816,85.2065 48.8331,85.067" id="Fill-105"></path>
                    <path d="M119.3247,75.585725 C119.5407,75.585725 119.74995,75.475475 119.86695,75.275225 C119.97495,75.092975 120.07845,74.908475 120.18195,74.723975 C120.3507,74.422475 120.2427,74.039975 119.94345,73.871225 C119.64195,73.702475 119.25945,73.810475 119.0907,74.111975 C118.98945,74.289725 118.8882,74.469725 118.7847,74.645225 C118.61145,74.944475 118.7127,75.326975 119.0097,75.502475 C119.1087,75.558725 119.21895,75.585725 119.3247,75.585725" id="Fill-107"></path>
                    <path d="M45.312975,83.28725 C45.454725,83.4425 45.598725,83.59775 45.742725,83.75075 C45.866475,83.88125 46.032975,83.9465 46.199475,83.9465 C46.352475,83.9465 46.505475,83.8925 46.626975,83.78 C46.878975,83.5415 46.892475,83.14775 46.656225,82.8935 C46.514475,82.745 46.374975,82.59425 46.237725,82.44125 C46.005975,82.187 45.609975,82.169 45.353475,82.40075 C45.096975,82.637 45.081225,83.033 45.312975,83.28725" id="Fill-109"></path>
                    <path d="M54.62055,89.63945 C54.33255,89.4482 53.9433,89.5247 53.75205,89.81495 C53.56305,90.10295 53.63955,90.48995 53.92755,90.68345 C54.10305,90.80045 54.2808,90.91295 54.4563,91.02995 C54.56205,91.0952 54.67905,91.12895 54.79605,91.12895 C55.0008,91.12895 55.2033,91.0277 55.32255,90.8432 C55.5093,90.55295 55.42605,90.1637 55.1358,89.97695 C54.96255,89.86895 54.79155,89.7542 54.62055,89.63945" id="Fill-111"></path>
                    <path d="M121.070475,72.2744 C121.304475,72.2744 121.531725,72.1394 121.637475,71.91665 C121.727475,71.72315 121.817475,71.53415 121.905225,71.34065 C122.049225,71.02565 121.909725,70.6544 121.596975,70.51265 C121.281975,70.3664 120.910725,70.5059 120.766725,70.8209 C120.681225,71.00765 120.593475,71.1944 120.505725,71.3789 C120.357225,71.69165 120.492225,72.06515 120.802725,72.21365 C120.890475,72.25415 120.980475,72.2744 121.070475,72.2744" id="Fill-113"></path>
                    <path d="M78.9696,97.182575 L78.9606,97.182575 C78.6186,97.182575 78.3396,97.454825 78.3351,97.796825 C78.32835,98.141075 78.6051,98.426825 78.94935,98.433575 C79.16085,98.438075 79.37235,98.438075 79.5816,98.440325 L79.58385,98.440325 C79.9281,98.440325 80.20935,98.159075 80.20935,97.814825 C80.2116,97.468325 79.93035,97.187075 79.5861,97.184825 C79.38135,97.184825 79.1766,97.184825 78.9696,97.182575" id="Fill-115"></path>
                    <path d="M50.753475,87.57395 C50.539725,87.8462 50.584725,88.23995 50.856975,88.4537 C51.023475,88.5842 51.189975,88.7147 51.356475,88.8407 C51.468975,88.9307 51.603975,88.9712 51.736725,88.9712 C51.925725,88.9712 52.112475,88.88795 52.233975,88.7282 C52.445475,88.4537 52.393725,88.05995 52.119225,87.8507 C51.957225,87.7247 51.795225,87.5987 51.633225,87.4727 C51.363225,87.2567 50.969475,87.30395 50.753475,87.57395" id="Fill-117"></path>
                    <path d="M94.08015,94.83155 C93.88665,94.89455 93.69315,94.9598 93.49965,95.0228 C93.17115,95.12855 92.9889,95.47955 93.0969,95.8103 C93.1824,96.0758 93.4254,96.24455 93.69315,96.24455 C93.7539,96.24455 93.81915,96.2333 93.8844,96.21305 C94.0824,96.15005 94.28265,96.0848 94.48065,96.01505 C94.80915,95.9048 94.98465,95.5493 94.8744,95.22305 C94.76415,94.89455 94.40865,94.71905 94.08015,94.83155" id="Fill-119"></path>
                    <path d="M107.048475,87.93665 C106.886475,88.06265 106.722225,88.18415 106.557975,88.30565 C106.281225,88.51265 106.222725,88.9064 106.427475,89.18315 C106.551225,89.3474 106.740225,89.43515 106.931475,89.43515 C107.061975,89.43515 107.190225,89.39465 107.304975,89.3114 C107.471475,89.18765 107.640225,89.0594 107.808975,88.93115 C108.083475,88.72415 108.135225,88.3304 107.925975,88.0559 C107.716725,87.7814 107.325225,87.72515 107.048475,87.93665" id="Fill-121"></path>
                    <path d="M112.533975,83.008025 C112.392225,83.156525 112.250475,83.305025 112.108725,83.451275 C111.867975,83.701025 111.872475,84.094775 112.119975,84.337775 C112.241475,84.454775 112.398975,84.513275 112.556475,84.513275 C112.720725,84.513275 112.882725,84.450275 113.006475,84.324275 C113.152725,84.173525 113.298975,84.020525 113.442975,83.867525 C113.681475,83.615525 113.670225,83.221775 113.418225,82.981025 C113.168475,82.744775 112.772475,82.756025 112.533975,83.008025" id="Fill-123"></path>
                    <path d="M114.958575,80.2241 C114.830325,80.38385 114.699825,80.54585 114.569325,80.70335 C114.348825,80.9711 114.389325,81.3626 114.654825,81.5831 C114.771825,81.6776 114.911325,81.7271 115.053075,81.7271 C115.233075,81.7271 115.413075,81.64835 115.534575,81.4976 C115.669575,81.3356 115.802325,81.17135 115.935075,81.00935 C116.151075,80.73935 116.108325,80.34335 115.840575,80.12735 C115.568325,79.91135 115.174575,79.9541 114.958575,80.2241" id="Fill-125"></path>
                    <path d="M82.658925,97.090325 C82.314675,97.112825 82.051425,97.412075 82.073925,97.756325 C82.096425,98.084825 82.373175,98.341325 82.699425,98.341325 L82.739925,98.341325 C82.951425,98.325575 83.160675,98.312075 83.369925,98.294075 C83.716425,98.264825 83.970675,97.965575 83.945925,97.619075 C83.916675,97.274825 83.624175,97.016075 83.270925,97.045325 C83.068425,97.063325 82.863675,97.076825 82.658925,97.090325" id="Fill-127"></path>
                    <path d="M104.027175,90.0503 C103.853925,90.1628 103.682925,90.27305 103.507425,90.3788 C103.214925,90.56105 103.124925,90.94805 103.307175,91.24055 C103.424175,91.4318 103.628925,91.5353 103.838175,91.5353 C103.950675,91.5353 104.065425,91.50605 104.168925,91.44305 C104.348925,91.33055 104.524425,91.2203 104.702175,91.10555 C104.994675,90.9188 105.080175,90.52955 104.891175,90.2393 C104.704425,89.9468 104.317425,89.8658 104.027175,90.0503" id="Fill-129"></path>
                    <path d="M109.890675,85.583375 C109.739925,85.720625 109.584675,85.857875 109.431675,85.992875 C109.170675,86.217875 109.143675,86.616125 109.373175,86.872625 C109.496925,87.018875 109.670175,87.088625 109.843425,87.088625 C109.989675,87.088625 110.138175,87.036875 110.255175,86.933375 C110.414925,86.793875 110.570175,86.656625 110.729925,86.514875 C110.986425,86.285375 111.006675,85.887125 110.774925,85.630625 C110.545425,85.374125 110.149425,85.349375 109.890675,85.583375" id="Fill-131"></path>
                    <path d="M100.84455,91.913525 C100.66455,92.010275 100.4823,92.102525 100.3023,92.197025 C99.99405,92.352275 99.87255,92.732525 100.03005,93.040775 C100.14255,93.256775 100.3608,93.380525 100.58805,93.380525 C100.6848,93.380525 100.78155,93.360275 100.8738,93.310775 C101.06055,93.214025 101.2473,93.117275 101.43405,93.018275 C101.7378,92.856275 101.85255,92.476025 101.69055,92.170025 C101.52855,91.866275 101.15055,91.751525 100.84455,91.913525" id="Fill-133"></path>
                    <path d="M86.3262,96.699275 C85.9842,96.748775 85.74795,97.068275 85.7997,97.410275 C85.8447,97.720775 86.11245,97.943525 86.41845,97.943525 C86.4477,97.943525 86.4792,97.943525 86.50845,97.936775 C86.7177,97.905275 86.92695,97.873775 87.13395,97.840025 C87.47595,97.783775 87.7077,97.462025 87.65145,97.122275 C87.5952,96.780275 87.2757,96.548525 86.9337,96.604775 C86.7312,96.636275 86.5287,96.667775 86.3262,96.699275" id="Fill-135"></path>
                    <path d="M90.546975,95.86205 C90.346725,95.91155 90.148725,95.96105 89.948475,96.00605 C89.610975,96.08705 89.403975,96.4223 89.482725,96.75755 C89.547975,97.04555 89.806725,97.2413 90.090225,97.2413 C90.137475,97.2413 90.184725,97.2368 90.234225,97.22555 C90.441225,97.1783 90.643725,97.1288 90.848475,97.07705 C91.185975,96.9938 91.388475,96.6563 91.305225,96.3188 C91.221975,95.9858 90.879975,95.78105 90.546975,95.86205" id="Fill-137"></path>
                    <path d="M97.523325,93.508775 C97.334325,93.589775 97.145325,93.670775 96.956325,93.747275 C96.636825,93.882275 96.486075,94.246775 96.618825,94.568525 C96.720075,94.807025 96.951825,94.955525 97.197075,94.955525 C97.278075,94.955525 97.359075,94.937525 97.437825,94.903775 C97.631325,94.825025 97.824825,94.744025 98.018325,94.660775 C98.335575,94.521275 98.481825,94.154525 98.344575,93.837275 C98.207325,93.520025 97.840575,93.373775 97.523325,93.508775" id="Fill-139"></path>
                    <path d="M83.370825,2.838725 C101.402325,4.204475 116.423325,15.119225 123.868575,30.248225 C124.491825,30.209975 125.115075,30.173975 125.740575,30.140225 C118.149075,14.138225 102.426075,2.546225 83.501325,1.110725 C58.598325,-0.774775 36.521325,15.557975 30.358575,38.870225 C30.963825,38.847725 31.569075,38.818475 32.174325,38.793725 C38.314575,16.554725 59.498325,1.027475 83.370825,2.838725" id="Fill-141"></path>
                    <path d="M75.921975,101.0717 C59.384475,99.8162 45.378225,90.53495 37.426725,77.33645 C36.780975,77.37695 36.132975,77.41295 35.487225,77.4512 C43.629975,91.5272 58.351725,101.4767 75.791475,102.7997 C99.294975,104.57945 120.278475,90.12995 127.743975,68.90345 C127.120725,68.9327 126.499725,68.96195 125.876475,68.9957 C118.464975,89.13545 98.383725,102.77495 75.921975,101.0717" id="Fill-143"></path>
                    <path d="M112.541625,25.206875 L84.756375,26.190125 C84.130875,26.221625 82.735875,27.069875 81.770625,28.080125 C78.946875,31.043375 77.878125,30.955625 77.038875,31.002875 C72.581625,31.254875 57.817125,31.716125 57.342375,31.756625 C56.777625,31.806125 56.215125,30.926375 56.773125,30.879125 C57.328875,30.831875 73.456875,29.535875 73.456875,29.535875 C73.456875,29.535875 74.188125,29.430125 74.122875,28.892375 C74.064375,28.404125 73.400625,28.451375 73.400625,28.451375 C73.400625,28.451375 57.009375,29.196125 56.494125,29.241125 C55.981125,29.283875 55.749375,28.415375 56.269125,28.370375 C56.786625,28.327625 73.162125,26.399375 73.627875,26.358875 C74.093625,26.313875 74.226375,26.050625 74.206125,25.821125 C74.185875,25.571375 74.012625,25.389125 73.546875,25.425125 C73.081125,25.461125 56.622375,26.428625 56.104875,26.471375 C55.587375,26.516375 55.668375,25.620875 56.181375,25.575875 C56.694375,25.533125 72.968625,23.400125 72.968625,23.400125 C72.968625,23.400125 73.677375,23.298875 73.634625,22.810625 C73.582875,22.227875 72.838125,22.322375 72.838125,22.322375 C72.838125,22.322375 56.725875,23.789375 56.167875,23.838875 C55.612125,23.886125 56.017125,22.923125 56.581875,22.878125 C57.056625,22.835375 71.681625,20.776625 76.118625,20.268125 C76.953375,20.171375 77.992875,19.903625 81.277875,22.342625 C82.364625,23.145875 83.941875,23.789375 84.587625,23.634125 L108.032625,20.461625 C101.305125,14.386625 92.588625,10.415375 82.852875,9.677375 C63.102375,8.181125 45.491625,20.466125 39.459375,38.418875 C65.165625,36.848375 90.689625,32.827625 116.373375,30.784625 C115.241625,28.824875 113.965875,26.955125 112.541625,25.206875" id="Fill-145"></path>
                    <path d="M51.005025,83.221325 L78.286275,80.485325 C78.956775,80.501075 104.381775,77.110325 104.858775,77.049575 C105.425775,76.975325 106.397775,82.735325 95.186025,84.987575 C94.715775,85.082075 81.827775,87.579575 77.375025,88.288325 C76.538025,88.421075 75.503025,88.736075 72.080775,86.418575 C70.913025,85.628825 69.356025,85.095575 68.730525,85.199075 L56.605275,87.557075 C62.365275,91.292075 69.113025,93.677075 76.441275,94.235075 C94.702275,95.618825 111.138525,85.219325 118.280025,69.451325 C93.894525,71.136575 69.657525,74.842325 45.276525,76.779575 C46.964025,79.112825 48.883275,81.272825 51.005025,83.221325" id="Fill-147"></path>
                    <path d="M17.1693,45.3689 C12.1293,45.3689 7.09155,45.20465 2.0628,44.84465 C4.4343,50.5394 6.8193,56.22515 9.22005,61.90865 C6.19605,67.5584 3.14505,73.19465 0.07155,78.8219 C8.7453,79.8344 17.4033,80.35865 26.13105,80.5049 C22.5063,79.37315 18.89955,78.17165 15.3198,76.89815 C15.9363,66.3884 16.5528,55.87865 17.1693,45.3689" id="Fill-149"></path>
                    <path d="M161.262675,28.208375 C152.577675,27.299375 143.917425,26.878625 135.187425,26.833625 C138.789675,27.832625 142.371675,28.903625 145.935675,30.044375 L144.086175,61.573625 C149.153175,61.600625 154.220175,61.796375 159.273675,62.187875 C156.902175,56.490875 154.517175,50.805125 152.114175,45.126125 C155.142675,39.474125 158.189175,33.833375 161.262675,28.208375" id="Fill-151"></path>
                    <path d="M32.627025,59.556725 C33.542775,58.998725 34.006275,58.269725 34.017525,57.369725 C34.031025,56.683475 33.734025,56.372975 33.128775,56.440475 C32.318775,56.528225 31.544775,56.989475 30.804525,57.824225 C30.066525,58.661225 29.607525,59.527475 29.432025,60.425225 C29.652525,60.418475 29.870775,60.402725 30.093525,60.380225 C31.067775,60.269975 31.911525,59.997725 32.627025,59.556725" id="Fill-153"></path>
                    <path d="M123.282,55.636775 C124.00875,55.591775 124.5195,55.202525 124.81425,54.464525 C124.93575,54.169775 125.064,53.692775 125.199,53.038025 C125.21925,52.941275 125.23275,52.840025 125.235,52.734275 C125.25525,52.095275 124.9425,51.793775 124.2945,51.834275 C123.71625,51.868025 123.26175,52.201025 122.9265,52.824275 C122.6475,53.332775 122.499,53.902025 122.47875,54.532025 C122.454,55.303775 122.72175,55.672775 123.282,55.636775" id="Fill-155"></path>
                    <path d="M107.90325,54.793025 C108.819,53.044775 109.269,51.190775 109.2555,49.237775 C109.24875,48.106025 108.97875,47.235275 108.44775,46.623275 C107.86275,45.975275 107.03925,45.709775 105.975,45.826775 C105.46425,45.883025 105.0345,46.112525 104.68575,46.513025 C104.472,46.760525 104.30775,47.170025 104.1885,47.741525 L102.31425,56.561525 C102.1725,57.261275 102.177,57.722525 102.3255,57.943025 C102.47625,58.150025 102.9285,58.213025 103.68225,58.129775 C105.43275,57.934025 106.839,56.822525 107.90325,54.793025" id="Fill-157"></path>
                    <path d="M86.02515,60.094925 C87.64065,59.917175 88.8849,58.735925 89.7579,56.551175 C90.4329,54.850175 90.8154,52.753175 90.90315,50.262425 C90.97065,48.320675 90.1539,47.443175 88.4574,47.629925 C86.7744,47.816675 85.4964,49.078925 84.6234,51.416675 C84.0564,52.964675 83.7009,54.870425 83.55465,57.129425 C83.4939,58.074425 83.66265,58.812425 84.0564,59.343425 C84.4794,59.944175 85.1364,60.191675 86.02515,60.094925" id="Fill-159"></path>
                    <path d="M68.3271,62.043875 C69.9426,61.866125 71.18685,60.684875 72.05985,58.500125 C72.73485,56.799125 73.1151,54.702125 73.2051,52.211375 C73.2726,50.269625 72.45585,49.392125 70.7616,49.578875 C69.07635,49.765625 67.79835,51.027875 66.92535,53.367875 C66.35835,54.913625 66.00285,56.819375 65.8566,59.078375 C65.79585,60.023375 65.9646,60.763625 66.35835,61.292375 C66.78135,61.893125 67.4361,62.142875 68.3271,62.043875" id="Fill-161"></path>
                    <path d="M24.99705,58.29335 C25.85205,56.81735 27.04905,55.6406 28.58805,54.76535 C29.7603,54.10385 31.1463,53.6831 32.74605,53.50535 C34.2738,53.33885 35.53605,53.46485 36.5328,53.8901 C37.8063,54.43685 38.4498,55.4336 38.4588,56.8826 C38.4723,58.59935 37.30455,60.0146 34.9578,61.1306 C33.08805,62.02385 31.0653,62.5346 28.8963,62.6561 C28.88055,62.86535 28.87155,63.0656 28.87155,63.2546 C28.88505,64.8206 29.5983,65.5271 31.01355,65.37185 C31.67505,65.2976 32.32755,65.0231 32.9688,64.54835 C33.6078,64.0736 34.04655,63.52235 34.28055,62.8946 L37.64655,62.52335 C37.26855,63.59435 36.62955,64.62035 35.7363,65.5946 C34.1838,67.2911 32.27805,68.21585 30.01455,68.3711 C28.2303,68.49035 26.76555,68.11685 25.6158,67.25285 C24.3783,66.30335 23.75055,64.93085 23.73705,63.13985 C23.72355,61.3871 24.1443,59.7716 24.99705,58.29335 Z M40.16205,59.9606 L44.9388,59.3711 L44.32905,61.73135 L39.5523,62.3231 L40.16205,59.9606 Z M45.3348,64.34585 C46.12905,64.2581 46.64205,63.64385 46.87605,62.4986 L48.65355,54.02735 C48.77055,53.4401 48.77955,53.0486 48.6828,52.84835 C48.5208,52.5311 48.2373,52.3961 47.8323,52.43885 L46.74105,52.56035 L47.1888,50.3936 L61.97805,48.76685 L60.57405,55.45835 L58.1868,55.71935 L58.4928,54.1826 C58.5603,53.7686 58.5963,53.4581 58.5963,53.2466 C58.58505,51.9191 57.7323,51.34985 56.03355,51.5366 L54.53955,51.70085 C53.7588,51.78635 53.24355,52.40285 52.99605,53.5481 L52.35255,56.5946 L53.3988,56.47985 C53.73405,56.44385 54.04905,56.25485 54.34155,55.91285 C54.59355,55.62035 54.76005,55.28735 54.83655,54.91385 L55.05255,53.88785 L57.00105,53.67185 L55.49805,60.85835 L53.59905,61.0676 L53.79255,59.8931 C53.86905,59.4386 53.8533,59.1191 53.7453,58.9346 C53.58105,58.63085 53.3088,58.50035 52.93305,58.54085 L51.9228,58.65335 L51.2208,62.0216 C50.9868,63.1646 51.31305,63.6866 52.2018,63.58985 L53.77905,63.41435 L53.3088,65.58335 L44.56305,66.5486 L45.0108,64.38185 L45.3348,64.34585 Z M71.32905,47.39885 C73.34955,47.17835 74.9268,47.6081 76.0608,48.69035 C77.1948,49.77485 77.76855,51.36335 77.7843,53.4581 C77.80455,55.95785 76.8843,58.2641 75.02805,60.38585 C73.0638,62.62685 70.65405,63.90485 67.79655,64.21985 C65.89755,64.4291 64.3338,63.99935 63.1053,62.9351 C61.87905,61.8686 61.2558,60.3566 61.2423,58.4036 C61.22205,55.59785 62.22555,53.11835 64.25955,50.9651 C66.23955,48.88835 68.5953,47.70035 71.32905,47.39885 Z M81.9558,49.0166 C83.9358,46.93985 86.2938,45.75185 89.02755,45.45035 C91.04805,45.2276 92.6253,45.6596 93.7593,46.74185 C94.89105,47.82635 95.46705,49.41485 95.48505,51.50735 C95.5008,54.0071 94.5828,56.3156 92.72655,58.43285 C90.76005,60.67835 88.3503,61.95635 85.49505,62.27135 C83.59605,62.47835 82.0323,62.05085 80.8038,60.98435 C79.5753,59.9201 78.9543,58.4081 78.9408,56.4551 C78.9183,53.64935 79.92405,51.16985 81.9558,49.0166 Z M96.04305,58.73885 L96.5493,58.68485 C97.34355,58.5971 97.85655,57.9806 98.09055,56.83985 L99.8478,48.36635 C99.96255,47.78135 99.9738,47.3876 99.8793,47.1896 C99.71505,46.87235 99.43155,46.7351 99.0243,46.7801 L98.03655,46.89035 L98.4843,44.7236 L105.83955,43.9136 C111.17205,43.32635 113.8563,45.2366 113.89005,49.64885 C113.91255,52.59635 112.8843,55.0196 110.8098,56.92535 C108.92205,58.6691 106.5168,59.7041 103.5963,60.02585 L95.59305,60.9056 L96.04305,58.73885 Z M114.67755,55.0916 C115.10055,54.66185 115.59105,54.42785 116.1423,54.39635 C116.6148,54.36485 116.9883,54.46385 117.26505,54.6866 C117.5418,54.9116 117.6723,55.25585 117.6588,55.7216 C117.63855,56.31335 117.42255,56.8061 117.00855,57.2066 C116.5923,57.60485 116.0883,57.8231 115.4943,57.8591 C115.07355,57.88385 114.71805,57.78035 114.43005,57.5441 C114.1398,57.30785 114.00255,56.9816 114.0138,56.5676 C114.0318,56.0141 114.2523,55.5236 114.67755,55.0916 Z M120.9708,51.73685 C121.80555,51.0101 122.7753,50.61185 123.8778,50.54435 C124.2108,50.52185 124.5438,50.5736 124.8813,50.70185 C125.2683,50.8481 125.5023,51.0596 125.58105,51.33185 L125.8173,50.5556 L128.4813,50.3891 L126.8748,56.7971 C126.36405,58.8311 124.85655,59.92685 122.35455,60.0821 C120.56805,60.19235 119.6928,59.69285 119.7288,58.5836 C119.7558,57.73085 120.26205,57.2741 121.25205,57.21335 C121.59405,57.19085 121.87755,57.2381 122.1003,57.35735 C122.3748,57.50585 122.5053,57.73985 122.4963,58.0571 C122.4873,58.3901 122.3478,58.62185 122.08005,58.7546 C122.0193,58.7861 121.98555,58.83785 121.9833,58.9166 C121.98105,58.9796 122.0328,59.0066 122.13855,58.99985 C122.6898,58.9661 123.1533,58.6826 123.52905,58.1516 C123.82155,57.7376 124.0443,57.2156 124.19505,56.5811 L124.3008,56.1266 C124.13655,56.35835 123.80355,56.56085 123.29955,56.7431 C122.8743,56.9006 122.4918,56.9906 122.1498,57.0131 C121.3443,57.06035 120.7098,56.86235 120.24405,56.41235 C119.7783,55.9646 119.55555,55.3391 119.58255,54.5291 C119.61855,53.4401 120.0798,52.51085 120.9708,51.73685 Z M130.2453,51.35885 L129.4443,51.40835 L129.70305,50.3126 L133.6698,49.99985 L133.29405,51.4601 C133.6338,50.93585 133.99605,50.55785 134.3808,50.31935 C134.7633,50.08085 135.24705,49.94135 135.8343,49.90535 C136.37655,49.8716 136.8243,50.0246 137.1753,50.3621 C137.5263,50.6996 137.69505,51.1361 137.6793,51.6761 C137.65905,52.25435 137.4768,52.74485 137.13255,53.1431 C136.7883,53.5436 136.3293,53.7596 135.7623,53.7956 C135.38655,53.82035 135.0648,53.7326 134.80155,53.53235 C134.53605,53.33435 134.41005,53.0486 134.4213,52.6796 C134.4348,52.3196 134.56305,52.02935 134.81055,51.8066 C135.05805,51.5861 135.35955,51.4826 135.7173,51.49385 C135.6723,51.28685 135.53055,51.18785 135.2943,51.2036 C134.75205,51.23735 134.2683,51.4826 133.84305,51.93935 C133.3638,52.4591 133.0128,53.2061 132.7878,54.1781 L132.22305,56.6756 L129.34755,56.85335 L130.59405,51.93035 C130.6143,51.84935 130.62555,51.78185 130.62555,51.7301 C130.63455,51.46685 130.50855,51.3431 130.2453,51.35885 Z M18.0153,75.56885 C59.33205,75.5486 99.9783,66.2471 141.2883,66.1121 C141.95205,54.76985 142.6158,43.42535 143.2818,32.08085 C101.9673,32.1056 61.32105,41.4071 20.01105,41.5331 C19.34505,52.87985 18.6813,64.22435 18.0153,75.56885 Z" id="Fill-163"></path>
                </g>
            </g>
        </g>
    </g>
</svg>