<?xml version="1.0" encoding="UTF-8" standalone="no"?>
<svg
   xmlns:dc="http://purl.org/dc/elements/1.1/"
   xmlns:cc="http://creativecommons.org/ns#"
   xmlns:rdf="http://www.w3.org/1999/02/22-rdf-syntax-ns#"
   xmlns:svg="http://www.w3.org/2000/svg"
   xmlns="http://www.w3.org/2000/svg"
   viewBox="0 0 1210.6667 328"
   height="328"
   width="1210.6667"
   xml:space="preserve"
   id="svg2"
   version="1.1"><metadata
     id="metadata8"><rdf:RDF><cc:Work
         rdf:about=""><dc:format>image/svg+xml</dc:format><dc:type
           rdf:resource="http://purl.org/dc/dcmitype/StillImage" /></cc:Work></rdf:RDF></metadata><defs
     id="defs6"><clipPath
       id="clipPath22"
       clipPathUnits="userSpaceOnUse"><path
         style="clip-rule:evenodd"
         id="path20"
         d="M 769.023,1229.44 7.64844,715.414 1055.81,7.76953 2103.97,715.422 1342.6,1229.44 1055.81,1035.82 Z" /></clipPath><linearGradient
       id="linearGradient28"
       spreadMethod="pad"
       gradientTransform="matrix(10,0,0,10,-1410,-2980)"
       gradientUnits="userSpaceOnUse"
       y2="295.27301"
       x2="256.06299"
       y1="434.11301"
       x1="265.80301"><stop
         id="stop24"
         offset="0"
         style="stop-opacity:1;stop-color:#2f2064" /><stop
         id="stop26"
         offset="1"
         style="stop-opacity:1;stop-color:#533499" /></linearGradient><clipPath
       id="clipPath38"
       clipPathUnits="userSpaceOnUse"><path
         style="clip-rule:evenodd"
         id="path36"
         d="M 1055.81,2451.13 780.516,2265.27 C 1104.74,2062.51 1309.25,1690.66 1345.59,1231.46 l 758.38,512.01 z M 704.27,2213.79 506.77,2080.45 c 361.07,-157.52 586.01,-531.83 605.8,-1006.31 l 166.59,112.47 c -32.17,462.95 -241.5,835.29 -574.89,1027.18 z M 436.195,2032.8 177.988,1858.48 C 517.906,1801.41 755.457,1544.7 832.68,1186.47 l 222.53,-150.24 c -14.97,479 -246.636,854.07 -619.015,996.57 z M 108.34,1811.45 7.64844,1743.47 768.793,1229.6 c -93.16,323.71 -330.836,547.38 -660.453,581.85 z" /></clipPath><linearGradient
       id="linearGradient44"
       spreadMethod="pad"
       gradientTransform="matrix(10,0,0,10,-1410,-2980)"
       gradientUnits="userSpaceOnUse"
       y2="543.112"
       x2="245.26401"
       y1="400.233"
       x1="245.245"><stop
         id="stop40"
         offset="0"
         style="stop-opacity:1;stop-color:#6f7172" /><stop
         id="stop42"
         offset="1"
         style="stop-opacity:1;stop-color:#c4c5c4" /></linearGradient></defs><g
     transform="matrix(1.3333333,0,0,-1.3333333,0,328)"
     id="g10"><g
       transform="scale(0.1)"
       id="g12"><path
         id="path14"
         style="fill:#a6a8a7;fill-opacity:1;fill-rule:nonzero;stroke:none"
         d="m 2274.12,484.262 290.42,1496.498 h 635.29 l -39.07,-201.33 h -422.78 l -87.27,-449.62 h 371.33 L 2983.4,1130.72 H 2612.08 L 2486.63,484.262 Z m 800.81,0 208.38,1073.718 h 212.51 L 3287.43,484.262 Z m 249.19,1283.988 41.25,212.51 h 212.49 l -41.24,-212.51 z M 3813.9,690.059 c 31.7,0 58.92,9.691 82.46,29.078 23.51,19.383 40.36,44.742 50.91,76.054 h 212.5 L 4155,770.586 c -6.37,-32.813 -19.82,-65.621 -40.36,-98.43 -20.51,-32.808 -58.01,-74.183 -112.44,-124.148 -54.43,-49.953 -129.36,-74.926 -224.81,-74.926 -61.14,0 -114.25,16.398 -159.34,49.207 -45.09,32.805 -73.49,68.973 -85.19,108.496 -11.73,39.512 -17.09,75.297 -16.06,107.36 0.98,32.07 4.52,63.757 10.61,95.074 l 78.58,404.881 c 17.08,87.98 63.6,164.41 139.55,229.29 75.97,64.87 157.95,97.31 245.93,97.31 90.97,0 160.51,-31.7 208.6,-95.07 48.09,-63.38 63.32,-140.56 45.66,-231.53 l -57.29,-295.272 h -427.26 l -30.81,-158.816 c -4.35,-22.375 2.33,-43.621 20.43,-63.754 18.08,-20.141 38.88,-30.199 63.1,-30.199 z m 134.09,662.121 c -29.06,0 -55.92,-9.69 -80.88,-28.7 -25.01,-19.39 -42.4,-53.32 -51.88,-102.16 l -20.19,-104.01 h 214.76 l 20.16,104.01 c 7.47,38.41 5.41,70.09 -6.66,94.32 -12.07,24.24 -37.27,36.54 -75.31,36.54 z m 822.15,628.58 -230.88,-1189.67 c -6.96,-35.789 -6.12,-62.262 3.01,-78.66 9.11,-16.41 31.75,-24.61 68.29,-24.61 h 16.04 l -39.51,-203.558 h -46.98 c -34.31,0 -65.64,3.726 -94.03,11.179 -28.37,7.461 -55.22,22.743 -80.56,45.86 -25.27,23.488 -41.48,53.312 -48.56,89.855 -7.07,36.535 -6.5,76.051 1.61,117.813 l 239.07,1231.791 z m 369.47,-1496.498 21.69,111.851 c -27.82,-35.793 -61.48,-65.25 -100.27,-88.363 -39.17,-23.117 -79.43,-34.668 -121.57,-34.668 -97.3,0 -153.68,26.461 -168.83,79.027 -15.53,52.571 -22.01,90.227 -19.76,113.34 2.17,22.746 7.07,53.688 14.52,92.09 l 110.92,571.531 c 12.37,63.75 44.48,117.8 96.72,162.17 52.21,44.37 110.99,66.74 176.99,66.74 40.63,0 76.26,-10.44 107.61,-31.32 31.02,-20.87 54,-48.47 68.21,-82.76 l 104.18,536.86 h 212.52 L 5352.12,484.262 Z m 143.5,822.068 c -15.6,29.08 -44.1,43.61 -85.11,43.61 -21.25,0 -41.73,-5.59 -61.42,-16.77 -19.61,-10.81 -34.15,-24.22 -43.08,-39.52 -9.38,-15.66 -15.91,-32.06 -19.92,-48.84 -4.06,-17.15 -6.9,-29.82 -8.63,-38.77 l -73.52,-378.782 c -2.84,-14.539 -5.35,-29.457 -7.49,-44.363 -2.1,-14.551 1.23,-33.926 10.48,-57.418 9.23,-23.485 35.25,-35.418 77.77,-35.418 43.99,0 75.58,13.046 94.52,39.515 18.93,26.477 30.71,52.574 35.84,79.039 l 6.22,32.063 75.84,390.714 c 2.38,12.31 4.4,24.61 6.1,37.28 1.8,13.05 -0.68,25.35 -7.6,37.66 z m 564.47,-631.928 c 32.8,0 63.17,10.434 91.08,31.309 27.92,20.879 45.05,47.727 51.43,80.527 7.5,38.774 3.02,67.481 -13.51,86.129 -16.51,18.633 -44.94,35.418 -85.29,50.332 l -39.45,15.653 c -41.57,16.406 -75.73,32.441 -102.52,48.093 -26.79,15.665 -53.36,43.995 -79.68,85.005 -26.35,41.01 -32,100.29 -16.95,177.84 17.08,87.98 62.11,162.54 135.13,223.69 73,61.14 154.25,91.72 243.72,91.72 82.02,0 145.28,-31.32 189.8,-93.96 44.52,-62.64 59.1,-133.47 43.77,-212.51 h -196.84 c 6.07,31.32 0.98,57.04 -15.23,77.18 -16.22,20.14 -40.75,30.2 -73.56,30.2 -29.83,0 -56.59,-11.19 -80.33,-33.56 -23.73,-22.37 -38.63,-49.22 -44.71,-80.53 -6.37,-32.8 -1.6,-58.16 14.33,-76.05 15.91,-17.9 41.2,-33.55 75.89,-46.98 l 65,-22.37 c 37.37,-14.91 66.3,-29.08 86.82,-42.5 20.5,-13.42 39.72,-33.56 57.61,-60.4 17.91,-26.837 30.86,-58.15 38.82,-93.943 7.97,-35.793 8.04,-73.82 0.22,-114.086 -16.78,-86.496 -62.42,-162.179 -136.89,-227.046 -74.48,-64.872 -154.97,-97.301 -241.45,-97.301 -52.2,0 -102.01,14.16 -149.46,42.496 -47.44,28.332 -81.01,66.734 -100.68,115.207 -19.67,48.461 -23.58,103.266 -11.7,164.41 h 199.09 c -6.37,-32.812 -0.25,-60.766 18.38,-83.891 18.63,-23.117 44.35,-34.664 77.16,-34.664 z m 1110.14,118.555 c -17.06,-87.992 -63.75,-163.301 -140.02,-225.934 -76.29,-62.625 -158.43,-93.941 -246.39,-93.941 -47.74,0 -92.69,12.297 -134.9,36.91 -42.2,24.602 -71.89,54.059 -89.1,88.352 -17.2,34.301 -27.19,69.347 -29.93,105.136 -2.75,35.786 -0.52,72.325 6.73,109.61 l 80.75,416.07 c 17.08,87.97 62.39,165.89 135.96,233.75 73.57,67.86 155.1,101.79 244.56,101.79 92.48,0 162.89,-32.81 211.32,-98.44 48.4,-65.61 63.62,-144.65 45.69,-237.1 h -212.51 c 6.21,32.06 2.47,60.77 -11.71,85.75 -13.77,24.97 -37.48,37.27 -70.67,37.27 -19.77,0 -37.34,-4.09 -53.09,-12.3 -16.13,-8.21 -31.28,-20.88 -46.15,-38.03 -14.52,-17.15 -24.96,-42.12 -31.33,-74.94 l -80.74,-416.066 c -7.53,-38.77 -5.26,-69.336 7.19,-91.707 12.05,-22.367 37.84,-33.555 76.99,-33.555 31.69,0 59.34,11.93 82.55,35.426 23.56,23.484 38.39,51.816 44.91,85.371 h 212.5 z m 114.26,-194.984 c -6.95,17.894 -9.82,37.656 -8.69,58.902 1.21,21.625 4.42,45.859 9.65,72.699 l 23.37,120.414 c 15.26,78.672 46.37,137.203 93.78,175.972 47.06,38.78 88.29,64.88 123.11,79.04 35.17,14.17 74.94,21.25 120.05,21.25 h 143.92 l 17.79,91.72 c 4.05,20.88 6.27,38.03 6.64,51.45 0.36,13.41 -5.63,30.58 -18.36,51.45 -12.35,20.88 -33.06,31.31 -61.77,31.31 -30.2,0 -57.36,-9.31 -82.3,-28.33 -24.93,-19.01 -42.46,-43.99 -52.86,-74.56 h -212.52 c 16.78,86.48 62.13,160.69 136.04,222.57 73.89,61.88 154.83,92.84 242.81,92.84 86.5,0 155.88,-30.58 208.07,-92.08 52.25,-61.17 69.84,-135.72 52.69,-224.08 L 7665.07,484.262 h -212.5 l 20.85,107.375 c -29.47,-36.543 -63.46,-65.617 -101.13,-86.875 -38.05,-21.242 -77.72,-31.68 -119.84,-31.68 -94.34,0 -154.46,41.754 -180.47,124.891 z m 237.03,253.14 -10.4,-53.679 c -5.5,-28.336 -0.06,-54.067 15.96,-77.176 16.02,-23.113 40.63,-34.676 74.18,-34.676 18.27,0 36.29,4.477 54.04,13.422 17.79,8.953 32.48,21.254 43.71,36.91 11.62,15.66 20,35.785 25.52,60.391 5.52,24.605 9.28,42.133 11.31,52.57 l 19.97,102.902 h -82.38 c -39.53,0 -73.04,-7.461 -100.16,-22.371 -27.14,-14.914 -44.5,-41.004 -51.75,-78.293 z M 8353.68,1980.76 8122.8,791.09 c -6.96,-35.789 -6.1,-62.262 3.01,-78.66 9.11,-16.41 31.75,-24.61 68.29,-24.61 h 16.04 l -39.53,-203.558 h -46.96 c -34.3,0 -65.64,3.726 -94.03,11.179 -28.37,7.461 -55.22,22.743 -80.57,45.86 -25.26,23.488 -41.47,53.312 -48.54,89.855 -7.08,36.535 -6.51,76.051 1.61,117.813 L 8141.17,1980.76 Z M 8638.93,690.059 c 31.7,0 58.93,9.691 82.44,29.078 23.53,19.383 40.38,44.742 50.93,76.054 h 212.5 l -4.77,-24.605 c -6.37,-32.813 -19.82,-65.621 -40.36,-98.43 -20.52,-32.808 -58.03,-74.183 -112.45,-124.148 -54.43,-49.953 -129.36,-74.926 -224.81,-74.926 -61.14,0 -114.25,16.398 -159.34,49.207 -45.08,32.805 -73.46,68.973 -85.19,108.496 -11.73,39.512 -17.08,75.297 -16.06,107.36 0.98,32.07 4.54,63.757 10.61,95.074 l 78.58,404.881 c 17.08,87.98 63.58,164.41 139.55,229.29 75.98,64.87 157.96,97.31 245.94,97.31 90.97,0 160.5,-31.7 208.59,-95.07 48.1,-63.38 63.32,-140.56 45.66,-231.53 l -57.3,-295.272 H 8586.2 l -30.82,-158.816 c -4.34,-22.375 2.34,-43.621 20.44,-63.754 18.08,-20.141 38.86,-30.199 63.11,-30.199 z m 134.11,662.121 c -29.09,0 -55.96,-9.69 -80.91,-28.7 -25,-19.39 -42.4,-53.32 -51.87,-102.16 l -20.18,-104.01 h 214.72 l 20.2,104.01 c 7.46,38.41 5.41,70.09 -6.68,94.32 -12.08,24.24 -37.27,36.54 -75.28,36.54" /><g
         id="g16"><g
           clip-path="url(#clipPath22)"
           id="g18"><path
             id="path30"
             style="fill:url(#linearGradient28);fill-opacity:1;fill-rule:nonzero;stroke:none"
             d="M 769.023,1229.44 7.64844,715.414 1055.81,7.76953 2103.97,715.422 1342.6,1229.44 1055.81,1035.82 769.023,1229.44" /></g></g><g
         id="g32"><g
           clip-path="url(#clipPath38)"
           id="g34"><path
             id="path46"
             style="fill:url(#linearGradient44);fill-opacity:1;fill-rule:nonzero;stroke:none"
             d="M 1055.81,2451.13 780.516,2265.27 C 1104.74,2062.51 1309.25,1690.66 1345.59,1231.46 l 758.38,512.01 z M 704.27,2213.79 506.77,2080.45 c 361.07,-157.52 586.01,-531.83 605.8,-1006.31 l 166.59,112.47 c -32.17,462.95 -241.5,835.29 -574.89,1027.18 z M 436.195,2032.8 177.988,1858.48 C 517.906,1801.41 755.457,1544.7 832.68,1186.47 l 222.53,-150.24 c -14.97,479 -246.636,854.07 -619.015,996.57 z M 108.34,1811.45 7.64844,1743.47 768.793,1229.6 c -93.16,323.71 -330.836,547.38 -660.453,581.85" /></g></g></g></g></svg>