<?xml version="1.0" encoding="UTF-8"?>
<svg width="175px" height="48px" viewBox="0 0 175 48" version="1.1" xmlns="http://www.w3.org/2000/svg" xmlns:xlink="http://www.w3.org/1999/xlink">
    <!-- Generator: Sketch 48.2 (47327) - http://www.bohemiancoding.com/sketch -->
    <title>GitHub</title>
    <desc>Created with Sketch.</desc>
    <defs></defs>
    <g id="Landing-B" stroke="none" stroke-width="1" fill="none" fill-rule="evenodd" transform="translate(-211.000000, -3207.000000)" opacity="0.699999988">
        <g id="Sponsors" transform="translate(1.000000, 2823.000000)" fill="#100F0F">
            <g id="Logos" style="mix-blend-mode: luminosity;" transform="translate(210.000000, 262.000000)">
                <g id="GitHub" transform="translate(0.000000, 122.000000)">
                    <path d="M33.6353455,20.6985212 L18.9599515,20.6985212 C18.5817697,20.6985212 18.2743758,21.0059152 18.2743758,21.3845818 L18.2743758,28.5593697 C18.2743758,28.9380364 18.5817697,29.2459152 18.9599515,29.2459152 L24.6850424,29.2459152 L24.6850424,38.1603394 C24.6850424,38.1603394 23.3997091,38.5981576 19.8462545,38.5981576 C15.6532848,38.5981576 9.79631515,37.0665212 9.79631515,24.1870061 C9.79631515,11.3050667 15.8952242,9.61003636 21.6208,9.61003636 C26.5769212,9.61003636 28.7126788,10.4827636 30.0707394,10.9031273 C30.4978909,11.0335515 30.8925576,10.6088242 30.8925576,10.2301576 L32.5298909,3.29779394 C32.5298909,3.12033939 32.4697697,2.90700606 32.2680727,2.76203636 C31.7158303,2.36833939 28.3500121,0.48470303 19.8462545,0.48470303 C10.0489212,0.48470303 -4.84848485e-05,4.65294545 -4.84848485e-05,24.6893091 C-4.84848485e-05,44.7261576 11.5054061,47.7118545 21.2009212,47.7118545 C29.2285576,47.7118545 34.0983758,44.2815515 34.0983758,44.2815515 C34.299103,44.1710061 34.3209212,43.8902788 34.3209212,43.7617939 L34.3209212,21.3845818 C34.3209212,21.0059152 34.0140121,20.6985212 33.6353455,20.6985212" id="Fill-1"></path>
                    <path d="M109.263612,2.88552727 C109.263612,2.50395152 108.961067,2.19558788 108.5824,2.19558788 L100.319612,2.19558788 C99.9419152,2.19558788 99.6354909,2.50395152 99.6354909,2.88552727 C99.6354909,2.88746667 99.6374303,18.8540121 99.6374303,18.8540121 L86.7579152,18.8540121 L86.7579152,2.88552727 C86.7579152,2.50395152 86.4539152,2.19558788 86.0762182,2.19558788 L77.8134303,2.19558788 C77.4376727,2.19558788 77.1312485,2.50395152 77.1312485,2.88552727 L77.1312485,46.1233455 C77.1312485,46.5044364 77.4376727,46.8152242 77.8134303,46.8152242 L86.0762182,46.8152242 C86.4539152,46.8152242 86.7579152,46.5044364 86.7579152,46.1233455 L86.7579152,27.6288 L99.6374303,27.6288 C99.6374303,27.6288 99.6151273,46.1218909 99.6151273,46.1233455 C99.6151273,46.5044364 99.9215515,46.8152242 100.299733,46.8152242 L108.581915,46.8152242 C108.960097,46.8152242 109.262642,46.5044364 109.263612,46.1233455 L109.263612,2.88552727 Z" id="Fill-4"></path>
                    <path d="M49.2276364,8.55932121 C49.2276364,5.58380606 46.8421818,3.17992727 43.8991515,3.17992727 C40.9590303,3.17992727 38.5721212,5.58380606 38.5721212,8.55932121 C38.5721212,11.5314424 40.9590303,13.9425939 43.8991515,13.9425939 C46.8421818,13.9425939 49.2276364,11.5314424 49.2276364,8.55932121" id="Fill-6"></path>
                    <path d="M48.6367515,37.0022788 L48.6367515,17.0434909 C48.6367515,16.6648242 48.331297,16.3550061 47.9531152,16.3550061 L39.7165091,16.3550061 C39.3383273,16.3550061 39.0003879,16.7448242 39.0003879,17.1234909 L39.0003879,45.7184 C39.0003879,46.5586424 39.5240242,46.8088242 40.2018424,46.8088242 L47.6229333,46.8088242 C48.4369939,46.8088242 48.6367515,46.4088242 48.6367515,45.7048242 L48.6367515,37.0022788 Z" id="Fill-8"></path>
                    <path d="M140.666085,16.4201212 L132.466812,16.4201212 C132.09057,16.4201212 131.78463,16.7299394 131.78463,17.1115152 L131.78463,38.312 C131.78463,38.312 129.701236,39.8363636 126.74463,39.8363636 C123.788024,39.8363636 123.003539,38.4947879 123.003539,35.5997576 L123.003539,17.1115152 C123.003539,16.7299394 122.698085,16.4201212 122.321842,16.4201212 L113.999903,16.4201212 C113.62463,16.4201212 113.316752,16.7299394 113.316752,17.1115152 L113.316752,36.9995152 C113.316752,45.598303 118.108994,47.7020606 124.701479,47.7020606 C130.110448,47.7020606 134.471176,44.7139394 134.471176,44.7139394 C134.471176,44.7139394 134.678206,46.2887273 134.772752,46.4753939 C134.866327,46.6615758 135.111176,46.849697 135.375903,46.849697 L140.669964,46.8264242 C141.045236,46.8264242 141.353115,46.5161212 141.353115,46.136 L141.350206,17.1115152 C141.350206,16.7299394 141.043782,16.4201212 140.666085,16.4201212" id="Fill-10"></path>
                    <path d="M159.842715,39.8100364 C156.998594,39.7232485 155.069382,38.4330667 155.069382,38.4330667 L155.069382,24.7404606 C155.069382,24.7404606 156.972412,23.5739152 159.307442,23.3654303 C162.26017,23.1011879 165.105261,23.9928242 165.105261,31.036703 C165.105261,38.464097 163.821382,39.9302788 159.842715,39.8100364 M163.076655,15.4488242 C158.419685,15.4488242 155.25217,17.5268848 155.25217,17.5268848 L155.25217,2.8854303 C155.25217,2.50385455 154.946715,2.19549091 154.570473,2.19549091 L146.283927,2.19549091 C145.9072,2.19549091 145.601261,2.50385455 145.601261,2.8854303 L145.601261,46.1232485 C145.601261,46.5048242 145.9072,46.8151273 146.285382,46.8151273 L152.03423,46.8151273 C152.293139,46.8151273 152.489018,46.6813091 152.633988,46.4476121 C152.777018,46.2153697 152.983079,44.4544 152.983079,44.4544 C152.983079,44.4544 156.3712,47.6650667 162.785261,47.6650667 C170.315927,47.6650667 174.634473,43.8454303 174.634473,30.5179152 C174.634473,17.1904 167.737018,15.4488242 163.076655,15.4488242" id="Fill-12"></path>
                    <path d="M72.3846303,16.3512242 L66.1863273,16.3512242 C66.1863273,16.3512242 66.1771152,8.16455758 66.1771152,8.16261818 C66.1771152,7.8528 66.0176,7.69764848 65.6588121,7.69764848 L57.2127515,7.69764848 C56.8845091,7.69764848 56.7080242,7.84261818 56.7080242,8.15825455 L56.7080242,16.6198303 C56.7080242,16.6198303 52.475297,17.6414061 52.1887515,17.7243152 C51.9041455,17.8067394 51.6942061,18.0695273 51.6942061,18.3832242 L51.6942061,23.7005576 C51.6942061,24.0826182 51.9996606,24.3914667 52.3773576,24.3914667 L56.7080242,24.3914667 L56.7080242,37.1837091 C56.7080242,46.6848 63.3732364,47.6181333 67.8702061,47.6181333 C69.9249939,47.6181333 72.3831758,46.9582545 72.7889939,46.8084364 C73.0343273,46.7182545 73.1773576,46.4641939 73.1773576,46.1888 L73.1836606,40.339103 C73.1836606,39.9575273 72.8617212,39.6486788 72.4990545,39.6486788 C72.1378424,39.6486788 71.2137212,39.7960727 70.2624485,39.7960727 C67.2180848,39.7960727 66.1863273,38.3803152 66.1863273,36.5475879 C66.1863273,34.7168 66.1858424,24.3914667 66.1858424,24.3914667 L72.3846303,24.3914667 C72.7623273,24.3914667 73.0687515,24.0826182 73.0687515,23.7005576 L73.0687515,17.0401939 C73.0687515,16.6586182 72.7623273,16.3512242 72.3846303,16.3512242" id="Fill-15"></path>
                </g>
            </g>
        </g>
    </g>
</svg>