<?xml version="1.0" encoding="UTF-8"?>
<svg width="119px" height="45px" viewBox="0 0 119 45" version="1.1" xmlns="http://www.w3.org/2000/svg" xmlns:xlink="http://www.w3.org/1999/xlink">
    <!-- Generator: Sketch 48.2 (47327) - http://www.bohemiancoding.com/sketch -->
    <title>IBM</title>
    <desc>Created with Sketch.</desc>
    <defs></defs>
    <g id="Landing-B" stroke="none" stroke-width="1" fill="none" fill-rule="evenodd" transform="translate(-1036.000000, -3209.000000)" opacity="0.699999988">
        <g id="Sponsors" transform="translate(1.000000, 2823.000000)" fill="#4281BD">
            <g id="Logos" style="mix-blend-mode: luminosity;" transform="translate(210.000000, 262.000000)">
                <g id="IBM" transform="translate(825.000000, 124.000000)">
                    <path d="M116.513067,44.4765333 C115.5184,44.4765333 114.7904,43.6978667 114.7904,42.6925333 C114.7904,41.6978667 115.5184,40.9192 116.513067,40.9192 C117.505067,40.9192 118.227733,41.6978667 118.227733,42.6925333 C118.227733,43.6978667 117.505067,44.4765333 116.513067,44.4765333 M116.513067,40.6472 C115.3824,40.6472 114.467733,41.5672 114.467733,42.6925333 C114.467733,43.8285333 115.3824,44.7485333 116.513067,44.7485333 C117.6384,44.7485333 118.5504,43.8285333 118.5504,42.6925333 C118.5504,41.5672 117.6384,40.6472 116.513067,40.6472" id="Fill-296"></path>
                    <path d="M116.4608,42.5626667 L116.034133,42.5626667 L116.034133,41.752 L116.6848,41.752 C116.9648,41.752 117.255467,41.7946667 117.255467,42.152 C117.255467,42.6186667 116.783467,42.5626667 116.4608,42.5626667 M117.559467,42.1573333 C117.559467,41.7786667 117.351467,41.552 116.751467,41.552 L115.754133,41.552 L115.754133,43.84 L116.034133,43.84 L116.034133,42.784 L116.546133,42.784 L117.1968,43.84 L117.530133,43.84 L116.842133,42.784 C117.247467,42.7733333 117.559467,42.608 117.559467,42.1573333" id="Fill-297"></path>
                    <polygon id="Fill-298" points="0 3.352 21.528 3.352 21.528 0.618666667 0 0.618666667"></polygon>
                    <polygon id="Fill-299" points="0 9.24533333 21.528 9.24533333 21.528 6.51466667 0 6.51466667"></polygon>
                    <polygon id="Fill-300" points="0 38.7146667 21.528 38.7146667 21.528 35.984 0 35.984"></polygon>
                    <polygon id="Fill-301" points="6.152 32.8213333 15.3786667 32.8213333 15.3786667 30.0906667 6.152 30.0906667"></polygon>
                    <polygon id="Fill-302" points="6.152 26.928 15.3786667 26.928 15.3786667 24.1973333 6.152 24.1973333"></polygon>
                    <polygon id="Fill-303" points="6.152 21.032 15.3786667 21.032 15.3786667 18.3013333 6.152 18.3013333"></polygon>
                    <polygon id="Fill-304" points="6.152 15.136 15.3786667 15.136 15.3786667 12.4053333 6.152 12.4053333"></polygon>
                    <polygon id="Fill-305" points="0 44.608 21.528 44.608 21.528 41.8773333 0 41.8773333"></polygon>
                    <polygon id="Fill-306" points="68.1066667 32.8213333 77.3573333 32.8213333 77.3573333 30.0906667 68.1066667 30.0906667"></polygon>
                    <polygon id="Fill-307" points="82.1861333 32.8202667 91.0234667 32.8202667 91.9674667 30.0896 81.2394667 30.0896"></polygon>
                    <polygon id="Fill-308" points="68.1066667 26.928 77.3573333 26.928 77.3573333 24.1973333 68.1066667 24.1973333"></polygon>
                    <polygon id="Fill-309" points="80.164 26.9272 93.044 26.9272 93.9906667 24.1965333 79.2173333 24.1965333"></polygon>
                    <polygon id="Fill-310" points="85.328 18.2994667 68.1066667 18.2994667 68.1066667 21.0301333 77.3546667 21.0301333 77.3546667 18.7741333 78.136 21.0301333 86.2586667 21.0301333"></polygon>
                    <polygon id="Fill-311" points="95.8514667 21.0312 105.102133 21.0312 105.102133 18.3005333 87.8781333 18.3005333 86.9501333 21.0312 95.0621333 21.0312 95.8514667 18.7512"></polygon>
                    <polygon id="Fill-312" points="68.1053333 15.1381333 84.2706667 15.1381333 83.3373333 12.4074667 68.1053333 12.4074667"></polygon>
                    <polygon id="Fill-313" points="95.8506667 32.8213333 105.101333 32.8213333 105.101333 30.0906667 95.8506667 30.0906667"></polygon>
                    <polygon id="Fill-314" points="95.8506667 26.9253333 105.101333 26.9253333 105.101333 24.1946667 95.8506667 24.1946667"></polygon>
                    <polygon id="Fill-315" points="105.1016 12.4064 89.8696 12.4064 88.9362667 15.1370667 105.1016 15.1370667"></polygon>
                    <polygon id="Fill-316" points="95.8506667 44.608 111.266667 44.608 111.266667 41.8773333 95.8506667 41.8773333"></polygon>
                    <polygon id="Fill-317" points="61.9413333 44.608 77.3573333 44.608 77.3573333 41.8773333 61.9413333 41.8773333"></polygon>
                    <polygon id="Fill-318" points="86.2290667 44.6069333 86.9784 44.6069333 87.9224 41.8762667 85.2850667 41.8762667"></polygon>
                    <polygon id="Fill-319" points="95.8506667 38.7146667 111.266667 38.7146667 111.266667 35.984 95.8506667 35.984"></polygon>
                    <polygon id="Fill-320" points="61.9413333 38.7146667 77.3573333 38.7146667 77.3573333 35.984 61.9413333 35.984"></polygon>
                    <polygon id="Fill-321" points="84.2069333 38.7136 89.0016 38.7136 89.9456 35.9829333 83.2629333 35.9829333"></polygon>
                    <polygon id="Fill-322" points="92.9178667 3.35173333 111.2672 3.35173333 111.2672 0.6184 93.8485333 0.6184"></polygon>
                    <polygon id="Fill-323" points="79.3578667 0.617333333 61.9392 0.617333333 61.9392 3.35066667 80.2885333 3.35066667"></polygon>
                    <polygon id="Fill-324" points="90.9282667 9.2448 111.266933 9.2448 111.266933 6.51413333 91.8589333 6.51413333"></polygon>
                    <polygon id="Fill-325" points="81.3488 6.51306667 61.9408 6.51306667 61.9408 9.24373333 82.2794667 9.24373333"></polygon>
                    <polygon id="Fill-326" points="30.936 15.1386667 40.1866667 15.1386667 40.1866667 12.408 30.936 12.408"></polygon>
                    <polygon id="Fill-327" points="30.936 32.8213333 40.1866667 32.8213333 40.1866667 30.0906667 30.936 30.0906667"></polygon>
                    <path d="M44.0584,0.617333333 L43.2264,0.617333333 L24.7704,0.617333333 L24.7704,3.35066667 L55.1144,3.35066667 C52.3730667,1.108 48.3037333,0.617333333 44.0584,0.617333333" id="Fill-328"></path>
                    <path d="M57.7029333,6.51306667 L24.7696,6.51306667 L24.7696,9.24373333 L58.7962667,9.24373333 C58.6069333,8.2864 58.0309333,7.04373333 57.7029333,6.51306667" id="Fill-329"></path>
                    <path d="M54.496,24.1954667 L30.936,24.1954667 L30.936,26.9261333 L57.2666667,26.9261333 C56.6186667,25.9741333 55.3653333,24.7394667 54.496,24.1954667" id="Fill-330"></path>
                    <path d="M59.1744452,12.4064 L49.4330667,12.4064 L49.4330667,15.1370667 L58.7317547,15.1370667 C58.9450885,14.4864 59.1770891,13.4224 59.1744452,12.4064" id="Fill-331"></path>
                    <path d="M49.4336,30.0885333 L49.4336,32.8192 L59.2549333,32.8192 C59.2309333,31.7045333 59.0282667,30.6938667 58.7749333,30.0885333 L49.4336,30.0885333 Z" id="Fill-332"></path>
                    <path d="M24.7693333,38.7136 L57.876,38.7136 C58.172,38.3189333 58.8653333,36.6789333 58.9853333,35.9829333 L24.7693333,35.9829333 L24.7693333,38.7136 Z" id="Fill-333"></path>
                    <path d="M24.7693333,44.6069333 L43.2253333,44.6069333 L44.564,44.6069333 C48.8093333,44.6069333 52.4733333,43.9909333 55.148,41.8762667 L24.7693333,41.8762667 L24.7693333,44.6069333 Z" id="Fill-334"></path>
                    <path d="M30.9349333,21.0312 L54.5136,21.0312 C55.5562667,20.2845333 56.4602667,19.3565333 57.2256,18.3005333 L30.9349333,18.3005333 L30.9349333,21.0312 Z" id="Fill-335"></path>
                </g>
            </g>
        </g>
    </g>
</svg>