<?xml version="1.0" encoding="utf-8"?>
<!-- Generator: Adobe Illustrator 17.0.0, SVG Export Plug-In . SVG Version: 6.00 Build 0)  -->
<!DOCTYPE svg PUBLIC "-//W3C//DTD SVG 1.1//EN" "http://www.w3.org/Graphics/SVG/1.1/DTD/svg11.dtd">
<svg version="1.1" id="Layer_1" xmlns="http://www.w3.org/2000/svg" xmlns:xlink="http://www.w3.org/1999/xlink" x="0px" y="0px"
	 width="185.203px" height="56.98px" viewBox="0 0 185.203 56.98" enable-background="new 0 0 185.203 56.98" xml:space="preserve">
<g>
	<g>
		<g>
			<linearGradient id="SVGID_1_" gradientUnits="userSpaceOnUse" x1="11.788" y1="57.2807" x2="21.8498" y2="-0.4071">
				<stop  offset="0.25" style="stop-color:#0062A7"/>
				<stop  offset="0.7552" style="stop-color:#5EC5ED"/>
			</linearGradient>
			<path fill="url(#SVGID_1_)" d="M15.295,54.552c-0.283,1.605-1.85,2.671-3.5,2.38l0,0c-1.65-0.291-2.758-1.828-2.475-3.433
				l9.005-51.071c0.283-1.605,1.85-2.671,3.5-2.38l0,0c1.65,0.291,2.758,1.828,2.475,3.433L15.295,54.552z"/>
			<linearGradient id="SVGID_2_" gradientUnits="userSpaceOnUse" x1="19.938" y1="58.7023" x2="29.9998" y2="1.0147">
				<stop  offset="0.25" style="stop-color:#0062A7"/>
				<stop  offset="0.7552" style="stop-color:#5EC5ED"/>
			</linearGradient>
			<path fill="url(#SVGID_2_)" d="M23.987,46.607c-0.181,1.027-1.183,1.709-2.24,1.522l0,0c-1.055-0.186-1.765-1.17-1.584-2.197
				l5.763-32.686c0.181-1.027,1.184-1.709,2.24-1.523l0,0c1.056,0.187,1.765,1.17,1.584,2.198L23.987,46.607z"/>
			<linearGradient id="SVGID_3_" gradientUnits="userSpaceOnUse" x1="26.3992" y1="59.8277" x2="36.4605" y2="2.143">
				<stop  offset="0.25" style="stop-color:#0062A7"/>
				<stop  offset="0.7552" style="stop-color:#5EC5ED"/>
			</linearGradient>
			<path fill="url(#SVGID_3_)" d="M31.676,36.747c-0.115,0.657-0.757,1.094-1.433,0.974l0,0c-0.676-0.119-1.13-0.749-1.014-1.405
				l1.928-10.931c0.116-0.658,0.758-1.094,1.434-0.975l0,0c0.676,0.119,1.13,0.749,1.014,1.406L31.676,36.747z"/>
		</g>
		<g>
			<linearGradient id="SVGID_4_" gradientUnits="userSpaceOnUse" x1="3.6404" y1="55.8594" x2="13.7021" y2="-1.8278">
				<stop  offset="0.25" style="stop-color:#0062A7"/>
				<stop  offset="0.7552" style="stop-color:#5EC5ED"/>
			</linearGradient>
			<path fill="url(#SVGID_4_)" d="M3.871,43.06c-0.181,1.027,0.528,2.011,1.584,2.197l0,0c1.056,0.186,2.059-0.495,2.24-1.523
				l5.763-32.686c0.181-1.027-0.528-2.011-1.584-2.198l0,0c-1.056-0.186-2.059,0.496-2.24,1.523L3.871,43.06z"/>
			<linearGradient id="SVGID_5_" gradientUnits="userSpaceOnUse" x1="-2.8206" y1="54.7313" x2="7.2407" y2="-2.9532">
				<stop  offset="0.25" style="stop-color:#0062A7"/>
				<stop  offset="0.7552" style="stop-color:#5EC5ED"/>
			</linearGradient>
			<path fill="url(#SVGID_5_)" d="M0.018,31.165c-0.116,0.657,0.338,1.287,1.014,1.405l0,0c0.676,0.12,1.318-0.317,1.434-0.974
				l1.927-10.931c0.116-0.658-0.338-1.287-1.014-1.406l0,0c-0.675-0.12-1.317,0.317-1.433,0.975L0.018,31.165z"/>
		</g>
	</g>
	<g>
		<g>
			<path fill="#0062A7" d="M155.952,41.198h1.725c0.607,0,1.104-0.447,1.104-0.997v-9.892c0-0.112,0.048-0.217,0.135-0.295
				c0.087-0.077,0.206-0.121,0.328-0.121h6.599c0.612,0,1.108-0.448,1.108-0.998v-1.472c0-0.55-0.496-0.997-1.108-1h-6.599
				c-0.122,0-0.24-0.04-0.328-0.117c-0.084-0.078-0.135-0.183-0.135-0.296V19.31c0-0.113,0.045-0.217,0.138-0.297
				c0.084-0.076,0.198-0.119,0.324-0.119h8.157c0.607-0.004,1.102-0.448,1.106-1.001v-1.434c-0.004-0.552-0.498-0.997-1.106-0.997
				h-11.448c-0.614,0-1.107,0.445-1.11,0.997v23.742C154.845,40.751,155.338,41.198,155.952,41.198z"/>
			<path fill="#0062A7" d="M46.358,41.198h1.62c0.612,0,1.105-0.447,1.109-0.997V16.459c-0.003-0.55-0.497-0.997-1.109-0.997h-1.62
				c-0.611,0-1.109,0.447-1.109,0.997v23.742C45.249,40.751,45.747,41.198,46.358,41.198z"/>
			<path fill="#0062A7" d="M83.607,15.462H71.028c-0.612,0-1.105,0.447-1.105,0.997v1.434c0,0.552,0.493,0.997,1.105,1.001h3.967
				c0.125,0,0.241,0.046,0.324,0.121c0.09,0.081,0.134,0.184,0.137,0.295l-0.003,20.891c0.003,0.55,0.497,0.997,1.11,0.997h1.557
				c0.609,0,1.106-0.447,1.106-0.997V19.31c0-0.11,0.044-0.214,0.135-0.295c0.086-0.076,0.202-0.121,0.327-0.121h3.919
				c0.612-0.004,1.11-0.448,1.11-0.997v-1.438C84.716,15.909,84.219,15.462,83.607,15.462z"/>
			<path fill="#0062A7" d="M184.097,15.462h-12.584c-0.611,0-1.105,0.447-1.105,0.997v1.434c0,0.552,0.494,0.997,1.105,1.001h3.968
				c0.13,0,0.244,0.046,0.328,0.121c0.088,0.081,0.135,0.184,0.135,0.295v20.891c0.004,0.55,0.497,0.997,1.11,0.997h1.553
				c0.609,0,1.107-0.447,1.107-0.997V19.31c0-0.11,0.047-0.214,0.135-0.295c0.085-0.076,0.201-0.121,0.331-0.121h3.919
				c0.612-0.004,1.106-0.448,1.106-0.997v-1.438C185.203,15.909,184.71,15.462,184.097,15.462z"/>
			<path fill="#0062A7" d="M66.797,15.462c-0.01,0-0.02,0-0.026,0l0,0h-1.469c-0.616,0-1.112,0.447-1.114,1.002v0.007h0.003
				l-0.003,14.361v0.058c-0.003,0.055-0.057,0.101-0.122,0.101c-0.048,0-0.086-0.022-0.109-0.057l-0.006-0.015l-0.019-0.034
				l-7.888-14.852c-0.185-0.348-0.576-0.57-1.006-0.57h-1.314c-0.613,0-1.113,0.447-1.113,1.002v23.732
				c0,0.555,0.5,1.002,1.113,1.002h1.541c0.615,0,1.112-0.448,1.112-1.002V25.901l0,0c0-0.06,0.058-0.109,0.125-0.109
				c0.048,0,0.09,0.023,0.109,0.057l8.01,14.784c0.185,0.344,0.576,0.564,1,0.564h1.176c0.616,0,1.112-0.448,1.112-1.002V16.464
				C67.909,15.909,67.413,15.462,66.797,15.462z"/>
			<g>
				<path fill="#0062A7" d="M120.407,39.937v-0.003l-0.003-0.003l-0.021,0.007l-0.023,0.007l0.023-0.007l0.021-0.007
					c0-0.003,0-0.006-0.005-0.012l-6.533-23.697c-0.128-0.457-0.558-0.76-1.033-0.76l-1.595,0.003v-0.003h-0.026v0.003
					c-0.464,0.01-0.882,0.31-1.006,0.763l-6.404,23.697c-0.023,0.084-0.035,0.17-0.035,0.253c0,0.228,0.08,0.452,0.234,0.635
					c0.205,0.246,0.513,0.385,0.836,0.385h1.6c0.477,0,0.907-0.303,1.035-0.757l1.234-4.467c0.048-0.177,0.224-0.298,0.42-0.298
					h0.004h5.78c0.2,0,0.372,0.121,0.424,0.295l1.273,4.475c0.127,0.452,0.554,0.752,1.029,0.752h1.732
					c0.324,0,0.632-0.139,0.836-0.388c0.152-0.18,0.232-0.401,0.232-0.629C120.437,40.099,120.423,40.015,120.407,39.937z
					 M113.866,32.668c-0.003,0-0.003,0-0.003,0h-0.003h-3.722l0,0c-0.003,0-0.003,0-0.003,0c-0.276,0-0.496-0.203-0.496-0.448
					c0-0.033,0.003-0.061,0.009-0.09l0.004-0.009l2.249-8.462l0,0c0.01-0.044,0.052-0.076,0.105-0.076
					c0.049,0,0.094,0.032,0.103,0.076l0,0l2.237,8.454l0.004,0.017c0.009,0.029,0.009,0.057,0.009,0.09
					C114.359,32.465,114.138,32.668,113.866,32.668z"/>
			</g>
			<g>
				<path fill="#0062A7" d="M102.174,39.827l-4.378-9.784c-0.019-0.051-0.032-0.102-0.032-0.156c0-0.148,0.09-0.292,0.247-0.368
					c3.276-1.544,3.797-3.897,3.818-6.5c-0.021-2.636-0.622-4.516-1.824-5.724c-1.196-1.212-3.105-1.813-6.02-1.833h-5.9
					c-0.612,0-1.109,0.447-1.109,0.997v23.742c0,0.55,0.496,0.997,1.109,0.997h1.538c0.613,0,1.106-0.447,1.109-0.997v-9.345
					c0-0.112,0.051-0.217,0.135-0.292c0.089-0.083,0.205-0.124,0.326-0.124h2.318c0.186,0,0.355,0.1,0.426,0.257l4.464,9.879
					c0.17,0.377,0.574,0.622,1.025,0.622h1.721c0.369,0,0.712-0.162,0.917-0.439c0.125-0.166,0.19-0.362,0.19-0.558
					C102.254,40.073,102.229,39.945,102.174,39.827z M94.011,26.94h-2.836c-0.122,0-0.238-0.042-0.324-0.121
					c-0.086-0.078-0.138-0.183-0.138-0.296l-0.007-7.28c0-0.11,0.045-0.217,0.134-0.295c0.084-0.079,0.199-0.121,0.324-0.121
					l2.439-0.01c4.01,0,4.715,0.966,4.715,3.886C98.318,25.341,98.027,26.94,94.011,26.94z"/>
			</g>
			<g>
				<path fill="#0062A7" d="M144.9,15.462c-3.772,0.025-7.048,2.084-7.068,6.178v13.381c0.02,4.092,3.296,6.154,7.065,6.177
					c3.769-0.023,7.044-2.085,7.063-6.177V21.64C151.942,17.546,148.667,15.487,144.9,15.462z M148.298,34.675
					c-0.01,1.972-1.586,2.961-3.4,2.976c-1.815-0.015-3.391-1.004-3.398-2.976V21.984c0.007-1.969,1.584-2.961,3.398-2.975
					c1.814,0.014,3.39,1.006,3.4,2.975V34.675z"/>
			</g>
			<path fill="#0062A7" d="M134.244,29.002c-0.205-0.234-0.429-0.457-0.673-0.662c-0.372-0.336-1.132-0.682-1.898-0.974
				c-0.682-0.261-3.17-1.066-3.17-1.066c-0.594-0.213-1.757-0.629-2.111-0.814c-0.823-0.424-1.513-1.252-1.513-2.613v-1.327
				c0-1.642,1.222-2.972,3.497-2.972c2.249,0,3.545,1.306,3.57,2.928c0,0,0,0.064,0,0.087c0,0.026,0.003,0.057,0.003,0.057
				c0.028,0.518,0.484,0.932,1.045,0.932h1.467c0.581,0,1.049-0.439,1.049-0.982V21.42v-0.436c0-3.05-2.805-5.522-7.324-5.522
				c-3.59,0-6.871,2.59-6.871,5.64c0,0-0.084,1.822,0.045,2.791c0.115,0.882,0.705,2.276,1.711,3.263
				c0.48,0.469,1.061,0.848,1.636,1.135c0.337,0.167,0.85,0.367,1.357,0.55c0.438,0.152,4.388,1.474,4.388,1.474
				c0.38,0.167,0.714,0.347,0.879,0.523c0.512,0.55,0.826,1.296,0.826,2.116v2.028c0,1.691-1.336,3.065-2.988,3.065h-1.515
				c-1.513,0-2.758-1.15-2.962-2.646c0-0.078-0.013-0.298-0.024-0.382c-0.1-0.442-0.505-0.775-0.994-0.778c-0.003,0-0.006,0-0.009,0
				h-1.433c-0.003,0-0.003,0-0.007,0c-0.56,0.003-1.012,0.439-1.012,0.98v0.174l0,0c0.038,3.212,2.997,5.803,6.641,5.803h1.12
				c3.67,0,6.641-2.626,6.641-5.867v-2.756C135.613,31.231,135.102,29.99,134.244,29.002z"/>
		</g>
		<g>
			<g>
				<path fill="#768187" d="M45.489,56.838v-8.093h1.284v8.093H45.489z"/>
				<path fill="#768187" d="M57.948,56.838l-2.246-4.918h-0.014v4.918h-1.284v-8.093h1.242l2.204,4.895h0.028v-4.895h1.284v8.093
					H57.948z"/>
				<path fill="#768187" d="M68.956,49.757v7.081h-1.284v-7.081h-1.618v-1.012h4.507v1.012H68.956z"/>
				<path fill="#768187" d="M77.509,56.838v-8.093h4.047v1.012h-2.763v2.465h2.414v1.012h-2.414v2.523h2.763v1.081H77.509z"/>
				<path fill="#768187" d="M92.326,56.838l-1.325-3.488H90.08v3.488h-1.284v-8.093h2.191c1.605,0,2.4,0.791,2.4,2.36
					c0,0.93-0.279,1.604-1.186,2.023l1.465,3.709H92.326z M90.861,49.757H90.08v2.651h0.879c1.019,0,1.144-0.5,1.144-1.325
					C92.103,50.246,91.936,49.757,90.861,49.757z"/>
				<path fill="#768187" d="M104.339,56.838l-2.247-4.918h-0.014v4.918h-1.283v-8.093h1.242l2.204,4.895h0.028v-4.895h1.284v8.093
					H104.339z"/>
				<path fill="#768187" d="M116.617,56.838l-0.405-1.756h-1.995l-0.405,1.756h-1.242l2.065-8.093h1.172l2.093,8.093H116.617z
					 M115.222,51.013h-0.028l-0.754,3.046h1.535L115.222,51.013z"/>
				<path fill="#768187" d="M127.137,49.757v7.081h-1.283v-7.081h-1.619v-1.012h4.507v1.012H127.137z"/>
				<path fill="#768187" d="M135.731,56.838v-8.093h1.284v8.093H135.731z"/>
				<path fill="#768187" d="M149.181,54.966c0,1.302-1.173,1.953-2.275,1.953c-1.116,0-2.288-0.651-2.288-1.953V50.63
					c0-1.302,1.172-1.953,2.288-1.953c1.102,0,2.275,0.651,2.275,1.953V54.966z M147.898,50.63c0-0.593-0.447-0.872-0.991-0.872
					c-0.544,0-1.004,0.279-1.004,0.872v4.337c0,0.593,0.46,0.872,1.004,0.872c0.544,0,0.991-0.279,0.991-0.872V50.63z"/>
				<path fill="#768187" d="M160.245,56.838l-2.247-4.918h-0.014v4.918h-1.283v-8.093h1.242l2.204,4.895h0.028v-4.895h1.284v8.093
					H160.245z"/>
				<path fill="#768187" d="M172.523,56.838l-0.405-1.756h-1.995l-0.405,1.756h-1.242l2.065-8.093h1.172l2.093,8.093H172.523z
					 M171.128,51.013H171.1l-0.754,3.046h1.535L171.128,51.013z"/>
				<path fill="#768187" d="M180.838,56.838v-8.093h1.283v7.011h2.763v1.081H180.838z"/>
			</g>
		</g>
	</g>
</g>
</svg>
