<?xml version="1.0" encoding="UTF-8"?>
<svg width="245px" height="68px" viewBox="0 0 245 68" version="1.1" xmlns="http://www.w3.org/2000/svg" xmlns:xlink="http://www.w3.org/1999/xlink">
    <!-- Generator: Sketch 48.2 (47327) - http://www.bohemiancoding.com/sketch -->
    <title>skroutz</title>
    <desc>Created with Sketch.</desc>
    <defs></defs>
    <g id="Landing-B" stroke="none" stroke-width="1" fill="none" fill-rule="evenodd" transform="translate(-544.000000, -3319.000000)" opacity="0.699999988">
        <g id="Sponsors" transform="translate(1.000000, 2823.000000)">
            <g id="Logos" style="mix-blend-mode: luminosity;" transform="translate(210.000000, 262.000000)">
                <g id="skroutz" transform="translate(333.000000, 234.000000)">
                    <path d="M28.9249582,67.2175516 C22.1025407,67.2175516 18.7877275,64.8823868 18.7877275,59.7861231 C18.7877275,59.4207165 18.7914637,59.0597934 18.8422769,58.6540352 C18.8445187,58.6204088 18.8482549,58.5808044 18.8519912,58.5561451 C18.8534857,58.5449363 18.857222,58.5337275 18.8587165,58.5225187 C18.875156,58.4433099 18.9057934,58.3446725 18.9356835,58.2826505 C18.9229802,58.3102989 18.9110242,58.3386945 18.9020571,58.3678374 C19.0888703,57.7072659 19.7868044,57.243222 20.5206066,57.3657714 C20.7096615,57.397156 20.8845187,57.4644088 21.0474198,57.5645407 C22.9095736,58.5576396 25.2297934,58.9858154 27.4170022,58.9858154 C30.4433758,58.9858154 30.4433758,57.8148703 30.4433758,57.4300352 C30.4433758,56.5706945 29.347156,55.9773758 27.0665407,54.8236176 L26.8580571,54.7175077 C23.4610462,52.9786505 19.1038154,50.8161011 19.1038154,44.7088044 C19.1038154,39.2598374 23.7868484,33.8302989 33.9487385,33.8302989 C36.4819253,33.8302989 38.9665407,34.0342989 41.4743209,34.4490242 C41.7336176,34.4916176 41.9704967,34.6388264 42.122189,34.8547824 C42.2738813,35.0699912 42.3344088,35.3404967 42.2888264,35.5997934 L41.019244,42.3108703 C40.9684308,42.5895956 40.8010462,42.8339473 40.5596835,42.9804088 C40.3265407,43.1253758 40.0224088,43.1634857 39.7541451,43.0827824 C37.5400352,42.4027824 35.6053978,42.1016396 34.0548484,42.1016396 C33.0707165,42.1016396 31.4200352,42.2600571 31.4200352,43.3241451 C31.4200352,44.1461231 33.4660132,45.1616396 35.4439912,46.1427824 C38.1079473,47.4422549 43.2311121,49.9799253 43.2311121,56.1081451 C43.2311121,61.2866066 39.3693099,67.2175516 28.9249582,67.2175516" id="Fill-1" fill="#F68A23"></path>
                    <path d="M131.8656,33.1822066 C120.898919,33.1822066 114.08771,39.9724923 114.08771,50.2404923 C114.08771,60.7124923 120.429644,67.2173275 130.636369,67.2173275 C141.103138,67.2173275 148.137029,59.8845363 148.137029,48.9686681 C148.137029,39.1983385 142.206831,33.1822066 131.8656,33.1822066 M130.795534,56.9866901 C126.800721,56.9866901 124.289204,54.5992176 124.289204,50.499789 C124.289204,46.481811 127.115314,43.702778 131.406787,43.702778 C135.454655,43.702778 137.913116,46.0663385 137.913116,49.890778 C137.913116,54.162822 134.894963,56.9866901 130.795534,56.9866901" id="Fill-3" fill="#F68A23"></path>
                    <path d="M237.85436,66.6231868 L217.803327,66.6231868 C217.25858,66.6231868 216.814712,66.1785714 216.814712,65.6330769 L216.814712,59.2814286 C216.814712,55.6094286 220.382844,51.776022 223.533262,48.6622198 L224.284251,47.9194505 C226.052998,46.1753626 227.740295,43.5360659 228.366492,42.1790549 L218.730668,42.1790549 C218.186668,42.1790549 217.742053,41.7351868 217.742053,41.1896923 L217.742053,34.5107473 C217.742053,33.9652527 218.186668,33.5213846 218.730668,33.5213846 L242.124163,33.5213846 C242.669657,33.5213846 243.114273,33.9652527 243.114273,34.5107473 L243.114273,41.2307912 C243.114273,45.0133846 239.462448,49.4520659 236.310536,52.5501758 L236.084866,52.7706154 C234.316119,54.5072308 231.545305,57.9572967 231.84047,58.0238022 C232.13713,58.0918022 233.106316,58.1538242 234.200295,58.1941758 C235.292031,58.236022 241.887284,58.032022 243.390756,57.6867912 C243.699371,57.6165495 243.836866,57.6696044 243.87124,57.6748352 C244.525833,57.7831868 244.978668,58.318967 244.978668,58.9787912 C244.978668,64.1811648 242.647987,66.6231868 237.85436,66.6231868" id="Fill-5" fill="#F68A23"></path>
                    <path d="M203.963833,67.2475165 C196.404624,67.2475165 191.710382,62.6496703 191.710382,55.2481319 L191.710382,42.1794286 L188.06902,42.1794286 C188.023437,42.1794286 187.968141,42.1734505 187.913591,42.162989 C187.909855,42.162989 187.903877,42.162989 187.900141,42.1614945 C187.865767,42.1585055 187.81047,42.1443077 187.75069,42.1203956 C187.722295,42.1114286 187.695393,42.1017143 187.668492,42.0897582 C187.227613,41.9298462 186.915262,41.556967 186.830822,41.0974066 C186.804668,40.9905495 186.794954,40.8829451 186.804668,40.7738462 C186.804668,40.7596484 186.809152,40.7252747 186.812141,40.7050989 C186.813635,40.6953846 186.813635,40.6879121 186.814382,40.6781978 C186.815877,40.6707253 186.815877,40.6632527 186.818866,40.6557802 C187.178295,37.2752088 190.240536,35.833011 192.617547,34.1898022 L202.028448,28.1295824 C202.197327,28.013011 202.393855,27.9524835 202.59636,27.9524835 L203.446734,27.9524835 C203.992229,27.9524835 204.436844,28.3956044 204.436844,28.9410989 L204.436844,33.5165275 L211.182295,33.5165275 C211.729284,33.5165275 212.172404,33.9603956 212.172404,34.5066374 L212.172404,41.1893187 C212.172404,41.7355604 211.729284,42.1794286 211.182295,42.1794286 L204.436844,42.1794286 L204.436844,54.9156044 C204.436844,57.380044 205.529327,58.7370549 207.982558,58.7370549 C209.172185,58.7370549 210.303525,58.2565714 210.934954,57.669978 C210.966338,57.6408352 211.008932,57.6101978 211.047789,57.5832967 C211.313064,57.3905055 211.638119,57.3060659 211.966163,57.3636044 C212.512404,57.4517802 212.8808,57.8874286 212.982426,58.4904615 C213.10124,59.2025934 213.10124,59.6501978 213.10124,60.109011 C213.10124,65.2912088 208.229152,67.2475165 203.963833,67.2475165" id="Fill-7" fill="#F68A23"></path>
                    <path d="M83.7889275,60.8750198 C83.468356,60.4916791 82.9251033,60.3407341 82.433411,60.5066242 C82.0538066,60.6336571 81.7287516,60.6852176 81.3110374,60.6852176 C80.1654989,60.6852176 77.4851033,59.3708 73.5538066,51.7615253 C77.617367,49.2402945 79.7418066,44.3525143 79.7418066,38.7809978 C79.7418066,37.6967341 79.4152571,36.3300088 79.2276967,35.2674154 C79.1440044,34.7929099 78.7345099,34.4491736 78.2532791,34.4491736 L68.0465538,34.4491736 C67.751389,34.4491736 67.473411,34.5799429 67.2873451,34.8041187 C67.0982901,35.029789 67.0205758,35.3264484 67.0728835,35.6193714 L67.1505978,36.0423165 C67.3478725,37.0951956 67.5339385,38.0890418 67.5339385,39.3660967 C67.5339385,44.3390637 66.1425538,47.4491297 62.1058945,47.5761626 L62.1058945,23.6812615 C62.1058945,23.135767 61.6620264,22.6911516 61.1150374,22.6911516 L50.4098945,22.6911516 C49.8644,22.6911516 49.4190374,23.135767 49.4190374,23.6812615 L49.4190374,65.6380088 C49.4190374,66.1835033 49.8644,66.6281187 50.4098945,66.6281187 L61.1150374,66.6281187 C61.6620264,66.6281187 62.1058945,66.1835033 62.1058945,65.6380088 L62.1058945,55.6569538 L62.1088835,55.6509758 C62.1088835,55.6509758 62.1559604,55.4380088 62.3420264,55.414844 C62.5019385,55.3946681 62.5804,55.4835912 62.6334549,55.6360308 C63.6474769,59.5434154 66.2314769,67.2475912 75.3292791,67.2475912 C77.3558286,67.2475912 82.5275648,67.0951516 83.737367,63.0697011 C83.8591692,62.6602066 84.0489714,61.9278989 84.0534549,61.8980088 C84.1199604,61.5281187 84.0235648,61.1552396 83.7889275,60.8750198" id="Fill-10" fill="#F68A23"></path>
                    <path d="M111.562818,34.143622 C110.973982,33.9411165 110.360488,33.8424791 109.685719,33.8424791 C105.656532,33.8424791 103.036664,36.2090286 101.071389,38.8430945 C100.747081,39.1397538 100.555037,38.7990066 100.536356,38.7638857 C99.4692791,35.6597978 96.2568396,34.4492484 93.0645758,34.4492484 C88.8171912,34.4492484 85.8513451,36.7709626 85.3230374,40.4481934 C85.3193011,40.476589 85.3170593,40.5072264 85.3170593,40.5378637 C85.2617626,41.1715341 85.7056308,41.7551385 86.3422901,41.8627429 C86.3804,41.8679736 86.442422,41.8754462 86.5178945,41.8754462 C86.6501582,41.8754462 86.9027297,41.8575121 87.1261582,41.7357099 C87.3906857,41.5899956 87.5991692,41.5063033 87.8778945,41.5063033 C88.2141582,41.5063033 88.7222901,41.4637099 88.7222901,43.273556 L88.7222901,65.6380835 C88.7222901,66.183578 89.1669055,66.6281934 89.7116527,66.6281934 L100.41007,66.6281934 L100.410818,66.6281934 C100.672356,66.6281934 100.927916,66.5228308 101.111741,66.3382593 C101.299301,66.1514462 101.400927,65.902611 101.400927,65.6380835 L101.400927,48.3728088 L101.400927,48.3264791 C101.400927,46.6391824 105.33596,45.1379516 107.742862,45.1379516 C108.708312,45.1379516 109.51684,45.2634901 110.288752,45.5339956 C110.58018,45.6348747 110.902246,45.5937758 111.159301,45.4248967 C111.417103,45.2552703 111.581499,44.9690725 111.600927,44.6641934 L112.229367,35.1449407 C112.25851,34.6988308 111.982774,34.2878418 111.562818,34.143622" id="Fill-13" fill="#F68A23"></path>
                    <path d="M185.957508,59.7005626 C185.772936,59.4412659 185.498695,59.2708923 185.184848,59.2193319 C184.866519,59.1647824 184.552673,59.246233 184.298607,59.4293099 C184.268716,59.4479912 184.240321,59.468167 184.217156,59.4875956 C184.092365,59.5907165 183.861464,59.7879912 183.565552,59.7879912 C183.227046,59.7879912 182.599354,59.7879912 182.599354,58.0132659 L182.599354,34.506189 C182.599354,33.9606945 182.155486,33.5168264 181.609244,33.5168264 L171.081947,33.5168264 C170.536453,33.5168264 170.091837,33.9606945 170.091837,34.506189 L170.091837,53.3235077 C169.262387,54.3450022 167.456277,56.3042989 165.994651,56.3042989 C165.742826,56.3042989 164.831925,56.3042989 164.831925,54.7492659 L164.831925,34.506189 C164.831925,33.9606945 164.388057,33.5168264 163.841068,33.5168264 L153.444541,33.5168264 C152.899793,33.5168264 152.454431,33.9606945 152.454431,34.506189 L152.454431,57.8466286 C152.454431,60.6226725 152.75931,63.4577495 154.959222,65.3879033 C156.275134,66.5693099 158.081991,67.2478154 159.914255,67.2478154 C164.019662,67.2478154 167.176057,65.1032 169.914738,62.4549363 L169.952848,62.4242989 C170.432585,62.0529143 170.71131,62.5483429 170.71131,62.5483429 C170.727002,62.5819692 170.744936,62.6081231 170.762123,62.6380132 C171.70142,64.7557275 174.008936,66.9384527 178.31909,66.9384527 C183.428057,66.9384527 185.749771,63.5377055 186.163749,60.6129582 C186.165244,60.6017495 186.165991,60.5905407 186.165991,60.5793319 C186.21531,60.2684747 186.142079,59.9568703 185.957508,59.7005626" id="Fill-15" fill="#F68A23"></path>
                    <path d="M25.8250549,30.3292703 C24.1669011,30.5661495 21.5582418,30.5280396 17.8511209,33.5461934 C14.6715604,36.1346769 13.4176703,37.252567 10.8321758,37.9490066 C8.36997802,38.6133143 4.78540659,38.4758198 3.76615385,36.6704571 C2.76259341,34.8912484 3.25951648,32.0397319 4.66734066,30.6692703 C7.53454945,27.8782813 10.5213187,26.4749407 20.4194286,28.823556 C23.8037363,29.6268527 24.953011,29.9451824 25.8250549,30.3292703" id="Fill-18" fill="#373636"></path>
                    <path d="M31.4097231,20.8634462 C30.7812835,21.2579956 30.1005363,21.7220396 29.4130637,22.2114901 C27.3282286,13.1607648 28.6157451,5.64190769 28.5477451,3.7394022 C28.4461187,0.899094505 26.8686681,0.597204396 25.3046681,0.142127473 C23.5889758,-0.357037363 15.8885363,0.465687912 10.5733275,2.52212747 C-0.28276044,6.72243516 -0.152738462,11.6333802 0.0520087912,12.8738198 C0.337459341,14.3092923 0.850074725,14.8353582 2.37895385,16.5630066 C5.91121758,20.552589 9.1797011,25.8042813 9.1797011,25.8042813 C10.2938549,25.4605451 11.4162286,25.2483253 12.5221626,25.1347429 C11.334778,22.2189626 8.67306374,17.6622154 7.39301978,15.8523692 C5.28128352,12.8678418 5.30669011,13.1600176 4.89794286,12.3320615 C4.69543736,11.9248088 4.70739341,11.5564132 5.44567912,10.9242374 C6.08682198,10.3750066 7.39974505,9.7645011 8.05807473,9.6157978 C8.66036044,9.48054505 9.30972308,9.85865495 9.76330549,10.8016879 C10.9716132,13.3094681 13.7401846,18.6725011 16.0245363,25.0742154 C19.4170637,25.2759736 22.3268659,26.1539956 23.837811,26.5821714 C23.834822,26.5866549 23.8228659,26.5993582 23.8251077,26.5993582 C27.3237451,27.4923253 28.6957011,27.754611 32.3549978,27.8637099 C35.6384264,27.9616 39.400844,26.5350945 39.8073495,22.7412923 C40.1197011,19.8165451 38.3546901,16.4994901 31.4097231,20.8634462" id="Fill-20" fill="#373636"></path>
                </g>
            </g>
        </g>
    </g>
</svg>