<?xml version="1.0" encoding="UTF-8" standalone="no"?>
<svg
   xmlns:dc="http://purl.org/dc/elements/1.1/"
   xmlns:cc="http://creativecommons.org/ns#"
   xmlns:rdf="http://www.w3.org/1999/02/22-rdf-syntax-ns#"
   xmlns:svg="http://www.w3.org/2000/svg"
   xmlns="http://www.w3.org/2000/svg"
   xmlns:sodipodi="http://sodipodi.sourceforge.net/DTD/sodipodi-0.dtd"
   xmlns:inkscape="http://www.inkscape.org/namespaces/inkscape"
   viewBox="0 0 826.65356 129.2104"
   height="129.2104"
   width="826.65356"
   xml:space="preserve"
   id="svg2"
   version="1.1"
   sodipodi:docname="synapsecom.svg"
   inkscape:version="0.92.2 2405546, 2018-03-11"><sodipodi:namedview
     pagecolor="#ffffff"
     bordercolor="#666666"
     borderopacity="1"
     objecttolerance="10"
     gridtolerance="10"
     guidetolerance="10"
     inkscape:pageopacity="0"
     inkscape:pageshadow="2"
     inkscape:window-width="1189"
     inkscape:window-height="663"
     id="namedview155"
     showgrid="false"
     fit-margin-top="0"
     fit-margin-left="0"
     fit-margin-right="0"
     fit-margin-bottom="0"
     inkscape:zoom="0.23203125"
     inkscape:cx="760.5224"
     inkscape:cy="-534.00357"
     inkscape:window-x="152"
     inkscape:window-y="63"
     inkscape:window-maximized="0"
     inkscape:current-layer="g10" /><metadata
     id="metadata8"><rdf:RDF><cc:Work
         rdf:about=""><dc:format>image/svg+xml</dc:format><dc:type
           rdf:resource="http://purl.org/dc/dcmitype/StillImage" /><dc:title></dc:title></cc:Work></rdf:RDF></metadata><defs
     id="defs6"><clipPath
       id="clipPath20"
       clipPathUnits="userSpaceOnUse"><path
         id="path18"
         d="M 0,1080 H 1920 V 0 H 0 Z"
         inkscape:connector-curvature="0" /></clipPath><clipPath
       id="clipPath168"
       clipPathUnits="userSpaceOnUse"><path
         id="path166"
         d="M 0,1080 H 1920 V 0 H 0 Z"
         inkscape:connector-curvature="0" /></clipPath></defs><g
     transform="matrix(1.3333333,0,0,-1.3333333,-866.67264,1144.605)"
     id="g10"><g
       id="g162"><g
         clip-path="url(#clipPath168)"
         id="g164"><g
           transform="translate(697.6895,847.9629)"
           id="g170"><path
             id="path172"
             style="fill:#0095b7;fill-opacity:1;fill-rule:nonzero;stroke:none"
             d="M 0,0 C 0.99,0 1.485,-0.499 1.485,-1.489 V -7.893 C 1.485,-8.883 0.99,-9.374 0,-9.374 h -33.791 c -1.303,0 -2.228,-0.344 -2.766,-1.017 -0.54,-0.672 -0.808,-1.598 -0.808,-2.761 v -2.297 c 0,-2.517 1.17,-3.778 3.507,-3.778 h 25.294 c 3.91,0 6.857,-1 8.837,-2.998 1.977,-1.999 2.965,-4.868 2.965,-8.601 v -5.396 c 0,-3.287 -0.967,-5.939 -2.899,-7.954 -1.935,-2.026 -4.947,-3.044 -9.04,-3.044 h -37.363 c -1.037,0 -1.555,0.501 -1.555,1.49 v 6.403 c 0,0.989 0.518,1.49 1.555,1.49 h 35.409 c 1.305,0 2.225,0.336 2.762,1.008 0.541,0.672 0.814,1.599 0.814,2.769 v 2.763 c 0,2.515 -1.172,3.778 -3.511,3.778 h -25.291 c -3.913,0 -6.858,0.998 -8.836,2.997 -1.979,1.997 -2.968,4.867 -2.968,8.6 v 4.923 c 0,3.288 0.966,5.94 2.9,7.965 1.932,2.017 4.945,3.034 9.037,3.034 z"
             inkscape:connector-curvature="0" /></g><g
           transform="translate(714.8213,847.9629)"
           id="g174"><path
             id="path176"
             style="fill:#0095b7;fill-opacity:1;fill-rule:nonzero;stroke:none"
             d="m 0,0 c 0.72,0 1.26,-0.272 1.62,-0.809 l 18.009,-24.35 18.143,24.35 C 38.136,-0.272 38.673,0 39.393,0 h 8.835 c 0.358,0 0.608,-0.146 0.743,-0.436 0.133,-0.3 0.088,-0.599 -0.135,-0.918 L 24.62,-32.778 V -45.73 c 0,-0.989 -0.494,-1.49 -1.484,-1.49 h -7.285 c -1.034,0 -1.548,0.501 -1.548,1.49 v 12.952 L -9.644,-1.354 C -9.87,-1.035 -9.925,-0.736 -9.813,-0.436 -9.7,-0.146 -9.44,0 -9.037,0 Z"
             inkscape:connector-curvature="0" /></g><g
           transform="translate(781.0566,847.9629)"
           id="g178"><path
             id="path180"
             style="fill:#0095b7;fill-opacity:1;fill-rule:nonzero;stroke:none"
             d="m 0,0 c 1.081,0 1.978,-0.046 2.698,-0.136 0.72,-0.092 1.349,-0.281 1.889,-0.572 0.54,-0.291 1.059,-0.699 1.553,-1.217 0.492,-0.518 1.053,-1.199 1.685,-2.054 l 25.09,-32.914 c 0.179,-0.317 0.472,-0.472 0.876,-0.472 h 0.608 c 0.359,0 0.54,0.218 0.54,0.673 v 35.203 c 0,0.99 0.495,1.489 1.487,1.489 h 7.079 c 0.99,0 1.485,-0.499 1.485,-1.489 v -38.71 c 0,-2.742 -0.495,-4.605 -1.485,-5.568 -0.987,-0.962 -2.519,-1.453 -4.584,-1.453 h -5.802 c -1.035,0 -1.901,0.046 -2.598,0.137 -0.697,0.09 -1.314,0.272 -1.854,0.544 -0.538,0.264 -1.07,0.664 -1.586,1.182 -0.516,0.508 -1.112,1.216 -1.786,2.126 L 0.137,-10.318 c -0.272,0.309 -0.565,0.473 -0.879,0.473 h -0.607 c -0.358,0 -0.538,-0.227 -0.538,-0.682 V -45.73 c 0,-0.989 -0.498,-1.49 -1.484,-1.49 h -7.083 c -1.034,0 -1.553,0.501 -1.553,1.49 v 38.709 c 0,2.744 0.497,4.604 1.486,5.568 C -9.531,-0.481 -8.004,0 -5.936,0 Z"
             inkscape:connector-curvature="0" /></g><g
           transform="translate(851.8789,818.1445)"
           id="g182"><path
             id="path184"
             style="fill:#0095b7;fill-opacity:1;fill-rule:nonzero;stroke:none"
             d="M 0,0 H 23.201 L 12.478,19.764 c -0.182,0.317 -0.428,0.472 -0.744,0.472 h -0.402 c -0.314,0 -0.562,-0.155 -0.742,-0.472 z m 13.086,29.818 c 1.707,0 3.146,-0.354 4.315,-1.044 1.167,-0.699 2.315,-2.062 3.441,-4.087 l 22.324,-40.536 c 0.227,-0.445 0.281,-0.818 0.17,-1.108 -0.113,-0.299 -0.44,-0.444 -0.979,-0.444 H 33.79 c -0.764,0 -1.282,0.298 -1.55,0.88 l -4.789,8.702 h -31.7 l -4.654,-8.702 c -0.316,-0.582 -0.833,-0.88 -1.553,-0.88 h -8.77 c -0.583,0 -0.93,0.145 -1.044,0.444 -0.113,0.29 -0.057,0.663 0.168,1.108 L 2.023,24.687 c 1.123,2.025 2.225,3.388 3.306,4.087 1.077,0.69 2.334,1.044 3.775,1.044 z"
             inkscape:connector-curvature="0" /></g><g
           transform="translate(911.0986,824.0859)"
           id="g186"><path
             id="path188"
             style="fill:#0095b7;fill-opacity:1;fill-rule:nonzero;stroke:none"
             d="m 0,0 h 25.832 c 2.291,0 3.913,0.49 4.857,1.479 0.945,0.991 1.417,2.498 1.417,4.523 v 2.562 c 0,2.025 -0.472,3.532 -1.417,4.514 -0.944,0.989 -2.566,1.488 -4.857,1.488 H 0.877 C 0.291,14.566 0,14.294 0,13.759 Z m 27.924,23.877 c 5.17,0 8.878,-1.172 11.128,-3.506 2.25,-2.343 3.371,-5.805 3.371,-10.392 V 4.985 c 0,-4.587 -1.121,-8.046 -3.371,-10.381 -2.25,-2.343 -5.958,-3.505 -11.128,-3.505 H 0 v -12.952 c 0,-0.989 -0.495,-1.49 -1.485,-1.49 h -7.286 c -1.034,0 -1.552,0.501 -1.552,1.49 v 43.705 c 0,1.354 0.677,2.025 2.026,2.025 z"
             inkscape:connector-curvature="0" /></g><g
           transform="translate(1007.0781,847.9629)"
           id="g190"><path
             id="path192"
             style="fill:#0095b7;fill-opacity:1;fill-rule:nonzero;stroke:none"
             d="M 0,0 C 0.991,0 1.48,-0.499 1.48,-1.489 V -7.893 C 1.48,-8.883 0.991,-9.374 0,-9.374 h -33.795 c -1.299,0 -2.223,-0.344 -2.764,-1.017 -0.541,-0.672 -0.808,-1.598 -0.808,-2.761 v -2.297 c 0,-2.517 1.17,-3.778 3.509,-3.778 h 25.294 c 3.909,0 6.857,-1 8.836,-2.998 1.976,-1.999 2.962,-4.868 2.962,-8.601 v -5.396 c 0,-3.287 -0.963,-5.939 -2.898,-7.954 -1.935,-2.026 -4.949,-3.044 -9.036,-3.044 h -37.368 c -1.035,0 -1.553,0.501 -1.553,1.49 v 6.403 c 0,0.989 0.518,1.49 1.553,1.49 h 35.416 c 1.298,0 2.223,0.336 2.76,1.008 0.536,0.672 0.809,1.599 0.809,2.769 v 2.763 c 0,2.515 -1.167,3.778 -3.507,3.778 h -25.292 c -3.912,0 -6.859,0.998 -8.837,2.997 -1.98,1.997 -2.968,4.867 -2.968,8.6 v 4.923 c 0,3.288 0.965,5.94 2.9,7.965 1.934,2.017 4.945,3.034 9.04,3.034 z"
             inkscape:connector-curvature="0" /></g><g
           transform="translate(1066.0322,847.9629)"
           id="g194"><path
             id="path196"
             style="fill:#0095b7;fill-opacity:1;fill-rule:nonzero;stroke:none"
             d="M 0,0 C 1.026,0 1.544,-0.499 1.544,-1.489 V -7.893 C 1.544,-8.883 1.026,-9.374 0,-9.374 h -29.481 c -1.754,0 -3.203,-0.145 -4.351,-0.445 -1.144,-0.291 -2.063,-0.781 -2.761,-1.479 -0.699,-0.701 -1.181,-1.645 -1.453,-2.834 -0.268,-1.19 -0.399,-2.662 -0.399,-4.415 v -0.68 h 38.104 c 0.986,0 1.485,-0.491 1.485,-1.481 v -5.333 c 0,-0.988 -0.499,-1.478 -1.485,-1.478 h -38.104 v -1.145 c 0,-1.761 0.131,-3.233 0.399,-4.424 0.272,-1.189 0.754,-2.134 1.453,-2.833 0.698,-0.699 1.617,-1.19 2.761,-1.48 1.148,-0.291 2.597,-0.436 4.351,-0.436 H 0 c 1.026,0 1.544,-0.501 1.544,-1.49 v -6.403 c 0,-0.989 -0.518,-1.49 -1.544,-1.49 h -29.681 c -3.415,0 -6.321,0.318 -8.701,0.945 -2.385,0.636 -4.328,1.653 -5.832,3.069 -1.507,1.418 -2.61,3.261 -3.306,5.531 -0.698,2.272 -1.048,5.032 -1.048,8.267 v 11.596 c 0,3.245 0.35,5.986 1.048,8.229 0.696,2.254 1.799,4.088 3.306,5.505 1.504,1.407 3.447,2.443 5.832,3.097 2.38,0.654 5.286,0.981 8.701,0.981 z"
             inkscape:connector-curvature="0" /></g><g
           transform="translate(1123.5137,847.9629)"
           id="g198"><path
             id="path200"
             style="fill:#58585a;fill-opacity:1;fill-rule:nonzero;stroke:none"
             d="M 0,0 C 0.99,0 1.48,-0.499 1.48,-1.489 V -8.101 C 1.48,-9.137 0.99,-9.646 0,-9.646 h -30.018 c -1.752,0 -3.2,-0.154 -4.344,-0.445 -1.149,-0.291 -2.057,-0.79 -2.73,-1.48 -0.68,-0.7 -1.162,-1.635 -1.453,-2.797 -0.291,-1.173 -0.435,-2.662 -0.435,-4.451 V -28.4 c 0,-1.799 0.144,-3.298 0.435,-4.488 0.291,-1.189 0.773,-2.133 1.453,-2.833 0.673,-0.7 1.581,-1.19 2.73,-1.48 1.144,-0.3 2.592,-0.445 4.344,-0.445 H 0 c 0.99,0 1.48,-0.49 1.48,-1.482 v -6.611 c 0,-0.99 -0.49,-1.481 -1.48,-1.481 h -30.416 c -3.419,0 -6.32,0.318 -8.701,0.945 -2.389,0.627 -4.332,1.653 -5.839,3.069 -1.504,1.418 -2.607,3.261 -3.298,5.531 -0.699,2.272 -1.054,5.023 -1.054,8.258 v 11.605 c 0,3.235 0.355,5.977 1.054,8.229 0.691,2.245 1.794,4.079 3.298,5.496 1.507,1.416 3.45,2.452 5.839,3.106 2.381,0.645 5.282,0.981 8.701,0.981 z"
             inkscape:connector-curvature="0" /></g><g
           transform="translate(1211.7227,847.9814)"
           id="g202"><path
             id="path204"
             style="fill:#58585a;fill-opacity:1;fill-rule:nonzero;stroke:none"
             d="M 0,0 C 0.985,0 1.84,-0.064 2.562,-0.2 3.278,-0.336 3.905,-0.59 4.45,-0.973 4.986,-1.354 5.473,-1.881 5.898,-2.525 6.32,-3.179 6.766,-4.042 7.211,-5.124 l 14.032,-32.377 c 0.182,-0.401 0.495,-0.609 0.944,-0.609 h 0.809 c 0.445,0 0.764,0.208 0.945,0.609 l 14.032,32.377 c 0.445,1.082 0.881,1.945 1.312,2.599 0.427,0.644 0.913,1.171 1.449,1.552 0.54,0.383 1.162,0.637 1.858,0.773 0.694,0.136 1.539,0.2 2.529,0.2 h 7.216 c 2.339,0 3.91,-0.527 4.719,-1.59 0.807,-1.044 1.216,-2.861 1.216,-5.422 V -45.73 c 0,-0.991 -0.518,-1.481 -1.552,-1.481 h -6.876 c -0.99,0 -1.486,0.49 -1.486,1.481 v 35.212 c 0,0.445 -0.18,0.672 -0.539,0.672 H 47.21 c -0.445,0 -0.745,-0.181 -0.872,-0.535 L 32.71,-40.6 c -0.54,-1.216 -1.095,-2.242 -1.653,-3.068 -0.558,-0.836 -1.167,-1.518 -1.822,-2.062 -0.653,-0.537 -1.389,-0.919 -2.223,-1.145 -0.832,-0.226 -1.814,-0.336 -2.935,-0.336 h -3.238 c -1.131,0 -2.103,0.11 -2.938,0.336 -0.826,0.226 -1.571,0.608 -2.225,1.145 -0.645,0.544 -1.253,1.226 -1.817,2.062 -0.563,0.826 -1.117,1.852 -1.653,3.068 l -13.623,30.219 c -0.136,0.354 -0.432,0.535 -0.882,0.535 h -0.607 c -0.355,0 -0.536,-0.227 -0.536,-0.672 V -45.73 c 0,-0.991 -0.5,-1.481 -1.48,-1.481 h -6.885 c -1.036,0 -1.552,0.49 -1.552,1.481 v 38.718 c 0,2.561 0.407,4.378 1.215,5.422 0.809,1.063 2.403,1.59 4.787,1.59 z"
             inkscape:connector-curvature="0" /></g><g
           transform="translate(1174.1406,851.4326)"
           id="g206"><path
             id="path208"
             style="fill:#58585a;fill-opacity:1;fill-rule:nonzero;stroke:none"
             d="m 0,0 -12.162,7.021 0.005,-12.644 10.776,-5.248 -10.781,1.998 0.005,-2.963 11.856,-5.248 -11.861,1.988 0.005,-2.951 13.037,-5.25 -13.042,1.998 0.005,-10.562 13.037,-5.25 -13.042,1.997 v -27.145 l 15.022,8.672 z"
             inkscape:connector-curvature="0" /></g><g
           transform="translate(1161.9834,819.5718)"
           id="g210"><path
             id="path212"
             style="fill:#0095b7;fill-opacity:1;fill-rule:nonzero;stroke:none"
             d="M 0,0 -0.005,10.562 -13.056,8.564 0,13.814 -0.005,16.765 -11.866,14.776 0,20.025 -0.005,22.988 -10.791,20.99 0,26.238 -0.005,38.882 -12.167,31.861 -15.036,-21.727 -0.005,-30.398 V -3.253 L -13.056,-5.25 Z"
             inkscape:connector-curvature="0" /></g><g
           transform="translate(1133.1328,812.8862)"
           id="g214"><path
             id="path216"
             style="fill:#0095b7;fill-opacity:1;fill-rule:nonzero;stroke:none"
             d="m 0,0 8.496,4.579 0.523,8.554 -8.203,-1.652 8.293,4.568 h 0.009 l 0.182,2.262 -8.197,-1.654 8.296,4.56 0.183,2.234 -8.201,-1.643 8.292,4.558 0.526,8.439 -11.353,-6.549 v -34.65 l 8.847,-5.103 0.708,13.16 z"
             inkscape:connector-curvature="0" /></g><g
           transform="translate(1148.668,829.9795)"
           id="g218"><path
             id="path220"
             style="fill:#58585a;fill-opacity:1;fill-rule:nonzero;stroke:none"
             d="M 0,0 -6.235,1.217 -6.417,-1.044 -0.25,-4.586 Z"
             inkscape:connector-curvature="0" /></g><g
           transform="translate(1147.7734,813.3047)"
           id="g222"><path
             id="path224"
             style="fill:#58585a;fill-opacity:1;fill-rule:nonzero;stroke:none"
             d="m 0,0 -6.239,1.245 -0.708,-13.161 6.438,2.37 z"
             inkscape:connector-curvature="0" /></g><g
           transform="translate(1147.8096,813.8672)"
           id="g226"><path
             id="path228"
             style="fill:#58585a;fill-opacity:1;fill-rule:nonzero;stroke:none"
             d="m 0,0 0.581,10.945 -6.239,1.207 -0.523,-8.554 h 0.005 z"
             inkscape:connector-curvature="0" /></g><g
           transform="translate(1148.9727,835.7202)"
           id="g230"><path
             id="path232"
             style="fill:#58585a;fill-opacity:1;fill-rule:nonzero;stroke:none"
             d="m 0,0 0.454,8.455 -6.095,3.516 -0.526,-8.439 h 0.009 z"
             inkscape:connector-curvature="0" /></g><g
           transform="translate(1148.7002,830.5605)"
           id="g234"><path
             id="path236"
             style="fill:#58585a;fill-opacity:1;fill-rule:nonzero;stroke:none"
             d="M 0,0 0.245,4.579 -5.985,5.776 -6.168,3.542 Z"
             inkscape:connector-curvature="0" /></g><g
           transform="translate(1190.8105,812.8862)"
           id="g238"><path
             id="path240"
             style="fill:#0095b7;fill-opacity:1;fill-rule:nonzero;stroke:none"
             d="m 0,0 -8.483,4.579 -0.532,8.554 8.203,-1.652 -8.29,4.568 h -0.002 l -0.197,2.262 8.201,-1.654 -8.287,4.56 -0.191,2.234 8.202,-1.643 -8.283,4.558 -0.535,8.439 11.351,-6.549 v -34.65 l -8.846,-5.103 -0.707,13.16 z"
             inkscape:connector-curvature="0" /></g><g
           transform="translate(1175.2793,829.9795)"
           id="g242"><path
             id="path244"
             style="fill:#58585a;fill-opacity:1;fill-rule:nonzero;stroke:none"
             d="M 0,0 6.23,1.217 6.427,-1.044 0.25,-4.586 Z"
             inkscape:connector-curvature="0" /></g><g
           transform="translate(1176.1748,813.3047)"
           id="g246"><path
             id="path248"
             style="fill:#58585a;fill-opacity:1;fill-rule:nonzero;stroke:none"
             d="m 0,0 6.239,1.245 0.707,-13.161 -6.437,2.37 z"
             inkscape:connector-curvature="0" /></g><g
           transform="translate(1176.1367,813.8672)"
           id="g250"><path
             id="path252"
             style="fill:#58585a;fill-opacity:1;fill-rule:nonzero;stroke:none"
             d="M 0,0 -0.581,10.945 5.659,12.152 6.19,3.598 H 6.186 Z"
             inkscape:connector-curvature="0" /></g><g
           transform="translate(1174.9746,835.7202)"
           id="g254"><path
             id="path256"
             style="fill:#58585a;fill-opacity:1;fill-rule:nonzero;stroke:none"
             d="M 0,0 -0.453,8.455 5.642,11.971 6.177,3.532 H 6.168 Z"
             inkscape:connector-curvature="0" /></g><g
           transform="translate(1175.248,830.5605)"
           id="g258"><path
             id="path260"
             style="fill:#58585a;fill-opacity:1;fill-rule:nonzero;stroke:none"
             d="M 0,0 -0.245,4.579 5.984,5.776 6.176,3.542 Z"
             inkscape:connector-curvature="0" /></g><g
           transform="translate(830.749,769.335)"
           id="g262"><path
             id="path264"
             style="fill:#9b9c9e;fill-opacity:1;fill-rule:nonzero;stroke:none"
             d="m 0,0 c 0,-0.775 -0.072,-1.426 -0.213,-1.954 -0.141,-0.528 -0.373,-0.951 -0.699,-1.268 -0.326,-0.316 -0.752,-0.546 -1.279,-0.686 -0.53,-0.141 -1.181,-0.211 -1.955,-0.211 h -8.66 c -0.228,0 -0.341,0.115 -0.341,0.344 V 6.652 c 0,0.246 0.113,0.369 0.341,0.369 h 8.66 c 0.774,0 1.425,-0.07 1.955,-0.21 0.527,-0.142 0.953,-0.37 1.279,-0.686 0.326,-0.317 0.558,-0.74 0.699,-1.268 C -0.072,4.33 0,3.678 0,2.904 Z m 2.137,8.91 c -0.651,0.607 -1.487,1.055 -2.508,1.346 -1.021,0.289 -2.244,0.435 -3.669,0.435 h -12.355 c -0.529,0 -0.792,-0.263 -0.792,-0.791 V -6.996 c 0,-0.529 0.263,-0.793 0.792,-0.793 H -4.04 c 1.425,0 2.648,0.146 3.669,0.436 1.021,0.291 1.857,0.739 2.508,1.347 0.652,0.607 1.131,1.381 1.439,2.322 0.309,0.943 0.462,2.056 0.462,3.34 v 3.591 c 0,1.284 -0.153,2.398 -0.462,3.34 C 3.268,7.528 2.789,8.303 2.137,8.91"
             inkscape:connector-curvature="0" /></g><g
           transform="translate(858.0977,765.3481)"
           id="g266"><path
             id="path268"
             style="fill:#9b9c9e;fill-opacity:1;fill-rule:nonzero;stroke:none"
             d="m 0,0 c 0,-0.334 -0.058,-0.568 -0.172,-0.7 -0.114,-0.131 -0.311,-0.198 -0.593,-0.198 h -8.897 c -0.546,0 -0.929,0.109 -1.149,0.33 -0.219,0.22 -0.33,0.568 -0.33,1.043 V 1.03 c 0,0.422 0.111,0.743 0.33,0.963 0.22,0.22 0.603,0.331 1.149,0.331 H 0 Z m 2.415,9.438 c -0.483,0.43 -1.131,0.748 -1.94,0.951 -0.81,0.201 -1.804,0.303 -2.983,0.303 h -11.404 c -0.317,0 -0.476,-0.158 -0.476,-0.475 V 7.999 c 0,-0.317 0.159,-0.475 0.476,-0.475 h 11.034 c 0.581,0 1.056,-0.044 1.426,-0.132 0.369,-0.088 0.66,-0.224 0.871,-0.409 C -0.37,6.798 -0.22,6.557 -0.132,6.256 -0.044,5.957 0,5.597 0,5.174 V 4.672 h -10.745 c -0.775,0 -1.421,-0.075 -1.941,-0.224 -0.518,-0.15 -0.937,-0.373 -1.253,-0.674 C -14.256,3.476 -14.48,3.111 -14.612,2.68 -14.744,2.249 -14.81,1.759 -14.81,1.215 v -1.268 c 0,-0.652 0.066,-1.214 0.198,-1.69 0.132,-0.475 0.356,-0.862 0.673,-1.161 0.316,-0.3 0.735,-0.524 1.253,-0.674 0.52,-0.149 1.166,-0.224 1.941,-0.224 H 1.821 c 0.387,0 0.704,0.031 0.95,0.093 0.247,0.061 0.445,0.171 0.595,0.329 0.15,0.16 0.255,0.374 0.318,0.647 0.06,0.273 0.09,0.621 0.09,1.043 V 5.333 C 3.774,6.282 3.669,7.097 3.458,7.775 3.247,8.453 2.899,9.006 2.415,9.438"
             inkscape:connector-curvature="0" /></g><g
           transform="translate(880.8818,764.6626)"
           id="g270"><path
             id="path272"
             style="fill:#9b9c9e;fill-opacity:1;fill-rule:nonzero;stroke:none"
             d="M 0,0 H -2.563 C -3.442,0 -4.031,0.171 -4.33,0.513 -4.629,0.858 -4.779,1.399 -4.779,2.137 v 6.125 h 4.621 c 0.316,0 0.474,0.159 0.474,0.475 v 2.166 c 0,0.316 -0.158,0.474 -0.474,0.474 h -4.621 v 3.485 c 0,0.387 -0.194,0.581 -0.58,0.581 h -2.615 c -0.386,0 -0.58,-0.194 -0.58,-0.581 v -3.485 h -2.509 c -0.316,0 -0.474,-0.158 -0.474,-0.474 V 8.737 c 0,-0.316 0.158,-0.475 0.474,-0.475 h 2.509 V 2.137 c 0,-0.932 0.078,-1.734 0.237,-2.402 0.159,-0.669 0.444,-1.214 0.859,-1.636 0.412,-0.423 0.963,-0.731 1.649,-0.925 0.686,-0.194 1.558,-0.29 2.614,-0.29 H 0 c 0.316,0 0.475,0.158 0.475,0.476 v 2.164 C 0.475,-0.16 0.316,0 0,0"
             inkscape:connector-curvature="0" /></g><g
           transform="translate(903.585,765.3481)"
           id="g274"><path
             id="path276"
             style="fill:#9b9c9e;fill-opacity:1;fill-rule:nonzero;stroke:none"
             d="m 0,0 c 0,-0.334 -0.057,-0.568 -0.172,-0.7 -0.113,-0.131 -0.311,-0.198 -0.593,-0.198 h -8.897 c -0.546,0 -0.929,0.109 -1.149,0.33 -0.219,0.22 -0.33,0.568 -0.33,1.043 V 1.03 c 0,0.422 0.111,0.743 0.33,0.963 0.22,0.22 0.603,0.331 1.149,0.331 H 0 Z m 2.416,9.438 c -0.484,0.43 -1.131,0.748 -1.941,0.951 -0.81,0.201 -1.803,0.303 -2.983,0.303 h -11.404 c -0.317,0 -0.476,-0.158 -0.476,-0.475 V 7.999 c 0,-0.317 0.159,-0.475 0.476,-0.475 h 11.034 c 0.581,0 1.056,-0.044 1.427,-0.132 0.369,-0.088 0.659,-0.224 0.87,-0.409 C -0.37,6.798 -0.22,6.557 -0.132,6.256 -0.044,5.957 0,5.597 0,5.174 V 4.672 h -10.744 c -0.776,0 -1.422,-0.075 -1.942,-0.224 -0.518,-0.15 -0.937,-0.373 -1.253,-0.674 C -14.256,3.476 -14.48,3.111 -14.611,2.68 -14.744,2.249 -14.81,1.759 -14.81,1.215 v -1.268 c 0,-0.652 0.066,-1.214 0.199,-1.69 0.131,-0.475 0.355,-0.862 0.672,-1.161 0.316,-0.3 0.735,-0.524 1.253,-0.674 0.52,-0.149 1.166,-0.224 1.942,-0.224 H 1.821 c 0.387,0 0.704,0.031 0.95,0.093 0.247,0.061 0.445,0.171 0.595,0.329 0.15,0.16 0.255,0.374 0.318,0.647 0.06,0.273 0.091,0.621 0.091,1.043 V 5.333 C 3.775,6.282 3.67,7.097 3.459,7.775 3.248,8.453 2.899,9.006 2.416,9.438"
             inkscape:connector-curvature="0" /></g><g
           transform="translate(932.3076,776.04)"
           id="g278"><path
             id="path280"
             style="fill:#9b9c9e;fill-opacity:1;fill-rule:nonzero;stroke:none"
             d="m 0,0 h -10.613 c -1.197,0 -2.196,-0.102 -2.996,-0.303 -0.801,-0.203 -1.444,-0.521 -1.927,-0.951 -0.485,-0.432 -0.832,-0.985 -1.043,-1.663 -0.211,-0.678 -0.317,-1.493 -0.317,-2.442 V -9.16 c 0,-0.952 0.106,-1.765 0.317,-2.443 0.211,-0.677 0.558,-1.232 1.043,-1.664 0.483,-0.431 1.126,-0.743 1.927,-0.936 0.8,-0.194 1.799,-0.291 2.996,-0.291 H 0 c 0.316,0 0.475,0.159 0.475,0.476 v 2.217 c 0,0.317 -0.159,0.475 -0.475,0.475 h -10.243 c -0.581,0 -1.056,0.049 -1.426,0.145 -0.369,0.097 -0.66,0.256 -0.871,0.476 -0.212,0.221 -0.36,0.515 -0.448,0.884 -0.09,0.37 -0.133,0.837 -0.133,1.399 v 2.351 c 0,0.545 0.043,1.007 0.133,1.385 0.088,0.378 0.236,0.677 0.448,0.897 0.211,0.221 0.502,0.379 0.871,0.476 0.37,0.096 0.845,0.146 1.426,0.146 H 0 c 0.316,0 0.475,0.157 0.475,0.474 v 2.218 C 0.475,-0.158 0.316,0 0,0"
             inkscape:connector-curvature="0" /></g><g
           transform="translate(955.46,770.4961)"
           id="g282"><path
             id="path284"
             style="fill:#9b9c9e;fill-opacity:1;fill-rule:nonzero;stroke:none"
             d="m 0,0 c 0,-0.3 -0.149,-0.449 -0.449,-0.449 h -10.692 v 0.714 c 0,0.843 0.199,1.446 0.595,1.807 0.395,0.361 1.165,0.541 2.31,0.541 h 6.626 c 0.616,0 1.038,-0.114 1.267,-0.342 C -0.114,2.042 0,1.655 0,1.108 Z M 2.76,4.58 C 2.416,4.924 1.949,5.17 1.36,5.32 0.77,5.469 0.026,5.544 -0.871,5.544 h -7.735 c -1.197,0 -2.196,-0.102 -2.998,-0.303 -0.799,-0.203 -1.442,-0.521 -1.925,-0.951 -0.485,-0.432 -0.832,-0.985 -1.043,-1.663 -0.211,-0.678 -0.317,-1.493 -0.317,-2.442 v -3.801 c 0,-0.952 0.106,-1.765 0.317,-2.443 0.211,-0.677 0.558,-1.233 1.043,-1.664 0.483,-0.431 1.126,-0.743 1.925,-0.936 0.802,-0.195 1.801,-0.291 2.998,-0.291 H 2.772 c 0.317,0 0.475,0.158 0.475,0.476 v 2.217 c 0,0.317 -0.158,0.475 -0.475,0.475 H -8.236 c -1.145,0 -1.915,0.185 -2.31,0.555 -0.396,0.37 -0.595,0.967 -0.595,1.796 v 0.633 H 2.191 c 0.511,0 0.888,0.11 1.135,0.33 0.246,0.219 0.369,0.612 0.369,1.174 v 2.508 c 0,0.792 -0.07,1.465 -0.211,2.02 C 3.344,3.789 3.102,4.237 2.76,4.58"
             inkscape:connector-curvature="0" /></g><g
           transform="translate(986.5449,774.7861)"
           id="g286"><path
             id="path288"
             style="fill:#9b9c9e;fill-opacity:1;fill-rule:nonzero;stroke:none"
             d="m 0,0 c -0.484,0.43 -1.132,0.748 -1.94,0.951 -0.809,0.201 -1.805,0.303 -2.984,0.303 h -7.577 c -1.195,0 -2.194,-0.102 -2.995,-0.303 C -16.298,0.748 -16.94,0.43 -17.423,0 c -0.485,-0.432 -0.832,-0.985 -1.043,-1.663 -0.211,-0.678 -0.316,-1.493 -0.316,-2.442 v -8.553 c 0,-0.388 0.201,-0.582 0.606,-0.582 h 2.588 c 0.387,0 0.579,0.194 0.579,0.582 v 7.656 c 0,0.544 0.044,1.007 0.134,1.385 0.086,0.378 0.241,0.677 0.461,0.897 0.221,0.22 0.514,0.379 0.884,0.476 0.37,0.096 0.837,0.145 1.399,0.145 h 7.022 c 0.565,0 1.022,-0.049 1.374,-0.145 0.351,-0.097 0.628,-0.256 0.832,-0.476 0.201,-0.22 0.337,-0.519 0.407,-0.897 0.07,-0.378 0.108,-0.841 0.108,-1.385 v -7.656 c 0,-0.388 0.193,-0.582 0.579,-0.582 h 2.587 c 0.387,0 0.581,0.194 0.581,0.582 v 8.553 c 0,0.949 -0.105,1.764 -0.316,2.442 C 0.832,-0.985 0.483,-0.432 0,0"
             inkscape:connector-curvature="0" /></g><g
           transform="translate(1007.3623,764.6626)"
           id="g290"><path
             id="path292"
             style="fill:#9b9c9e;fill-opacity:1;fill-rule:nonzero;stroke:none"
             d="m 0,0 h -2.562 c -0.88,0 -1.469,0.171 -1.769,0.513 -0.298,0.345 -0.447,0.886 -0.447,1.624 v 6.125 h 4.619 c 0.316,0 0.475,0.159 0.475,0.475 v 2.166 c 0,0.316 -0.159,0.474 -0.475,0.474 h -4.619 v 3.485 c 0,0.387 -0.196,0.581 -0.582,0.581 h -2.614 c -0.386,0 -0.581,-0.194 -0.581,-0.581 v -3.485 h -2.508 c -0.316,0 -0.475,-0.158 -0.475,-0.474 V 8.737 c 0,-0.316 0.159,-0.475 0.475,-0.475 h 2.508 V 2.137 c 0,-0.932 0.08,-1.734 0.238,-2.402 0.159,-0.669 0.445,-1.214 0.859,-1.636 0.413,-0.423 0.964,-0.731 1.65,-0.925 0.685,-0.194 1.557,-0.29 2.614,-0.29 H 0 c 0.316,0 0.474,0.158 0.474,0.476 v 2.164 C 0.474,-0.16 0.316,0 0,0"
             inkscape:connector-curvature="0" /></g><g
           transform="translate(1030.1436,770.4961)"
           id="g294"><path
             id="path296"
             style="fill:#9b9c9e;fill-opacity:1;fill-rule:nonzero;stroke:none"
             d="M 0,0 C 0,-0.3 -0.147,-0.449 -0.447,-0.449 H -11.14 v 0.714 c 0,0.843 0.2,1.446 0.596,1.807 0.394,0.361 1.164,0.541 2.309,0.541 h 6.625 c 0.617,0 1.039,-0.114 1.268,-0.342 C -0.112,2.042 0,1.655 0,1.108 Z M 2.761,4.58 C 2.417,4.924 1.95,5.17 1.362,5.32 0.771,5.469 0.028,5.544 -0.869,5.544 H -8.606 C -9.802,5.544 -10.8,5.442 -11.602,5.241 -12.403,5.038 -13.045,4.72 -13.528,4.29 -14.013,3.858 -14.36,3.305 -14.571,2.627 -14.782,1.949 -14.888,1.134 -14.888,0.185 v -3.801 c 0,-0.952 0.106,-1.765 0.317,-2.443 0.211,-0.677 0.558,-1.233 1.043,-1.664 0.483,-0.431 1.125,-0.743 1.926,-0.936 0.802,-0.195 1.8,-0.291 2.996,-0.291 H 2.772 c 0.317,0 0.477,0.158 0.477,0.476 v 2.217 c 0,0.317 -0.16,0.475 -0.477,0.475 H -8.235 c -1.145,0 -1.915,0.185 -2.309,0.555 -0.396,0.37 -0.596,0.967 -0.596,1.796 v 0.633 H 2.191 c 0.511,0 0.889,0.11 1.137,0.33 0.246,0.219 0.368,0.612 0.368,1.174 v 2.508 c 0,0.792 -0.07,1.465 -0.211,2.02 C 3.345,3.789 3.104,4.237 2.761,4.58"
             inkscape:connector-curvature="0" /></g><g
           transform="translate(1056.1221,776.04)"
           id="g298"><path
             id="path300"
             style="fill:#9b9c9e;fill-opacity:1;fill-rule:nonzero;stroke:none"
             d="m 0,0 h -7.393 c -1.197,0 -2.196,-0.102 -2.997,-0.303 -0.799,-0.203 -1.441,-0.521 -1.926,-0.951 -0.484,-0.432 -0.832,-0.985 -1.043,-1.663 -0.211,-0.678 -0.317,-1.493 -0.317,-2.442 v -8.553 c 0,-0.388 0.201,-0.582 0.607,-0.582 h 2.588 c 0.386,0 0.581,0.194 0.581,0.582 v 7.841 c 0,0.545 0.042,1.007 0.131,1.385 0.089,0.378 0.242,0.677 0.461,0.897 0.221,0.221 0.516,0.379 0.887,0.476 0.367,0.096 0.834,0.146 1.399,0.146 H 0 c 0.316,0 0.476,0.157 0.476,0.474 v 2.218 C 0.476,-0.158 0.316,0 0,0"
             inkscape:connector-curvature="0" /></g><g
           transform="translate(1069.3252,780.0259)"
           id="g302"><path
             id="path304"
             style="fill:#9b9c9e;fill-opacity:1;fill-rule:nonzero;stroke:none"
             d="m 0,0 h -1.218 -2.851 -1.247 c -0.387,0 -0.58,-0.195 -0.58,-0.582 v -2.852 c 0,-0.405 0.193,-0.607 0.58,-0.607 h 0.639 v -10.398 h -0.639 c -0.387,0 -0.58,-0.194 -0.58,-0.581 v -2.853 c 0,-0.405 0.193,-0.606 0.58,-0.606 H -4.069 -1.218 0 c 0.39,0 0.581,0.201 0.581,0.606 v 2.853 c 0,0.387 -0.191,0.581 -0.581,0.581 H -0.636 V -4.041 H 0 c 0.39,0 0.581,0.202 0.581,0.607 v 2.852 C 0.581,-0.195 0.39,0 0,0"
             inkscape:connector-curvature="0" /></g><g
           transform="translate(1096.751,768.8062)"
           id="g306"><path
             id="path308"
             style="fill:#9b9c9e;fill-opacity:1;fill-rule:nonzero;stroke:none"
             d="M 0,0 C 0,-0.687 -0.057,-1.263 -0.171,-1.729 -0.286,-2.196 -0.476,-2.565 -0.738,-2.838 -1.003,-3.11 -1.359,-3.305 -1.808,-3.418 -2.257,-3.533 -2.824,-3.59 -3.511,-3.59 h -7.84 c -0.687,0 -1.253,0.057 -1.704,0.172 -0.448,0.113 -0.806,0.308 -1.069,0.58 -0.265,0.273 -0.454,0.642 -0.566,1.109 -0.116,0.466 -0.174,1.042 -0.174,1.729 v 3.961 c 0,0.685 0.058,1.262 0.174,1.728 0.112,0.466 0.301,0.836 0.566,1.109 0.263,0.273 0.621,0.467 1.069,0.581 0.451,0.114 1.017,0.171 1.704,0.171 h 7.84 c 0.687,0 1.254,-0.057 1.703,-0.171 0.449,-0.114 0.805,-0.308 1.07,-0.581 C -0.476,6.525 -0.286,6.155 -0.171,5.689 -0.057,5.223 0,4.646 0,3.961 Z M 3.645,7.472 C 3.38,8.351 2.953,9.068 2.362,9.624 1.774,10.177 1.008,10.582 0.065,10.837 -0.877,11.093 -2.016,11.22 -3.352,11.22 h -8.159 c -1.338,0 -2.472,-0.127 -3.405,-0.383 -0.933,-0.255 -1.694,-0.66 -2.282,-1.213 -0.591,-0.556 -1.023,-1.273 -1.294,-2.152 -0.275,-0.881 -0.41,-1.955 -0.41,-3.222 v -4.541 c 0,-1.266 0.135,-2.344 0.41,-3.234 0.271,-0.888 0.703,-1.61 1.294,-2.163 0.588,-0.556 1.349,-0.955 2.282,-1.203 0.933,-0.246 2.067,-0.369 3.405,-0.369 h 8.159 c 1.336,0 2.475,0.123 3.417,0.369 0.943,0.248 1.709,0.647 2.297,1.203 0.591,0.553 1.018,1.275 1.283,2.163 0.262,0.89 0.393,1.968 0.393,3.234 V 4.25 c 0,1.267 -0.131,2.341 -0.393,3.222"
             inkscape:connector-curvature="0" /></g></g></g></g></svg>