<?xml version="1.0" encoding="UTF-8"?>
<svg width="179px" height="58px" viewBox="0 0 179 58" version="1.1" xmlns="http://www.w3.org/2000/svg" xmlns:xlink="http://www.w3.org/1999/xlink">
    <!-- Generator: Sketch 48.2 (47327) - http://www.bohemiancoding.com/sketch -->
    <title>Toptal</title>
    <desc>Created with Sketch.</desc>
    <defs></defs>
    <g id="Landing-B" stroke="none" stroke-width="1" fill="none" fill-rule="evenodd" transform="translate(-642.000000, -3085.000000)">
        <g id="Sponsors" transform="translate(1.000000, 2823.000000)" fill="#3D64A8">
            <g id="Logos" style="mix-blend-mode: luminosity;" transform="translate(210.000000, 262.000000)">
                <g id="Toptal" transform="translate(431.000000, 0.000000)">
                    <path d="M11.455,34.3808182 L25.7880303,20.0460303 L28.7407576,22.997 L14.4059697,37.3335455 L11.455,34.3808182 Z M39.7431818,24.3222121 L15.9262727,0.507060606 L11.1105152,5.32281818 L20.0407576,14.2530606 L0.77069697,33.5213636 L24.5858485,57.3400303 L29.4033636,52.5225152 L20.4731212,43.587 L39.7431818,24.3222121 Z" id="Fill-207"></path>
                    <path d="M56.1617515,7.42505455 L56.1617515,14.7207515 L64.0866606,14.7207515 L64.0866606,18.9371758 L56.1617515,18.9371758 L56.1617515,35.3529333 C56.1617515,39.1282061 57.2303576,41.2671758 60.3113879,41.2671758 C61.8211455,41.2671758 62.7034485,41.1406303 63.5207212,40.889297 L63.7720545,45.1022061 C62.7034485,45.4800848 61.0038727,45.8579636 58.8666606,45.8579636 C56.2865394,45.8579636 54.2108424,44.9756606 52.890903,43.5309333 C51.3811455,41.8313576 50.7519333,39.1282061 50.7519333,35.5409939 L50.7519333,18.9371758 L46.0346,18.9371758 L46.0346,14.7207515 L50.7519333,14.7207515 L50.7519333,9.06135758 L56.1617515,7.42505455 Z" id="Fill-209"></path>
                    <path d="M69.7725939,30.0058606 C69.7725939,36.674103 73.5461091,41.7042848 78.9559273,41.7042848 C84.2392,41.7042848 88.2025333,36.7356182 88.2025333,29.8810727 C88.2025333,24.7225879 85.6224121,18.2441636 79.0824727,18.2441636 C72.6022909,18.2441636 69.7725939,24.2831939 69.7725939,30.0058606 M93.8636848,29.6912545 C93.8636848,40.9520424 86.0002909,45.8591939 78.7045939,45.8591939 C70.5265939,45.8591939 64.1114424,39.8184061 64.1114424,30.1939212 C64.1114424,20.0685273 70.8412,14.0910121 79.2090182,14.0910121 C87.9512,14.0910121 93.8636848,20.4464061 93.8636848,29.6912545" id="Fill-211"></path>
                    <path d="M102.09037,32.7743939 C102.09037,33.5934242 102.153642,34.3474242 102.343461,35.0381515 C103.348794,38.8749394 106.681158,41.5165758 110.646248,41.5165758 C116.495461,41.5165758 119.891097,36.7359697 119.891097,29.7548788 C119.891097,23.7176061 116.683521,18.4958485 110.836067,18.4958485 C107.059036,18.4958485 103.475339,21.1374848 102.468248,25.2888788 C102.27843,25.9813636 102.09037,26.8003939 102.09037,27.4893636 L102.09037,32.7743939 Z M96.6190364,24.6596667 C96.6190364,20.7596061 96.4924909,17.6135455 96.367703,14.7223333 L101.271339,14.7223333 L101.587703,19.9423333 L101.712491,19.9423333 C103.916491,16.2320909 107.563461,14.0913636 112.532127,14.0913636 C119.95437,14.0913636 125.488976,20.3184545 125.488976,29.5035455 C125.488976,40.4479697 118.759218,45.8577879 111.590067,45.8577879 C107.563461,45.8577879 104.041279,44.096697 102.215158,41.0789394 L102.09037,41.0789394 L102.09037,57.6194848 L96.6190364,57.6194848 L96.6190364,24.6596667 Z" id="Fill-213"></path>
                    <path d="M136.05763,7.42505455 L136.05763,14.7207515 L143.980782,14.7207515 L143.980782,18.9371758 L136.05763,18.9371758 L136.05763,35.3529333 C136.05763,39.1282061 137.124479,41.2671758 140.207267,41.2671758 C141.717024,41.2671758 142.59757,41.1406303 143.414842,40.889297 L143.667933,45.1022061 C142.59757,45.4800848 140.897994,45.8579636 138.760782,45.8579636 C136.182418,45.8579636 134.106721,44.9756606 132.786782,43.5309333 C131.275267,41.8313576 130.647812,39.1282061 130.647812,35.5409939 L130.647812,18.9371758 L125.928721,18.9371758 L125.928721,14.7207515 L130.647812,14.7207515 L130.647812,9.06135758 L136.05763,7.42505455 Z" id="Fill-215"></path>
                    <path d="M163.83383,29.6281576 C157.793042,29.5033697 150.938497,30.5719758 150.938497,36.4862182 C150.938497,40.1331879 153.327042,41.7677333 156.095224,41.7677333 C160.12183,41.7677333 162.700194,39.2526424 163.580739,36.6742788 C163.7688,36.0450667 163.83383,35.4158545 163.83383,34.9131879 L163.83383,29.6281576 Z M169.180376,37.8676727 C169.180376,40.5110667 169.305164,43.0894303 169.618012,45.1651273 L164.649345,45.1651273 L164.209952,41.3265818 L164.021891,41.3265818 C162.322315,43.7204 159.053224,45.8576121 154.712012,45.8576121 C148.546436,45.8576121 145.403891,41.5164 145.403891,37.1136727 C145.403891,29.754703 151.945588,25.728097 163.705527,25.7913697 L163.705527,25.1639152 C163.705527,22.7085818 163.0148,18.1177939 156.787709,18.1810667 C153.892982,18.1810667 150.938497,18.9983394 148.799527,20.4448242 L147.541103,16.7345818 C150.056194,15.1633091 153.768194,14.0911879 157.604982,14.0911879 C166.914861,14.0911879 169.180376,20.4448242 169.180376,26.4838545 L169.180376,37.8676727 Z" id="Fill-217"></path>
                    <polygon id="Fill-219" points="173.281152 45.1644242 178.815758 45.1644242 178.815758 0.506181818 173.281152 0.506181818"></polygon>
                </g>
            </g>
        </g>
    </g>
</svg>
