<?xml version="1.0" encoding="UTF-8" standalone="no"?>
<svg
   xmlns:dc="http://purl.org/dc/elements/1.1/"
   xmlns:cc="http://creativecommons.org/ns#"
   xmlns:rdf="http://www.w3.org/1999/02/22-rdf-syntax-ns#"
   xmlns:svg="http://www.w3.org/2000/svg"
   xmlns="http://www.w3.org/2000/svg"
   xmlns:sodipodi="http://sodipodi.sourceforge.net/DTD/sodipodi-0.dtd"
   xmlns:inkscape="http://www.inkscape.org/namespaces/inkscape"
   id="Layer_1"
   data-name="Layer 1"
   viewBox="0 0 195.70371 50.834819"
   version="1.1"
   sodipodi:docname="adeva.svg"
   width="195.7037"
   height="50.83482"
   inkscape:version="0.92.2 2405546, 2018-03-11">
  <metadata
     id="metadata23">
    <rdf:RDF>
      <cc:Work
         rdf:about="">
        <dc:format>image/svg+xml</dc:format>
        <dc:type
           rdf:resource="http://purl.org/dc/dcmitype/StillImage" />
        <dc:title>AdevaLogo</dc:title>
      </cc:Work>
    </rdf:RDF>
  </metadata>
  <sodipodi:namedview
     pagecolor="#ffffff"
     bordercolor="#666666"
     borderopacity="1"
     objecttolerance="10"
     gridtolerance="10"
     guidetolerance="10"
     inkscape:pageopacity="0"
     inkscape:pageshadow="2"
     inkscape:window-width="1131"
     inkscape:window-height="561"
     id="namedview21"
     showgrid="false"
     fit-margin-top="0"
     fit-margin-left="0"
     fit-margin-right="0"
     fit-margin-bottom="0"
     inkscape:zoom="1.517629"
     inkscape:cx="97.853696"
     inkscape:cy="25.402671"
     inkscape:window-x="193"
     inkscape:window-y="73"
     inkscape:window-maximized="0"
     inkscape:current-layer="Layer_1" />
  <defs
     id="defs4">
    <style
       id="style2">.cls-1{opacity:0.78;}.cls-2{fill:#979999;}.cls-3{fill:#ed6f34;}</style>
  </defs>
  <title
     id="title6">AdevaLogo</title>
  <g
     id="g3074"
     transform="translate(0.00369734,0.0021484)">
    <g
       id="g3076"
       class="cls-1"
       style="opacity:0.77999998">
      <path
         id="path3078"
         class="cls-2"
         d="M 88.2,41.65 H 85 V 38 A 11.91,11.91 0 0 1 75.34,42.25 12.1,12.1 0 0 1 66.5,38 12.87,12.87 0 0 1 66.43,19.79 l 0.07,-0.07 a 11.72,11.72 0 0 1 9.14,-3.72 12.23,12.23 0 0 1 8.75,4 11.84,11.84 0 0 1 3.8,9.27 z M 66.31,28.78 A 9.59,9.59 0 0 0 68.88,35.93 9,9 0 0 0 75.32,39 8.56,8.56 0 0 0 82.21,36.17 9.78,9.78 0 0 0 85,29 9.66,9.66 0 0 0 82.23,22.56 8.5,8.5 0 0 0 75.79,19.79 9,9 0 0 0 69.35,22.56 9.33,9.33 0 0 0 66.57,29 Z"
         inkscape:connector-curvature="0"
         style="fill:#979999" />
      <path
         id="path3080"
         class="cls-2"
         d="m 117,29.42 a 12.1,12.1 0 0 1 -3.8,9.21 12.1,12.1 0 0 1 -9.2,3.67 12,12 0 0 1 -8.69,-3.93 13.07,13.07 0 0 1 0.32,-18.22 11.72,11.72 0 0 1 9.14,-3.73 12.1,12.1 0 0 1 9,4.38 V 8.44 H 117 Z m -12.9,9.66 a 8.43,8.43 0 0 0 6.9,-2.84 9.46,9.46 0 0 0 3,-7.08 9.66,9.66 0 0 0 -2.77,-6.44 8.43,8.43 0 0 0 -6.49,-2.72 8.88,8.88 0 0 0 -6.44,2.77 9.33,9.33 0 0 0 -2.77,6.44 9.66,9.66 0 0 0 2.58,6.79 8.69,8.69 0 0 0 5.89,3.14 z"
         inkscape:connector-curvature="0"
         style="fill:#979999" />
      <path
         id="path3082"
         class="cls-2"
         d="m 145,33.54 a 12.87,12.87 0 0 1 -11.72,8.75 12.17,12.17 0 0 1 -8.88,-3.67 13,13 0 0 1 -0.13,-18.6 12,12 0 0 1 9,-3.73 12.87,12.87 0 0 1 8.5,4.06 11.84,11.84 0 0 1 3.48,8.3 v 1.8 h -21.78 a 9.14,9.14 0 0 0 3.15,6.44 9.4,9.4 0 0 0 6.44,2.38 8.69,8.69 0 0 0 8.3,-5.41 h 3.48 z m -2.64,-6.44 a 9.66,9.66 0 0 0 -3.22,-5.6 9.78,9.78 0 0 0 -12.3,0 9.46,9.46 0 0 0 -3.35,5.66 z"
         inkscape:connector-curvature="0"
         style="fill:#979999" />
      <path
         id="path3084"
         class="cls-2"
         d="M 159.72,41.65 H 156.3 L 146.13,17 h 3.48 L 158,37.4 166.28,17 h 3.6 z"
         inkscape:connector-curvature="0"
         style="fill:#979999" />
      <path
         id="path3086"
         class="cls-2"
         d="m 195.7,41.65 h -3.22 V 38 A 11.91,11.91 0 0 1 182.63,42.44 12.1,12.1 0 0 1 174.07,38 12.87,12.87 0 0 1 174,19.78 l 0.07,-0.07 a 11.72,11.72 0 0 1 9.14,-3.71 12.23,12.23 0 0 1 8.79,4 11.84,11.84 0 0 1 3.44,9 V 41.65 Z M 173.81,28.78 a 9.59,9.59 0 0 0 2.51,6.82 9,9 0 0 0 6.44,3.09 8.56,8.56 0 0 0 6.89,-2.83 9.78,9.78 0 0 0 2.77,-7.15 9.66,9.66 0 0 0 -2.77,-6.44 8.5,8.5 0 0 0 -6.44,-2.77 9,9 0 0 0 -6.44,2.77 9.33,9.33 0 0 0 -2.77,6.44 z"
         inkscape:connector-curvature="0"
         style="fill:#979999" />
    </g>
    <g
       id="g3088">
      <g
         id="g3090">
        <path
           id="path3092"
           class="cls-3"
           d="m 25.62,16.22 a 9.27,9.27 0 1 0 9.14,9.4 q 0,-0.1 0,-0.19 a 9.21,9.21 0 0 0 -9.14,-9.21 z"
           inkscape:connector-curvature="0"
           style="fill:#ed6f34" />
      </g>
      <g
         id="g3094">
        <path
           id="path3096"
           class="cls-3"
           d="M 43.65,7.47 A 24.85,24.85 0 0 0 25.56,0 24.72,24.72 0 0 0 7.56,7.47 24.46,24.46 0 0 0 0,25.49 a 24.27,24.27 0 0 0 7.53,18 24.85,24.85 0 0 0 18,7.34 H 51.31 V 25.49 a 24.4,24.4 0 0 0 -7.6,-18 z m -18,37.59 A 19.31,19.31 0 1 1 44.94,25.75 19.31,19.31 0 0 1 25.62,45.06 Z"
           inkscape:connector-curvature="0"
           style="fill:#ed6f34" />
      </g>
    </g>
  </g>
</svg>
