<?xml version="1.0" encoding="UTF-8"?>
<svg width="276px" height="58px" viewBox="0 0 276 58" version="1.1" xmlns="http://www.w3.org/2000/svg" xmlns:xlink="http://www.w3.org/1999/xlink">
    <!-- Generator: Sketch 48.2 (47327) - http://www.bohemiancoding.com/sketch -->
    <title>Microsoft</title>
    <desc>Created with Sketch.</desc>
    <defs></defs>
    <g id="Landing-B" stroke="none" stroke-width="1" fill="none" fill-rule="evenodd" transform="translate(-211.000000, -3085.000000)" opacity="1">
        <g id="Sponsors" transform="translate(1.000000, 2823.000000)">
            <g id="Logos" style="mix-blend-mode: luminosity;" transform="translate(210.000000, 262.000000)">
                <g id="Microsoft">
                    <path d="M275.191489,26.0489153 L275.191489,21.1650871 C273.212929,21.1713453 271.234369,21.1488161 269.258305,21.1776034 C269.213394,18.6681017 269.253315,16.1573485 269.237097,13.6478468 C267.259784,14.2448704 265.292452,14.8819459 263.30516,15.4489305 C263.257754,17.3538989 263.302665,19.2601188 263.280209,21.1650871 C260.356032,21.1625839 257.433103,21.1675904 254.508926,21.1613323 C254.546352,19.6606378 254.40663,18.1486787 254.621203,16.6579972 C254.79835,15.4827243 255.478246,14.3061999 256.619723,13.8518612 C258.061851,13.2585925 259.671146,13.6528533 261.038423,14.2573866 C261.030938,12.5389099 261.052146,10.8191816 261.027196,9.10195656 C258.14793,8.30717674 254.845755,8.46237784 252.290843,10.1307897 C250.641627,11.1909133 249.446507,12.8831059 248.910076,14.7605386 C248.273843,16.8419856 248.598197,19.0373301 248.4959,21.1725969 C247.108663,21.1625839 245.72392,21.1488161 244.340426,21.1801066 C244.355396,22.7884406 244.347911,24.3955229 244.342921,26.000102 C245.733901,26.0276377 247.126128,25.9950955 248.515861,26.0226312 C248.503385,32.783892 248.512118,39.5426495 248.512118,46.3064136 L254.507679,46.3064136 C254.507679,39.5413979 254.506431,32.7788855 254.508926,26.0151215 C257.433103,26.010115 260.358527,26.0126182 263.283952,26.0138699 C263.291437,30.3244552 263.275219,34.633789 263.290189,38.9443743 C263.316387,40.950724 263.658207,43.098507 264.983068,44.6830601 C266.130783,46.0873798 267.950908,46.7269585 269.709905,46.8583788 C271.563714,46.989799 273.477403,46.7632555 275.191489,46.0160373 L275.191489,41.0833959 C273.876608,41.9657893 272.06272,42.3162434 270.633067,41.5127022 C269.778519,41.0408408 269.447927,40.0282788 269.338146,39.1133433 C269.156008,37.5638355 269.27078,36.0005599 269.239592,34.4447941 C269.237097,31.6361548 269.243334,28.8287672 269.235849,26.020128 C271.219399,26.0263861 273.205444,25.9675599 275.191489,26.0489153" id="Fill-1" fill="#767676"></path>
                    <path d="M122.830353,12.3857463 C121.119497,12.5901555 119.658729,14.2213945 119.704899,16.0530083 C119.633079,17.7931758 120.96688,19.3517958 122.566158,19.6530304 C124.109006,20.006712 125.878856,19.3222102 126.670159,17.8510021 C127.384512,16.5465488 127.207527,14.7687269 126.241804,13.6525452 C125.418439,12.6345338 124.073096,12.1894059 122.830353,12.3857463" id="Fill-3" fill="#767676"></path>
                    <path d="M106.285063,12.363548 C102.78299,20.8832823 99.2027284,29.3697364 95.674172,37.8771447 C94.9376899,36.1884821 94.2819181,34.4665393 93.5794857,32.764318 C90.8340721,25.9542005 88.0697419,19.1527112 85.3268505,12.3438263 L76.5130261,12.3438263 C76.5092428,23.8587798 76.5105039,35.3737332 76.5130261,46.8899192 C78.4349417,46.887454 80.3581185,46.8923844 82.2812952,46.887454 C82.2762508,41.7314863 82.2812952,36.5767512 82.2800341,31.4207835 C82.3002117,27.6970976 82.2384178,23.972179 82.3115616,20.2497256 C82.4212773,20.4185919 82.5221652,20.5960864 82.6167477,20.776046 C86.2121424,29.4806704 89.7797929,38.1963882 93.392843,46.893617 C94.8456296,46.8714302 96.2984162,46.918269 97.7486807,46.8677324 C101.230576,38.163108 104.800749,29.4905312 108.302822,20.7933024 C108.396144,20.6022494 108.502076,20.4173593 108.621881,20.2410974 C108.648364,20.6207384 108.662236,21.0040771 108.658453,21.3849507 C108.647103,29.8837308 108.669802,38.3788131 108.648364,46.8763606 C110.686301,46.9034778 112.724237,46.8825236 114.764696,46.887454 C114.762174,35.3737332 114.759652,23.8600124 114.765957,12.3462916 C111.938572,12.3536872 109.111187,12.3191743 106.285063,12.363548" id="Fill-5" fill="#767676"></path>
                    <path d="M148.836449,21.5990738 C145.931771,20.7931268 142.796523,20.7599046 139.890592,21.5732343 C137.22275,22.3287327 134.774199,23.9357048 133.209081,26.2071217 C131.341967,28.8685924 130.681585,32.1945079 130.828198,35.3813822 C130.973557,38.447672 132.205351,41.50904 134.472203,43.6549507 C136.559862,45.6458243 139.434465,46.7175492 142.317841,46.8676645 C145.134802,47.0030144 148.085844,46.6326479 150.548179,45.1942479 C150.526876,43.4088601 150.551938,41.6234722 150.534395,39.8380843 C148.947975,40.9787146 147.094645,41.7945052 145.132296,42.0172173 C143.144884,42.1636412 141.017126,41.6948385 139.49712,40.3696402 C138.036009,39.1465695 137.257836,37.3021199 137.063606,35.4564398 C136.804215,33.0976607 137.152576,30.5383177 138.660052,28.6101972 C139.831697,27.0549041 141.701317,26.055776 143.66116,25.8810516 C146.131014,25.5758992 148.593348,26.4987392 150.534395,27.9568265 C150.553191,26.0717719 150.520611,24.1867173 150.553191,22.3016627 C150.01436,21.9915884 149.435429,21.7639546 148.836449,21.5990738" id="Fill-7" fill="#767676"></path>
                    <path d="M211.679581,32.8369326 C209.857208,31.8327343 207.758639,31.3552478 206.000797,30.2341392 C204.972163,29.6114378 204.68048,28.247894 205.099936,27.2080072 C205.630386,26.1570447 206.90424,25.6881727 208.063228,25.6463311 C210.364426,25.5700318 212.681112,26.2382667 214.577051,27.4799776 C214.57576,25.6697132 214.579632,23.8582182 214.57576,22.0442619 C211.86156,21.0646763 208.858258,20.7102533 205.991763,21.1926623 C203.567955,21.6049251 201.189319,22.8060251 199.819958,24.8070379 C198.62096,26.5250047 198.467375,28.7413787 198.962978,30.7067031 C199.295961,32.0407116 200.15036,33.2221214 201.278373,34.0614146 C202.88521,35.2354406 204.804381,35.8913692 206.631917,36.6752838 C207.606344,37.1121593 208.63756,37.5576493 209.340955,38.3649459 C210.090812,39.4134471 209.863661,41.1252607 208.598841,41.7258107 C207.278524,42.3300526 205.737508,42.3189768 204.319103,42.0999238 C202.283776,41.765191 200.359442,40.9382041 198.691945,39.785099 C198.668714,41.6888916 198.690654,43.5939149 198.68162,45.5013995 C200.664032,46.343154 202.831004,46.7480329 204.98636,46.8809415 C208.023219,46.9892374 211.325947,46.4243759 213.618111,44.3815214 C216.019978,42.3571265 216.598182,38.7722862 215.232692,36.0587356 C214.504775,34.6102779 213.113474,33.604849 211.679581,32.8369326" id="Fill-9" fill="#767676"></path>
                    <path d="M163.411146,21.8444449 C161.883907,22.7094322 160.914333,24.2456396 160.264147,25.8299722 C160.269217,24.3735514 160.260345,22.918397 160.269217,21.4619761 C158.262895,21.4518445 156.259107,21.4429793 154.255319,21.4683084 C154.266726,29.9434113 154.255319,38.4185141 154.260389,46.893617 L160.265415,46.893617 C160.266682,42.8384348 160.265415,38.784519 160.265415,34.7293368 C160.215985,32.9677008 160.361739,31.1465415 161.132329,29.5356134 C161.84335,28.013337 163.213429,26.6873608 164.942187,26.4910606 C166.35916,26.3479514 167.858515,26.6797621 169.05876,27.4586307 C169.06383,25.4285066 169.054958,23.3983826 169.06383,21.3682586 C167.228609,20.751496 165.091742,20.8363484 163.411146,21.8444449" id="Fill-11" fill="#767676"></path>
                    <path d="M119.702128,22.225012 C119.707289,30.8596578 119.700837,39.4943036 119.705999,48.1276596 L125.862018,48.1276596 C125.86976,39.4981734 125.847825,30.8661073 125.87234,22.2366211 C123.815603,22.196634 121.757575,22.2172725 119.702128,22.225012" id="Fill-13" fill="#767676"></path>
                    <path d="M189.135872,38.7067674 C188.558755,39.9762408 187.503635,41.0501267 186.173757,41.5593922 C184.615542,42.1461546 182.866627,42.1793675 181.259482,41.7709711 C179.622227,41.3490434 178.235892,40.1902799 177.480621,38.7141481 C176.50956,36.8136284 176.362771,34.6154221 176.563508,32.530386 C176.746679,30.6347867 177.419146,28.6850626 178.893303,27.3749956 C179.962224,26.3970583 181.418816,25.9185456 182.859099,25.8398185 C184.670744,25.7229581 186.600321,26.226073 187.902598,27.5176884 C189.296461,28.8609683 189.835939,30.8094623 189.983982,32.6681583 C190.091878,34.7015298 190.005311,36.8222392 189.135872,38.7067674 M189.69166,22.1470288 C187.008067,20.9476717 183.954366,20.7877574 181.06,21.1494097 C178.022609,21.5245932 175.064258,22.9269185 173.134681,25.3022605 C171.37322,27.4229699 170.516327,30.1476632 170.351974,32.8514446 C170.109836,36.0386592 170.651824,39.4202312 172.560073,42.0797286 C174.186037,44.3738835 176.752952,45.9533445 179.525622,46.5339563 C181.844126,47.011239 184.268017,47.0136992 186.585266,46.5401069 C189.296461,45.9939381 191.828247,44.5227268 193.506904,42.352813 C195.147923,40.3096006 195.970942,37.7312903 196.157878,35.1579006 C196.346068,32.5242354 196.075074,29.7946217 194.958478,27.3651547 C193.91214,25.083301 192.023965,23.1778609 189.69166,22.1470288" id="Fill-15" fill="#767676"></path>
                    <path d="M236.721059,36.4569974 C236.490026,37.7573407 236.030473,39.0539933 235.161589,40.0836881 C234.285172,41.1183037 232.980591,41.7494069 231.634575,41.9425516 C230.191877,42.1541495 228.670076,42.0520412 227.319038,41.482449 C225.861272,40.8784106 224.731222,39.6420388 224.137317,38.2199037 C223.420363,36.5258897 223.278479,34.6485729 223.420363,32.8364578 C223.55848,31.0809328 224.067003,29.2798897 225.248534,27.9168051 C226.32836,26.6410662 227.984512,25.93738 229.65322,25.8463437 C231.358341,25.7294727 233.177722,26.115762 234.487326,27.2426442 C235.69648,28.2255905 236.364465,29.6957043 236.670835,31.17689 C237.016128,32.9139617 237.012361,34.7113142 236.721059,36.4569974 M236.980971,22.3328333 C234.233692,20.9722092 231.035649,20.7741436 228.024691,21.1407494 C225.596338,21.4458441 223.20942,22.3488261 221.357393,23.941962 C219.09478,25.8524948 217.767598,28.6598584 217.377103,31.5311936 C217.005442,34.4025288 217.129747,37.4276415 218.32509,40.1156738 C219.471464,42.7508066 221.73282,44.8926208 224.454987,45.9419991 C227.140741,46.977845 230.127841,47.0934857 232.954224,46.6456854 C235.845898,46.1782015 238.583131,44.6884042 240.372378,42.396503 C242.285931,40.0295583 243.107101,36.9650785 243.102078,33.9805631 C243.143514,31.9826846 242.88988,29.9577413 242.164136,28.0791943 C241.236239,25.6273644 239.377934,23.5064638 236.980971,22.3328333" id="Fill-17" fill="#767676"></path>
                    <path d="M0,0 L27.1489362,0 C27.1464926,9.04923815 27.1489362,18.0984763 27.1464926,27.1489362 L0,27.1489362 L0,0 Z" id="Fill-19" fill="#E7522A"></path>
                    <path d="M30.8513693,0 L58,0 C57.9998045,9.04923815 58.0010263,18.0984763 57.997361,27.1489362 C48.9491044,27.1464927 39.9008477,27.1489362 30.852591,27.1489362 C30.8501475,18.0984763 30.8513693,9.04923815 30.8513693,0" id="Fill-22" fill="#80B61B"></path>
                    <path d="M0,30.8510638 C9.04946439,30.8535073 18.097707,30.8486204 27.1483932,30.8535073 C27.1496149,39.9027454 27.1483932,48.9495401 27.1483932,58 L0,58 L0,30.8510638 Z" id="Fill-25" fill="#3D9ED3"></path>
                    <path d="M30.8527425,30.852591 C39.9001993,30.8501475 48.9500996,30.8513693 58,30.8513693 L58,58 L30.8515207,58 C30.8527425,48.9504564 30.8490771,39.8996911 30.8527425,30.852591" id="Fill-27" fill="#F9B714"></path>
                </g>
            </g>
        </g>
    </g>
</svg>
