<?xml version="1.0" encoding="UTF-8" standalone="no"?>
<svg
   xmlns:dc="http://purl.org/dc/elements/1.1/"
   xmlns:cc="http://creativecommons.org/ns#"
   xmlns:rdf="http://www.w3.org/1999/02/22-rdf-syntax-ns#"
   xmlns:svg="http://www.w3.org/2000/svg"
   xmlns="http://www.w3.org/2000/svg"
   xmlns:sodipodi="http://sodipodi.sourceforge.net/DTD/sodipodi-0.dtd"
   xmlns:inkscape="http://www.inkscape.org/namespaces/inkscape"
   viewBox="0 0 690.78119 203.18869"
   height="203.18869"
   width="690.78119"
   xml:space="preserve"
   id="svg2"
   version="1.1"
   sodipodi:docname="niagara.svg"
   inkscape:version="0.92.2 2405546, 2018-03-11"><sodipodi:namedview
     pagecolor="#ffffff"
     bordercolor="#666666"
     borderopacity="1"
     objecttolerance="10"
     gridtolerance="10"
     guidetolerance="10"
     inkscape:pageopacity="0"
     inkscape:pageshadow="2"
     inkscape:window-width="1074"
     inkscape:window-height="595"
     id="namedview121"
     showgrid="false"
     fit-margin-top="0"
     fit-margin-left="0"
     fit-margin-right="0"
     fit-margin-bottom="0"
     inkscape:zoom="0.11601562"
     inkscape:cx="345.39056"
     inkscape:cy="-258.06838"
     inkscape:window-x="313"
     inkscape:window-y="57"
     inkscape:window-maximized="0"
     inkscape:current-layer="svg2" /><metadata
     id="metadata8"><rdf:RDF><cc:Work
         rdf:about=""><dc:format>image/svg+xml</dc:format><dc:type
           rdf:resource="http://purl.org/dc/dcmitype/StillImage" /><dc:title></dc:title></cc:Work></rdf:RDF></metadata><defs
     id="defs6"><clipPath
       id="clipPath20"
       clipPathUnits="userSpaceOnUse"><path
         id="path18"
         d="M 0,1080 H 1920 V 0 H 0 Z"
         inkscape:connector-curvature="0" /></clipPath><clipPath
       id="clipPath116"
       clipPathUnits="userSpaceOnUse"><path
         id="path114"
         d="M 0,1080 H 1920 V 0 H 0 Z"
         inkscape:connector-curvature="0" /></clipPath><clipPath
       id="clipPath236"
       clipPathUnits="userSpaceOnUse"><path
         id="path234"
         d="m 1074.804,821.685 c -8.972,0 -18.875,-9.095 -18.875,-22.736 v 0 -28.958 h 7.311 v 22.736 h 36.225 v -22.736 h 7.31 v 51.694 z m 0,-8.616 h 24.661 v -11.806 h -36.092 c 1.063,7.099 6.447,11.806 11.431,11.806 m -76.509,8.616 v -51.614 h 7.246 v 22.177 h 23.994 c 5.051,0 10.967,-5.824 10.967,-14.12 v 0 -8.057 h 7.245 v 8.057 c 0,6.941 -2.393,12.445 -6.115,16.513 v 0 c 4.253,2.633 6.248,6.94 6.248,12.286 v 0 c 0,8.615 -5.583,14.758 -15.487,14.758 v 0 z m 7.246,-8.616 h 26.852 c 7.046,0 8.242,-3.51 8.242,-6.142 v 0 c 0,-2.633 -1.196,-6.143 -8.242,-6.143 v 0 h -26.852 z m -47.929,8.616 c -8.974,0 -18.878,-9.095 -18.878,-22.736 v 0 -28.958 h 7.312 v 22.736 h 36.225 v -22.736 h 7.311 v 51.694 z m 0,-8.616 h 24.659 v -11.806 h -36.092 c 1.063,7.099 6.447,11.806 11.433,11.806 m -58.631,8.616 c -8.973,0 -18.876,-9.095 -18.876,-22.736 v 0 -6.302 c 0,-13.561 9.903,-22.656 18.876,-22.656 v 0 h 31.971 v 30.793 h -27.518 v -8.616 h 20.206 v -13.561 h -24.659 c -5.516,0 -11.565,5.744 -11.565,14.04 v 0 6.302 c 0,8.377 6.049,14.12 11.565,14.12 v 0 h 31.439 v 8.616 z m -58.364,0 c -8.974,0 -18.877,-9.095 -18.877,-22.736 v 0 -28.958 h 7.312 v 22.736 h 36.224 v -22.736 h 7.312 v 51.694 z m 0,-8.616 h 24.659 v -11.806 h -36.092 c 1.064,7.099 6.448,11.806 11.433,11.806 m -78.836,8.616 v -8.616 h 21.203 v -34.382 h -21.203 v -8.616 h 50.183 v 8.616 h -21.735 v 34.382 h 21.735 v 8.616 z m -60.823,0 v -51.694 h 7.31 v 43.078 h 24.727 c 5.517,0 11.565,-5.743 11.565,-14.12 v 0 -28.958 h 7.311 v 28.958 c 0,13.641 -9.771,22.736 -18.876,22.736 v 0 z"
         inkscape:connector-curvature="0" /></clipPath></defs><g
     transform="matrix(1.3333333,0,0,-1.3333333,-934.60944,1181.2571)"
     id="g10"><g
       id="g110"><g
         clip-path="url(#clipPath116)"
         id="g112"><g
           transform="translate(1155.7607,818.0425)"
           id="g118"><path
             id="path120"
             style="fill:#429dd6;fill-opacity:1;fill-rule:nonzero;stroke:none"
             d="m 0,0 -4.418,1.212 c 3.363,-4.587 12.591,-18.741 17.147,-41.36 3.009,-14.936 5.02,-29.931 6.355,-44.343 h 9.514 c -0.144,1.096 -0.279,2.18 -0.432,3.29 C 20.451,-25.35 6.546,-6.176 0,0 m 9.226,-2.528 -3.604,0.987 c 7.408,-6.635 22.031,-26.508 29.913,-82.95 h 5.68 C 32.245,-28.281 17.334,-9.02 9.226,-2.528 M -12.253,3.361 C -5.502,-5.408 6.054,-28.535 6.794,-84.491 h 5.647 C 10.391,-27.18 -2.313,-5.281 -9.59,2.63 Z m -25.42,6.969 c 2.43,-8.278 5.267,-21.782 4.614,-38.522 -0.766,-19.701 -3.178,-38.839 -6.269,-56.299 h 10.249 c 0.495,3.836 0.957,7.769 1.371,11.822 4.745,46.411 -0.894,70.397 -5.723,81.836 z m 20.997,-5.756 -4.265,1.169 c 3.379,-7.118 8.909,-21.356 10.401,-40.765 1.3,-16.937 1.364,-33.687 0.729,-49.469 h 9.681 c -0.004,2.019 -0.017,4.053 -0.049,6.121 -0.765,51.232 -10.425,73.754 -16.497,82.944 m -12.766,3.501 c 5.714,-10.939 13.477,-36.172 7.935,-88.684 -0.139,-1.313 -0.28,-2.597 -0.422,-3.882 h 5.827 c 5.06,56.825 -4.481,81.827 -10.971,91.916 z"
             inkscape:connector-curvature="0" /></g><g
           transform="translate(1197.75,808.5625)"
           id="g122"><path
             id="path124"
             style="fill:#429dd6;fill-opacity:1;fill-rule:evenodd;stroke:none"
             d="m 0,0 c -2.026,1.108 -4.046,1.93 -3.905,5.141 0.446,10.239 -4.501,17.34 -13.747,21.409 -2.256,0.992 -2.623,2.03 -2.275,4.422 2.884,19.713 -5.614,35.965 -22.384,43.248 -16.355,7.1 -34.365,2.052 -46.361,-13.283 -1.878,-2.4 -3.222,-2.423 -5.844,-1.452 -16.365,6.058 -34.289,-3.105 -38.507,-20.271 -1.274,-5.172 -3.559,-5.857 -7.897,-5.86 -4.926,0 -9.864,-0.496 -14.764,-1.055 -4.617,-0.527 -125.005,-1.415 -129.6,-2.144 0.417,-0.403 0.818,-0.683 1.209,-0.877 l 133.12,-0.049 c 13.889,0.095 32.506,-0.021 44.967,-0.131 l 15.26,-0.044 c 1.715,0.331 2.324,1.438 3.095,3.416 4.015,10.317 13.352,16.376 23.445,15.625 10.7,-0.795 18.782,-7.485 21.407,-18.263 0.714,-2.928 1.754,-4.12 4.801,-4.707 7.498,-1.443 13.329,-6.238 13.559,-13.716 0.224,-7.265 4.359,-8.662 9.399,-10.396 1.865,-0.641 3.657,-1.492 5.507,-2.192 C 0.989,-5.153 10.901,-10.457 21.293,-14.705 15.009,-8.461 7.57,-4.137 0,0"
             inkscape:connector-curvature="0" /></g><g
           transform="translate(751.8711,769.9922)"
           id="g126"><path
             id="path128"
             style="fill:#429dd6;fill-opacity:1;fill-rule:nonzero;stroke:none"
             d="m 0,0 h -7.311 v 28.957 c 0,8.377 -6.048,14.119 -11.566,14.119 H -43.603 V 0 h -7.311 v 51.692 h 32.037 C -9.771,51.692 0,42.598 0,28.957 Z"
             inkscape:connector-curvature="0" /></g><g
           transform="translate(761.7803,770.0713)"
           id="g130"><path
             id="path132"
             style="fill:#429dd6;fill-opacity:1;fill-rule:nonzero;stroke:none"
             d="M 0,0 V 8.616 H 21.203 V 42.997 H 0 v 8.616 H 50.183 V 42.997 H 28.448 V 8.616 H 50.183 V 0 Z"
             inkscape:connector-curvature="0" /></g><g
           transform="translate(865.2754,813.0684)"
           id="g134"><path
             id="path136"
             style="fill:#429dd6;fill-opacity:1;fill-rule:nonzero;stroke:none"
             d="m 0,0 h -24.658 c -4.986,0 -10.369,-4.706 -11.433,-11.806 H 0 Z m 0,-43.076 v 22.734 h -36.225 v -22.734 h -7.31 v 28.957 c 0,13.64 9.903,22.735 18.877,22.735 h 31.97 v -51.692 z"
             inkscape:connector-curvature="0" /></g><g
           transform="translate(898.9805,769.9922)"
           id="g138"><path
             id="path140"
             style="fill:#429dd6;fill-opacity:1;fill-rule:nonzero;stroke:none"
             d="m 0,0 c -8.973,0 -18.876,9.094 -18.876,22.654 v 6.303 c 0,13.641 9.903,22.735 18.876,22.735 H 31.439 V 43.076 H 0 c -5.516,0 -11.564,-5.742 -11.564,-14.119 V 22.654 C -11.564,14.359 -5.516,8.615 0,8.615 H 24.66 V 22.176 H 4.454 v 8.616 H 31.971 V 0 Z"
             inkscape:connector-curvature="0" /></g><g
           transform="translate(982.2695,813.0684)"
           id="g142"><path
             id="path144"
             style="fill:#429dd6;fill-opacity:1;fill-rule:nonzero;stroke:none"
             d="m 0,0 h -24.658 c -4.986,0 -10.369,-4.706 -11.433,-11.806 H 0 Z m 0,-43.076 v 22.734 h -36.225 v -22.734 h -7.31 v 28.957 c 0,13.64 9.903,22.735 18.877,22.735 h 31.97 v -51.692 z"
             inkscape:connector-curvature="0" /></g><g
           transform="translate(1040.6348,806.9268)"
           id="g146"><path
             id="path148"
             style="fill:#429dd6;fill-opacity:1;fill-rule:nonzero;stroke:none"
             d="M 0,0 C 0,2.632 -1.197,6.142 -8.242,6.142 H -35.095 V -6.143 H -8.242 C -1.197,-6.143 0,-2.633 0,0 m 7.244,0 c 0,-5.345 -1.994,-9.653 -6.248,-12.285 3.723,-4.069 6.115,-9.573 6.115,-16.513 v -8.057 h -7.244 v 8.057 c 0,8.296 -5.916,14.119 -10.967,14.119 H -35.095 V -36.855 H -42.34 V 14.758 H -8.242 C 1.662,14.758 7.244,8.615 7.244,0"
             inkscape:connector-curvature="0" /></g><g
           transform="translate(1099.4648,813.0684)"
           id="g150"><path
             id="path152"
             style="fill:#429dd6;fill-opacity:1;fill-rule:nonzero;stroke:none"
             d="m 0,0 h -24.66 c -4.985,0 -10.369,-4.706 -11.432,-11.806 H 0 Z m 0,-43.076 v 22.734 h -36.226 v -22.734 h -7.311 v 28.957 c 0,13.64 9.904,22.735 18.877,22.735 H 7.311 v -51.692 z"
             inkscape:connector-curvature="0" /></g><g
           transform="translate(702.7617,751.8555)"
           id="g154"><path
             id="path156"
             style="fill:#818385;fill-opacity:1;fill-rule:nonzero;stroke:none"
             d="M 0,0 H 4.973 V -1.567 H 0 V -6.642 H -1.788 V 5.211 H 5.824 V 3.542 H 0 Z"
             inkscape:connector-curvature="0" /></g><g
           transform="translate(729.8164,757.0664)"
           id="g158"><path
             id="path160"
             style="fill:#818385;fill-opacity:1;fill-rule:nonzero;stroke:none"
             d="M 0,0 H 7.611 V -1.669 H 1.787 V -5.092 H 6.76 V -6.659 H 1.787 v -3.525 h 5.824 v -1.669 H 0 Z"
             inkscape:connector-curvature="0" /></g><g
           transform="translate(760.7529,755.499)"
           id="g162"><path
             id="path164"
             style="fill:#818385;fill-opacity:1;fill-rule:nonzero;stroke:none"
             d="m 0,0 v -3.644 h 2.741 c 1.176,0 2.061,0.681 2.061,1.908 C 4.802,-0.562 4.001,0 2.844,0 Z M 2.333,-5.211 H 0 v -5.074 H -1.788 V 1.567 h 4.802 c 1.975,0 3.457,-1.396 3.457,-3.303 0,-1.55 -0.868,-2.759 -2.316,-3.287 l 2.758,-5.262 H 4.888 Z"
             inkscape:connector-curvature="0" /></g><g
           transform="translate(792.7109,755.3975)"
           id="g166"><path
             id="path168"
             style="fill:#818385;fill-opacity:1;fill-rule:nonzero;stroke:none"
             d="m 0,0 c -0.869,0 -1.465,-0.409 -1.856,-0.869 -0.46,-0.612 -0.613,-0.971 -0.613,-3.405 0,-2.453 0.153,-2.776 0.613,-3.372 0.391,-0.477 0.987,-0.886 1.856,-0.886 0.868,0 1.498,0.409 1.855,0.886 0.495,0.579 0.614,0.954 0.614,3.372 0,2.4 -0.119,2.826 -0.614,3.405 C 1.498,-0.409 0.868,0 0,0 M 3.865,-7.936 C 3.219,-9.4 1.584,-10.303 0,-10.303 c -1.584,0 -3.219,0.903 -3.865,2.367 -0.274,0.63 -0.358,1.329 -0.375,2.214 -0.018,0.187 -0.018,0.409 -0.018,0.647 v 1.6 c 0,0.256 0,0.478 0.018,0.664 0.017,0.886 0.101,1.584 0.375,2.214 0.646,1.465 2.281,2.368 3.865,2.368 1.584,0 3.219,-0.903 3.865,-2.368 0.273,-0.63 0.358,-1.328 0.375,-2.214 0.017,-0.186 0.017,-0.408 0.017,-0.664 v -1.6 c 0,-0.238 0,-0.46 -0.017,-0.647 C 4.223,-6.607 4.138,-7.306 3.865,-7.936"
             inkscape:connector-curvature="0" /></g><g
           transform="translate(818.7949,747.4619)"
           id="g170"><path
             id="path172"
             style="fill:#818385;fill-opacity:1;fill-rule:nonzero;stroke:none"
             d="M 0,0 C -0.273,0.63 -0.358,1.328 -0.375,2.214 -0.393,2.4 -0.393,2.622 -0.393,2.86 v 0.801 0.8 c 0,0.256 0,0.477 0.018,0.664 0.017,0.886 0.102,1.584 0.375,2.214 0.646,1.465 2.281,2.367 3.865,2.367 2.248,0 3.797,-1.566 4.172,-3.491 H 6.164 C 5.875,7.151 5.023,7.936 3.865,7.936 2.996,7.936 2.366,7.526 2.009,7.066 1.549,6.454 1.396,6.096 1.396,3.661 c 0,-2.452 0.153,-2.775 0.613,-3.372 0.357,-0.476 0.987,-0.886 1.856,-0.886 1.158,0 2.01,0.784 2.299,1.721 H 8.037 C 7.662,-0.801 6.113,-2.367 3.865,-2.367 2.281,-2.367 0.646,-1.465 0,0"
             inkscape:connector-curvature="0" /></g><path
           id="path174"
           style="fill:#818385;fill-opacity:1;fill-rule:nonzero;stroke:none"
           d="m 847.961,757.066 h 1.787 v -11.853 h -1.787 z"
           inkscape:connector-curvature="0" /><g
           transform="translate(875.7988,755.3975)"
           id="g176"><path
             id="path178"
             style="fill:#818385;fill-opacity:1;fill-rule:nonzero;stroke:none"
             d="M 0,0 C -0.869,0 -1.465,-0.409 -1.857,-0.869 -2.316,-1.481 -2.47,-1.84 -2.47,-4.274 c 0,-2.453 0.154,-2.776 0.613,-3.372 0.392,-0.477 0.988,-0.886 1.857,-0.886 0.867,0 1.498,0.409 1.855,0.886 0.495,0.579 0.614,0.954 0.614,3.372 0,2.4 -0.119,2.826 -0.614,3.405 C 1.498,-0.409 0.867,0 0,0 M 3.865,-7.936 C 3.218,-9.4 1.583,-10.303 0,-10.303 c -1.584,0 -3.219,0.903 -3.866,2.367 -0.273,0.63 -0.358,1.329 -0.374,2.214 -0.018,0.187 -0.018,0.409 -0.018,0.647 v 1.6 c 0,0.256 0,0.478 0.018,0.664 0.016,0.886 0.101,1.584 0.374,2.214 0.647,1.465 2.282,2.368 3.866,2.368 1.583,0 3.218,-0.903 3.865,-2.368 0.272,-0.63 0.358,-1.328 0.374,-2.214 0.017,-0.186 0.017,-0.408 0.017,-0.664 v -1.6 c 0,-0.238 0,-0.46 -0.017,-0.647 C 4.223,-6.607 4.137,-7.306 3.865,-7.936"
             inkscape:connector-curvature="0" /></g><g
           transform="translate(901.6777,749.3857)"
           id="g180"><path
             id="path182"
             style="fill:#818385;fill-opacity:1;fill-rule:nonzero;stroke:none"
             d="M 0,0 V 7.681 H 1.787 V 0.204 c 0,-1.651 1.057,-2.707 2.453,-2.707 1.379,0 2.451,0.886 2.451,2.537 V 7.681 H 8.463 V -0.17 C 8.463,-2.622 6.59,-4.274 4.24,-4.274 1.873,-4.274 0,-2.571 0,0"
             inkscape:connector-curvature="0" /></g><g
           transform="translate(931.252,746.7295)"
           id="g184"><path
             id="path186"
             style="fill:#818385;fill-opacity:1;fill-rule:nonzero;stroke:none"
             d="M 0,0 1.175,1.328 C 2.077,0.596 3.27,0.153 4.563,0.153 6.062,0.153 6.947,0.8 6.947,1.822 6.947,2.418 6.709,2.86 6.249,3.15 5.892,3.372 5.193,3.491 4.58,3.559 3.422,3.695 2.299,3.831 1.447,4.751 0.902,5.364 0.63,6.097 0.63,6.981 c 0,2.027 1.431,3.457 3.882,3.457 1.482,0 2.776,-0.494 3.866,-1.225 L 7.391,7.748 C 6.505,8.31 5.5,8.668 4.428,8.668 3.32,8.668 2.418,8.089 2.418,6.947 2.418,5.193 4.955,5.433 6.13,5.126 7.9,4.648 8.735,3.27 8.735,1.822 c 0,-2.197 -1.6,-3.44 -4.188,-3.44 C 2.758,-1.618 1.242,-1.073 0,0"
             inkscape:connector-curvature="0" /></g><g
           transform="translate(989.7539,755.3975)"
           id="g188"><path
             id="path190"
             style="fill:#818385;fill-opacity:1;fill-rule:nonzero;stroke:none"
             d="m 0,0 h -2.366 v -8.515 h 2.418 c 0.868,0 1.481,0.409 1.873,0.886 0.493,0.579 0.596,0.919 0.596,3.355 0,2.418 -0.103,2.775 -0.596,3.371 C 1.533,-0.443 0.869,0 0,0 M 3.917,-7.816 C 3.27,-9.281 1.635,-10.184 0.052,-10.184 H -4.154 V 1.669 h 4.172 c 1.6,0 3.269,-0.903 3.899,-2.351 0.29,-0.63 0.323,-1.328 0.375,-2.214 0.017,-0.187 0.017,-0.374 0.017,-0.561 v -0.716 -0.8 c 0,-0.221 0,-0.442 -0.017,-0.63 C 4.24,-6.488 4.207,-7.187 3.917,-7.816"
             inkscape:connector-curvature="0" /></g><g
           transform="translate(1017.7793,755.499)"
           id="g192"><path
             id="path194"
             style="fill:#818385;fill-opacity:1;fill-rule:nonzero;stroke:none"
             d="m 0,0 v -3.644 h 2.741 c 1.175,0 2.061,0.681 2.061,1.908 C 4.802,-0.562 4.002,0 2.844,0 Z M 2.332,-5.211 H 0 v -5.074 H -1.788 V 1.567 h 4.802 c 1.975,0 3.457,-1.396 3.457,-3.303 0,-1.55 -0.869,-2.759 -2.317,-3.287 l 2.76,-5.262 H 4.887 Z"
             inkscape:connector-curvature="0" /></g><path
           id="path196"
           style="fill:#818385;fill-opacity:1;fill-rule:nonzero;stroke:none"
           d="m 1046.06,757.066 h 1.788 v -11.853 h -1.788 z"
           inkscape:connector-curvature="0" /><g
           transform="translate(1072.9268,745.2139)"
           id="g198"><path
             id="path200"
             style="fill:#818385;fill-opacity:1;fill-rule:nonzero;stroke:none"
             d="m 0,0 -3.95,11.853 h 1.889 l 2.725,-8.89 h 0.051 l 2.724,8.89 H 5.313 L 1.38,0 Z"
             inkscape:connector-curvature="0" /></g><g
           transform="translate(1099.3682,757.0664)"
           id="g202"><path
             id="path204"
             style="fill:#818385;fill-opacity:1;fill-rule:nonzero;stroke:none"
             d="M 0,0 H 7.612 V -1.669 H 1.788 V -5.092 H 6.761 V -6.659 H 1.788 v -3.525 h 5.824 v -1.669 H 0 Z"
             inkscape:connector-curvature="0" /></g><g
           transform="translate(1116.4326,733.5513)"
           id="g206"><path
             id="path208"
             style="fill:#3783b3;fill-opacity:1;fill-rule:nonzero;stroke:none"
             d="m 0,0 h 10.249 c 0.495,3.836 0.957,7.769 1.371,11.822 1.481,14.484 1.95,26.782 1.748,37.198 -2.414,0.547 -4.879,1.081 -7.379,1.603 C 5.019,32.929 2.793,15.776 0,0"
             inkscape:connector-curvature="0" /></g><g
           transform="translate(1191.2959,733.5513)"
           id="g210"><path
             id="path212"
             style="fill:#3783b3;fill-opacity:1;fill-rule:nonzero;stroke:none"
             d="M 0,0 H 5.68 C 4.063,10.131 2.252,19.044 0.323,26.916 -1.519,28.035 -3.481,29.137 -5.566,30.221 -3.509,21.536 -1.612,11.544 0,0"
             inkscape:connector-curvature="0" /></g><g
           transform="translate(1145.9502,733.5513)"
           id="g214"><path
             id="path216"
             style="fill:#3783b3;fill-opacity:1;fill-rule:nonzero;stroke:none"
             d="M 0,0 H 9.681 C 9.677,2.019 9.663,4.054 9.632,6.122 9.416,20.558 8.494,32.713 7.146,42.934 4.685,43.673 2.158,44.397 -0.434,45.104 0.564,29.66 0.58,14.424 0,0"
             inkscape:connector-curvature="0" /></g><g
           transform="translate(1162.5547,733.5513)"
           id="g218"><path
             id="path220"
             style="fill:#3783b3;fill-opacity:1;fill-rule:nonzero;stroke:none"
             d="M 0,0 H 5.647 C 5.091,15.545 3.747,28.467 1.944,39.229 0.333,39.796 -1.323,40.354 -3.007,40.906 -1.348,29.736 -0.215,16.263 0,0"
             inkscape:connector-curvature="0" /></g><g
           transform="translate(1184.3584,733.5513)"
           id="g222"><path
             id="path224"
             style="fill:#3783b3;fill-opacity:1;fill-rule:nonzero;stroke:none"
             d="m 0,0 c -0.144,1.097 -0.278,2.181 -0.432,3.29 -1.615,11.692 -3.504,21.757 -5.537,30.451 -2.703,1.202 -5.555,2.379 -8.556,3.527 C -12.25,24.687 -10.638,12.137 -9.514,0 Z"
             inkscape:connector-curvature="0" /></g><g
           transform="translate(1140.5283,779.9746)"
           id="g226"><path
             id="path228"
             style="fill:#3783b3;fill-opacity:1;fill-rule:nonzero;stroke:none"
             d="m 0,0 c -1.513,0.389 -3.044,0.772 -4.596,1.15 0.529,-11.886 0.159,-26.281 -1.678,-43.691 -0.139,-1.313 -0.281,-2.597 -0.422,-3.882 h 5.827 C 0.8,-27.684 0.874,-12.424 0,0"
             inkscape:connector-curvature="0" /></g></g></g><g
       id="g230"><g
         clip-path="url(#clipPath236)"
         id="g232"><g
           transform="translate(1277.2148,682.9341)"
           id="g238"><path
             id="path240"
             style="fill:#3783b3;fill-opacity:1;fill-rule:nonzero;stroke:none"
             d="m 0,0 c 0,67.45 -160.795,122.131 -359.146,122.131 -198.35,0 -359.146,-54.681 -359.146,-122.131 0,-67.453 160.796,-122.132 359.146,-122.132 C -160.795,-122.132 0,-67.453 0,0"
             inkscape:connector-curvature="0" /></g></g></g></g></svg>