<?xml version="1.0" encoding="UTF-8"?>
<svg width="278px" height="46px" viewBox="0 0 278 46" version="1.1" xmlns="http://www.w3.org/2000/svg" xmlns:xlink="http://www.w3.org/1999/xlink">
    <!-- Generator: Sketch 48.2 (47327) - http://www.bohemiancoding.com/sketch -->
    <title>Workable</title>
    <desc>Created with Sketch.</desc>
    <defs></defs>
    <g id="Landing-B" stroke="none" stroke-width="1" fill="none" fill-rule="evenodd" transform="translate(-878.000000, -3341.000000)" opacity="0.699999988">
        <g id="Sponsors" transform="translate(1.000000, 2823.000000)" fill="#010000">
            <g id="Logos" style="mix-blend-mode: luminosity;" transform="translate(210.000000, 262.000000)">
                <g id="Workable" transform="translate(667.000000, 256.000000)">
                    <path d="M215.580114,29.0045714 C214.880686,32.4582857 212.917257,34.456 209.904686,34.8994286 C209.472686,34.9634286 209.0224,34.9954286 208.549257,34.9954286 C207.4064,34.9954286 206.167543,34.7942857 205.273829,34.0262857 C203.975543,32.9131429 203.664686,30.9954286 204.727543,29.6765714 C205.804114,28.3394286 207.925257,28.1017143 209.904686,28.0971429 C210.898971,28.0925714 211.861257,28.1474286 212.633829,28.1474286 L215.714971,28.1474286 C215.682971,28.4262857 215.637257,28.7165714 215.580114,29.0045714 M214.332114,14.3531429 C212.882971,13.6514286 211.372114,13.2925714 209.904686,13.2468571 C205.191543,13.1074286 200.887543,16.2114286 200.368686,21.7931429 L204.601829,21.7931429 C204.972114,20.1954286 205.698971,19.0685714 206.608686,18.344 C207.564114,17.5851429 208.732114,17.2262857 209.904686,17.2354286 C211.109257,17.2422857 212.3184,17.6377143 213.314971,18.3851429 C214.839543,19.5325714 215.856686,21.5097143 215.557257,24.1771429 L212.4144,24.1771429 C211.6144,24.1771429 210.7664,24.168 209.904686,24.1817143 C208.149257,24.2045714 206.329829,24.3234286 204.700114,24.8011429 C201.9824,25.6011429 200.421257,27.1874286 199.820114,29.0228571 C198.3984,33.368 202.359543,39.096 209.020114,38.9885714 C209.317257,38.984 209.612114,38.9702857 209.904686,38.9474286 C214.252114,38.5908571 217.815543,36.1291429 219.303543,31.8045714 C220.039543,29.6628571 220.279543,27.2697143 220.245257,24.9451429 C220.176686,20.1382857 218.076114,16.1634286 214.332114,14.3531429" id="Fill-165"></path>
                    <path d="M240.211886,27.8438857 C240.163886,28.4107429 240.088457,28.9638857 239.992457,29.5010286 C239.894171,30.0381714 239.763886,30.5456 239.592457,31.0210286 C239.4256,31.4941714 239.222171,31.9330286 238.986743,32.3421714 C238.751314,32.7467429 238.477029,33.1101714 238.166171,33.4301714 C237.8576,33.7524571 237.5056,34.0336 237.117029,34.2758857 C236.863314,34.4358857 236.586743,34.5684571 236.285029,34.6736 C236.136457,34.7284571 235.978743,34.7741714 235.823314,34.8153143 C235.395886,34.9204571 234.925029,34.9798857 234.422171,34.9936 C234.3536,34.9981714 234.280457,34.9981714 234.211886,34.9981714 L234.191314,34.9981714 C233.592457,34.9981714 233.050743,34.9478857 232.573029,34.8518857 C232.0976,34.7558857 231.6816,34.6164571 231.318171,34.4290286 C230.799314,34.1593143 230.362743,33.8004571 230.010743,33.3547429 L230.010743,33.3524571 C229.946743,33.2747429 229.878171,33.1810286 229.811886,33.0827429 C229.750171,32.9867429 229.688457,32.8884571 229.6336,32.7901714 L229.631314,32.7901714 L229.629029,32.7810286 C229.421029,32.4130286 229.247314,31.9970286 229.110171,31.5444571 C228.968457,31.0850286 228.858743,30.5753143 228.7856,30.0176 C228.723886,29.5650286 228.6736,29.0736 228.637029,28.5547429 L228.637029,28.5524571 L228.616457,28.2416 C228.5776,27.6038857 228.557029,26.9273143 228.554743,26.2164571 L228.557029,26.2164571 L228.557029,26.1410286 L228.554743,26.1410286 C228.554743,25.1193143 228.595886,24.1730286 228.669029,23.3021714 L228.719314,22.8016 C228.735314,22.6393143 228.755886,22.4770286 228.774171,22.3193143 L228.776457,22.3193143 L228.7856,22.2621714 C228.858743,21.7021714 228.968457,21.1947429 229.110171,20.7353143 C229.247314,20.2804571 229.421029,19.8690286 229.629029,19.4987429 C229.917029,18.9798857 230.291886,18.5501714 230.742171,18.2118857 C230.835886,18.1433143 230.927314,18.0793143 231.016457,18.0244571 C231.107886,17.9673143 231.206171,17.9101714 231.306743,17.8576 L231.309029,17.8553143 L231.3136,17.8530286 L231.315886,17.8530286 C231.615314,17.6976 231.958171,17.5718857 232.330743,17.4804571 L232.568457,17.4256 C233.0416,17.3318857 233.578743,17.2816 234.166171,17.2816 L234.191314,17.2816 C234.269029,17.2816 234.346743,17.2838857 234.422171,17.2838857 C234.927314,17.2953143 235.400457,17.3433143 235.830171,17.4256 C236.070171,17.4758857 236.298743,17.5330286 236.515886,17.6038857 L236.518171,17.6038857 C236.730743,17.6724571 236.931886,17.7547429 237.1216,17.8438857 L237.123886,17.8461714 L237.1376,17.8530286 L237.139886,17.8553143 C237.523886,18.0427429 237.8736,18.2736 238.179886,18.5524571 C238.488457,18.8267429 238.760457,19.1467429 238.9936,19.5101714 C239.3296,20.0381714 239.594743,20.6530286 239.791314,21.3638857 C239.827886,21.4964571 239.864457,21.6404571 239.896457,21.7958857 C239.930743,21.9444571 239.960457,22.0953143 239.9856,22.2484571 L239.992457,22.2713143 C240.088457,22.8290286 240.163886,23.4301714 240.211886,24.0770286 C240.259886,24.7216 240.287314,25.4118857 240.287314,26.1410286 C240.287314,26.7124571 240.259886,27.2838857 240.211886,27.8438857 M243.149029,17.8690286 L243.146743,17.8667429 C243.059886,17.6976 242.966171,17.5238857 242.867886,17.3547429 C242.765029,17.1787429 242.662171,17.0164571 242.563886,16.8701714 L242.5616,16.8678857 L242.552457,16.8564571 L242.554743,16.8564571 C242.008457,16.0518857 241.343314,15.3707429 240.557029,14.8244571 L240.554743,14.8221714 C240.408457,14.7193143 240.248457,14.6164571 240.086171,14.5181714 C239.926171,14.4244571 239.759314,14.3307429 239.587886,14.2438857 L239.581029,14.2393143 C239.069029,13.9833143 238.515886,13.7776 237.917029,13.6267429 C237.807314,13.5993143 237.688457,13.5718857 237.562743,13.5444571 C236.831314,13.3936 236.038171,13.3158857 235.183314,13.3158857 L235.183314,13.3136 L235.158171,13.3136 C234.906743,13.3136 234.659886,13.3181714 234.422171,13.3273143 C233.832457,13.3524571 233.2816,13.4073143 232.7696,13.4896 C232.406171,13.5490286 232.067886,13.6221714 231.752457,13.7067429 C231.437029,13.7936 231.133029,13.8964571 230.845029,14.0153143 L230.826743,14.0244571 L230.824457,14.0244571 C230.250743,14.2644571 229.734171,14.5638857 229.279314,14.9227429 C229.021029,15.1284571 228.778743,15.3501714 228.557029,15.5970286 L228.557029,5.14445714 L228.557029,4.88845714 L228.298743,4.88845714 L224.3856,4.88845714 L224.127314,4.88845714 L224.127314,5.14445714 L224.127314,26.1410286 C224.127314,28.1730286 224.253029,29.9833143 224.499886,31.5650286 C224.6256,32.3673143 224.813029,33.1033143 225.0576,33.7730286 C225.306743,34.4496 225.619886,35.0621714 225.990171,35.6061714 C226.739886,36.7056 227.775314,37.5421714 229.094171,38.1158857 C229.752457,38.3993143 230.509029,38.6141714 231.359314,38.7536 C232.205029,38.8953143 233.149029,38.9661714 234.191314,38.9661714 C234.269029,38.9661714 234.346743,38.9638857 234.422171,38.9638857 C236.390171,38.9364571 238.038171,38.5410286 239.3616,37.7821714 C240.045029,37.3890286 240.6576,36.9341714 241.2016,36.4198857 C241.741029,35.9056 242.211886,35.3318857 242.605029,34.7010286 C242.995886,34.0793143 243.3296,33.4164571 243.603886,32.7261714 C243.878171,32.0381714 244.095314,31.3181714 244.250743,30.5638857 C244.378743,29.9444571 244.4816,29.3273143 244.554743,28.7216 L244.554743,28.7193143 L244.595886,28.3650286 L244.595886,28.3627429 C244.675886,27.6313143 244.714743,26.9021714 244.714743,26.1776 L244.717029,26.1776 L244.717029,26.1410286 C244.717029,24.2210286 244.5456,22.4724571 244.205029,20.9067429 C243.960457,19.7776 243.603886,18.7627429 243.149029,17.8690286" id="Fill-167"></path>
                    <path d="M260.957486,23.1540571 C261.352914,21.1974857 262.207771,19.3940571 263.894629,18.2672 C264.013486,18.1894857 264.132343,18.1140571 264.239771,18.0523429 C264.360914,17.9792 264.484343,17.9152 264.6032,17.8534857 C264.6032,17.8534857 264.605486,17.8534857 264.607771,17.8512 L264.612343,17.8489143 C265.186057,17.5540571 265.862629,17.3529143 266.632914,17.2500571 C267.055771,17.1952 267.506057,17.1654857 267.988343,17.1654857 C269.1312,17.1654857 270.367771,17.3666286 271.263771,18.1346286 C272.559771,19.2477714 272.870629,21.1654857 271.810057,22.4843429 C270.733486,23.8214857 268.612343,24.0569143 266.632914,24.0637714 C265.636343,24.0683429 264.676343,24.0157714 263.903771,24.0157714 L260.820343,24.0157714 C260.854629,23.7346286 260.900343,23.4443429 260.957486,23.1540571 Z M273.151771,30.3677714 C272.354057,33.8032 269.423771,35.1814857 266.632914,34.8752 C263.490057,34.5346286 260.525486,32.0569143 260.980343,27.9814857 L264.1232,27.9814857 C264.9232,27.9814857 265.768914,27.9906286 266.632914,27.9792 C268.388343,27.9540571 270.205486,27.8374857 271.837486,27.3574857 C274.5552,26.5597714 276.116343,24.9712 276.7152,23.1380571 C278.136914,18.7929143 274.178057,13.0672 267.517486,13.1723429 C267.215771,13.1769143 266.9232,13.1906286 266.632914,13.2112 C259.3552,13.7643429 256.052343,19.6546286 256.292343,27.2157714 C256.500343,33.7232 260.468343,38.5186286 266.632914,38.8957714 C267.090057,38.9209143 267.556343,38.9254857 268.034057,38.9072 C272.776914,38.6923429 276.895771,35.6294857 277.384914,30.3677714 L273.151771,30.3677714 Z" id="Fill-169"></path>
                    <path d="M252.944,37.3325714 C252.896,37.1222857 252.861714,36.9051429 252.838857,36.6811429 C252.797714,36.2194286 252.774857,35.728 252.774857,35.2091429 L252.774857,5.14514286 L252.774857,4.88914286 L252.516571,4.88914286 L248.603429,4.88914286 L248.342857,4.88914286 L248.342857,5.14514286 L248.342857,35.2091429 C248.342857,35.4445714 248.347429,35.6914286 248.356571,35.9474286 C248.363429,36.2011429 248.377143,36.4434286 248.390857,36.6765714 C248.413714,37.0034286 248.448,37.3257143 248.500571,37.6388571 L248.500571,37.6411429 L248.530286,37.824 L248.530286,37.8285714 L248.566857,38.0091429 L248.569143,38.0137143 L248.580571,38.0708571 L248.621714,38.2742857 L248.832,38.2742857 L252.884571,38.2742857 L253.257143,38.2742857 L253.122286,37.9268571 C253.053714,37.744 252.992,37.5451429 252.944,37.3325714" id="Fill-171"></path>
                    <path d="M153.7008,27.9666286 C153.661943,28.6134857 153.607086,29.2192 153.531657,29.7769143 C153.426514,30.5654857 153.250514,31.2603429 153.010514,31.8614857 L153.008229,31.8614857 C152.962514,31.9826286 152.909943,32.0992 152.861943,32.2043429 C152.8048,32.3163429 152.754514,32.4237714 152.701943,32.5174857 L152.688229,32.5403429 C152.4848,32.9014857 152.240229,33.2237714 151.961371,33.4957714 C151.682514,33.7654857 151.360229,33.9986286 150.9968,34.1883429 C150.697371,34.3437714 150.3568,34.4694857 149.984229,34.5586286 L149.7488,34.6112 C149.273371,34.7049143 148.736229,34.7574857 148.1488,34.7574857 L148.123657,34.7574857 C147.5248,34.7574857 146.983086,34.7072 146.505371,34.6112 C146.032229,34.5152 145.611657,34.3757714 145.250514,34.1883429 C144.889371,34.0009143 144.567086,33.7677714 144.285943,33.4957714 C144.007086,33.2237714 143.762514,32.9014857 143.559086,32.5403429 C143.353371,32.1723429 143.179657,31.7563429 143.040229,31.3037714 C142.898514,30.8443429 142.793371,30.3346286 142.715657,29.7769143 C142.640229,29.2192 142.583086,28.6134857 142.546514,27.9666286 C142.509943,27.3243429 142.489371,26.6340571 142.489371,25.9003429 C142.489371,25.1643429 142.509943,24.4763429 142.546514,23.8294857 C142.583086,23.1849143 142.640229,22.5814857 142.715657,22.0192 C142.793371,21.4614857 142.898514,20.9540571 143.040229,20.4946286 C143.179657,20.0397714 143.353371,19.6260571 143.559086,19.2557714 C143.762514,18.8946286 144.007086,18.5769143 144.285943,18.3026286 C144.567086,18.0283429 144.889371,17.7974857 145.250514,17.6123429 C145.490514,17.4866286 145.755657,17.3792 146.041371,17.2969143 C146.192229,17.2534857 146.343086,17.2169143 146.496229,17.1872 C146.971657,17.0912 147.506514,17.0409143 148.098514,17.0409143 L148.123657,17.0409143 C148.976229,17.0409143 149.707657,17.1392 150.322514,17.3334857 L150.322514,17.3357714 C150.439086,17.3700571 150.555657,17.4134857 150.667657,17.4592 C150.779657,17.5049143 150.887086,17.5529143 150.983086,17.6032 L150.9968,17.6100571 L150.9968,17.6123429 C151.360229,17.7997714 151.680229,18.0306286 151.961371,18.3026286 C152.240229,18.5769143 152.4848,18.8946286 152.688229,19.2557714 C152.9808,19.7814857 153.207086,20.3963429 153.367086,21.1049143 C153.399086,21.2489143 153.431086,21.3929143 153.456229,21.5369143 C153.479086,21.6786286 153.504229,21.8294857 153.527086,21.9894857 L153.531657,22.0192 C153.607086,22.5814857 153.661943,23.1849143 153.7008,23.8294857 C153.739657,24.4763429 153.757943,25.1643429 153.757943,25.9003429 C153.757943,26.6340571 153.739657,27.3243429 153.7008,27.9666286 M157.901943,21.8912 C157.872229,21.6854857 157.837943,21.4706286 157.801371,21.2512 L157.792229,21.2054857 C157.602514,20.1083429 157.293943,19.0980571 156.871086,18.1746286 C156.7888,17.9917714 156.699657,17.8134857 156.608229,17.6420571 C156.5168,17.4660571 156.418514,17.2969143 156.320229,17.1300571 L156.311086,17.1140571 L156.311086,17.1117714 C155.579657,15.9072 154.557943,14.9312 153.245943,14.1906286 C152.587657,13.8157714 151.826514,13.5346286 150.969371,13.3472 C150.121371,13.1643429 149.170514,13.0729143 148.123657,13.0729143 L148.123657,13.0706286 C146.647086,13.0706286 145.355657,13.2626286 144.253943,13.6397714 C144.039086,13.7152 143.831086,13.7997714 143.625371,13.8889143 C143.419657,13.9803429 143.223086,14.0786286 143.040229,14.1792 L143.037943,14.1814857 L143.024229,14.1906286 C142.363657,14.5586286 141.773943,14.9883429 141.261943,15.4729143 L141.259657,15.4752 C140.743086,15.9620571 140.301943,16.5083429 139.938514,17.1117714 C139.421943,17.9666286 139.019657,18.9106286 138.736229,19.9369143 C138.685943,20.1243429 138.633371,20.3277714 138.585371,20.5494857 C138.537371,20.7597714 138.496229,20.9700571 138.459657,21.1803429 L138.455086,21.2054857 C138.345371,21.8294857 138.258514,22.4672 138.1968,23.1140571 L138.1968,23.1163429 L138.162514,23.4934857 L138.160229,23.4934857 C138.096229,24.2592 138.061943,25.0477714 138.059657,25.8477714 L138.059657,25.9003429 C138.059657,27.0203429 138.128229,28.1289143 138.258514,29.2306286 C138.285943,29.4500571 138.315657,29.6694857 138.345371,29.8774857 C138.375086,30.0809143 138.411657,30.3003429 138.445943,30.5197714 L138.455086,30.5700571 C138.587657,31.3403429 138.779657,32.0717714 139.024229,32.7597714 C139.273371,33.4477714 139.577371,34.0923429 139.938514,34.6866286 C140.461943,35.5506286 141.143086,36.3003429 141.975086,36.9289143 C142.130514,37.0477714 142.301943,37.1620571 142.480229,37.2809143 C142.658514,37.3974857 142.841371,37.5072 143.017371,37.6054857 L143.019657,37.6077714 L143.026514,37.6100571 C143.579657,37.9209143 144.205943,38.1677714 144.891657,38.3483429 C145.021943,38.3849143 145.159086,38.4169143 145.298514,38.4466286 C146.137371,38.6294857 147.074514,38.7232 148.1008,38.7254857 L148.123657,38.7254857 C149.170514,38.7254857 150.121371,38.6317714 150.969371,38.4489143 C151.826514,38.2637714 152.585371,37.9826286 153.245943,37.6100571 C154.187657,37.0752 154.983086,36.4214857 155.623086,35.6512 C155.7488,35.5003429 155.867657,35.3449143 155.979657,35.1849143 C156.091657,35.0340571 156.199086,34.8672 156.304229,34.6934857 L156.306514,34.6912 L156.311086,34.6866286 C156.823086,33.8340571 157.225371,32.8854857 157.5088,31.8477714 C157.563657,31.6420571 157.618514,31.4363429 157.661943,31.2306286 C157.709943,31.0180571 157.751086,30.8032 157.787657,30.5929143 L157.792229,30.5700571 C157.899657,29.9392 157.986514,29.2992 158.050514,28.6546286 L158.050514,28.6523429 L158.087086,28.2774857 L158.087086,28.2752 C158.151086,27.5140571 158.185371,26.7346286 158.187657,25.9460571 L158.187657,25.9003429 C158.187657,24.7574857 158.121371,23.6329143 157.9888,22.5357714 C157.961371,22.3140571 157.933943,22.0992 157.901943,21.8912" id="Fill-173"></path>
                    <polygon id="Fill-175" points="132.287771 13.808 132.095771 13.808 132.040914 13.9931429 126.3792 32.7771429 121.951771 14.0091429 121.903771 13.808 121.698057 13.808 117.967771 13.808 117.764343 13.808 117.718629 14.0091429 113.286629 32.7771429 107.6272 13.9931429 107.572343 13.808 107.380343 13.808 103.236343 13.808 102.879771 13.808 102.994057 14.1462857 110.863771 37.856 110.9232 38.0365714 111.108343 38.0365714 115.160914 38.0365714 115.357486 38.0365714 115.407771 37.8468571 119.855771 21.76 124.258057 37.8445714 124.310629 38.0342857 124.5072 38.0342857 128.557486 38.0342857 128.742629 38.0342857 128.802057 37.8582857 136.719771 14.1485714 136.831771 13.808 136.4752 13.808"></polygon>
                    <path d="M172.995429,13.7410286 L172.993143,13.7410286 L172.604571,13.7273143 L172.6,13.7273143 L172.398857,13.7204571 L172.396571,13.7204571 L172.081143,13.7181714 L172.076571,13.7181714 L171.88,13.7158857 C170.412571,13.7158857 169.130286,13.8576 168.033143,14.1387429 L168.033143,14.1364571 C167.818286,14.1913143 167.610286,14.2553143 167.411429,14.3193143 C167.368,14.3330286 167.329143,14.3467429 167.285714,14.3604571 C167.134857,14.4130286 166.979429,14.4701714 166.830857,14.5341714 L166.810286,14.5433143 L166.808,14.5433143 C165.857143,14.9387429 165.054857,15.4233143 164.412571,15.9901714 L164.412571,15.9924571 C164.284571,16.1044571 164.165714,16.2210286 164.051429,16.3376 C163.937143,16.4541714 163.825143,16.5798857 163.722286,16.7056 L163.72,16.7078857 L163.715429,16.7124571 C163.352,17.1558857 163.043429,17.6290286 162.794286,18.1296 C162.542857,18.6301714 162.348571,19.1604571 162.213714,19.7136 C162.104,20.1707429 162.014857,20.6256 161.953143,21.0736 L161.953143,21.0758857 L161.916571,21.3364571 L161.916571,21.3387429 C161.852571,21.8781714 161.816,22.4198857 161.816,22.9638857 L161.816,22.9981714 L161.816,37.7776 L161.816,38.0358857 L162.074286,38.0358857 L165.987429,38.0358857 L166.245714,38.0358857 L166.245714,37.7776 L166.245714,22.9981714 C166.245714,22.7444571 166.264,22.4793143 166.300571,22.2027429 C166.337143,21.9261714 166.392,21.6267429 166.469714,21.3090286 C166.570286,20.8747429 166.741714,20.4564571 166.974857,20.0633143 C167.025143,19.9810286 167.075429,19.9010286 167.123429,19.8278857 C167.173714,19.7524571 167.230857,19.6770286 167.285714,19.5993143 L167.294857,19.5878857 L167.299429,19.5856 C167.587429,19.2016 167.962286,18.8610286 168.414857,18.5661714 C168.506286,18.5090286 168.6,18.4541714 168.693714,18.3970286 C168.794286,18.3421714 168.897143,18.2850286 168.995429,18.2370286 L169.002286,18.2324571 L169.002286,18.2347429 C169.731429,17.8713143 170.693714,17.6861714 171.88,17.6861714 L172.067429,17.6884571 L172.261714,17.6930286 L172.424,17.6998857 L172.556571,17.7067429 C172.805714,17.7227429 173.038857,17.7296 173.251429,17.7296 L173.253714,17.7296 L173.260571,17.7318857 L173.260571,17.7296 C173.381714,17.7456 173.500571,17.7593143 173.614857,17.7661714 C173.742857,17.7753143 173.873143,17.7776 173.996571,17.7776 L174.257143,17.7776 L174.257143,17.5193143 L174.257143,14.0678857 L174.257143,13.8301714 L174.019429,13.8096 C173.672,13.7798857 173.329143,13.7547429 172.995429,13.7410286" id="Fill-177"></path>
                    <polygon id="Fill-179" points="190.053486 25.2566857 197.552914 14.1641143 197.822629 13.7641143 197.340343 13.7641143 192.597486 13.7641143 192.460343 13.7641143 192.384914 13.8784 181.530057 30.3789714 181.530057 4.90468571 181.530057 4.6464 181.271771 4.6464 177.358629 4.6464 177.100343 4.6464 177.100343 4.90468571 177.100343 37.7778286 177.100343 38.0361143 177.358629 38.0361143 181.271771 38.0361143 181.408914 38.0361143 181.484343 37.9195429 187.3472 29.2132571 193.164343 37.9195429 193.244343 38.0361143 193.3792 38.0361143 198.076343 38.0361143 198.556343 38.0361143 198.2912 37.6338286"></polygon>
                    <path d="M54.0980571,25.1696 C56.8797714,20.2621714 58.2969143,15.8918857 58.2420571,12.5181714 C58.1780571,8.37188571 56.5277714,5.28845714 54.0980571,3.24045714 C46.7860571,-2.90354286 32.3837714,0.376457143 32.5780571,12.7078857 C32.6512,17.3638857 34.9117714,23.3890286 40.7860571,30.6507429 C40.7860571,30.6507429 44.0614857,27.7181714 44.7814857,25.0873143 C29.1814857,3.88274286 61.9746286,2.73074286 45.6569143,26.2393143 C45.6569143,26.2393143 43.7734857,29.3067429 41.3712,31.3616 C36.2832,36.1593143 31.6774857,37.6747429 27.6592,37.0164571 C13.7140571,34.7307429 11.4877714,13.9170286 10.4546286,1.54217143 L0.214628571,1.54217143 C0.210057143,1.67931429 0.207771429,1.81874286 0.205485714,1.95817143 L0.205485714,4.26902857 C0.740342857,28.8267429 18.1163429,62.9844571 45.8877714,36.1158857 C48.6374857,33.3616 50.2032,31.1650286 50.2032,31.1650286 C51.7049143,29.1010286 53.0054857,27.0941714 54.0980571,25.1696" id="Fill-181"></path>
                    <path d="M77.8971429,13.4978286 C77.8102857,13.8132571 77.744,14.1424 77.696,14.4966857 C75.8262857,28.9126857 67.472,41.0978286 54.8777143,34.3892571 C54.6262857,34.7344 54.3657143,35.0704 54.0982857,35.3949714 C52.8365714,36.9104 51.3897143,38.1972571 50.064,39.2166857 C50.032,39.1961143 49.9931429,39.1801143 49.952,39.1686857 C51.3394286,40.0372571 52.7222857,40.7321143 54.0982857,41.2601143 C69.6502857,47.2738286 83.84,32.4098286 85.2068571,13.8269714 L77.8971429,13.4978286 Z" id="Fill-183"></path>
                </g>
            </g>
        </g>
    </g>
</svg>