<?xml version="1.0" encoding="utf-8"?>
<!-- Generator: Adobe Illustrator 21.1.0, SVG Export Plug-In . SVG Version: 6.00 Build 0)  -->
<svg version="1.1" id="Layer_1" xmlns="http://www.w3.org/2000/svg" xmlns:xlink="http://www.w3.org/1999/xlink" x="0px" y="0px"
	 viewBox="0 0 250.5 260.2" style="enable-background:new 0 0 250.5 260.2;" xml:space="preserve">
<style type="text/css">
	.st0{fill:#004E7E;}
	.st1{fill:#00629E;}
	.st2{fill:#66A1C5;}
	.st3{fill:#FFFFFF;}
	.st4{fill:none;stroke:#66A1C5;stroke-width:8;stroke-linecap:round;stroke-linejoin:round;enable-background:new    ;}
	.st5{fill:none;stroke:#004E7E;stroke-width:8;stroke-linecap:round;stroke-linejoin:round;enable-background:new    ;}
</style>
<title>Tickets illustration</title>
<desc>Created with Sketch.</desc>
<path class="st0" d="M209.2,260L14.1,236.7c-8.8-1-15-9-14-17.8L23.5,23.8c1-8.8,9-15,17.8-14l195.1,23.3c8.8,1,15,9,14,17.8
	L227,246.1C225.9,254.8,218,261.1,209.2,260z"/>
<path class="st1" d="M221,246.7H24.5c-8.8,0-16-7.2-16-16V34.2c0-8.8,7.2-16,16-16H221c8.8,0,16,7.2,16,16v196.5
	C237,239.5,229.8,246.7,221,246.7z"/>
<g>
	<path class="st2" d="M78.4,39.8h-1.1c-5.2,0-9.5-4.2-9.5-9.5V9.5C67.8,4.2,72,0,77.2,0l1.1,0c5.2,0,9.5,4.2,9.5,9.5v20.9
		C87.8,35.6,83.6,39.8,78.4,39.8z"/>
	<path class="st2" d="M168.2,39.8h-1.1c-5.2,0-9.5-4.2-9.5-9.5V9.5c0-5.2,4.2-9.5,9.5-9.5l1.1,0c5.2,0,9.5,4.2,9.5,9.5v20.9
		C177.7,35.6,173.4,39.8,168.2,39.8z"/>
</g>
<g>
	<path class="st3" d="M89.8,120.7l-3.7,2.2c-2.3,1.4-4.3,2.5-7,2.5c-3.6,0-7.6-1.8-7.6-6.9c0-3.1,1.4-5.4,3.7-6.7L93,101.5
		c1.7-1,3-1.3,4.6-1.3c5,0,8.8,3.4,8.8,8v70.3c0,4-3.8,7.6-8.3,7.6c-4.6,0-8.3-3.6-8.3-7.6V120.7z"/>
	<path class="st3" d="M173.1,127.4v32.7c0,14.5-9.8,26-27.5,26c-17.7,0-27.5-11.5-27.5-26v-32.7c0-15.7,8.3-28.3,27.5-28.3
		C164.7,99.1,173.1,111.7,173.1,127.4z M134.7,126.6v33.5c0,6.8,3.8,11.4,10.9,11.4c7.1,0,10.9-4.6,10.9-11.4v-33.5
		c0-7.6-3.1-13-10.9-13S134.7,119,134.7,126.6z"/>
</g>
<line class="st4" x1="121" y1="214.9" x2="173.9" y2="214.9"/>
<line class="st5" x1="33.6" y1="74" x2="211.9" y2="74"/>
<line class="st4" x1="84.1" y1="214.9" x2="103.1" y2="214.9"/>
</svg>
